<?xml version="1.0" encoding="utf-8"?>
<!-- Generator: Adobe Illustrator 17.0.0, SVG Export Plug-In . SVG Version: 6.00 Build 0)  -->
<!DOCTYPE svg PUBLIC "-//W3C//DTD SVG 1.1//EN" "http://www.w3.org/Graphics/SVG/1.1/DTD/svg11.dtd">
<svg version="1.1" id="Capa_1" xmlns="http://www.w3.org/2000/svg" xmlns:xlink="http://www.w3.org/1999/xlink" x="0px" y="0px"
	 width="100px" height="100px" viewBox="0 0 100 100" enable-background="new 0 0 100 100" xml:space="preserve">
<g>
	<path fill-rule="evenodd" clip-rule="evenodd" fill="#424243" d="M36.396,15.317c-18.374,2.5-32.493,17.44-32.493,35.504
		c0,19.817,16.989,35.877,37.945,35.877c2.381,0,4.709-0.213,6.972-0.61h47.278V14.945h-54.25h-5.452V15.317z"/>
	<path fill-rule="evenodd" clip-rule="evenodd" d="M38.235,86.534c1.189,0.106,2.394,0.164,3.613,0.164
		c2.381,0,4.709-0.213,6.972-0.61h47.278V28.067H53.585H48.87v0.319C32.976,30.55,20.76,43.47,20.76,59.098
		C20.76,70.998,27.841,81.326,38.235,86.534z"/>
	<path fill-rule="evenodd" clip-rule="evenodd" d="M79.088,11.478H68.751v77.043h10.337V11.478L79.088,11.478z M46.522,11.478
		H36.185v77.043h10.337V11.478z"/>
	<rect x="46.522" y="13.992" fill-rule="evenodd" clip-rule="evenodd" fill="#424243" width="22.231" height="55.571"/>
</g>
</svg>
