<?xml version="1.0" encoding="utf-8"?>
<!-- Generator: Adobe Illustrator 17.0.0, SVG Export Plug-In . SVG Version: 6.00 Build 0)  -->
<!DOCTYPE svg PUBLIC "-//W3C//DTD SVG 1.1//EN" "http://www.w3.org/Graphics/SVG/1.1/DTD/svg11.dtd">
<svg version="1.1" id="Capa_2" xmlns="http://www.w3.org/2000/svg" xmlns:xlink="http://www.w3.org/1999/xlink" x="0px" y="0px"
	 width="600px" height="100px" viewBox="0 0 600 100" enable-background="new 0 0 600 100" xml:space="preserve">
<g>
	<polygon fill-rule="evenodd" clip-rule="evenodd" fill="#6D6E70" points="50.001,5.674 58.598,23.539 76.056,14.139 72.511,33.646 
		92.157,36.303 77.824,50 92.157,63.697 72.511,66.353 76.056,85.86 58.598,76.46 50.001,94.325 41.404,76.46 23.946,85.86 
		27.49,66.353 7.845,63.697 22.177,50 7.845,36.303 27.49,33.646 23.946,14.139 41.404,23.539 	"/>
	<polygon fill-rule="evenodd" clip-rule="evenodd" fill="#BBBCBE" points="50.001,17.204 43.639,30.422 30.722,23.467 
		33.345,37.899 18.809,39.865 29.414,50 18.809,60.135 33.345,62.1 30.722,76.533 43.639,69.578 50.001,82.795 56.362,69.578 
		69.28,76.533 66.657,62.1 81.193,60.135 70.588,50 81.193,39.865 66.657,37.899 69.28,23.467 56.362,30.422 	"/>
	<path fill-rule="evenodd" clip-rule="evenodd" fill="#E6E6E7" d="M38.503,72.344l5.136-2.766l6.362,13.217l6.361-13.217
		l12.918,6.955L66.657,62.1l14.536-1.965L70.588,50l10.605-10.135l-14.536-1.965l1.387-7.628c-1.033-0.11-2.082-0.168-3.145-0.168
		c-16.215,0-29.363,13.148-29.363,29.365C35.535,64.087,36.603,68.457,38.503,72.344z"/>
	<path fill-rule="evenodd" clip-rule="evenodd" fill="#58595B" d="M50.002,64.465c7.968,0,14.466-6.498,14.466-14.465
		c0-7.968-6.498-14.466-14.466-14.466c-7.968,0-14.466,6.498-14.466,14.466C35.536,57.967,42.034,64.465,50.002,64.465z"/>
	<path fill-rule="evenodd" clip-rule="evenodd" fill="#E6E6E7" d="M54.6,60.977c3.514,0,6.379-2.867,6.379-6.38
		c0-3.514-2.865-6.379-6.379-6.379c-3.514,0-6.38,2.865-6.38,6.379C48.22,58.11,51.086,60.977,54.6,60.977z"/>
</g>
<g>
	<polygon fill-rule="evenodd" clip-rule="evenodd" fill="#6D6E70" points="188.387,27.837 177.214,44.215 194.083,54.634 
		175.418,61.318 182.94,79.66 163.912,74.095 159.216,93.357 147.093,77.672 131.972,90.495 131.383,70.675 111.613,72.163 
		122.786,55.785 105.917,45.365 124.583,38.681 117.06,20.34 136.088,25.904 140.784,6.643 152.907,22.328 168.028,9.504 
		168.617,29.324 	"/>
	<polygon fill-rule="evenodd" clip-rule="evenodd" fill="#BBBCBE" points="178.402,33.602 163.774,34.702 163.339,20.037 
		152.151,29.525 143.182,17.92 139.707,32.171 125.627,28.055 131.193,41.626 117.382,46.57 129.865,54.28 121.598,66.398 
		136.226,65.297 136.661,79.963 147.849,70.474 156.818,82.08 160.293,67.829 174.373,71.945 168.807,58.374 182.618,53.43 
		170.135,45.719 	"/>
	<path fill-rule="evenodd" clip-rule="evenodd" fill="#E6E6E7" d="M124.9,51.214l4.964,3.066l-8.267,12.118l14.628-1.101
		l0.435,14.666l11.188-9.489l8.969,11.606l3.475-14.251l14.08,4.116l-5.567-13.571l7.299-2.613c-0.422-0.95-0.895-1.887-1.427-2.807
		c-8.108-14.043-26.068-18.856-40.113-10.748C130.568,44.515,127.317,47.624,124.9,51.214z"/>
	<circle fill-rule="evenodd" clip-rule="evenodd" fill="#58595B" cx="150" cy="50" r="14.466"/>
	<circle fill-rule="evenodd" clip-rule="evenodd" fill="#E6E6E7" cx="148.317" cy="56.282" r="6.38"/>
</g>
<g>
	<polygon fill-rule="evenodd" clip-rule="evenodd" fill="#6D6E70" points="288.388,72.162 268.617,70.675 268.029,90.495 
		252.907,77.672 240.784,93.357 236.089,74.095 217.061,79.66 224.583,61.318 205.917,54.634 222.787,44.215 211.613,27.838 
		231.384,29.324 231.972,9.504 247.094,22.328 259.217,6.643 263.911,25.904 282.94,20.34 275.418,38.681 294.084,45.365 
		277.214,55.785 	"/>
	<polygon fill-rule="evenodd" clip-rule="evenodd" fill="#BBBCBE" points="278.402,66.397 270.136,54.28 282.619,46.57 
		268.807,41.626 274.374,28.055 260.294,32.171 256.819,17.92 247.85,29.525 236.661,20.037 236.226,34.702 221.598,33.603 
		229.865,45.719 217.382,53.43 231.194,58.374 225.627,71.945 239.707,67.829 243.182,82.08 252.151,70.474 263.34,79.963 
		263.775,65.297 	"/>
	<path fill-rule="evenodd" clip-rule="evenodd" fill="#E6E6E7" d="M236.399,28.87l-0.173,5.833l-14.628-1.1l8.267,12.117
		l-12.483,7.71l13.812,4.944l-5.567,13.571l14.08-4.116l3.475,14.251l8.969-11.606l5.912,5.015c0.612-0.84,1.187-1.72,1.718-2.64
		c8.107-14.043,3.295-32.004-10.749-40.113C245.034,30.428,240.716,29.167,236.399,28.87z"/>
	<circle fill-rule="evenodd" clip-rule="evenodd" fill="#58595B" cx="250" cy="50" r="14.466"/>
	<circle fill-rule="evenodd" clip-rule="evenodd" fill="#E6E6E7" cx="243.718" cy="51.684" r="6.38"/>
</g>
<g>
	<polygon fill-rule="evenodd" clip-rule="evenodd" fill="#6D6E70" points="350,94.325 341.402,76.46 323.945,85.86 327.489,66.353 
		307.844,63.697 322.176,50 307.844,36.303 327.489,33.646 323.945,14.139 341.402,23.539 350,5.674 358.597,23.539 376.055,14.139 
		372.51,33.646 392.155,36.303 377.823,50 392.155,63.697 372.51,66.353 376.055,85.86 358.597,76.46 	"/>
	<polygon fill-rule="evenodd" clip-rule="evenodd" fill="#BBBCBE" points="350,82.795 356.361,69.578 369.279,76.533 366.655,62.1 
		381.191,60.135 370.586,50 381.191,39.865 366.655,37.899 369.279,23.467 356.361,30.422 350,17.204 343.638,30.422 330.72,23.467 
		333.344,37.899 318.808,39.865 329.413,50 318.808,60.135 333.344,62.1 330.72,76.533 343.638,69.578 	"/>
	<path fill-rule="evenodd" clip-rule="evenodd" fill="#E6E6E7" d="M361.497,27.656l-5.137,2.766L350,17.204l-6.361,13.218
		l-12.918-6.955l2.623,14.433l-14.536,1.965L329.413,50l-10.605,10.135l14.536,1.965l-1.387,7.627
		c1.033,0.11,2.082,0.168,3.145,0.168c16.215,0,29.363-13.148,29.363-29.364C364.466,35.913,363.398,31.543,361.497,27.656z"/>
	<circle fill-rule="evenodd" clip-rule="evenodd" fill="#58595B" cx="350" cy="50" r="14.466"/>
	<circle fill-rule="evenodd" clip-rule="evenodd" fill="#E6E6E7" cx="345.4" cy="45.401" r="6.38"/>
</g>
<g>
	<polygon fill-rule="evenodd" clip-rule="evenodd" fill="#6D6E70" points="411.613,72.163 422.786,55.785 405.917,45.365 
		424.582,38.681 417.06,20.34 436.088,25.904 440.784,6.643 452.907,22.328 468.028,9.504 468.617,29.324 488.387,27.837 
		477.214,44.215 494.083,54.634 475.418,61.318 482.94,79.66 463.912,74.095 459.216,93.357 447.093,77.672 431.972,90.495 
		431.383,70.675 	"/>
	<polygon fill-rule="evenodd" clip-rule="evenodd" fill="#BBBCBE" points="421.598,66.398 436.226,65.297 436.661,79.963 
		447.849,70.474 456.818,82.08 460.293,67.829 474.373,71.945 468.807,58.374 482.618,53.43 470.135,45.719 478.402,33.602 
		463.774,34.702 463.339,20.037 452.151,29.525 443.182,17.92 439.707,32.171 425.627,28.055 431.193,41.626 417.382,46.57 
		429.865,54.28 	"/>
	<path fill-rule="evenodd" clip-rule="evenodd" fill="#E6E6E7" d="M475.1,48.786l-4.964-3.066l8.267-12.118l-14.628,1.101
		l-0.435-14.666l-11.188,9.489l-8.969-11.605l-3.475,14.251l-14.08-4.116l5.567,13.571l-7.299,2.612
		c0.422,0.95,0.895,1.888,1.427,2.808c8.108,14.043,26.068,18.857,40.112,10.748C469.432,55.485,472.683,52.375,475.1,48.786z"/>
	<circle fill-rule="evenodd" clip-rule="evenodd" fill="#58595B" cx="450" cy="50" r="14.466"/>
	<circle fill-rule="evenodd" clip-rule="evenodd" fill="#E6E6E7" cx="451.683" cy="43.718" r="6.38"/>
</g>
<g>
	<polygon fill-rule="evenodd" clip-rule="evenodd" fill="#6D6E70" points="511.612,27.838 531.383,29.324 531.971,9.504 
		547.093,22.328 559.215,6.643 563.91,25.904 582.939,20.34 575.417,38.681 594.083,45.365 577.213,55.785 588.386,72.162 
		568.616,70.675 568.028,90.495 552.906,77.672 540.783,93.357 536.088,74.095 517.06,79.66 524.582,61.318 505.916,54.634 
		522.785,44.215 	"/>
	<polygon fill-rule="evenodd" clip-rule="evenodd" fill="#BBBCBE" points="521.597,33.603 529.864,45.719 517.381,53.43 
		531.193,58.374 525.626,71.945 539.706,67.829 543.181,82.08 552.15,70.474 563.339,79.963 563.773,65.297 578.401,66.397 
		570.135,54.28 582.618,46.57 568.806,41.626 574.372,28.055 560.292,32.171 556.818,17.92 547.848,29.525 536.66,20.037 
		536.225,34.702 	"/>
	<path fill-rule="evenodd" clip-rule="evenodd" fill="#E6E6E7" d="M563.601,71.13l0.172-5.832l14.628,1.1l-8.267-12.117l12.483-7.71
		l-13.812-4.944l5.567-13.571l-14.08,4.116l-3.475-14.251l-8.97,11.605l-5.912-5.015c-0.612,0.84-1.187,1.72-1.718,2.64
		c-8.107,14.043-3.295,32.004,10.749,40.113C554.966,69.572,559.284,70.832,563.601,71.13z"/>
	<circle fill-rule="evenodd" clip-rule="evenodd" fill="#58595B" cx="549.999" cy="50" r="14.466"/>
	<circle fill-rule="evenodd" clip-rule="evenodd" fill="#E6E6E7" cx="556.281" cy="48.316" r="6.38"/>
</g>
</svg>
