<?xml version="1.0" encoding="utf-8"?>
<!-- Generator: Adobe Illustrator 17.0.0, SVG Export Plug-In . SVG Version: 6.00 Build 0)  -->
<!DOCTYPE svg PUBLIC "-//W3C//DTD SVG 1.1//EN" "http://www.w3.org/Graphics/SVG/1.1/DTD/svg11.dtd">
<svg version="1.1" id="Capa_1" xmlns="http://www.w3.org/2000/svg" xmlns:xlink="http://www.w3.org/1999/xlink" x="0px" y="0px"
	 width="600px" height="100px" viewBox="0 0 600 100" enable-background="new 0 0 600 100" xml:space="preserve">
<g>
	<path fill-rule="evenodd" clip-rule="evenodd" fill="#CC2128" d="M49.805,26.092c2.67,0,4.835,1.629,4.835,3.639
		c0,2.01-2.164,3.639-4.835,3.639s-4.834-1.629-4.834-3.639C44.97,27.721,47.134,26.092,49.805,26.092L49.805,26.092z
		 M37.988,30.886c1.78,0,3.222,1.565,3.222,3.496c0,1.931-1.442,3.496-3.222,3.496c-0.512,0-0.996-0.13-1.425-0.36
		c-0.452,0.952-1.636,1.631-3.026,1.631c-0.068,0-0.134-0.001-0.2-0.005c0.021,0.158,0.032,0.319,0.032,0.482
		c0,0.57-0.133,1.11-0.372,1.593c0.867,0.505,1.461,1.389,1.531,2.41c0.162-0.019,0.326-0.03,0.493-0.03
		c2.19,0,3.964,1.684,3.964,3.762c0,1.888-1.465,3.45-3.374,3.72c0.718,0.833,1.149,1.897,1.149,3.057
		c0,2.665-2.276,4.826-5.085,4.826c-2.809,0-5.086-2.161-5.086-4.826c0-2.652,2.253-4.804,5.043-4.825
		c-0.365-0.569-0.575-1.237-0.575-1.951c0-0.164,0.011-0.326,0.033-0.484c-1.676-0.109-3-1.432-3-3.051
		c0-0.215,0.024-0.425,0.069-0.628c-1.578-0.496-2.717-1.907-2.717-3.572c0-2.076,1.774-3.76,3.964-3.76
		c0.355,0,0.699,0.045,1.026,0.127c0.378-1.051,1.625-1.822,3.105-1.822c0.435,0,0.85,0.066,1.228,0.187
		C34.778,32.438,36.216,30.886,37.988,30.886L37.988,30.886z M42.587,58.424c-2.809,0-5.086,2.161-5.086,4.826
		s2.277,4.825,5.086,4.825c2.81,0,5.086-2.16,5.086-4.825S45.397,58.424,42.587,58.424L42.587,58.424z M51.4,59.589
		c1.649,0,2.986,1.788,2.986,3.995c0,2.206-1.337,3.995-2.986,3.995s-2.986-1.788-2.986-3.995
		C48.415,61.377,49.752,59.589,51.4,59.589L51.4,59.589z M62.441,57.643c1.264,0.917,2.1,2.519,2.1,4.344
		c0,2.847-2.038,5.155-4.554,5.155c-2.516,0-4.555-2.308-4.555-5.155c0-1.784,0.8-3.356,2.015-4.28
		c-0.548-0.675-0.882-1.578-0.882-2.568c0-1.897,1.23-3.47,2.836-3.752c-0.404-0.541-0.634-1.163-0.634-1.825
		c0-2.096,2.31-3.797,5.16-3.797c2.85,0,5.162,1.701,5.162,3.797c0,2.098-2.312,3.798-5.162,3.798c-0.372,0-0.735-0.028-1.084-0.084
		c0.275,0.55,0.432,1.187,0.432,1.864C63.275,56.098,62.96,56.974,62.441,57.643L62.441,57.643z M64.369,35.72
		c-0.251-1.199-1.465-2.157-3.027-2.413c0.021-0.125,0.033-0.253,0.033-0.383c0-1.626-1.752-2.944-3.911-2.944
		c-2.16,0-3.912,1.318-3.912,2.944c0,1.41,1.317,2.588,3.075,2.876c-0.022,0.125-0.033,0.253-0.033,0.382
		c0,0.886,0.52,1.681,1.342,2.22c-0.235,0.462-0.364,0.963-0.364,1.485c0,2.34,2.577,4.237,5.758,4.237
		c3.18,0,5.758-1.897,5.758-4.237C69.089,37.81,67.053,36.081,64.369,35.72z"/>
	<path fill-rule="evenodd" clip-rule="evenodd" fill="#DB812D" d="M47.499,29.782c-1.21,0-3.29,0.672-3.29,2.18
		c0,1.51,2.08,2.182,3.29,2.182c1.211,0,3.292-0.672,3.292-2.182C50.791,30.454,48.71,29.782,47.499,29.782L47.499,29.782z
		 M34.515,37.836l-1.353-0.431c-0.25-0.08-0.514-0.117-0.776-0.117c-0.599,0-1.528,0.265-1.755,0.898l-0.369,1.026l-1.056-0.268
		c-0.215-0.055-0.437-0.082-0.659-0.082c-1.29,0-2.481,0.957-2.481,2.294c0,1.026,0.724,1.872,1.683,2.172l1.05,0.331l-0.238,1.075
		c-0.023,0.106-0.035,0.215-0.035,0.325c0,0.91,0.788,1.579,1.664,1.636l1.286,0.083l-0.175,1.278
		c-0.013,0.095-0.02,0.19-0.02,0.287c0,0.416,0.121,0.815,0.345,1.166l0.856,1.336l1.661-0.234c1.143-0.162,2.102-1.08,2.102-2.268
		c0-1.337-1.192-2.294-2.481-2.294c-0.106,0-0.213,0.006-0.319,0.019l-1.253,0.146l-0.084-1.259
		c-0.037-0.543-0.364-1.01-0.829-1.281l-0.968-0.563l0.495-1.005c0.146-0.296,0.222-0.618,0.222-0.948
		c0-0.096-0.006-0.191-0.019-0.287l-0.192-1.427l1.437,0.068c0.044,0.001,0.088,0.002,0.131,0.002c0.594,0,1.448-0.245,1.727-0.829
		L34.515,37.836L34.515,37.836z M34.721,37.579l0.008-1.311c0.006-1.01,0.718-2.033,1.792-2.033c1.081,0,1.793,1.033,1.793,2.048
		c0,1.016-0.712,2.047-1.793,2.047c-0.266,0-0.522-0.066-0.756-0.192L34.721,37.579L34.721,37.579z M32.333,51.342l-1.707,0.013
		c-1.832,0.014-3.494,1.39-3.494,3.282c0,1.904,1.681,3.282,3.525,3.282c1.843,0,3.523-1.378,3.523-3.282
		c0-0.763-0.28-1.48-0.776-2.055L32.333,51.342L32.333,51.342z M40.794,59.819c-1.842,0-3.523,1.378-3.523,3.282
		c0,1.904,1.681,3.282,3.523,3.282c1.844,0,3.524-1.378,3.524-3.282C44.318,61.198,42.638,59.819,40.794,59.819L40.794,59.819z
		 M48.983,60.903c-1.102,0-1.574,1.652-1.574,2.51s0.472,2.51,1.574,2.51c1.101,0,1.573-1.653,1.573-2.51
		S50.083,60.903,48.983,60.903L48.983,60.903z M57.876,53.044l-1.254,0.22c-1.053,0.185-1.642,1.307-1.642,2.304
		c0,0.585,0.182,1.172,0.552,1.629l0.78,0.962l-0.985,0.75c-0.927,0.705-1.4,1.875-1.4,3.021c0,1.723,1.163,3.589,3.032,3.589
		c1.867,0,3.03-1.866,3.03-3.589c0-1.169-0.493-2.365-1.456-3.064l-1.002-0.728l0.759-0.98c0.351-0.451,0.522-1.02,0.522-1.59
		c0-0.413-0.09-0.825-0.275-1.196L57.876,53.044L57.876,53.044z M58.142,52.389l1.657,0.26c0.272,0.044,0.546,0.064,0.821,0.064
		c1.3,0,3.594-0.715,3.594-2.327s-2.294-2.327-3.594-2.327c-1.3,0-3.594,0.715-3.594,2.327c0,0.361,0.137,0.69,0.351,0.978
		L58.142,52.389L58.142,52.389z M59.855,37.774c-0.159-0.76-1.15-1.193-1.83-1.305l-1.197-0.196l0.208-1.193
		c0.008-0.05,0.012-0.1,0.012-0.151c0-1.071-1.594-1.534-2.432-1.534c-0.837,0-2.433,0.463-2.433,1.534
		c0,0.868,1.14,1.371,1.85,1.488l1.196,0.196l-0.207,1.193c-0.01,0.051-0.014,0.1-0.014,0.151c0,0.452,0.348,0.824,0.705,1.058
		l0.899,0.59l-0.487,0.958c-0.132,0.262-0.207,0.541-0.207,0.835c0,1.89,2.611,2.735,4.148,2.735s4.149-0.846,4.149-2.735
		c0-1.609-2.004-2.503-3.344-2.682l-0.841-0.112L59.855,37.774z"/>
	<path fill-rule="evenodd" clip-rule="evenodd" fill="#FFF12D" d="M66.217,24.329l-10.609,9.378
		c-0.623-0.593-1.465-0.958-2.392-0.958c-1.226,0-2.302,0.635-2.919,1.595c-0.616-0.959-1.694-1.595-2.918-1.595
		c-1.103,0-2.086,0.515-2.72,1.318c-0.34-0.452-0.88-0.745-1.49-0.745c-0.037,0-0.073,0.001-0.109,0.003
		c0.129-0.252,0.201-0.538,0.201-0.842c0-1.027-0.834-1.861-1.862-1.861c-1.028,0-1.861,0.834-1.861,1.861
		c0,1.029,0.834,1.863,1.861,1.863c0.037,0,0.073-0.002,0.109-0.003c-0.127,0.253-0.201,0.539-0.201,0.841
		c0,0.355,0.099,0.686,0.272,0.969c-0.328-0.322-0.78-0.521-1.277-0.521c-1.007,0-1.824,0.816-1.824,1.823
		c0,0.106,0.008,0.21,0.026,0.312c-0.469-0.27-1.012-0.423-1.591-0.423c-1.768,0-3.202,1.434-3.202,3.202
		c0,0.838,0.321,1.6,0.848,2.171c-0.22,0.118-0.415,0.279-0.57,0.472l-15.86,0.926l15.863,1.389l0.012,0.014
		C32.839,45.913,32,47.017,32,48.316c0,1.28,0.815,2.37,1.954,2.78h-0.042c-1.631,0-2.954,1.323-2.954,2.954
		c0,1.228,0.75,2.282,1.818,2.727c-0.033,0.129-0.05,0.262-0.05,0.4c0,0.903,0.731,1.633,1.633,1.633
		c0.171,0,0.338-0.027,0.494-0.075c0.18,1.459,1.423,2.588,2.931,2.588c0.743,0,1.422-0.274,1.942-0.728
		c0.302,0.743,1.031,1.267,1.884,1.267c0.493,0,0.944-0.175,1.295-0.467c-0.017,0.1-0.027,0.203-0.027,0.308
		c0,0.951,0.771,1.723,1.723,1.723c0.278,0,0.54-0.066,0.771-0.183c0.44,1.11,1.524,1.895,2.791,1.895
		c1.439,0,2.642-1.015,2.933-2.367l4.978,12.897l-2.262-15.12c0.266-0.342,0.46-0.745,0.556-1.184
		c0.435,0.437,1.036,0.709,1.701,0.709c1.32,0,2.392-1.071,2.392-2.393c0-0.65-0.258-1.239-0.68-1.67
		c0.518,0.311,1.124,0.489,1.772,0.489c1.906,0,3.452-1.546,3.452-3.452c0-0.321-0.044-0.631-0.126-0.926L81.87,56.01l-18.433-6.735
		c0.247-0.476,0.386-1.016,0.386-1.588c0-1.906-1.546-3.451-3.451-3.451c-0.48,0-0.937,0.097-1.351,0.274
		c0.068-0.207,0.105-0.426,0.105-0.655c0-0.89-0.557-1.652-1.343-1.952c0.175-0.306,0.275-0.66,0.275-1.037
		c0-1.155-0.935-2.091-2.09-2.091c-0.164,0-0.323,0.019-0.477,0.055c0.73-0.635,1.19-1.571,1.19-2.614v-0.066L66.217,24.329
		L66.217,24.329z M43.975,36.862c0.303,1.605,1.712,2.818,3.405,2.818c1.225,0,2.302-0.635,2.918-1.595
		c0.617,0.959,1.692,1.595,2.919,1.595c0.42,0,0.823-0.075,1.195-0.212c-0.332,0.37-0.534,0.86-0.534,1.396
		c0,0.89,0.557,1.651,1.343,1.951c-0.175,0.306-0.275,0.66-0.275,1.038c0,1.154,0.935,2.09,2.09,2.09
		c0.128,0,0.253-0.011,0.375-0.033c-0.313,0.52-0.493,1.127-0.493,1.777c0,0.912,0.355,1.741,0.932,2.358
		c-1.045,0.593-1.75,1.716-1.75,3.004c0,0.997,0.422,1.895,1.097,2.524c-0.335-0.181-0.72-0.283-1.129-0.283
		c-1.039,0-1.924,0.663-2.255,1.589c-0.549-0.71-1.409-1.167-2.375-1.167c-1.657,0-3.001,1.344-3.001,3.001
		c0,0.149,0.012,0.296,0.032,0.439c-0.1-0.009-0.203-0.015-0.307-0.015c-1.007,0-1.899,0.496-2.444,1.257
		c-0.3-0.257-0.692-0.413-1.118-0.413c-0.38,0-0.732,0.123-1.017,0.332c0.038-0.155,0.058-0.318,0.058-0.484
		c0-1.122-0.91-2.033-2.032-2.033c-0.321,0-0.625,0.075-0.894,0.207c-0.18-1.46-1.423-2.589-2.932-2.589
		c-0.555,0-1.075,0.152-1.519,0.419c0.377-0.496,0.6-1.114,0.6-1.785c0-1.28-0.815-2.37-1.954-2.78h0.043
		c1.631,0,2.954-1.323,2.954-2.954c0-1.051-0.549-1.975-1.377-2.498c0.447-0.336,0.737-0.872,0.737-1.474
		c0-0.213-0.035-0.416-0.102-0.606c1.651-0.128,2.952-1.508,2.952-3.193c0-0.474-0.104-0.924-0.288-1.329
		c0.151,0.041,0.31,0.063,0.474,0.063c1.007,0,1.825-0.816,1.825-1.825c0-0.345-0.095-0.668-0.262-0.944
		c0.335,0.331,0.796,0.535,1.305,0.535C43.459,37.045,43.732,36.979,43.975,36.862z"/>
</g>
<g>
	<g>
		<path fill-rule="evenodd" clip-rule="evenodd" fill="#CC2128" d="M143.417,19.813c3.328,0,6.09,2.425,6.615,5.603
			c0.433-0.065,0.878-0.1,1.33-0.1c1.463,0,2.841,0.358,4.054,0.991c1.217-3.388,4.454-5.81,8.26-5.81
			c3.927,0,7.251,2.58,8.37,6.137c3.996,0.82,7.002,4.356,7.002,8.595c0,2.6-1.13,4.935-2.925,6.541
			c0.05,0.378,0.075,0.763,0.075,1.154c0,0.952-0.152,1.868-0.432,2.725c0.232-0.019,0.469-0.028,0.706-0.028
			c4.846,0,8.774,3.93,8.774,8.775c0,4.846-3.928,8.773-8.774,8.773c-1.178,0-2.302-0.233-3.327-0.653
			c-0.62,0.61-1.329,1.129-2.107,1.535c2.363,1.572,3.923,4.26,3.923,7.311c0,4.846-3.928,8.775-8.775,8.775
			c-2.992,0-5.634-1.498-7.218-3.783c-1.2,0.54-2.562,0.845-4.005,0.845c-0.702,0-1.383-0.073-2.038-0.209
			c0.169,0.679,0.259,1.39,0.259,2.121c0,4.846-3.93,8.775-8.775,8.775c-4.845,0-8.773-3.928-8.773-8.775
			c0-0.901,0.136-1.772,0.389-2.59c-0.12,0.006-0.241,0.01-0.363,0.01c-3.704,0-6.706-3.001-6.706-6.705
			c0-0.144,0.005-0.286,0.014-0.428c-3.445-0.281-6.155-3.165-6.155-6.682c0-0.813,0.145-1.591,0.41-2.313
			c-0.754,0.293-1.572,0.455-2.428,0.455c-3.704,0-6.707-3.003-6.707-6.706c0-3.703,3-6.704,6.703-6.705
			c-1.433-1.231-2.341-3.055-2.341-5.091c0-2.137,0.999-4.038,2.556-5.266c-0.496-0.935-0.778-2.003-0.778-3.136
			c0-3.703,3.002-6.705,6.706-6.705h0.08c0.991-2.462,3.402-4.201,6.221-4.201c1.438,0,2.771,0.452,3.862,1.222
			C138.024,21.672,140.503,19.813,143.417,19.813L143.417,19.813z M133.606,61.11l-2.343,13.72l4.35-12.047L133.606,61.11
			L133.606,61.11z M142.635,33.18c-1.138-0.133-2.188-0.549-3.079-1.178c-0.522,1.463-1.538,2.692-2.846,3.486l-7.54-10.053
			l5.688,10.825c-0.518,0.128-1.062,0.198-1.62,0.198l-0.079-0.001c-0.44,1.094-1.16,2.043-2.072,2.763
			c0.497,0.935,0.778,2.003,0.778,3.136c0,3.703-3.001,6.704-6.704,6.705c1.434,1.23,2.341,3.054,2.341,5.09
			c0,0.813-0.145,1.592-0.41,2.313c0.754-0.294,1.572-0.455,2.43-0.455c3.704,0,6.705,3.002,6.705,6.706
			c0,0.143-0.005,0.286-0.013,0.426c3.445,0.281,6.155,3.165,6.155,6.684c0,0.257-0.017,0.513-0.044,0.762
			c0.667-0.163,1.366-0.249,2.085-0.249c0.637,0,1.258,0.067,1.855,0.196c-0.05-0.33-0.075-0.666-0.075-1.007
			c0-4.237,3.928-7.671,8.774-7.671c2.444,0,4.654,0.873,6.245,2.282c0.105-0.072,0.211-0.143,0.32-0.21l9.555,12.242l-7.696-16.062
			c0.283-0.568-2.08,1.513-2.804,2.158c-1.47-1.57-2.37-3.678-2.37-5.998c0-2.776,1.289-5.249,3.3-6.857
			c-1.758-1.605-2.863-3.916-2.863-6.485c0-2.061,0.71-3.954,1.899-5.452c-0.088-0.033-0.175-0.069-0.262-0.105l10.358-11.508
			l-15.753,13.175l2.809,1.123c-1.597,1.669-3.847,2.708-6.339,2.708c-4.846,0-8.774-3.928-8.774-8.775
			C142.588,33.783,142.603,33.48,142.635,33.18z"/>
		<path fill-rule="evenodd" clip-rule="evenodd" fill="#DB812D" d="M126.704,46.881l1.535-0.001
			c2.286-0.001,4.139-1.855,4.139-4.141c8.734,4.186,9.869,0.261,10.761-4.144c0.491-2.431-0.736-6.58,3.08-5.887l-0.197,1.906
			c-0.021,0.209-0.032,0.419-0.032,0.628c0,3.324,2.693,6.018,6.018,6.018c1.603,0,3.095-0.636,4.194-1.702l-1.31-0.523l3.072-2.569
			l0.462-1.286l0.663,0.346l9.256-7.743c-1.068-1.786-3.015-2.929-5.166-2.929c-2.542,0-4.808,1.598-5.665,3.984l-0.753,2.096
			l-1.975-1.03c-0.86-0.449-1.807-0.679-2.778-0.679c-0.306,0-0.612,0.023-0.914,0.069l-1.896,0.289l-0.313-1.893
			c-0.33-1.993-2.063-3.456-4.084-3.456c-1.753,0-3.315,1.103-3.901,2.75l-0.86,2.412l-2.09-1.477
			c-0.7-0.494-1.526-0.755-2.383-0.755c-1.484,0-2.835,0.792-3.57,2.042l8.285,11.046l-2.28,1.995l-6.4-12.183l-0.375,0.931
			l-1.377-0.019c-2.288,0-4.141,1.853-4.141,4.141c0,0.677,0.162,1.337,0.48,1.936l0.758,1.43l-1.272,1.004
			c-0.999,0.788-1.578,1.977-1.578,3.252c0,1.215,0.524,2.354,1.445,3.143L126.704,46.881L126.704,46.881z M161.063,36.506
			l7.497-8.33c0.141,0.281,0.262,0.577,0.359,0.886l0.342,1.09l1.12,0.229c2.791,0.572,4.8,3.041,4.8,5.895
			c0,1.721-0.726,3.339-2.007,4.486l-0.764,0.684l0.133,1.017c0.035,0.263,0.053,0.528,0.053,0.794c0,0.635-0.099,1.265-0.296,1.868
			l-0.905,2.773l2.907-0.234c0.16-0.013,0.323-0.019,0.485-0.019c3.323,0,6.016,2.694,6.016,6.017s-2.693,6.018-6.016,6.018
			c-0.784,0-1.557-0.151-2.282-0.449l-1.187-0.485l-0.914,0.9c-0.426,0.421-0.914,0.775-1.444,1.053l-2.915,1.52l2.738,1.82
			c1.681,1.119,2.691,2.991,2.691,5.015c0,1.662-0.673,3.167-1.762,4.255l-5.083-10.61l0.965-0.504l-1.77-1.177l-0.436-0.91
			c0.105-0.209-0.152-0.057-0.555,0.25c-1.667-1.121-2.666-2.983-2.666-4.998c0-1.839,0.83-3.556,2.264-4.703l1.776-1.42
			l-1.681-1.532c-1.255-1.145-1.964-2.747-1.964-4.448c0-1.363,0.454-2.669,1.302-3.738l1.65-2.076L161.063,36.506L161.063,36.506z
			 M161.796,64.269l-1.005,0.692l-1.138-1.008c-1.195-1.058-2.791-1.582-4.376-1.582c-2.855,0-6.018,1.9-6.018,5.016
			c0,0.21,0.015,0.419,0.047,0.626l0.417,2.779l-2.747-0.592c-0.418-0.09-0.845-0.136-1.273-0.136c-0.483,0-0.964,0.058-1.434,0.173
			l-2.7,0.659l0.311-2.763c0.017-0.158,0.027-0.316,0.027-0.475c0-2.153-1.653-3.952-3.798-4.127l-1.9-0.155l0.119-1.903
			c0.006-0.088,0.008-0.178,0.008-0.265c0-2.288-1.853-4.141-4.14-4.141c-0.514,0-1.02,0.093-1.5,0.279l-1.743,0.68l-0.646,1.754
			c-0.167,0.458-0.252,0.94-0.252,1.428c0,2.152,1.652,3.951,3.799,4.125l1.018,0.083l0.736-4.307l2.007,1.673l-1.953,5.413
			c0.262,2.033,2,3.603,4.105,3.603c0.075,0,0.151-0.003,0.227-0.006l2.779-0.145l-0.821,2.658
			c-0.177,0.577-0.266,1.175-0.266,1.778c0,3.325,2.693,6.019,6.018,6.019c3.322,0,6.016-2.694,6.016-6.019
			c0-0.49-0.059-0.979-0.177-1.456l-0.745-2.999l3.026,0.63c0.477,0.099,0.966,0.147,1.454,0.147c0.975,0,1.945-0.194,2.837-0.595
			l1.473-0.662l0.919,1.327c1.128,1.628,2.966,2.596,4.951,2.596c1.417,0,2.72-0.49,3.749-1.31L161.796,64.269L161.796,64.269z
			 M125.811,49.297l1.164,0.998c0.92,0.79,1.444,1.929,1.444,3.144c0,0.488-0.082,0.97-0.251,1.428l-0.645,1.754l-1.745,0.679
			c-0.478,0.187-0.985,0.279-1.499,0.279c-2.288,0-4.141-1.852-4.141-4.14c0-2.286,1.852-4.14,4.138-4.141L125.811,49.297z"/>
	</g>
	<path fill-rule="evenodd" clip-rule="evenodd" fill="#FFF12D" d="M149.652,3.712c0,0.735-1.395,18.968-2.148,28.746
		c-0.702-0.708-1.676-1.147-2.753-1.147c-2.141,0-3.875,1.735-3.875,3.877c0,0.834,0.263,1.606,0.711,2.238
		c-1.902,0.115-3.433,1.6-3.619,3.482c-0.702-0.708-1.677-1.147-2.753-1.147c-1.732,0-3.197,1.135-3.695,2.7l-18.697-8.158
		l18.641,13.623c-0.887,0.202-1.548,0.995-1.548,1.943c0,0.784,0.452,1.461,1.11,1.787c-0.927,0.767-1.516,1.924-1.516,3.221
		c0,1.68,0.99,3.126,2.419,3.79c-1.033,0.554-1.736,1.645-1.736,2.9c0,1.817,1.473,3.29,3.289,3.29c1.818,0,3.291-1.473,3.291-3.29
		c0-1.183-0.625-2.22-1.563-2.8c1.555-0.608,2.655-2.121,2.655-3.89c0-0.915-0.294-1.762-0.794-2.45
		c1.963-0.092,3.525-1.71,3.525-3.697c0-1.415-0.795-2.645-1.963-3.267c0.233-0.437,0.386-0.924,0.437-1.441
		c0.703,0.709,1.676,1.148,2.752,1.148c2.141,0,3.876-1.735,3.876-3.876c0-0.834-0.263-1.606-0.711-2.238
		c0.718-0.044,1.384-0.282,1.944-0.664c0.422,1.683,1.944,2.929,3.758,2.929c0.771,0,1.488-0.225,2.092-0.612
		c0.314,0.335,0.76,0.544,1.255,0.544c0.257,0,0.501-0.057,0.719-0.158c0.512,1.243,1.595,2.19,2.923,2.51
		c-0.002,0.051-0.004,0.102-0.004,0.153c0,1.656,1.129,3.047,2.659,3.449c-0.148,0.392-0.229,0.816-0.229,1.259
		c0,1.134,0.529,2.144,1.355,2.798c-0.637,0.412-1.058,1.129-1.058,1.944c0,0.744,0.352,1.407,0.898,1.83
		c-1.344,0.678-2.267,2.071-2.267,3.679c0,0.627,0.141,1.221,0.392,1.754h-0.038c-1.017,0-1.91,0.538-2.408,1.343
		c-0.724-0.624-1.668-1.002-2.7-1.002c-1.958,0-3.598,1.36-4.029,3.185c-0.435-0.209-0.923-0.326-1.438-0.326
		c-0.613,0-1.186,0.165-1.678,0.453c0.012-0.111,0.017-0.225,0.017-0.339c0-1.835-1.488-3.325-3.324-3.325
		c-0.931,0-1.773,0.384-2.375,1c-0.295-0.973-1.199-1.682-2.268-1.682c-1.309,0-2.368,1.059-2.368,2.367
		c0,1.309,1.059,2.368,2.368,2.368c0.495,0,0.955-0.152,1.335-0.411c0.148,1.553,1.364,2.796,2.906,2.981
		c-0.572,0.432-0.942,1.118-0.942,1.89c0,1.309,1.061,2.368,2.368,2.368c1.01,0,1.871-0.631,2.212-1.521
		c0.318,0.197,0.672,0.342,1.049,0.423l6.773,18.998l-3.906-19.727c0.379-0.326,0.684-0.737,0.886-1.204
		c0.679,0.489,1.513,0.777,2.414,0.777c1.953,0,3.592-1.353,4.025-3.175c0.335,0.137,0.7,0.215,1.083,0.215
		c1.563,0,2.83-1.268,2.83-2.83c0-0.201-0.021-0.397-0.062-0.587c0.32,0.08,0.653,0.123,0.996,0.123
		c2.275,0,4.118-1.844,4.118-4.119c0-1.837-1.203-3.394-2.864-3.923c0.39-0.415,0.628-0.973,0.628-1.586
		c0-0.485-0.15-0.935-0.404-1.307c1.502-0.418,2.605-1.798,2.605-3.435c0-0.284-0.032-0.56-0.096-0.825
		c0.327-0.061,0.638-0.167,0.928-0.312c-0.509,0.425-0.833,1.064-0.833,1.778c0,1.279,1.037,2.316,2.316,2.316
		c1.279,0,2.316-1.037,2.316-2.316s-1.037-2.315-2.316-2.315c-0.33,0-0.643,0.068-0.926,0.191c0.863-0.65,1.42-1.683,1.42-2.846
		c0-1.255-0.649-2.359-1.629-2.994l15.245-10.262l-20.851,9.512c0.063-0.29,0.097-0.593,0.097-0.903
		c0-2.338-1.896-4.234-4.233-4.234c-1.801,0-3.339,1.123-3.95,2.708c-0.059-0.027-0.121-0.05-0.183-0.069
		c0.017-0.147,0.026-0.298,0.026-0.45c0-2.021-1.545-3.678-3.518-3.86L149.652,3.712L149.652,3.712z M155.71,31.296
		c0.95,0,1.717,0.768,1.717,1.716s-0.768,1.718-1.717,1.718c-0.948,0-1.716-0.769-1.716-1.718S154.762,31.296,155.71,31.296
		L155.71,31.296z M133.74,50.661l0.024,0.038h-0.04L133.74,50.661L133.74,50.661z M145.455,66.685l0.051-0.028l-0.005,0.041
		L145.455,66.685z"/>
</g>
<g>
	<g>
		<g>
			<path fill-rule="evenodd" clip-rule="evenodd" fill="#CC2128" d="M241.669,18.01c4.027,0,7.371,2.713,8.007,6.269
				c0.526-0.075,1.063-0.111,1.611-0.111c1.77,0,3.438,0.4,4.906,1.107c1.472-3.788,5.393-6.498,9.999-6.498
				c4.754,0,8.778,2.887,10.134,6.865c4.838,0.918,8.476,4.875,8.476,9.615c0,2.907-1.368,5.518-3.54,7.316
				c0.058,0.424,0.092,0.854,0.092,1.292c0,1.064-0.185,2.088-0.524,3.048c0.282-0.022,0.567-0.032,0.855-0.032
				c5.865,0,10.622,4.393,10.622,9.815c0,5.42-4.756,9.815-10.622,9.815c-1.425,0-2.786-0.258-4.029-0.731
				c-0.749,0.683-1.609,1.263-2.55,1.716c2.862,1.759,4.748,4.765,4.748,8.178c0,5.422-4.756,9.816-10.622,9.816
				c-3.621,0-6.819-1.675-8.735-4.233c-1.455,0.603-3.103,0.945-4.85,0.945c-0.85,0-1.676-0.082-2.467-0.233
				c0.203,0.76,0.314,1.553,0.314,2.373c0,5.42-4.756,9.815-10.623,9.815c-5.866,0-10.623-4.395-10.623-9.815
				c0-1.007,0.167-1.982,0.471-2.897c-0.145,0.006-0.29,0.009-0.439,0.009c-4.482,0-8.117-3.357-8.117-7.501
				c0-0.16,0.005-0.32,0.015-0.478c-4.17-0.315-7.449-3.54-7.449-7.475c0-0.822,0.143-1.612,0.406-2.352
				c1.397,1.108,3.292,1.787,5.375,1.787c1.305,0,2.536-0.266,3.615-0.738c-0.078,0.478-0.118,0.969-0.118,1.47
				c0,2.313,0.872,4.423,2.308,6.025l-1.36,7.361l2.467-6.315c1.566,1.248,3.555,1.997,5.719,1.997c1.954,0,3.762-0.608,5.245-1.643
				c0.006,0.119,0.009,0.241,0.009,0.362c0,0.289-0.019,0.572-0.053,0.853c0.368-0.081,0.742-0.146,1.121-0.195
				c2.045,2.012,5.523,3.333,9.47,3.333c5.953,0,10.839-3.007,11.347-6.842c1.179-0.36,2.258-0.873,3.2-1.508l9.678,11.458
				l-7.19-13.865c0.599-0.857,1.018-1.804,1.218-2.804c0.155,0.008,0.312,0.013,0.47,0.013c4.922,0,8.91-3.921,8.91-8.757
				c0-2.582-1.138-4.905-2.95-6.507c0.302-0.622,0.471-1.312,0.471-2.04c0-2.112-1.418-3.918-3.422-4.653
				c-0.315-3.013-2.653-5.354-5.49-5.354c-0.431,0-0.847,0.055-1.25,0.156c0.006-0.086,0.008-0.173,0.008-0.26
				c0-0.916-0.247-1.789-0.688-2.577l9.38-9.63l-10.541,8.146c-1.468-1.402-3.684-2.295-6.161-2.295
				c-2.885,0-5.413,1.21-6.822,3.026c0.393-0.684,0.619-1.467,0.619-2.296c0-2.706-2.374-4.9-5.302-4.9
				c-2.929,0-5.301,2.195-5.301,4.9c0,0.161,0.008,0.32,0.024,0.478c-0.976-0.241-2.054-0.374-3.183-0.374
				c-2.551,0-4.828,0.679-6.316,1.742L224.42,24.3l5.865,10.315c-0.287,0.48-0.445,0.995-0.445,1.533
				c0,0.157,0.014,0.312,0.042,0.464c-0.177,0.011-0.357,0.015-0.536,0.015l-0.097-0.001c-0.25,0.578-0.577,1.12-0.968,1.615
				c-1.754,0.768-2.95,2.296-2.95,4.058c0,0.567,0.125,1.111,0.353,1.612c-3.82,0.633-6.668,3.123-6.668,6.099
				c0,1.03,0.34,2.002,0.945,2.857c-3.045,0.878-5.232,3.28-5.232,6.107c0,1.765,0.852,3.363,2.234,4.528
				c-0.837,0.271-1.739,0.417-2.677,0.417c-4.483,0-8.117-3.357-8.117-7.501c0-4.141,3.632-7.498,8.113-7.5
				c-1.734-1.375-2.833-3.416-2.833-5.694c0-2.388,1.21-4.517,3.093-5.891c-0.598-1.048-0.94-2.239-0.94-3.507
				c0-4.143,3.633-7.503,8.119-7.503l0.094,0.003c1.201-2.755,4.121-4.7,7.533-4.7c1.741,0,3.353,0.505,4.675,1.367
				C235.141,20.089,238.141,18.01,241.669,18.01L241.669,18.01z M250.66,34.297l0.007,0.003l0.018-0.032L250.66,34.297z"/>
			<path fill-rule="evenodd" clip-rule="evenodd" fill="#DB812D" d="M264.089,32.92l7.758-5.994c-1.292-2-3.651-3.276-6.255-3.276
				c-3.077,0-5.82,1.786-6.856,4.456l-0.913,2.343l-2.39-1.153c-1.043-0.501-2.188-0.758-3.364-0.758
				c-0.371,0-0.74,0.026-1.107,0.077l-0.131,0.019c0.565,0.778,0.894,1.714,0.894,2.721c0,0.829-0.226,1.612-0.619,2.296
				c1.409-1.817,3.937-3.026,6.822-3.026C260.405,30.625,262.62,31.518,264.089,32.92L264.089,32.92z M248.278,26.764
				c-0.425-2.2-2.509-3.81-4.935-3.81c-2.121,0-4.012,1.235-4.723,3.076l-1.04,2.699l-2.531-1.651
				c-0.848-0.553-1.846-0.845-2.883-0.845c-1.798,0-3.434,0.886-4.323,2.283l3.803,4.685c1.488-1.063,3.765-1.742,6.316-1.742
				c1.129,0,2.208,0.133,3.183,0.374c-0.015-0.158-0.024-0.318-0.024-0.478c0-2.706,2.372-4.9,5.301-4.9
				C247.075,26.454,247.7,26.564,248.278,26.764L248.278,26.764z M230.285,34.616c-0.287,0.479-0.445,0.994-0.445,1.532
				c0,0.557,0.169,1.09,0.478,1.586c-2.8,0.225-4.989,2.183-4.989,4.565c0,0.567,0.125,1.111,0.353,1.612
				c-2.485,0.413-4.559,1.611-5.705,3.219c-1.083-0.884-1.697-2.138-1.697-3.475c0-1.427,0.699-2.757,1.911-3.638l1.538-1.123
				l-0.918-1.602c-0.384-0.668-0.581-1.408-0.581-2.164c0-2.56,2.244-4.633,5.014-4.633l1.666,0.019l0.454-1.038L230.285,34.616
				L230.285,34.616z M250.66,34.297l0.007,0.003l0.018-0.032L250.66,34.297L250.66,34.297z M267.971,67.185L273.5,77.85
				c1.317-1.219,2.133-2.901,2.133-4.759c0-2.265-1.222-4.36-3.258-5.61l-3.313-2.036l2.685-1.293
				c-0.669,0.157-1.368,0.243-2.087,0.243c-0.158,0-0.315-0.005-0.47-0.013C268.989,65.382,268.57,66.327,267.971,67.185
				L267.971,67.185z M276.014,61.774l0.868,0.331c0.878,0.332,1.813,0.501,2.763,0.501c4.024,0,7.285-3.013,7.285-6.731
				c0-3.718-3.261-6.731-7.285-6.731c-0.195,0-0.392,0.007-0.586,0.021l-3.151,0.235c1.643,1.586,2.661,3.796,2.661,6.238
				C278.569,58.03,277.596,60.196,276.014,61.774L276.014,61.774z M275.638,49.147l0.086-0.248
				c-0.032,0.078-0.069,0.156-0.105,0.232L275.638,49.147L275.638,49.147z M275.905,48.387c0.12-0.411,0.184-0.847,0.184-1.295
				c0-2.112-1.418-3.918-3.422-4.653c-0.315-3.013-2.653-5.354-5.49-5.354c-0.431,0-0.847,0.055-1.25,0.156
				c0.006-0.086,0.008-0.173,0.008-0.26c0-0.916-0.247-1.789-0.688-2.577l6.859-7.04c0.17,0.315,0.317,0.646,0.433,0.991l0.413,1.22
				l1.357,0.256c3.378,0.64,5.809,3.403,5.809,6.593c0,1.927-0.876,3.736-2.428,5.019l-0.925,0.767l0.162,1.137
				c0.042,0.294,0.063,0.591,0.063,0.888c0,0.71-0.12,1.414-0.358,2.089L275.905,48.387L275.905,48.387z M241.533,74.677
				l-2.102,0.475l0.125-1.044c-1.307,0.717-2.811,1.127-4.414,1.127c-1.648,0-3.193-0.433-4.526-1.19
				c0.892,1.274,2.444,2.119,4.209,2.119c0.092,0,0.185-0.003,0.277-0.007l3.362-0.163l-0.993,2.973
				c-0.215,0.645-0.324,1.315-0.324,1.989c0,3.72,3.262,6.731,7.286,6.731c4.024,0,7.284-3.012,7.284-6.731
				c0-0.549-0.071-1.096-0.214-1.63l-0.372-1.382l-0.198,0.001C247.031,77.944,243.586,76.65,241.533,74.677L241.533,74.677z
				 M223.212,65.41c0.395,1.502,1.584,2.727,3.147,3.255c-0.228-0.794-0.351-1.631-0.351-2.498c0-0.501,0.04-0.991,0.118-1.47
				C225.242,65.084,224.256,65.332,223.212,65.41L223.212,65.41z M257.01,76.788c2.927-1.217,4.953-3.292,5.271-5.687
				c1.179-0.36,2.258-0.873,3.202-1.508l7.402,8.764c-1.245,0.917-2.823,1.465-4.537,1.465c-2.402,0-4.629-1.083-5.992-2.903
				l-1.115-1.485l-1.783,0.74C258.68,76.497,257.854,76.7,257.01,76.788L257.01,76.788z M219.119,50.992h-0.621
				c-2.768,0.003-5.009,2.074-5.009,4.632c0,1.173,0.47,2.243,1.246,3.058c0.145-2.699,2.284-4.967,5.224-5.815
				C219.549,52.289,219.262,51.659,219.119,50.992z"/>
		</g>
		<path fill-rule="evenodd" clip-rule="evenodd" fill="#FFF12D" d="M249.217,0c0,0.695-1.207,15.363-2.13,26.493
			c1.454,0.168,2.726,0.88,3.567,1.91L249.217,0L249.217,0z M241.122,31.36c-0.207,0.099-0.405,0.212-0.59,0.337
			c0.207,0.04,0.415,0.085,0.614,0.136C241.13,31.677,241.122,31.519,241.122,31.36L241.122,31.36z M225.34,42.568l-20.707-8.35
			l16.866,11.391c1.126-0.83,2.569-1.429,4.183-1.698C225.491,43.489,225.372,43.038,225.34,42.568L225.34,42.568z M225.665,64.883
			c0.022,0.475,0.142,0.927,0.342,1.34v-0.055c0-0.501,0.04-0.991,0.118-1.47C225.975,64.764,225.821,64.825,225.665,64.883
			L225.665,64.883z M240.62,73.627c0.239,0.917,0.991,1.647,1.963,1.915C241.788,74.977,241.122,74.333,240.62,73.627L240.62,73.627
			z M248.653,77.792l6.899,17.883l-3.805-17.751c-0.268,0.012-0.538,0.019-0.812,0.019C250.154,77.944,249.39,77.892,248.653,77.792
			L248.653,77.792z M269.098,64.773c0.13-0.12,0.254-0.247,0.367-0.382c-0.092-0.001-0.184-0.006-0.276-0.01
			C269.161,64.514,269.132,64.644,269.098,64.773L269.098,64.773z M272.694,42.45l-0.027-0.028l0.001,0.018L272.694,42.45
			L272.694,42.45z M272.504,41.515l17.885-11.124l-19.532,8.231C271.638,39.385,272.217,40.383,272.504,41.515L272.504,41.515z
			 M251.26,33.461l-0.045-0.007c-0.035,0.066-0.072,0.133-0.109,0.198C251.155,33.587,251.209,33.524,251.26,33.461L251.26,33.461z
			 M250.66,34.297l0.007,0.003l0.018-0.032L250.66,34.297L250.66,34.297z M236.1,40.84l0.058-0.119l-0.116-0.014
			C236.061,40.752,236.081,40.797,236.1,40.84z"/>
	</g>
	<path fill-rule="evenodd" clip-rule="evenodd" fill="#929496" d="M245.89,40.404c1.721,0,3.149,1.442,3.421,3.332
		c0.685,0.197,1.319,0.528,1.873,0.966c1.137-1.737,3.15-2.893,5.442-2.893c3.549,0,6.425,2.763,6.425,6.173
		c0,2.963-2.177,5.44-5.077,6.035c1.341,0.428,2.203,1.1,2.203,1.855c0,0.908-1.251,1.698-3.082,2.086
		c0.857,0.655,1.392,1.578,1.392,2.601c0,1.985-2.008,3.594-4.481,3.594c-0.453,0-0.889-0.053-1.3-0.155
		c-0.325,2.368-3.063,4.218-6.393,4.218c-3.548,0-6.426-2.099-6.426-4.689c0-0.978,0.412-1.885,1.114-2.636
		c-0.124-0.061-0.243-0.124-0.361-0.189c-0.901,1.029-2.717,1.732-4.808,1.732c-2.991,0-5.413-1.435-5.413-3.203
		c0-1.467,1.665-2.702,3.936-3.083c-1.072-1.005-1.738-2.403-1.738-3.948c0-3.063,2.612-5.547,5.835-5.547
		c0.962,0,1.871,0.222,2.674,0.617c0.465-0.43,1.08-0.738,1.775-0.866c-0.301-0.592-0.476-1.28-0.476-2.016
		C242.424,42.188,243.975,40.404,245.89,40.404L245.89,40.404z M251.632,53.681c0.036,0.05,0.073,0.098,0.107,0.147
		c0.635-0.147,1.345-0.246,2.102-0.283c-0.502-0.232-0.967-0.526-1.388-0.87C252.217,53.042,251.94,53.38,251.632,53.681
		L251.632,53.681z M239.381,40.092c-1.402,0-2.538,1.154-2.538,2.578c0,1.423,1.136,2.578,2.538,2.578
		c1.4,0,2.536-1.155,2.536-2.578C241.917,41.245,240.781,40.092,239.381,40.092z"/>
	<path fill-rule="evenodd" clip-rule="evenodd" fill="#424243" d="M251.216,43.999c2.055,0,3.719,1.398,3.719,3.124
		c0,0.35-0.067,0.685-0.193,0.998c1.942,0.289,3.406,1.588,3.406,3.143c0,1.323-1.06,2.459-2.571,2.948
		c1.728,0.801,2.91,2.433,2.91,4.317c0,2.674-2.386,4.844-5.327,4.844c-0.57,0-1.121-0.083-1.636-0.234
		c-0.411,0.779-1.417,1.327-2.591,1.327c-1.23,0-2.273-0.6-2.645-1.434c-0.611,0.509-1.361,0.809-2.175,0.809
		c-2.054,0-3.72-1.923-3.72-4.297c0-0.455,0.063-0.894,0.176-1.306c-1.663-0.42-2.88-1.774-2.88-3.38
		c0-1.942,1.779-3.516,3.973-3.516c0.156,0,0.307,0.01,0.46,0.025c-0.24-0.315-0.376-0.669-0.376-1.04
		c0-1.338,1.741-2.421,3.888-2.421c0.79,0,1.522,0.145,2.134,0.396c-0.176-0.362-0.272-0.761-0.272-1.177
		C247.498,45.397,249.162,43.999,251.216,43.999L251.216,43.999z M247.681,58.318c0.099,0.388,0.155,0.799,0.155,1.225
		c0,0.31-0.03,0.61-0.082,0.902c0.145-0.052,0.3-0.095,0.458-0.127c-0.243-0.554-0.375-1.158-0.375-1.789
		c0-0.063,0-0.124,0.004-0.187C247.785,58.336,247.733,58.327,247.681,58.318z"/>
</g>
<g>
	<g>
		<path fill-rule="evenodd" clip-rule="evenodd" fill="#CC2128" d="M340.478,18.131c4.278,0,7.83,2.731,8.506,6.311
			c0.556-0.073,1.127-0.112,1.709-0.112c1.88,0,3.652,0.404,5.21,1.116c1.565-3.813,5.729-6.542,10.622-6.542
			c5.048,0,9.323,2.906,10.762,6.911c5.137,0.925,9.001,4.906,9.001,9.68c0,2.928-1.45,5.556-3.762,7.365
			c0.065,0.427,0.097,0.86,0.097,1.302c0,1.071-0.196,2.1-0.555,3.067c0.3-0.021,0.603-0.032,0.907-0.032
			c6.233,0,11.282,4.426,11.282,9.882c0,5.458-5.049,9.883-11.282,9.883c-1.305,0-2.558-0.196-3.724-0.554
			c4.995-0.911,8.748-4.79,8.748-9.437c0-4.931-4.23-9-9.688-9.569c0.05-0.369,0.073-0.737,0.073-1.107
			c0-0.169-0.006-0.339-0.015-0.507c1.949-1.787,3.042-4.159,3.042-6.655c0-4.288-3.23-8.031-7.847-9.236
			c-0.321-0.684-0.729-1.324-1.21-1.911l3.129-3.045l-3.53,2.584c-2.044-2.212-5.161-3.577-8.553-3.577
			c-4.051,0-7.72,1.944-9.632,4.971c-1.109-0.321-2.275-0.485-3.455-0.485c-0.048,0-0.097,0-0.144,0.001
			c-1.227-3.023-4.522-5.122-8.297-5.122c-3.067,0-5.856,1.391-7.446,3.594c-1.063-0.386-2.204-0.587-3.371-0.587
			c-2.147,0-4.16,0.683-5.723,1.852l-3.173-3.707l2.539,4.231c-0.517,0.473-0.968,1.004-1.338,1.586
			c-4.4,0.44-7.807,3.704-7.807,7.663c0,0.872,0.168,1.73,0.49,2.545c-1.518,1.419-2.379,3.294-2.379,5.275
			c0,1.33,0.387,2.615,1.105,3.744c-3.353,1.091-5.741,3.919-5.741,7.234c0,3.019,1.98,5.631,4.862,6.899
			c0.11,0.1,0.226,0.198,0.344,0.292c-0.888,0.273-1.845,0.42-2.843,0.42c-4.761,0-8.621-3.379-8.621-7.551
			c0-4.169,3.856-7.55,8.617-7.552c-1.841-1.384-3.008-3.441-3.008-5.733c0-2.406,1.284-4.548,3.283-5.931
			c-0.634-1.053-0.997-2.256-0.997-3.53c0-4.172,3.858-7.553,8.621-7.553l0.101,0.003c1.275-2.775,4.378-4.733,8-4.733
			c1.849,0,3.561,0.509,4.964,1.377C333.543,20.227,336.732,18.131,340.478,18.131L340.478,18.131z M378.312,66.542
			c-0.431,0.046-0.869,0.068-1.315,0.068c-0.936,0-1.863-0.103-2.763-0.306c1.805,1.748,2.835,4.038,2.835,6.458
			c0,2.327-0.94,4.459-2.505,6.124l1.482,2.713l-1.976-2.222c-2.009,1.861-4.852,3.024-8.005,3.024
			c-3.174,0-6.147-1.191-8.223-3.233c-1.193,0.333-2.445,0.498-3.702,0.498c-0.071,0-0.143-0.001-0.214-0.001
			c0.004,0.103,0.005,0.205,0.005,0.31c0,0.926-0.15,1.821-0.429,2.668c0.592,0.075,1.2,0.113,1.821,0.113
			c1.853,0,3.603-0.344,5.148-0.95c2.035,2.575,5.431,4.26,9.277,4.26c6.233,0,11.282-4.424,11.282-9.881
			c0-3.436-2.003-6.463-5.041-8.234C376.832,67.569,377.611,67.094,378.312,66.542L378.312,66.542z M352.977,83.907
			c-1.717,3.364-5.571,5.708-10.049,5.708c-6.077,0-11.005-4.317-11.005-9.638c0-0.358,0.023-0.713,0.067-1.065
			c-2.211-0.366-4.129-1.455-5.425-2.975l-1.712,4.154l1-5.139c-0.513-0.842-0.853-1.779-0.975-2.772
			c-3.442-0.788-6.031-3.339-6.501-6.448c-1.514-0.256-2.875-0.841-3.954-1.651c-0.283,0.744-0.432,1.539-0.432,2.365
			c0,3.962,3.482,7.211,7.91,7.526c-0.008,0.159-0.017,0.32-0.017,0.483c0,4.17,3.859,7.551,8.621,7.551
			c0.158,0,0.312-0.005,0.469-0.012c-0.328,0.922-0.503,1.902-0.503,2.917c0,5.459,5.053,9.882,11.283,9.882
			c6.229,0,11.281-4.423,11.281-9.882C353.035,84.574,353.016,84.237,352.977,83.907z"/>
		<path fill-rule="evenodd" clip-rule="evenodd" fill="#DB812D" d="M371.954,27.526l0.573-0.42c-1.37-2.01-3.876-3.298-6.641-3.298
			c-0.581,0-1.15,0.058-1.702,0.165C367.271,24.167,370.068,25.486,371.954,27.526L371.954,27.526z M345.187,23.88
			c-0.846-0.49-1.855-0.771-2.93-0.771c-0.685,0-1.348,0.115-1.96,0.327c0.514-0.082,1.042-0.123,1.577-0.123
			C343.038,23.313,344.16,23.512,345.187,23.88L345.187,23.88z M387.631,59.453c0.583-0.954,0.916-2.042,0.916-3.2
			c0-2.191-1.188-4.139-3.029-5.379c1.552,1.663,2.481,3.785,2.481,6.098C387.999,57.832,387.872,58.662,387.631,59.453
			L387.631,59.453z M381.259,37.514c0.039-0.278,0.059-0.56,0.059-0.843c0-3.211-2.583-5.993-6.172-6.637l-1.44-0.26l-0.44-1.227
			c-0.127-0.348-0.28-0.681-0.462-0.999l-0.449,0.438c0.481,0.587,0.888,1.227,1.21,1.911
			C377.589,30.949,380.561,33.926,381.259,37.514z"/>
	</g>
	<path fill-rule="evenodd" clip-rule="evenodd" fill="#FFF12D" d="M348.495,0c0,0.698-1.282,15.467-2.262,26.672
		c1.544,0.17,2.895,0.888,3.789,1.924L348.495,0L348.495,0z M339.898,31.572c-0.22,0.099-0.43,0.212-0.628,0.34
		c0.221,0.041,0.44,0.084,0.656,0.136C339.906,31.891,339.898,31.733,339.898,31.572L339.898,31.572z M323.138,42.857l-21.993-8.406
		l17.913,11.466c1.197-0.835,2.728-1.438,4.442-1.707C323.297,43.784,323.171,43.329,323.138,42.857L323.138,42.857z
		 M323.482,65.322c0.023,0.48,0.15,0.934,0.362,1.349l-0.001-0.057c0-0.505,0.045-0.998,0.13-1.479
		C323.811,65.202,323.647,65.263,323.482,65.322L323.482,65.322z M339.364,74.126c0.254,0.921,1.052,1.657,2.083,1.929
		C340.604,75.484,339.898,74.835,339.364,74.126L339.364,74.126z M347.895,78.319l7.325,18.005l-4.038-17.871
		c-0.285,0.013-0.573,0.02-0.865,0.02C349.488,78.473,348.678,78.419,347.895,78.319L347.895,78.319z M369.61,65.212
		c0.136-0.122,0.268-0.25,0.388-0.384c-0.099-0.003-0.195-0.006-0.293-0.011C369.675,64.95,369.646,65.081,369.61,65.212
		L369.61,65.212z M373.429,42.736l-0.031-0.026l0.001,0.018L373.429,42.736L373.429,42.736z M373.225,41.797l18.997-11.2
		l-20.744,8.288C372.306,39.652,372.921,40.656,373.225,41.797L373.225,41.797z M350.667,33.688l-0.052-0.008
		c-0.035,0.067-0.075,0.135-0.115,0.2C350.554,33.814,350.609,33.75,350.667,33.688L350.667,33.688z M350.028,34.53l0.006,0.001
		l0.02-0.033L350.028,34.53L350.028,34.53z M334.564,41.118l0.06-0.12l-0.123-0.015C334.524,41.027,334.544,41.072,334.564,41.118z"
		/>
	<path fill-rule="evenodd" clip-rule="evenodd" fill="#929496" d="M344.531,34.035c2.703,0,4.949,2.15,5.374,4.967
		c1.08,0.293,2.075,0.787,2.946,1.437c1.786-2.587,4.948-4.307,8.553-4.307c5.579,0,10.098,4.118,10.098,9.195
		c0,4.416-3.418,8.105-7.98,8.99c2.107,0.64,3.464,1.64,3.464,2.764c0,1.357-1.968,2.53-4.84,3.11
		c1.344,0.973,2.182,2.35,2.182,3.875c0,2.956-3.154,5.353-7.042,5.353c-0.711,0-1.398-0.079-2.045-0.229
		c-0.51,3.528-4.813,6.283-10.048,6.283c-5.577,0-10.098-3.127-10.098-6.986c0-1.456,0.645-2.809,1.75-3.927
		c-0.197-0.09-0.385-0.185-0.57-0.285c-1.414,1.535-4.27,2.584-7.559,2.584c-4.696,0-8.504-2.138-8.504-4.773
		c0-2.182,2.616-4.025,6.187-4.592c-1.687-1.498-2.732-3.581-2.732-5.882c0-4.564,4.105-8.263,9.169-8.263
		c1.514,0,2.944,0.331,4.202,0.918c0.73-0.642,1.7-1.101,2.791-1.289c-0.476-0.882-0.749-1.909-0.749-3.006
		C339.083,36.695,341.523,34.035,344.531,34.035L344.531,34.035z M353.554,53.816c0.059,0.073,0.114,0.147,0.169,0.22
		c0.999-0.221,2.117-0.368,3.305-0.422c-0.787-0.347-1.52-0.783-2.181-1.296C354.473,52.864,354.038,53.367,353.554,53.816
		L353.554,53.816z M334.3,33.569c-2.204,0-3.987,1.721-3.987,3.842c0,2.12,1.783,3.84,3.987,3.84c2.2,0,3.985-1.72,3.985-3.84
		C338.285,35.29,336.501,33.569,334.3,33.569z"/>
	<path fill-rule="evenodd" clip-rule="evenodd" fill="#424243" d="M352.9,39.39c3.23,0,5.848,2.084,5.848,4.656
		c0,0.52-0.109,1.02-0.305,1.486c3.051,0.432,5.353,2.365,5.353,4.682c0,1.974-1.665,3.665-4.041,4.394
		c2.714,1.192,4.573,3.625,4.573,6.43c0,3.986-3.749,7.216-8.37,7.216c-0.899,0-1.763-0.122-2.573-0.346
		c-0.646,1.158-2.227,1.975-4.072,1.975c-1.932,0-3.57-0.894-4.156-2.137c-0.961,0.759-2.14,1.207-3.417,1.207
		c-3.228,0-5.845-2.867-5.845-6.402c0-0.678,0.097-1.333,0.275-1.947c-2.613-0.625-4.528-2.644-4.528-5.035
		c0-2.894,2.797-5.239,6.246-5.239c0.245,0,0.485,0.013,0.723,0.035c-0.379-0.469-0.59-0.992-0.59-1.548
		c0-1.992,2.735-3.607,6.111-3.607c1.238,0,2.39,0.216,3.354,0.59c-0.276-0.541-0.431-1.134-0.431-1.754
		C347.055,41.474,349.674,39.39,352.9,39.39L352.9,39.39z M347.346,60.723c0.157,0.579,0.242,1.193,0.242,1.827
		c0,0.46-0.045,0.91-0.13,1.343c0.23-0.076,0.469-0.14,0.719-0.189c-0.38-0.824-0.589-1.724-0.589-2.667
		c0-0.091,0.002-0.183,0.006-0.277C347.51,60.75,347.426,60.739,347.346,60.723z"/>
</g>
<g>
	<path fill-rule="evenodd" clip-rule="evenodd" fill="#929496" d="M438.892,21.749c2.935,0,5.397,2.587,6.059,6.068
		c1.492-1.328,3.594-2.155,5.923-2.155c4.523,0,8.191,3.12,8.191,6.97c0,0.71-0.125,1.395-0.357,2.04
		c0.987,0.424,1.774,1.466,2.121,2.795c1.193-1.381,2.892-2.25,4.781-2.267c-0.275-0.583-0.431-1.25-0.431-1.957
		c0-2.296,1.642-4.156,3.667-4.156c2.026,0,3.669,1.86,3.669,4.156c0,1.762-0.967,3.268-2.334,3.873
		c1.285,1.295,2.088,3.133,2.088,5.175c0,2.76-1.469,5.152-3.613,6.324c2.935,2.229,4.837,5.795,4.837,9.815
		c0,6.752-5.365,12.227-11.983,12.227c-4.134,0-7.78-2.137-9.933-5.387c0.256,0.535,0.396,1.115,0.396,1.72
		c0,2.701-2.791,4.89-6.235,4.89c-3.444,0-6.236-2.189-6.236-4.89c0-0.343,0.045-0.678,0.131-1
		c-0.286,0.015-0.574,0.022-0.865,0.022c-6.887,0-12.471-4.05-12.471-9.048c0-0.795,0.142-1.566,0.408-2.301
		c-2.344-1.188-3.83-2.948-3.83-4.913c0-3.579,4.926-6.48,11.004-6.48c0.863,0,1.704,0.059,2.511,0.17
		c0.242-2.153,1.143-4.136,2.524-5.794h-0.022c-3.444,0-6.236-3.559-6.236-7.948C432.655,25.308,435.448,21.749,438.892,21.749
		L438.892,21.749z M448.514,62.608c1.081,0.422,1.982,1.082,2.594,1.893c-0.58-1.032-1.016-2.159-1.282-3.352
		C449.453,61.667,449.014,62.156,448.514,62.608z"/>
	<path fill-rule="evenodd" clip-rule="evenodd" fill="#424243" d="M450.385,34.465c3.243,0,5.908,2.235,6.207,5.089
		c0.438-0.129,0.899-0.198,1.374-0.198c2.903,0,5.257,2.573,5.257,5.746c0,0.758-0.135,1.481-0.378,2.143
		c0.282-0.042,0.572-0.064,0.867-0.064c3.107,0,5.625,2.409,5.625,5.38c0,2.972-2.518,5.38-5.625,5.38
		c-0.431,0-0.85-0.046-1.254-0.135c-0.318,4.197-2.974,7.47-6.204,7.47c-3.079,0-5.638-2.976-6.144-6.889
		c-0.193,0.067-0.39,0.123-0.59,0.167c-0.193,4.015-3.508,7.211-7.571,7.211c-4.187,0-7.58-3.393-7.58-7.58
		c0-2.162,0.906-4.114,2.359-5.496c-0.673-1.052-1.142-2.398-1.311-3.894c-0.304,0.216-0.663,0.343-1.048,0.343
		c-1.08,0-1.957-0.986-1.957-2.202s0.877-2.2,1.957-2.2c0.464,0,0.891,0.183,1.226,0.487c0.645-2.925,2.472-5.052,4.64-5.131
		c0.586-1.141,2.172-1.958,4.037-1.958c0.087,0,0.176,0.003,0.262,0.006C445.414,35.994,447.7,34.465,450.385,34.465z"/>
	<path fill-rule="evenodd" clip-rule="evenodd" fill="#929496" d="M413.625,18.724c1.232,0,2.317,0.711,2.956,1.79
		c0.868-1.305,2.408-2.175,4.165-2.175c2.71,0,4.908,2.068,4.908,4.62c0,1.465-0.724,2.768-1.853,3.615
		c0.563,0.672,0.89,1.481,0.89,2.351c0,2.339-2.369,4.235-5.293,4.235c-2.923,0-5.292-1.896-5.292-4.235
		c0-0.93,0.375-1.789,1.01-2.488c-0.454,0.237-0.959,0.371-1.49,0.371c-1.967,0-3.561-1.81-3.561-4.042
		C410.063,20.534,411.658,18.724,413.625,18.724L413.625,18.724z M416.459,25.211c-0.078,0.117-0.162,0.229-0.25,0.335
		c0.11-0.067,0.223-0.131,0.341-0.19C416.518,25.308,416.489,25.259,416.459,25.211z"/>
	<path fill-rule="evenodd" clip-rule="evenodd" fill="#929496" d="M423.439,66.841c1.695,0,3.128,0.921,3.594,2.188
		c0.977-1.324,2.58-2.188,4.394-2.188c2.977,0,5.39,2.327,5.39,5.196c0,2.87-2.413,5.197-5.39,5.197h-0.028
		c-0.236,2.492-1.987,4.427-4.11,4.427c-2.285,0-4.138-2.24-4.138-5.004c0-1.525,0.563-2.89,1.453-3.808
		c-0.366,0.098-0.757,0.151-1.165,0.151c-2.073,0-3.752-1.378-3.752-3.079C419.687,68.219,421.367,66.841,423.439,66.841z"/>
	<path fill-rule="evenodd" clip-rule="evenodd" fill="#929496" d="M476.464,19.494c1.637,0,3.022,1.104,3.489,2.625
		c0.633-1.742,2.579-3.01,4.884-3.01c2.817,0,5.1,1.895,5.1,4.234c0,2.296-2.2,4.165-4.947,4.232
		c0.088,0.372,0.135,0.76,0.135,1.158c0,2.764-2.241,5.003-5.005,5.003c-2.764,0-5.004-2.24-5.004-5.003
		c0-0.661,0.129-1.292,0.363-1.871c-1.541-0.442-2.672-1.892-2.672-3.614C472.807,21.175,474.444,19.494,476.464,19.494z"/>
</g>
<g>
	<path fill-rule="evenodd" clip-rule="evenodd" fill="#929496" d="M548.813,45.831c2.196,0,4.036,1.311,4.538,3.075
		c0.067-0.003,0.137-0.005,0.205-0.005c2.271,0,4.115,1.779,4.115,3.974c0,0.559-0.12,1.091-0.335,1.575
		c0.481-0.335,1.051-0.528,1.66-0.528c1.734,0,3.138,1.56,3.138,3.487c0,1.925-1.404,3.485-3.138,3.485
		c-0.839,0-1.6-0.365-2.163-0.96c-0.027,2.542-1.328,4.588-2.929,4.588c-1.43,0-2.622-1.638-2.877-3.806
		c-0.641,0.603-1.58,1.075-2.683,1.34c0.167,0.429,0.262,0.91,0.262,1.42c0,1.811-1.187,3.279-2.652,3.279
		c-1.463,0-2.648-1.468-2.648-3.279c0-0.579,0.122-1.123,0.333-1.597c-1.774-0.588-2.986-1.745-2.986-3.076l0,0h-0.07
		c-4.043,0-7.322-1.844-7.322-4.115c0-2.272,3.279-4.115,7.322-4.115c1.394,0,2.694,0.218,3.803,0.599
		c-0.158-0.408-0.245-0.843-0.245-1.295C544.142,47.642,546.232,45.831,548.813,45.831L548.813,45.831z M548.953,65.361
		c-0.885,0-1.604,1.122-1.604,2.509c0,1.388,0.719,2.51,1.604,2.51c0.886,0,1.605-1.122,1.605-2.51
		C550.558,66.483,549.839,65.361,548.953,65.361L548.953,65.361z M555.96,56.522c0.046-0.19,0.104-0.372,0.176-0.548
		c-0.122,0.091-0.246,0.179-0.378,0.26C555.828,56.324,555.895,56.42,555.96,56.522z"/>
	<path fill-rule="evenodd" clip-rule="evenodd" fill="#929496" d="M521.127,65.639c0.927,0,1.742,0.513,2.217,1.291
		c0.568-0.198,1.274-0.314,2.037-0.314c1.887,0,3.417,0.717,3.417,1.604c0,0.886-1.53,1.603-3.417,1.603
		c-0.662,0-1.279-0.089-1.801-0.24c-0.078,0.201-0.176,0.392-0.291,0.567c0.28-0.12,0.585-0.185,0.906-0.185
		c1.386,0,2.511,1.247,2.511,2.789c0,1.54-1.125,2.788-2.511,2.788c-1.387,0-2.511-1.248-2.511-2.788
		c0-0.603,0.171-1.16,0.463-1.617c-0.314,0.143-0.66,0.221-1.02,0.221c-1.465,0-2.65-1.28-2.65-2.86
		C518.477,66.919,519.662,65.639,521.127,65.639z"/>
	<path fill-rule="evenodd" clip-rule="evenodd" fill="#929496" d="M574.915,58.616c-0.23-0.493-0.366-1.101-0.366-1.765
		c0-0.265,0.021-0.52,0.063-0.763c-1.838-0.415-3.131-1.416-3.131-2.584c0-1.541,2.246-2.791,5.021-2.791
		c2.773,0,5.022,1.25,5.022,2.791c0,0.849-0.682,1.608-1.759,2.119c0.485,0.574,0.782,1.352,0.782,2.206
		c0,1.769-1.28,3.204-2.858,3.204C576.351,61.034,575.229,60.006,574.915,58.616z"/>
	<path fill-rule="evenodd" clip-rule="evenodd" fill="#929496" d="M545.209,24.459c1.098,0,1.991,0.88,1.991,1.968
		c0,0.192-0.031,0.377-0.083,0.553c0.195-0.062,0.398-0.1,0.607-0.116c0.205-1.13,1.145-1.984,2.272-1.984
		c1.279,0,2.316,1.098,2.316,2.451c0,1.049-0.621,1.944-1.493,2.295c0.026,0.177,0.041,0.359,0.041,0.548
		c0,1.83-1.319,3.313-2.949,3.313c-1.625,0-2.944-1.483-2.944-3.313c0-0.659,0.171-1.275,0.465-1.792
		c-0.073,0.008-0.149,0.013-0.224,0.013c-1.1,0-1.99-0.882-1.99-1.968C543.218,25.338,544.109,24.459,545.209,24.459z"/>
</g>
</svg>
