<?xml version="1.0" encoding="utf-8"?>
<!-- Generator: Adobe Illustrator 17.0.0, SVG Export Plug-In . SVG Version: 6.00 Build 0)  -->
<!DOCTYPE svg PUBLIC "-//W3C//DTD SVG 1.1//EN" "http://www.w3.org/Graphics/SVG/1.1/DTD/svg11.dtd">
<svg version="1.1" id="Capa_1" xmlns="http://www.w3.org/2000/svg" xmlns:xlink="http://www.w3.org/1999/xlink" x="0px" y="0px"
	 width="100px" height="100px" viewBox="0 0 100 100" enable-background="new 0 0 100 100" xml:space="preserve">
<g>
	<path fill-rule="evenodd" clip-rule="evenodd" fill="#424243" d="M36.396,15.317C18.021,17.816,3.902,32.756,3.902,50.821
		c0,19.817,16.99,35.876,37.947,35.876c2.381,0,4.709-0.211,6.971-0.607h47.279V14.946h-54.25h-5.452V15.317z"/>
	<path fill-rule="evenodd" clip-rule="evenodd" d="M38.235,86.536c1.189,0.105,2.394,0.162,3.613,0.162
		c2.381,0,4.709-0.211,6.971-0.607h47.279V28.067H53.586H48.87v0.318C32.974,30.55,20.76,43.47,20.76,59.098
		C20.76,70.998,27.843,81.327,38.235,86.536z"/>
	<path fill-rule="evenodd" clip-rule="evenodd" d="M79.089,11.478H68.752V88.52h10.337V11.478L79.089,11.478z M46.521,11.478H36.183
		V88.52h10.337V11.478z"/>
	<rect x="46.522" y="13.992" fill-rule="evenodd" clip-rule="evenodd" fill="#424243" width="22.231" height="55.571"/>
</g>
<path fill-rule="evenodd" clip-rule="evenodd" fill="#7D1F22" d="M39.513,74.97c-0.173-0.138-0.34-0.282-0.502-0.431
	c-0.705-0.126-1.407-0.33-2.093-0.619c-1.262-0.53-2.361-1.293-3.265-2.219c-1.14,2.519-3.676,4.272-6.619,4.272
	c-0.27,0-0.538-0.015-0.801-0.044c-0.544,0.13-1.112,0.2-1.697,0.2c-3.115,0-5.773-1.964-6.804-4.721
	c-0.965,0.508-2.052,0.818-3.209,0.875c-4.256,0.209-7.889-3.085-8.098-7.342c-0.169-3.438,1.95-6.473,5.016-7.619
	c1.02-2.133,3.15-3.658,5.672-3.781c3.127-0.153,5.865,1.898,6.704,4.783c0.032-0.001,0.064-0.001,0.095-0.001
	c2.808,0,5.246,1.597,6.454,3.932c0.215,0.111,0.425,0.234,0.627,0.365c0.128-0.61,0.316-1.215,0.565-1.81
	c0.272-0.648,0.605-1.252,0.99-1.81c-0.374,0.074-0.757,0.122-1.149,0.14c-4.376,0.215-8.112-3.173-8.327-7.55
	c-0.157-3.189,1.6-6.039,4.26-7.432c-2.403-1.499-4.058-4.111-4.207-7.145c-0.028-0.555-0.004-1.101,0.068-1.632
	c-0.235-0.629-0.402-1.293-0.49-1.983c-2.888-0.204-5.312-2.1-6.285-4.702c-0.965,0.508-2.051,0.819-3.209,0.875
	c-4.256,0.209-7.889-3.085-8.098-7.342c-0.169-3.438,1.95-6.473,5.016-7.62c1.02-2.133,3.15-3.658,5.672-3.78
	c3.127-0.153,5.865,1.898,6.704,4.783c0.032-0.001,0.064-0.001,0.095-0.001c2.807,0,5.246,1.597,6.454,3.932
	c1.547,0.801,2.771,2.142,3.419,3.773c0.924-0.577,1.962-0.992,3.075-1.2c0.058-4.088,2.746-7.543,6.447-8.748
	c1.219-3.742,4.737-6.448,8.884-6.448c3.825,0,7.114,2.301,8.558,5.593c-0.071-0.408-0.107-0.826-0.107-1.253
	c0-4.01,3.253-7.264,7.263-7.264c1.235,0,2.4,0.31,3.419,0.854c1.119-0.888,2.535-1.42,4.074-1.42c3.621,0,6.561,2.94,6.561,6.561
	c0,0.613-0.084,1.207-0.242,1.77c3.261,0.147,5.895,2.72,6.137,5.956c0.99-0.507,2.113-0.792,3.301-0.792
	c4.009,0,7.262,3.255,7.262,7.264c0,2.757-1.539,5.157-3.803,6.386c1.597,1.526,2.636,3.641,2.752,6.016
	c0.19,3.869-2.126,7.293-5.518,8.695c-1.063,3.513-4.245,6.152-8.114,6.342h-0.001c-0.661,3.111-2.781,5.866-5.917,7.181
	c-4.21,1.765-8.987,0.406-11.711-3.002c-4.331,0.523-8.689-1.856-10.455-6.064c-2.131-5.078,0.285-10.981,5.361-13.111
	c0.686-0.288,1.388-0.493,2.093-0.619c0.162-0.149,0.33-0.293,0.502-0.431c-3.439-0.271-6.207-2.939-6.631-6.332
	c-1.331,0.73-2.858,1.144-4.482,1.144c-0.512,0-1.013-0.041-1.504-0.12c-1.07,0.64-2.28,1.073-3.573,1.241
	c-0.236,3.425-2.43,6.364-5.508,7.636c-0.529,1.748-1.583,3.28-2.985,4.401c2.885,0.511,5.149,2.963,5.298,6.011
	c0.098,2.014-0.748,3.86-2.146,5.109c0.416-0.003,0.834,0.02,1.251,0.071c2.724-3.408,7.501-4.767,11.711-3.002
	c3.136,1.316,5.256,4.07,5.917,7.181h0.001c3.869,0.191,7.051,2.83,8.114,6.343c3.392,1.402,5.708,4.826,5.518,8.695
	c-0.116,2.374-1.155,4.49-2.752,6.015c2.264,1.23,3.803,3.63,3.803,6.386c0,4.009-3.254,7.264-7.263,7.264
	c-1.188,0-2.311-0.286-3.301-0.792c-0.249,3.333-3.037,5.963-6.432,5.963c-1.891,0-3.594-0.816-4.774-2.114
	c-1.319,1.357-3.164,2.2-5.205,2.2c-3.471,0-6.375-2.438-7.094-5.694c-0.429,0.086-0.872,0.132-1.326,0.132
	c-3.682,0-6.669-2.988-6.669-6.67c0-1.076,0.255-2.093,0.71-2.994c-0.096-0.468-0.145-0.953-0.145-1.449
	C32.826,78.396,35.773,75.264,39.513,74.97L39.513,74.97z M59.799,86.389c0-0.008,0-0.016,0-0.024c0-1.673,0.566-3.213,1.517-4.441
	c-0.593-0.215-1.156-0.49-1.683-0.82c-0.589,1.484-1.653,2.726-3.005,3.543c0.248,0.394,0.458,0.814,0.627,1.253
	c0.025,0,0.05,0,0.075,0C58.204,85.899,59.038,86.074,59.799,86.389L59.799,86.389z M60.029,14.374
	c0.125,0.611,0.191,1.243,0.191,1.89c0,0.39-0.024,0.774-0.07,1.15c0.5-0.119,1.022-0.183,1.558-0.183
	c0.279,0,0.553,0.018,0.822,0.051C61.458,16.557,60.59,15.553,60.029,14.374L60.029,14.374z M80.034,24.656
	c-0.169,0.44-0.379,0.859-0.627,1.253c1.351,0.816,2.415,2.058,3.005,3.542c0.527-0.33,1.09-0.605,1.683-0.82
	c-0.951-1.228-1.517-2.768-1.517-4.441c0-0.008,0-0.016,0-0.025c-0.76,0.315-1.595,0.49-2.47,0.49
	C80.083,24.656,80.059,24.656,80.034,24.656L80.034,24.656z M32.831,1.189c-1.078-0.465-2.276-0.698-3.525-0.637
	c-4.376,0.215-7.763,3.952-7.548,8.327c0.215,4.376,3.951,7.765,8.327,7.55c2.314-0.113,4.351-1.212,5.726-2.869
	c3.38-0.332,5.952-3.276,5.784-6.706c-0.172-3.536-3.192-6.273-6.729-6.1C34.148,0.789,33.466,0.94,32.831,1.189z"/>
<g>
	<path fill-rule="evenodd" clip-rule="evenodd" fill="#CC2128" d="M43.928,25.587c2.392,0,4.343-1.951,4.343-4.343
		s-1.951-4.343-4.343-4.343s-4.343,1.951-4.343,4.343S41.536,25.587,43.928,25.587z"/>
	<path fill-rule="evenodd" clip-rule="evenodd" fill="#CC2128" d="M49.917,19.597c2.391,0,4.342-1.951,4.342-4.343
		s-1.951-4.343-4.342-4.343c-2.392,0-4.343,1.951-4.343,4.343S47.526,19.597,49.917,19.597z"/>
	<path fill-rule="evenodd" clip-rule="evenodd" fill="#CC2128" d="M50.217,24.387c2.392,0,4.343-1.95,4.343-4.342
		c0-2.392-1.951-4.343-4.343-4.343c-2.391,0-4.342,1.951-4.342,4.343C45.874,22.437,47.826,24.387,50.217,24.387z"/>
	<circle fill-rule="evenodd" clip-rule="evenodd" fill="#CC2128" cx="69.167" cy="17.924" r="2.264"/>
	<circle fill-rule="evenodd" clip-rule="evenodd" fill="#CC2128" cx="72.289" cy="21.045" r="2.263"/>
	<circle fill-rule="evenodd" clip-rule="evenodd" fill="#CC2128" cx="69.791" cy="21.203" r="2.264"/>
	<circle fill-rule="evenodd" clip-rule="evenodd" fill="#CC2128" cx="21.637" cy="21.866" r="2.264"/>
	<circle fill-rule="evenodd" clip-rule="evenodd" fill="#CC2128" cx="24.759" cy="24.988" r="2.263"/>
	<circle fill-rule="evenodd" clip-rule="evenodd" fill="#CC2128" cx="22.261" cy="25.145" r="2.264"/>
	<circle fill-rule="evenodd" clip-rule="evenodd" fill="#CC2128" cx="36.232" cy="29.886" r="3.931"/>
	<circle fill-rule="evenodd" clip-rule="evenodd" fill="#CC2128" cx="31.082" cy="35.567" r="3.931"/>
	<circle fill-rule="evenodd" clip-rule="evenodd" fill="#CC2128" cx="30.598" cy="31.248" r="3.931"/>
	<circle fill-rule="evenodd" clip-rule="evenodd" fill="#CC2128" cx="61.906" cy="27.335" r="2.264"/>
	<circle fill-rule="evenodd" clip-rule="evenodd" fill="#CC2128" cx="60.748" cy="22.891" r="1.67"/>
	<circle fill-rule="evenodd" clip-rule="evenodd" fill="#CC2128" cx="88.88" cy="23.181" r="2.264"/>
	<circle fill-rule="evenodd" clip-rule="evenodd" fill="#CC2128" cx="74.698" cy="31.121" r="2.263"/>
	<circle fill-rule="evenodd" clip-rule="evenodd" fill="#CC2128" cx="72.201" cy="31.278" r="2.264"/>
	<circle fill-rule="evenodd" clip-rule="evenodd" fill="#CC2128" cx="86.172" cy="36.02" r="3.931"/>
	<circle fill-rule="evenodd" clip-rule="evenodd" fill="#CC2128" cx="81.022" cy="41.7" r="3.931"/>
	<circle fill-rule="evenodd" clip-rule="evenodd" fill="#CC2128" cx="80.538" cy="37.381" r="3.931"/>
	<circle fill-rule="evenodd" clip-rule="evenodd" fill="#CC2128" cx="79.146" cy="17.196" r="1.45"/>
	<circle fill-rule="evenodd" clip-rule="evenodd" fill="#CC2128" cx="65.631" cy="10.251" r="2.264"/>
	<circle fill-rule="evenodd" clip-rule="evenodd" fill="#CC2128" cx="73.123" cy="8.982" r="1.561"/>
	<circle fill-rule="evenodd" clip-rule="evenodd" fill="#CC2128" cx="28.734" cy="7.481" r="2.948"/>
	<circle fill-rule="evenodd" clip-rule="evenodd" fill="#CC2128" cx="34.218" cy="6.159" r="1.423"/>
	<circle fill-rule="evenodd" clip-rule="evenodd" fill="#CC2128" cx="11.869" cy="20.842" r="2.729"/>
	<circle fill-rule="evenodd" clip-rule="evenodd" fill="#CC2128" cx="15.162" cy="16.454" r="1.643"/>
	<circle fill-rule="evenodd" clip-rule="evenodd" fill="#CC2128" cx="71.667" cy="48.564" r="5.016"/>
	<circle fill-rule="evenodd" clip-rule="evenodd" fill="#CC2128" cx="62.61" cy="44.86" r="5.016"/>
	<circle fill-rule="evenodd" clip-rule="evenodd" fill="#CC2128" cx="67.58" cy="42.399" r="5.016"/>
	<circle fill-rule="evenodd" clip-rule="evenodd" fill="#CC2128" cx="22.95" cy="64.577" r="2.264"/>
	<circle fill-rule="evenodd" clip-rule="evenodd" fill="#CC2128" cx="26.072" cy="67.699" r="2.263"/>
	<circle fill-rule="evenodd" clip-rule="evenodd" fill="#CC2128" cx="23.575" cy="67.856" r="2.264"/>
	<circle fill-rule="evenodd" clip-rule="evenodd" fill="#CC2128" cx="30.047" cy="50.193" r="2.948"/>
	<circle fill-rule="evenodd" clip-rule="evenodd" fill="#CC2128" cx="35.532" cy="48.87" r="1.423"/>
	<circle fill-rule="evenodd" clip-rule="evenodd" fill="#CC2128" cx="13.182" cy="63.554" r="2.729"/>
	<circle fill-rule="evenodd" clip-rule="evenodd" fill="#CC2128" cx="16.476" cy="59.166" r="1.643"/>
	<circle fill-rule="evenodd" clip-rule="evenodd" fill="#CC2128" cx="46.388" cy="90.612" r="2.264"/>
	<circle fill-rule="evenodd" clip-rule="evenodd" fill="#CC2128" cx="49.51" cy="87.49" r="2.263"/>
	<circle fill-rule="evenodd" clip-rule="evenodd" fill="#CC2128" cx="47.013" cy="87.333" r="2.264"/>
	<circle fill-rule="evenodd" clip-rule="evenodd" fill="#CC2128" cx="39.127" cy="81.201" r="2.264"/>
	<circle fill-rule="evenodd" clip-rule="evenodd" fill="#CC2128" cx="37.969" cy="85.644" r="1.67"/>
	<circle fill-rule="evenodd" clip-rule="evenodd" fill="#CC2128" cx="66.101" cy="85.354" r="2.264"/>
	<circle fill-rule="evenodd" clip-rule="evenodd" fill="#CC2128" cx="51.919" cy="77.414" r="2.263"/>
	<circle fill-rule="evenodd" clip-rule="evenodd" fill="#CC2128" cx="49.422" cy="77.257" r="2.264"/>
	<circle fill-rule="evenodd" clip-rule="evenodd" fill="#CC2128" cx="63.393" cy="72.516" r="3.931"/>
	<circle fill-rule="evenodd" clip-rule="evenodd" fill="#CC2128" cx="58.243" cy="66.835" r="3.931"/>
	<circle fill-rule="evenodd" clip-rule="evenodd" fill="#CC2128" cx="57.759" cy="71.154" r="3.931"/>
	<circle fill-rule="evenodd" clip-rule="evenodd" fill="#CC2128" cx="56.368" cy="91.339" r="1.45"/>
	<circle fill-rule="evenodd" clip-rule="evenodd" fill="#CC2128" cx="48.888" cy="59.971" r="5.016"/>
	<circle fill-rule="evenodd" clip-rule="evenodd" fill="#CC2128" cx="39.831" cy="63.675" r="5.016"/>
	<circle fill-rule="evenodd" clip-rule="evenodd" fill="#CC2128" cx="44.801" cy="66.136" r="5.016"/>
</g>
</svg>
