<?xml version="1.0" encoding="utf-8"?>
<!-- Generator: Adobe Illustrator 17.0.0, SVG Export Plug-In . SVG Version: 6.00 Build 0)  -->
<!DOCTYPE svg PUBLIC "-//W3C//DTD SVG 1.1//EN" "http://www.w3.org/Graphics/SVG/1.1/DTD/svg11.dtd">
<svg version="1.1" id="Capa_2" xmlns="http://www.w3.org/2000/svg" xmlns:xlink="http://www.w3.org/1999/xlink" x="0px" y="0px"
	 width="600px" height="100px" viewBox="0 0 600 100" enable-background="new 0 0 600 100" xml:space="preserve">
<g>
	<path fill-rule="evenodd" clip-rule="evenodd" fill="#A6A8AA" d="M44.625,18.127c-1.01,0.151-2.014,0.35-3.005,0.585
		c-0.863-0.618-2.32-1.792-2.578-2.845c-0.371-1.513,2.036-4.654,2.036-4.654s-5.352,2.583-6.42,4.54
		c-0.808,1.478-1.039,4.559-1.104,5.978c-0.946,0.499-1.878,1.048-2.77,1.627c-1.036-0.308-2.703-0.921-3.279-1.795
		c-0.855-1.302,0.353-5.042,0.353-5.042s-4.166,4.169-4.525,6.371c-0.267,1.633,0.496,4.535,0.907,5.922
		c-0.752,0.805-1.478,1.647-2.15,2.513c-1.088,0.041-2.796-0.006-3.604-0.626c-1.235-0.948-1.193-5.022-1.193-5.022
		s-2.706,5.448-2.322,7.645c0.286,1.63,1.955,4.115,2.798,5.289c-0.438,1-0.837,2.025-1.185,3.06
		c-1.009,0.381-2.645,0.882-3.614,0.542c-1.469-0.516-2.804-4.251-2.804-4.251s-0.79,6.078,0.316,8.014
		c0.814,1.427,3.176,3.18,4.367,4.006c0.004,0.143,0.017,0.311,0.021,0.457c-0.829,0.706-2.199,1.728-3.217,1.743
		c-1.558,0.023-4.048-3.037-4.048-3.037s1.24,5.825,2.912,7.302c1.253,1.107,4.147,2.018,5.513,2.405
		c0.266,1.025,0.587,2.055,0.947,3.055c-0.543,0.93-1.54,2.414-2.531,2.764c-1.47,0.518-4.822-1.564-4.822-1.564
		s3.078,5.064,5.13,5.936c1.559,0.664,4.663,0.593,6.07,0.52c0.583,0.869,1.219,1.714,1.88,2.522
		c-0.203,1.052-0.657,2.842-1.492,3.513c-1.214,0.975-5.049,0.131-5.049,0.131s4.542,3.749,6.767,3.897
		c1.75,0.117,4.782-1.044,6.006-1.548c0.796,0.603,1.624,1.179,2.47,1.711c0.158,1.038,0.351,2.983-0.238,3.927
		c-0.825,1.32-4.885,1.664-4.885,1.664s5.689,2.184,7.838,1.588c1.752-0.487,4.341-2.71,5.248-3.524
		c0.888,0.277,1.797,0.531,2.708,0.742c0.463,0.873,1.369,2.784,1.091,3.925c-0.366,1.514-3.953,3.203-3.953,3.203
		s5.959,0.152,7.806-1.096c1.548-1.045,3.352-4.14,3.905-5.128c0.896-0.013,1.806-0.065,2.703-0.146
		c0.692,0.643,2.243,2.202,2.352,3.408c0.14,1.552-2.715,4.315-2.715,4.315s5.874-1.795,7.175-3.606
		c1.124-1.563,1.774-5.238,1.931-6.216c0.785-0.294,1.565-0.625,2.329-0.972c0.756,0.313,2.986,1.318,3.533,2.487
		c0.659,1.411-1.082,4.945-1.082,4.945s4.733-3.541,5.404-5.667c0.585-1.855,0.012-5.647-0.144-6.59
		c0.619-0.522,1.233-1.084,1.816-1.65c0.742,0.04,3.308,0.245,4.236,1.195c1.087,1.115,0.612,5.011,0.612,5.011
		s3.301-4.875,3.236-7.104c-0.058-2.023-1.97-5.584-2.325-6.229c0.418-0.676,0.826-1.38,1.199-2.087
		c0.699-0.203,3.221-0.867,4.417-0.273c1.395,0.692,2.121,4.705,2.121,4.705s1.639-5.885,0.835-7.963
		c-0.742-1.917-3.793-4.682-4.271-5.108c0.168-0.767,0.327-1.562,0.446-2.337c0.573-0.402,2.759-1.862,4.093-1.678
		c1.542,0.214,3.569,3.615,3.569,3.615s-0.41-5.949-1.839-7.661c-1.261-1.51-4.823-3.092-5.643-3.442
		c-0.091-0.807-0.224-1.631-0.37-2.428c0.452-0.612,2.003-2.596,3.298-2.838c1.532-0.288,4.553,2.275,4.553,2.275
		s-2.348-5.634-4.27-6.764c-1.671-0.982-5.445-1.286-6.404-1.349c-0.35-0.757-0.74-1.526-1.148-2.26
		c0.253-0.807,1.04-3.064,2.143-3.705c1.347-0.785,5.033,0.627,5.033,0.627s-3.98-4.392-6.159-4.865
		c-1.846-0.4-5.399,0.456-6.447,0.729c-0.618-0.624-1.266-1.241-1.931-1.82c-0.028-0.924-0.012-3.203,0.78-4.146
		c1.001-1.194,5.079-0.951,5.079-0.951s-5.339-2.982-7.549-2.689c-1.802,0.238-4.669,2.074-5.68,2.752
		c-0.845-0.416-1.712-0.81-2.587-1.159c-0.338-0.948-0.939-2.928-0.509-4.003c0.577-1.445,4.354-2.611,4.354-2.611
		s-5.842-0.991-7.851-0.024c-1.605,0.774-3.713,3.361-4.504,4.381c-0.371-0.046-0.749-0.098-1.118-0.136
		c-0.574-0.669-1.992-2.445-1.948-3.69C51.732,9.812,54.3,7.334,54.3,7.334c-2.718,0.892-5.8,1.538-7.407,3.626
		C45.522,12.742,45.51,15.842,44.625,18.127L44.625,18.127z M50,39.534c5.78,0,10.466,4.685,10.466,10.466S55.78,60.466,50,60.466
		S39.534,55.78,39.534,50S44.219,39.534,50,39.534z"/>
	<path fill-rule="evenodd" clip-rule="evenodd" fill="#6D6E70" d="M36.937,18.33c-0.24,1.187-0.355,2.8-0.389,3.538l-0.078,1.716
		l-1.52,0.8c-0.866,0.457-1.713,0.955-2.535,1.49l-1.161,0.753l-1.326-0.395c-1.199-0.358-2.525-0.868-3.589-1.649
		c0.164,1.175,0.57,2.683,0.776,3.377l0.488,1.645l-1.17,1.254c-0.691,0.74-1.354,1.507-1.975,2.306L23.6,34.27l-1.397,0.053
		c-1.224,0.047-2.606-0.008-3.838-0.39c0.54,1.055,1.417,2.342,1.839,2.93l0.997,1.388l-0.685,1.565
		c-0.404,0.92-0.769,1.857-1.089,2.811l-0.452,1.347l-1.33,0.503c-1.172,0.443-2.533,0.836-3.848,0.847
		c0.853,0.822,2.15,1.77,2.763,2.197l1.25,0.867l0.038,1.521c0.004,0.144,0.017,0.29,0.022,0.435l0.046,1.443l-1.1,0.936
		c-0.938,0.799-2.065,1.618-3.275,2.08c1.087,0.496,2.598,0.964,3.307,1.165l1.655,0.468l0.432,1.665
		c0.245,0.942,0.535,1.875,0.866,2.792l0.475,1.319l-0.708,1.21c-0.633,1.084-1.448,2.256-2.465,3.105
		c1.207,0.124,2.824,0.082,3.566,0.042l1.698-0.088l0.947,1.412c0.532,0.791,1.107,1.555,1.712,2.293l0.89,1.088l-0.267,1.38
		c-0.242,1.253-0.627,2.661-1.319,3.82c1.206-0.287,2.758-0.878,3.463-1.168l1.587-0.655l1.368,1.037
		c0.729,0.553,1.483,1.076,2.256,1.564l1.16,0.73l0.207,1.355c0.199,1.305,0.311,2.825,0.024,4.198
		c1.072-0.685,2.385-1.797,2.97-2.323l1.27-1.139l1.628,0.509c0.821,0.256,1.651,0.488,2.488,0.682l1.333,0.308l0.642,1.208
		c0.639,1.205,1.27,2.67,1.443,4.114c0.818-1.017,1.744-2.563,2.139-3.268l0.845-1.51l1.729-0.025
		c0.827-0.012,1.653-0.059,2.475-0.135l1.333-0.12l0.979,0.909c1.039,0.965,2.166,2.2,2.801,3.573
		c0.444-1.253,0.806-3.113,0.94-3.951l0.276-1.72l1.631-0.612c0.725-0.272,1.438-0.575,2.143-0.895l1.185-0.537l1.202,0.497
		c1.333,0.552,2.869,1.348,3.975,2.44c0.008-1.34-0.236-3.187-0.371-4.004l-0.279-1.682l1.304-1.1
		c0.572-0.482,1.126-0.99,1.663-1.51l0.94-0.912l1.309,0.071c1.463,0.079,3.221,0.327,4.653,1.01
		c-0.435-1.282-1.28-2.962-1.684-3.698l-0.843-1.535l0.921-1.488c0.386-0.624,0.755-1.259,1.096-1.909l0.594-1.125l1.222-0.355
		c1.417-0.412,3.181-0.76,4.772-0.583c-0.836-1.068-2.197-2.375-2.827-2.939l-1.31-1.166l0.375-1.714
		c0.156-0.712,0.301-1.43,0.411-2.152l0.195-1.265l1.049-0.735c1.208-0.848,2.762-1.745,4.323-2.09
		c-1.114-0.729-2.792-1.517-3.599-1.862l-1.607-0.685l-0.196-1.737c-0.084-0.745-0.206-1.488-0.34-2.226l-0.232-1.277l0.771-1.043
		c0.88-1.19,2.063-2.525,3.437-3.332c-1.297-0.326-3.196-0.515-4.043-0.569l-1.78-0.117l-0.748-1.619
		c-0.322-0.698-0.673-1.387-1.046-2.06l-0.626-1.124l0.385-1.229c0.427-1.365,1.075-2.944,2.05-4.134
		c-1.31,0.112-3.079,0.514-3.864,0.718l-1.671,0.436l-1.215-1.227c-0.571-0.576-1.158-1.136-1.77-1.669l-0.988-0.86l-0.04-1.31
		c-0.044-1.414,0.042-3.091,0.56-4.518c-1.155,0.528-2.605,1.442-3.262,1.883l-1.439,0.965l-1.554-0.764
		c-0.778-0.383-1.569-0.744-2.374-1.064l-1.26-0.502l-0.455-1.277c-0.453-1.27-0.86-2.787-0.829-4.225
		c-0.923,0.861-2.013,2.186-2.487,2.799l-1.046,1.348l-1.693-0.21c-0.351-0.044-0.702-0.093-1.054-0.129l-1.19-0.122l-0.78-0.908
		c-0.899-1.046-1.844-2.356-2.334-3.749c-0.587,1.402-1.098,4.67-1.595,5.948l-0.63,1.624l-1.722,0.257
		c-0.926,0.138-1.846,0.321-2.757,0.536l-1.327,0.315l-1.109-0.794C38.829,20.403,37.703,19.454,36.937,18.33L36.937,18.33z
		 M50,39.534c5.78,0,10.466,4.685,10.466,10.466S55.78,60.466,50,60.466S39.534,55.78,39.534,50S44.219,39.534,50,39.534z"/>
	<path fill-rule="evenodd" clip-rule="evenodd" fill="#858689" d="M36.937,18.33c-0.24,1.187-0.355,2.8-0.389,3.538l-0.078,1.716
		l-1.52,0.8c-0.866,0.457-1.713,0.955-2.535,1.49l-1.161,0.753l-1.326-0.395c-1.199-0.358-2.525-0.868-3.589-1.649
		c0.164,1.175,0.57,2.683,0.776,3.377l0.488,1.645l-1.17,1.254c-0.691,0.74-1.354,1.507-1.975,2.306L23.6,34.27l-1.397,0.053
		c-1.224,0.047-2.606-0.008-3.838-0.39c0.54,1.055,1.417,2.342,1.839,2.93l0.997,1.388l-0.685,1.565
		c-0.404,0.92-0.769,1.857-1.089,2.811l-0.452,1.347l-1.33,0.503c-0.991,0.375-2.118,0.713-3.238,0.816
		c0.088,0.27,0.178,0.541,0.273,0.809c0.705,0.58,1.455,1.123,1.879,1.419l1.25,0.867l0.038,1.521
		c0.004,0.144,0.017,0.29,0.022,0.435l0.046,1.443l-0.477,0.406c6.495,11.511,18.838,19.282,33,19.282
		c13.011,0,24.488-6.562,31.305-16.555l0.026-0.17l0.195-1.265l1.049-0.735l0.175-0.122c0.621-1.068,1.194-2.17,1.711-3.3
		c-0.456-0.22-0.868-0.404-1.162-0.53l-1.607-0.685l-0.196-1.737c-0.084-0.745-0.206-1.488-0.34-2.226l-0.232-1.277l0.771-1.043
		c0.88-1.19,2.063-2.525,3.437-3.332c-1.297-0.326-3.196-0.515-4.043-0.569l-1.78-0.117l-0.748-1.619
		c-0.322-0.698-0.673-1.387-1.046-2.06l-0.626-1.124l0.385-1.229c0.427-1.365,1.075-2.944,2.05-4.134
		c-1.31,0.112-3.079,0.514-3.864,0.718l-1.671,0.436l-1.215-1.227c-0.571-0.576-1.158-1.136-1.77-1.669l-0.988-0.86l-0.04-1.31
		c-0.044-1.414,0.042-3.091,0.56-4.518c-1.155,0.528-2.605,1.442-3.262,1.883l-1.439,0.965l-1.554-0.764
		c-0.778-0.383-1.569-0.744-2.374-1.064l-1.26-0.502l-0.455-1.277c-0.453-1.27-0.86-2.787-0.829-4.225
		c-0.923,0.861-2.013,2.186-2.487,2.799l-1.046,1.348l-1.693-0.21c-0.351-0.044-0.702-0.093-1.054-0.129l-1.19-0.122l-0.78-0.908
		c-0.899-1.046-1.844-2.356-2.334-3.749c-0.587,1.402-1.098,4.67-1.595,5.948l-0.63,1.624l-1.722,0.257
		c-0.926,0.138-1.846,0.321-2.757,0.536l-1.327,0.315l-1.109-0.794C38.829,20.403,37.703,19.454,36.937,18.33L36.937,18.33z
		 M50,39.534c5.78,0,10.466,4.685,10.466,10.466S55.78,60.466,50,60.466S39.534,55.78,39.534,50S44.219,39.534,50,39.534z"/>
	<path fill-rule="evenodd" clip-rule="evenodd" fill="#7A7B7E" d="M19.284,43.053l-0.309,0.922l-0.543,0.206
		c-0.749,1.025-1.448,2.088-2.095,3.184l0.222,0.157l1.25,0.867l0.038,1.521c0.004,0.144,0.017,0.29,0.022,0.435l0.046,1.443
		l-0.477,0.406c6.495,11.511,18.838,19.282,33,19.282c13.011,0,24.488-6.562,31.305-16.555l0.026-0.17l0.195-1.265l1.049-0.735
		l0.175-0.122c0.593-1.02,1.142-2.07,1.64-3.147l-0.129-0.249c-0.375-0.177-0.712-0.327-0.963-0.435l-1.607-0.685l-0.196-1.737
		c-0.08-0.717-0.196-1.432-0.325-2.142C74.507,34.472,62.996,28.126,50,28.126C37.535,28.126,26.435,33.963,19.284,43.053
		L19.284,43.053z M50,39.534c5.78,0,10.466,4.685,10.466,10.466S55.78,60.466,50,60.466S39.534,55.78,39.534,50
		S44.219,39.534,50,39.534z"/>
	<path fill-rule="evenodd" clip-rule="evenodd" fill="#424243" d="M50,32.606c9.607,0,17.394,7.787,17.394,17.394
		S59.607,67.394,50,67.394S32.605,59.607,32.605,50S40.393,32.606,50,32.606L50,32.606z M50,39.534
		c-5.78,0-10.466,4.685-10.466,10.466S44.219,60.466,50,60.466S60.465,55.78,60.465,50S55.78,39.534,50,39.534z"/>
	<path fill-rule="evenodd" clip-rule="evenodd" fill="#CC2128" d="M46.312,29.254c2.392,0,4.343-1.951,4.343-4.343
		c0-2.392-1.951-4.343-4.343-4.343s-4.343,1.951-4.343,4.343C41.969,27.303,43.92,29.254,46.312,29.254z"/>
	<path fill-rule="evenodd" clip-rule="evenodd" fill="#CC2128" d="M52.302,23.264c2.392,0,4.343-1.951,4.343-4.343
		s-1.951-4.343-4.343-4.343c-2.392,0-4.343,1.951-4.343,4.343S49.91,23.264,52.302,23.264z"/>
	<path fill-rule="evenodd" clip-rule="evenodd" fill="#CC2128" d="M52.602,28.054c2.392,0,4.342-1.95,4.342-4.342
		s-1.95-4.343-4.342-4.343s-4.343,1.951-4.343,4.343S50.21,28.054,52.602,28.054z"/>
	<circle fill-rule="evenodd" clip-rule="evenodd" fill="#CC2128" cx="71.551" cy="21.591" r="2.264"/>
	<circle fill-rule="evenodd" clip-rule="evenodd" fill="#CC2128" cx="74.672" cy="24.712" r="2.264"/>
	<circle fill-rule="evenodd" clip-rule="evenodd" fill="#CC2128" cx="72.175" cy="24.869" r="2.264"/>
	<circle fill-rule="evenodd" clip-rule="evenodd" fill="#CC2128" cx="24.021" cy="25.533" r="2.264"/>
	<circle fill-rule="evenodd" clip-rule="evenodd" fill="#CC2128" cx="27.142" cy="28.655" r="2.264"/>
	<circle fill-rule="evenodd" clip-rule="evenodd" fill="#CC2128" cx="24.646" cy="28.812" r="2.264"/>
	<circle fill-rule="evenodd" clip-rule="evenodd" fill="#CC2128" cx="38.616" cy="33.553" r="3.931"/>
	<circle fill-rule="evenodd" clip-rule="evenodd" fill="#CC2128" cx="33.467" cy="39.233" r="3.931"/>
	<circle fill-rule="evenodd" clip-rule="evenodd" fill="#CC2128" cx="32.982" cy="34.916" r="3.931"/>
	<circle fill-rule="evenodd" clip-rule="evenodd" fill="#CC2128" cx="64.29" cy="31.002" r="2.264"/>
	<circle fill-rule="evenodd" clip-rule="evenodd" fill="#CC2128" cx="63.132" cy="26.559" r="1.67"/>
	<circle fill-rule="evenodd" clip-rule="evenodd" fill="#CC2128" cx="91.263" cy="26.848" r="2.264"/>
	<circle fill-rule="evenodd" clip-rule="evenodd" fill="#CC2128" cx="77.082" cy="34.788" r="2.264"/>
	<circle fill-rule="evenodd" clip-rule="evenodd" fill="#CC2128" cx="74.585" cy="34.945" r="2.264"/>
	<circle fill-rule="evenodd" clip-rule="evenodd" fill="#CC2128" cx="88.555" cy="39.686" r="3.931"/>
	<circle fill-rule="evenodd" clip-rule="evenodd" fill="#CC2128" cx="83.406" cy="45.366" r="3.931"/>
	<circle fill-rule="evenodd" clip-rule="evenodd" fill="#CC2128" cx="82.921" cy="41.049" r="3.931"/>
	<circle fill-rule="evenodd" clip-rule="evenodd" fill="#CC2128" cx="81.53" cy="20.863" r="1.45"/>
	<circle fill-rule="evenodd" clip-rule="evenodd" fill="#CC2128" cx="68.014" cy="13.918" r="2.264"/>
	<circle fill-rule="evenodd" clip-rule="evenodd" fill="#CC2128" cx="75.507" cy="12.65" r="1.561"/>
	<circle fill-rule="evenodd" clip-rule="evenodd" fill="#CC2128" cx="31.118" cy="11.149" r="2.948"/>
	<circle fill-rule="evenodd" clip-rule="evenodd" fill="#CC2128" cx="36.602" cy="9.826" r="1.423"/>
	<circle fill-rule="evenodd" clip-rule="evenodd" fill="#CC2128" cx="14.253" cy="24.51" r="2.73"/>
	<circle fill-rule="evenodd" clip-rule="evenodd" fill="#CC2128" cx="17.546" cy="20.122" r="1.642"/>
	<path fill-rule="evenodd" clip-rule="evenodd" fill="#CC2128" d="M69.425,54.172c-1.071-2.554,0.131-5.496,2.684-6.567
		c2.557-1.073,5.498,0.134,6.568,2.686c1.071,2.556-0.13,5.497-2.687,6.57C73.438,57.929,70.498,56.729,69.425,54.172z"/>
	<circle fill-rule="evenodd" clip-rule="evenodd" fill="#CC2128" cx="64.995" cy="48.527" r="5.016"/>
	<path fill-rule="evenodd" clip-rule="evenodd" fill="#CC2128" d="M65.338,48.006c-1.071-2.552,0.131-5.492,2.687-6.566
		c2.553-1.07,5.493,0.134,6.565,2.685c1.072,2.556-0.131,5.496-2.685,6.567C69.35,51.764,66.409,50.561,65.338,48.006z"/>
	<circle fill-rule="evenodd" clip-rule="evenodd" fill="#CC2128" cx="25.334" cy="68.244" r="2.264"/>
	<circle fill-rule="evenodd" clip-rule="evenodd" fill="#CC2128" cx="28.456" cy="71.366" r="2.264"/>
	<circle fill-rule="evenodd" clip-rule="evenodd" fill="#CC2128" cx="25.959" cy="71.523" r="2.264"/>
	<circle fill-rule="evenodd" clip-rule="evenodd" fill="#CC2128" cx="32.431" cy="53.86" r="2.947"/>
	<circle fill-rule="evenodd" clip-rule="evenodd" fill="#CC2128" cx="37.915" cy="52.538" r="1.423"/>
	<circle fill-rule="evenodd" clip-rule="evenodd" fill="#CC2128" cx="15.566" cy="67.221" r="2.73"/>
	<circle fill-rule="evenodd" clip-rule="evenodd" fill="#CC2128" cx="18.86" cy="62.833" r="1.643"/>
	<circle fill-rule="evenodd" clip-rule="evenodd" fill="#CC2128" cx="48.772" cy="94.278" r="2.264"/>
	<circle fill-rule="evenodd" clip-rule="evenodd" fill="#CC2128" cx="51.894" cy="91.157" r="2.263"/>
	<circle fill-rule="evenodd" clip-rule="evenodd" fill="#CC2128" cx="49.397" cy="90.999" r="2.264"/>
	<circle fill-rule="evenodd" clip-rule="evenodd" fill="#CC2128" cx="41.511" cy="84.867" r="2.264"/>
	<circle fill-rule="evenodd" clip-rule="evenodd" fill="#CC2128" cx="40.353" cy="89.31" r="1.67"/>
	<circle fill-rule="evenodd" clip-rule="evenodd" fill="#CC2128" cx="68.484" cy="89.021" r="2.264"/>
	<circle fill-rule="evenodd" clip-rule="evenodd" fill="#CC2128" cx="54.304" cy="81.081" r="2.263"/>
	<circle fill-rule="evenodd" clip-rule="evenodd" fill="#CC2128" cx="51.806" cy="80.924" r="2.264"/>
	<circle fill-rule="evenodd" clip-rule="evenodd" fill="#CC2128" cx="65.777" cy="76.183" r="3.931"/>
	<circle fill-rule="evenodd" clip-rule="evenodd" fill="#CC2128" cx="60.627" cy="70.501" r="3.931"/>
	<circle fill-rule="evenodd" clip-rule="evenodd" fill="#CC2128" cx="60.143" cy="74.821" r="3.931"/>
	<circle fill-rule="evenodd" clip-rule="evenodd" fill="#CC2128" cx="58.752" cy="95.006" r="1.45"/>
	<circle fill-rule="evenodd" clip-rule="evenodd" fill="#CC2128" cx="51.272" cy="63.637" r="5.016"/>
	<circle fill-rule="evenodd" clip-rule="evenodd" fill="#CC2128" cx="42.215" cy="67.342" r="5.016"/>
	<circle fill-rule="evenodd" clip-rule="evenodd" fill="#CC2128" cx="47.186" cy="69.803" r="5.016"/>
</g>
<g>
	<path fill-rule="evenodd" clip-rule="evenodd" fill="#A6A8AA" d="M176.31,29.887c-0.637-0.799-1.31-1.569-2.009-2.309
		c0.102-1.057,0.392-2.905,1.175-3.655c1.125-1.078,5.048-0.563,5.048-0.563s-4.914-3.344-7.142-3.291
		c-1.684,0.04-4.468,1.38-5.729,2.033c-0.905-0.57-1.848-1.102-2.793-1.585c-0.252-1.051-0.554-2.802-0.085-3.737
		c0.699-1.391,4.543-2.216,4.543-2.216s-5.694-1.523-7.78-0.732c-1.549,0.585-3.68,2.696-4.676,3.746
		c-1.073-0.249-2.164-0.457-3.251-0.606c-0.58-0.921-1.393-2.425-1.259-3.435c0.203-1.544,3.752-3.543,3.752-3.543
		s-6.072,0.38-7.782,1.812c-1.268,1.062-2.587,3.75-3.182,5.067c-1.085,0.12-2.172,0.288-3.242,0.504
		c-0.835-0.683-2.087-1.85-2.276-2.858c-0.288-1.53,2.278-4.554,2.278-4.554s-5.659,2.355-6.782,4.281
		c-0.828,1.418-1.164,4.34-1.286,5.784c-0.122,0.074-0.26,0.17-0.385,0.247c-1.026-0.364-2.596-1.04-3.118-1.915
		c-0.798-1.337,0.606-5.023,0.606-5.023s-4.424,3.986-4.867,6.173c-0.332,1.638,0.325,4.6,0.674,5.977
		c-0.756,0.743-1.487,1.537-2.173,2.348c-1.076-0.005-2.86-0.126-3.659-0.809c-1.184-1.013-1.057-4.958-1.057-4.958
		s-2.845,5.197-2.576,7.41c0.205,1.682,1.818,4.335,2.585,5.516c-0.462,0.94-0.875,1.912-1.244,2.889
		c-1.013,0.351-2.79,0.853-3.787,0.465c-1.453-0.565-2.639-4.307-2.639-4.307s-0.975,5.807,0.008,7.808
		c0.775,1.575,3.295,3.619,4.344,4.427c-0.124,0.991-0.209,1.996-0.247,2.994c-0.82,0.657-2.408,1.797-3.521,1.757
		c-1.555-0.053-3.883-3.398-3.883-3.398s0.953,6.019,2.544,7.581c1.297,1.273,4.518,2.404,5.676,2.782
		c0.203,0.908,0.438,1.822,0.712,2.717c-0.524,0.837-1.727,2.577-2.853,2.908c-1.495,0.439-4.75-1.823-4.75-1.823
		s2.846,5.237,4.852,6.212c1.678,0.817,5.26,0.833,6.393,0.817c0.459,0.77,0.959,1.532,1.479,2.268
		c-0.21,0.921-0.787,3.044-1.775,3.74c-1.274,0.898-5.094-0.194-5.094-0.194s4.492,4.188,6.71,4.41
		c1.916,0.193,5.424-1.083,6.35-1.435c0.646,0.531,1.323,1.043,2.005,1.531c0.107,0.811,0.352,3.244-0.387,4.303
		c-0.893,1.277-4.823,1.535-4.823,1.535s5.433,2.329,7.61,1.846c1.898-0.42,4.896-2.812,5.634-3.419
		c0.762,0.275,1.555,0.525,2.337,0.749c0.337,0.662,1.442,2.987,1.083,4.265c-0.422,1.5-4.035,3.035-4.035,3.035
		s5.873,0.422,7.77-0.749c1.723-1.062,3.852-4.499,4.233-5.128c0.794,0.025,1.607,0.026,2.407-0.005
		c0.525,0.504,2.361,2.356,2.445,3.689c0.098,1.554-3.014,4.189-3.014,4.189s5.916-1.522,7.313-3.257
		c1.29-1.602,2.159-5.625,2.289-6.253c0.747-0.239,1.515-0.499,2.247-0.783c0.634,0.295,2.992,1.459,3.5,2.706
		c0.586,1.442-1.347,4.898-1.347,4.898s4.948-3.33,5.715-5.423c0.677-1.848,0.266-5.724,0.158-6.608
		c0.653-0.482,1.3-1.01,1.918-1.534c0.756,0.086,3.25,0.437,4.107,1.436c1.015,1.183,0.307,5.081,0.307,5.081
		s3.705-4.851,3.723-7.08c0.014-1.938-1.608-5.358-2.034-6.221c0.481-0.681,0.951-1.404,1.383-2.123
		c0.824-0.184,3.173-0.631,4.279,0.002c1.354,0.775,1.974,4.673,1.974,4.673s1.814-5.643,1.134-7.767
		c-0.576-1.799-3.094-4.447-3.855-5.218c0.232-0.847,0.443-1.717,0.612-2.583c0.786-0.485,2.767-1.611,3.979-1.397
		c1.535,0.271,3.363,3.922,3.363,3.922s-0.086-6.115-1.445-7.881c-1.108-1.441-4.13-3.006-5.223-3.543
		c-0.064-0.94-0.155-1.887-0.29-2.82c0.651-0.765,2.066-2.278,3.211-2.442c1.541-0.223,4.439,2.464,4.439,2.464
		s-2.063-5.553-3.905-6.81c-1.473-1.004-4.768-1.534-6.046-1.71c-0.145-0.344-0.29-0.697-0.442-1.036
		c0.292-0.831,1.121-2.948,2.222-3.531c1.377-0.73,4.806,0.255,4.806,0.255c-2.131-1.907-4.232-4.254-6.843-4.602
		C181.422,27.972,178.732,29.512,176.31,29.887L176.31,29.887z M160.458,45.246c2.89,5.007,1.175,11.407-3.83,14.298
		c-5.005,2.89-11.406,1.175-14.296-3.832c-2.89-5.005-1.175-11.406,3.83-14.296C151.167,38.525,157.568,40.24,160.458,45.246z"/>
	<path fill-rule="evenodd" clip-rule="evenodd" fill="#6D6E70" d="M172.29,23.331c-1.148,0.386-2.602,1.093-3.258,1.434l-1.525,0.79
		l-1.452-0.916c-0.829-0.522-1.685-1.005-2.557-1.45l-1.233-0.63l-0.321-1.345c-0.289-1.218-0.511-2.621-0.367-3.933
		c-0.936,0.73-2.039,1.835-2.536,2.361l-1.181,1.245l-1.671-0.386c-0.986-0.229-1.982-0.419-2.985-0.558l-1.385-0.191l-0.744-1.184
		c-0.653-1.036-1.296-2.26-1.582-3.517c-0.644,0.995-1.319,2.398-1.618,3.057l-0.703,1.558l-1.698,0.189
		c-0.999,0.11-1.994,0.264-2.979,0.463l-1.394,0.281l-1.101-0.9c-0.968-0.792-1.99-1.774-2.658-2.909
		c-0.285,1.15-0.458,2.747-0.521,3.492l-0.126,1.515l-1.298,0.793c-0.123,0.075-0.242,0.158-0.366,0.235l-1.227,0.762l-1.361-0.484
		c-1.16-0.413-2.433-0.978-3.438-1.797c0.113,1.19,0.464,2.733,0.645,3.447l0.422,1.667l-1.226,1.207
		c-0.693,0.683-1.357,1.401-1.985,2.145l-0.905,1.071l-1.4-0.008c-1.256-0.006-2.678-0.125-3.923-0.582
		c0.497,1.108,1.342,2.487,1.747,3.11l0.925,1.427l-0.749,1.526c-0.42,0.856-0.794,1.736-1.13,2.629l-0.498,1.316l-1.327,0.458
		c-1.207,0.417-2.618,0.788-3.968,0.768c0.852,0.9,2.139,1.949,2.744,2.414l1.36,1.048l-0.215,1.703
		c-0.115,0.907-0.19,1.821-0.225,2.735l-0.053,1.37l-1.069,0.856c-1.031,0.825-2.291,1.681-3.624,2.119
		c1.129,0.586,2.747,1.167,3.497,1.411l1.62,0.53l0.373,1.663c0.188,0.84,0.403,1.675,0.654,2.497l0.399,1.309l-0.725,1.16
		c-0.724,1.155-1.677,2.434-2.842,3.306c1.29,0.201,3.092,0.23,3.9,0.218l1.73-0.023l0.886,1.485
		c0.424,0.711,0.879,1.403,1.355,2.077l0.77,1.092l-0.298,1.303c-0.315,1.383-0.822,2.976-1.694,4.213
		c1.308-0.242,3.1-0.859,3.892-1.161l1.627-0.62l1.345,1.107c0.598,0.491,1.218,0.957,1.848,1.408l1.057,0.757l0.171,1.29
		c0.189,1.43,0.267,3.158-0.126,4.663c1.165-0.664,2.642-1.798,3.282-2.323l1.317-1.083l1.605,0.58
		c0.703,0.254,1.42,0.48,2.139,0.685l1.26,0.358l0.593,1.17c0.662,1.306,1.327,2.952,1.453,4.535c0.892-1.018,1.925-2.59,2.36-3.308
		l0.907-1.497l1.749,0.054c0.734,0.022,1.468,0.024,2.202-0.006l1.272-0.048l0.918,0.882c1.065,1.022,2.249,2.374,2.891,3.841
		c0.507-1.259,0.958-3.091,1.13-3.919l0.355-1.717l1.671-0.531c0.695-0.221,1.389-0.454,2.069-0.72l1.193-0.464l1.161,0.541
		c1.338,0.622,2.891,1.519,3.971,2.699c0.074-1.329-0.082-3.177-0.187-4.048l-0.21-1.735l1.407-1.038
		c0.604-0.445,1.186-0.923,1.757-1.408l0.99-0.84l1.288,0.147c1.472,0.167,3.219,0.525,4.604,1.311
		c-0.366-1.286-1.152-3.026-1.528-3.786l-0.789-1.6l1.029-1.458c0.443-0.628,0.865-1.277,1.26-1.935l0.661-1.105l1.257-0.281
		c1.396-0.313,3.087-0.541,4.605-0.292c-0.752-1.078-1.985-2.409-2.553-2.986l-1.213-1.23l0.455-1.666
		c0.214-0.782,0.405-1.571,0.561-2.367l0.25-1.286l1.114-0.69c1.202-0.744,2.697-1.508,4.193-1.774
		c-1.036-0.736-2.553-1.534-3.263-1.882l-1.554-0.764l-0.116-1.728c-0.058-0.866-0.14-1.73-0.266-2.588l-0.195-1.343l0.878-1.032
		c0.872-1.028,1.984-2.138,3.244-2.83c-1.207-0.37-2.9-0.65-3.667-0.755l-1.69-0.233l-0.665-1.571
		c-0.137-0.326-0.27-0.655-0.415-0.977l-0.49-1.092l0.397-1.129c0.457-1.301,1.118-2.775,2.08-3.896
		c-1.508,0.192-4.595,1.384-5.95,1.593l-1.721,0.267l-1.084-1.362c-0.582-0.733-1.201-1.438-1.842-2.12l-0.937-0.992l0.132-1.357
		C171.44,26.006,171.699,24.557,172.29,23.331L172.29,23.331z M160.458,45.246c2.89,5.007,1.175,11.407-3.83,14.298
		c-5.005,2.89-11.406,1.175-14.296-3.832c-2.89-5.005-1.175-11.406,3.83-14.296C151.167,38.525,157.568,40.24,160.458,45.246z"/>
	<path fill-rule="evenodd" clip-rule="evenodd" fill="#858689" d="M172.29,23.331c-1.148,0.386-2.602,1.093-3.258,1.434l-1.525,0.79
		l-1.452-0.916c-0.829-0.522-1.685-1.005-2.557-1.45l-1.233-0.63l-0.321-1.345c-0.289-1.218-0.511-2.621-0.367-3.933
		c-0.936,0.73-2.039,1.835-2.536,2.361l-1.181,1.245l-1.671-0.386c-0.986-0.229-1.982-0.419-2.985-0.558l-1.385-0.191l-0.744-1.184
		c-0.653-1.036-1.296-2.26-1.582-3.517c-0.644,0.995-1.319,2.398-1.618,3.057l-0.703,1.558l-1.698,0.189
		c-0.999,0.11-1.994,0.264-2.979,0.463l-1.394,0.281l-1.101-0.9c-0.82-0.671-1.676-1.478-2.325-2.395
		c-0.19,0.211-0.379,0.425-0.563,0.641c-0.15,0.9-0.246,1.821-0.29,2.336l-0.126,1.515l-1.298,0.793
		c-0.123,0.075-0.242,0.158-0.366,0.235l-1.227,0.762l-0.59-0.21c-6.722,11.381-7.28,25.956-0.2,38.22
		c6.505,11.268,17.927,17.926,29.99,18.834l0.16-0.063l1.193-0.464l1.161,0.541l0.193,0.091c1.235,0.003,2.475-0.051,3.713-0.168
		c-0.038-0.505-0.084-0.954-0.122-1.272l-0.21-1.735l1.407-1.038c0.604-0.445,1.186-0.923,1.757-1.408l0.99-0.84l1.288,0.147
		c1.472,0.167,3.219,0.525,4.604,1.311c-0.366-1.286-1.152-3.026-1.528-3.786l-0.789-1.6l1.029-1.458
		c0.443-0.628,0.865-1.277,1.26-1.935l0.661-1.105l1.257-0.281c1.396-0.313,3.087-0.541,4.605-0.292
		c-0.752-1.078-1.985-2.409-2.553-2.986l-1.213-1.23l0.455-1.666c0.214-0.782,0.405-1.571,0.561-2.367l0.25-1.286l1.114-0.69
		c1.202-0.744,2.697-1.508,4.193-1.774c-1.036-0.736-2.553-1.534-3.263-1.882l-1.554-0.764l-0.116-1.728
		c-0.058-0.866-0.14-1.73-0.266-2.588l-0.195-1.343l0.878-1.032c0.872-1.028,1.984-2.138,3.244-2.83
		c-1.207-0.37-2.9-0.65-3.667-0.755l-1.69-0.233l-0.665-1.571c-0.137-0.326-0.27-0.655-0.415-0.977l-0.49-1.092l0.397-1.129
		c0.457-1.301,1.118-2.775,2.08-3.896c-1.508,0.192-4.595,1.384-5.95,1.593l-1.721,0.267l-1.084-1.362
		c-0.582-0.733-1.201-1.438-1.842-2.12l-0.937-0.992l0.132-1.357C171.44,26.006,171.699,24.557,172.29,23.331L172.29,23.331z
		 M160.458,45.246c2.89,5.007,1.175,11.407-3.83,14.298c-5.005,2.89-11.406,1.175-14.296-3.832
		c-2.89-5.005-1.175-11.406,3.83-14.296C151.167,38.525,157.568,40.24,160.458,45.246z"/>
	<path fill-rule="evenodd" clip-rule="evenodd" fill="#7A7B7E" d="M142.054,20.405l-0.955,0.192l-0.449-0.366
		c-1.262-0.136-2.533-0.21-3.805-0.222l-0.025,0.27l-0.126,1.515l-1.298,0.793c-0.123,0.075-0.242,0.158-0.366,0.235l-1.227,0.762
		l-0.59-0.21c-6.722,11.381-7.28,25.956-0.2,38.22c6.505,11.268,17.927,17.926,29.99,18.834l0.16-0.063l1.193-0.464l1.161,0.541
		l0.193,0.091c1.179,0.003,2.365-0.046,3.545-0.152l0.151-0.236c-0.034-0.415-0.073-0.78-0.105-1.051l-0.21-1.735l1.407-1.038
		c0.58-0.427,1.141-0.886,1.692-1.353c4.905-11.03,4.645-24.173-1.853-35.427C164.106,28.748,153.501,22.054,142.054,20.405
		L142.054,20.405z M160.458,45.246c2.89,5.007,1.175,11.407-3.83,14.298c-5.005,2.89-11.406,1.175-14.296-3.832
		c-2.89-5.005-1.175-11.406,3.83-14.296C151.167,38.525,157.568,40.24,160.458,45.246z"/>
	<path fill-rule="evenodd" clip-rule="evenodd" fill="#424243" d="M166.459,41.782c4.803,8.32,1.952,18.958-6.368,23.762
		c-8.32,4.803-18.957,1.952-23.76-6.368c-4.804-8.32-1.954-18.957,6.366-23.76C151.017,30.612,161.655,33.462,166.459,41.782
		L166.459,41.782z M160.458,45.246c-2.89-5.005-9.29-6.72-14.296-3.83c-5.005,2.89-6.72,9.29-3.83,14.296
		c2.89,5.007,9.29,6.722,14.296,3.832C161.633,56.653,163.348,50.253,160.458,45.246z"/>
	<circle fill-rule="evenodd" clip-rule="evenodd" fill="#CC2128" cx="171.278" cy="34.741" r="4.343"/>
	<circle fill-rule="evenodd" clip-rule="evenodd" fill="#CC2128" cx="179.46" cy="36.933" r="4.343"/>
	<circle fill-rule="evenodd" clip-rule="evenodd" fill="#CC2128" cx="175.461" cy="39.589" r="4.343"/>
	<circle fill-rule="evenodd" clip-rule="evenodd" fill="#CC2128" cx="186.773" cy="54.938" r="2.264"/>
	<circle fill-rule="evenodd" clip-rule="evenodd" fill="#CC2128" cx="185.63" cy="59.203" r="2.263"/>
	<circle fill-rule="evenodd" clip-rule="evenodd" fill="#CC2128" cx="184.246" cy="57.118" r="2.264"/>
	<circle fill-rule="evenodd" clip-rule="evenodd" fill="#CC2128" cx="159.593" cy="15.747" r="2.263"/>
	<circle fill-rule="evenodd" clip-rule="evenodd" fill="#CC2128" cx="158.451" cy="20.012" r="2.263"/>
	<circle fill-rule="evenodd" clip-rule="evenodd" fill="#CC2128" cx="157.066" cy="17.928" r="2.263"/>
	<circle fill-rule="evenodd" clip-rule="evenodd" fill="#CC2128" cx="159.946" cy="32.397" r="3.931"/>
	<circle fill-rule="evenodd" clip-rule="evenodd" fill="#CC2128" cx="152.451" cy="30.778" r="3.931"/>
	<circle fill-rule="evenodd" clip-rule="evenodd" fill="#CC2128" cx="155.95" cy="28.199" r="3.931"/>
	<circle fill-rule="evenodd" clip-rule="evenodd" fill="#CC2128" cx="174.993" cy="53.356" r="2.264"/>
	<circle fill-rule="evenodd" clip-rule="evenodd" fill="#CC2128" cx="178.261" cy="50.131" r="1.669"/>
	<circle fill-rule="evenodd" clip-rule="evenodd" fill="#CC2128" cx="192.076" cy="74.638" r="2.263"/>
	<circle fill-rule="evenodd" clip-rule="evenodd" fill="#CC2128" cx="178.109" cy="66.327" r="2.263"/>
	<circle fill-rule="evenodd" clip-rule="evenodd" fill="#CC2128" cx="176.725" cy="64.243" r="2.263"/>
	<circle fill-rule="evenodd" clip-rule="evenodd" fill="#CC2128" cx="179.604" cy="78.712" r="3.93"/>
	<circle fill-rule="evenodd" clip-rule="evenodd" fill="#CC2128" cx="172.109" cy="77.093" r="3.93"/>
	<circle fill-rule="evenodd" clip-rule="evenodd" fill="#CC2128" cx="175.607" cy="74.515" r="3.93"/>
	<circle fill-rule="evenodd" clip-rule="evenodd" fill="#CC2128" cx="192.393" cy="63.217" r="1.451"/>
	<circle fill-rule="evenodd" clip-rule="evenodd" fill="#CC2128" cx="191.649" cy="48.039" r="2.264"/>
	<circle fill-rule="evenodd" clip-rule="evenodd" fill="#CC2128" cx="196.494" cy="53.894" r="1.561"/>
	<circle fill-rule="evenodd" clip-rule="evenodd" fill="#CC2128" cx="175.6" cy="14.701" r="2.948"/>
	<circle fill-rule="evenodd" clip-rule="evenodd" fill="#CC2128" cx="179.487" cy="18.79" r="1.423"/>
	<circle fill-rule="evenodd" clip-rule="evenodd" fill="#CC2128" cx="155.596" cy="6.776" r="2.729"/>
	<circle fill-rule="evenodd" clip-rule="evenodd" fill="#CC2128" cx="161.043" cy="7.435" r="1.643"/>
	<circle fill-rule="evenodd" clip-rule="evenodd" fill="#CC2128" cx="161.488" cy="72.424" r="5.016"/>
	<circle fill-rule="evenodd" clip-rule="evenodd" fill="#CC2128" cx="160.167" cy="62.729" r="5.016"/>
	<circle fill-rule="evenodd" clip-rule="evenodd" fill="#CC2128" cx="164.783" cy="65.802" r="5.016"/>
	<circle fill-rule="evenodd" clip-rule="evenodd" fill="#CC2128" cx="123.262" cy="38.24" r="2.263"/>
	<circle fill-rule="evenodd" clip-rule="evenodd" fill="#CC2128" cx="122.119" cy="42.505" r="2.263"/>
	<circle fill-rule="evenodd" clip-rule="evenodd" fill="#CC2128" cx="120.735" cy="40.421" r="2.263"/>
	<circle fill-rule="evenodd" clip-rule="evenodd" fill="#CC2128" cx="139.267" cy="37.194" r="2.949"/>
	<circle fill-rule="evenodd" clip-rule="evenodd" fill="#CC2128" cx="143.155" cy="41.283" r="1.423"/>
	<circle fill-rule="evenodd" clip-rule="evenodd" fill="#CC2128" cx="119.264" cy="29.269" r="2.729"/>
	<circle fill-rule="evenodd" clip-rule="evenodd" fill="#CC2128" cx="124.711" cy="29.928" r="1.643"/>
	<circle fill-rule="evenodd" clip-rule="evenodd" fill="#CC2128" cx="112.435" cy="71.555" r="2.264"/>
	<circle fill-rule="evenodd" clip-rule="evenodd" fill="#CC2128" cx="116.699" cy="72.698" r="2.263"/>
	<circle fill-rule="evenodd" clip-rule="evenodd" fill="#CC2128" cx="115.586" cy="70.456" r="2.264"/>
	<circle fill-rule="evenodd" clip-rule="evenodd" fill="#CC2128" cx="116.955" cy="60.562" r="2.263"/>
	<circle fill-rule="evenodd" clip-rule="evenodd" fill="#CC2128" cx="112.527" cy="61.78" r="1.669"/>
	<circle fill-rule="evenodd" clip-rule="evenodd" fill="#CC2128" cx="126.843" cy="85.998" r="2.263"/>
	<circle fill-rule="evenodd" clip-rule="evenodd" fill="#CC2128" cx="126.629" cy="69.747" r="2.263"/>
	<circle fill-rule="evenodd" clip-rule="evenodd" fill="#CC2128" cx="125.517" cy="67.506" r="2.263"/>
	<circle fill-rule="evenodd" clip-rule="evenodd" fill="#CC2128" cx="136.608" cy="77.234" r="3.931"/>
	<circle fill-rule="evenodd" clip-rule="evenodd" fill="#CC2128" cx="138.953" cy="69.933" r="3.931"/>
	<circle fill-rule="evenodd" clip-rule="evenodd" fill="#CC2128" cx="134.971" cy="71.674" r="3.93"/>
	<circle fill-rule="evenodd" clip-rule="evenodd" fill="#CC2128" cx="116.794" cy="80.561" r="1.45"/>
	<circle fill-rule="evenodd" clip-rule="evenodd" fill="#CC2128" cx="140.221" cy="58.4" r="5.016"/>
	<circle fill-rule="evenodd" clip-rule="evenodd" fill="#CC2128" cx="132.484" cy="52.409" r="5.017"/>
	<circle fill-rule="evenodd" clip-rule="evenodd" fill="#CC2128" cx="132.837" cy="57.944" r="5.016"/>
</g>
<g>
	<path fill-rule="evenodd" clip-rule="evenodd" fill="#A6A8AA" d="M282.252,58.699c0.373-0.95,0.704-1.918,0.995-2.894
		c0.966-0.439,2.712-1.114,3.754-0.81c1.495,0.435,3.012,4.09,3.012,4.09s0.438-5.927-0.722-7.831
		c-0.876-1.438-3.429-3.18-4.625-3.946c0.041-1.068,0.03-2.15-0.024-3.212c0.784-0.743,2.15-1.88,3.194-1.942
		c1.554-0.09,4.19,2.826,4.19,2.826s-1.528-5.692-3.255-7.103c-1.282-1.049-4.176-1.839-5.583-2.175
		c-0.321-1.055-0.686-2.104-1.101-3.12c0.508-0.962,1.403-2.419,2.345-2.809c1.438-0.595,4.945,1.479,4.945,1.479
		s-3.366-5.068-5.46-5.833c-1.555-0.568-4.542-0.365-5.98-0.222c-0.648-0.88-1.335-1.738-2.058-2.556
		c0.174-1.064,0.559-2.732,1.338-3.4c1.181-1.015,5.082-0.303,5.082-0.303s-4.868-3.723-7.098-3.733
		c-1.642-0.01-4.341,1.16-5.653,1.778c-0.125-0.068-0.276-0.14-0.406-0.21c-0.197-1.07-0.397-2.769,0.099-3.658
		c0.76-1.36,4.654-1.987,4.654-1.987s-5.665-1.839-7.779-1.129c-1.585,0.532-3.822,2.582-4.839,3.572
		c-1.022-0.283-2.074-0.518-3.12-0.707c-0.533-0.934-1.32-2.54-1.128-3.573c0.286-1.532,3.765-3.395,3.765-3.395
		s-5.923,0.134-7.705,1.474c-1.355,1.018-2.845,3.742-3.485,4.996c-1.045,0.071-2.094,0.198-3.124,0.367
		c-0.81-0.702-2.133-1.989-2.296-3.047c-0.238-1.54,2.411-4.439,2.411-4.439s-5.517,2.059-6.758,3.912
		c-0.976,1.457-1.487,4.663-1.662,5.975c-0.92,0.387-1.833,0.818-2.716,1.282c-0.978-0.381-2.759-1.187-3.283-2.17
		c-0.731-1.374,1.002-5.062,1.002-5.062s-4.736,3.835-5.294,5.994c-0.455,1.76,0.177,5.114,0.429,6.306
		c-0.685,0.631-1.359,1.291-1.996,1.975c-0.988-0.035-3.096-0.207-3.945-1.017c-1.129-1.075-0.797-5.026-0.797-5.026
		s-3.113,5.085-2.954,7.309c0.131,1.862,1.909,4.972,2.489,5.946c-0.437,0.783-0.847,1.597-1.225,2.414
		c-0.902,0.279-3.03,0.841-4.127,0.333c-1.415-0.654-2.379-4.508-2.379-4.508s-1.382,5.984-0.465,8.016
		c0.791,1.755,3.65,4.155,4.418,4.781c-0.138,0.825-0.242,1.667-0.323,2.503c-0.648,0.499-2.634,1.927-3.92,1.815
		c-1.552-0.135-3.742-3.41-3.742-3.41s0.7,5.87,2.207,7.513c1.313,1.434,4.884,2.835,5.778,3.17c0.143,0.797,0.323,1.61,0.521,2.399
		c-0.405,0.623-1.866,2.743-3.152,3.07c-1.51,0.385-4.646-1.976-4.646-1.976s2.572,5.297,4.534,6.355
		c1.781,0.962,5.822,1.085,6.557,1.101c0.375,0.7,0.782,1.405,1.208,2.083c-0.175,0.707-0.86,3.223-1.972,3.961
		c-1.297,0.862-5.135-0.515-5.135-0.515s4.277,4.362,6.478,4.705c2.031,0.315,5.951-0.944,6.56-1.145
		c0.58,0.528,1.188,1.063,1.801,1.555c0.062,0.697,0.233,3.32-0.593,4.384c-0.957,1.228-4.916,1.283-4.916,1.283
		s5.357,2.62,7.555,2.238c1.938-0.338,5.089-2.631,5.802-3.167c0.744,0.325,1.525,0.622,2.288,0.894
		c0.304,0.698,1.247,3.033,0.809,4.275c-0.516,1.472-4.246,2.806-4.246,2.806s6.053,0.783,7.993-0.315
		c1.686-0.957,3.836-4.073,4.37-4.872c0.83,0.076,1.691,0.122,2.531,0.136c0.572,0.623,2.133,2.433,2.137,3.708
		c0.007,1.559-3.059,4.045-3.059,4.045s5.795-1.251,7.293-2.902c1.27-1.398,2.305-4.903,2.592-5.947
		c0.849-0.223,1.709-0.476,2.543-0.763c0.814,0.438,2.779,1.592,3.2,2.749c0.534,1.465-1.716,4.873-1.716,4.873
		s5.253-3.132,6.104-5.192c0.695-1.68,0.539-5.08,0.457-6.295c0.782-0.525,1.558-1.077,2.298-1.662
		c0.988,0.182,3.005,0.651,3.72,1.562c0.964,1.222,0.085,5.075,0.085,5.075s3.778-4.563,3.946-6.787
		c0.132-1.777-1.056-4.895-1.543-6.091c0.226-0.298,0.46-0.599,0.677-0.9c0.866-0.163,3.113-0.503,4.169,0.158
		c1.32,0.827,2.182,4.29,2.182,4.29c0.587-2.799,1.568-5.792,0.563-8.228C286.466,62.169,283.787,60.609,282.252,58.699
		L282.252,58.699z M261.024,52.65c-2.89,5.007-9.291,6.722-14.296,3.831c-5.005-2.89-6.72-9.29-3.83-14.297
		c2.89-5.005,9.291-6.72,14.296-3.83C262.199,41.244,263.914,47.645,261.024,52.65z"/>
	<path fill-rule="evenodd" clip-rule="evenodd" fill="#6D6E70" d="M285.919,51.939c-0.908-0.801-2.247-1.707-2.87-2.105
		l-1.447-0.926l0.067-1.716c0.037-0.979,0.028-1.961-0.022-2.94l-0.072-1.383l1.005-0.951c0.909-0.86,2.014-1.752,3.222-2.284
		c-1.1-0.445-2.609-0.848-3.312-1.016l-1.669-0.4l-0.501-1.64c-0.295-0.968-0.628-1.926-1.01-2.863l-0.528-1.296l0.653-1.237
		c0.57-1.083,1.31-2.252,2.256-3.128c-1.183-0.06-2.737,0.055-3.457,0.126l-1.7,0.17l-1.013-1.376
		c-0.595-0.81-1.225-1.594-1.89-2.348l-0.942-1.067l0.229-1.403c0.203-1.235,0.542-2.61,1.191-3.756
		c-1.137,0.328-2.608,0.977-3.284,1.294l-1.376,0.649l-1.336-0.728c-0.126-0.07-0.259-0.131-0.388-0.2l-1.273-0.681l-0.261-1.421
		c-0.222-1.211-0.368-2.596-0.163-3.877c-0.975,0.695-2.134,1.77-2.663,2.282l-1.233,1.2l-1.658-0.458
		c-0.938-0.26-1.892-0.475-2.851-0.647l-1.379-0.248l-0.693-1.217c-0.622-1.09-1.23-2.381-1.457-3.688
		c-0.71,0.984-1.482,2.406-1.819,3.068l-0.773,1.514l-1.696,0.115c-0.951,0.065-1.9,0.18-2.842,0.335l-1.388,0.228L244.517,15
		c-0.965-0.836-1.992-1.873-2.649-3.052c-0.355,1.187-0.619,2.826-0.72,3.582l-0.227,1.702l-1.582,0.666
		c-0.843,0.354-1.673,0.745-2.482,1.172l-1.213,0.64l-1.276-0.498c-1.229-0.481-2.602-1.145-3.647-2.079
		c0.057,1.271,0.363,2.963,0.527,3.735l0.351,1.669l-1.254,1.154c-0.633,0.583-1.248,1.187-1.834,1.815l-0.935,1l-1.366-0.048
		c-1.363-0.05-2.947-0.235-4.285-0.808c0.471,1.217,1.348,2.793,1.761,3.487l0.886,1.487l-0.843,1.509
		c-0.403,0.723-0.775,1.462-1.121,2.212l-0.562,1.213l-1.277,0.393c-1.355,0.418-2.988,0.776-4.495,0.64
		c0.863,1.011,2.294,2.255,2.952,2.79l1.351,1.1L220.29,42.2c-0.127,0.763-0.22,1.532-0.295,2.303l-0.127,1.295l-1.031,0.792
		c-1.145,0.879-2.602,1.811-4.102,2.223c1.158,0.677,2.878,1.389,3.653,1.681l1.595,0.599l0.301,1.68
		c0.131,0.736,0.294,1.469,0.476,2.195l0.32,1.27l-0.716,1.098c-0.801,1.227-1.893,2.625-3.201,3.525
		c1.326,0.263,3.205,0.372,4.044,0.39l1.75,0.037l0.828,1.543c0.347,0.646,0.713,1.282,1.105,1.903l0.678,1.077l-0.305,1.237
		c-0.352,1.434-0.932,3.135-1.88,4.425c1.343-0.191,3.155-0.716,3.958-0.98l1.665-0.552l1.296,1.183
		c0.538,0.491,1.087,0.977,1.658,1.433l0.998,0.801l0.112,1.276c0.13,1.47,0.13,3.263-0.352,4.788
		c1.188-0.6,2.711-1.659,3.413-2.185l1.397-1.05l1.603,0.699c0.687,0.3,1.391,0.566,2.097,0.819l1.223,0.437l0.517,1.19
		c0.592,1.357,1.155,3.05,1.167,4.643c0.931-0.96,2.045-2.511,2.515-3.217l0.991-1.482l1.776,0.162
		c0.765,0.07,1.538,0.11,2.307,0.124l1.287,0.02l0.872,0.947c0.969,1.052,2.012,2.404,2.555,3.842
		c0.557-1.191,1.093-2.923,1.31-3.704l0.458-1.665l1.67-0.439c0.784-0.205,1.563-0.435,2.33-0.698l1.239-0.427l1.154,0.62
		c1.246,0.67,2.655,1.583,3.633,2.744c0.12-1.264,0.053-2.976,0-3.765l-0.115-1.729l1.438-0.964c0.72-0.483,1.428-0.986,2.108-1.523
		l1.065-0.841l1.332,0.245c1.327,0.242,2.844,0.65,4.074,1.395c-0.283-1.231-0.887-2.836-1.18-3.554l-0.644-1.58l1.027-1.361
		c0.214-0.282,0.432-0.561,0.639-0.848l0.7-0.97l1.176-0.221c1.356-0.255,2.962-0.42,4.414-0.148
		c-0.921-1.209-3.496-3.286-4.355-4.355l-1.091-1.357l0.638-1.619c0.343-0.872,0.645-1.76,0.914-2.656l0.391-1.307l1.241-0.564
		C283.178,52.542,284.562,52.041,285.919,51.939L285.919,51.939z M261.024,52.65c-2.89,5.007-9.291,6.722-14.296,3.831
		c-5.005-2.89-6.72-9.29-3.83-14.297c2.89-5.005,9.291-6.72,14.296-3.83C262.199,41.244,263.914,47.645,261.024,52.65z"/>
	<path fill-rule="evenodd" clip-rule="evenodd" fill="#858689" d="M285.919,51.939c-0.908-0.801-2.247-1.707-2.87-2.105
		l-1.447-0.926l0.067-1.716c0.037-0.979,0.028-1.961-0.022-2.94l-0.072-1.383l1.005-0.951c0.909-0.86,2.014-1.752,3.222-2.284
		c-1.1-0.445-2.609-0.848-3.312-1.016l-1.669-0.4l-0.501-1.64c-0.295-0.968-0.628-1.926-1.01-2.863l-0.528-1.296l0.653-1.237
		c0.57-1.083,1.31-2.252,2.256-3.128c-1.183-0.06-2.737,0.055-3.457,0.126l-1.7,0.17l-1.013-1.376
		c-0.595-0.81-1.225-1.594-1.89-2.348l-0.942-1.067l0.229-1.403c0.171-1.045,0.442-2.191,0.912-3.212
		c-0.278-0.059-0.557-0.115-0.836-0.168c-0.855,0.32-1.701,0.698-2.169,0.918l-1.376,0.649l-1.336-0.728
		c-0.126-0.07-0.259-0.131-0.388-0.2l-1.273-0.681l-0.112-0.617c-13.217-0.13-26.119,6.673-33.2,18.938
		c-6.505,11.268-6.561,24.488-1.316,35.389l0.135,0.108l0.998,0.801l0.112,1.276l0.018,0.212c0.615,1.071,1.282,2.119,2.002,3.132
		c0.418-0.286,0.784-0.55,1.041-0.742l1.397-1.05l1.603,0.699c0.687,0.3,1.391,0.566,2.097,0.819l1.223,0.437l0.517,1.19
		c0.592,1.357,1.155,3.05,1.167,4.643c0.931-0.96,2.045-2.511,2.515-3.217l0.991-1.482l1.776,0.162
		c0.765,0.07,1.538,0.11,2.307,0.124l1.287,0.02l0.872,0.947c0.969,1.052,2.012,2.404,2.555,3.842
		c0.557-1.191,1.093-2.923,1.31-3.704l0.458-1.665l1.67-0.439c0.784-0.205,1.563-0.435,2.33-0.698l1.239-0.427l1.154,0.62
		c1.246,0.67,2.655,1.583,3.633,2.744c0.12-1.264,0.053-2.976,0-3.765l-0.115-1.729l1.438-0.964c0.72-0.483,1.428-0.986,2.108-1.523
		l1.065-0.841l1.332,0.245c1.327,0.242,2.844,0.65,4.074,1.395c-0.283-1.231-0.887-2.836-1.18-3.554l-0.644-1.58l1.027-1.361
		c0.214-0.282,0.432-0.561,0.639-0.848l0.7-0.97l1.176-0.221c1.356-0.255,2.962-0.42,4.414-0.148
		c-0.921-1.209-3.496-3.286-4.355-4.355l-1.091-1.357l0.638-1.619c0.343-0.872,0.645-1.76,0.914-2.656l0.391-1.307l1.241-0.564
		C283.178,52.542,284.562,52.041,285.919,51.939L285.919,51.939z M261.024,52.65c-2.89,5.007-9.291,6.722-14.296,3.831
		c-5.005-2.89-6.72-9.29-3.83-14.297c2.89-5.005,9.291-6.72,14.296-3.83C262.199,41.244,263.914,47.645,261.024,52.65z"/>
	<path fill-rule="evenodd" clip-rule="evenodd" fill="#7A7B7E" d="M273.335,24.291l-0.645-0.73l0.093-0.572
		c-0.514-1.161-1.084-2.298-1.71-3.406l-0.247,0.113l-1.376,0.649l-1.336-0.728c-0.126-0.07-0.259-0.131-0.388-0.2l-1.273-0.681
		l-0.112-0.617c-13.217-0.13-26.119,6.673-33.2,18.938c-6.505,11.268-6.561,24.488-1.316,35.389l0.135,0.108l0.998,0.801
		l0.112,1.276l0.018,0.212c0.586,1.023,1.223,2.024,1.905,2.994l0.28,0.013c0.341-0.238,0.639-0.454,0.858-0.617l1.397-1.05
		l1.603,0.699c0.66,0.29,1.337,0.546,2.017,0.79c12.005-1.268,23.256-8.063,29.755-19.318
		C277.136,47.561,277.631,35.029,273.335,24.291L273.335,24.291z M261.024,52.65c-2.89,5.007-9.291,6.722-14.296,3.831
		c-5.005-2.89-6.72-9.29-3.83-14.297c2.89-5.005,9.291-6.72,14.296-3.83C262.199,41.244,263.914,47.645,261.024,52.65z"/>
	<path fill-rule="evenodd" clip-rule="evenodd" fill="#424243" d="M267.025,56.114c-4.804,8.32-15.442,11.171-23.762,6.367
		c-8.32-4.803-11.17-15.442-6.366-23.761c4.804-8.32,15.441-11.17,23.76-6.366C268.977,37.158,271.828,47.795,267.025,56.114
		L267.025,56.114z M261.024,52.65c2.89-5.005,1.175-11.406-3.83-14.296c-5.005-2.89-11.406-1.175-14.296,3.83
		c-2.89,5.007-1.175,11.407,3.83,14.297C251.733,59.372,258.133,57.657,261.024,52.65z"/>
	<circle fill-rule="evenodd" clip-rule="evenodd" fill="#CC2128" cx="275.533" cy="56.768" r="4.343"/>
	<circle fill-rule="evenodd" clip-rule="evenodd" fill="#CC2128" cx="277.725" cy="64.95" r="4.343"/>
	<circle fill-rule="evenodd" clip-rule="evenodd" fill="#CC2128" cx="273.425" cy="62.815" r="4.342"/>
	<circle fill-rule="evenodd" clip-rule="evenodd" fill="#CC2128" cx="265.788" cy="80.286" r="2.264"/>
	<circle fill-rule="evenodd" clip-rule="evenodd" fill="#CC2128" cx="261.523" cy="81.429" r="2.263"/>
	<circle fill-rule="evenodd" clip-rule="evenodd" fill="#CC2128" cx="262.636" cy="79.187" r="2.264"/>
	<circle fill-rule="evenodd" clip-rule="evenodd" fill="#CC2128" cx="286.139" cy="37.152" r="2.263"/>
	<circle fill-rule="evenodd" clip-rule="evenodd" fill="#CC2128" cx="281.874" cy="38.296" r="2.263"/>
	<circle fill-rule="evenodd" clip-rule="evenodd" fill="#CC2128" cx="282.987" cy="36.054" r="2.263"/>
	<circle fill-rule="evenodd" clip-rule="evenodd" fill="#CC2128" cx="271.896" cy="45.783" r="3.93"/>
	<circle fill-rule="evenodd" clip-rule="evenodd" fill="#CC2128" cx="269.55" cy="38.482" r="3.931"/>
	<circle fill-rule="evenodd" clip-rule="evenodd" fill="#CC2128" cx="273.533" cy="40.223" r="3.931"/>
	<circle fill-rule="evenodd" clip-rule="evenodd" fill="#CC2128" cx="261.268" cy="69.293" r="2.263"/>
	<circle fill-rule="evenodd" clip-rule="evenodd" fill="#CC2128" cx="265.695" cy="70.511" r="1.669"/>
	<circle fill-rule="evenodd" clip-rule="evenodd" fill="#CC2128" cx="251.379" cy="94.729" r="2.263"/>
	<circle fill-rule="evenodd" clip-rule="evenodd" fill="#CC2128" cx="251.592" cy="78.477" r="2.263"/>
	<circle fill-rule="evenodd" clip-rule="evenodd" fill="#CC2128" cx="252.706" cy="76.236" r="2.263"/>
	<circle fill-rule="evenodd" clip-rule="evenodd" fill="#CC2128" cx="241.615" cy="85.964" r="3.931"/>
	<circle fill-rule="evenodd" clip-rule="evenodd" fill="#CC2128" cx="239.269" cy="78.664" r="3.931"/>
	<circle fill-rule="evenodd" clip-rule="evenodd" fill="#CC2128" cx="243.251" cy="80.405" r="3.931"/>
	<circle fill-rule="evenodd" clip-rule="evenodd" fill="#CC2128" cx="261.429" cy="89.292" r="1.45"/>
	<circle fill-rule="evenodd" clip-rule="evenodd" fill="#CC2128" cx="274.2" cy="81.059" r="2.264"/>
	<circle fill-rule="evenodd" clip-rule="evenodd" fill="#CC2128" cx="271.553" cy="88.183" r="1.561"/>
	<circle fill-rule="evenodd" clip-rule="evenodd" fill="#CC2128" cx="295.048" cy="50.491" r="2.948"/>
	<circle fill-rule="evenodd" clip-rule="evenodd" fill="#CC2128" cx="293.45" cy="55.902" r="1.423"/>
	<circle fill-rule="evenodd" clip-rule="evenodd" fill="#CC2128" cx="291.909" cy="29.206" r="2.729"/>
	<circle fill-rule="evenodd" clip-rule="evenodd" fill="#CC2128" cx="294.063" cy="34.252" r="1.643"/>
	<circle fill-rule="evenodd" clip-rule="evenodd" fill="#CC2128" cx="238.002" cy="67.131" r="5.016"/>
	<circle fill-rule="evenodd" clip-rule="evenodd" fill="#CC2128" cx="245.738" cy="61.14" r="5.016"/>
	<circle fill-rule="evenodd" clip-rule="evenodd" fill="#CC2128" cx="245.385" cy="66.675" r="5.016"/>
	<circle fill-rule="evenodd" clip-rule="evenodd" fill="#CC2128" cx="248.493" cy="16.934" r="2.263"/>
	<circle fill-rule="evenodd" clip-rule="evenodd" fill="#CC2128" cx="244.228" cy="18.078" r="2.263"/>
	<circle fill-rule="evenodd" clip-rule="evenodd" fill="#CC2128" cx="245.342" cy="15.836" r="2.263"/>
	<circle fill-rule="evenodd" clip-rule="evenodd" fill="#CC2128" cx="257.402" cy="30.273" r="2.948"/>
	<circle fill-rule="evenodd" clip-rule="evenodd" fill="#CC2128" cx="255.805" cy="35.684" r="1.423"/>
	<circle fill-rule="evenodd" clip-rule="evenodd" fill="#CC2128" cx="254.264" cy="8.987" r="2.729"/>
	<circle fill-rule="evenodd" clip-rule="evenodd" fill="#CC2128" cx="256.417" cy="14.033" r="1.643"/>
	<circle fill-rule="evenodd" clip-rule="evenodd" fill="#CC2128" cx="214.228" cy="24.215" r="2.264"/>
	<circle fill-rule="evenodd" clip-rule="evenodd" fill="#CC2128" cx="215.371" cy="28.479" r="2.263"/>
	<circle fill-rule="evenodd" clip-rule="evenodd" fill="#CC2128" cx="216.755" cy="26.396" r="2.264"/>
	<circle fill-rule="evenodd" clip-rule="evenodd" fill="#CC2128" cx="226.009" cy="22.633" r="2.263"/>
	<circle fill-rule="evenodd" clip-rule="evenodd" fill="#CC2128" cx="222.74" cy="19.408" r="1.669"/>
	<circle fill-rule="evenodd" clip-rule="evenodd" fill="#CC2128" cx="208.925" cy="43.915" r="2.263"/>
	<circle fill-rule="evenodd" clip-rule="evenodd" fill="#CC2128" cx="222.892" cy="35.605" r="2.263"/>
	<circle fill-rule="evenodd" clip-rule="evenodd" fill="#CC2128" cx="224.277" cy="33.521" r="2.264"/>
	<circle fill-rule="evenodd" clip-rule="evenodd" fill="#CC2128" cx="221.397" cy="47.989" r="3.931"/>
	<circle fill-rule="evenodd" clip-rule="evenodd" fill="#CC2128" cx="228.892" cy="46.37" r="3.93"/>
	<circle fill-rule="evenodd" clip-rule="evenodd" fill="#CC2128" cx="225.393" cy="43.791" r="3.931"/>
	<circle fill-rule="evenodd" clip-rule="evenodd" fill="#CC2128" cx="208.609" cy="32.494" r="1.45"/>
	<circle fill-rule="evenodd" clip-rule="evenodd" fill="#CC2128" cx="239.514" cy="41.701" r="5.016"/>
	<circle fill-rule="evenodd" clip-rule="evenodd" fill="#CC2128" cx="240.834" cy="32.005" r="5.016"/>
	<circle fill-rule="evenodd" clip-rule="evenodd" fill="#CC2128" cx="236.218" cy="35.08" r="5.016"/>
</g>
<g>
	<path fill-rule="evenodd" clip-rule="evenodd" fill="#A6A8AA" d="M355.939,85.749c1.01-0.151,2.014-0.35,3.005-0.585
		c0.863,0.618,2.32,1.792,2.578,2.845c0.371,1.513-2.036,4.654-2.036,4.654s5.352-2.583,6.42-4.54
		c0.808-1.479,1.04-4.559,1.104-5.979c0.946-0.499,1.878-1.048,2.77-1.627c1.036,0.308,2.703,0.921,3.279,1.795
		c0.855,1.302-0.353,5.042-0.353,5.042s4.166-4.169,4.525-6.371c0.267-1.633-0.496-4.535-0.907-5.922
		c0.752-0.805,1.477-1.646,2.151-2.513c1.087-0.041,2.795,0.006,3.603,0.626c1.235,0.949,1.193,5.022,1.193,5.022
		s2.706-5.448,2.322-7.645c-0.286-1.63-1.955-4.115-2.798-5.289c0.438-1,0.837-2.025,1.185-3.06
		c1.009-0.381,2.645-0.882,3.614-0.542c1.469,0.516,2.804,4.251,2.804,4.251s0.79-6.078-0.316-8.014
		c-0.814-1.427-3.176-3.18-4.367-4.006c-0.004-0.143-0.017-0.31-0.021-0.457c0.829-0.706,2.199-1.728,3.217-1.743
		c1.558-0.022,4.048,3.037,4.048,3.037s-1.24-5.825-2.912-7.302c-1.253-1.107-4.147-2.018-5.513-2.405
		c-0.266-1.025-0.587-2.055-0.947-3.055c0.543-0.93,1.54-2.414,2.531-2.764c1.469-0.519,4.822,1.564,4.822,1.564
		s-3.078-5.063-5.129-5.936c-1.559-0.664-4.663-0.593-6.07-0.52c-0.583-0.869-1.219-1.714-1.88-2.522
		c0.203-1.052,0.657-2.842,1.492-3.513c1.214-0.975,5.049-0.131,5.049-0.131s-4.541-3.749-6.767-3.897
		c-1.75-0.117-4.782,1.044-6.006,1.548c-0.796-0.603-1.624-1.179-2.47-1.711c-0.158-1.038-0.351-2.983,0.238-3.927
		c0.825-1.32,4.885-1.664,4.885-1.664s-5.689-2.184-7.837-1.587c-1.752,0.487-4.341,2.71-5.248,3.525
		c-0.888-0.278-1.798-0.532-2.708-0.742c-0.463-0.872-1.369-2.784-1.091-3.925c0.366-1.514,3.953-3.203,3.953-3.203
		s-5.959-0.152-7.806,1.096c-1.548,1.045-3.352,4.14-3.905,5.128c-0.896,0.013-1.806,0.065-2.703,0.146
		c-0.692-0.642-2.243-2.202-2.352-3.407c-0.14-1.552,2.715-4.315,2.715-4.315s-5.874,1.795-7.175,3.606
		c-1.124,1.563-1.774,5.238-1.931,6.216c-0.784,0.294-1.565,0.625-2.329,0.972c-0.756-0.313-2.986-1.318-3.533-2.487
		c-0.659-1.412,1.082-4.945,1.082-4.945s-4.732,3.541-5.404,5.667c-0.585,1.855-0.012,5.647,0.144,6.59
		c-0.619,0.522-1.233,1.084-1.816,1.65c-0.742-0.04-3.308-0.245-4.235-1.195c-1.088-1.115-0.612-5.011-0.612-5.011
		s-3.301,4.875-3.236,7.104c0.058,2.023,1.97,5.585,2.325,6.229c-0.418,0.676-0.826,1.38-1.199,2.087
		c-0.699,0.203-3.221,0.867-4.417,0.273c-1.395-0.692-2.121-4.705-2.121-4.705s-1.639,5.885-0.835,7.963
		c0.742,1.917,3.793,4.682,4.271,5.108c-0.168,0.767-0.327,1.562-0.446,2.338c-0.573,0.402-2.759,1.862-4.092,1.678
		c-1.543-0.214-3.57-3.615-3.57-3.615s0.41,5.95,1.839,7.661c1.261,1.51,4.823,3.092,5.643,3.442
		c0.091,0.807,0.224,1.631,0.37,2.428c-0.452,0.612-2.003,2.596-3.297,2.838c-1.532,0.288-4.553-2.275-4.553-2.275
		s2.348,5.634,4.27,6.764c1.671,0.982,5.445,1.286,6.404,1.349c0.35,0.757,0.74,1.526,1.148,2.26
		c-0.253,0.807-1.04,3.064-2.143,3.705c-1.346,0.785-5.033-0.627-5.033-0.627s3.98,4.392,6.159,4.865
		c1.846,0.4,5.399-0.456,6.447-0.729c0.617,0.624,1.266,1.241,1.931,1.82c0.028,0.924,0.012,3.203-0.779,4.146
		c-1.002,1.194-5.079,0.951-5.079,0.951s5.338,2.982,7.548,2.689c1.802-0.238,4.669-2.074,5.68-2.752
		c0.845,0.415,1.713,0.81,2.588,1.158c0.338,0.947,0.939,2.928,0.509,4.003c-0.578,1.446-4.353,2.611-4.353,2.611
		s5.842,0.991,7.85,0.024c1.605-0.774,3.713-3.361,4.504-4.381c0.371,0.046,0.749,0.098,1.118,0.136
		c0.574,0.669,1.992,2.445,1.948,3.69c-0.057,1.557-2.625,4.035-2.625,4.035c2.718-0.892,5.8-1.538,7.407-3.626
		C355.042,91.134,355.054,88.034,355.939,85.749L355.939,85.749z M350.564,64.342c-5.78,0-10.466-4.685-10.466-10.466
		s4.685-10.466,10.466-10.466s10.466,4.685,10.466,10.466S356.345,64.342,350.564,64.342z"/>
	<path fill-rule="evenodd" clip-rule="evenodd" fill="#6D6E70" d="M363.627,85.546c0.24-1.187,0.355-2.8,0.389-3.538l0.078-1.716
		l1.52-0.8c0.866-0.457,1.712-0.955,2.535-1.489l1.161-0.754l1.326,0.395c1.199,0.358,2.525,0.868,3.589,1.649
		c-0.164-1.175-0.57-2.683-0.776-3.377l-0.488-1.645l1.171-1.254c0.691-0.74,1.353-1.507,1.975-2.306l0.857-1.104l1.397-0.053
		c1.224-0.047,2.606,0.008,3.837,0.39c-0.54-1.055-1.417-2.342-1.839-2.93l-0.997-1.388l0.685-1.565
		c0.404-0.92,0.769-1.858,1.089-2.811l0.452-1.347l1.33-0.503c1.172-0.443,2.533-0.836,3.848-0.847
		c-0.853-0.822-2.15-1.77-2.763-2.197l-1.25-0.867l-0.038-1.521c-0.004-0.144-0.017-0.29-0.021-0.435l-0.046-1.443l1.1-0.937
		c0.938-0.799,2.065-1.618,3.275-2.08c-1.088-0.496-2.599-0.964-3.307-1.165l-1.655-0.468l-0.432-1.665
		c-0.245-0.943-0.535-1.876-0.866-2.792l-0.475-1.319l0.707-1.21c0.633-1.084,1.448-2.256,2.465-3.105
		c-1.207-0.124-2.824-0.081-3.566-0.042l-1.698,0.087l-0.947-1.412c-0.532-0.791-1.107-1.555-1.712-2.293l-0.89-1.088l0.267-1.38
		c0.242-1.253,0.627-2.661,1.319-3.82c-1.206,0.287-2.758,0.878-3.463,1.168l-1.588,0.655l-1.367-1.037
		c-0.729-0.553-1.482-1.076-2.256-1.564l-1.16-0.73l-0.207-1.355c-0.199-1.305-0.311-2.825-0.024-4.198
		c-1.073,0.685-2.385,1.797-2.97,2.323l-1.27,1.139l-1.627-0.509c-0.821-0.256-1.651-0.488-2.489-0.682l-1.333-0.308l-0.642-1.208
		c-0.639-1.205-1.27-2.67-1.443-4.114c-0.818,1.017-1.744,2.563-2.139,3.268l-0.845,1.511l-1.729,0.025
		c-0.827,0.012-1.653,0.059-2.475,0.135l-1.333,0.12l-0.979-0.909c-1.039-0.965-2.166-2.2-2.801-3.573
		c-0.444,1.253-0.806,3.113-0.94,3.951l-0.276,1.72l-1.631,0.612c-0.725,0.272-1.437,0.575-2.142,0.895l-1.185,0.538l-1.202-0.498
		c-1.333-0.551-2.869-1.347-3.975-2.44c-0.008,1.34,0.236,3.187,0.371,4.004l0.279,1.682l-1.304,1.1
		c-0.572,0.482-1.126,0.99-1.663,1.511l-0.94,0.912l-1.309-0.071c-1.463-0.079-3.221-0.327-4.653-1.01
		c0.435,1.282,1.28,2.962,1.684,3.698l0.843,1.535l-0.921,1.488c-0.386,0.624-0.755,1.259-1.096,1.909l-0.594,1.126l-1.222,0.354
		c-1.418,0.412-3.181,0.76-4.772,0.583c0.836,1.068,2.197,2.375,2.827,2.939l1.31,1.166l-0.375,1.714
		c-0.156,0.712-0.301,1.43-0.411,2.152l-0.195,1.265l-1.049,0.735c-1.208,0.848-2.762,1.745-4.323,2.09
		c1.114,0.729,2.792,1.518,3.599,1.862l1.608,0.685l0.196,1.737c0.084,0.745,0.205,1.488,0.34,2.226l0.233,1.277l-0.771,1.043
		c-0.88,1.19-2.063,2.525-3.437,3.332c1.297,0.326,3.196,0.515,4.043,0.569l1.78,0.117l0.748,1.619
		c0.322,0.698,0.673,1.387,1.046,2.06l0.626,1.125l-0.385,1.228c-0.428,1.365-1.075,2.944-2.05,4.134
		c1.31-0.112,3.079-0.514,3.864-0.718l1.671-0.436l1.215,1.228c0.571,0.576,1.158,1.136,1.77,1.669l0.988,0.86l0.04,1.31
		c0.044,1.414-0.042,3.091-0.56,4.518c1.155-0.528,2.605-1.442,3.262-1.883l1.439-0.965l1.554,0.764
		c0.778,0.383,1.569,0.744,2.374,1.064l1.26,0.502l0.455,1.277c0.453,1.27,0.86,2.787,0.829,4.225
		c0.924-0.861,2.013-2.186,2.487-2.799l1.046-1.348l1.693,0.21c0.351,0.044,0.702,0.093,1.054,0.129l1.19,0.122l0.78,0.908
		c0.899,1.046,1.844,2.356,2.334,3.749c0.587-1.402,1.098-4.67,1.595-5.948l0.63-1.624l1.722-0.257
		c0.926-0.138,1.846-0.321,2.757-0.536l1.327-0.315l1.109,0.794C361.735,83.474,362.861,84.422,363.627,85.546L363.627,85.546z
		 M350.564,64.342c-5.78,0-10.466-4.685-10.466-10.466s4.685-10.466,10.466-10.466s10.466,4.685,10.466,10.466
		S356.345,64.342,350.564,64.342z"/>
	<path fill-rule="evenodd" clip-rule="evenodd" fill="#858689" d="M363.627,85.546c0.24-1.187,0.355-2.8,0.389-3.538l0.078-1.716
		l1.52-0.8c0.866-0.457,1.712-0.955,2.535-1.489l1.161-0.754l1.326,0.395c1.199,0.358,2.525,0.868,3.589,1.649
		c-0.164-1.175-0.57-2.683-0.776-3.377l-0.488-1.645l1.171-1.254c0.691-0.74,1.353-1.507,1.975-2.306l0.857-1.104l1.397-0.053
		c1.224-0.047,2.606,0.008,3.837,0.39c-0.54-1.055-1.417-2.342-1.839-2.93l-0.997-1.388l0.685-1.565
		c0.404-0.92,0.769-1.858,1.089-2.811l0.452-1.347l1.33-0.503c0.991-0.374,2.118-0.713,3.237-0.816
		c-0.087-0.27-0.178-0.541-0.273-0.809c-0.705-0.58-1.455-1.123-1.879-1.419l-1.25-0.867l-0.038-1.521
		c-0.004-0.144-0.017-0.29-0.021-0.435l-0.046-1.443l0.477-0.407c-6.495-11.511-18.838-19.283-33-19.283
		c-13.011,0-24.488,6.562-31.305,16.555l-0.026,0.17l-0.195,1.265l-1.049,0.735l-0.175,0.122c-0.621,1.068-1.194,2.17-1.711,3.3
		c0.456,0.22,0.868,0.404,1.162,0.53l1.608,0.685l0.196,1.737c0.084,0.745,0.205,1.488,0.34,2.226l0.233,1.277l-0.771,1.043
		c-0.88,1.19-2.063,2.525-3.437,3.332c1.297,0.326,3.196,0.515,4.043,0.569l1.78,0.117l0.748,1.619
		c0.322,0.698,0.673,1.387,1.046,2.06l0.626,1.125l-0.385,1.228c-0.428,1.365-1.075,2.944-2.05,4.134
		c1.31-0.112,3.079-0.514,3.864-0.718l1.671-0.436l1.215,1.228c0.571,0.576,1.158,1.136,1.77,1.669l0.988,0.86l0.04,1.31
		c0.044,1.414-0.042,3.091-0.56,4.518c1.155-0.528,2.605-1.442,3.262-1.883l1.439-0.965l1.554,0.764
		c0.778,0.383,1.569,0.744,2.374,1.064l1.26,0.502l0.455,1.277c0.453,1.27,0.86,2.787,0.829,4.225
		c0.924-0.861,2.013-2.186,2.487-2.799l1.046-1.348l1.693,0.21c0.351,0.044,0.702,0.093,1.054,0.129l1.19,0.122l0.78,0.908
		c0.899,1.046,1.844,2.356,2.334,3.749c0.587-1.402,1.098-4.67,1.595-5.948l0.63-1.624l1.722-0.257
		c0.926-0.138,1.846-0.321,2.757-0.536l1.327-0.315l1.109,0.794C361.735,83.474,362.861,84.422,363.627,85.546L363.627,85.546z
		 M350.564,64.342c-5.78,0-10.466-4.685-10.466-10.466s4.685-10.466,10.466-10.466s10.466,4.685,10.466,10.466
		S356.345,64.342,350.564,64.342z"/>
	<path fill-rule="evenodd" clip-rule="evenodd" fill="#7A7B7E" d="M381.28,60.824l0.309-0.923l0.543-0.206
		c0.749-1.025,1.448-2.088,2.095-3.184l-0.222-0.157l-1.25-0.867l-0.038-1.521c-0.004-0.144-0.017-0.29-0.021-0.435l-0.046-1.443
		l0.477-0.407c-6.495-11.511-18.838-19.283-33-19.283c-13.011,0-24.488,6.562-31.305,16.555l-0.026,0.17l-0.195,1.265l-1.049,0.735
		l-0.175,0.122c-0.593,1.02-1.142,2.071-1.64,3.147l0.129,0.249c0.375,0.177,0.712,0.327,0.962,0.435l1.608,0.685l0.196,1.737
		c0.08,0.717,0.196,1.432,0.325,2.143c7.1,9.763,18.611,16.109,31.608,16.109C363.028,75.75,374.128,69.913,381.28,60.824
		L381.28,60.824z M350.564,64.342c-5.78,0-10.466-4.685-10.466-10.466s4.685-10.466,10.466-10.466s10.466,4.685,10.466,10.466
		S356.345,64.342,350.564,64.342z"/>
	<path fill-rule="evenodd" clip-rule="evenodd" fill="#424243" d="M350.564,71.27c-9.607,0-17.394-7.787-17.394-17.394
		s7.787-17.394,17.394-17.394s17.394,7.787,17.394,17.394S360.171,71.27,350.564,71.27L350.564,71.27z M350.564,64.342
		c5.78,0,10.466-4.685,10.466-10.466s-4.685-10.466-10.466-10.466s-10.466,4.685-10.466,10.466S344.784,64.342,350.564,64.342z"/>
	<circle fill-rule="evenodd" clip-rule="evenodd" fill="#CC2128" cx="354.253" cy="78.965" r="4.343"/>
	<circle fill-rule="evenodd" clip-rule="evenodd" fill="#CC2128" cx="348.263" cy="84.954" r="4.343"/>
	<circle fill-rule="evenodd" clip-rule="evenodd" fill="#CC2128" cx="347.962" cy="80.163" r="4.342"/>
	<circle fill-rule="evenodd" clip-rule="evenodd" fill="#CC2128" cx="329.013" cy="82.285" r="2.264"/>
	<circle fill-rule="evenodd" clip-rule="evenodd" fill="#CC2128" cx="325.891" cy="79.164" r="2.263"/>
	<circle fill-rule="evenodd" clip-rule="evenodd" fill="#CC2128" cx="328.389" cy="79.007" r="2.264"/>
	<circle fill-rule="evenodd" clip-rule="evenodd" fill="#CC2128" cx="376.543" cy="78.343" r="2.264"/>
	<circle fill-rule="evenodd" clip-rule="evenodd" fill="#CC2128" cx="373.421" cy="75.221" r="2.263"/>
	<circle fill-rule="evenodd" clip-rule="evenodd" fill="#CC2128" cx="375.918" cy="75.064" r="2.264"/>
	<circle fill-rule="evenodd" clip-rule="evenodd" fill="#CC2128" cx="361.948" cy="70.323" r="3.931"/>
	<circle fill-rule="evenodd" clip-rule="evenodd" fill="#CC2128" cx="367.097" cy="64.642" r="3.931"/>
	<circle fill-rule="evenodd" clip-rule="evenodd" fill="#CC2128" cx="367.582" cy="68.961" r="3.931"/>
	<circle fill-rule="evenodd" clip-rule="evenodd" fill="#CC2128" cx="336.274" cy="72.874" r="2.264"/>
	<circle fill-rule="evenodd" clip-rule="evenodd" fill="#CC2128" cx="337.432" cy="77.317" r="1.67"/>
	<circle fill-rule="evenodd" clip-rule="evenodd" fill="#CC2128" cx="309.301" cy="77.028" r="2.264"/>
	<circle fill-rule="evenodd" clip-rule="evenodd" fill="#CC2128" cx="323.481" cy="69.088" r="2.263"/>
	<circle fill-rule="evenodd" clip-rule="evenodd" fill="#CC2128" cx="325.979" cy="68.931" r="2.264"/>
	<circle fill-rule="evenodd" clip-rule="evenodd" fill="#CC2128" cx="312.008" cy="64.19" r="3.931"/>
	<circle fill-rule="evenodd" clip-rule="evenodd" fill="#CC2128" cx="317.158" cy="58.508" r="3.931"/>
	<circle fill-rule="evenodd" clip-rule="evenodd" fill="#CC2128" cx="317.642" cy="62.828" r="3.931"/>
	<circle fill-rule="evenodd" clip-rule="evenodd" fill="#CC2128" cx="319.033" cy="83.013" r="1.45"/>
	<circle fill-rule="evenodd" clip-rule="evenodd" fill="#CC2128" cx="332.549" cy="89.958" r="2.264"/>
	<circle fill-rule="evenodd" clip-rule="evenodd" fill="#CC2128" cx="325.057" cy="91.226" r="1.561"/>
	<circle fill-rule="evenodd" clip-rule="evenodd" fill="#CC2128" cx="369.446" cy="92.727" r="2.948"/>
	<circle fill-rule="evenodd" clip-rule="evenodd" fill="#CC2128" cx="363.961" cy="94.05" r="1.423"/>
	<circle fill-rule="evenodd" clip-rule="evenodd" fill="#CC2128" cx="386.311" cy="79.367" r="2.729"/>
	<circle fill-rule="evenodd" clip-rule="evenodd" fill="#CC2128" cx="383.017" cy="83.755" r="1.643"/>
	<circle fill-rule="evenodd" clip-rule="evenodd" fill="#CC2128" cx="326.513" cy="51.644" r="5.016"/>
	<circle fill-rule="evenodd" clip-rule="evenodd" fill="#CC2128" cx="335.57" cy="55.349" r="5.016"/>
	<circle fill-rule="evenodd" clip-rule="evenodd" fill="#CC2128" cx="330.599" cy="57.81" r="5.016"/>
	<circle fill-rule="evenodd" clip-rule="evenodd" fill="#CC2128" cx="375.23" cy="35.632" r="2.264"/>
	<circle fill-rule="evenodd" clip-rule="evenodd" fill="#CC2128" cx="372.108" cy="32.51" r="2.263"/>
	<circle fill-rule="evenodd" clip-rule="evenodd" fill="#CC2128" cx="374.605" cy="32.353" r="2.264"/>
	<circle fill-rule="evenodd" clip-rule="evenodd" fill="#CC2128" cx="368.133" cy="50.016" r="2.948"/>
	<circle fill-rule="evenodd" clip-rule="evenodd" fill="#CC2128" cx="362.648" cy="51.338" r="1.423"/>
	<circle fill-rule="evenodd" clip-rule="evenodd" fill="#CC2128" cx="384.997" cy="36.656" r="2.729"/>
	<circle fill-rule="evenodd" clip-rule="evenodd" fill="#CC2128" cx="381.704" cy="41.043" r="1.643"/>
	<circle fill-rule="evenodd" clip-rule="evenodd" fill="#CC2128" cx="351.792" cy="9.598" r="2.264"/>
	<circle fill-rule="evenodd" clip-rule="evenodd" fill="#CC2128" cx="348.67" cy="12.719" r="2.263"/>
	<circle fill-rule="evenodd" clip-rule="evenodd" fill="#CC2128" cx="351.167" cy="12.877" r="2.264"/>
	<circle fill-rule="evenodd" clip-rule="evenodd" fill="#CC2128" cx="359.052" cy="19.009" r="2.264"/>
	<circle fill-rule="evenodd" clip-rule="evenodd" fill="#CC2128" cx="360.211" cy="14.566" r="1.67"/>
	<circle fill-rule="evenodd" clip-rule="evenodd" fill="#CC2128" cx="332.079" cy="14.855" r="2.264"/>
	<circle fill-rule="evenodd" clip-rule="evenodd" fill="#CC2128" cx="346.26" cy="22.795" r="2.263"/>
	<circle fill-rule="evenodd" clip-rule="evenodd" fill="#CC2128" cx="348.758" cy="22.953" r="2.264"/>
	<circle fill-rule="evenodd" clip-rule="evenodd" fill="#CC2128" cx="334.787" cy="27.693" r="3.931"/>
	<circle fill-rule="evenodd" clip-rule="evenodd" fill="#CC2128" cx="339.937" cy="33.375" r="3.931"/>
	<circle fill-rule="evenodd" clip-rule="evenodd" fill="#CC2128" cx="340.421" cy="29.055" r="3.931"/>
	<circle fill-rule="evenodd" clip-rule="evenodd" fill="#CC2128" cx="341.812" cy="8.87" r="1.45"/>
	<circle fill-rule="evenodd" clip-rule="evenodd" fill="#CC2128" cx="349.292" cy="40.239" r="5.016"/>
	<circle fill-rule="evenodd" clip-rule="evenodd" fill="#CC2128" cx="358.348" cy="36.534" r="5.016"/>
	<circle fill-rule="evenodd" clip-rule="evenodd" fill="#CC2128" cx="353.378" cy="34.073" r="5.016"/>
</g>
<g>
	<path fill-rule="evenodd" clip-rule="evenodd" fill="#A6A8AA" d="M423.688,68.989c0.637,0.799,1.31,1.569,2.009,2.309
		c-0.103,1.057-0.392,2.905-1.175,3.655c-1.125,1.078-5.048,0.563-5.048,0.563s4.913,3.344,7.142,3.291
		c1.684-0.04,4.468-1.38,5.73-2.033c0.905,0.57,1.847,1.102,2.793,1.585c0.251,1.051,0.554,2.802,0.085,3.737
		c-0.699,1.391-4.544,2.216-4.544,2.216s5.694,1.522,7.78,0.732c1.548-0.585,3.68-2.696,4.676-3.746
		c1.074,0.249,2.164,0.457,3.252,0.606c0.58,0.921,1.392,2.425,1.259,3.435c-0.203,1.544-3.753,3.543-3.753,3.543
		s6.072-0.38,7.782-1.812c1.269-1.062,2.587-3.75,3.182-5.067c1.085-0.12,2.172-0.288,3.242-0.504
		c0.835,0.683,2.087,1.85,2.276,2.858c0.288,1.53-2.278,4.554-2.278,4.554s5.659-2.355,6.782-4.281
		c0.828-1.417,1.165-4.34,1.286-5.784c0.122-0.074,0.26-0.17,0.385-0.247c1.026,0.364,2.596,1.04,3.118,1.915
		c0.799,1.337-0.606,5.023-0.606,5.023s4.425-3.986,4.867-6.173c0.332-1.638-0.325-4.6-0.675-5.977
		c0.756-0.743,1.487-1.536,2.173-2.348c1.076,0.005,2.86,0.126,3.659,0.809c1.183,1.013,1.057,4.958,1.057,4.958
		s2.845-5.197,2.576-7.41c-0.204-1.682-1.818-4.335-2.585-5.516c0.462-0.94,0.875-1.912,1.244-2.889
		c1.013-0.351,2.79-0.853,3.788-0.465c1.452,0.565,2.638,4.307,2.638,4.307s0.976-5.807-0.008-7.808
		c-0.775-1.575-3.295-3.619-4.344-4.427c0.124-0.991,0.209-1.996,0.247-2.994c0.82-0.657,2.408-1.797,3.521-1.757
		c1.555,0.053,3.883,3.398,3.883,3.398s-0.953-6.019-2.544-7.581c-1.297-1.273-4.518-2.404-5.677-2.782
		c-0.203-0.908-0.438-1.823-0.712-2.717c0.524-0.837,1.727-2.577,2.853-2.908c1.495-0.44,4.75,1.822,4.75,1.822
		s-2.846-5.237-4.852-6.212c-1.678-0.817-5.261-0.832-6.393-0.817c-0.46-0.77-0.959-1.532-1.479-2.268
		c0.21-0.921,0.787-3.044,1.775-3.74c1.275-0.898,5.094,0.194,5.094,0.194s-4.492-4.188-6.71-4.41
		c-1.915-0.192-5.423,1.083-6.35,1.435c-0.646-0.531-1.323-1.043-2.005-1.531c-0.108-0.811-0.352-3.244,0.387-4.302
		c0.893-1.277,4.824-1.535,4.824-1.535s-5.433-2.329-7.61-1.846c-1.898,0.42-4.896,2.813-5.634,3.42
		c-0.762-0.275-1.556-0.526-2.338-0.749c-0.337-0.662-1.442-2.987-1.083-4.265c0.422-1.5,4.035-3.035,4.035-3.035
		s-5.874-0.422-7.77,0.749c-1.723,1.062-3.852,4.499-4.233,5.128c-0.794-0.025-1.608-0.026-2.407,0.005
		c-0.524-0.504-2.361-2.356-2.445-3.689c-0.098-1.554,3.014-4.189,3.014-4.189s-5.916,1.523-7.313,3.258
		c-1.29,1.602-2.159,5.625-2.289,6.252c-0.748,0.239-1.515,0.499-2.248,0.783c-0.634-0.295-2.992-1.459-3.5-2.706
		c-0.586-1.442,1.347-4.898,1.347-4.898s-4.947,3.33-5.715,5.423c-0.677,1.848-0.266,5.724-0.158,6.608
		c-0.653,0.482-1.3,1.01-1.918,1.534c-0.756-0.086-3.25-0.437-4.107-1.436c-1.016-1.183-0.307-5.081-0.307-5.081
		s-3.705,4.851-3.723,7.08c-0.014,1.938,1.609,5.358,2.034,6.221c-0.481,0.681-0.951,1.404-1.383,2.123
		c-0.825,0.185-3.174,0.631-4.279-0.002c-1.354-0.775-1.974-4.673-1.974-4.673s-1.814,5.643-1.134,7.767
		c0.576,1.799,3.095,4.447,3.855,5.218c-0.231,0.847-0.443,1.717-0.612,2.583c-0.785,0.485-2.768,1.611-3.979,1.397
		c-1.535-0.27-3.362-3.923-3.362-3.923s0.086,6.115,1.444,7.881c1.108,1.441,4.13,3.006,5.223,3.543
		c0.064,0.94,0.155,1.888,0.291,2.82c-0.651,0.765-2.066,2.278-3.212,2.442c-1.541,0.223-4.438-2.464-4.438-2.464
		s2.063,5.553,3.905,6.81c1.473,1.004,4.768,1.534,6.046,1.71c0.145,0.344,0.29,0.697,0.442,1.036
		c-0.292,0.831-1.121,2.948-2.222,3.531c-1.378,0.73-4.806-0.255-4.806-0.255c2.13,1.908,4.232,4.254,6.843,4.602
		C418.575,70.904,421.266,69.364,423.688,68.989L423.688,68.989z M439.54,53.631c-2.89-5.007-1.175-11.407,3.83-14.298
		c5.005-2.89,11.406-1.175,14.296,3.832c2.89,5.005,1.175,11.406-3.83,14.296C448.831,60.351,442.43,58.636,439.54,53.631z"/>
	<path fill-rule="evenodd" clip-rule="evenodd" fill="#6D6E70" d="M427.708,75.546c1.148-0.386,2.602-1.093,3.259-1.434l1.525-0.79
		l1.453,0.916c0.829,0.522,1.684,1.005,2.557,1.45l1.233,0.63l0.321,1.345c0.29,1.217,0.512,2.621,0.367,3.933
		c0.935-0.73,2.038-1.835,2.536-2.361l1.181-1.245l1.671,0.386c0.986,0.229,1.982,0.419,2.985,0.558l1.385,0.191l0.744,1.184
		c0.653,1.036,1.296,2.26,1.582,3.517c0.644-0.995,1.319-2.397,1.618-3.057l0.703-1.558l1.698-0.189
		c0.999-0.11,1.994-0.263,2.979-0.463l1.394-0.281l1.101,0.9c0.969,0.792,1.99,1.774,2.658,2.909
		c0.285-1.15,0.458-2.747,0.521-3.492l0.126-1.515l1.298-0.793c0.123-0.075,0.242-0.158,0.366-0.235l1.227-0.762l1.36,0.484
		c1.16,0.412,2.433,0.978,3.438,1.797c-0.113-1.19-0.464-2.733-0.645-3.447l-0.422-1.668l1.226-1.207
		c0.693-0.683,1.357-1.401,1.985-2.145l0.905-1.071l1.401,0.008c1.255,0.006,2.677,0.125,3.923,0.582
		c-0.497-1.107-1.342-2.487-1.747-3.11l-0.925-1.427l0.749-1.526c0.419-0.856,0.794-1.736,1.13-2.629l0.497-1.316l1.328-0.458
		c1.207-0.417,2.619-0.788,3.969-0.768c-0.852-0.9-2.139-1.949-2.744-2.414l-1.361-1.048l0.215-1.703
		c0.115-0.907,0.19-1.821,0.225-2.735l0.053-1.37l1.069-0.856c1.031-0.825,2.292-1.681,3.624-2.119
		c-1.129-0.585-2.747-1.167-3.497-1.411l-1.62-0.53l-0.373-1.663c-0.188-0.84-0.403-1.675-0.655-2.497l-0.399-1.309l0.725-1.16
		c0.724-1.155,1.677-2.434,2.842-3.306c-1.29-0.201-3.092-0.23-3.9-0.218l-1.73,0.023l-0.886-1.485
		c-0.424-0.711-0.879-1.403-1.355-2.077l-0.77-1.093l0.298-1.303c0.315-1.383,0.822-2.976,1.694-4.213
		c-1.307,0.242-3.099,0.859-3.892,1.161l-1.628,0.62l-1.345-1.107c-0.598-0.491-1.218-0.957-1.847-1.408l-1.057-0.757l-0.172-1.29
		c-0.189-1.43-0.267-3.158,0.127-4.663c-1.166,0.664-2.642,1.798-3.283,2.323l-1.317,1.083l-1.605-0.58
		c-0.703-0.254-1.42-0.48-2.139-0.685l-1.26-0.358l-0.593-1.17c-0.662-1.306-1.327-2.953-1.452-4.535
		c-0.892,1.018-1.925,2.59-2.36,3.308l-0.907,1.498l-1.749-0.054c-0.733-0.023-1.468-0.024-2.202,0.006l-1.272,0.048l-0.918-0.882
		c-1.065-1.022-2.249-2.374-2.891-3.841c-0.507,1.259-0.958,3.091-1.13,3.919l-0.355,1.718l-1.671,0.531
		c-0.695,0.221-1.389,0.454-2.07,0.72l-1.193,0.464l-1.161-0.541c-1.338-0.623-2.891-1.519-3.971-2.699
		c-0.075,1.329,0.081,3.177,0.187,4.047l0.21,1.735l-1.407,1.038c-0.603,0.445-1.186,0.922-1.757,1.408l-0.99,0.84l-1.289-0.147
		c-1.472-0.167-3.218-0.525-4.604-1.311c0.366,1.286,1.151,3.026,1.528,3.786l0.789,1.6l-1.029,1.458
		c-0.443,0.628-0.865,1.277-1.26,1.936l-0.662,1.104l-1.257,0.281c-1.396,0.313-3.087,0.541-4.605,0.292
		c0.753,1.078,1.985,2.409,2.553,2.986l1.213,1.23l-0.455,1.666c-0.214,0.782-0.405,1.571-0.561,2.367l-0.25,1.286l-1.114,0.69
		c-1.203,0.744-2.698,1.508-4.193,1.774c1.036,0.736,2.552,1.534,3.262,1.882l1.554,0.764l0.116,1.728
		c0.058,0.866,0.141,1.73,0.266,2.588l0.195,1.343l-0.877,1.033c-0.873,1.028-1.985,2.138-3.245,2.83
		c1.207,0.37,2.9,0.65,3.667,0.755l1.69,0.232l0.665,1.571c0.137,0.326,0.269,0.655,0.415,0.977l0.49,1.091l-0.397,1.129
		c-0.457,1.301-1.119,2.775-2.08,3.896c1.508-0.192,4.595-1.384,5.949-1.593l1.721-0.267l1.084,1.362
		c0.582,0.733,1.201,1.439,1.842,2.12l0.937,0.992l-0.132,1.357C428.557,72.871,428.298,74.32,427.708,75.546L427.708,75.546z
		 M439.54,53.631c-2.89-5.007-1.175-11.407,3.83-14.298c5.005-2.89,11.406-1.175,14.296,3.832c2.89,5.005,1.175,11.406-3.83,14.296
		C448.831,60.351,442.43,58.636,439.54,53.631z"/>
	<path fill-rule="evenodd" clip-rule="evenodd" fill="#858689" d="M427.708,75.546c1.148-0.386,2.602-1.093,3.259-1.434l1.525-0.79
		l1.453,0.916c0.829,0.522,1.684,1.005,2.557,1.45l1.233,0.63l0.321,1.345c0.29,1.217,0.512,2.621,0.367,3.933
		c0.935-0.73,2.038-1.835,2.536-2.361l1.181-1.245l1.671,0.386c0.986,0.229,1.982,0.419,2.985,0.558l1.385,0.191l0.744,1.184
		c0.653,1.036,1.296,2.26,1.582,3.517c0.644-0.995,1.319-2.397,1.618-3.057l0.703-1.558l1.698-0.189
		c0.999-0.11,1.994-0.263,2.979-0.463l1.394-0.281l1.101,0.9c0.82,0.671,1.676,1.478,2.326,2.395
		c0.19-0.211,0.379-0.425,0.563-0.641c0.15-0.9,0.245-1.821,0.289-2.336l0.126-1.515l1.298-0.793
		c0.123-0.075,0.242-0.158,0.366-0.235l1.227-0.762l0.589,0.21c6.722-11.381,7.28-25.956,0.2-38.22
		c-6.505-11.268-17.927-17.926-29.989-18.834l-0.161,0.063l-1.193,0.464l-1.161-0.541l-0.193-0.091
		c-1.235-0.003-2.476,0.051-3.713,0.168c0.038,0.505,0.084,0.954,0.122,1.272l0.21,1.735l-1.407,1.038
		c-0.603,0.445-1.186,0.922-1.757,1.408l-0.99,0.84l-1.289-0.147c-1.472-0.167-3.218-0.525-4.604-1.311
		c0.366,1.286,1.151,3.026,1.528,3.786l0.789,1.6l-1.029,1.458c-0.443,0.628-0.865,1.277-1.26,1.936l-0.662,1.104l-1.257,0.281
		c-1.396,0.313-3.087,0.541-4.605,0.292c0.753,1.078,1.985,2.409,2.553,2.986l1.213,1.23l-0.455,1.666
		c-0.214,0.782-0.405,1.571-0.561,2.367l-0.25,1.286l-1.114,0.69c-1.203,0.744-2.698,1.508-4.193,1.774
		c1.036,0.736,2.552,1.534,3.262,1.882l1.554,0.764l0.116,1.728c0.058,0.866,0.141,1.73,0.266,2.588l0.195,1.343l-0.877,1.033
		c-0.873,1.028-1.985,2.138-3.245,2.83c1.207,0.37,2.9,0.65,3.667,0.755l1.69,0.232l0.665,1.571
		c0.137,0.326,0.269,0.655,0.415,0.977l0.49,1.091l-0.397,1.129c-0.457,1.301-1.119,2.775-2.08,3.896
		c1.508-0.192,4.595-1.384,5.949-1.593l1.721-0.267l1.084,1.362c0.582,0.733,1.201,1.439,1.842,2.12l0.937,0.992l-0.132,1.357
		C428.557,72.871,428.298,74.32,427.708,75.546L427.708,75.546z M439.54,53.631c-2.89-5.007-1.175-11.407,3.83-14.298
		c5.005-2.89,11.406-1.175,14.296,3.832c2.89,5.005,1.175,11.406-3.83,14.296C448.831,60.351,442.43,58.636,439.54,53.631z"/>
	<path fill-rule="evenodd" clip-rule="evenodd" fill="#7A7B7E" d="M457.944,78.472l0.954-0.192l0.449,0.366
		c1.263,0.136,2.533,0.21,3.806,0.222l0.025-0.27l0.126-1.515l1.298-0.793c0.123-0.075,0.242-0.158,0.366-0.235l1.227-0.762
		l0.589,0.21c6.722-11.381,7.28-25.956,0.2-38.22c-6.505-11.268-17.927-17.926-29.989-18.834l-0.161,0.063l-1.193,0.464
		l-1.161-0.541l-0.193-0.091c-1.179-0.003-2.365,0.046-3.546,0.153l-0.151,0.236c0.034,0.415,0.073,0.78,0.105,1.051l0.21,1.735
		l-1.407,1.038c-0.58,0.427-1.141,0.886-1.692,1.352c-4.905,11.03-4.645,24.173,1.853,35.427
		C435.892,70.128,446.497,76.823,457.944,78.472L457.944,78.472z M439.54,53.631c-2.89-5.007-1.175-11.407,3.83-14.298
		c5.005-2.89,11.406-1.175,14.296,3.832c2.89,5.005,1.175,11.406-3.83,14.296C448.831,60.351,442.43,58.636,439.54,53.631z"/>
	<path fill-rule="evenodd" clip-rule="evenodd" fill="#424243" d="M433.539,57.095c-4.804-8.32-1.952-18.958,6.367-23.762
		c8.32-4.803,18.957-1.952,23.76,6.368c4.803,8.32,1.953,18.957-6.366,23.76C448.981,68.264,438.342,65.414,433.539,57.095
		L433.539,57.095z M439.54,53.631c2.89,5.005,9.291,6.72,14.296,3.83c5.005-2.89,6.72-9.29,3.83-14.296
		c-2.89-5.007-9.291-6.722-14.296-3.832C438.365,42.224,436.65,48.624,439.54,53.631z"/>
	<circle fill-rule="evenodd" clip-rule="evenodd" fill="#CC2128" cx="428.72" cy="64.136" r="4.343"/>
	<circle fill-rule="evenodd" clip-rule="evenodd" fill="#CC2128" cx="420.538" cy="61.944" r="4.343"/>
	<circle fill-rule="evenodd" clip-rule="evenodd" fill="#CC2128" cx="424.536" cy="59.288" r="4.343"/>
	<circle fill-rule="evenodd" clip-rule="evenodd" fill="#CC2128" cx="413.225" cy="43.938" r="2.264"/>
	<circle fill-rule="evenodd" clip-rule="evenodd" fill="#CC2128" cx="414.367" cy="39.673" r="2.263"/>
	<circle fill-rule="evenodd" clip-rule="evenodd" fill="#CC2128" cx="415.751" cy="41.758" r="2.264"/>
	<circle fill-rule="evenodd" clip-rule="evenodd" fill="#CC2128" cx="440.404" cy="83.129" r="2.263"/>
	<circle fill-rule="evenodd" clip-rule="evenodd" fill="#CC2128" cx="441.547" cy="78.864" r="2.263"/>
	<circle fill-rule="evenodd" clip-rule="evenodd" fill="#CC2128" cx="442.931" cy="80.949" r="2.263"/>
	<circle fill-rule="evenodd" clip-rule="evenodd" fill="#CC2128" cx="440.051" cy="66.479" r="3.931"/>
	<circle fill-rule="evenodd" clip-rule="evenodd" fill="#CC2128" cx="447.546" cy="68.098" r="3.931"/>
	<circle fill-rule="evenodd" clip-rule="evenodd" fill="#CC2128" cx="444.048" cy="70.677" r="3.931"/>
	<circle fill-rule="evenodd" clip-rule="evenodd" fill="#CC2128" cx="425.005" cy="45.521" r="2.264"/>
	<circle fill-rule="evenodd" clip-rule="evenodd" fill="#CC2128" cx="421.736" cy="48.746" r="1.669"/>
	<circle fill-rule="evenodd" clip-rule="evenodd" fill="#CC2128" cx="407.921" cy="24.238" r="2.264"/>
	<circle fill-rule="evenodd" clip-rule="evenodd" fill="#CC2128" cx="421.889" cy="32.549" r="2.263"/>
	<circle fill-rule="evenodd" clip-rule="evenodd" fill="#CC2128" cx="423.273" cy="34.633" r="2.263"/>
	<circle fill-rule="evenodd" clip-rule="evenodd" fill="#CC2128" cx="420.393" cy="20.164" r="3.93"/>
	<circle fill-rule="evenodd" clip-rule="evenodd" fill="#CC2128" cx="427.889" cy="21.783" r="3.93"/>
	<circle fill-rule="evenodd" clip-rule="evenodd" fill="#CC2128" cx="424.39" cy="24.362" r="3.93"/>
	<circle fill-rule="evenodd" clip-rule="evenodd" fill="#CC2128" cx="407.604" cy="35.659" r="1.451"/>
	<circle fill-rule="evenodd" clip-rule="evenodd" fill="#CC2128" cx="408.349" cy="50.837" r="2.264"/>
	<circle fill-rule="evenodd" clip-rule="evenodd" fill="#CC2128" cx="403.504" cy="44.982" r="1.561"/>
	<circle fill-rule="evenodd" clip-rule="evenodd" fill="#CC2128" cx="424.398" cy="84.175" r="2.948"/>
	<circle fill-rule="evenodd" clip-rule="evenodd" fill="#CC2128" cx="420.511" cy="80.087" r="1.423"/>
	<circle fill-rule="evenodd" clip-rule="evenodd" fill="#CC2128" cx="444.402" cy="92.1" r="2.729"/>
	<circle fill-rule="evenodd" clip-rule="evenodd" fill="#CC2128" cx="438.954" cy="91.442" r="1.643"/>
	<circle fill-rule="evenodd" clip-rule="evenodd" fill="#CC2128" cx="438.51" cy="26.453" r="5.016"/>
	<circle fill-rule="evenodd" clip-rule="evenodd" fill="#CC2128" cx="439.831" cy="36.148" r="5.016"/>
	<circle fill-rule="evenodd" clip-rule="evenodd" fill="#CC2128" cx="435.214" cy="33.074" r="5.016"/>
	<circle fill-rule="evenodd" clip-rule="evenodd" fill="#CC2128" cx="476.736" cy="60.636" r="2.263"/>
	<circle fill-rule="evenodd" clip-rule="evenodd" fill="#CC2128" cx="477.879" cy="56.371" r="2.263"/>
	<circle fill-rule="evenodd" clip-rule="evenodd" fill="#CC2128" cx="479.263" cy="58.456" r="2.263"/>
	<circle fill-rule="evenodd" clip-rule="evenodd" fill="#CC2128" cx="460.73" cy="61.682" r="2.949"/>
	<circle fill-rule="evenodd" clip-rule="evenodd" fill="#CC2128" cx="456.843" cy="57.594" r="1.423"/>
	<circle fill-rule="evenodd" clip-rule="evenodd" fill="#CC2128" cx="480.733" cy="69.607" r="2.729"/>
	<circle fill-rule="evenodd" clip-rule="evenodd" fill="#CC2128" cx="475.286" cy="68.949" r="1.643"/>
	<circle fill-rule="evenodd" clip-rule="evenodd" fill="#CC2128" cx="487.563" cy="27.321" r="2.264"/>
	<circle fill-rule="evenodd" clip-rule="evenodd" fill="#CC2128" cx="483.299" cy="26.179" r="2.263"/>
	<circle fill-rule="evenodd" clip-rule="evenodd" fill="#CC2128" cx="484.411" cy="28.42" r="2.264"/>
	<circle fill-rule="evenodd" clip-rule="evenodd" fill="#CC2128" cx="483.043" cy="38.314" r="2.263"/>
	<circle fill-rule="evenodd" clip-rule="evenodd" fill="#CC2128" cx="487.47" cy="37.096" r="1.669"/>
	<circle fill-rule="evenodd" clip-rule="evenodd" fill="#CC2128" cx="473.154" cy="12.878" r="2.263"/>
	<circle fill-rule="evenodd" clip-rule="evenodd" fill="#CC2128" cx="473.368" cy="29.13" r="2.263"/>
	<circle fill-rule="evenodd" clip-rule="evenodd" fill="#CC2128" cx="474.481" cy="31.371" r="2.263"/>
	<circle fill-rule="evenodd" clip-rule="evenodd" fill="#CC2128" cx="463.39" cy="21.643" r="3.931"/>
	<circle fill-rule="evenodd" clip-rule="evenodd" fill="#CC2128" cx="461.044" cy="28.943" r="3.931"/>
	<circle fill-rule="evenodd" clip-rule="evenodd" fill="#CC2128" cx="465.027" cy="27.203" r="3.93"/>
	<circle fill-rule="evenodd" clip-rule="evenodd" fill="#CC2128" cx="483.203" cy="18.315" r="1.45"/>
	<circle fill-rule="evenodd" clip-rule="evenodd" fill="#CC2128" cx="459.777" cy="40.477" r="5.016"/>
	<circle fill-rule="evenodd" clip-rule="evenodd" fill="#CC2128" cx="467.514" cy="46.468" r="5.017"/>
	<circle fill-rule="evenodd" clip-rule="evenodd" fill="#CC2128" cx="467.16" cy="40.933" r="5.016"/>
</g>
<g>
	<path fill-rule="evenodd" clip-rule="evenodd" fill="#A6A8AA" d="M517.746,40.178c-0.373,0.95-0.704,1.918-0.996,2.894
		c-0.966,0.439-2.712,1.114-3.754,0.81c-1.495-0.435-3.012-4.09-3.012-4.09s-0.438,5.927,0.722,7.831
		c0.876,1.438,3.429,3.18,4.625,3.946c-0.042,1.068-0.031,2.15,0.023,3.212c-0.784,0.743-2.15,1.88-3.194,1.942
		c-1.554,0.09-4.19-2.826-4.19-2.826s1.528,5.692,3.255,7.103c1.282,1.049,4.177,1.839,5.583,2.176
		c0.321,1.055,0.686,2.103,1.101,3.119c-0.508,0.963-1.403,2.419-2.345,2.809c-1.439,0.595-4.945-1.479-4.945-1.479
		s3.366,5.068,5.46,5.833c1.554,0.568,4.541,0.365,5.98,0.222c0.647,0.88,1.335,1.738,2.057,2.556
		c-0.174,1.064-0.559,2.732-1.338,3.4c-1.181,1.015-5.083,0.303-5.083,0.303s4.869,3.723,7.099,3.732
		c1.642,0.01,4.34-1.16,5.652-1.777c0.125,0.068,0.277,0.14,0.406,0.21c0.198,1.07,0.397,2.769-0.099,3.658
		c-0.759,1.36-4.653,1.987-4.653,1.987s5.665,1.839,7.779,1.129c1.585-0.532,3.822-2.582,4.839-3.572
		c1.022,0.282,2.074,0.519,3.12,0.707c0.533,0.934,1.321,2.54,1.128,3.573c-0.286,1.532-3.765,3.395-3.765,3.395
		s5.923-0.134,7.705-1.474c1.355-1.018,2.845-3.742,3.484-4.996c1.045-0.071,2.094-0.198,3.124-0.367
		c0.81,0.702,2.133,1.989,2.296,3.047c0.239,1.54-2.41,4.439-2.41,4.439s5.517-2.059,6.758-3.912
		c0.975-1.458,1.487-4.663,1.662-5.975c0.92-0.388,1.833-0.818,2.717-1.283c0.978,0.381,2.759,1.187,3.282,2.17
		c0.731,1.374-1.002,5.062-1.002,5.062s4.736-3.835,5.294-5.994c0.455-1.76-0.177-5.114-0.429-6.306
		c0.685-0.631,1.36-1.291,1.996-1.975c0.987,0.035,3.095,0.207,3.945,1.017c1.129,1.075,0.797,5.026,0.797,5.026
		s3.112-5.085,2.954-7.309c-0.131-1.863-1.908-4.973-2.488-5.946c0.437-0.783,0.847-1.597,1.225-2.414
		c0.903-0.279,3.03-0.841,4.127-0.333c1.415,0.654,2.379,4.508,2.379,4.508s1.382-5.984,0.465-8.016
		c-0.791-1.755-3.65-4.155-4.418-4.781c0.138-0.825,0.242-1.667,0.324-2.502c0.648-0.498,2.634-1.927,3.92-1.815
		c1.552,0.135,3.742,3.41,3.742,3.41s-0.7-5.87-2.206-7.513c-1.313-1.434-4.884-2.835-5.778-3.17
		c-0.143-0.797-0.323-1.61-0.521-2.399c0.405-0.622,1.866-2.742,3.152-3.07c1.51-0.385,4.647,1.976,4.647,1.976
		s-2.573-5.297-4.534-6.355c-1.781-0.962-5.822-1.085-6.557-1.101c-0.376-0.7-0.782-1.405-1.208-2.083
		c0.175-0.707,0.86-3.223,1.972-3.961c1.297-0.862,5.135,0.515,5.135,0.515s-4.277-4.362-6.478-4.705
		c-2.032-0.315-5.952,0.944-6.56,1.145c-0.58-0.528-1.188-1.063-1.801-1.555c-0.061-0.697-0.232-3.32,0.593-4.384
		c0.957-1.228,4.916-1.282,4.916-1.282s-5.358-2.62-7.554-2.238c-1.938,0.338-5.09,2.631-5.802,3.167
		c-0.744-0.325-1.525-0.621-2.288-0.894c-0.303-0.698-1.247-3.033-0.809-4.275c0.516-1.472,4.246-2.806,4.246-2.806
		s-6.053-0.783-7.992,0.315c-1.685,0.957-3.836,4.073-4.37,4.872c-0.83-0.076-1.691-0.122-2.531-0.136
		c-0.572-0.622-2.133-2.433-2.137-3.707c-0.007-1.559,3.059-4.045,3.059-4.045s-5.795,1.251-7.293,2.902
		c-1.27,1.398-2.304,4.903-2.591,5.947c-0.849,0.223-1.709,0.476-2.543,0.763c-0.814-0.438-2.779-1.592-3.2-2.749
		c-0.534-1.465,1.716-4.873,1.716-4.873s-5.252,3.132-6.104,5.192c-0.695,1.68-0.539,5.08-0.457,6.295
		c-0.782,0.525-1.558,1.077-2.297,1.662c-0.989-0.182-3.005-0.651-3.72-1.562c-0.964-1.222-0.085-5.075-0.085-5.075
		s-3.778,4.563-3.946,6.787c-0.132,1.778,1.056,4.895,1.543,6.091c-0.226,0.298-0.46,0.599-0.677,0.9
		c-0.866,0.163-3.113,0.503-4.17-0.158c-1.32-0.827-2.181-4.29-2.181-4.29c-0.587,2.799-1.569,5.792-0.563,8.228
		C513.532,36.708,516.21,38.268,517.746,40.178L517.746,40.178z M538.974,46.226c2.89-5.007,9.29-6.722,14.296-3.831
		c5.005,2.89,6.72,9.29,3.83,14.297c-2.89,5.005-9.29,6.72-14.296,3.83C537.798,57.632,536.083,51.232,538.974,46.226z"/>
	<path fill-rule="evenodd" clip-rule="evenodd" fill="#6D6E70" d="M514.078,46.937c0.908,0.801,2.247,1.707,2.87,2.105l1.447,0.926
		l-0.068,1.716c-0.037,0.979-0.028,1.961,0.022,2.94l0.072,1.383l-1.005,0.951c-0.91,0.86-2.014,1.752-3.222,2.284
		c1.1,0.445,2.609,0.848,3.312,1.016l1.669,0.4l0.501,1.64c0.295,0.968,0.628,1.926,1.01,2.863l0.528,1.296l-0.653,1.237
		c-0.57,1.083-1.31,2.252-2.256,3.127c1.184,0.06,2.737-0.055,3.457-0.126l1.7-0.17l1.013,1.376c0.595,0.81,1.225,1.594,1.89,2.348
		l0.941,1.067l-0.229,1.403c-0.203,1.235-0.542,2.61-1.19,3.756c1.138-0.328,2.608-0.977,3.283-1.294l1.376-0.649l1.336,0.728
		c0.127,0.07,0.259,0.131,0.388,0.2l1.273,0.681l0.261,1.421c0.222,1.211,0.369,2.596,0.163,3.877
		c0.974-0.695,2.134-1.77,2.662-2.282l1.233-1.2l1.658,0.458c0.938,0.26,1.892,0.475,2.851,0.647l1.38,0.248l0.693,1.217
		c0.622,1.09,1.23,2.381,1.458,3.688c0.71-0.984,1.482-2.406,1.819-3.068l0.774-1.514l1.696-0.115c0.951-0.065,1.9-0.18,2.842-0.335
		l1.388-0.228l1.061,0.921c0.965,0.836,1.991,1.873,2.649,3.052c0.354-1.187,0.619-2.826,0.719-3.583l0.227-1.702l1.583-0.666
		c0.843-0.354,1.672-0.745,2.481-1.172l1.213-0.64l1.275,0.498c1.23,0.481,2.602,1.145,3.647,2.079
		c-0.057-1.271-0.362-2.963-0.527-3.735l-0.351-1.669l1.255-1.154c0.633-0.583,1.248-1.187,1.834-1.815l0.934-1l1.367,0.048
		c1.363,0.05,2.947,0.235,4.285,0.808c-0.471-1.217-1.348-2.793-1.761-3.487l-0.886-1.487l0.843-1.51
		c0.403-0.723,0.775-1.462,1.121-2.212l0.563-1.213l1.277-0.393c1.355-0.418,2.988-0.776,4.495-0.64
		c-0.864-1.011-2.294-2.255-2.952-2.79l-1.351-1.1l0.286-1.719c0.128-0.763,0.22-1.532,0.295-2.303l0.128-1.295l1.031-0.792
		c1.145-0.879,2.602-1.811,4.102-2.223c-1.157-0.677-2.878-1.389-3.653-1.681l-1.596-0.599l-0.301-1.68
		c-0.131-0.736-0.294-1.469-0.476-2.195l-0.32-1.27l0.715-1.098c0.801-1.227,1.893-2.625,3.201-3.525
		c-1.326-0.263-3.205-0.372-4.044-0.39l-1.75-0.037l-0.828-1.542c-0.347-0.646-0.713-1.283-1.105-1.903l-0.678-1.077l0.305-1.237
		c0.352-1.434,0.932-3.135,1.88-4.425c-1.343,0.191-3.155,0.716-3.958,0.98l-1.665,0.552l-1.295-1.182
		c-0.539-0.491-1.088-0.977-1.658-1.433l-0.998-0.801l-0.112-1.276c-0.13-1.47-0.13-3.263,0.352-4.788
		c-1.188,0.6-2.71,1.659-3.412,2.185l-1.398,1.05l-1.602-0.699c-0.688-0.3-1.391-0.566-2.097-0.819l-1.223-0.437l-0.518-1.19
		c-0.592-1.357-1.155-3.05-1.167-4.643c-0.93,0.96-2.044,2.511-2.515,3.217l-0.991,1.482l-1.776-0.162
		c-0.765-0.07-1.538-0.11-2.307-0.124l-1.288-0.02l-0.872-0.947c-0.968-1.053-2.013-2.404-2.555-3.843
		c-0.558,1.191-1.094,2.923-1.31,3.704l-0.458,1.665l-1.67,0.439c-0.784,0.205-1.563,0.435-2.33,0.698l-1.239,0.426l-1.154-0.62
		c-1.246-0.67-2.655-1.583-3.633-2.744c-0.119,1.264-0.053,2.976,0,3.765l0.116,1.729l-1.439,0.964
		c-0.72,0.483-1.428,0.986-2.108,1.523l-1.065,0.841l-1.333-0.245c-1.326-0.242-2.844-0.65-4.074-1.395
		c0.284,1.231,0.887,2.836,1.18,3.554l0.644,1.58l-1.028,1.361c-0.214,0.282-0.432,0.561-0.639,0.848l-0.7,0.97l-1.176,0.221
		c-1.356,0.255-2.962,0.42-4.414,0.148c0.921,1.209,3.496,3.286,4.355,4.355l1.092,1.357l-0.638,1.619
		c-0.344,0.872-0.645,1.76-0.914,2.656l-0.391,1.308l-1.242,0.564C516.82,46.335,515.435,46.836,514.078,46.937L514.078,46.937z
		 M538.974,46.226c2.89-5.007,9.29-6.722,14.296-3.831c5.005,2.89,6.72,9.29,3.83,14.297c-2.89,5.005-9.29,6.72-14.296,3.83
		C537.798,57.632,536.083,51.232,538.974,46.226z"/>
	<path fill-rule="evenodd" clip-rule="evenodd" fill="#858689" d="M514.078,46.937c0.908,0.801,2.247,1.707,2.87,2.105l1.447,0.926
		l-0.068,1.716c-0.037,0.979-0.028,1.961,0.022,2.94l0.072,1.383l-1.005,0.951c-0.91,0.86-2.014,1.752-3.222,2.284
		c1.1,0.445,2.609,0.848,3.312,1.016l1.669,0.4l0.501,1.64c0.295,0.968,0.628,1.926,1.01,2.863l0.528,1.296l-0.653,1.237
		c-0.57,1.083-1.31,2.252-2.256,3.127c1.184,0.06,2.737-0.055,3.457-0.126l1.7-0.17l1.013,1.376c0.595,0.81,1.225,1.594,1.89,2.348
		l0.941,1.067l-0.229,1.403c-0.171,1.045-0.442,2.191-0.912,3.212c0.278,0.059,0.557,0.115,0.836,0.167
		c0.855-0.32,1.701-0.698,2.168-0.917l1.376-0.649l1.336,0.728c0.127,0.07,0.259,0.131,0.388,0.2l1.273,0.681l0.112,0.617
		c13.217,0.13,26.119-6.673,33.2-18.938c6.506-11.267,6.561-24.488,1.316-35.389l-0.135-0.108l-0.998-0.801l-0.112-1.276
		l-0.018-0.213c-0.614-1.071-1.282-2.119-2.002-3.132c-0.418,0.286-0.784,0.55-1.04,0.742l-1.398,1.05l-1.602-0.699
		c-0.688-0.3-1.391-0.566-2.097-0.819l-1.223-0.437l-0.518-1.19c-0.592-1.357-1.155-3.05-1.167-4.643
		c-0.93,0.96-2.044,2.511-2.515,3.217l-0.991,1.482l-1.776-0.162c-0.765-0.07-1.538-0.11-2.307-0.124l-1.288-0.02l-0.872-0.947
		c-0.968-1.053-2.013-2.404-2.555-3.843c-0.558,1.191-1.094,2.923-1.31,3.704l-0.458,1.665l-1.67,0.439
		c-0.784,0.205-1.563,0.435-2.33,0.698l-1.239,0.426l-1.154-0.62c-1.246-0.67-2.655-1.583-3.633-2.744
		c-0.119,1.264-0.053,2.976,0,3.765l0.116,1.729l-1.439,0.964c-0.72,0.483-1.428,0.986-2.108,1.523l-1.065,0.841l-1.333-0.245
		c-1.326-0.242-2.844-0.65-4.074-1.395c0.284,1.231,0.887,2.836,1.18,3.554l0.644,1.58l-1.028,1.361
		c-0.214,0.282-0.432,0.561-0.639,0.848l-0.7,0.97l-1.176,0.221c-1.356,0.255-2.962,0.42-4.414,0.148
		c0.921,1.209,3.496,3.286,4.355,4.355l1.092,1.357l-0.638,1.619c-0.344,0.872-0.645,1.76-0.914,2.656l-0.391,1.308l-1.242,0.564
		C516.82,46.335,515.435,46.836,514.078,46.937L514.078,46.937z M538.974,46.226c2.89-5.007,9.29-6.722,14.296-3.831
		c5.005,2.89,6.72,9.29,3.83,14.297c-2.89,5.005-9.29,6.72-14.296,3.83C537.798,57.632,536.083,51.232,538.974,46.226z"/>
	<path fill-rule="evenodd" clip-rule="evenodd" fill="#7A7B7E" d="M526.662,74.586l0.645,0.73l-0.093,0.572
		c0.514,1.161,1.084,2.298,1.71,3.406l0.247-0.113l1.376-0.649l1.336,0.728c0.127,0.07,0.259,0.131,0.388,0.2l1.273,0.681
		l0.112,0.617c13.217,0.13,26.119-6.673,33.2-18.938c6.506-11.267,6.561-24.488,1.316-35.389l-0.135-0.108l-0.998-0.801
		l-0.112-1.276l-0.018-0.213c-0.586-1.023-1.222-2.024-1.905-2.994l-0.28-0.013c-0.341,0.237-0.639,0.454-0.857,0.617l-1.398,1.05
		l-1.602-0.699c-0.66-0.29-1.337-0.546-2.018-0.79c-12.005,1.267-23.256,8.064-29.754,19.318
		C522.861,51.316,522.366,63.847,526.662,74.586L526.662,74.586z M538.974,46.226c2.89-5.007,9.29-6.722,14.296-3.831
		c5.005,2.89,6.72,9.29,3.83,14.297c-2.89,5.005-9.29,6.72-14.296,3.83C537.798,57.632,536.083,51.232,538.974,46.226z"/>
	<path fill-rule="evenodd" clip-rule="evenodd" fill="#424243" d="M532.972,42.762c4.803-8.32,15.442-11.171,23.761-6.367
		c8.32,4.803,11.17,15.442,6.366,23.761c-4.804,8.32-15.44,11.17-23.76,6.366C531.02,61.719,528.169,51.082,532.972,42.762
		L532.972,42.762z M538.974,46.226c-2.89,5.005-1.175,11.406,3.83,14.296c5.006,2.89,11.406,1.175,14.296-3.83
		c2.89-5.007,1.175-11.407-3.83-14.297C548.264,39.504,541.864,41.219,538.974,46.226z"/>
	<circle fill-rule="evenodd" clip-rule="evenodd" fill="#CC2128" cx="524.464" cy="42.108" r="4.343"/>
	<circle fill-rule="evenodd" clip-rule="evenodd" fill="#CC2128" cx="522.272" cy="33.927" r="4.343"/>
	<circle fill-rule="evenodd" clip-rule="evenodd" fill="#CC2128" cx="526.572" cy="36.062" r="4.342"/>
	<circle fill-rule="evenodd" clip-rule="evenodd" fill="#CC2128" cx="534.209" cy="18.591" r="2.264"/>
	<circle fill-rule="evenodd" clip-rule="evenodd" fill="#CC2128" cx="538.474" cy="17.448" r="2.263"/>
	<circle fill-rule="evenodd" clip-rule="evenodd" fill="#CC2128" cx="537.361" cy="19.689" r="2.264"/>
	<circle fill-rule="evenodd" clip-rule="evenodd" fill="#CC2128" cx="513.859" cy="61.724" r="2.263"/>
	<circle fill-rule="evenodd" clip-rule="evenodd" fill="#CC2128" cx="518.124" cy="60.581" r="2.263"/>
	<circle fill-rule="evenodd" clip-rule="evenodd" fill="#CC2128" cx="517.01" cy="62.822" r="2.263"/>
	<circle fill-rule="evenodd" clip-rule="evenodd" fill="#CC2128" cx="528.101" cy="53.094" r="3.93"/>
	<circle fill-rule="evenodd" clip-rule="evenodd" fill="#CC2128" cx="530.447" cy="60.394" r="3.931"/>
	<circle fill-rule="evenodd" clip-rule="evenodd" fill="#CC2128" cx="526.464" cy="58.654" r="3.931"/>
	<circle fill-rule="evenodd" clip-rule="evenodd" fill="#CC2128" cx="538.729" cy="29.584" r="2.263"/>
	<circle fill-rule="evenodd" clip-rule="evenodd" fill="#CC2128" cx="534.302" cy="28.366" r="1.669"/>
	<circle fill-rule="evenodd" clip-rule="evenodd" fill="#CC2128" cx="548.619" cy="4.148" r="2.263"/>
	<circle fill-rule="evenodd" clip-rule="evenodd" fill="#CC2128" cx="548.405" cy="20.399" r="2.263"/>
	<circle fill-rule="evenodd" clip-rule="evenodd" fill="#CC2128" cx="547.292" cy="22.64" r="2.263"/>
	<circle fill-rule="evenodd" clip-rule="evenodd" fill="#CC2128" cx="558.383" cy="12.912" r="3.931"/>
	<circle fill-rule="evenodd" clip-rule="evenodd" fill="#CC2128" cx="560.728" cy="20.213" r="3.931"/>
	<circle fill-rule="evenodd" clip-rule="evenodd" fill="#CC2128" cx="556.746" cy="18.471" r="3.931"/>
	<circle fill-rule="evenodd" clip-rule="evenodd" fill="#CC2128" cx="538.569" cy="9.584" r="1.45"/>
	<circle fill-rule="evenodd" clip-rule="evenodd" fill="#CC2128" cx="525.797" cy="17.817" r="2.264"/>
	<circle fill-rule="evenodd" clip-rule="evenodd" fill="#CC2128" cx="528.445" cy="10.693" r="1.561"/>
	<circle fill-rule="evenodd" clip-rule="evenodd" fill="#CC2128" cx="504.95" cy="48.385" r="2.948"/>
	<circle fill-rule="evenodd" clip-rule="evenodd" fill="#CC2128" cx="506.547" cy="42.975" r="1.423"/>
	<circle fill-rule="evenodd" clip-rule="evenodd" fill="#CC2128" cx="508.089" cy="69.671" r="2.729"/>
	<circle fill-rule="evenodd" clip-rule="evenodd" fill="#CC2128" cx="505.935" cy="64.625" r="1.643"/>
	<circle fill-rule="evenodd" clip-rule="evenodd" fill="#CC2128" cx="561.995" cy="31.746" r="5.016"/>
	<circle fill-rule="evenodd" clip-rule="evenodd" fill="#CC2128" cx="554.259" cy="37.736" r="5.016"/>
	<circle fill-rule="evenodd" clip-rule="evenodd" fill="#CC2128" cx="554.613" cy="32.202" r="5.016"/>
	<circle fill-rule="evenodd" clip-rule="evenodd" fill="#CC2128" cx="551.504" cy="81.942" r="2.263"/>
	<circle fill-rule="evenodd" clip-rule="evenodd" fill="#CC2128" cx="555.769" cy="80.799" r="2.263"/>
	<circle fill-rule="evenodd" clip-rule="evenodd" fill="#CC2128" cx="554.656" cy="83.041" r="2.263"/>
	<circle fill-rule="evenodd" clip-rule="evenodd" fill="#CC2128" cx="542.595" cy="68.603" r="2.948"/>
	<circle fill-rule="evenodd" clip-rule="evenodd" fill="#CC2128" cx="544.192" cy="63.193" r="1.423"/>
	<circle fill-rule="evenodd" clip-rule="evenodd" fill="#CC2128" cx="545.734" cy="89.889" r="2.729"/>
	<circle fill-rule="evenodd" clip-rule="evenodd" fill="#CC2128" cx="543.58" cy="84.843" r="1.643"/>
	<circle fill-rule="evenodd" clip-rule="evenodd" fill="#CC2128" cx="585.769" cy="74.661" r="2.264"/>
	<circle fill-rule="evenodd" clip-rule="evenodd" fill="#CC2128" cx="584.627" cy="70.397" r="2.263"/>
	<circle fill-rule="evenodd" clip-rule="evenodd" fill="#CC2128" cx="583.242" cy="72.481" r="2.264"/>
	<circle fill-rule="evenodd" clip-rule="evenodd" fill="#CC2128" cx="573.989" cy="76.243" r="2.263"/>
	<circle fill-rule="evenodd" clip-rule="evenodd" fill="#CC2128" cx="577.257" cy="79.468" r="1.669"/>
	<circle fill-rule="evenodd" clip-rule="evenodd" fill="#CC2128" cx="591.073" cy="54.961" r="2.263"/>
	<circle fill-rule="evenodd" clip-rule="evenodd" fill="#CC2128" cx="577.106" cy="63.272" r="2.263"/>
	<circle fill-rule="evenodd" clip-rule="evenodd" fill="#CC2128" cx="575.721" cy="65.356" r="2.264"/>
	<circle fill-rule="evenodd" clip-rule="evenodd" fill="#CC2128" cx="578.6" cy="50.887" r="3.931"/>
	<circle fill-rule="evenodd" clip-rule="evenodd" fill="#CC2128" cx="571.106" cy="52.506" r="3.93"/>
	<circle fill-rule="evenodd" clip-rule="evenodd" fill="#CC2128" cx="574.604" cy="55.085" r="3.931"/>
	<circle fill-rule="evenodd" clip-rule="evenodd" fill="#CC2128" cx="591.389" cy="66.382" r="1.45"/>
	<circle fill-rule="evenodd" clip-rule="evenodd" fill="#CC2128" cx="560.483" cy="57.176" r="5.016"/>
	<circle fill-rule="evenodd" clip-rule="evenodd" fill="#CC2128" cx="559.163" cy="66.871" r="5.016"/>
	<circle fill-rule="evenodd" clip-rule="evenodd" fill="#CC2128" cx="563.78" cy="63.797" r="5.016"/>
</g>
</svg>
