<?xml version="1.0" encoding="utf-8"?>
<!-- Generator: Adobe Illustrator 17.0.0, SVG Export Plug-In . SVG Version: 6.00 Build 0)  -->
<!DOCTYPE svg PUBLIC "-//W3C//DTD SVG 1.1//EN" "http://www.w3.org/Graphics/SVG/1.1/DTD/svg11.dtd">
<svg version="1.1" id="Capa_1" xmlns="http://www.w3.org/2000/svg" xmlns:xlink="http://www.w3.org/1999/xlink" x="0px" y="0px"
	 width="600px" height="100px" viewBox="0 0 600 100" enable-background="new 0 0 600 100" xml:space="preserve">
<g>
	<path fill-rule="evenodd" clip-rule="evenodd" fill="#F5EE73" d="M51.497,34.569c4.521,0,8.188,3.666,8.188,8.189
		c0,0.469-0.04,0.93-0.116,1.377c0.827-0.281,1.713-0.433,2.635-0.433c4.521,0,8.188,3.666,8.188,8.188
		c0,3.56-2.272,6.588-5.446,7.716c-1.195,3.041-4.157,5.195-7.623,5.195c-4.267,0-7.772-3.265-8.153-7.433
		c-0.548,1.188-1.373,2.222-2.392,3.019c-1.233,2.962-4.154,5.045-7.563,5.045c-4.522,0-8.188-3.666-8.188-8.189
		c0-1.768,0.561-3.405,1.514-4.744c-1.793-1.501-2.931-3.756-2.931-6.278c0-4.521,3.666-8.188,8.187-8.188
		c2.285,0,4.349,0.935,5.834,2.443C44.62,37.064,47.766,34.569,51.497,34.569L51.497,34.569z M49.888,53.181
		c0.384-0.83,0.902-1.585,1.528-2.237c-0.761-0.007-1.495-0.12-2.192-0.32C49.575,51.418,49.805,52.279,49.888,53.181z"/>
	<path fill-rule="evenodd" clip-rule="evenodd" fill="#CAB43C" d="M70.103,54.048c-0.705,2.589-2.65,4.668-5.158,5.558
		c-1.195,3.041-4.157,5.195-7.623,5.195c-4.267,0-7.772-3.265-8.153-7.433c-0.548,1.188-1.373,2.222-2.392,3.019
		c-1.233,2.962-4.154,5.045-7.563,5.045c-4.522,0-8.188-3.666-8.188-8.189c0-1.768,0.561-3.405,1.514-4.744
		c-1.725-1.445-2.846-3.59-2.927-5.999c1.967-1.465,4.404-2.332,7.045-2.332c1.573,0,3.11,0.312,4.529,0.901
		c2.193-2.698,5.53-4.365,9.169-4.365c5.609,0,10.306,3.914,11.509,9.16C65.168,50.084,68.099,51.665,70.103,54.048L70.103,54.048z
		 M49.888,53.181c0.384-0.83,0.902-1.585,1.528-2.237c-0.761-0.007-1.495-0.12-2.192-0.32
		C49.575,51.418,49.805,52.279,49.888,53.181z"/>
	<path fill-rule="evenodd" clip-rule="evenodd" fill="#F6DF31" d="M55.072,64.488c-3.194-0.912-5.591-3.713-5.903-7.12
		c-0.548,1.188-1.373,2.222-2.392,3.019c-0.482,1.156-1.22,2.178-2.144,2.994c-0.91-0.58-1.737-1.28-2.457-2.081
		c-1.351,1.735-3.16,3.057-5.213,3.818c-3.427-0.978-5.936-4.133-5.936-7.875c0-1.768,0.561-3.405,1.514-4.744
		c-1.725-1.445-2.846-3.59-2.927-5.999c1.967-1.465,4.404-2.332,7.045-2.332c1.573,0,3.11,0.312,4.529,0.901
		c2.193-2.698,5.53-4.365,9.169-4.365c5.609,0,10.306,3.914,11.509,9.16c1.98,0.132,3.828,0.755,5.421,1.746
		c-0.828,3.247-3.009,6.019-6.017,7.573C59.891,61.651,57.679,63.521,55.072,64.488L55.072,64.488z M49.888,53.181
		c0.384-0.83,0.902-1.585,1.528-2.237c-0.761-0.007-1.495-0.12-2.192-0.32C49.575,51.418,49.805,52.279,49.888,53.181z"/>
</g>
<g>
	<path fill-rule="evenodd" clip-rule="evenodd" fill="#F5EE73" d="M137.289,21.822c4.005,0,7.344,2.85,8.101,6.633
		c1.355-1.473,3.299-2.396,5.458-2.396c3.601,0,6.601,2.566,7.275,5.969c0.62-1.053,1.592-1.732,2.685-1.732
		c0.71,0,1.37,0.287,1.915,0.778c1.49-2.735,4.391-4.591,7.725-4.591c4.856,0,8.792,3.937,8.792,8.792
		c0,3.602-2.166,6.697-5.265,8.056c2.413,2.502,3.994,6.691,3.994,11.437c0,5.703-2.284,10.603-5.551,12.737
		c-2.535,3.64-6.696,6.014-11.399,6.014c-1.604,0-3.144-0.278-4.579-0.787c-2.014,3.241-5.992,5.448-10.57,5.448
		c-5.871,0-10.754-3.627-11.774-8.413c-1.186,0.504-2.509,0.787-3.905,0.787c-5.09,0-9.216-3.748-9.216-8.37
		c0-2.61,1.315-4.939,3.375-6.475c-2.175-1.6-3.587-4.178-3.587-7.085c0-4.194,2.938-7.703,6.867-8.581
		c-0.192-0.423-0.3-0.888-0.3-1.377c0-1.849,1.524-3.364,3.452-3.488c-1.1-1.403-1.756-3.171-1.756-5.093
		C129.026,25.521,132.725,21.822,137.289,21.822L137.289,21.822z M134.578,39.705c0.399-0.514,0.835-1.006,1.302-1.478
		c-0.418-0.071-0.826-0.175-1.219-0.307c0.056,0.241,0.085,0.489,0.085,0.745C134.746,39.027,134.687,39.376,134.578,39.705z"/>
	<path fill-rule="evenodd" clip-rule="evenodd" fill="#CAB43C" d="M179.209,36.011c-0.272,3.283-2.348,6.054-5.235,7.32
		c2.413,2.502,3.994,6.691,3.994,11.437c0,5.703-2.284,10.603-5.551,12.737c-2.535,3.64-6.696,6.014-11.399,6.014
		c-1.604,0-3.144-0.278-4.579-0.787c-2.014,3.241-5.992,5.448-10.57,5.448c-5.871,0-10.754-3.627-11.774-8.413
		c-1.186,0.504-2.509,0.787-3.905,0.787c-1.98,0-3.815-0.568-5.317-1.533c0.068-0.109,0.138-0.217,0.21-0.324
		c-1.414-2.062-2.198-4.527-2.198-7.1c0-4.729,2.643-8.954,6.658-11.094c0.252-1.563,1.012-2.949,2.105-4.006
		c-0.33-1.107-0.5-2.264-0.5-3.438c0-6.646,5.391-12.037,12.037-12.037c3.934,0,7.497,1.909,9.709,4.919
		c1.22-0.446,2.521-0.681,3.852-0.681c3.553,0,6.78,1.673,8.845,4.333c0.362-0.064,0.732-0.097,1.113-0.097
		c0.2,0,0.399,0.009,0.596,0.028c2.334-2.419,5.578-3.842,9.044-3.842C177.33,35.681,178.289,35.796,179.209,36.011L179.209,36.011z
		 M134.578,39.705c0.399-0.514,0.835-1.006,1.302-1.478c-0.418-0.071-0.826-0.175-1.219-0.307c0.056,0.241,0.085,0.489,0.085,0.745
		C134.746,39.027,134.687,39.376,134.578,39.705z"/>
	<path fill-rule="evenodd" clip-rule="evenodd" fill="#F6DF31" d="M179.209,36.011c-0.272,3.283-2.348,6.054-5.235,7.32
		c2.29,2.376,3.833,6.272,3.982,10.722c-0.977,1.639-2.216,3.093-3.74,4.226c-3.337,4.416-8.504,7.06-14.08,7.06
		c-1.056,0-2.107-0.096-3.142-0.284C153.928,68.282,149.462,70,144.988,70c-5.672,0-11.343-2.833-14.08-7.72
		c-0.53,0.061-1.064,0.092-1.599,0.092c-2.273,0-4.473-0.568-6.397-1.585c0.282-4.399,2.848-8.269,6.632-10.286
		c0.252-1.563,1.012-2.949,2.105-4.006c-0.33-1.107-0.5-2.264-0.5-3.438c0-6.646,5.391-12.037,12.037-12.037
		c3.934,0,7.497,1.909,9.709,4.919c1.22-0.446,2.521-0.681,3.852-0.681c3.553,0,6.78,1.673,8.845,4.333
		c0.362-0.064,0.732-0.097,1.113-0.097c0.2,0,0.399,0.009,0.596,0.028c2.334-2.419,5.578-3.842,9.044-3.842
		C177.33,35.681,178.289,35.796,179.209,36.011L179.209,36.011z M134.578,39.705c0.399-0.514,0.835-1.006,1.302-1.478
		c-0.418-0.071-0.826-0.175-1.219-0.307c0.056,0.241,0.085,0.489,0.085,0.745C134.746,39.027,134.687,39.376,134.578,39.705z"/>
</g>
<g>
	<path fill-rule="evenodd" clip-rule="evenodd" fill="#F5EE73" d="M233.674,13.482c4.297,0,8.11,2.068,10.5,5.263
		c1.584-2.15,4.134-3.545,7.007-3.545c4.805,0,8.7,3.896,8.7,8.7c0,0.443-0.035,0.878-0.097,1.302
		c2.072-4.508,6.626-7.637,11.912-7.637c7.237,0,13.104,5.867,13.104,13.103c0,5.618-3.536,10.409-8.504,12.273
		c6.55,0.432,11.726,5.879,11.726,12.537c0,6.941-5.627,12.567-12.566,12.567c-0.984,0-1.94-0.114-2.857-0.327
		c0.111,0.557,0.17,1.134,0.17,1.723c0,4.805-3.894,8.7-8.699,8.7c-2.388,0-4.552-0.963-6.123-2.52v0.049
		c0,5.991-4.857,10.848-10.847,10.848c-5.383,0-9.849-3.921-10.702-9.063c-2.318,2.158-5.428,3.478-8.846,3.478
		c-7.177,0-12.996-5.819-12.996-12.997c0-6.725,5.108-12.258,11.656-12.928c-0.1-0.188-0.197-0.379-0.287-0.574
		c-1.266,0.599-2.681,0.934-4.174,0.934c-5.398,0-9.774-4.376-9.774-9.774c0-5.399,4.376-9.773,9.774-9.773
		c1.118,0,2.192,0.188,3.194,0.533c-2.685-2.399-4.375-5.887-4.375-9.77C220.571,19.35,226.438,13.482,233.674,13.482
		L233.674,13.482z M240.494,52.863c2.751,1.439,4.755,4.107,5.284,7.273c2.073-2.476,5.739-4.121,9.914-4.121
		c0.696,0,1.375,0.046,2.036,0.133c-1.348-1.845-2.143-4.118-2.143-6.577c0-0.717,0.068-1.418,0.197-2.097
		c-4.251-0.759-7.608-4.097-8.398-8.337c-1.167,2.703-3.716,4.67-6.757,5.01c0.365,1.282,0.565,2.677,0.565,4.134
		C241.193,49.912,240.944,51.461,240.494,52.863L240.494,52.863z M248.506,32.181c-0.59-0.192-1.154-0.444-1.682-0.749
		c0.436,0.705,0.769,1.481,0.981,2.305C247.996,33.197,248.232,32.676,248.506,32.181z"/>
	<path fill-rule="evenodd" clip-rule="evenodd" fill="#CAB43C" d="M259.723,22.243c0.104,0.536,0.158,1.091,0.158,1.657
		c0,0.443-0.035,0.878-0.097,1.302c0.392-0.854,0.874-1.658,1.433-2.401c2.913,1.407,4.92,4.388,4.92,7.839
		c0,0.442-0.032,0.877-0.097,1.3c2.072-4.507,6.626-7.638,11.913-7.638c2.108,0,4.1,0.5,5.865,1.385
		c0.632,1.534,0.982,3.216,0.982,4.98c0,5.618-3.536,10.409-8.504,12.273c3.816,0.252,7.166,2.206,9.298,5.111
		c-0.931,0.67-1.951,1.219-3.041,1.626c1.641,0.11,3.195,0.532,4.603,1.21c0.559,1.422,0.866,2.972,0.866,4.591
		c0,6.941-5.627,12.567-12.566,12.567c-0.984,0-1.94-0.114-2.857-0.327c0.111,0.557,0.17,1.134,0.17,1.723
		c0,4.805-3.894,8.7-8.699,8.7c-2.388,0-4.552-0.963-6.123-2.52v0.049c0,5.991-4.857,10.848-10.847,10.848
		c-1.44,0-2.816-0.281-4.073-0.791c-0.158-0.496-0.285-1.007-0.372-1.533c-0.323,0.301-0.661,0.585-1.013,0.851
		c-2.733-1.593-4.705-4.35-5.244-7.59c-2.318,2.158-5.428,3.478-8.846,3.478c-2.077,0-4.041-0.489-5.782-1.355
		c-0.617-1.514-0.958-3.169-0.958-4.904c0-6.725,5.108-12.256,11.658-12.928c-0.1-0.187-0.197-0.377-0.288-0.573
		c-1.265,0.599-2.68,0.935-4.173,0.935c-3.481,0-6.535-1.819-8.268-4.559c1.839-1.384,4.056-2.292,6.471-2.54
		c-0.1-0.188-0.197-0.379-0.287-0.574c-1.266,0.599-2.681,0.934-4.174,0.934c-1.119,0-2.193-0.189-3.192-0.534
		c-0.212-0.8-0.325-1.637-0.325-2.502c0-5.397,4.376-9.774,9.775-9.774c1.117,0,2.191,0.188,3.192,0.534
		c-2.685-2.399-4.374-5.888-4.374-9.771c0-7.238,5.867-13.103,13.103-13.103c4.295,0,8.109,2.067,10.5,5.262
		c1.584-2.148,4.133-3.543,7.007-3.543C258.229,21.94,258.996,22.045,259.723,22.243L259.723,22.243z M246.75,59.603
		c2.751,1.437,4.755,4.104,5.285,7.273c2.072-2.476,5.738-4.122,9.914-4.122c0.695,0,1.375,0.046,2.035,0.134
		c-1.346-1.846-2.141-4.119-2.141-6.579c0-0.716,0.068-1.416,0.196-2.095c-2.609-0.465-4.882-1.904-6.431-3.927
		c-0.015-0.235-0.022-0.475-0.022-0.715c0-0.717,0.068-1.418,0.197-2.097c-0.65-0.115-1.278-0.293-1.88-0.523
		c-0.105-0.352-0.193-0.71-0.261-1.076c-0.118,0.274-0.252,0.54-0.397,0.798c-3.006-1.396-5.237-4.184-5.86-7.535
		c-1.167,2.703-3.716,4.67-6.757,5.01c0.365,1.282,0.565,2.677,0.565,4.134c0,1.63-0.249,3.18-0.699,4.582
		c2.751,1.439,4.755,4.107,5.284,7.273c0.345-0.409,0.731-0.795,1.155-1.155C246.876,59.19,246.815,59.398,246.75,59.603
		L246.75,59.603z M254.762,38.919c-0.59-0.19-1.154-0.443-1.68-0.749c0.436,0.705,0.768,1.48,0.98,2.304
		C254.252,39.935,254.489,39.416,254.762,38.919L254.762,38.919z M248.506,32.181c-0.59-0.192-1.154-0.444-1.682-0.749
		c0.436,0.705,0.769,1.481,0.981,2.305C247.996,33.197,248.232,32.676,248.506,32.181z"/>
	<path fill-rule="evenodd" clip-rule="evenodd" fill="#F6DF31" d="M259.723,22.243c0.104,0.536,0.158,1.091,0.158,1.657
		c0,0.443-0.035,0.878-0.097,1.302c0.392-0.854,0.874-1.658,1.433-2.401c2.913,1.407,4.92,4.388,4.92,7.839
		c0,0.442-0.032,0.877-0.097,1.3c2.072-4.507,6.626-7.638,11.913-7.638c1.715,0,3.353,0.33,4.854,0.93
		c0.044,0.442,0.067,0.891,0.067,1.344c0,5.619-3.535,10.41-8.504,12.273c2.104,0.139,4.067,0.797,5.76,1.845
		c-1.13,0.952-2.425,1.717-3.835,2.246c3.816,0.252,7.166,2.206,9.298,5.111c-0.931,0.67-1.951,1.219-3.041,1.626
		c1.225,0.083,2.403,0.339,3.507,0.747c0.025,0.316,0.036,0.639,0.036,0.964c0,6.94-5.625,12.567-12.567,12.567
		c-0.982,0-1.94-0.113-2.856-0.326c0.111,0.556,0.17,1.133,0.17,1.722c0,4.805-3.894,8.699-8.699,8.699
		c-2.388,0-4.552-0.963-6.124-2.52l0.001,0.051c0,5.991-4.857,10.847-10.848,10.847c-3.526,0-6.657-1.682-8.637-4.287
		c-0.052-0.224-0.099-0.453-0.138-0.684l-0.213,0.195c-0.855-1.264-1.452-2.718-1.711-4.285c-2.32,2.158-5.43,3.477-8.848,3.477
		c-1.677,0-3.281-0.318-4.752-0.897c-0.042-0.417-0.063-0.841-0.063-1.27c0-6.725,5.108-12.256,11.658-12.928
		c-0.1-0.187-0.197-0.377-0.288-0.573c-1.265,0.599-2.68,0.935-4.173,0.935c-3.481,0-6.535-1.819-8.268-4.559
		c1.839-1.384,4.056-2.292,6.471-2.54c-0.1-0.188-0.197-0.379-0.287-0.574c-1.266,0.599-2.681,0.934-4.174,0.934
		c-1.119,0-2.193-0.189-3.192-0.534c-0.145-0.55-0.245-1.118-0.292-1.702c1.745-1.201,3.8-1.989,6.02-2.216
		c-0.1-0.187-0.196-0.378-0.288-0.573c-1.266,0.598-2.68,0.933-4.173,0.933c-0.517,0-1.025-0.04-1.521-0.118
		c0.58-4.844,4.702-8.6,9.704-8.6c1.117,0,2.191,0.188,3.192,0.534c-2.685-2.399-4.374-5.888-4.374-9.771
		c0-7.238,5.867-13.103,13.103-13.103c4.295,0,8.109,2.067,10.5,5.262c1.584-2.148,4.133-3.543,7.007-3.543
		C258.229,21.94,258.996,22.045,259.723,22.243L259.723,22.243z M238.568,48.772c0.908,0.476,1.736,1.085,2.456,1.803
		c-0.12,0.796-0.297,1.562-0.531,2.288c1.274,0.667,2.389,1.598,3.27,2.72c0.033,0.154,0.064,0.308,0.09,0.464l0.14-0.162
		c0.897,1.235,1.524,2.681,1.785,4.251c0.345-0.409,0.731-0.795,1.155-1.155c-0.057,0.209-0.118,0.417-0.183,0.621
		c2.751,1.437,4.755,4.104,5.285,7.273c2.072-2.476,5.738-4.122,9.914-4.122c0.695,0,1.375,0.046,2.035,0.134
		c-1.346-1.846-2.141-4.119-2.141-6.579c0-0.716,0.068-1.416,0.196-2.095c-2.609-0.465-4.882-1.904-6.431-3.927
		c-0.015-0.235-0.022-0.475-0.022-0.715c0-0.717,0.068-1.418,0.197-2.097c-0.65-0.115-1.278-0.293-1.88-0.523
		c-0.09-0.297-0.167-0.599-0.228-0.907c-0.01-0.187-0.014-0.376-0.014-0.565c0-0.717,0.068-1.417,0.197-2.095
		c-2.591-0.463-4.85-1.884-6.398-3.883c-0.028-0.12-0.052-0.241-0.075-0.364l-0.075,0.166c-0.913-1.237-1.559-2.686-1.85-4.258
		c-1.167,2.705-3.716,4.671-6.757,5.012c0.365,1.281,0.565,2.675,0.565,4.134C239.268,45.822,239.017,47.371,238.568,48.772
		L238.568,48.772z M246.581,28.091c-0.591-0.191-1.154-0.443-1.682-0.75c0.435,0.706,0.769,1.481,0.98,2.305
		C246.071,29.105,246.307,28.586,246.581,28.091L246.581,28.091z M254.762,38.919c-0.59-0.19-1.154-0.443-1.68-0.749
		c0.436,0.705,0.768,1.48,0.98,2.304C254.252,39.935,254.489,39.416,254.762,38.919L254.762,38.919z M248.506,32.181
		c-0.59-0.192-1.154-0.444-1.682-0.749c0.436,0.705,0.769,1.481,0.981,2.305C247.996,33.197,248.232,32.676,248.506,32.181z"/>
</g>
<g>
	<path fill-rule="evenodd" clip-rule="evenodd" fill="#F5EE73" d="M325.125,11.152c4.888,0,9.117,2.565,11.15,6.298
		c2.316-2.929,6.657-4.9,11.628-4.9c4.643,0,8.734,1.72,11.141,4.333c2.768-2.137,6.893-3.495,11.498-3.495
		c8.334,0,15.091,4.442,15.091,9.923c0,0.755-0.129,1.489-0.372,2.197c2.135,2.008,3.448,4.727,3.448,7.725
		c0,4.792-3.358,8.88-8.073,10.47c0.555,0.783,0.966,1.722,1.183,2.757c0.38-0.061,0.767-0.091,1.16-0.091
		c5.171,0,9.363,5.318,9.363,11.878c0,6.559-4.192,11.878-9.363,11.878c-3.126,0-5.892-1.944-7.595-4.93
		c-0.633,1.731-1.881,3.215-3.509,4.243c0.756,0.838,1.181,1.783,1.181,2.783c0,3.473-5.13,6.29-11.458,6.29
		c-2.394,0-4.616-0.403-6.453-1.091c0.016,0.221,0.023,0.446,0.023,0.671c0,5.944-5.443,10.761-12.157,10.761
		c-4.799,0-8.947-2.461-10.924-6.033c-1.625,2.605-4.637,4.357-8.081,4.357c-5.171,0-9.362-3.942-9.362-8.806
		c0-1.125,0.225-2.202,0.634-3.192c-4.441-1.289-7.622-4.753-7.622-8.825c0-3.897,2.914-7.238,7.058-8.646
		c-1.6-1.413-2.587-3.341-2.587-5.468c0-1.493,0.484-2.889,1.329-4.076c-3.306-1.586-5.522-4.487-5.522-7.802
		c0-4.528,4.129-8.281,9.529-8.969c-2.908-2.072-4.777-5.296-4.777-8.919C312.688,16.219,318.256,11.152,325.125,11.152
		L325.125,11.152z M339.006,67.927c0.471-3.317,4.463-5.909,9.318-5.909c4.087,0,7.564,1.84,8.838,4.402
		c0.295-0.068,0.595-0.129,0.902-0.183c-0.601-1.107-0.938-2.347-0.938-3.66c0-4.631,4.192-8.385,9.364-8.385
		c2.875,0,5.446,1.161,7.165,2.99c0.065-0.955,0.221-1.877,0.457-2.756c-1.94-1.073-3.29-3.464-3.29-6.242
		c0-1.68,0.492-3.217,1.312-4.408c-1.443-0.458-2.765-1.148-3.908-2.022c-1.216,0.45-2.559,0.7-3.971,0.7
		c-4.523,0-8.338-2.558-9.535-6.055c-1.929,1.954-5.447,3.26-9.471,3.26c-2.432,0-4.677-0.476-6.502-1.286
		c-0.793,3.788-3.712,6.597-7.193,6.597c-0.789,0-1.549-0.145-2.259-0.411c-0.484,0.74-1.09,1.421-1.799,2.025
		c1.725,1.426,2.801,3.429,2.801,5.652c0,2.802-1.71,5.258-4.279,6.64c1.689,1.042,3.012,2.458,3.788,4.095
		c0.431-0.075,0.875-0.113,1.329-0.113c3.463,0,6.362,2.282,7.089,5.338C338.48,68.1,338.74,68.009,339.006,67.927L339.006,67.927z
		 M337.283,28.307c-0.332-0.312-0.639-0.641-0.919-0.985c-0.283,0.545-0.616,1.067-0.989,1.56c0.197,0.141,0.391,0.29,0.577,0.451
		C336.339,28.965,336.787,28.621,337.283,28.307z"/>
	<path fill-rule="evenodd" clip-rule="evenodd" fill="#CAB43C" d="M385.61,22.758c0.016,0.183,0.023,0.367,0.023,0.552
		c0,0.755-0.129,1.489-0.372,2.197c2.135,2.008,3.448,4.727,3.448,7.725c0,4.792-3.358,8.88-8.073,10.47
		c0.555,0.783,0.966,1.722,1.183,2.757c0.38-0.061,0.767-0.091,1.16-0.091c5.171,0,9.363,5.318,9.363,11.878
		c0,6.559-4.192,11.878-9.363,11.878c-3.126,0-5.892-1.944-7.595-4.93c-0.633,1.731-1.881,3.215-3.509,4.243
		c0.756,0.838,1.181,1.783,1.181,2.783c0,3.473-5.13,6.29-11.458,6.29c-2.394,0-4.616-0.403-6.453-1.091
		c0.016,0.221,0.023,0.446,0.023,0.671c0,5.944-5.443,10.761-12.157,10.761c-4.799,0-8.947-2.461-10.924-6.033
		c-1.625,2.605-4.637,4.357-8.081,4.357c-1.102,0-2.155-0.181-3.137-0.508c-0.834-1.729-1.302-3.652-1.302-5.719
		c0-4.234,1.989-7.892,5.024-10.487c-0.36-1.158-0.554-2.374-0.554-3.628c0-0.716,0.064-1.425,0.187-2.12
		c-2.671-2.512-4.378-5.905-4.378-9.757c0-4.802,2.556-8.709,6.227-11.235c-0.952-2.048-1.475-4.302-1.475-6.652
		c0-9.612,8.407-16.627,17.745-16.627c4.332,0,8.555,1.494,11.81,4.208c3.3-1.898,7.207-2.811,10.967-2.811
		c4.013,0,8.172,1.033,11.598,3.193C379.493,23.726,382.565,22.991,385.61,22.758L385.61,22.758z M339.006,67.927
		c0.471-3.317,4.463-5.909,9.318-5.909c4.087,0,7.564,1.84,8.838,4.402c0.295-0.068,0.595-0.129,0.902-0.183
		c-0.601-1.107-0.938-2.347-0.938-3.66c0-4.631,4.192-8.385,9.364-8.385c2.875,0,5.446,1.161,7.165,2.99
		c0.065-0.955,0.221-1.877,0.457-2.756c-1.94-1.073-3.29-3.464-3.29-6.242c0-1.68,0.492-3.217,1.312-4.408
		c-1.443-0.458-2.765-1.148-3.908-2.022c-1.216,0.45-2.559,0.7-3.971,0.7c-4.523,0-8.338-2.558-9.535-6.055
		c-1.929,1.954-5.447,3.26-9.471,3.26c-2.432,0-4.677-0.476-6.502-1.286c-0.793,3.788-3.712,6.597-7.193,6.597
		c-0.789,0-1.549-0.145-2.259-0.411c-0.484,0.74-1.09,1.421-1.799,2.025c1.725,1.426,2.801,3.429,2.801,5.652
		c0,2.802-1.71,5.258-4.279,6.64c1.689,1.042,3.012,2.458,3.788,4.095c0.431-0.075,0.875-0.113,1.329-0.113
		c3.463,0,6.362,2.282,7.089,5.338C338.48,68.1,338.74,68.009,339.006,67.927L339.006,67.927z M337.283,28.307
		c-0.332-0.312-0.639-0.641-0.919-0.985c-0.283,0.545-0.616,1.067-0.989,1.56c0.197,0.141,0.391,0.29,0.577,0.451
		C336.339,28.965,336.787,28.621,337.283,28.307z"/>
	<path fill-rule="evenodd" clip-rule="evenodd" fill="#F6DF31" d="M386.959,38.953c-1.437,2.163-3.664,3.854-6.322,4.749
		c0.555,0.783,0.966,1.722,1.183,2.757c0.38-0.061,0.767-0.091,1.16-0.091c2.153,0,4.136,0.922,5.717,2.472
		c-0.677,7.851-6.12,15.533-14.6,15.533c-1.734,0-3.379-0.345-4.897-0.97c-1.708,6.779-10.273,9.354-16.481,9.354
		c-0.733,0-1.469-0.03-2.205-0.091c-2.552,6.323-9.266,10.433-16.384,10.433c-0.648,0-1.297-0.033-1.938-0.101l-0.104-0.182
		l-0.103,0.16c-3.331-0.381-6.523-1.64-9.135-3.666c-1.029,0.612-2.132,1.099-3.283,1.45c0.057-4.155,2.032-7.745,5.023-10.3
		c-0.36-1.158-0.554-2.374-0.554-3.628c0-0.716,0.064-1.425,0.187-2.12c-2.671-2.512-4.378-5.905-4.378-9.757
		c0-4.802,2.556-8.709,6.227-11.235c-0.952-2.048-1.475-4.302-1.475-6.652c0-9.612,8.407-16.627,17.745-16.627
		c4.332,0,8.555,1.494,11.81,4.208c3.3-1.898,7.207-2.811,10.967-2.811c4.013,0,8.172,1.033,11.598,3.193
		c2.626-1.235,5.52-1.958,8.405-2.23c-0.143,3.574-1.503,6.828-3.679,9.444C383.838,33.864,385.707,36.237,386.959,38.953
		L386.959,38.953z M339.006,67.927c0.471-3.317,4.463-5.909,9.318-5.909c4.087,0,7.564,1.84,8.838,4.402
		c0.295-0.068,0.595-0.129,0.902-0.183c-0.601-1.107-0.938-2.347-0.938-3.66c0-4.631,4.192-8.385,9.364-8.385
		c2.875,0,5.446,1.161,7.165,2.99c0.065-0.955,0.221-1.877,0.457-2.756c-1.94-1.073-3.29-3.464-3.29-6.242
		c0-1.68,0.492-3.217,1.312-4.408c-1.443-0.458-2.765-1.148-3.908-2.022c-1.216,0.45-2.559,0.7-3.971,0.7
		c-4.523,0-8.338-2.558-9.535-6.055c-1.929,1.954-5.447,3.26-9.471,3.26c-2.432,0-4.677-0.476-6.502-1.286
		c-0.793,3.788-3.712,6.597-7.193,6.597c-0.789,0-1.549-0.145-2.259-0.411c-0.484,0.74-1.09,1.421-1.799,2.025
		c1.725,1.426,2.801,3.429,2.801,5.652c0,2.802-1.71,5.258-4.279,6.64c1.689,1.042,3.012,2.458,3.788,4.095
		c0.431-0.075,0.875-0.113,1.329-0.113c3.463,0,6.362,2.282,7.089,5.338C338.48,68.1,338.74,68.009,339.006,67.927L339.006,67.927z
		 M337.283,28.307c-0.332-0.312-0.639-0.641-0.919-0.985c-0.283,0.545-0.616,1.067-0.989,1.56c0.197,0.141,0.391,0.29,0.577,0.451
		C336.339,28.965,336.787,28.621,337.283,28.307z"/>
</g>
<g>
	<path fill-rule="evenodd" clip-rule="evenodd" fill="#F5EE73" d="M426.435,8.676c4.11,0,7.83,1.766,10.519,4.617
		c2.935-2.837,7.158-4.617,11.852-4.617c4.954,0,9.382,1.983,12.326,5.095c2.132-1.06,4.708-1.678,7.481-1.678
		c3.621,0,6.904,1.055,9.304,2.767c1.414-1.095,3.156-1.743,5.039-1.743c4.716,0,8.538,4.051,8.538,9.05
		c0,4.998-3.822,9.05-8.538,9.05c-2.092,0-4.006-0.796-5.491-2.119c-2.352,1.531-5.453,2.462-8.853,2.462
		c-2.255,0-4.38-0.41-6.241-1.133c-2.845,3.964-7.859,6.597-13.566,6.597c-3.959,0-7.581-1.265-10.378-3.362
		c-2.705,3.901-7.068,6.435-11.993,6.435c-8.204,0-14.855-7.034-14.855-15.71C411.58,15.71,418.231,8.676,426.435,8.676
		L426.435,8.676z M487.739,43.17c4.527,0,8.195,3.823,8.195,8.538c0,3.646-2.195,6.758-5.283,7.983
		c0.542,1.215,0.843,2.558,0.843,3.97c0,5.47-4.511,9.905-10.075,9.905c-1.322,0-2.583-0.252-3.74-0.706
		c0.536,0.782,0.837,1.658,0.837,2.583c0,3.3-3.823,5.978-8.537,5.978c-4.716,0-8.538-2.677-8.538-5.978
		c0-2.007,1.413-3.782,3.582-4.865c-0.327-1.069-0.509-2.255-0.509-3.501c0-4.716,2.598-8.538,5.805-8.538
		c0.755,0,1.475,0.211,2.137,0.595c1.439-2.745,4.142-4.743,7.355-5.251c-0.176-0.694-0.269-1.423-0.269-2.174
		C479.542,46.993,483.211,43.17,487.739,43.17L487.739,43.17z M443.512,68.785c5.186,0,9.391,4.74,9.391,10.585
		c0,5.848-4.205,10.589-9.391,10.589c-2.178,0-4.182-0.835-5.774-2.237c-1.908,2.239-4.434,3.603-7.205,3.603
		c-5.759,0-10.46-5.89-10.743-13.295c-1.346,0.643-2.858,1.002-4.454,1.002c-5.659,0-10.245-4.512-10.245-10.076
		c0-4.939,3.614-9.048,8.386-9.908c-0.345-0.642-0.531-1.33-0.531-2.044c0-0.18,0.012-0.355,0.035-0.529
		c-0.182,0.011-0.365,0.016-0.547,0.016c-4.622,0-8.368-3.44-8.368-7.683c0-4.245,3.746-7.685,8.368-7.685
		c4.621,0,8.366,3.44,8.366,7.685c0,0.712-0.105,1.403-0.303,2.056c0.753-0.117,1.543-0.18,2.354-0.18
		c5.47,0,9.904,2.829,9.904,6.319c0,3.282-3.925,5.98-8.943,6.288c0.446,0.646,0.818,1.347,1.107,2.088
		c1.636-1.305,3.558-2.059,5.616-2.059c3.799,0,7.137,2.564,9.052,6.431C440.779,69.131,442.109,68.785,443.512,68.785z"/>
	<path fill-rule="evenodd" clip-rule="evenodd" fill="#CAB43C" d="M491.43,23.285c-0.52,4.47-4.115,7.931-8.473,7.931
		c-2.092,0-4.006-0.796-5.491-2.119c-2.352,1.531-5.453,2.462-8.853,2.462c-2.255,0-4.38-0.41-6.241-1.133
		c-2.845,3.964-7.859,6.597-13.566,6.597c-3.959,0-7.581-1.265-10.378-3.362c-2.705,3.901-7.068,6.435-11.993,6.435
		c-3.474,0-6.668-1.262-9.2-3.375c0.657-9.798,8.434-18.03,18.541-18.03c3.549,0,6.942,1.045,9.842,2.936
		c3.236-1.937,7-2.936,10.806-2.936c4.443,0,8.829,1.365,12.378,3.982c1.915-0.558,3.917-0.829,5.907-0.829
		c2.945,0,5.936,0.597,8.621,1.841c1.456-0.586,3.02-0.895,4.619-0.895C489.164,22.79,490.33,22.964,491.43,23.285L491.43,23.285z
		 M446.414,69.301c-0.07,0.561-0.188,1.099-0.351,1.613c1.482,0.867,2.806,2.014,3.933,3.354c0.509-0.061,1.023-0.093,1.542-0.093
		l0.159,0.001c0.768,1.534,1.206,3.307,1.206,5.193c0,5.848-4.205,10.589-9.391,10.589c-2.178,0-4.182-0.835-5.774-2.237
		c-1.908,2.239-4.434,3.603-7.205,3.603c-5.759,0-10.46-5.89-10.743-13.295c-1.346,0.643-2.858,1.002-4.454,1.002
		c-1.457,0-2.844-0.301-4.101-0.841c0.23-3.191,1.533-6.107,3.568-8.38c-2.746-2.157-4.549-5.414-4.549-9.203
		c0-0.137,0.001-0.272,0.007-0.405c0.982-0.552,2.063-0.948,3.215-1.155c-0.345-0.642-0.531-1.33-0.531-2.044
		c0-0.18,0.012-0.355,0.035-0.529c-0.182,0.011-0.365,0.016-0.547,0.016c-0.471,0-0.932-0.036-1.383-0.105
		c1.533-3.879,5.113-6.697,9.312-7.506c-1.17-1.814-2.05-3.836-2.584-5.985c1.847,1.409,3.021,3.534,3.021,5.912
		c0,0.712-0.105,1.403-0.303,2.056c0.753-0.117,1.543-0.18,2.354-0.18c5.47,0,9.904,2.829,9.904,6.319
		c0,3.282-3.925,5.98-8.943,6.288c0.446,0.646,0.818,1.347,1.107,2.088c1.636-1.305,3.558-2.059,5.616-2.059
		c3.799,0,7.137,2.564,9.052,6.431c1.194-0.62,2.524-0.966,3.927-0.966C444.523,68.785,445.5,68.965,446.414,69.301L446.414,69.301z
		 M464.761,80.174c0.385-0.574,0.83-1.112,1.328-1.604c-0.025-0.366-0.037-0.733-0.037-1.097c0-5.876,3.548-12.7,10.152-12.754
		c1.098-1.153,2.38-2.112,3.794-2.838c0.679-6.284,5.854-11.348,12.364-11.348c1.238,0,2.428,0.182,3.548,0.523
		c0.016,0.214,0.023,0.432,0.023,0.652c0,3.646-2.195,6.758-5.283,7.983c0.542,1.215,0.843,2.558,0.843,3.97
		c0,5.47-4.511,9.905-10.075,9.905c-1.322,0-2.583-0.252-3.74-0.706c0.536,0.782,0.837,1.658,0.837,2.583
		c0,3.3-3.823,5.978-8.537,5.978C468.015,81.42,466.205,80.956,464.761,80.174L464.761,80.174z M494.719,47.234
		c-1.943,1.268-4.253,2.01-6.77,2.01c-1.872,0-3.686-0.424-5.338-1.212c-0.85,0.351-1.722,0.639-2.614,0.868
		c1.114-3.336,4.159-5.731,7.742-5.731C490.689,43.17,493.275,44.796,494.719,47.234z"/>
	<path fill-rule="evenodd" clip-rule="evenodd" fill="#F6DF31" d="M486.005,30.622c-0.947,0.385-1.973,0.594-3.048,0.594
		c-0.772,0-1.521-0.108-2.234-0.313c1.039-0.29,2.138-0.445,3.276-0.445C484.683,30.458,485.354,30.515,486.005,30.622
		L486.005,30.622z M431.695,39.083c-1.572-0.744-3.293-1.241-4.99-1.493c-0.021-0.08-0.044-0.16-0.066-0.239
		c0.256,0.009,0.513,0.015,0.771,0.015c4.534,0,8.768-1.705,12.057-4.629c2.691,1.187,5.627,1.793,8.592,1.793
		c5.222,0,10.367-1.899,14.137-5.445c1.365,0.269,2.758,0.4,4.148,0.4c2.687,0,5.407-0.497,7.901-1.527
		c1.651,0.789,3.467,1.212,5.339,1.212c4.613,0,8.535-2.493,10.768-6.147c-0.775-0.153-1.579-0.233-2.405-0.233
		c-1.599,0-3.163,0.31-4.619,0.895c-2.685-1.244-5.675-1.841-8.621-1.841c-1.989,0-3.992,0.272-5.907,0.829
		c-3.549-2.616-7.935-3.982-12.378-3.982c-3.807,0-7.57,0.999-10.806,2.936c-2.9-1.891-6.293-2.936-9.842-2.936
		c-10.107,0-17.884,8.231-18.541,18.03c2.531,2.113,5.726,3.375,9.2,3.375C428.287,40.096,430.06,39.738,431.695,39.083
		L431.695,39.083z M494.1,50.656c-0.533,0.762-1.149,1.467-1.841,2.097c0.054,0.495,0.08,0.993,0.08,1.493
		c0,1.813-0.346,3.537-0.975,5.121c-0.232,0.118-0.469,0.227-0.713,0.325c0.099,0.219,0.189,0.444,0.271,0.673
		c-2.072,4.214-6.214,7.227-11.074,7.798c-1.687,4.766-7.255,7.35-12.242,7.35c-0.467,0-0.941-0.023-1.416-0.07
		c0.71-5.309,4.161-10.676,10.016-10.723c1.098-1.153,2.38-2.112,3.794-2.838c0.679-6.284,5.854-11.348,12.364-11.348
		C492.954,50.533,493.534,50.575,494.1,50.656L494.1,50.656z M452.895,78.945c-2.395,2.7-5.776,4.449-9.722,4.449
		c-1.671,0-3.292-0.33-4.798-0.946c-2.109,1.396-4.555,2.206-7.182,2.206c-4.954,0-8.848-2.656-11.394-6.423l-0.01-0.202
		l-0.095,0.045c-0.965-1.459-1.732-3.078-2.281-4.771c-0.083,0.001-0.165,0.003-0.248,0.003c-1.51,0-2.966-0.232-4.338-0.665
		c0.542-1.023,1.207-1.972,1.976-2.831c-2.746-2.157-4.549-5.414-4.549-9.203c0-0.137,0.001-0.272,0.007-0.405
		c0.982-0.552,2.063-0.948,3.215-1.155c-0.345-0.642-0.531-1.33-0.531-2.044c0-0.18,0.012-0.355,0.035-0.529
		c-0.182,0.011-0.365,0.016-0.547,0.016c-0.471,0-0.932-0.036-1.383-0.105c1.533-3.879,5.113-6.697,9.312-7.506
		c-1.17-1.814-2.05-3.836-2.584-5.985c1.847,1.409,3.021,3.534,3.021,5.912c0,0.712-0.105,1.403-0.303,2.056
		c0.753-0.117,1.543-0.18,2.354-0.18c5.47,0,9.904,2.829,9.904,6.319c0,3.282-3.925,5.98-8.943,6.288
		c0.446,0.646,0.818,1.347,1.107,2.088c1.636-1.305,3.558-2.059,5.616-2.059c3.799,0,7.137,2.564,9.052,6.431
		c1.194-0.62,2.524-0.966,3.927-0.966c1.011,0,1.988,0.181,2.902,0.516c-0.07,0.561-0.188,1.099-0.351,1.613
		c1.482,0.867,2.806,2.014,3.933,3.354c0.509-0.061,1.023-0.093,1.542-0.093l0.159,0.001
		C452.406,75.595,452.835,77.217,452.895,78.945L452.895,78.945z M494.719,47.234c-1.943,1.268-4.253,2.01-6.77,2.01
		c-1.872,0-3.686-0.424-5.338-1.212c-0.85,0.351-1.722,0.639-2.614,0.868c1.114-3.336,4.159-5.731,7.742-5.731
		C490.689,43.17,493.275,44.796,494.719,47.234z"/>
</g>
<g>
	<path fill-rule="evenodd" clip-rule="evenodd" fill="#F5EE73" d="M516.341,10.885c3.225,0,6.124,0.991,8.139,2.571
		c0.869-3.869,5.356-6.816,10.762-6.816c6.03,0,10.916,3.665,10.916,8.186c0,4.206-4.226,7.67-9.667,8.135
		c0.109,0.507,0.167,1.032,0.167,1.57c0,4.633-4.253,8.388-9.501,8.388c-2.213,0-4.251-0.668-5.865-1.789
		c-0.119,2.786-4.009,5.025-8.791,5.025c-4.855,0-8.793-2.308-8.793-5.155c0-2.661,3.44-4.851,7.854-5.126
		c-3.69-1.273-6.236-3.977-6.236-7.104C505.325,14.415,510.257,10.885,516.341,10.885L516.341,10.885z M587.7,46.463
		c4.522,0,8.188,3.62,8.188,8.086c0,4.2-3.242,7.653-7.39,8.048c1.422,1.017,2.336,2.602,2.336,4.385c0,3.059-2.696,5.54-6.03,5.558
		c0.369,0.901,0.572,1.893,0.572,2.932c0,4.187-3.303,7.58-7.378,7.58c-2.089,0-3.975-0.892-5.317-2.326
		c-0.894,1.397-2.478,2.326-4.285,2.326c-2.791,0-5.053-2.217-5.053-4.952c0-1.936,1.134-3.613,2.786-4.427
		c-0.855-1.04-1.372-2.388-1.372-3.861c0-3.294,2.58-5.963,5.762-5.963c0.697,0,1.363,0.128,1.98,0.362
		c0.404-3.862,2.803-6.83,5.701-6.83c0.527,0,1.038,0.099,1.523,0.282c0.012-0.326,0.041-0.643,0.088-0.952
		c-0.193-0.688-0.296-1.413-0.296-2.16C579.514,50.083,583.179,46.463,587.7,46.463L587.7,46.463z M545.249,71.53
		c-2.294,0-4.322,1.754-5.546,4.438c-1.322-1.735-3.205-3.011-5.375-3.548c-1.309-1.454-3.494-2.56-6.111-3.046
		c1.585-1.517,2.58-3.702,2.58-6.132c0-4.577-3.53-8.288-7.884-8.288c-1.422,0-2.755,0.396-3.906,1.088
		c-0.484-3.466-3.619-6.142-7.415-6.142c-4.13,0-7.479,3.168-7.479,7.076c0,2.96,1.922,5.496,4.649,6.55
		c-0.515,1.02-0.809,2.198-0.809,3.456c0,1.963,0.718,3.737,1.872,5.004c-0.421,0.892-0.658,1.905-0.658,2.98
		c0,3.02,1.873,5.556,4.409,6.269c-0.747,1.19-1.175,2.569-1.175,4.04c0,4.466,3.937,8.086,8.793,8.086
		c2.575,0,4.89-1.017,6.498-2.638c1.3,0.653,2.766,1.022,4.317,1.022c3.133,0,5.92-1.501,7.694-3.832
		c1.225,2.683,3.253,4.439,5.546,4.439c3.741,0,6.773-4.662,6.773-10.412C552.021,76.19,548.989,71.53,545.249,71.53L545.249,71.53z
		 M581.838,16.746c7.982,0,14.453,4.48,14.453,10.007c0,5.526-6.471,10.006-14.453,10.006c-2.947,0-5.687-0.611-7.972-1.66
		c-1.296,0.668-2.824,1.054-4.46,1.054c-4.689,0-8.49-3.168-8.49-7.075c0-1.247,0.388-2.42,1.068-3.437
		c-5.171-0.021-9.357-3.633-9.357-8.086c0-4.466,4.21-8.086,9.4-8.086s9.4,3.62,9.4,8.086c0,0.927-0.182,1.818-0.516,2.647
		C573.561,18.086,577.474,16.746,581.838,16.746L581.838,16.746z M518.08,27.014c-0.051-0.146-0.098-0.294-0.141-0.444
		c-0.254,0.026-0.51,0.046-0.77,0.06C517.487,26.747,517.792,26.875,518.08,27.014z"/>
	<path fill-rule="evenodd" clip-rule="evenodd" fill="#CAB43C" d="M546.12,15.506c-0.427,3.894-4.485,7.015-9.63,7.454
		c0.109,0.507,0.167,1.032,0.167,1.57c0,4.633-4.253,8.388-9.501,8.388c-2.213,0-4.251-0.668-5.865-1.789
		c-0.079,1.859-1.84,3.474-4.422,4.343l-0.003-0.353c0-11.187,10.775-17.883,21.015-17.883c1.601,0,3.207,0.151,4.783,0.456
		C543.735,16.855,544.896,16.126,546.12,15.506L546.12,15.506z M520.828,93.354c-0.08-0.672-0.122-1.352-0.122-2.038
		c0-0.461,0.019-0.92,0.055-1.378c-0.752-1.873-1.177-3.877-1.257-5.916c-2.427-2.951-3.852-6.686-3.852-10.696
		c0-5.699,2.826-10.659,7.114-13.744c-3.315-1.91-5.946-4.747-7.009-8.482c1.74,1.107,2.961,2.884,3.248,4.942
		c1.15-0.692,2.484-1.088,3.906-1.088c4.354,0,7.884,3.711,7.884,8.288c0,2.431-0.995,4.616-2.58,6.132
		c2.617,0.485,4.802,1.592,6.111,3.046c2.171,0.537,4.054,1.813,5.375,3.548c1.225-2.684,3.253-4.438,5.546-4.438
		c3.741,0,6.773,4.66,6.773,10.41c0,5.75-3.032,10.412-6.773,10.412c-2.294,0-4.322-1.755-5.546-4.439
		c-1.774,2.33-4.56,3.832-7.694,3.832c-1.551,0-3.017-0.369-4.317-1.022c-1.609,1.622-3.924,2.638-6.498,2.638L520.828,93.354
		L520.828,93.354z M554.154,13.137c0.874-0.097,1.752-0.147,2.628-0.147c5.307,0,10.661,1.835,14.623,5.127
		c-0.058,0.725-0.228,1.425-0.494,2.085c2.649-2.117,6.563-3.456,10.927-3.456c7.982,0,14.453,4.48,14.453,10.007
		c0,5.526-6.471,10.006-14.453,10.006c-2.947,0-5.687-0.611-7.972-1.66c-1.296,0.668-2.824,1.054-4.46,1.054
		c-4.689,0-8.49-3.168-8.49-7.075c0-1.247,0.388-2.42,1.068-3.437c-5.171-0.021-9.357-3.633-9.357-8.086
		C552.627,15.925,553.188,14.407,554.154,13.137L554.154,13.137z M587.7,46.463c4.522,0,8.188,3.62,8.188,8.086
		c0,4.2-3.242,7.653-7.39,8.048c1.422,1.017,2.336,2.602,2.336,4.385c0,3.059-2.696,5.54-6.03,5.558
		c0.369,0.901,0.572,1.893,0.572,2.932c0,4.187-3.303,7.58-7.378,7.58c-2.089,0-3.975-0.892-5.317-2.326
		c-0.894,1.397-2.478,2.326-4.285,2.326c-2.791,0-5.053-2.217-5.053-4.952c0-1.936,1.134-3.613,2.786-4.427
		c-0.855-1.04-1.372-2.388-1.372-3.861c0-3.294,2.58-5.963,5.762-5.963c0.697,0,1.363,0.128,1.98,0.362
		c0.404-3.862,2.803-6.83,5.701-6.83c0.527,0,1.038,0.099,1.523,0.282c0.012-0.326,0.041-0.643,0.088-0.952
		c-0.193-0.688-0.296-1.413-0.296-2.16C579.514,50.083,583.179,46.463,587.7,46.463z"/>
	<path fill-rule="evenodd" clip-rule="evenodd" fill="#F6DF31" d="M546.12,15.506c-0.427,3.894-4.485,7.015-9.63,7.454
		c0.109,0.507,0.167,1.032,0.167,1.57c0,4.633-4.253,8.388-9.501,8.388c-2.213,0-4.251-0.668-5.865-1.789
		c-0.079,1.859-1.84,3.474-4.422,4.343l-0.003-0.353c0-11.187,10.775-17.883,21.015-17.883c1.601,0,3.207,0.151,4.783,0.456
		C543.735,16.855,544.896,16.126,546.12,15.506L546.12,15.506z M588.29,25.627c2.25,1.896,4.032,4.325,5.146,7.098
		c-2.635,2.448-6.849,4.035-11.598,4.035c-2.947,0-5.687-0.611-7.972-1.66c-1.296,0.668-2.824,1.054-4.46,1.054
		c-4.689,0-8.49-3.168-8.49-7.075c0-1.247,0.388-2.42,1.068-3.437c-5.171-0.021-9.357-3.633-9.357-8.086
		c0-1.631,0.561-3.149,1.527-4.418c0.874-0.097,1.752-0.147,2.628-0.147c5.307,0,10.661,1.835,14.623,5.127
		c-0.058,0.725-0.228,1.425-0.494,2.085c2.649-2.117,6.563-3.456,10.927-3.456c4.421,0,8.378,1.376,11.029,3.541
		C591.698,22.333,590.13,24.117,588.29,25.627L588.29,25.627z M592.54,48.027c-0.778,1.429-1.744,2.743-2.867,3.908
		c-0.024,4.848-2.301,9.079-5.799,11.887c-1.59,7.993-8.561,14.106-17.036,14.106c-1.176,0-2.335-0.119-3.467-0.352
		c0.183-1.711,1.257-3.164,2.758-3.903c-0.855-1.04-1.372-2.388-1.372-3.861c0-3.294,2.58-5.963,5.762-5.963
		c0.697,0,1.363,0.128,1.98,0.362c0.404-3.862,2.803-6.83,5.701-6.83c0.527,0,1.038,0.099,1.523,0.282
		c0.012-0.326,0.041-0.643,0.088-0.952c-0.193-0.688-0.296-1.413-0.296-2.16c0-4.466,3.665-8.086,8.186-8.086
		C589.511,46.463,591.184,47.043,592.54,48.027L592.54,48.027z M551.069,76.617c-0.639-0.286-1.254-0.614-1.843-0.982
		c-2.458,6.41-7.63,11.592-15.138,11.592c-2.484,0-4.779-0.613-6.818-1.687c-2.039,0.706-4.204,1.079-6.423,1.079
		c-0.353,0-0.705-0.009-1.056-0.028c-0.157-0.846-0.254-1.705-0.287-2.571c-2.427-2.951-3.852-6.686-3.852-10.696
		c0-5.699,2.826-10.659,7.114-13.744c-3.315-1.91-5.946-4.747-7.009-8.482c1.74,1.107,2.961,2.884,3.248,4.942
		c1.15-0.692,2.484-1.088,3.906-1.088c4.354,0,7.884,3.711,7.884,8.288c0,2.431-0.995,4.616-2.58,6.132
		c2.617,0.485,4.802,1.592,6.111,3.046c2.171,0.537,4.054,1.813,5.375,3.548c1.225-2.684,3.253-4.438,5.546-4.438
		C547.723,71.53,549.887,73.571,551.069,76.617z"/>
</g>
</svg>
