<?xml version="1.0" encoding="utf-8"?>
<!-- Generator: Adobe Illustrator 17.0.0, SVG Export Plug-In . SVG Version: 6.00 Build 0)  -->
<!DOCTYPE svg PUBLIC "-//W3C//DTD SVG 1.1//EN" "http://www.w3.org/Graphics/SVG/1.1/DTD/svg11.dtd">
<svg version="1.1" id="Capa_1" xmlns="http://www.w3.org/2000/svg" xmlns:xlink="http://www.w3.org/1999/xlink" x="0px" y="0px"
	 width="100px" height="100px" viewBox="0 0 100 100" enable-background="new 0 0 100 100" xml:space="preserve">
<g>
	<rect x="9.29" y="9.452" fill="#58595B" width="13.599" height="51.897"/>
	<path fill="#424243" d="M72.822,6.393C88.193,8.483,100,20.979,100,36.089c0,16.574-14.21,30.006-31.739,30.006
		c-1.992,0-3.937-0.176-5.829-0.506H22.889V6.083h45.372h4.561V6.393z"/>
	<path d="M71.284,65.959c-0.993,0.087-2.002,0.135-3.023,0.135c-1.992,0-3.937-0.176-5.829-0.506H22.889v-48.53h35.556h3.944v0.266
		c13.294,1.81,23.512,12.617,23.512,25.688C85.901,52.964,79.978,61.604,71.284,65.959z"/>
	<path d="M37.115,3.183h8.646V67.62h-8.646V3.183L37.115,3.183z M64.354,3.183H73V67.62h-8.646
		C64.354,67.62,64.354,3.183,64.354,3.183z"/>
	<rect x="0" y="3.183" width="9.292" height="64.436"/>
	<rect x="9.29" y="21.378" fill="#808183" width="13.599" height="28.044"/>
	<rect x="45.76" y="5.286" fill="#424243" width="18.593" height="46.478"/>
	<polygon fill="#808183" points="46.757,31.028 61.932,44.2 77.103,57.375 71.308,78.686 65.511,100 46.757,100 28.003,100 
		22.206,78.689 16.412,57.375 31.582,44.2 	"/>
	<path fill="#949698" d="M75.866,61.922l-4.558,16.764L65.511,100H46.757H28.003l-4.275-15.712
		C23.853,67.294,37.672,53.55,54.695,53.55C62.882,53.55,70.327,56.734,75.866,61.922z"/>
	<path fill="#424243" d="M46.76,76.153c5.859,0,10.639-4.78,10.639-10.64c0-5.859-4.78-10.639-10.639-10.639
		c-5.86,0-10.64,4.779-10.64,10.639C36.119,71.373,40.9,76.153,46.76,76.153z"/>
	<path d="M46.758,71.087c3.011,0,5.464-2.504,5.464-5.574s-2.454-5.574-5.464-5.574c-3.011,0-5.466,2.504-5.466,5.574
		S43.748,71.087,46.758,71.087z"/>
	<rect x="14.84" y="86.284" width="62.082" height="13.716"/>
</g>
</svg>
