<?xml version="1.0" encoding="utf-8"?>
<!-- Generator: Adobe Illustrator 17.0.0, SVG Export Plug-In . SVG Version: 6.00 Build 0)  -->
<!DOCTYPE svg PUBLIC "-//W3C//DTD SVG 1.1//EN" "http://www.w3.org/Graphics/SVG/1.1/DTD/svg11.dtd">
<svg version="1.1" id="Capa_1" xmlns="http://www.w3.org/2000/svg" xmlns:xlink="http://www.w3.org/1999/xlink" x="0px" y="0px"
	 width="600px" height="100px" viewBox="0 0 600 100" enable-background="new 0 0 600 100" xml:space="preserve">
<path fill-rule="evenodd" clip-rule="evenodd" fill="#762F17" d="M150,9.561c10.39,0,19.795,4.539,26.598,11.878
	c6.783,7.315,10.98,17.416,10.98,28.562c0,11.146-4.196,21.247-10.98,28.563C169.795,85.902,160.39,90.44,150,90.44
	c-10.393,0-19.798-4.54-26.6-11.876c-6.783-7.317-10.98-17.417-10.98-28.564s4.197-21.247,10.98-28.564
	C130.202,14.101,139.607,9.561,150,9.561L150,9.561z M174.874,23.045c-6.37-6.87-15.165-11.121-24.874-11.121
	c-9.71,0-18.507,4.251-24.875,11.12c-6.39,6.893-10.342,16.423-10.342,26.957s3.952,20.065,10.342,26.958
	c6.368,6.869,15.165,11.12,24.875,11.12c9.709,0,18.504-4.251,24.874-11.121c6.388-6.89,10.342-16.422,10.342-26.956
	S181.262,29.935,174.874,23.045z"/>
<ellipse fill-rule="evenodd" clip-rule="evenodd" fill="#F4E900" cx="150" cy="50.001" rx="34.397" ry="37.259"/>
<path fill-rule="evenodd" clip-rule="evenodd" fill="#DFA100" d="M182.073,36.515h-64.146c4.989-13.911,17.467-23.773,32.073-23.773
	S177.084,22.604,182.073,36.515z"/>
<path fill-rule="evenodd" clip-rule="evenodd" fill="#762F17" d="M150,11.561c9.84,0,18.747,4.318,25.189,11.296
	c6.418,6.951,10.389,16.552,10.389,27.144s-3.971,20.193-10.389,27.144c-6.442,6.978-15.35,11.296-25.189,11.296
	c-9.841,0-18.747-4.318-25.189-11.296c-6.418-6.951-10.389-16.552-10.389-27.144s3.971-20.193,10.389-27.144
	C131.253,15.879,140.159,11.561,150,11.561L150,11.561z M173.455,24.454c-6.006-6.506-14.3-10.531-23.455-10.531
	s-17.45,4.025-23.455,10.531c-6.03,6.53-9.761,15.564-9.761,25.547c0,9.983,3.731,19.017,9.761,25.547
	c6.006,6.506,14.3,10.531,23.455,10.531s17.45-4.025,23.455-10.531c6.03-6.53,9.761-15.565,9.761-25.547
	C183.216,40.018,179.485,30.984,173.455,24.454z"/>
<ellipse fill-rule="evenodd" clip-rule="evenodd" fill="#762F17" cx="250" cy="50.001" rx="22.552" ry="39.259"/>
<path fill-rule="evenodd" clip-rule="evenodd" fill="#762F17" d="M250,9.561c6.679,0,12.675,4.624,16.965,12.095
	c4.181,7.277,6.768,17.303,6.768,28.345s-2.587,21.068-6.768,28.345C262.675,85.817,256.68,90.44,250,90.44
	c-6.678,0-12.675-4.622-16.967-12.093c-4.181-7.279-6.768-17.303-6.768-28.346s2.587-21.067,6.768-28.347
	C237.325,14.184,243.322,9.561,250,9.561L250,9.561z M264.927,22.827c-3.868-6.736-9.151-10.904-14.927-10.904
	c-5.775,0-11.06,4.167-14.928,10.903c-3.982,6.931-6.444,16.538-6.444,27.175s2.463,20.244,6.444,27.175
	c3.868,6.736,9.153,10.903,14.928,10.903c5.775,0,11.059-4.168,14.927-10.904c3.98-6.928,6.444-16.537,6.444-27.174
	S268.908,29.755,264.927,22.827z"/>
<path fill-rule="evenodd" clip-rule="evenodd" fill="#F4E900" d="M250.002,88.259c11.871,0,21.554-17.188,21.554-38.258
	c0-21.072-9.682-38.26-21.554-38.26c-11.871,0-21.554,17.188-21.554,38.26C228.447,71.072,238.13,88.259,250.002,88.259z"/>
<path fill-rule="evenodd" clip-rule="evenodd" fill="#DFA100" d="M270.176,36.515h-40.351C232.897,22.039,240.77,11.741,250,11.741
	C259.231,11.741,267.104,22.039,270.176,36.515z"/>
<path fill-rule="evenodd" clip-rule="evenodd" fill="#762F17" d="M250,10.56c6.41,0,12.16,4.515,16.27,11.811
	c3.993,7.09,6.465,16.861,6.465,27.63c0,10.768-2.472,20.539-6.465,27.63c-4.109,7.295-9.86,11.811-16.27,11.811
	c-6.41,0-12.161-4.515-16.27-11.811c-3.993-7.09-6.465-16.862-6.465-27.63c0-10.768,2.472-20.54,6.465-27.63
	C237.84,15.075,243.59,10.56,250,10.56L250,10.56z M264.212,23.524c-3.688-6.549-8.72-10.602-14.212-10.602
	s-10.524,4.053-14.212,10.602c-3.805,6.755-6.161,16.116-6.161,26.477c0,10.36,2.356,19.722,6.161,26.477
	c3.688,6.549,8.72,10.602,14.212,10.602s10.524-4.053,14.212-10.602c3.805-6.755,6.161-16.116,6.161-26.477
	C270.373,39.64,268.017,30.279,264.212,23.524z"/>
<g>
	<path fill-rule="evenodd" clip-rule="evenodd" fill="#762F17" d="M50.002,89.258c21.622,0,39.259-17.636,39.259-39.257
		c0-21.622-17.636-39.259-39.259-39.259S10.743,28.378,10.743,50.001C10.743,71.622,28.38,89.258,50.002,89.258z"/>
	<path fill-rule="evenodd" clip-rule="evenodd" fill="#F4E900" d="M50.002,84.259c18.869,0,34.259-15.39,34.259-34.258
		c0-18.869-15.39-34.259-34.259-34.259c-18.87,0-34.259,15.39-34.259,34.259C15.743,68.869,31.132,84.259,50.002,84.259z"/>
	<path fill-rule="evenodd" clip-rule="evenodd" fill="#F9F5B8" d="M82.044,62.14c-4.9,12.928-17.397,22.12-32.043,22.12
		c-14.647,0-27.143-9.192-32.043-22.12c4.9-12.928,17.396-22.121,32.043-22.121C64.647,40.019,77.144,49.212,82.044,62.14z"/>
	<path fill-rule="evenodd" clip-rule="evenodd" fill="#F6DF54" d="M50.002,79.259c16.116,0,29.259-13.143,29.259-29.258
		c0-16.116-13.143-29.26-29.259-29.26c-16.116,0-29.26,13.143-29.26,29.26C20.743,66.116,33.886,79.259,50.002,79.259z"/>
	<path fill-rule="evenodd" clip-rule="evenodd" fill="#DFA100" d="M73.981,66.768c-5.29,7.553-14.058,12.493-23.98,12.493
		s-18.69-4.94-23.98-12.493c5.29-7.553,14.058-12.493,23.98-12.493S68.69,59.215,73.981,66.768z"/>
	<path fill-rule="evenodd" clip-rule="evenodd" fill="#762F17" d="M50.001,31.169c4.413,0,8.407,1.788,11.298,4.68
		c2.891,2.891,4.681,6.887,4.681,11.3c0,2.706-0.675,5.255-1.862,7.488c-0.852,1.605-1.973,3.051-3.302,4.272
		c0.438,0.245,0.836,0.547,1.185,0.899l-0.002,0.003c0.95,0.959,1.535,2.276,1.535,3.724c0,1.463-0.594,2.789-1.552,3.747
		c-0.958,0.958-2.286,1.552-3.747,1.552c-1.463,0-2.789-0.594-3.746-1.552c-0.131-0.131-0.255-0.268-0.371-0.412
		c-0.115,0.144-0.24,0.281-0.371,0.412c-0.958,0.958-2.285,1.552-3.746,1.552c-1.463,0-2.789-0.594-3.747-1.552
		c-0.131-0.131-0.255-0.268-0.371-0.412c-0.115,0.144-0.24,0.281-0.371,0.412c-0.958,0.958-2.285,1.552-3.746,1.552
		c-1.463,0-2.789-0.594-3.747-1.552s-1.552-2.283-1.552-3.747c0-1.449,0.587-2.768,1.537-3.727c0.348-0.351,0.745-0.653,1.181-0.896
		c-1.329-1.222-2.45-2.666-3.304-4.272c-1.187-2.234-1.861-4.784-1.861-7.49c0-4.409,1.789-8.403,4.68-11.295l0.005-0.005
		C41.597,32.959,45.592,31.169,50.001,31.169L50.001,31.169z M59.629,37.519c-2.462-2.462-5.868-3.987-9.628-3.987
		c-3.762,0-7.168,1.523-9.632,3.985c-2.461,2.464-3.985,5.87-3.985,9.632c0,2.305,0.574,4.479,1.585,6.382
		c1.05,1.976,2.575,3.663,4.417,4.909l1.422,0.96l1.684,0.603c0.217,0.077,0.416,0.143,0.588,0.194h0.005
		c0.215,0.064,0.422,0.123,0.612,0.169l1.51,0.372l-0.767,1.353c-0.118,0.21-0.212,0.436-0.276,0.667l0.002,0.001
		c-0.065,0.241-0.103,0.488-0.106,0.726h-2.353c-0.005-0.307-0.059-0.607-0.15-0.883h-0.001c-0.097-0.287-0.237-0.559-0.411-0.796
		l-0.894-1.226l-1.515,0.014c-0.801,0.007-1.532,0.341-2.06,0.874c-0.522,0.527-0.845,1.259-0.845,2.067
		c0,0.81,0.33,1.546,0.86,2.077c0.53,0.53,1.266,0.86,2.077,0.86c0.81,0,1.546-0.33,2.076-0.86c0.522-0.522,0.849-1.244,0.86-2.039
		v-0.038h2.362v0.038c0.01,0.795,0.338,1.517,0.86,2.039c0.53,0.53,1.266,0.86,2.076,0.86c0.81,0,1.546-0.33,2.076-0.86
		c0.522-0.522,0.849-1.244,0.86-2.039v-0.038v-0.05c-0.005-0.248-0.037-0.48-0.092-0.697h-0.001
		c-0.065-0.248-0.162-0.484-0.283-0.698l-0.765-1.353l1.508-0.372c0.192-0.047,0.398-0.105,0.611-0.169h0.005
		c0.213-0.063,0.413-0.127,0.598-0.193l1.629-0.57l1.47-0.994c1.841-1.245,3.366-2.934,4.416-4.91c1.01-1.9,1.585-4.074,1.585-6.38
		C63.618,43.388,62.093,39.982,59.629,37.519L59.629,37.519z M58.268,60.593l-1.513-0.017l-0.894,1.23
		c-0.183,0.252-0.327,0.528-0.421,0.816v0.005c-0.085,0.266-0.136,0.557-0.14,0.862v0.045v0.038c0.011,0.795,0.338,1.517,0.86,2.039
		c0.53,0.53,1.266,0.86,2.076,0.86s1.546-0.33,2.076-0.86c0.53-0.53,0.86-1.266,0.86-2.077c0-0.808-0.324-1.539-0.846-2.066h-0.005
		C59.793,60.934,59.065,60.601,58.268,60.593z"/>
	<circle fill-rule="evenodd" clip-rule="evenodd" fill="#762F17" cx="43.967" cy="45.381" r="3.534"/>
	<circle fill-rule="evenodd" clip-rule="evenodd" fill="#762F17" cx="56.035" cy="45.381" r="3.534"/>
</g>
<path fill-rule="evenodd" clip-rule="evenodd" fill="#762F17" d="M145.416,89.258c17.522,0,31.813-17.636,31.813-39.257
	c0-21.622-14.291-39.259-31.813-39.259s-31.813,17.636-31.813,39.259C113.603,71.622,127.895,89.258,145.416,89.258z"/>
<path fill-rule="evenodd" clip-rule="evenodd" fill="#F4E900" d="M145.416,84.259c15.29,0,27.762-15.39,27.762-34.258
	c0-18.869-12.471-34.259-27.762-34.259c-15.291,0-27.762,15.39-27.762,34.259C117.654,68.869,130.125,84.259,145.416,84.259z"/>
<path fill-rule="evenodd" clip-rule="evenodd" fill="#F9F5B8" d="M171.382,62.14c-3.972,12.928-14.098,22.12-25.967,22.12
	c-11.869,0-21.995-9.192-25.967-22.12c3.972-12.928,14.098-22.121,25.967-22.121C157.284,40.019,167.41,49.212,171.382,62.14z"/>
<path fill-rule="evenodd" clip-rule="evenodd" fill="#F6DF54" d="M145.416,79.259c13.059,0,23.71-13.143,23.71-29.258
	c0-16.116-10.651-29.26-23.71-29.26c-13.06,0-23.711,13.143-23.711,29.26C121.705,66.116,132.357,79.259,145.416,79.259z"/>
<path fill-rule="evenodd" clip-rule="evenodd" fill="#DFA100" d="M164.846,66.768c-4.286,7.553-11.39,12.493-19.431,12.493
	s-15.145-4.94-19.432-12.493c4.286-7.553,11.391-12.493,19.432-12.493S160.56,59.215,164.846,66.768z"/>
<path fill-rule="evenodd" clip-rule="evenodd" fill="#762F17" d="M145.415,31.169c3.575,0,6.813,1.788,9.156,4.68
	c2.342,2.891,3.792,6.887,3.792,11.3c0,2.706-0.547,5.255-1.508,7.488c-0.691,1.605-1.599,3.051-2.676,4.272
	c0.355,0.245,0.678,0.547,0.96,0.899l-0.002,0.003c0.77,0.959,1.245,2.276,1.245,3.724c0,1.463-0.482,2.789-1.258,3.747
	c-0.776,0.958-1.852,1.552-3.035,1.552c-1.186,0-2.261-0.594-3.037-1.552c-0.106-0.131-0.207-0.268-0.3-0.412
	c-0.095,0.144-0.195,0.281-0.301,0.412c-0.776,0.958-1.852,1.552-3.035,1.552c-1.186,0-2.26-0.594-3.035-1.552
	c-0.106-0.131-0.207-0.268-0.301-0.412c-0.093,0.144-0.194,0.281-0.3,0.412c-0.776,0.958-1.852,1.552-3.037,1.552
	c-1.186,0-2.26-0.594-3.035-1.552s-1.258-2.283-1.258-3.747c0-1.449,0.476-2.768,1.246-3.727c0.282-0.351,0.603-0.653,0.957-0.896
	c-1.076-1.222-1.984-2.666-2.676-4.272c-0.962-2.234-1.508-4.784-1.508-7.49c0-4.409,1.45-8.403,3.791-11.295l0.005-0.005
	C138.605,32.959,141.842,31.169,145.415,31.169L145.415,31.169z M153.217,37.519c-1.996-2.462-4.755-3.987-7.803-3.987
	c-3.048,0-5.809,1.523-7.805,3.985c-1.995,2.464-3.229,5.87-3.229,9.632c0,2.305,0.464,4.479,1.284,6.382
	c0.85,1.976,2.087,3.663,3.58,4.909l1.151,0.96l1.365,0.603c0.176,0.077,0.337,0.143,0.476,0.194h0.005
	c0.174,0.064,0.341,0.123,0.495,0.169l1.223,0.372l-0.621,1.353c-0.095,0.21-0.172,0.436-0.223,0.667l0.001,0.001
	c-0.052,0.241-0.083,0.488-0.086,0.726h-1.907c-0.003-0.307-0.047-0.607-0.121-0.883h-0.001c-0.078-0.287-0.193-0.559-0.333-0.796
	l-0.724-1.226l-1.228,0.014c-0.649,0.007-1.242,0.341-1.669,0.874c-0.423,0.527-0.685,1.259-0.685,2.067
	c0,0.81,0.267,1.546,0.697,2.077c0.43,0.53,1.025,0.86,1.682,0.86s1.253-0.33,1.683-0.86c0.423-0.522,0.688-1.244,0.697-2.039
	v-0.038h1.913v0.038c0.01,0.795,0.274,1.517,0.697,2.039c0.43,0.53,1.026,0.86,1.683,0.86c0.657,0,1.253-0.33,1.683-0.86
	c0.423-0.522,0.688-1.244,0.697-2.039v-0.038v-0.05c-0.005-0.248-0.031-0.48-0.076-0.697h-0.001
	c-0.052-0.248-0.131-0.484-0.228-0.698l-0.62-1.353l1.223-0.372c0.155-0.047,0.322-0.105,0.494-0.169h0.005
	c0.173-0.063,0.334-0.127,0.484-0.193l1.32-0.57l1.192-0.994c1.492-1.245,2.728-2.934,3.579-4.91c0.818-1.9,1.284-4.074,1.284-6.38
	C156.449,43.388,155.213,39.982,153.217,37.519L153.217,37.519z M152.114,60.593l-1.226-0.017l-0.725,1.23
	c-0.148,0.252-0.265,0.528-0.34,0.816v0.005c-0.07,0.266-0.111,0.557-0.115,0.862v0.045v0.038c0.008,0.795,0.274,1.517,0.697,2.039
	c0.43,0.53,1.027,0.86,1.683,0.86s1.252-0.33,1.682-0.86c0.43-0.53,0.697-1.266,0.697-2.077c0-0.808-0.262-1.539-0.685-2.066h-0.004
	C153.351,60.934,152.76,60.601,152.114,60.593z"/>
<ellipse fill-rule="evenodd" clip-rule="evenodd" fill="#762F17" cx="140.525" cy="45.381" rx="2.864" ry="3.534"/>
<ellipse fill-rule="evenodd" clip-rule="evenodd" fill="#762F17" cx="150.305" cy="45.381" rx="2.864" ry="3.534"/>
<path fill-rule="evenodd" clip-rule="evenodd" fill="#762F17" d="M244.542,89.258c9.415,0,17.094-17.636,17.094-39.257
	c0-21.622-7.68-39.259-17.094-39.259s-17.094,17.636-17.094,39.259C227.448,71.622,235.128,89.258,244.542,89.258z"/>
<path fill-rule="evenodd" clip-rule="evenodd" fill="#F4E900" d="M244.542,84.259c8.216,0,14.917-15.39,14.917-34.258
	c0-18.869-6.702-34.259-14.917-34.259s-14.917,15.39-14.917,34.259C229.625,68.869,236.327,84.259,244.542,84.259z"/>
<path fill-rule="evenodd" clip-rule="evenodd" fill="#F9F5B8" d="M258.494,62.14c-2.134,12.928-7.575,22.12-13.952,22.12
	c-6.378,0-11.818-9.192-13.952-22.12c2.134-12.928,7.574-22.121,13.952-22.121C250.919,40.019,256.36,49.212,258.494,62.14z"/>
<path fill-rule="evenodd" clip-rule="evenodd" fill="#F6DF54" d="M244.542,79.259c7.017,0,12.74-13.143,12.74-29.258
	c0-16.116-5.723-29.26-12.74-29.26c-7.017,0-12.74,13.143-12.74,29.26C231.802,66.116,237.525,79.259,244.542,79.259z"/>
<path fill-rule="evenodd" clip-rule="evenodd" fill="#DFA100" d="M254.983,66.768c-2.304,7.553-6.122,12.493-10.442,12.493
	c-4.32,0-8.137-4.94-10.442-12.493c2.305-7.553,6.122-12.493,10.442-12.493C248.862,54.275,252.679,59.215,254.983,66.768z"/>
<path fill-rule="evenodd" clip-rule="evenodd" fill="#762F17" d="M244.541,31.169c1.922,0,3.66,1.788,4.92,4.68
	c1.258,2.891,2.037,6.887,2.037,11.3c0,2.706-0.294,5.255-0.81,7.488c-0.372,1.605-0.86,3.051-1.439,4.272
	c0.191,0.245,0.364,0.547,0.516,0.899l-0.001,0.003c0.413,0.959,0.668,2.276,0.668,3.724c0,1.463-0.259,2.789-0.675,3.747
	c-0.417,0.958-0.995,1.552-1.632,1.552c-0.637,0-1.213-0.594-1.63-1.552c-0.058-0.131-0.111-0.268-0.162-0.412
	c-0.051,0.144-0.104,0.281-0.162,0.412c-0.417,0.958-0.995,1.552-1.631,1.552c-0.637,0-1.214-0.594-1.631-1.552
	c-0.058-0.131-0.111-0.268-0.162-0.412c-0.051,0.144-0.104,0.281-0.162,0.412c-0.417,0.958-0.995,1.552-1.63,1.552
	c-0.639,0-1.215-0.594-1.632-1.552c-0.417-0.958-0.676-2.283-0.676-3.747c0-1.449,0.255-2.768,0.67-3.727
	c0.151-0.351,0.325-0.653,0.514-0.896c-0.577-1.222-1.066-2.666-1.438-4.272c-0.516-2.234-0.81-4.784-0.81-7.49
	c0-4.409,0.78-8.403,2.038-11.295l0.003-0.005C240.882,32.959,242.622,31.169,244.541,31.169L244.541,31.169z M248.734,37.519
	c-1.072-2.462-2.556-3.987-4.193-3.987c-1.638,0-3.122,1.523-4.194,3.985c-1.072,2.464-1.735,5.87-1.735,9.632
	c0,2.305,0.25,4.479,0.691,6.382c0.456,1.976,1.121,3.663,1.923,4.909l0.619,0.96l0.733,0.603c0.095,0.077,0.182,0.143,0.256,0.194
	h0.003c0.093,0.064,0.183,0.123,0.266,0.169l0.657,0.372l-0.333,1.353c-0.052,0.21-0.092,0.436-0.12,0.667l0.001,0.001
	c-0.028,0.241-0.045,0.488-0.046,0.726h-1.024c-0.004-0.307-0.026-0.607-0.066-0.883h-0.001c-0.041-0.287-0.102-0.559-0.178-0.796
	l-0.388-1.226l-0.66,0.014c-0.348,0.007-0.668,0.341-0.898,0.874c-0.227,0.527-0.367,1.259-0.367,2.067
	c0,0.81,0.143,1.546,0.375,2.077c0.231,0.53,0.552,0.86,0.905,0.86c0.352,0,0.672-0.33,0.904-0.86
	c0.227-0.522,0.37-1.244,0.373-2.039v-0.038h1.029v0.038c0.005,0.795,0.148,1.517,0.375,2.039c0.231,0.53,0.552,0.86,0.905,0.86
	c0.353,0,0.673-0.33,0.905-0.86c0.227-0.522,0.37-1.244,0.374-2.039v-0.038v-0.05c-0.003-0.248-0.017-0.48-0.04-0.697h-0.001
	c-0.028-0.248-0.071-0.484-0.123-0.698l-0.333-1.353l0.657-0.372c0.084-0.047,0.173-0.105,0.266-0.169h0.002
	c0.092-0.063,0.18-0.127,0.26-0.193l0.709-0.57l0.641-0.994c0.801-1.245,1.466-2.934,1.922-4.91c0.44-1.9,0.691-4.074,0.691-6.38
	C250.47,43.388,249.807,39.982,248.734,37.519L248.734,37.519z M248.141,60.593l-0.659-0.017l-0.39,1.23
	c-0.079,0.252-0.142,0.528-0.183,0.816v0.005c-0.037,0.266-0.059,0.557-0.06,0.862v0.045v0.038c0.004,0.795,0.147,1.517,0.373,2.039
	c0.231,0.53,0.552,0.86,0.903,0.86c0.353,0,0.673-0.33,0.905-0.86c0.231-0.53,0.374-1.266,0.374-2.077
	c0-0.808-0.14-1.539-0.367-2.066h-0.003C248.805,60.934,248.488,60.601,248.141,60.593z"/>
<ellipse fill-rule="evenodd" clip-rule="evenodd" fill="#762F17" cx="241.913" cy="45.381" rx="1.539" ry="3.534"/>
<ellipse fill-rule="evenodd" clip-rule="evenodd" fill="#762F17" cx="247.169" cy="45.381" rx="1.539" ry="3.534"/>
<ellipse fill-rule="evenodd" clip-rule="evenodd" fill="#762F17" cx="350" cy="50.001" rx="8.311" ry="39.259"/>
<path fill-rule="evenodd" clip-rule="evenodd" fill="#762F17" d="M350,9.561c-2.461,0-4.671,4.624-6.252,12.095
	c-1.543,7.277-2.495,17.303-2.495,28.345s0.953,21.068,2.495,28.345c1.58,7.47,3.79,12.094,6.252,12.094
	c2.461,0,4.671-4.622,6.252-12.093c1.543-7.279,2.495-17.303,2.495-28.346s-0.953-21.067-2.495-28.347
	C354.671,14.184,352.461,9.561,350,9.561L350,9.561z M344.498,22.827c1.426-6.736,3.375-10.904,5.502-10.904
	c2.127,0,4.076,4.167,5.502,10.903c1.468,6.931,2.376,16.538,2.376,27.175s-0.908,20.244-2.376,27.175
	c-1.426,6.736-3.375,10.903-5.502,10.903c-2.127,0-4.076-4.168-5.502-10.904c-1.467-6.928-2.374-16.537-2.374-27.174
	S343.031,29.755,344.498,22.827z"/>
<path fill-rule="evenodd" clip-rule="evenodd" fill="#F4E900" d="M350,88.259c2.923,0,5.307-17.188,5.307-38.258
	c0-21.072-2.383-38.26-5.307-38.26c-2.923,0-5.307,17.188-5.307,38.26C344.693,71.072,347.076,88.259,350,88.259z"/>
<path fill-rule="evenodd" clip-rule="evenodd" fill="#762F17" d="M350,10.56c-2.073,0-3.932,4.515-5.26,11.811
	c-1.291,7.09-2.09,16.861-2.09,27.63c0,10.768,0.8,20.539,2.09,27.63c1.328,7.295,3.187,11.811,5.26,11.811
	c2.073,0,3.932-4.515,5.26-11.811c1.291-7.09,2.09-16.862,2.09-27.63c0-10.768-0.8-20.54-2.09-27.63
	C353.932,15.075,352.073,10.56,350,10.56L350,10.56z M345.405,23.524c1.193-6.549,2.82-10.602,4.595-10.602
	c1.775,0,3.402,4.053,4.595,10.602c1.23,6.755,1.991,16.116,1.991,26.477c0,10.36-0.762,19.722-1.991,26.477
	c-1.193,6.549-2.819,10.602-4.595,10.602c-1.775,0-3.402-4.053-4.595-10.602c-1.23-6.755-1.991-16.116-1.991-26.477
	C343.414,39.64,344.175,30.279,345.405,23.524z"/>
<path fill-rule="evenodd" clip-rule="evenodd" fill="#762F17" d="M549.997,9.561c-10.39,0-19.795,4.539-26.598,11.878
	c-6.783,7.315-10.98,17.416-10.98,28.562c0,11.146,4.197,21.247,10.98,28.563c6.803,7.338,16.208,11.877,26.598,11.877
	c10.393,0,19.798-4.54,26.6-11.876c6.783-7.317,10.98-17.417,10.98-28.564s-4.196-21.247-10.98-28.564
	C569.795,14.101,560.389,9.561,549.997,9.561L549.997,9.561z M525.123,23.045c6.37-6.87,15.165-11.121,24.874-11.121
	c9.71,0,18.507,4.251,24.875,11.12c6.39,6.893,10.342,16.423,10.342,26.957s-3.952,20.065-10.342,26.958
	c-6.368,6.869-15.165,11.12-24.875,11.12c-9.708,0-18.504-4.251-24.874-11.121c-6.389-6.89-10.342-16.422-10.342-26.956
	S518.734,29.935,525.123,23.045z"/>
<ellipse fill-rule="evenodd" clip-rule="evenodd" fill="#F4E900" cx="549.997" cy="50.001" rx="34.397" ry="37.259"/>
<path fill-rule="evenodd" clip-rule="evenodd" fill="#DFA100" d="M551.806,12.793v23.722h-33.882
	c4.989-13.911,17.467-23.773,32.073-23.773C550.604,12.742,551.206,12.758,551.806,12.793z"/>
<path fill-rule="evenodd" clip-rule="evenodd" fill="#762F17" d="M549.997,11.561c-9.84,0-18.747,4.318-25.189,11.296
	c-6.418,6.951-10.389,16.552-10.389,27.144s3.971,20.193,10.389,27.144c6.442,6.978,15.35,11.296,25.189,11.296
	c9.841,0,18.748-4.318,25.19-11.296c6.418-6.951,10.389-16.552,10.389-27.144s-3.971-20.193-10.389-27.144
	C568.745,15.879,559.838,11.561,549.997,11.561L549.997,11.561z M526.541,24.454c6.006-6.506,14.3-10.531,23.455-10.531
	c9.156,0,17.45,4.025,23.456,10.531c6.03,6.53,9.76,15.564,9.76,25.547c0,9.983-3.731,19.017-9.76,25.547
	c-6.006,6.506-14.3,10.531-23.456,10.531c-9.156,0-17.45-4.025-23.455-10.531c-6.03-6.53-9.76-15.565-9.76-25.547
	C516.781,40.018,520.512,30.984,526.541,24.454z"/>
<g>
	<path fill-rule="evenodd" clip-rule="evenodd" fill="#762F17" d="M554.582,89.258c17.522,0,31.813-17.636,31.813-39.257
		c0-21.622-14.291-39.259-31.813-39.259s-31.813,17.636-31.813,39.259C522.769,71.622,537.06,89.258,554.582,89.258z"/>
	<path fill-rule="evenodd" clip-rule="evenodd" fill="#F4E900" d="M554.582,84.259c15.29,0,27.762-15.39,27.762-34.258
		c0-18.869-12.471-34.259-27.762-34.259c-15.291,0-27.762,15.39-27.762,34.259C526.82,68.869,539.291,84.259,554.582,84.259z"/>
	<path fill-rule="evenodd" clip-rule="evenodd" fill="#F9F5B8" d="M528.615,62.14c3.972,12.928,14.097,22.12,25.967,22.12
		c11.869,0,21.994-9.192,25.966-22.12c-3.972-12.928-14.098-22.121-25.966-22.121C542.713,40.019,532.587,49.212,528.615,62.14z"/>
	<path fill-rule="evenodd" clip-rule="evenodd" fill="#F6DF54" d="M554.582,79.259c13.059,0,23.71-13.143,23.71-29.258
		c0-16.116-10.651-29.26-23.71-29.26c-13.06,0-23.711,13.143-23.711,29.26C530.871,66.116,541.522,79.259,554.582,79.259z"/>
	<path fill-rule="evenodd" clip-rule="evenodd" fill="#DFA100" d="M535.15,66.768c4.286,7.553,11.39,12.493,19.432,12.493
		c8.041,0,15.145-4.94,19.431-12.493c-4.286-7.553-11.39-12.493-19.431-12.493C546.541,54.275,539.437,59.215,535.15,66.768z"/>
	<path fill-rule="evenodd" clip-rule="evenodd" fill="#762F17" d="M554.582,31.169c-3.575,0-6.813,1.788-9.156,4.68
		c-2.342,2.891-3.793,6.887-3.793,11.3c0,2.706,0.547,5.255,1.508,7.488c0.691,1.605,1.599,3.051,2.676,4.272
		c-0.355,0.245-0.678,0.547-0.96,0.899l0.003,0.003c-0.77,0.959-1.245,2.276-1.245,3.724c0,1.463,0.482,2.789,1.258,3.747
		c0.776,0.958,1.852,1.552,3.035,1.552c1.186,0,2.26-0.594,3.037-1.552c0.106-0.131,0.207-0.268,0.3-0.412
		c0.094,0.144,0.195,0.281,0.301,0.412c0.776,0.958,1.852,1.552,3.036,1.552c1.186,0,2.259-0.594,3.035-1.552
		c0.106-0.131,0.207-0.268,0.301-0.412c0.093,0.144,0.194,0.281,0.3,0.412c0.776,0.958,1.852,1.552,3.037,1.552
		c1.186,0,2.26-0.594,3.035-1.552c0.776-0.958,1.258-2.283,1.258-3.747c0-1.449-0.476-2.768-1.246-3.727
		c-0.283-0.351-0.604-0.653-0.957-0.896c1.076-1.222,1.984-2.666,2.676-4.272c0.961-2.234,1.508-4.784,1.508-7.49
		c0-4.409-1.45-8.403-3.791-11.295l-0.005-0.005C561.392,32.959,558.155,31.169,554.582,31.169L554.582,31.169z M546.78,37.519
		c1.996-2.462,4.755-3.987,7.803-3.987c3.048,0,5.808,1.523,7.805,3.985c1.995,2.464,3.229,5.87,3.229,9.632
		c0,2.305-0.464,4.479-1.284,6.382c-0.85,1.976-2.087,3.663-3.58,4.909l-1.152,0.96l-1.365,0.603
		c-0.176,0.077-0.337,0.143-0.476,0.194h-0.005c-0.173,0.064-0.341,0.123-0.495,0.169l-1.224,0.372l0.621,1.353
		c0.096,0.21,0.173,0.436,0.223,0.667l-0.001,0.001c0.052,0.241,0.083,0.488,0.086,0.726h1.906c0.003-0.307,0.047-0.607,0.122-0.883
		h0.001c0.078-0.287,0.193-0.559,0.333-0.796l0.724-1.226l1.228,0.014c0.648,0.007,1.241,0.341,1.669,0.874
		c0.423,0.527,0.685,1.259,0.685,2.067c0,0.81-0.267,1.546-0.697,2.077c-0.43,0.53-1.025,0.86-1.682,0.86s-1.253-0.33-1.683-0.86
		c-0.423-0.522-0.689-1.244-0.697-2.039v-0.038h-1.913v0.038c-0.009,0.795-0.274,1.517-0.697,2.039
		c-0.43,0.53-1.026,0.86-1.683,0.86c-0.657,0-1.253-0.33-1.683-0.86c-0.423-0.522-0.688-1.244-0.697-2.039v-0.038v-0.05
		c0.005-0.248,0.03-0.48,0.075-0.697h0.001c0.052-0.248,0.131-0.484,0.228-0.698l0.62-1.353l-1.222-0.372
		c-0.155-0.047-0.322-0.105-0.493-0.169h-0.005c-0.172-0.063-0.334-0.127-0.484-0.193l-1.319-0.57l-1.192-0.994
		c-1.492-1.245-2.729-2.934-3.579-4.91c-0.819-1.9-1.284-4.074-1.284-6.38C543.548,43.388,544.783,39.982,546.78,37.519
		L546.78,37.519z M547.883,60.593l1.226-0.017l0.725,1.23c0.148,0.252,0.265,0.528,0.34,0.816v0.005
		c0.07,0.266,0.111,0.557,0.115,0.862v0.045v0.038c-0.008,0.795-0.274,1.517-0.697,2.039c-0.43,0.53-1.026,0.86-1.683,0.86
		s-1.252-0.33-1.682-0.86c-0.43-0.53-0.697-1.266-0.697-2.077c0-0.808,0.262-1.539,0.685-2.066h0.003
		C546.646,60.934,547.237,60.601,547.883,60.593z"/>
	<ellipse fill-rule="evenodd" clip-rule="evenodd" fill="#762F17" cx="559.472" cy="45.381" rx="2.864" ry="3.534"/>
	<ellipse fill-rule="evenodd" clip-rule="evenodd" fill="#762F17" cx="549.692" cy="45.381" rx="2.864" ry="3.534"/>
</g>
<ellipse fill-rule="evenodd" clip-rule="evenodd" fill="#762F17" cx="449.999" cy="50.001" rx="22.552" ry="39.259"/>
<path fill-rule="evenodd" clip-rule="evenodd" fill="#762F17" d="M449.999,9.561c-6.679,0-12.674,4.624-16.965,12.095
	c-4.181,7.277-6.768,17.303-6.768,28.345s2.587,21.068,6.768,28.345c4.291,7.47,10.286,12.094,16.965,12.094
	c6.678,0,12.676-4.622,16.967-12.093c4.181-7.279,6.768-17.303,6.768-28.346s-2.587-21.067-6.768-28.347
	C462.675,14.184,456.677,9.561,449.999,9.561L449.999,9.561z M435.072,22.827c3.868-6.736,9.151-10.904,14.927-10.904
	c5.776,0,11.06,4.167,14.928,10.903c3.982,6.931,6.444,16.538,6.444,27.175s-2.462,20.244-6.444,27.175
	c-3.868,6.736-9.152,10.903-14.928,10.903c-5.775,0-11.059-4.168-14.927-10.904c-3.98-6.928-6.444-16.537-6.444-27.174
	S431.092,29.755,435.072,22.827z"/>
<path fill-rule="evenodd" clip-rule="evenodd" fill="#F4E900" d="M449.999,88.259c11.871,0,21.554-17.188,21.554-38.258
	c0-21.072-9.683-38.26-21.554-38.26s-21.554,17.188-21.554,38.26C428.445,71.072,438.128,88.259,449.999,88.259z"/>
<path fill-rule="evenodd" clip-rule="evenodd" fill="#DFA100" d="M470.175,36.515h-40.351c3.072-14.476,10.945-24.774,20.175-24.774
	C459.229,11.741,467.102,22.039,470.175,36.515z"/>
<path fill-rule="evenodd" clip-rule="evenodd" fill="#762F17" d="M449.999,10.56c-6.41,0-12.16,4.515-16.27,11.811
	c-3.993,7.09-6.465,16.861-6.465,27.63c0,10.768,2.472,20.539,6.465,27.63c4.109,7.295,9.86,11.811,16.27,11.811
	c6.41,0,12.161-4.515,16.27-11.811c3.993-7.09,6.465-16.862,6.465-27.63c0-10.768-2.472-20.54-6.465-27.63
	C462.16,15.075,456.409,10.56,449.999,10.56L449.999,10.56z M435.787,23.524c3.688-6.549,8.72-10.602,14.212-10.602
	c5.492,0,10.524,4.053,14.212,10.602c3.805,6.755,6.161,16.116,6.161,26.477c0,10.36-2.356,19.722-6.161,26.477
	c-3.688,6.549-8.72,10.602-14.212,10.602c-5.492,0-10.524-4.053-14.212-10.602c-3.805-6.755-6.161-16.116-6.161-26.477
	C429.626,39.64,431.982,30.279,435.787,23.524z"/>
<g>
	<path fill-rule="evenodd" clip-rule="evenodd" fill="#762F17" d="M455.458,89.258c9.415,0,17.094-17.636,17.094-39.257
		c0-21.622-7.68-39.259-17.094-39.259s-17.094,17.636-17.094,39.259C438.364,71.622,446.043,89.258,455.458,89.258z"/>
	<path fill-rule="evenodd" clip-rule="evenodd" fill="#F4E900" d="M455.458,84.259c8.216,0,14.917-15.39,14.917-34.258
		c0-18.869-6.701-34.259-14.917-34.259c-8.216,0-14.918,15.39-14.918,34.259C440.54,68.869,447.242,84.259,455.458,84.259z"/>
	<path fill-rule="evenodd" clip-rule="evenodd" fill="#F9F5B8" d="M441.505,62.14c2.134,12.928,7.575,22.12,13.953,22.12
		c6.378,0,11.818-9.192,13.952-22.12c-2.135-12.928-7.575-22.121-13.952-22.121C449.08,40.019,443.64,49.212,441.505,62.14z"/>
	<path fill-rule="evenodd" clip-rule="evenodd" fill="#F6DF54" d="M455.458,79.259c7.017,0,12.74-13.143,12.74-29.258
		c0-16.116-5.723-29.26-12.74-29.26c-7.017,0-12.74,13.143-12.74,29.26C442.717,66.116,448.441,79.259,455.458,79.259z"/>
	<path fill-rule="evenodd" clip-rule="evenodd" fill="#DFA100" d="M445.017,66.768c2.303,7.553,6.12,12.493,10.441,12.493
		c4.32,0,8.138-4.94,10.441-12.493c-2.303-7.553-6.12-12.493-10.441-12.493C451.137,54.275,447.32,59.215,445.017,66.768z"/>
	<path fill-rule="evenodd" clip-rule="evenodd" fill="#762F17" d="M455.458,31.169c-1.922,0-3.66,1.788-4.919,4.68
		c-1.259,2.891-2.039,6.887-2.039,11.3c0,2.706,0.294,5.255,0.81,7.488c0.372,1.605,0.86,3.051,1.438,4.272
		c-0.191,0.245-0.364,0.547-0.516,0.899l0.001,0.003c-0.413,0.959-0.668,2.276-0.668,3.724c0,1.463,0.259,2.789,0.675,3.747
		c0.417,0.958,0.996,1.552,1.631,1.552c0.638,0,1.214-0.594,1.631-1.552c0.057-0.131,0.111-0.268,0.162-0.412
		c0.051,0.144,0.105,0.281,0.162,0.412c0.417,0.958,0.995,1.552,1.631,1.552c0.637,0,1.214-0.594,1.631-1.552
		c0.057-0.131,0.111-0.268,0.162-0.412c0.051,0.144,0.104,0.281,0.162,0.412c0.417,0.958,0.995,1.552,1.631,1.552
		c0.637,0,1.214-0.594,1.631-1.552c0.417-0.958,0.675-2.283,0.675-3.747c0-1.449-0.255-2.768-0.67-3.727
		c-0.151-0.351-0.325-0.653-0.514-0.896c0.579-1.222,1.066-2.666,1.438-4.272c0.516-2.234,0.81-4.784,0.81-7.49
		c0-4.409-0.78-8.403-2.038-11.295l-0.003-0.005C459.117,32.959,457.377,31.169,455.458,31.169L455.458,31.169z M451.265,37.519
		c1.073-2.462,2.556-3.987,4.193-3.987c1.638,0,3.122,1.523,4.194,3.985c1.071,2.464,1.735,5.87,1.735,9.632
		c0,2.305-0.25,4.479-0.69,6.382c-0.457,1.976-1.122,3.663-1.924,4.909l-0.619,0.96l-0.733,0.603
		c-0.095,0.077-0.181,0.143-0.256,0.194h-0.003c-0.093,0.064-0.183,0.123-0.266,0.169l-0.658,0.372l0.334,1.353
		c0.052,0.21,0.092,0.436,0.12,0.667l-0.001,0.001c0.028,0.241,0.045,0.488,0.046,0.726h1.025c0.001-0.307,0.025-0.607,0.065-0.883
		l0,0c0.043-0.287,0.104-0.559,0.18-0.796l0.388-1.226l0.66,0.014c0.348,0.007,0.668,0.341,0.897,0.874
		c0.228,0.527,0.368,1.259,0.368,2.067c0,0.81-0.143,1.546-0.375,2.077c-0.23,0.53-0.551,0.86-0.903,0.86
		c-0.353,0-0.673-0.33-0.905-0.86c-0.227-0.522-0.37-1.244-0.375-2.039v-0.038h-1.029v0.038c-0.004,0.795-0.147,1.517-0.375,2.039
		c-0.23,0.53-0.55,0.86-0.903,0.86c-0.353,0-0.673-0.33-0.904-0.86c-0.228-0.522-0.371-1.244-0.374-2.039v-0.038v-0.05
		c0.001-0.248,0.015-0.48,0.04-0.697l0,0c0.028-0.248,0.071-0.484,0.123-0.698l0.333-1.353l-0.657-0.372
		c-0.083-0.047-0.173-0.105-0.265-0.169h-0.003c-0.092-0.063-0.18-0.127-0.26-0.193l-0.71-0.57l-0.64-0.994
		c-0.801-1.245-1.466-2.934-1.923-4.91c-0.439-1.9-0.69-4.074-0.69-6.38C449.529,43.388,450.192,39.982,451.265,37.519
		L451.265,37.519z M451.858,60.593l0.659-0.017l0.39,1.23c0.079,0.252,0.142,0.528,0.183,0.816v0.005
		c0.037,0.266,0.059,0.557,0.062,0.862v0.045v0.038c-0.005,0.795-0.147,1.517-0.375,2.039c-0.231,0.53-0.552,0.86-0.905,0.86
		c-0.352,0-0.673-0.33-0.904-0.86c-0.231-0.53-0.374-1.266-0.374-2.077c0-0.808,0.14-1.539,0.368-2.066h0.001
		C451.194,60.934,451.512,60.601,451.858,60.593z"/>
	<ellipse fill-rule="evenodd" clip-rule="evenodd" fill="#762F17" cx="458.086" cy="45.381" rx="1.539" ry="3.534"/>
	<ellipse fill-rule="evenodd" clip-rule="evenodd" fill="#762F17" cx="452.83" cy="45.381" rx="1.539" ry="3.534"/>
</g>
<path fill-rule="evenodd" clip-rule="evenodd" fill="#DFA100" d="M354.966,36.515h-9.933c0.757-14.476,2.694-24.774,4.967-24.774
	C352.272,11.741,354.209,22.039,354.966,36.515z"/>
<rect fill-rule="evenodd" clip-rule="evenodd" fill="none" width="600" height="100"/>
</svg>
