<?xml version="1.0" encoding="utf-8"?>
<!-- Generator: Adobe Illustrator 17.0.0, SVG Export Plug-In . SVG Version: 6.00 Build 0)  -->
<!DOCTYPE svg PUBLIC "-//W3C//DTD SVG 1.1//EN" "http://www.w3.org/Graphics/SVG/1.1/DTD/svg11.dtd">
<svg version="1.1" id="Capa_2" xmlns="http://www.w3.org/2000/svg" xmlns:xlink="http://www.w3.org/1999/xlink" x="0px" y="0px"
	 width="600px" height="100px" viewBox="0 0 600 100" enable-background="new 0 0 600 100" xml:space="preserve">
<g>
	<path fill="#999999" d="M90.555,49.484c-1.261-1.51-4.823-3.092-5.643-3.442c-0.091-0.807-0.224-1.631-0.37-2.428
		c0.453-0.612,2.003-2.596,3.297-2.838c1.532-0.288,4.553,2.275,4.553,2.275s-2.348-5.634-4.27-6.764
		c-1.671-0.982-5.445-1.286-6.404-1.349c-0.35-0.757-0.74-1.526-1.148-2.26c0.253-0.807,1.04-3.064,2.143-3.705
		c1.347-0.785,5.032,0.627,5.032,0.627s-3.98-4.393-6.159-4.865c-1.846-0.4-5.399,0.456-6.447,0.729
		c-0.617-0.624-1.266-1.241-1.931-1.82c-0.028-0.924-0.012-3.203,0.78-4.146c1.001-1.194,5.079-0.951,5.079-0.951
		s-5.339-2.982-7.549-2.689c-1.802,0.238-4.669,2.074-5.68,2.752c-0.845-0.416-1.712-0.81-2.587-1.159
		c-0.338-0.948-0.939-2.928-0.509-4.003c0.578-1.445,4.354-2.611,4.354-2.611s-5.842-0.991-7.851-0.024
		c-1.605,0.774-3.713,3.361-4.504,4.381c-0.371-0.046-0.749-0.098-1.118-0.136c-0.574-0.669-1.992-2.445-1.948-3.69
		C51.732,9.812,54.3,7.334,54.3,7.334c-2.718,0.892-5.8,1.538-7.407,3.626c-1.371,1.782-1.383,4.883-2.269,7.167
		c-1.01,0.151-2.014,0.349-3.005,0.584c-0.863-0.617-2.32-1.792-2.578-2.845c-0.371-1.513,2.036-4.654,2.036-4.654
		s-5.352,2.583-6.42,4.54c-0.808,1.478-1.039,4.559-1.104,5.978c-0.946,0.499-1.878,1.048-2.77,1.627
		c-1.036-0.308-2.703-0.921-3.279-1.795c-0.855-1.302,0.353-5.042,0.353-5.042s-4.166,4.169-4.525,6.371
		c-0.267,1.633,0.496,4.535,0.907,5.922c-0.752,0.805-1.478,1.647-2.15,2.513c-1.088,0.041-2.796-0.006-3.604-0.626
		c-1.235-0.948-1.193-5.022-1.193-5.022s-2.706,5.448-2.322,7.646c0.286,1.63,1.955,4.115,2.798,5.289
		c-0.438,1-0.837,2.025-1.185,3.06c-1.009,0.381-2.646,0.882-3.614,0.542c-1.469-0.516-2.804-4.251-2.804-4.251
		s-0.79,6.078,0.316,8.014c0.814,1.427,3.176,3.18,4.367,4.006c0.004,0.143,0.017,0.311,0.021,0.457
		c-0.829,0.706-2.199,1.728-3.217,1.743c-1.558,0.023-4.048-3.037-4.048-3.037s1.24,5.825,2.912,7.302
		c1.253,1.107,4.147,2.018,5.513,2.405c0.266,1.025,0.587,2.055,0.947,3.055c-0.543,0.93-1.54,2.414-2.531,2.764
		c-1.47,0.518-4.823-1.564-4.823-1.564s3.078,5.064,5.13,5.936c1.559,0.664,4.663,0.593,6.07,0.52
		c0.583,0.869,1.219,1.714,1.88,2.522C22.5,73.14,22.046,74.93,21.211,75.6c-1.214,0.975-5.049,0.131-5.049,0.131
		s4.542,3.749,6.767,3.897c1.75,0.117,4.782-1.044,6.006-1.548c0.796,0.603,1.624,1.179,2.47,1.711
		c0.158,1.038,0.351,2.983-0.238,3.927c-0.824,1.32-4.885,1.664-4.885,1.664s5.689,2.184,7.837,1.588
		c1.752-0.487,4.341-2.71,5.248-3.524c0.888,0.277,1.798,0.531,2.708,0.742c0.463,0.873,1.369,2.784,1.091,3.925
		c-0.366,1.514-3.953,3.203-3.953,3.203s5.959,0.152,7.806-1.096c1.547-1.045,3.352-4.139,3.905-5.128
		c0.896-0.013,1.806-0.065,2.703-0.146c0.692,0.643,2.243,2.203,2.352,3.407c0.141,1.552-2.715,4.315-2.715,4.315
		s5.874-1.795,7.175-3.606c1.124-1.563,1.774-5.238,1.931-6.216c0.785-0.294,1.565-0.625,2.329-0.972
		c0.756,0.313,2.986,1.318,3.533,2.487c0.659,1.411-1.082,4.945-1.082,4.945s4.733-3.541,5.404-5.667
		c0.585-1.855,0.012-5.647-0.144-6.59c0.619-0.522,1.233-1.084,1.816-1.65c0.742,0.04,3.308,0.245,4.236,1.195
		c1.087,1.115,0.612,5.011,0.612,5.011s3.301-4.875,3.236-7.104c-0.058-2.023-1.97-5.584-2.325-6.229
		c0.418-0.676,0.826-1.38,1.199-2.087c0.699-0.203,3.221-0.867,4.417-0.273c1.395,0.692,2.121,4.705,2.121,4.705
		s1.639-5.885,0.835-7.963c-0.742-1.917-3.792-4.682-4.271-5.108c0.168-0.767,0.327-1.562,0.446-2.337
		c0.573-0.402,2.759-1.862,4.093-1.678c1.542,0.214,3.569,3.615,3.569,3.615S91.984,51.195,90.555,49.484z M83.011,52.752
		l-1.049,0.735l-0.195,1.265l-0.026,0.17c-0.003,0.004-0.006,0.008-0.009,0.012c-0.106,0.66-0.234,1.318-0.376,1.97l-0.375,1.714
		l1.309,1.166c0.631,0.563,1.991,1.871,2.828,2.939c-1.591-0.177-3.354,0.171-4.772,0.583l-1.222,0.355l-0.594,1.125
		c-0.341,0.65-0.71,1.285-1.096,1.909l-0.921,1.488l0.843,1.534c0.404,0.736,1.249,2.416,1.684,3.698
		c-1.432-0.683-3.19-0.931-4.653-1.01l-1.309-0.071l-0.94,0.912c-0.537,0.521-1.092,1.029-1.663,1.51l-1.304,1.1l0.279,1.682
		c0.135,0.817,0.379,2.663,0.371,4.004c-1.107-1.092-2.642-1.888-3.975-2.44l-1.203-0.497l-1.185,0.538
		c-0.705,0.32-1.418,0.624-2.143,0.895l-1.631,0.612l-0.276,1.72c-0.135,0.837-0.496,2.698-0.94,3.951
		c-0.635-1.372-1.762-2.608-2.801-3.573l-0.979-0.909l-1.333,0.12c-0.822,0.075-1.649,0.123-2.475,0.135l-1.729,0.025l-0.845,1.51
		c-0.394,0.705-1.32,2.251-2.139,3.268c-0.174-1.445-0.805-2.909-1.443-4.114l-0.642-1.208l-1.333-0.308
		c-0.837-0.194-1.667-0.425-2.488-0.682l-1.628-0.509l-1.27,1.139c-0.586,0.527-1.898,1.638-2.97,2.323
		c0.287-1.372,0.175-2.893-0.024-4.198l-0.207-1.355l-1.16-0.73c-0.774-0.487-1.528-1.011-2.256-1.564l-1.367-1.037l-1.587,0.655
		c-0.705,0.29-2.257,0.881-3.463,1.168c0.692-1.158,1.077-2.566,1.319-3.82l0.267-1.38l-0.89-1.088
		c-0.605-0.738-1.18-1.502-1.712-2.293l-0.947-1.412l-1.698,0.088c-0.742,0.039-2.359,0.082-3.566-0.042
		c1.017-0.849,1.832-2.021,2.465-3.105l0.708-1.21l-0.475-1.319c-0.331-0.917-0.621-1.85-0.866-2.792l-0.432-1.665l-1.654-0.468
		c-0.709-0.201-2.22-0.668-3.307-1.165c1.21-0.462,2.337-1.281,3.275-2.08l1.1-0.936l-0.046-1.443
		c-0.005-0.145-0.018-0.291-0.022-0.435l-0.038-1.521l-1.25-0.867c-0.094-0.065-0.208-0.146-0.33-0.234
		c-0.033-0.024-0.067-0.048-0.102-0.074c-0.099-0.072-0.203-0.148-0.314-0.23c-0.042-0.031-0.08-0.059-0.123-0.091
		c-0.146-0.109-0.297-0.224-0.452-0.344c-0.032-0.025-0.063-0.05-0.095-0.075c-0.129-0.101-0.257-0.204-0.386-0.309
		c-0.026-0.021-0.052-0.041-0.077-0.062c0-0.001,0-0.002-0.001-0.002c-0.314-0.258-0.62-0.523-0.883-0.776
		c0.28-0.002,0.563-0.03,0.845-0.063c0.116-0.014,0.232-0.031,0.348-0.049c0.197-0.031,0.392-0.068,0.587-0.111
		c0.114-0.025,0.229-0.049,0.342-0.078c0.206-0.052,0.408-0.109,0.609-0.17c0.093-0.028,0.188-0.053,0.28-0.083
		c0.287-0.093,0.569-0.191,0.838-0.293l1.33-0.503l0.309-0.922c0,0,0,0,0,0l0.143-0.425c0.32-0.953,0.685-1.891,1.089-2.811
		l0.685-1.565l-0.997-1.388c-0.422-0.588-1.299-1.875-1.839-2.93c1.232,0.382,2.614,0.437,3.838,0.39L23.6,34.27l0.857-1.104
		c0.621-0.799,1.284-1.566,1.975-2.306l1.17-1.254l-0.488-1.645c-0.205-0.693-0.612-2.201-0.776-3.377
		c1.064,0.781,2.39,1.291,3.589,1.649l1.326,0.395l1.161-0.753c0.822-0.534,1.669-1.033,2.535-1.49l1.52-0.8l0.078-1.716
		c0.034-0.738,0.149-2.351,0.389-3.538c0.767,1.124,1.892,2.073,2.938,2.82l1.109,0.794l1.328-0.315
		c0.911-0.215,1.831-0.398,2.757-0.536l1.722-0.258l0.63-1.624c0.496-1.278,1.008-4.546,1.595-5.948
		c0.49,1.393,1.435,2.703,2.334,3.749l0.78,0.908l1.19,0.122c0.352,0.035,0.703,0.085,1.054,0.129l1.693,0.21l1.046-1.348
		c0.475-0.613,1.564-1.938,2.488-2.799c-0.03,1.438,0.376,2.955,0.829,4.225l0.455,1.277l1.26,0.502
		c0.805,0.32,1.596,0.681,2.374,1.064l1.554,0.764l1.439-0.965c0.657-0.441,2.107-1.355,3.262-1.883
		c-0.518,1.427-0.604,3.104-0.56,4.518l0.04,1.31l0.988,0.86c0.612,0.533,1.199,1.093,1.77,1.669l1.215,1.227l1.671-0.436
		c0.784-0.205,2.554-0.606,3.864-0.718c-0.976,1.19-1.623,2.769-2.05,4.134l-0.385,1.229l0.626,1.124
		c0.373,0.673,0.724,1.362,1.046,2.06l0.748,1.619l1.78,0.117c0.847,0.054,2.746,0.243,4.043,0.569
		c-1.374,0.807-2.557,2.141-3.437,3.332l-0.771,1.043l0.232,1.277c0.005,0.026,0.007,0.053,0.012,0.08
		c0.001,0.001,0.002,0.003,0.003,0.004c0.129,0.711,0.245,1.425,0.325,2.143l0.196,1.737l1.607,0.685
		c0.113,0.048,0.245,0.107,0.388,0.171c0.029,0.013,0.057,0.026,0.087,0.039c0.046,0.021,0.094,0.043,0.143,0.066
		c0.063,0.029,0.123,0.057,0.189,0.087c0.053,0.025,0.1,0.045,0.155,0.071l0.001,0.003c0.024,0.011,0.048,0.023,0.073,0.034
		c0.044,0.021,0.081,0.037,0.126,0.059c0,0,0,0,0,0.001c0.795,0.382,1.729,0.869,2.437,1.332
		C85.773,51.007,84.22,51.904,83.011,52.752z"/>
	<path fill="#4D4D4D" d="M15.691,46.893c-0.146-0.109-0.297-0.224-0.452-0.344C15.394,46.669,15.545,46.784,15.691,46.893z"/>
	<path fill="#4D4D4D" d="M15.143,46.474c-0.128-0.101-0.257-0.204-0.386-0.309C14.886,46.27,15.015,46.373,15.143,46.474z"/>
	<path fill="#4D4D4D" d="M16.127,47.214c-0.098-0.071-0.204-0.149-0.314-0.23C15.924,47.066,16.028,47.142,16.127,47.214z"/>
	<path fill="#4D4D4D" d="M14.641,45.262c-0.282,0.034-0.564,0.061-0.845,0.063c0.263,0.253,0.569,0.518,0.883,0.776
		c-0.094-0.267-0.185-0.537-0.272-0.806C14.485,45.287,14.563,45.271,14.641,45.262z"/>
	<path fill="#4D4D4D" d="M14.989,45.212c0.197-0.032,0.392-0.068,0.587-0.111C15.381,45.144,15.185,45.181,14.989,45.212z"/>
	<path fill="#4D4D4D" d="M50.437,71.477c-14.162,0-26.505-7.772-33-19.283l0.477-0.406l-1.1,0.936
		c-0.938,0.799-2.065,1.618-3.275,2.08c1.088,0.496,2.598,0.964,3.307,1.165l1.654,0.468l0.432,1.665
		c0.245,0.943,0.535,1.875,0.866,2.792l0.475,1.319l-0.708,1.21c-0.633,1.084-1.448,2.256-2.465,3.105
		c1.207,0.124,2.824,0.082,3.566,0.042l1.698-0.088l0.947,1.412c0.532,0.791,1.107,1.555,1.712,2.293l0.89,1.088l-0.267,1.38
		c-0.242,1.253-0.627,2.661-1.319,3.82c1.206-0.287,2.758-0.878,3.463-1.168l1.587-0.655l1.367,1.037
		c0.729,0.553,1.483,1.076,2.256,1.564l1.16,0.73l0.207,1.355c0.199,1.305,0.311,2.825,0.024,4.198
		c1.073-0.685,2.385-1.797,2.97-2.323l1.27-1.139l1.628,0.509c0.821,0.256,1.651,0.488,2.488,0.682l1.333,0.308l0.642,1.208
		c0.639,1.205,1.269,2.67,1.443,4.114c0.818-1.017,1.744-2.563,2.139-3.268l0.845-1.51l1.729-0.025
		c0.827-0.012,1.653-0.059,2.475-0.135l1.333-0.12l0.979,0.909c1.039,0.965,2.166,2.2,2.801,3.573
		c0.444-1.253,0.806-3.113,0.94-3.951l0.276-1.72l1.631-0.612c0.725-0.272,1.438-0.576,2.143-0.895l1.185-0.538l1.203,0.497
		c1.333,0.552,2.869,1.348,3.975,2.44c0.008-1.34-0.236-3.187-0.371-4.004l-0.279-1.682l1.304-1.1
		c0.572-0.482,1.126-0.99,1.663-1.51l0.94-0.912l1.309,0.071c1.463,0.079,3.221,0.327,4.653,1.01
		c-0.435-1.282-1.28-2.962-1.684-3.698l-0.843-1.534l0.921-1.488c0.386-0.624,0.755-1.259,1.096-1.909l0.594-1.125l1.222-0.355
		c1.418-0.412,3.181-0.76,4.772-0.583c-0.836-1.068-2.197-2.375-2.828-2.939l-1.309-1.166l0.375-1.714
		c0.143-0.652,0.27-1.31,0.376-1.97C74.915,64.92,63.442,71.477,50.437,71.477z"/>
	<path fill="#4D4D4D" d="M84.825,49.48l0.002,0.004c-0.152,0.328-0.317,0.649-0.479,0.973c-0.097,0.195-0.188,0.393-0.289,0.587
		c-0.279,0.537-0.57,1.066-0.873,1.588l-0.175,0.122c1.208-0.848,2.762-1.745,4.323-2.09c-0.708-0.463-1.642-0.949-2.437-1.332
		C84.874,49.381,84.848,49.429,84.825,49.48z"/>
	<path fill="#4D4D4D" d="M16.337,47.365c-0.037-0.026-0.068-0.048-0.108-0.077c0.122,0.088,0.236,0.169,0.33,0.234L16.337,47.365
		C16.337,47.365,16.337,47.365,16.337,47.365z"/>
	<path fill="#4D4D4D" d="M84.772,49.271c-0.025-0.012-0.048-0.023-0.073-0.034l0,0C84.724,49.249,84.747,49.259,84.772,49.271z"/>
	<path fill="#4D4D4D" d="M84.543,49.163c-0.066-0.031-0.127-0.059-0.189-0.087c0.007,0.003,0.014,0.007,0.021,0.01
		C84.43,49.111,84.485,49.136,84.543,49.163z"/>
	<path fill="#4D4D4D" d="M83.735,48.8c0.112,0.048,0.246,0.107,0.388,0.171C83.981,48.907,83.848,48.848,83.735,48.8z"/>
	<path fill="#4D4D4D" d="M16.806,44.771c0.287-0.093,0.569-0.19,0.838-0.293C17.375,44.58,17.093,44.678,16.806,44.771z"/>
	<path fill="#4D4D4D" d="M15.918,45.024c0.206-0.052,0.408-0.109,0.609-0.17C16.326,44.914,16.124,44.972,15.918,45.024z"/>
	<path fill="#6E6E6E" d="M84.375,49.086c-0.007-0.003-0.014-0.007-0.021-0.01c-0.048-0.022-0.097-0.045-0.143-0.066
		C84.262,49.033,84.321,49.061,84.375,49.086z"/>
	<path fill="#6E6E6E" d="M84.825,49.48c0.023-0.05,0.05-0.099,0.073-0.149c0,0,0,0,0-0.001c-0.045-0.022-0.082-0.038-0.126-0.059
		c-0.025-0.012-0.048-0.022-0.072-0.034L84.825,49.48z"/>
	<path fill="#6E6E6E" d="M84.348,50.456c-0.097,0.195-0.188,0.393-0.289,0.587C84.16,50.85,84.251,50.651,84.348,50.456z"/>
	<path fill="#6E6E6E" d="M50,28.126c12.995,0,24.504,6.345,31.604,16.105c-0.005-0.026-0.007-0.053-0.012-0.08l-0.232-1.277
		l0.771-1.043c0.88-1.19,2.063-2.525,3.437-3.332c-1.297-0.326-3.196-0.515-4.043-0.569l-1.78-0.117l-0.748-1.619
		c-0.322-0.698-0.673-1.387-1.046-2.06l-0.626-1.124l0.385-1.229c0.427-1.365,1.075-2.944,2.05-4.134
		c-1.31,0.112-3.079,0.514-3.864,0.718l-1.671,0.436l-1.215-1.227c-0.571-0.576-1.158-1.136-1.77-1.669l-0.988-0.86l-0.04-1.31
		c-0.044-1.414,0.043-3.091,0.56-4.518c-1.155,0.528-2.605,1.442-3.262,1.883l-1.439,0.965l-1.554-0.764
		c-0.778-0.383-1.569-0.744-2.374-1.064l-1.26-0.502l-0.455-1.277c-0.453-1.27-0.86-2.787-0.829-4.225
		c-0.923,0.861-2.013,2.186-2.488,2.799l-1.046,1.348l-1.693-0.21c-0.351-0.044-0.702-0.093-1.054-0.129l-1.19-0.122l-0.78-0.908
		c-0.899-1.046-1.844-2.356-2.334-3.749c-0.587,1.402-1.098,4.67-1.595,5.948l-0.63,1.624l-1.722,0.258
		c-0.926,0.138-1.846,0.321-2.757,0.536l-1.328,0.315l-1.109-0.794c-1.046-0.747-2.172-1.696-2.938-2.82
		c-0.24,1.187-0.355,2.8-0.389,3.538l-0.078,1.716l-1.52,0.8c-0.866,0.457-1.713,0.955-2.535,1.49l-1.161,0.753l-1.326-0.395
		c-1.199-0.358-2.525-0.868-3.589-1.649c0.164,1.176,0.57,2.683,0.776,3.377l0.488,1.645l-1.17,1.254
		c-0.691,0.74-1.354,1.507-1.975,2.306L23.6,34.27l-1.397,0.053c-1.224,0.047-2.606-0.008-3.838-0.39
		c0.54,1.055,1.417,2.342,1.839,2.93l0.997,1.388l-0.685,1.565c-0.404,0.92-0.769,1.857-1.089,2.811l-0.143,0.425
		C26.436,33.963,37.536,28.126,50,28.126z"/>
	<path fill="#6E6E6E" d="M18.432,44.181l0.542-0.206l-1.33,0.503c-0.27,0.102-0.551,0.2-0.838,0.293
		c-0.092,0.03-0.187,0.055-0.28,0.083c-0.201,0.061-0.403,0.118-0.609,0.17c-0.113,0.028-0.228,0.052-0.342,0.078
		c-0.195,0.043-0.39,0.08-0.587,0.111c-0.116,0.018-0.232,0.035-0.348,0.049c-0.078,0.009-0.156,0.026-0.234,0.033
		c0.087,0.27,0.178,0.539,0.272,0.806c0,0.001,0,0.002,0.001,0.002c0.026,0.021,0.052,0.041,0.077,0.062
		c0.129,0.105,0.258,0.208,0.386,0.309c0.032,0.025,0.063,0.05,0.095,0.075c0.155,0.12,0.306,0.235,0.452,0.344
		c0.043,0.032,0.081,0.06,0.123,0.091c0.109,0.081,0.215,0.159,0.314,0.23c0.035,0.025,0.068,0.05,0.102,0.074
		c0.04,0.029,0.071,0.05,0.108,0.077C16.984,46.268,17.683,45.206,18.432,44.181z"/>
	<path fill="#5E5E5E" d="M84.059,51.043c0.1-0.193,0.191-0.392,0.289-0.587c0.161-0.323,0.327-0.644,0.479-0.973l-0.002-0.004
		l-0.125-0.242l0,0l-0.001-0.003c-0.055-0.026-0.102-0.047-0.155-0.071c-0.058-0.027-0.113-0.052-0.168-0.078
		c-0.054-0.025-0.113-0.052-0.164-0.075c-0.03-0.014-0.058-0.026-0.087-0.039c-0.142-0.064-0.276-0.123-0.388-0.171l-1.607-0.685
		l-0.196-1.737c-0.08-0.717-0.196-1.432-0.325-2.143c-0.001-0.001-0.002-0.003-0.003-0.004C74.504,34.47,62.994,28.126,50,28.126
		c-12.464,0-23.564,5.837-30.716,14.927c0,0,0,0,0,0l-0.309,0.922l-0.542,0.206c-0.749,1.025-1.448,2.088-2.095,3.184c0,0,0,0,0,0
		l0.222,0.157l1.25,0.867l0.038,1.521c0.004,0.144,0.017,0.29,0.022,0.435l0.046,1.443l-0.477,0.406
		c6.495,11.511,18.838,19.283,33,19.283c13.006,0,24.478-6.557,31.296-16.544c0.003-0.004,0.006-0.008,0.009-0.012l0.026-0.17
		l0.195-1.265l1.049-0.735l0.175-0.122C83.489,52.109,83.78,51.579,84.059,51.043z M50.001,67.393
		c-9.58,0-17.394-7.814-17.394-17.393c0-9.58,7.814-17.394,17.394-17.394S67.395,40.42,67.395,50
		C67.395,59.579,59.581,67.393,50.001,67.393z"/>
	<path fill="#1A1A1A" d="M50.001,32.606c-9.58,0-17.394,7.814-17.394,17.394c0,9.579,7.814,17.393,17.394,17.393
		S67.395,59.579,67.395,50C67.395,40.42,59.581,32.606,50.001,32.606z M50.001,60.464c-5.764,0-10.466-4.702-10.466-10.465
		c0-5.764,4.702-10.466,10.466-10.466c5.764,0,10.466,4.702,10.466,10.466C60.467,55.762,55.765,60.464,50.001,60.464z"/>
</g>
<g>
	<path fill="#999999" d="M184.792,48.315c-0.063-0.94-0.153-1.889-0.29-2.82c0.652-0.767,2.067-2.277,3.213-2.443
		c1.541-0.222,4.439,2.464,4.439,2.464s-2.063-5.554-3.906-6.809c-1.471-1.004-4.767-1.535-6.045-1.71
		c-0.147-0.345-0.291-0.698-0.442-1.037c0.292-0.832,1.121-2.948,2.222-3.532c1.376-0.73,4.807,0.256,4.807,0.256
		c-2.132-1.909-4.233-4.255-6.845-4.602c-2.229-0.296-4.92,1.242-7.34,1.618c-0.637-0.798-1.31-1.57-2.01-2.31
		c0.104-1.056,0.393-2.905,1.176-3.655c1.125-1.077,5.048-0.563,5.048-0.563s-4.914-3.342-7.142-3.29
		c-1.685,0.04-4.469,1.379-5.73,2.034c-0.904-0.57-1.845-1.102-2.793-1.586c-0.25-1.051-0.554-2.802-0.084-3.737
		c0.699-1.391,4.543-2.214,4.543-2.214s-5.694-1.523-7.779-0.733c-1.549,0.586-3.68,2.698-4.676,3.747
		c-1.073-0.249-2.165-0.457-3.253-0.607c-0.579-0.921-1.392-2.424-1.258-3.433c0.203-1.545,3.751-3.545,3.751-3.545
		s-6.071,0.382-7.781,1.812c-1.269,1.062-2.585,3.751-3.182,5.068c-1.085,0.12-2.173,0.287-3.242,0.503
		c-0.835-0.681-2.087-1.849-2.276-2.858c-0.288-1.531,2.278-4.553,2.278-4.553s-5.658,2.354-6.782,4.28
		c-0.828,1.418-1.165,4.34-1.286,5.785c-0.121,0.074-0.26,0.17-0.385,0.247c-1.026-0.365-2.596-1.04-3.118-1.915
		c-0.798-1.338,0.606-5.024,0.606-5.024s-4.424,3.987-4.867,6.172c-0.332,1.639,0.325,4.6,0.673,5.977
		c-0.755,0.743-1.486,1.537-2.172,2.348c-1.076-0.006-2.86-0.126-3.659-0.81c-1.184-1.013-1.057-4.958-1.057-4.958
		s-2.847,5.197-2.576,7.41c0.205,1.682,1.819,4.335,2.584,5.517c-0.461,0.94-0.875,1.912-1.242,2.888
		c-1.013,0.352-2.79,0.852-3.789,0.465c-1.452-0.563-2.639-4.307-2.639-4.307s-0.974,5.807,0.009,7.808
		c0.775,1.576,3.296,3.62,4.344,4.428c-0.125,0.991-0.209,1.995-0.247,2.994c-0.82,0.657-2.408,1.795-3.521,1.758
		c-1.557-0.054-3.883-3.399-3.883-3.399s0.954,6.019,2.544,7.582c1.297,1.274,4.518,2.405,5.676,2.782
		c0.203,0.908,0.44,1.823,0.711,2.715c-0.525,0.839-1.727,2.578-2.853,2.909c-1.495,0.438-4.75-1.823-4.75-1.823
		s2.846,5.237,4.852,6.213c1.678,0.816,5.26,0.832,6.393,0.816c0.459,0.77,0.959,1.532,1.479,2.269
		c-0.21,0.921-0.787,3.044-1.775,3.74c-1.273,0.898-5.094-0.195-5.094-0.195s4.492,4.189,6.71,4.411
		c1.916,0.191,5.424-1.083,6.35-1.436c0.646,0.532,1.323,1.043,2.005,1.531c0.106,0.811,0.352,3.246-0.387,4.304
		c-0.893,1.276-4.823,1.535-4.823,1.535s5.432,2.328,7.609,1.846c1.898-0.42,4.897-2.813,5.634-3.419
		c0.762,0.275,1.555,0.525,2.337,0.747c0.337,0.662,1.443,2.987,1.083,4.266c-0.423,1.499-4.035,3.035-4.035,3.035
		s5.872,0.422,7.771-0.749c1.723-1.063,3.851-4.499,4.232-5.128c0.795,0.023,1.607,0.025,2.407-0.006
		c0.526,0.504,2.362,2.356,2.446,3.69c0.097,1.554-3.013,4.189-3.013,4.189s5.914-1.523,7.312-3.258
		c1.29-1.6,2.159-5.626,2.288-6.253c0.749-0.237,1.516-0.497,2.249-0.782c0.634,0.294,2.992,1.457,3.498,2.705
		c0.587,1.443-1.345,4.899-1.345,4.899s4.947-3.33,5.714-5.424c0.679-1.847,0.266-5.722,0.16-6.608
		c0.653-0.482,1.3-1.009,1.918-1.534c0.756,0.086,3.25,0.438,4.108,1.438c1.014,1.182,0.306,5.08,0.306,5.08s3.704-4.85,3.722-7.08
		c0.015-1.938-1.607-5.359-2.033-6.221c0.481-0.68,0.951-1.403,1.383-2.122c0.825-0.185,3.173-0.632,4.279,0.003
		c1.352,0.773,1.972,4.671,1.972,4.671s1.815-5.642,1.135-7.766c-0.576-1.8-3.095-4.448-3.854-5.22
		c0.23-0.847,0.442-1.716,0.61-2.582c0.786-0.487,2.768-1.612,3.979-1.398c1.535,0.27,3.363,3.923,3.363,3.923
		s-0.086-6.115-1.446-7.883C188.908,50.416,185.884,48.851,184.792,48.315z M182.539,54.664l-1.115,0.69l-0.25,1.286
		c-0.155,0.796-0.346,1.584-0.56,2.367l-0.456,1.665l1.213,1.23c0.569,0.578,1.802,1.908,2.555,2.987
		c-1.519-0.25-3.209-0.021-4.606,0.291l-1.255,0.281l-0.661,1.105c-0.396,0.66-0.818,1.309-1.26,1.936l-1.029,1.458l0.789,1.6
		c0.377,0.76,1.162,2.499,1.528,3.785c-1.385-0.787-3.134-1.143-4.604-1.31l-1.288-0.146l-0.99,0.84
		c-0.021,0.018-0.043,0.033-0.064,0.051c0,0.001-0.001,0.002-0.001,0.003c-0.552,0.468-1.113,0.925-1.693,1.354l-1.407,1.038
		l0.21,1.734c0.014,0.117,0.029,0.255,0.044,0.404c0.004,0.043,0.009,0.084,0.013,0.129c0.004,0.037,0.007,0.076,0.011,0.114
		c0.003,0.037,0.007,0.075,0.01,0.113c0.002,0.023,0.004,0.044,0.006,0.068c0.007,0.076,0.014,0.143,0.021,0.222l-0.002,0.003
		c0.006,0.075,0.013,0.14,0.019,0.218c0,0-0.001,0-0.001,0c0.066,0.88,0.112,1.932,0.066,2.776c-1.08-1.18-2.633-2.076-3.971-2.699
		l-1.161-0.541l-1.193,0.463l-0.16,0.063c-0.005,0-0.01-0.001-0.015-0.002c-0.625,0.239-1.258,0.457-1.894,0.659l-1.672,0.531
		l-0.354,1.717c-0.172,0.828-0.625,2.66-1.13,3.918c-0.643-1.466-1.826-2.82-2.891-3.841l-0.919-0.881l-1.271,0.048
		c-0.733,0.03-1.468,0.027-2.202,0.005l-1.749-0.053l-0.907,1.497c-0.436,0.717-1.468,2.29-2.361,3.307
		c-0.125-1.582-0.789-3.228-1.452-4.536l-0.593-1.168l-1.26-0.359c-0.719-0.205-1.436-0.43-2.139-0.684l-1.605-0.58l-1.317,1.082
		c-0.64,0.526-2.117,1.661-3.282,2.323c0.393-1.505,0.315-3.232,0.125-4.663l-0.17-1.29l-1.057-0.757
		c-0.631-0.45-1.25-0.915-1.848-1.408l-1.345-1.107l-1.628,0.62c-0.793,0.302-2.585,0.92-3.892,1.162
		c0.872-1.237,1.378-2.831,1.694-4.213l0.298-1.303l-0.77-1.094c-0.476-0.674-0.93-1.366-1.355-2.076l-0.886-1.485l-1.73,0.023
		c-0.808,0.011-2.61-0.018-3.9-0.218c1.164-0.873,2.118-2.151,2.841-3.307l0.726-1.16l-0.4-1.308
		c-0.25-0.822-0.465-1.657-0.653-2.496l-0.373-1.664l-1.62-0.53c-0.75-0.243-2.368-0.824-3.497-1.41
		c1.331-0.438,2.591-1.296,3.622-2.12l1.07-0.856l0.052-1.369c0.037-0.914,0.112-1.828,0.227-2.736l0.214-1.703l-1.359-1.048
		c-0.605-0.465-1.892-1.514-2.744-2.415c1.35,0.02,2.761-0.351,3.967-0.767l1.329-0.458l0.497-1.315
		c0.337-0.893,0.711-1.773,1.13-2.629l0.749-1.526l-0.925-1.428c-0.405-0.622-1.251-2.002-1.747-3.109
		c1.245,0.456,2.667,0.576,3.922,0.582l1.401,0.008l0.905-1.071c0.628-0.745,1.291-1.463,1.985-2.146l1.226-1.207l-0.422-1.666
		c-0.181-0.715-0.531-2.256-0.645-3.447c1.005,0.818,2.278,1.383,3.438,1.797l0.77,0.274c0,0,0,0,0,0l0.591,0.211l1.227-0.762
		c0.124-0.077,0.243-0.161,0.366-0.236l1.298-0.792l0.126-1.517c0.01-0.122,0.025-0.273,0.041-0.436
		c0.001-0.014,0.003-0.028,0.004-0.042c0.052-0.511,0.132-1.176,0.241-1.837c0.001-0.007,0.002-0.014,0.003-0.021c0,0,0,0,0,0
		c0.067-0.401,0.143-0.799,0.231-1.153c0.142,0.241,0.307,0.472,0.477,0.699c0.071,0.094,0.144,0.187,0.218,0.279
		c0.124,0.153,0.253,0.302,0.385,0.448c0.081,0.088,0.16,0.177,0.243,0.263c0.146,0.15,0.295,0.295,0.445,0.436
		c0.072,0.068,0.143,0.139,0.216,0.205c0.223,0.202,0.449,0.397,0.672,0.579l0.652,0.533c0,0,0,0,0,0l0.449,0.367l0.953-0.194
		c0.001,0,0.001,0,0.002,0l0.438-0.089c0.985-0.2,1.979-0.352,2.979-0.462l1.697-0.19l0.704-1.557
		c0.299-0.659,0.974-2.063,1.618-3.058c0.286,1.258,0.928,2.483,1.582,3.519l0.744,1.183l1.385,0.19
		c1.001,0.139,1.998,0.328,2.983,0.557l1.672,0.386l1.181-1.245c0.497-0.524,1.6-1.631,2.536-2.36
		c-0.144,1.311,0.077,2.715,0.367,3.932l0.321,1.347L161.79,23c0.873,0.445,1.728,0.93,2.557,1.45l1.453,0.917l1.525-0.79
		c0.657-0.339,2.11-1.046,3.258-1.432c-0.59,1.226-0.849,2.675-0.973,3.955l-0.133,1.357l0.937,0.992
		c0.641,0.68,1.26,1.387,1.843,2.119l1.084,1.363l1.721-0.267c1.355-0.209,4.441-1.401,5.948-1.593
		c-0.96,1.121-1.623,2.594-2.079,3.895l-0.397,1.129l0.489,1.092c0.145,0.323,0.279,0.651,0.416,0.977l0.664,1.571l1.69,0.233
		c0.769,0.104,2.461,0.385,3.668,0.754c-1.26,0.692-2.372,1.803-3.244,2.831l-0.878,1.032l0.195,1.342
		c0.125,0.857,0.208,1.723,0.266,2.588l0.115,1.729l1.555,0.763c0.71,0.348,2.226,1.147,3.261,1.884
		C185.237,53.156,183.742,53.919,182.539,54.664z"/>
	<path fill="#4D4D4D" d="M167.673,79.668c0.002,0.023,0.004,0.045,0.006,0.068C167.677,79.712,167.675,79.691,167.673,79.668z"/>
	<path fill="#4D4D4D" d="M167.595,78.907c0.014,0.116,0.029,0.257,0.044,0.404C167.624,79.163,167.609,79.025,167.595,78.907z"/>
	<path fill="#4D4D4D" d="M137.404,18.726c-0.151-0.142-0.3-0.286-0.445-0.436C137.104,18.441,137.253,18.584,137.404,18.726z"/>
	<path fill="#4D4D4D" d="M131.307,61.409c-7.081-12.265-6.522-26.841,0.198-38.221l-0.77-0.274c-1.16-0.413-2.433-0.979-3.438-1.797
		c0.114,1.191,0.464,2.732,0.645,3.447l0.422,1.666l-1.226,1.207c-0.695,0.683-1.357,1.401-1.985,2.146l-0.905,1.071l-1.401-0.008
		c-1.255-0.006-2.677-0.126-3.922-0.582c0.496,1.107,1.342,2.486,1.747,3.109l0.925,1.428l-0.749,1.526
		c-0.419,0.856-0.793,1.736-1.13,2.629l-0.497,1.315l-1.329,0.458c-1.206,0.417-2.617,0.787-3.967,0.767
		c0.852,0.901,2.139,1.95,2.744,2.415l1.359,1.048l-0.214,1.703c-0.115,0.907-0.19,1.821-0.227,2.736l-0.052,1.369l-1.07,0.856
		c-1.031,0.825-2.291,1.682-3.622,2.12c1.129,0.586,2.747,1.167,3.497,1.41l1.62,0.53l0.373,1.664
		c0.188,0.839,0.403,1.674,0.653,2.496l0.4,1.308l-0.726,1.16c-0.723,1.156-1.676,2.434-2.841,3.307
		c1.29,0.201,3.092,0.229,3.9,0.218l1.73-0.023l0.886,1.485c0.424,0.71,0.879,1.402,1.355,2.076l0.77,1.094l-0.298,1.303
		c-0.316,1.382-0.822,2.976-1.694,4.213c1.307-0.242,3.1-0.86,3.892-1.162l1.628-0.62l1.345,1.107
		c0.598,0.493,1.217,0.958,1.848,1.408l1.057,0.757l0.17,1.29c0.19,1.431,0.268,3.158-0.125,4.663
		c1.166-0.662,2.643-1.797,3.282-2.323l1.317-1.082l1.605,0.58c0.703,0.254,1.42,0.479,2.139,0.684l1.26,0.359l0.593,1.168
		c0.662,1.307,1.326,2.954,1.452,4.536c0.893-1.017,1.925-2.59,2.361-3.307l0.907-1.497l1.749,0.053
		c0.734,0.022,1.468,0.025,2.202-0.005l1.271-0.048l0.919,0.881c1.065,1.022,2.249,2.375,2.891,3.841
		c0.505-1.258,0.958-3.09,1.13-3.918l0.354-1.717l1.672-0.531c0.636-0.202,1.269-0.421,1.894-0.659
		C149.224,79.329,137.809,72.672,131.307,61.409z"/>
	<path fill="#4D4D4D" d="M136.111,17.301c-0.17-0.227-0.335-0.458-0.477-0.699c-0.088,0.354-0.164,0.752-0.231,1.153
		c0.184-0.216,0.373-0.43,0.563-0.64C136.011,17.179,136.064,17.238,136.111,17.301z"/>
	<path fill="#4D4D4D" d="M135.139,19.822c0.005-0.057,0.009-0.103,0.015-0.165c-0.016,0.162-0.031,0.313-0.041,0.436L135.139,19.822
		C135.138,19.822,135.138,19.822,135.139,19.822z"/>
	<path fill="#4D4D4D" d="M167.547,80.195c-0.373,0.034-0.747,0.052-1.121,0.074c-0.202,0.012-0.405,0.031-0.607,0.04
		c-0.606,0.027-1.212,0.04-1.816,0.037l-0.193-0.09c1.338,0.622,2.891,1.519,3.971,2.699c0.046-0.844,0-1.896-0.066-2.776
		c-0.055,0.005-0.11,0.007-0.166,0.012L167.547,80.195z"/>
	<path fill="#4D4D4D" d="M135.158,19.614c0.052-0.51,0.132-1.177,0.241-1.837C135.29,18.438,135.21,19.103,135.158,19.614z"/>
	<path fill="#4D4D4D" d="M137.62,18.932c0.224,0.202,0.449,0.397,0.672,0.579C138.069,19.328,137.844,19.133,137.62,18.932z"/>
	<path fill="#4D4D4D" d="M136.33,17.58c0.124,0.153,0.252,0.302,0.385,0.448C136.582,17.882,136.454,17.733,136.33,17.58z"/>
	<path fill="#6E6E6E" d="M167.652,79.441c0.004,0.036,0.007,0.077,0.011,0.114C167.659,79.517,167.656,79.478,167.652,79.441z"/>
	<path fill="#6E6E6E" d="M138.943,20.044l-0.652-0.533c-0.223-0.182-0.448-0.377-0.672-0.579c-0.073-0.066-0.144-0.137-0.216-0.205
		c-0.151-0.142-0.3-0.286-0.445-0.436c-0.083-0.086-0.163-0.174-0.243-0.263c-0.133-0.146-0.261-0.295-0.385-0.448
		c-0.075-0.092-0.148-0.185-0.218-0.279c-0.047-0.063-0.1-0.121-0.145-0.185c-0.19,0.21-0.379,0.424-0.563,0.64c0,0,0,0,0,0
		c-0.001,0.007-0.002,0.014-0.003,0.021c-0.109,0.66-0.189,1.327-0.241,1.837c-0.001,0.015-0.003,0.028-0.004,0.042
		c-0.006,0.062-0.01,0.108-0.015,0.165C136.411,19.834,137.681,19.908,138.943,20.044z"/>
	<path fill="#6E6E6E" d="M167.55,80.191c0.055-0.005,0.11-0.006,0.166-0.012c0,0,0.001,0,0.001,0
		c-0.006-0.078-0.013-0.143-0.019-0.218L167.55,80.191z"/>
	<path fill="#6E6E6E" d="M181.915,50.243l-0.115-1.729c-0.058-0.865-0.14-1.731-0.266-2.588l-0.195-1.342l0.878-1.032
		c0.872-1.028,1.984-2.139,3.244-2.831c-1.207-0.368-2.9-0.649-3.668-0.754l-1.69-0.233l-0.664-1.571
		c-0.137-0.326-0.271-0.654-0.416-0.977l-0.489-1.092l0.397-1.129c0.456-1.302,1.118-2.775,2.079-3.895
		c-1.507,0.192-4.593,1.384-5.948,1.593l-1.721,0.267l-1.084-1.363c-0.582-0.732-1.201-1.438-1.843-2.119l-0.937-0.992l0.133-1.357
		c0.124-1.28,0.383-2.73,0.973-3.955c-1.148,0.386-2.602,1.094-3.258,1.432l-1.525,0.79l-1.453-0.917
		c-0.829-0.521-1.684-1.005-2.557-1.45l-1.233-0.628l-0.321-1.347c-0.29-1.216-0.511-2.621-0.367-3.932
		c-0.935,0.729-2.038,1.835-2.536,2.36l-1.181,1.245l-1.672-0.386c-0.985-0.229-1.982-0.418-2.983-0.557l-1.385-0.19l-0.744-1.183
		c-0.653-1.036-1.296-2.261-1.582-3.519c-0.644,0.995-1.319,2.399-1.618,3.058l-0.704,1.557l-1.697,0.19
		c-0.999,0.11-1.994,0.262-2.979,0.462l-0.438,0.089c11.448,1.65,22.052,8.344,28.283,19.137
		c6.498,11.255,6.758,24.396,1.854,35.424c0.021-0.018,0.043-0.033,0.064-0.051l0.99-0.84l1.288,0.146
		c1.47,0.167,3.219,0.523,4.604,1.31c-0.366-1.286-1.152-3.025-1.528-3.785l-0.789-1.6l1.029-1.458
		c0.443-0.627,0.865-1.276,1.26-1.936l0.661-1.105l1.255-0.281c1.398-0.312,3.088-0.541,4.606-0.291
		c-0.752-1.078-1.985-2.409-2.555-2.987l-1.213-1.23l0.456-1.665c0.214-0.783,0.405-1.571,0.56-2.367l0.25-1.286l1.115-0.69
		c1.203-0.745,2.698-1.508,4.192-1.774c-1.035-0.737-2.551-1.535-3.261-1.884L181.915,50.243z"/>
	<path fill="#6E6E6E" d="M165.819,80.31c0.202-0.009,0.405-0.028,0.607-0.04C166.224,80.281,166.022,80.301,165.819,80.31z"/>
	<path fill="#5E5E5E" d="M168.631,39.354c-6.231-10.794-16.835-17.488-28.283-19.137c-0.001,0-0.001,0-0.002,0l-0.953,0.194
		l-0.449-0.367c0,0,0,0,0,0c-1.262-0.136-2.532-0.209-3.805-0.222c0,0,0,0,0,0l-0.025,0.27l-0.126,1.517l-1.298,0.792
		c-0.123,0.076-0.242,0.159-0.366,0.236l-1.227,0.762l-0.591-0.211c0,0,0,0,0,0c-6.72,11.38-7.279,25.956-0.198,38.221
		c6.503,11.263,17.917,17.92,29.975,18.831c0.005,0,0.01,0.001,0.015,0.002l0.16-0.063l1.193-0.463l1.161,0.541l0.193,0.09
		c0.604,0.003,1.21-0.011,1.816-0.037c0.202-0.009,0.405-0.028,0.607-0.04c0.374-0.023,0.748-0.041,1.121-0.074l0.002-0.004
		l0.148-0.229l0.002-0.003c-0.007-0.079-0.014-0.147-0.021-0.222c-0.002-0.023-0.004-0.045-0.006-0.068
		c-0.003-0.038-0.007-0.076-0.01-0.113c-0.004-0.037-0.007-0.078-0.011-0.114c-0.005-0.045-0.009-0.086-0.013-0.129
		c-0.015-0.147-0.031-0.288-0.044-0.404l-0.21-1.734l1.407-1.038c0.58-0.429,1.141-0.886,1.693-1.354
		c0-0.001,0.001-0.002,0.001-0.003C175.389,63.75,175.129,50.609,168.631,39.354z M158.385,65.355
		c-8.32,4.804-18.957,1.954-23.76-6.366c-4.804-8.321-1.954-18.958,6.366-23.761c8.32-4.804,18.957-1.954,23.76,6.367
		C169.554,49.915,166.704,60.552,158.385,65.355z"/>
	<path fill="#1A1A1A" d="M164.751,41.595c-4.804-8.321-15.44-11.171-23.76-6.367c-8.32,4.803-11.17,15.44-6.366,23.761
		c4.803,8.32,15.44,11.17,23.76,6.366C166.704,60.552,169.554,49.915,164.751,41.595z M154.92,59.355
		c-5.005,2.89-11.406,1.175-14.296-3.83c-2.89-5.007-1.175-11.407,3.83-14.297c5.006-2.89,11.406-1.175,14.296,3.832
		C161.641,50.065,159.926,56.465,154.92,59.355z"/>
</g>
<g>
	<path fill="#999999" d="M289.752,47.856c0,0-1.528-5.693-3.254-7.104c-1.281-1.048-4.176-1.838-5.583-2.175
		c-0.321-1.055-0.688-2.103-1.101-3.12c0.508-0.962,1.402-2.418,2.343-2.807c1.44-0.595,4.947,1.478,4.947,1.478
		s-3.366-5.068-5.461-5.833c-1.554-0.567-4.541-0.364-5.98-0.221c-0.647-0.88-1.336-1.739-2.057-2.557
		c0.174-1.064,0.559-2.732,1.337-3.399c1.182-1.015,5.083-0.304,5.083-0.304s-4.868-3.723-7.097-3.733
		c-1.643-0.007-4.343,1.161-5.654,1.779c-0.125-0.069-0.278-0.141-0.405-0.21c-0.198-1.071-0.398-2.768,0.098-3.658
		c0.76-1.359,4.654-1.987,4.654-1.987s-5.665-1.839-7.779-1.129c-1.586,0.532-3.822,2.581-4.84,3.572
		c-1.021-0.282-2.073-0.518-3.12-0.706c-0.533-0.937-1.32-2.542-1.128-3.575c0.286-1.531,3.765-3.395,3.765-3.395
		s-5.924,0.133-7.705,1.474c-1.354,1.019-2.845,3.743-3.485,4.997c-1.044,0.071-2.094,0.198-3.123,0.367
		c-0.81-0.702-2.133-1.989-2.297-3.049c-0.237-1.539,2.41-4.438,2.41-4.438s-5.516,2.06-6.757,3.912
		c-0.977,1.459-1.487,4.664-1.663,5.977c-0.919,0.387-1.832,0.817-2.715,1.282c-0.978-0.382-2.76-1.188-3.282-2.17
		c-0.731-1.375,1.001-5.063,1.001-5.063s-4.736,3.836-5.293,5.995c-0.455,1.76,0.177,5.113,0.427,6.306
		c-0.684,0.631-1.358,1.292-1.995,1.975c-0.989-0.035-3.096-0.207-3.946-1.017c-1.127-1.075-0.796-5.025-0.796-5.025
		s-3.112,5.085-2.955,7.309c0.132,1.861,1.909,4.973,2.49,5.945c-0.437,0.783-0.847,1.597-1.225,2.414
		c-0.903,0.279-3.029,0.841-4.128,0.333c-1.414-0.655-2.379-4.51-2.379-4.51s-1.38,5.985-0.464,8.017
		c0.792,1.755,3.65,4.155,4.419,4.78c-0.138,0.827-0.242,1.668-0.324,2.503c-0.65,0.498-2.634,1.927-3.92,1.817
		c-1.552-0.136-3.742-3.41-3.742-3.41s0.701,5.869,2.206,7.513c1.313,1.434,4.884,2.835,5.778,3.17
		c0.143,0.797,0.323,1.61,0.521,2.398c-0.405,0.622-1.866,2.744-3.153,3.071c-1.509,0.384-4.646-1.976-4.646-1.976
		s2.571,5.296,4.534,6.356c1.781,0.96,5.82,1.085,6.556,1.101c0.377,0.699,0.782,1.404,1.208,2.082
		c-0.174,0.706-0.859,3.223-1.971,3.961c-1.298,0.862-5.135-0.514-5.135-0.514s4.275,4.361,6.48,4.703
		c2.03,0.317,5.95-0.944,6.557-1.145c0.581,0.529,1.189,1.064,1.802,1.557c0.062,0.696,0.233,3.319-0.593,4.382
		c-0.957,1.23-4.915,1.284-4.915,1.284s5.356,2.618,7.553,2.238c1.94-0.337,5.09-2.632,5.803-3.167
		c0.744,0.324,1.525,0.621,2.289,0.894c0.302,0.697,1.245,3.033,0.808,4.275c-0.516,1.47-4.246,2.805-4.246,2.805
		s6.052,0.783,7.992-0.317c1.687-0.955,3.836-4.071,4.37-4.871c0.83,0.076,1.691,0.122,2.53,0.136
		c0.573,0.622,2.134,2.432,2.138,3.707c0.006,1.558-3.059,4.044-3.059,4.044s5.793-1.25,7.292-2.901
		c1.271-1.399,2.305-4.904,2.592-5.947c0.849-0.224,1.708-0.476,2.543-0.763c0.813,0.438,2.779,1.591,3.2,2.748
		c0.533,1.463-1.716,4.873-1.716,4.873s5.253-3.132,6.104-5.193c0.694-1.68,0.537-5.08,0.456-6.294
		c0.783-0.524,1.559-1.077,2.297-1.662c0.99,0.182,3.006,0.651,3.722,1.56c0.964,1.224,0.085,5.077,0.085,5.077
		s3.78-4.564,3.945-6.787c0.133-1.777-1.055-4.897-1.541-6.091c0.225-0.299,0.458-0.6,0.677-0.9
		c0.866-0.164,3.113-0.503,4.169,0.158c1.32,0.827,2.182,4.29,2.182,4.29c0.587-2.8,1.57-5.792,0.563-8.228
		c-0.859-2.079-3.536-3.64-5.073-5.549c0.375-0.95,0.705-1.918,0.997-2.895c0.966-0.438,2.712-1.112,3.753-0.81
		c1.495,0.436,3.012,4.09,3.012,4.09s0.438-5.926-0.722-7.829c-0.878-1.44-3.429-3.181-4.627-3.948
		c0.042-1.068,0.032-2.148-0.023-3.211c0.785-0.742,2.15-1.88,3.195-1.94C287.117,44.939,289.752,47.856,289.752,47.856z
		 M280.306,44.794l-1.005,0.951l0.072,1.383c0.051,0.978,0.059,1.961,0.023,2.94l-0.068,1.716l1.447,0.925
		c0.622,0.399,1.962,1.305,2.87,2.106c-1.357,0.102-2.742,0.602-3.912,1.135l-1.241,0.563l-0.391,1.307
		c-0.269,0.897-0.57,1.785-0.914,2.655l-0.638,1.62l1.091,1.357c0.859,1.069,3.434,3.145,4.354,4.355
		c-1.45-0.272-3.058-0.109-4.413,0.146l-1.177,0.221l-0.701,0.971c-0.207,0.287-0.424,0.566-0.638,0.848l-1.029,1.36l0.644,1.58
		c0.294,0.717,0.898,2.323,1.181,3.554c-1.23-0.745-2.747-1.152-4.073-1.395l-1.332-0.245l-1.065,0.841
		c-0.68,0.537-1.388,1.041-2.108,1.524l-1.44,0.964l0.117,1.728c0.053,0.789,0.119,2.503-0.001,3.767
		c-0.977-1.161-2.386-2.074-3.632-2.744l-1.155-0.62l-1.239,0.426c-0.766,0.263-1.545,0.492-2.329,0.698l-1.671,0.438l-0.458,1.665
		c-0.215,0.782-0.751,2.515-1.309,3.705c-0.543-1.44-1.586-2.789-2.556-3.842l-0.87-0.948l-1.287-0.02
		c-0.769-0.013-1.541-0.053-2.307-0.123l-1.777-0.163l-0.991,1.483c-0.47,0.706-1.584,2.257-2.515,3.216
		c-0.012-1.592-0.576-3.285-1.167-4.642l-0.518-1.19l-1.222-0.437c-0.025-0.009-0.049-0.02-0.075-0.029
		c-0.002,0-0.004,0.001-0.006,0.001c-0.68-0.245-1.357-0.502-2.017-0.79l-1.603-0.699l-1.397,1.05
		c-0.095,0.071-0.206,0.152-0.328,0.24c-0.036,0.026-0.07,0.05-0.107,0.077c-0.025,0.018-0.052,0.037-0.078,0.055
		c-0.034,0.024-0.071,0.05-0.106,0.075c-0.019,0.014-0.036,0.026-0.056,0.04c-0.062,0.044-0.117,0.083-0.182,0.129l-0.004,0
		c-0.024,0.016-0.047,0.033-0.071,0.049c-0.038,0.026-0.069,0.049-0.108,0.075c0,0,0,0,0,0c-0.729,0.497-1.617,1.064-2.371,1.445
		c0.482-1.525,0.482-3.318,0.352-4.788l-0.112-1.275l-0.998-0.802l-0.135-0.107c-0.002-0.005-0.004-0.01-0.006-0.014
		c-0.519-0.421-1.025-0.86-1.517-1.31l-1.297-1.182l-1.664,0.552c-0.803,0.265-2.616,0.789-3.958,0.979
		c0.948-1.289,1.528-2.991,1.88-4.423l0.304-1.237l-0.677-1.077c-0.393-0.62-0.758-1.257-1.106-1.904l-0.828-1.541l-1.75-0.037
		c-0.84-0.019-2.717-0.126-4.045-0.391c1.307-0.899,2.401-2.297,3.202-3.525l0.716-1.098l-0.32-1.27
		c-0.182-0.726-0.345-1.46-0.476-2.196l-0.301-1.68l-1.596-0.599c-0.774-0.293-2.495-1.004-3.653-1.68
		c1.5-0.413,2.958-1.344,4.1-2.223l1.033-0.794l0.127-1.294c0.075-0.77,0.168-1.539,0.296-2.303l0.286-1.719l-1.351-1.098
		c-0.658-0.536-2.088-1.779-2.952-2.79c1.507,0.136,3.14-0.222,4.495-0.64l1.277-0.393l0.562-1.214
		c0.346-0.749,0.718-1.489,1.121-2.211l0.843-1.51l-0.886-1.487c-0.413-0.695-1.29-2.269-1.761-3.487
		c1.338,0.572,2.922,0.758,4.284,0.807l1.368,0.049l0.933-1.001c0.587-0.628,1.202-1.231,1.835-1.814l1.254-1.155l-0.35-1.669
		c-0.164-0.77-0.47-2.462-0.527-3.733c1.044,0.934,2.417,1.597,3.646,2.078l1.277,0.498l1.212-0.639
		c0.81-0.427,1.64-0.818,2.483-1.172l1.581-0.666l0.228-1.702c0.1-0.756,0.365-2.395,0.719-3.583
		c0.658,1.179,1.684,2.217,2.648,3.053l1.062,0.92l1.388-0.227c0.941-0.155,1.891-0.27,2.842-0.335l1.696-0.115l0.774-1.514
		c0.336-0.662,1.108-2.083,1.819-3.067c0.228,1.305,0.835,2.597,1.457,3.687l0.693,1.218l1.38,0.248
		c0.959,0.172,1.912,0.388,2.851,0.646l1.658,0.458l1.233-1.199c0.528-0.514,1.688-1.587,2.662-2.282
		c-0.205,1.279-0.059,2.666,0.163,3.876l0.261,1.421l1.273,0.682c0.129,0.068,0.261,0.13,0.388,0.2l1.336,0.727l1.376-0.648
		l0.247-0.115c0,0,0,0,0,0c0.046-0.021,0.095-0.043,0.144-0.065c0.018-0.008,0.036-0.016,0.054-0.024
		c0.145-0.065,0.302-0.135,0.472-0.208c0.01-0.004,0.019-0.008,0.029-0.013c0.186-0.08,0.38-0.162,0.584-0.244
		c0.005-0.002,0.01-0.004,0.015-0.006c0.181-0.074,0.367-0.146,0.554-0.217c0.023-0.009,0.046-0.018,0.069-0.027
		c0.001,0,0.001,0,0.002,0c0.381-0.143,0.762-0.275,1.113-0.376c-0.137,0.242-0.254,0.499-0.365,0.758
		c-0.048,0.112-0.094,0.226-0.137,0.34c-0.068,0.178-0.131,0.358-0.189,0.539c-0.038,0.121-0.078,0.241-0.112,0.362
		c-0.054,0.189-0.101,0.378-0.146,0.568c-0.026,0.109-0.055,0.218-0.078,0.326c-0.062,0.291-0.118,0.581-0.164,0.862l-0.229,1.403
		l0.941,1.065c0.665,0.755,1.295,1.539,1.89,2.349l1.013,1.376l1.7-0.17c0.721-0.071,2.274-0.187,3.457-0.128
		c-0.946,0.876-1.685,2.045-2.256,3.129l-0.653,1.237l0.528,1.294c0.38,0.938,0.715,1.896,1.009,2.863l0.502,1.64l1.669,0.4
		c0.703,0.169,2.212,0.572,3.312,1.017C282.32,43.041,281.215,43.934,280.306,44.794z"/>
	<path fill="#4D4D4D" d="M232.72,80.711c-0.219-0.311-0.425-0.631-0.635-0.949c-0.109-0.165-0.224-0.327-0.33-0.494
		c-0.325-0.511-0.639-1.028-0.939-1.552l-0.018-0.212c0.13,1.47,0.13,3.263-0.352,4.788c0.754-0.381,1.642-0.948,2.371-1.445
		c-0.032-0.045-0.061-0.092-0.093-0.138L232.72,80.711z"/>
	<path fill="#4D4D4D" d="M268.944,22.391c-0.049,0.022-0.099,0.044-0.144,0.065c0,0,0,0,0,0.001
		C268.85,22.435,268.89,22.416,268.944,22.391z"/>
	<path fill="#4D4D4D" d="M271.034,23.276c-0.054,0.19-0.101,0.378-0.146,0.568C270.933,23.655,270.98,23.465,271.034,23.276z"/>
	<path fill="#4D4D4D" d="M230.869,39.932c7.081-12.265,19.983-19.069,33.199-18.938l0.113,0.616l-0.261-1.421
		c-0.222-1.21-0.368-2.597-0.163-3.876c-0.975,0.695-2.134,1.768-2.662,2.282l-1.233,1.199l-1.658-0.458
		c-0.939-0.259-1.893-0.474-2.851-0.646l-1.38-0.248l-0.693-1.218c-0.622-1.09-1.23-2.382-1.457-3.687
		c-0.711,0.984-1.483,2.405-1.819,3.067l-0.774,1.514l-1.696,0.115c-0.951,0.065-1.9,0.181-2.842,0.335l-1.388,0.227l-1.062-0.92
		c-0.964-0.836-1.99-1.874-2.648-3.053c-0.355,1.188-0.619,2.828-0.719,3.583l-0.228,1.702l-1.581,0.666
		c-0.843,0.354-1.672,0.745-2.483,1.172l-1.212,0.639l-1.277-0.498c-1.23-0.481-2.602-1.143-3.646-2.078
		c0.057,1.271,0.363,2.963,0.527,3.733l0.35,1.669l-1.254,1.155c-0.633,0.583-1.248,1.186-1.835,1.814l-0.933,1.001l-1.368-0.049
		c-1.362-0.048-2.945-0.235-4.284-0.807c0.471,1.218,1.347,2.792,1.761,3.487l0.886,1.487l-0.843,1.51
		c-0.403,0.722-0.775,1.462-1.121,2.211l-0.562,1.214l-1.277,0.393c-1.356,0.418-2.988,0.776-4.495,0.64
		c0.863,1.011,2.294,2.253,2.952,2.79l1.351,1.098l-0.286,1.719c-0.128,0.764-0.221,1.533-0.296,2.303l-0.127,1.294l-1.033,0.794
		c-1.143,0.879-2.6,1.81-4.1,2.223c1.158,0.677,2.878,1.387,3.653,1.68l1.596,0.599l0.301,1.68c0.131,0.736,0.294,1.469,0.476,2.196
		l0.32,1.27l-0.716,1.098c-0.801,1.228-1.894,2.626-3.202,3.525c1.328,0.265,3.205,0.372,4.045,0.391l1.75,0.037l0.828,1.541
		c0.348,0.647,0.713,1.284,1.106,1.904l0.677,1.077l-0.304,1.237c-0.352,1.432-0.932,3.135-1.88,4.423
		c1.342-0.19,3.155-0.715,3.958-0.979l1.664-0.552l1.297,1.182c0.493,0.45,0.999,0.889,1.517,1.31
		C224.308,64.408,224.366,51.195,230.869,39.932z"/>
	<path fill="#4D4D4D" d="M232.925,80.774c0.024-0.017,0.048-0.033,0.071-0.049l-0.001,0
		C232.972,80.742,232.95,80.757,232.925,80.774z"/>
	<path fill="#4D4D4D" d="M270.099,21.896c0.181-0.073,0.367-0.146,0.554-0.217C270.466,21.75,270.28,21.823,270.099,21.896z"/>
	<path fill="#4D4D4D" d="M270.81,24.17c-0.063,0.292-0.118,0.581-0.164,0.862C270.692,24.751,270.748,24.461,270.81,24.17z"/>
	<path fill="#4D4D4D" d="M233.239,80.556c-0.019,0.013-0.037,0.026-0.056,0.04C233.203,80.582,233.22,80.57,233.239,80.556z"/>
	<path fill="#4D4D4D" d="M268.999,22.367c0.145-0.065,0.303-0.135,0.472-0.208C269.301,22.232,269.144,22.302,268.999,22.367z"/>
	<path fill="#4D4D4D" d="M271.335,22.375c-0.068,0.178-0.131,0.357-0.189,0.539C271.204,22.732,271.267,22.552,271.335,22.375z"/>
	<path fill="#4D4D4D" d="M271.472,22.034c0.111-0.259,0.228-0.516,0.365-0.758c-0.351,0.101-0.733,0.233-1.113,0.376
		c0.278,0.053,0.557,0.108,0.834,0.168C271.526,21.89,271.502,21.964,271.472,22.034z"/>
	<path fill="#4D4D4D" d="M269.5,22.147c0.185-0.079,0.381-0.162,0.584-0.244C269.88,21.985,269.686,22.067,269.5,22.147z"/>
	<path fill="#4D4D4D" d="M233.858,80.109c-0.094,0.07-0.208,0.153-0.328,0.24C233.652,80.261,233.764,80.179,233.858,80.109z"/>
	<path fill="#6E6E6E" d="M233.423,80.426c-0.024,0.017-0.053,0.037-0.078,0.055C233.371,80.463,233.398,80.444,233.423,80.426z"/>
	<path fill="#6E6E6E" d="M270.51,25.864l-0.093,0.572l0.229-1.403c0.046-0.281,0.101-0.571,0.164-0.862
		c0.023-0.108,0.052-0.217,0.078-0.326c0.045-0.19,0.092-0.378,0.146-0.568c0.034-0.121,0.074-0.242,0.112-0.362
		c0.058-0.182,0.121-0.361,0.189-0.539c0.044-0.115,0.089-0.228,0.137-0.34c0.03-0.07,0.054-0.144,0.086-0.213
		c-0.277-0.06-0.556-0.116-0.834-0.168c-0.001,0-0.001,0-0.002,0c-0.023,0.009-0.046,0.018-0.069,0.027
		c-0.187,0.071-0.373,0.143-0.554,0.217c-0.005,0.002-0.01,0.004-0.015,0.006c-0.203,0.082-0.399,0.165-0.584,0.244
		c-0.01,0.004-0.019,0.008-0.029,0.013c-0.169,0.073-0.328,0.143-0.472,0.208c-0.019,0.008-0.036,0.016-0.054,0.024
		c-0.054,0.024-0.094,0.043-0.144,0.066C269.426,23.566,269.996,24.703,270.51,25.864z"/>
	<path fill="#6E6E6E" d="M231.754,79.268c0.106,0.167,0.221,0.328,0.33,0.494C231.976,79.597,231.861,79.435,231.754,79.268z"/>
	<path fill="#6E6E6E" d="M232.725,80.711c0.032,0.045,0.061,0.092,0.093,0.138c0,0,0,0,0,0c0.039-0.026,0.07-0.049,0.108-0.075
		c0.025-0.017,0.046-0.032,0.071-0.049L232.725,80.711z"/>
	<path fill="#6E6E6E" d="M278.547,41.092l-0.502-1.64c-0.294-0.968-0.628-1.926-1.009-2.863l-0.528-1.294l0.653-1.237
		c0.57-1.083,1.31-2.253,2.256-3.129c-1.183-0.059-2.736,0.057-3.457,0.128l-1.7,0.17l-1.013-1.376
		c-0.595-0.81-1.225-1.595-1.89-2.349l-0.941-1.065l0.644,0.73c4.297,10.737,3.802,23.269-2.431,34.063
		c-6.497,11.254-17.746,18.05-29.749,19.318c0.025,0.009,0.049,0.02,0.075,0.029l1.222,0.437l0.518,1.19
		c0.591,1.357,1.155,3.05,1.167,4.642c0.931-0.959,2.045-2.51,2.515-3.216l0.991-1.483l1.777,0.163
		c0.765,0.07,1.537,0.11,2.307,0.123l1.287,0.02l0.87,0.948c0.97,1.052,2.013,2.402,2.556,3.842c0.557-1.19,1.094-2.923,1.309-3.705
		l0.458-1.665l1.671-0.438c0.784-0.205,1.563-0.435,2.329-0.698l1.239-0.426l1.155,0.62c1.246,0.67,2.655,1.583,3.632,2.744
		c0.12-1.264,0.054-2.978,0.001-3.767l-0.117-1.728l1.44-0.964c0.721-0.483,1.428-0.986,2.108-1.524l1.065-0.841l1.332,0.245
		c1.326,0.242,2.844,0.65,4.073,1.395c-0.283-1.23-0.887-2.837-1.181-3.554l-0.644-1.58l1.029-1.36
		c0.214-0.283,0.431-0.561,0.638-0.848l0.701-0.971l1.177-0.221c1.355-0.255,2.962-0.418,4.413-0.146
		c-0.92-1.21-3.495-3.286-4.354-4.355l-1.091-1.357l0.638-1.62c0.344-0.87,0.645-1.758,0.914-2.655l0.391-1.307l1.241-0.563
		c1.171-0.533,2.555-1.033,3.912-1.135c-0.908-0.801-2.248-1.707-2.87-2.106l-1.447-0.925l0.068-1.716
		c0.036-0.979,0.028-1.962-0.023-2.94l-0.072-1.383l1.005-0.951c0.908-0.86,2.014-1.753,3.222-2.284
		c-1.1-0.445-2.609-0.848-3.312-1.017L278.547,41.092z"/>
	<path fill="#5E5E5E" d="M268.63,61.229c6.232-10.794,6.727-23.326,2.431-34.063l-0.644-0.73l0.093-0.572
		c-0.514-1.161-1.084-2.298-1.71-3.406c0,0,0,0,0-0.001c0,0,0,0,0,0l-0.247,0.115l-1.376,0.648l-1.336-0.727
		c-0.126-0.07-0.259-0.131-0.388-0.2l-1.273-0.682l-0.113-0.616c-13.215-0.131-26.118,6.673-33.199,18.938
		c-6.503,11.263-6.56,24.476-1.322,35.374c0.002,0.005,0.004,0.01,0.006,0.014l0.135,0.107l0.998,0.802l0.112,1.275l0.018,0.212
		c0.3,0.524,0.613,1.041,0.939,1.552c0.106,0.167,0.221,0.328,0.33,0.494c0.209,0.318,0.416,0.637,0.635,0.949l0.005,0l0.271,0.014
		l0.001,0l0.004,0c0.065-0.045,0.12-0.085,0.182-0.129c0.019-0.013,0.037-0.026,0.056-0.04c0.035-0.025,0.072-0.051,0.106-0.075
		c0.025-0.018,0.054-0.038,0.078-0.055c0.037-0.027,0.072-0.052,0.107-0.077c0.12-0.087,0.234-0.17,0.328-0.24l1.397-1.05
		l1.603,0.699c0.66,0.288,1.337,0.545,2.017,0.79c0.002,0,0.004-0.001,0.006-0.001C250.884,79.278,262.133,72.483,268.63,61.229z
		 M240.99,65.355c-8.32-4.803-11.17-15.44-6.366-23.76c4.803-8.32,15.44-11.171,23.76-6.367c8.32,4.803,11.17,15.442,6.366,23.761
		C259.946,67.309,249.31,70.159,240.99,65.355z"/>
	<path fill="#1A1A1A" d="M258.384,35.228c-8.32-4.804-18.957-1.953-23.76,6.367c-4.804,8.32-1.954,18.957,6.366,23.76
		c8.32,4.804,18.957,1.954,23.76-6.366C269.554,50.669,266.704,40.031,258.384,35.228z M258.75,55.525
		c-2.89,5.006-9.29,6.72-14.296,3.83c-5.005-2.89-6.721-9.29-3.83-14.296c2.89-5.007,9.29-6.722,14.296-3.83
		C259.925,44.119,261.64,50.518,258.75,55.525z"/>
</g>
<g>
	<path fill="#999999" d="M392.081,51.144c0,0-1.24-5.825-2.912-7.302c-1.253-1.108-4.145-2.019-5.513-2.405
		c-0.265-1.027-0.587-2.057-0.947-3.056c0.543-0.93,1.54-2.414,2.532-2.764c1.468-0.518,4.821,1.564,4.821,1.564
		s-3.077-5.063-5.13-5.936c-1.558-0.664-4.663-0.593-6.07-0.52c-0.583-0.869-1.219-1.715-1.879-2.522
		c0.202-1.052,0.657-2.842,1.492-3.513c1.213-0.977,5.049-0.133,5.049-0.133s-4.543-3.747-6.766-3.895
		c-1.752-0.117-4.784,1.043-6.007,1.547c-0.795-0.602-1.624-1.177-2.47-1.71c-0.158-1.038-0.351-2.984,0.238-3.928
		c0.826-1.322,4.885-1.664,4.885-1.664s-5.689-2.184-7.838-1.587c-1.752,0.485-4.341,2.709-5.248,3.523
		c-0.888-0.277-1.798-0.53-2.707-0.74c-0.464-0.873-1.369-2.784-1.093-3.925c0.367-1.514,3.953-3.203,3.953-3.203
		s-5.959-0.154-7.806,1.096c-1.546,1.045-3.352,4.139-3.905,5.128c-0.896,0.013-1.806,0.065-2.702,0.146
		c-0.693-0.643-2.244-2.204-2.353-3.407c-0.14-1.552,2.715-4.315,2.715-4.315s-5.874,1.795-7.175,3.606
		c-1.123,1.563-1.774,5.238-1.931,6.216c-0.783,0.294-1.565,0.624-2.329,0.972c-0.755-0.314-2.986-1.318-3.533-2.487
		c-0.659-1.411,1.083-4.945,1.083-4.945s-4.733,3.541-5.404,5.667c-0.586,1.855-0.013,5.647,0.143,6.59
		c-0.619,0.522-1.232,1.084-1.815,1.65c-0.742-0.04-3.309-0.245-4.237-1.195c-1.086-1.115-0.61-5.011-0.61-5.011
		s-3.302,4.874-3.237,7.103c0.059,2.025,1.97,5.584,2.326,6.229c-0.418,0.677-0.827,1.38-1.2,2.088
		c-0.7,0.202-3.221,0.867-4.416,0.273c-1.395-0.693-2.122-4.705-2.122-4.705s-1.64,5.883-0.834,7.963
		c0.74,1.917,3.792,4.682,4.27,5.107c-0.168,0.768-0.326,1.562-0.447,2.339c-0.572,0.402-2.758,1.861-4.091,1.677
		c-1.544-0.213-3.57-3.614-3.57-3.614s0.411,5.948,1.839,7.661c1.261,1.51,4.823,3.091,5.643,3.442
		c0.091,0.807,0.224,1.63,0.371,2.428c-0.453,0.612-2.005,2.596-3.299,2.838c-1.531,0.287-4.553-2.275-4.553-2.275
		s2.348,5.633,4.271,6.763c1.67,0.983,5.444,1.287,6.403,1.35c0.35,0.757,0.74,1.525,1.148,2.26
		c-0.253,0.807-1.04,3.064-2.141,3.705c-1.347,0.783-5.033-0.628-5.033-0.628s3.979,4.393,6.158,4.866
		c1.847,0.4,5.399-0.457,6.447-0.729c0.619,0.624,1.266,1.241,1.931,1.82c0.028,0.924,0.012,3.202-0.78,4.146
		c-1,1.193-5.079,0.95-5.079,0.95s5.339,2.983,7.55,2.69c1.801-0.239,4.669-2.075,5.679-2.753c0.846,0.417,1.713,0.812,2.589,1.159
		c0.337,0.948,0.939,2.929,0.509,4.004c-0.579,1.445-4.354,2.611-4.354,2.611s5.841,0.991,7.849,0.024
		c1.605-0.774,3.713-3.362,4.504-4.382c0.372,0.047,0.75,0.098,1.118,0.137c0.575,0.668,1.993,2.445,1.948,3.69
		c-0.056,1.557-2.625,4.035-2.625,4.035c2.719-0.892,5.802-1.538,7.407-3.626c1.371-1.783,1.384-4.883,2.269-7.167
		c1.01-0.152,2.014-0.349,3.006-0.586c0.862,0.618,2.32,1.793,2.577,2.846c0.372,1.513-2.036,4.654-2.036,4.654
		s5.353-2.583,6.42-4.54c0.808-1.479,1.04-4.56,1.105-5.98c0.945-0.497,1.877-1.046,2.77-1.626c1.035,0.31,2.704,0.922,3.278,1.797
		c0.856,1.301-0.353,5.042-0.353,5.042s4.166-4.17,4.526-6.371c0.267-1.634-0.497-4.536-0.908-5.923
		c0.753-0.804,1.478-1.647,2.152-2.513c1.087-0.04,2.795,0.007,3.603,0.627c1.235,0.948,1.194,5.021,1.194,5.021
		s2.706-5.448,2.321-7.644c-0.285-1.63-1.955-4.115-2.798-5.29c0.439-0.999,0.837-2.026,1.186-3.059
		c1.008-0.383,2.645-0.882,3.613-0.542c1.469,0.516,2.804,4.25,2.804,4.25s0.79-6.077-0.315-8.012
		c-0.815-1.427-3.177-3.18-4.366-4.006c-0.005-0.144-0.018-0.311-0.023-0.457c0.83-0.708,2.199-1.728,3.217-1.743
		C389.591,48.085,392.081,51.144,392.081,51.144z M382.872,47.568l-0.623,0.53c0,0,0,0,0,0l-0.477,0.406l0.046,1.443
		c0.005,0.145,0.018,0.29,0.021,0.435l0.038,1.521l1.25,0.867c0.097,0.067,0.215,0.151,0.341,0.242
		c0.024,0.017,0.048,0.035,0.073,0.053c0.113,0.081,0.232,0.169,0.359,0.263c0.029,0.021,0.055,0.04,0.084,0.062
		c0.152,0.113,0.308,0.232,0.47,0.358c0.025,0.019,0.049,0.039,0.074,0.058c0.133,0.104,0.266,0.21,0.399,0.319
		c0.026,0.021,0.053,0.042,0.079,0.063c0,0.001,0.001,0.002,0.001,0.002c0.314,0.258,0.62,0.523,0.882,0.776
		c-0.279,0.002-0.561,0.03-0.842,0.063c-0.118,0.014-0.235,0.031-0.353,0.05c-0.195,0.031-0.389,0.068-0.582,0.11
		c-0.115,0.025-0.231,0.05-0.345,0.078c-0.205,0.052-0.407,0.109-0.607,0.169c-0.093,0.028-0.189,0.054-0.281,0.083
		c-0.287,0.093-0.568,0.19-0.838,0.292l-1.33,0.503l-0.309,0.922c0,0,0,0,0,0l-0.143,0.425c-0.32,0.953-0.685,1.891-1.089,2.811
		l-0.685,1.565l0.997,1.388c0.422,0.588,1.3,1.875,1.839,2.93c-1.232-0.382-2.614-0.437-3.838-0.39l-1.397,0.053l-0.857,1.104
		c-0.621,0.798-1.284,1.566-1.975,2.305l-1.17,1.255l0.488,1.645c0.205,0.693,0.612,2.202,0.776,3.377
		c-1.064-0.781-2.39-1.291-3.589-1.649l-1.326-0.394l-1.161,0.753c-0.822,0.534-1.669,1.033-2.535,1.49l-1.52,0.8l-0.078,1.716
		c-0.034,0.738-0.149,2.352-0.389,3.539c-0.767-1.125-1.892-2.073-2.939-2.82l-1.109-0.794l-1.328,0.315
		c-0.911,0.215-1.831,0.398-2.757,0.536l-1.722,0.258l-0.63,1.624c-0.496,1.278-1.008,4.546-1.595,5.948
		c-0.49-1.393-1.435-2.703-2.334-3.749l-0.78-0.908l-1.19-0.122c-0.352-0.035-0.703-0.085-1.054-0.129l-1.693-0.21l-1.047,1.348
		c-0.475,0.613-1.564,1.938-2.487,2.799c0.03-1.438-0.376-2.956-0.829-4.225l-0.455-1.277l-1.26-0.502
		c-0.805-0.32-1.596-0.681-2.374-1.064l-1.554-0.764l-1.439,0.965c-0.657,0.44-2.107,1.355-3.262,1.883
		c0.517-1.427,0.603-3.104,0.56-4.517l-0.04-1.31l-0.988-0.86c-0.612-0.533-1.199-1.093-1.77-1.669l-1.215-1.227l-1.671,0.436
		c-0.784,0.204-2.553,0.606-3.863,0.718c0.976-1.19,1.623-2.769,2.05-4.134l0.385-1.228l-0.626-1.124
		c-0.373-0.673-0.724-1.362-1.047-2.06l-0.747-1.619l-1.78-0.117c-0.847-0.054-2.746-0.243-4.043-0.569
		c1.374-0.807,2.557-2.141,3.437-3.332l0.771-1.043l-0.232-1.277c-0.005-0.026-0.007-0.053-0.012-0.08
		c-0.001-0.001-0.002-0.003-0.003-0.004c-0.129-0.711-0.245-1.426-0.325-2.143l-0.196-1.737l-1.607-0.685
		c-0.113-0.048-0.245-0.107-0.388-0.171c-0.032-0.014-0.062-0.028-0.095-0.043c-0.041-0.018-0.083-0.038-0.125-0.058
		c-0.065-0.03-0.127-0.058-0.195-0.09c-0.055-0.025-0.102-0.047-0.159-0.073l-0.001-0.003c-0.027-0.013-0.054-0.025-0.081-0.038
		c-0.041-0.019-0.075-0.035-0.117-0.055c0,0,0,0,0,0c-0.795-0.382-1.729-0.869-2.437-1.332c1.561-0.345,3.115-1.242,4.323-2.09
		l1.049-0.735l0.194-1.265l0.026-0.17c0.003-0.004,0.006-0.008,0.008-0.012c0.106-0.66,0.234-1.318,0.377-1.97l0.375-1.714
		l-1.31-1.165c-0.631-0.564-1.992-1.871-2.828-2.939c1.591,0.177,3.354-0.171,4.771-0.583l1.223-0.355l0.594-1.125
		c0.341-0.65,0.71-1.285,1.096-1.909l0.921-1.488l-0.843-1.534c-0.404-0.736-1.25-2.417-1.684-3.698
		c1.432,0.682,3.19,0.931,4.653,1.01l1.309,0.071l0.94-0.912c0.537-0.521,1.091-1.029,1.663-1.51l1.304-1.1l-0.279-1.682
		c-0.135-0.817-0.379-2.663-0.371-4.004c1.107,1.092,2.642,1.888,3.975,2.44l1.202,0.497l1.185-0.537
		c0.705-0.321,1.417-0.624,2.142-0.896l1.631-0.612l0.276-1.72c0.135-0.837,0.496-2.698,0.94-3.95
		c0.636,1.372,1.763,2.608,2.802,3.573l0.979,0.909l1.333-0.12c0.822-0.076,1.649-0.123,2.475-0.135l1.729-0.025l0.845-1.51
		c0.395-0.705,1.32-2.251,2.139-3.268c0.174,1.445,0.805,2.909,1.443,4.114l0.641,1.208l1.334,0.308
		c0.838,0.194,1.667,0.425,2.488,0.682l1.628,0.509l1.27-1.138c0.586-0.527,1.898-1.638,2.97-2.323
		c-0.287,1.372-0.175,2.893,0.024,4.198l0.207,1.355l1.16,0.729c0.774,0.488,1.527,1.011,2.256,1.564l1.368,1.037l1.588-0.654
		c0.705-0.29,2.257-0.881,3.463-1.168c-0.692,1.159-1.077,2.567-1.319,3.82l-0.267,1.38l0.89,1.087
		c0.605,0.738,1.18,1.503,1.712,2.294l0.947,1.412l1.698-0.088c0.742-0.039,2.359-0.082,3.566,0.042
		c-1.017,0.849-1.832,2.021-2.465,3.105l-0.708,1.21l0.475,1.319c0.33,0.917,0.621,1.85,0.866,2.792l0.432,1.665l1.655,0.468
		c0.709,0.201,2.22,0.668,3.307,1.165C384.937,45.95,383.81,46.769,382.872,47.568z"/>
	<path fill="#4D4D4D" d="M385.048,55.031c0.281-0.034,0.563-0.061,0.842-0.063c-0.263-0.253-0.568-0.518-0.882-0.776
		c0.094,0.268,0.185,0.537,0.272,0.807C385.202,55.005,385.125,55.021,385.048,55.031z"/>
	<path fill="#4D4D4D" d="M383.349,52.928c0.041,0.029,0.075,0.053,0.119,0.085c-0.126-0.091-0.245-0.175-0.341-0.242L383.349,52.928
		C383.349,52.928,383.349,52.928,383.349,52.928z"/>
	<path fill="#4D4D4D" d="M315.147,51.131c0.068,0.032,0.131,0.061,0.195,0.09c-0.003-0.001-0.007-0.003-0.01-0.005
		C315.272,51.189,315.211,51.161,315.147,51.131z"/>
	<path fill="#4D4D4D" d="M315.951,51.493c-0.112-0.048-0.246-0.107-0.388-0.171C315.706,51.386,315.838,51.445,315.951,51.493z"/>
	<path fill="#4D4D4D" d="M314.86,50.809c0.152-0.327,0.317-0.648,0.477-0.97c0.098-0.196,0.189-0.395,0.29-0.589
		c0.279-0.537,0.57-1.066,0.873-1.587l0.175-0.122c-1.208,0.848-2.762,1.745-4.323,2.09c0.708,0.463,1.642,0.949,2.437,1.332
		c0.023-0.05,0.049-0.099,0.073-0.149L314.86,50.809z"/>
	<path fill="#4D4D4D" d="M314.906,51.017c0.027,0.013,0.054,0.026,0.081,0.038l0-0.001
		C314.959,51.042,314.934,51.031,314.906,51.017z"/>
	<path fill="#4D4D4D" d="M382.88,55.522c-0.287,0.093-0.568,0.19-0.838,0.292C382.311,55.713,382.593,55.615,382.88,55.522z"/>
	<path fill="#4D4D4D" d="M384.528,53.807c0.133,0.104,0.266,0.211,0.399,0.319C384.794,54.018,384.661,53.911,384.528,53.807z"/>
	<path fill="#4D4D4D" d="M383.985,53.391c0.151,0.113,0.309,0.233,0.47,0.358C384.293,53.623,384.136,53.504,383.985,53.391z"/>
	<path fill="#4D4D4D" d="M383.767,55.269c-0.205,0.052-0.406,0.109-0.607,0.169C383.361,55.378,383.562,55.321,383.767,55.269z"/>
	<path fill="#4D4D4D" d="M384.695,55.081c-0.195,0.031-0.389,0.068-0.582,0.11C384.306,55.148,384.5,55.112,384.695,55.081z"/>
	<path fill="#4D4D4D" d="M381.185,43.856l-0.432-1.665c-0.245-0.943-0.535-1.875-0.866-2.792l-0.475-1.319l0.708-1.21
		c0.633-1.084,1.448-2.256,2.465-3.105c-1.207-0.124-2.824-0.082-3.566-0.042l-1.698,0.088l-0.947-1.412
		c-0.532-0.791-1.107-1.555-1.712-2.294l-0.89-1.087l0.267-1.38c0.242-1.253,0.627-2.661,1.319-3.82
		c-1.206,0.287-2.758,0.878-3.463,1.168l-1.588,0.654l-1.368-1.037c-0.729-0.553-1.482-1.076-2.256-1.564l-1.16-0.729l-0.207-1.355
		c-0.199-1.305-0.311-2.825-0.024-4.198c-1.072,0.685-2.385,1.796-2.97,2.323l-1.27,1.138l-1.628-0.509
		c-0.821-0.257-1.651-0.488-2.488-0.682l-1.334-0.308l-0.641-1.208c-0.639-1.205-1.27-2.669-1.443-4.114
		c-0.818,1.017-1.744,2.563-2.139,3.268l-0.845,1.51l-1.729,0.025c-0.827,0.012-1.653,0.059-2.475,0.135l-1.333,0.12l-0.979-0.909
		c-1.039-0.965-2.166-2.201-2.802-3.573c-0.444,1.253-0.805,3.113-0.94,3.95l-0.276,1.72l-1.631,0.612
		c-0.725,0.272-1.438,0.575-2.142,0.896l-1.185,0.537l-1.202-0.497c-1.333-0.552-2.869-1.348-3.975-2.44
		c-0.008,1.34,0.236,3.187,0.371,4.004l0.279,1.682l-1.304,1.1c-0.572,0.482-1.125,0.99-1.663,1.51l-0.94,0.912l-1.309-0.071
		c-1.463-0.079-3.221-0.327-4.653-1.01c0.435,1.281,1.28,2.962,1.684,3.698l0.843,1.534l-0.921,1.488
		c-0.386,0.624-0.755,1.259-1.096,1.909l-0.594,1.125l-1.223,0.355c-1.417,0.412-3.18,0.76-4.771,0.583
		c0.836,1.068,2.197,2.375,2.828,2.939l1.31,1.165l-0.375,1.714c-0.143,0.652-0.271,1.31-0.377,1.97
		c6.818-9.987,18.291-16.544,31.297-16.544c14.161,0,26.505,7.772,33,19.282l0.623-0.53c0.938-0.798,2.065-1.618,3.275-2.08
		c-1.088-0.496-2.598-0.964-3.307-1.165L381.185,43.856z"/>
	<path fill="#4D4D4D" d="M383.542,53.066c0.112,0.081,0.233,0.17,0.359,0.263C383.774,53.235,383.654,53.147,383.542,53.066z"/>
	<path fill="#6E6E6E" d="M315.627,49.25c-0.101,0.194-0.192,0.393-0.29,0.589C315.435,49.643,315.526,49.444,315.627,49.25z"/>
	<path fill="#6E6E6E" d="M314.862,50.813c-0.023,0.05-0.05,0.099-0.073,0.149c0,0,0,0,0,0c0.042,0.02,0.076,0.035,0.117,0.055
		c0.028,0.013,0.053,0.025,0.081,0.038L314.862,50.813z"/>
	<path fill="#6E6E6E" d="M315.332,51.217c0.003,0.001,0.007,0.003,0.01,0.005c0.042,0.019,0.085,0.039,0.125,0.058
		C315.425,51.26,315.376,51.237,315.332,51.217z"/>
	<path fill="#6E6E6E" d="M381.254,56.112l-0.542,0.205l1.33-0.503c0.27-0.102,0.551-0.2,0.838-0.292
		c0.092-0.03,0.187-0.055,0.281-0.083c0.2-0.06,0.401-0.118,0.607-0.169c0.114-0.029,0.23-0.053,0.345-0.078
		c0.194-0.042,0.387-0.079,0.582-0.11c0.118-0.019,0.235-0.036,0.353-0.05c0.077-0.009,0.154-0.026,0.231-0.033
		c-0.087-0.27-0.178-0.539-0.272-0.807c0-0.001-0.001-0.002-0.001-0.002c-0.026-0.021-0.053-0.042-0.079-0.063
		c-0.133-0.108-0.266-0.215-0.399-0.319c-0.025-0.019-0.049-0.039-0.074-0.058c-0.161-0.125-0.319-0.245-0.47-0.358
		c-0.029-0.022-0.055-0.041-0.084-0.062c-0.126-0.094-0.247-0.182-0.359-0.263c-0.025-0.018-0.049-0.036-0.073-0.053
		c-0.044-0.032-0.078-0.056-0.119-0.085C382.702,54.024,382.003,55.087,381.254,56.112z"/>
	<path fill="#6E6E6E" d="M349.687,72.167c-12.995,0-24.504-6.345-31.604-16.105c0.005,0.026,0.007,0.053,0.012,0.08l0.232,1.277
		l-0.771,1.043c-0.88,1.191-2.063,2.526-3.437,3.332c1.297,0.326,3.196,0.515,4.043,0.569l1.78,0.117l0.747,1.619
		c0.323,0.698,0.673,1.387,1.047,2.06l0.626,1.124l-0.385,1.228c-0.427,1.365-1.075,2.945-2.05,4.134
		c1.31-0.112,3.079-0.514,3.863-0.718l1.671-0.436l1.215,1.227c0.57,0.577,1.158,1.136,1.77,1.669l0.988,0.86l0.04,1.31
		c0.043,1.414-0.043,3.091-0.56,4.517c1.155-0.528,2.605-1.442,3.262-1.883l1.439-0.965l1.554,0.764
		c0.778,0.383,1.569,0.744,2.374,1.064l1.26,0.502l0.455,1.277c0.453,1.269,0.859,2.787,0.829,4.225
		c0.923-0.861,2.013-2.186,2.487-2.799l1.047-1.348l1.693,0.21c0.351,0.044,0.702,0.093,1.054,0.129l1.19,0.122l0.78,0.908
		c0.899,1.046,1.844,2.356,2.334,3.749c0.587-1.402,1.098-4.67,1.595-5.948l0.63-1.624l1.722-0.258
		c0.926-0.138,1.846-0.321,2.757-0.536l1.328-0.315l1.109,0.794c1.047,0.747,2.172,1.696,2.939,2.82
		c0.24-1.187,0.354-2.8,0.389-3.539l0.078-1.716l1.52-0.8c0.866-0.457,1.713-0.956,2.535-1.49l1.161-0.753l1.326,0.394
		c1.199,0.358,2.525,0.868,3.589,1.649c-0.164-1.176-0.57-2.684-0.776-3.377l-0.488-1.645l1.17-1.255
		c0.691-0.739,1.354-1.507,1.975-2.305l0.857-1.104l1.397-0.053c1.224-0.047,2.605,0.008,3.838,0.39
		c-0.54-1.055-1.417-2.343-1.839-2.93l-0.997-1.388l0.685-1.565c0.404-0.92,0.769-1.858,1.089-2.811l0.143-0.425
		C373.25,66.33,362.151,72.167,349.687,72.167z"/>
	<path fill="#5E5E5E" d="M349.25,28.816c-13.006,0-24.479,6.557-31.297,16.544c-0.003,0.004-0.006,0.008-0.008,0.012l-0.026,0.17
		l-0.194,1.265l-1.049,0.735l-0.175,0.122c-0.303,0.521-0.594,1.051-0.873,1.587c-0.101,0.194-0.192,0.393-0.29,0.589
		c-0.161,0.323-0.326,0.643-0.477,0.97l0.002,0.004l0.125,0.242l0,0.001l0.001,0.003c0.056,0.027,0.104,0.048,0.159,0.073
		c0.064,0.03,0.125,0.058,0.185,0.085c0.044,0.02,0.093,0.043,0.136,0.063c0.033,0.015,0.063,0.029,0.095,0.043
		c0.142,0.064,0.276,0.123,0.388,0.171l1.607,0.685l0.196,1.737c0.08,0.717,0.196,1.431,0.325,2.143
		c0.001,0.001,0.002,0.003,0.003,0.004c7.1,9.76,18.609,16.105,31.604,16.105c12.464,0,23.564-5.837,30.715-14.927c0,0,0,0,0,0
		l0.309-0.922l0.542-0.205c0.749-1.025,1.448-2.088,2.095-3.184c0,0,0,0,0,0l-0.222-0.157l-1.25-0.867l-0.038-1.521
		c-0.003-0.144-0.016-0.289-0.021-0.435l-0.046-1.443l0.477-0.406c0,0,0,0,0,0C375.754,36.587,363.411,28.816,349.25,28.816z
		 M349.687,67.687c-9.607,0-17.394-7.787-17.394-17.394s7.787-17.394,17.394-17.394c9.607,0,17.394,7.787,17.394,17.394
		S359.294,67.687,349.687,67.687z"/>
	<path fill="#1A1A1A" d="M349.687,32.899c-9.607,0-17.394,7.787-17.394,17.394s7.787,17.394,17.394,17.394
		c9.607,0,17.394-7.787,17.394-17.394S359.294,32.899,349.687,32.899z M349.687,60.759c-5.78,0-10.466-4.685-10.466-10.466
		s4.686-10.466,10.466-10.466c5.781,0,10.466,4.685,10.466,10.466S355.468,60.759,349.687,60.759z"/>
</g>
<g>
	<path fill="#999999" d="M486.702,51.385c1.557,0.053,3.885,3.398,3.885,3.398s-0.954-6.019-2.544-7.581
		c-1.297-1.275-4.518-2.404-5.676-2.783c-0.203-0.908-0.44-1.823-0.712-2.715c0.526-0.837,1.727-2.577,2.853-2.908
		c1.494-0.439,4.75,1.823,4.75,1.823s-2.847-5.238-4.852-6.212c-1.678-0.818-5.262-0.833-6.395-0.818
		c-0.459-0.77-0.958-1.532-1.478-2.268c0.21-0.921,0.787-3.045,1.776-3.742c1.273-0.897,5.094,0.195,5.094,0.195
		s-4.492-4.188-6.71-4.411c-1.916-0.193-5.425,1.083-6.35,1.435c-0.646-0.532-1.323-1.043-2.005-1.531
		c-0.107-0.811-0.352-3.245,0.387-4.302c0.893-1.277,4.824-1.535,4.824-1.535s-5.433-2.328-7.609-1.846
		c-1.898,0.421-4.897,2.812-5.634,3.419c-0.762-0.275-1.555-0.525-2.337-0.747c-0.337-0.663-1.443-2.988-1.083-4.266
		c0.423-1.5,4.035-3.035,4.035-3.035s-5.872-0.422-7.77,0.748c-1.723,1.063-3.852,4.499-4.232,5.129
		c-0.795-0.025-1.609-0.026-2.408,0.005c-0.525-0.505-2.361-2.356-2.445-3.689c-0.097-1.554,3.013-4.19,3.013-4.19
		s-5.914,1.523-7.313,3.26c-1.288,1.6-2.158,5.624-2.288,6.251c-0.749,0.239-1.515,0.497-2.247,0.782
		c-0.634-0.294-2.992-1.458-3.498-2.705c-0.587-1.443,1.345-4.9,1.345-4.9s-4.947,3.331-5.715,5.424
		c-0.678,1.848-0.266,5.724-0.16,6.608c-0.652,0.482-1.299,1.009-1.918,1.534c-0.755-0.085-3.25-0.437-4.107-1.438
		c-1.014-1.182-0.306-5.08-0.306-5.08s-3.704,4.85-3.723,7.079c-0.015,1.938,1.609,5.359,2.034,6.221
		c-0.482,0.681-0.951,1.403-1.383,2.123c-0.825,0.184-3.173,0.631-4.279-0.002c-1.352-0.775-1.973-4.672-1.973-4.672
		s-1.814,5.642-1.134,7.766c0.576,1.8,3.094,4.448,3.854,5.219c-0.23,0.847-0.442,1.717-0.611,2.583
		c-0.786,0.485-2.767,1.611-3.98,1.398c-1.533-0.271-3.362-3.924-3.362-3.924s0.086,6.115,1.445,7.883
		c1.108,1.441,4.132,3.006,5.224,3.542c0.061,0.94,0.153,1.889,0.291,2.821c-0.652,0.766-2.067,2.278-3.213,2.443
		c-1.541,0.223-4.439-2.464-4.439-2.464s2.062,5.553,3.905,6.81c1.472,1.003,4.768,1.534,6.046,1.709
		c0.146,0.345,0.29,0.698,0.44,1.037c-0.291,0.832-1.12,2.948-2.222,3.531c-1.376,0.73-4.806-0.255-4.806-0.255
		c2.132,1.909,4.232,4.254,6.845,4.602c2.229,0.295,4.919-1.244,7.34-1.62c0.637,0.8,1.31,1.57,2.009,2.31
		c-0.103,1.056-0.392,2.905-1.175,3.655c-1.125,1.078-5.048,0.563-5.048,0.563s4.913,3.344,7.142,3.291
		c1.685-0.04,4.468-1.38,5.731-2.033c0.904,0.57,1.845,1.102,2.793,1.585c0.25,1.051,0.554,2.802,0.084,3.737
		c-0.699,1.391-4.542,2.216-4.542,2.216s5.693,1.523,7.779,0.733c1.548-0.586,3.679-2.697,4.676-3.747
		c1.073,0.249,2.165,0.456,3.251,0.606c0.58,0.921,1.393,2.424,1.259,3.433c-0.203,1.545-3.751,3.545-3.751,3.545
		s6.071-0.38,7.781-1.812c1.268-1.062,2.585-3.75,3.182-5.068c1.086-0.119,2.173-0.287,3.242-0.503
		c0.835,0.682,2.087,1.851,2.276,2.858c0.288,1.53-2.278,4.554-2.278,4.554s5.658-2.355,6.782-4.28
		c0.828-1.418,1.165-4.342,1.286-5.785c0.122-0.075,0.26-0.17,0.384-0.247c1.027,0.364,2.597,1.039,3.119,1.914
		c0.798,1.337-0.606,5.023-0.606,5.023s4.424-3.987,4.867-6.172c0.332-1.64-0.325-4.6-0.673-5.978
		c0.755-0.742,1.486-1.535,2.172-2.348c1.076,0.006,2.86,0.128,3.659,0.81c1.184,1.013,1.057,4.958,1.057,4.958
		s2.847-5.197,2.576-7.41c-0.206-1.682-1.819-4.335-2.585-5.517c0.46-0.939,0.875-1.912,1.243-2.887
		c1.014-0.351,2.79-0.853,3.789-0.465c1.452,0.563,2.639,4.307,2.639,4.307s0.974-5.807-0.01-7.808
		c-0.775-1.575-3.295-3.62-4.344-4.428c0.124-0.99,0.208-1.995,0.247-2.993C484.002,52.486,485.59,51.346,486.702,51.385z
		 M481.105,58.513c0.605,0.465,1.892,1.514,2.744,2.414c-1.35-0.02-2.761,0.351-3.968,0.768l-1.328,0.458l-0.497,1.316
		c-0.337,0.893-0.711,1.773-1.13,2.629l-0.749,1.526l0.925,1.427c0.405,0.622,1.25,2.002,1.745,3.109
		c-1.243-0.456-2.665-0.575-3.921-0.581l-1.401-0.008l-0.905,1.07c-0.63,0.745-1.292,1.463-1.985,2.146l-1.226,1.207l0.422,1.666
		c0.18,0.715,0.531,2.257,0.645,3.447c-1.005-0.818-2.278-1.383-3.438-1.797l-1.362-0.483l-1.226,0.761
		c-0.124,0.077-0.243,0.16-0.366,0.236l-1.298,0.793l-0.126,1.515c-0.01,0.115-0.023,0.257-0.038,0.408
		c-0.003,0.035-0.007,0.07-0.011,0.107c-0.014,0.137-0.03,0.283-0.048,0.439c-0.004,0.033-0.007,0.062-0.011,0.096
		c-0.023,0.19-0.048,0.388-0.076,0.593c-0.003,0.023-0.007,0.046-0.01,0.068c-0.026,0.187-0.055,0.377-0.086,0.567
		c-0.003,0.019-0.006,0.038-0.009,0.058c0,0-0.001,0.001-0.001,0.001c-0.067,0.402-0.143,0.799-0.23,1.154
		c-0.142-0.241-0.306-0.471-0.476-0.698c-0.071-0.095-0.145-0.189-0.22-0.281c-0.124-0.153-0.253-0.303-0.386-0.448
		c-0.08-0.087-0.159-0.176-0.241-0.26c-0.147-0.151-0.297-0.297-0.449-0.44c-0.071-0.067-0.141-0.137-0.213-0.202
		c-0.224-0.202-0.449-0.397-0.672-0.579l-1.101-0.901l-0.955,0.194c-0.001,0-0.001,0-0.002,0l-0.438,0.089
		c-0.985,0.2-1.979,0.352-2.979,0.463l-1.698,0.189l-0.703,1.557c-0.299,0.66-0.974,2.063-1.618,3.058
		c-0.286-1.257-0.928-2.482-1.582-3.518l-0.744-1.183l-1.385-0.191c-1.003-0.138-1.998-0.328-2.985-0.557l-1.671-0.386l-1.181,1.245
		c-0.497,0.524-1.6,1.631-2.536,2.361c0.144-1.312-0.078-2.716-0.367-3.933l-0.321-1.347l-1.233-0.628
		c-0.872-0.445-1.728-0.93-2.557-1.45l-1.453-0.916l-1.525,0.79c-0.657,0.34-2.11,1.047-3.259,1.433
		c0.591-1.226,0.849-2.674,0.973-3.954l0.133-1.357l-0.937-0.992c-0.641-0.682-1.26-1.387-1.842-2.12l-1.084-1.362l-1.721,0.267
		c-1.355,0.209-4.441,1.4-5.95,1.592c0.962-1.12,1.623-2.594,2.08-3.895l0.397-1.129l-0.49-1.092
		c-0.145-0.322-0.277-0.652-0.415-0.977l-0.665-1.571l-1.69-0.232c-0.767-0.105-2.46-0.385-3.667-0.755
		c1.26-0.692,2.372-1.802,3.245-2.83l0.877-1.032l-0.195-1.343c-0.125-0.857-0.208-1.722-0.266-2.588l-0.116-1.728l-1.554-0.764
		c-0.71-0.348-2.227-1.147-3.263-1.884c1.495-0.265,2.991-1.029,4.193-1.774l1.114-0.69l0.25-1.285
		c0.156-0.797,0.347-1.585,0.561-2.367l0.455-1.666l-1.213-1.23c-0.569-0.577-1.801-1.909-2.554-2.987
		c1.518,0.251,3.209,0.021,4.605-0.291l1.257-0.281l0.66-1.105c0.397-0.659,0.819-1.307,1.262-1.936l1.029-1.457l-0.789-1.6
		c-0.377-0.76-1.162-2.5-1.528-3.786c1.385,0.786,3.133,1.144,4.604,1.311l1.288,0.146l0.99-0.84
		c0.021-0.017,0.042-0.033,0.063-0.05c0.001-0.002,0.001-0.003,0.002-0.005c0.551-0.467,1.113-0.925,1.693-1.352l1.407-1.038
		l-0.21-1.735c-0.015-0.124-0.031-0.271-0.047-0.429c-0.003-0.033-0.007-0.067-0.01-0.101c-0.003-0.035-0.007-0.072-0.01-0.108
		c-0.008-0.082-0.015-0.162-0.023-0.249c-0.005-0.056-0.01-0.105-0.015-0.163l0.002-0.002c-0.004-0.049-0.008-0.096-0.012-0.146
		c-0.002-0.026-0.004-0.047-0.006-0.073c0,0,0,0,0,0c-0.067-0.88-0.112-1.931-0.065-2.775c1.08,1.179,2.633,2.076,3.971,2.699
		l1.161,0.541l1.193-0.465l0.16-0.063c0.005,0,0.01,0.001,0.015,0.002c0.624-0.238,1.258-0.456,1.894-0.658l1.671-0.533l0.355-1.716
		c0.172-0.828,0.624-2.661,1.13-3.919c0.642,1.467,1.826,2.819,2.891,3.841l0.918,0.881l1.272-0.049
		c0.733-0.028,1.468-0.027,2.202-0.005l1.749,0.054l0.907-1.497c0.435-0.718,1.468-2.29,2.359-3.308
		c0.125,1.583,0.789,3.228,1.453,4.535l0.593,1.17l1.26,0.357c0.72,0.205,1.436,0.431,2.139,0.685l1.604,0.579l1.318-1.082
		c0.64-0.525,2.117-1.66,3.282-2.323c-0.393,1.505-0.315,3.233-0.126,4.663l0.171,1.29l1.057,0.757
		c0.63,0.451,1.25,0.917,1.847,1.408l1.345,1.107l1.628-0.62c0.792-0.302,2.584-0.919,3.892-1.161
		c-0.872,1.237-1.378,2.83-1.693,4.212l-0.298,1.302l0.77,1.094c0.476,0.675,0.931,1.367,1.355,2.076l0.886,1.486l1.73-0.023
		c0.807-0.012,2.61,0.017,3.9,0.217c-1.165,0.873-2.118,2.152-2.842,3.307l-0.725,1.16l0.399,1.309
		c0.252,0.822,0.467,1.657,0.654,2.495l0.373,1.664l1.62,0.53c0.75,0.245,2.368,0.825,3.497,1.411
		c-1.333,0.437-2.592,1.294-3.624,2.119l-1.069,0.856l-0.053,1.37c-0.035,0.913-0.111,1.827-0.225,2.735l-0.215,1.703
		L481.105,58.513z"/>
	<path fill="#4D4D4D" d="M480.185,53.027l0.053-1.37l1.069-0.856c1.031-0.825,2.291-1.682,3.624-2.119
		c-1.129-0.587-2.747-1.167-3.497-1.411l-1.62-0.53l-0.373-1.664c-0.188-0.838-0.403-1.673-0.654-2.495l-0.399-1.309l0.725-1.16
		c0.724-1.155,1.677-2.434,2.842-3.307c-1.29-0.2-3.093-0.229-3.9-0.217l-1.73,0.023l-0.886-1.486
		c-0.424-0.71-0.879-1.402-1.355-2.076l-0.77-1.094l0.298-1.302c0.315-1.382,0.822-2.975,1.693-4.212
		c-1.307,0.242-3.099,0.859-3.892,1.161l-1.628,0.62l-1.345-1.107c-0.598-0.491-1.218-0.957-1.847-1.408l-1.057-0.757l-0.171-1.29
		c-0.189-1.43-0.267-3.158,0.126-4.663c-1.165,0.663-2.642,1.798-3.282,2.323l-1.318,1.082l-1.604-0.579
		c-0.703-0.254-1.42-0.481-2.139-0.685l-1.26-0.357l-0.593-1.17c-0.664-1.307-1.328-2.953-1.453-4.535
		c-0.892,1.018-1.925,2.59-2.359,3.308l-0.907,1.497l-1.749-0.054c-0.734-0.023-1.468-0.024-2.202,0.005l-1.272,0.049L444.433,19
		c-1.065-1.022-2.249-2.374-2.891-3.841c-0.507,1.258-0.958,3.091-1.13,3.919l-0.355,1.716l-1.671,0.533
		c-0.636,0.202-1.27,0.42-1.894,0.658c12.057,0.911,23.472,7.569,29.975,18.833c7.08,12.263,6.522,26.839-0.199,38.219l-0.591-0.209
		l1.362,0.483c1.16,0.414,2.433,0.979,3.438,1.797c-0.113-1.19-0.464-2.732-0.645-3.447l-0.422-1.666l1.226-1.207
		c0.693-0.683,1.356-1.401,1.985-2.146l0.905-1.07l1.401,0.008c1.256,0.006,2.678,0.125,3.921,0.581
		c-0.496-1.107-1.34-2.486-1.745-3.109l-0.925-1.427l0.749-1.526c0.42-0.856,0.794-1.736,1.13-2.629l0.497-1.316l1.328-0.458
		c1.207-0.417,2.618-0.788,3.968-0.768c-0.852-0.9-2.139-1.949-2.744-2.414l-1.36-1.047l0.215-1.703
		C480.075,54.854,480.15,53.94,480.185,53.027z"/>
	<path fill="#4D4D4D" d="M430.088,22.429c0.008,0.087,0.015,0.168,0.023,0.249c0-0.005-0.001-0.011-0.001-0.016
		C430.102,22.586,430.095,22.51,430.088,22.429z"/>
	<path fill="#4D4D4D" d="M460.366,83.496c0.152,0.143,0.302,0.288,0.449,0.44C460.668,83.784,460.518,83.639,460.366,83.496z"/>
	<path fill="#4D4D4D" d="M461.662,84.926c0.17,0.227,0.334,0.457,0.476,0.698c0.088-0.355,0.164-0.752,0.23-1.154
		c-0.184,0.216-0.373,0.429-0.562,0.64C461.761,85.047,461.709,84.989,461.662,84.926z"/>
	<path fill="#4D4D4D" d="M462.634,82.403c-0.005,0.047-0.008,0.087-0.013,0.138c0.015-0.152,0.028-0.293,0.038-0.408L462.634,82.403
		C462.634,82.403,462.634,82.403,462.634,82.403z"/>
	<path fill="#4D4D4D" d="M462.551,83.183c-0.023,0.19-0.048,0.389-0.076,0.593C462.503,83.571,462.528,83.373,462.551,83.183z"/>
	<path fill="#4D4D4D" d="M430.177,23.317c-0.014-0.123-0.031-0.271-0.047-0.429C430.147,23.047,430.163,23.194,430.177,23.317z"/>
	<path fill="#4D4D4D" d="M461.442,84.645c-0.125-0.153-0.253-0.302-0.386-0.448C461.189,84.342,461.318,84.492,461.442,84.645z"/>
	<path fill="#4D4D4D" d="M460.153,83.294c-0.224-0.202-0.449-0.397-0.672-0.579C459.704,82.898,459.929,83.093,460.153,83.294z"/>
	<path fill="#4D4D4D" d="M430.224,22.03c0.352-0.032,0.705-0.048,1.058-0.07c0.225-0.014,0.451-0.035,0.676-0.045
		c0.605-0.026,1.209-0.04,1.812-0.038l0.193,0.091c-1.338-0.622-2.891-1.52-3.971-2.699c-0.047,0.844-0.001,1.896,0.065,2.775
		c0.055-0.005,0.11-0.007,0.165-0.011L430.224,22.03z"/>
	<path fill="#4D4D4D" d="M462.465,83.845c-0.026,0.187-0.055,0.377-0.086,0.567C462.409,84.221,462.438,84.032,462.465,83.845z"/>
	<path fill="#4D4D4D" d="M430.062,22.118c0.004,0.05,0.008,0.097,0.012,0.146l0.001-0.001
		C430.07,22.214,430.066,22.17,430.062,22.118z"/>
	<path fill="#4D4D4D" d="M462.61,82.649c-0.014,0.136-0.03,0.284-0.048,0.439C462.58,82.932,462.596,82.786,462.61,82.649z"/>
	<path fill="#6E6E6E" d="M430.109,22.662c0,0.005,0.001,0.011,0.001,0.016c0.003,0.036,0.007,0.073,0.01,0.108
		C430.117,22.748,430.113,22.703,430.109,22.662z"/>
	<path fill="#6E6E6E" d="M458.829,82.181l-0.449-0.367l1.101,0.901c0.223,0.183,0.448,0.377,0.672,0.579
		c0.072,0.065,0.142,0.135,0.213,0.202c0.152,0.143,0.302,0.288,0.449,0.44c0.082,0.085,0.161,0.173,0.241,0.26
		c0.133,0.146,0.262,0.295,0.386,0.448c0.075,0.093,0.149,0.186,0.22,0.281c0.047,0.062,0.099,0.121,0.144,0.184
		c0.19-0.211,0.379-0.424,0.562-0.64c0,0,0.001-0.001,0.001-0.001c0.003-0.019,0.006-0.038,0.009-0.058
		c0.031-0.19,0.06-0.38,0.086-0.567c0.003-0.023,0.007-0.046,0.01-0.068c0.028-0.205,0.054-0.404,0.076-0.593
		c0.004-0.033,0.007-0.063,0.011-0.096c0.018-0.155,0.034-0.302,0.048-0.439c0.004-0.037,0.008-0.072,0.011-0.107
		c0.005-0.051,0.008-0.091,0.013-0.138C461.361,82.392,460.091,82.317,458.829,82.181z"/>
	<path fill="#6E6E6E" d="M429.142,62.87c-6.497-11.254-6.758-24.393-1.855-35.422c-0.021,0.017-0.042,0.033-0.063,0.05l-0.99,0.84
		l-1.288-0.146c-1.472-0.167-3.219-0.525-4.604-1.311c0.366,1.286,1.152,3.026,1.528,3.786l0.789,1.6l-1.029,1.457
		c-0.443,0.629-0.865,1.277-1.262,1.936l-0.66,1.105l-1.257,0.281c-1.396,0.312-3.087,0.541-4.605,0.291
		c0.753,1.078,1.984,2.411,2.554,2.987l1.213,1.23l-0.455,1.666c-0.214,0.782-0.405,1.57-0.561,2.367l-0.25,1.285l-1.114,0.69
		c-1.202,0.745-2.698,1.51-4.193,1.774c1.036,0.737,2.552,1.535,3.263,1.884l1.554,0.764l0.116,1.728
		c0.058,0.866,0.14,1.73,0.266,2.588l0.195,1.343l-0.877,1.032c-0.873,1.028-1.984,2.138-3.245,2.83
		c1.207,0.37,2.9,0.65,3.667,0.755l1.69,0.232l0.665,1.571c0.137,0.325,0.27,0.655,0.415,0.977l0.49,1.092l-0.397,1.129
		c-0.457,1.301-1.118,2.775-2.08,3.895c1.508-0.193,4.595-1.383,5.95-1.592l1.721-0.267l1.084,1.362
		c0.582,0.733,1.201,1.438,1.842,2.12l0.937,0.992l-0.133,1.357c-0.124,1.28-0.382,2.728-0.973,3.954
		c1.148-0.385,2.602-1.093,3.259-1.433l1.525-0.79l1.453,0.916c0.829,0.521,1.685,1.005,2.557,1.45l1.233,0.628l0.321,1.347
		c0.289,1.217,0.511,2.621,0.367,3.933c0.935-0.73,2.039-1.837,2.536-2.361l1.181-1.245l1.671,0.386
		c0.986,0.229,1.982,0.419,2.985,0.557l1.385,0.191l0.744,1.183c0.653,1.036,1.296,2.261,1.582,3.518
		c0.644-0.995,1.319-2.398,1.618-3.058l0.703-1.557l1.698-0.189c0.999-0.111,1.994-0.264,2.979-0.463l0.438-0.089
		C445.977,80.358,435.373,73.664,429.142,62.87z"/>
	<path fill="#6E6E6E" d="M431.958,21.915c-0.225,0.01-0.451,0.031-0.676,0.045C431.507,21.946,431.732,21.925,431.958,21.915z"/>
	<path fill="#6E6E6E" d="M430.221,22.034c-0.055,0.005-0.11,0.006-0.165,0.011c0,0,0,0,0,0c0.002,0.026,0.004,0.047,0.006,0.073
		c0.004,0.051,0.008,0.095,0.013,0.145L430.221,22.034z"/>
	<path fill="#5E5E5E" d="M466.466,40.817c-6.503-11.263-17.917-17.921-29.975-18.833c-0.005,0-0.01-0.001-0.015-0.002l-0.16,0.063
		l-1.193,0.465l-1.161-0.541l-0.193-0.091c-0.603-0.002-1.207,0.011-1.812,0.038c-0.225,0.01-0.451,0.031-0.676,0.045
		c-0.353,0.022-0.706,0.038-1.058,0.07l-0.002,0.004l-0.147,0.23l-0.001,0.001l-0.002,0.002c0.005,0.058,0.01,0.107,0.015,0.163
		c0.007,0.08,0.014,0.157,0.021,0.233c0.004,0.04,0.008,0.086,0.011,0.125c0.003,0.035,0.007,0.068,0.01,0.101
		c0.016,0.158,0.033,0.306,0.047,0.429l0.21,1.735l-1.407,1.038c-0.58,0.427-1.141,0.886-1.693,1.352
		c-0.001,0.002-0.001,0.003-0.002,0.005c-4.903,11.029-4.642,24.168,1.855,35.422c6.231,10.794,16.836,17.488,28.282,19.137
		c0.001,0,0.001,0,0.002,0l0.955-0.194l0.449,0.367c1.262,0.136,2.532,0.211,3.805,0.222c0,0,0,0,0,0l0.025-0.27l0.126-1.515
		l1.298-0.793c0.123-0.076,0.242-0.16,0.366-0.236l1.226-0.761l0.591,0.209C472.988,67.656,473.546,53.08,466.466,40.817z
		 M456.782,66.997c-8.32,4.804-18.958,1.954-23.762-6.366c-4.803-8.321-1.953-18.958,6.367-23.762
		c8.32-4.803,18.957-1.953,23.76,6.367C467.952,51.557,465.102,62.194,456.782,66.997z"/>
	<path fill="#1A1A1A" d="M439.388,36.87c-8.32,4.804-11.171,15.44-6.367,23.762c4.804,8.32,15.442,11.17,23.762,6.366
		c8.32-4.803,11.17-15.44,6.366-23.76C458.345,34.916,447.707,32.066,439.388,36.87z M453.318,60.997
		c-5.007,2.89-11.406,1.175-14.297-3.83c-2.89-5.007-1.175-11.407,3.832-14.297c5.005-2.89,11.406-1.175,14.296,3.832
		C460.038,51.707,458.323,58.107,453.318,60.997z"/>
</g>
<g>
	<path fill="#999999" d="M586.009,52.4c1.552,0.135,3.74,3.41,3.74,3.41s-0.699-5.869-2.205-7.513
		c-1.313-1.434-4.885-2.835-5.779-3.17c-0.142-0.797-0.323-1.61-0.521-2.399c0.405-0.621,1.866-2.742,3.153-3.07
		c1.51-0.384,4.645,1.976,4.645,1.976s-2.571-5.297-4.533-6.356c-1.783-0.96-5.822-1.085-6.557-1.101
		c-0.376-0.7-0.782-1.404-1.208-2.083c0.174-0.706,0.86-3.223,1.972-3.961c1.297-0.862,5.134,0.514,5.134,0.514
		s-4.276-4.36-6.478-4.703c-2.032-0.317-5.95,0.943-6.559,1.144c-0.581-0.529-1.188-1.064-1.801-1.557
		c-0.063-0.695-0.234-3.319,0.593-4.382c0.955-1.23,4.916-1.284,4.916-1.284s-5.357-2.62-7.554-2.238
		c-1.94,0.337-5.09,2.631-5.803,3.167c-0.744-0.325-1.524-0.621-2.288-0.894c-0.303-0.697-1.246-3.033-0.809-4.276
		c0.517-1.469,4.247-2.805,4.247-2.805s-6.053-0.783-7.992,0.317c-1.687,0.955-3.838,4.071-4.371,4.871
		c-0.83-0.076-1.69-0.122-2.53-0.136c-0.573-0.622-2.133-2.432-2.138-3.708c-0.006-1.558,3.06-4.044,3.06-4.044
		s-5.795,1.25-7.293,2.901c-1.271,1.398-2.304,4.904-2.593,5.947c-0.848,0.223-1.708,0.476-2.542,0.762
		c-0.814-0.437-2.779-1.59-3.201-2.747c-0.533-1.463,1.717-4.873,1.717-4.873s-5.252,3.132-6.104,5.192
		c-0.695,1.68-0.539,5.081-0.456,6.295c-0.784,0.525-1.559,1.078-2.298,1.662c-0.989-0.182-3.005-0.651-3.722-1.56
		c-0.963-1.224-0.085-5.076-0.085-5.076s-3.778,4.564-3.945,6.787c-0.133,1.778,1.055,4.896,1.542,6.091
		c-0.226,0.299-0.46,0.6-0.678,0.9c-0.866,0.164-3.112,0.503-4.169-0.158c-1.32-0.827-2.182-4.289-2.182-4.289
		c-0.587,2.799-1.568,5.792-0.563,8.227c0.859,2.079,3.537,3.639,5.073,5.547c-0.373,0.951-0.705,1.919-0.996,2.896
		c-0.966,0.438-2.713,1.112-3.754,0.809c-1.496-0.435-3.012-4.089-3.012-4.089s-0.439,5.925,0.722,7.83
		c0.876,1.44,3.429,3.18,4.625,3.946c-0.042,1.068-0.032,2.15,0.023,3.213c-0.785,0.742-2.15,1.88-3.194,1.941
		c-1.555,0.091-4.19-2.826-4.19-2.826s1.528,5.692,3.255,7.104c1.28,1.047,4.175,1.838,5.583,2.175
		c0.321,1.055,0.686,2.103,1.101,3.12c-0.508,0.963-1.403,2.417-2.345,2.807c-1.439,0.595-4.945-1.478-4.945-1.478
		s3.366,5.068,5.46,5.833c1.554,0.568,4.54,0.365,5.98,0.222c0.646,0.88,1.335,1.738,2.056,2.556
		c-0.174,1.064-0.559,2.732-1.337,3.4c-1.181,1.015-5.083,0.303-5.083,0.303s4.868,3.723,7.098,3.734
		c1.643,0.007,4.342-1.161,5.652-1.779c0.127,0.067,0.278,0.14,0.407,0.209c0.197,1.072,0.397,2.77-0.1,3.659
		c-0.758,1.36-4.653,1.987-4.653,1.987s5.666,1.839,7.78,1.129c1.585-0.532,3.821-2.581,4.839-3.572
		c1.02,0.282,2.074,0.519,3.12,0.706c0.533,0.935,1.321,2.541,1.127,3.575c-0.285,1.53-3.765,3.394-3.765,3.394
		s5.924-0.134,7.707-1.474c1.353-1.019,2.844-3.743,3.484-4.997c1.044-0.071,2.094-0.198,3.123-0.367
		c0.811,0.702,2.133,1.989,2.297,3.048c0.239,1.539-2.41,4.439-2.41,4.439s5.517-2.06,6.757-3.913
		c0.977-1.457,1.487-4.663,1.663-5.975c0.92-0.387,1.832-0.818,2.715-1.284c0.979,0.382,2.76,1.188,3.282,2.171
		c0.733,1.375-1,5.062-1,5.062s4.735-3.835,5.292-5.994c0.456-1.76-0.176-5.114-0.427-6.306c0.685-0.631,1.358-1.292,1.996-1.975
		c0.987,0.036,3.095,0.207,3.945,1.017c1.128,1.075,0.797,5.026,0.797,5.026s3.112-5.085,2.954-7.309
		c-0.132-1.862-1.909-4.973-2.49-5.946c0.437-0.783,0.848-1.597,1.226-2.414c0.903-0.279,3.03-0.841,4.127-0.333
		c1.414,0.654,2.379,4.508,2.379,4.508s1.382-5.984,0.464-8.016c-0.791-1.755-3.65-4.155-4.417-4.78
		c0.137-0.827,0.242-1.667,0.322-2.504C582.737,53.718,584.722,52.289,586.009,52.4z M579.872,59.045
		c0.658,0.535,2.088,1.779,2.952,2.79c-1.506-0.136-3.14,0.222-4.494,0.64l-1.278,0.393l-0.561,1.214
		c-0.346,0.749-0.718,1.49-1.122,2.211l-0.843,1.51l0.887,1.487c0.413,0.695,1.289,2.269,1.76,3.487
		c-1.337-0.572-2.921-0.758-4.284-0.808l-1.367-0.048l-0.934,1c-0.586,0.63-1.203,1.232-1.834,1.815l-1.255,1.155l0.351,1.669
		c0.163,0.77,0.47,2.463,0.527,3.733c-1.045-0.934-2.417-1.598-3.647-2.079l-1.277-0.498l-1.212,0.64
		c-0.809,0.426-1.639,0.818-2.482,1.172l-1.582,0.666l-0.227,1.702c-0.102,0.756-0.366,2.395-0.72,3.584
		c-0.657-1.179-1.684-2.217-2.648-3.053l-1.061-0.921l-1.388,0.228c-0.941,0.155-1.891,0.27-2.842,0.335l-1.696,0.115l-0.774,1.514
		c-0.338,0.663-1.109,2.084-1.82,3.068c-0.227-1.305-0.834-2.597-1.456-3.688l-0.693-1.217l-1.381-0.248
		c-0.959-0.172-1.912-0.387-2.851-0.646l-1.658-0.46l-1.232,1.2c-0.528,0.513-1.689,1.588-2.662,2.282
		c0.205-1.28,0.059-2.666-0.164-3.877l-0.148-0.804h0l-0.113-0.617l-1.273-0.681c-0.128-0.069-0.26-0.13-0.386-0.2l-1.337-0.728
		l-1.375,0.649l-0.248,0.115l0,0c-0.034,0.015-0.068,0.031-0.104,0.047c-0.049,0.022-0.099,0.044-0.152,0.068
		c-0.098,0.044-0.201,0.089-0.309,0.136c-0.06,0.026-0.115,0.05-0.177,0.077c-0.159,0.068-0.324,0.138-0.496,0.208
		c-0.06,0.024-0.12,0.048-0.18,0.072c-0.124,0.049-0.247,0.098-0.373,0.146c-0.043,0.017-0.085,0.034-0.128,0.05
		c-0.001,0-0.002,0-0.004-0.001c-0.38,0.143-0.762,0.275-1.113,0.376c0.138-0.243,0.255-0.501,0.367-0.762
		c0.046-0.108,0.09-0.217,0.132-0.327c0.071-0.186,0.137-0.375,0.198-0.565c0.035-0.112,0.072-0.223,0.104-0.335
		c0.057-0.202,0.108-0.404,0.156-0.606c0.023-0.098,0.049-0.195,0.07-0.292c0.063-0.294,0.119-0.586,0.165-0.869l0.229-1.403
		l-0.94-1.065c-0.666-0.755-1.296-1.539-1.89-2.349l-1.013-1.376l-1.7,0.17c-0.72,0.071-2.275,0.186-3.458,0.128
		c0.948-0.877,1.685-2.046,2.257-3.129l0.652-1.237l-0.527-1.295c-0.382-0.938-0.715-1.896-1.01-2.863l-0.501-1.642l-1.669-0.399
		c-0.703-0.169-2.212-0.572-3.312-1.017c1.207-0.532,2.313-1.425,3.222-2.284l1.005-0.951l-0.072-1.383
		c-0.052-0.978-0.06-1.961-0.023-2.94l0.068-1.716l-1.447-0.925c-0.622-0.399-1.963-1.305-2.871-2.106
		c1.357-0.102,2.741-0.602,3.912-1.135l1.242-0.564l0.391-1.307c0.269-0.896,0.57-1.784,0.914-2.655l0.638-1.62l-1.093-1.357
		c-0.859-1.069-3.432-3.145-4.354-4.354c1.452,0.272,3.058,0.109,4.414-0.148l1.176-0.221l0.7-0.97
		c0.207-0.287,0.425-0.566,0.638-0.848l1.029-1.361l-0.644-1.58c-0.293-0.718-0.896-2.323-1.18-3.554
		c1.228,0.745,2.746,1.153,4.073,1.395l1.334,0.245l1.065-0.841c0.679-0.537,1.388-1.04,2.108-1.523l1.439-0.964l-0.116-1.728
		c-0.053-0.789-0.12-2.503,0-3.766c0.977,1.161,2.387,2.074,3.633,2.744l1.154,0.62l1.239-0.426c0.768-0.264,1.546-0.493,2.33-0.698
		l1.67-0.439l0.458-1.665c0.215-0.781,0.753-2.513,1.31-3.704c0.542,1.44,1.586,2.79,2.554,3.843l0.872,0.947l1.286,0.02
		c0.77,0.014,1.541,0.055,2.308,0.124l1.775,0.162l0.992-1.482c0.47-0.706,1.583-2.257,2.515-3.217
		c0.012,1.593,0.575,3.286,1.167,4.643l0.518,1.19l1.221,0.437c0.025,0.009,0.049,0.02,0.074,0.029c0.002,0,0.004-0.001,0.006-0.001
		c0.68,0.245,1.357,0.501,2.019,0.79l1.602,0.699l1.398-1.05c0.096-0.072,0.209-0.155,0.333-0.244
		c0.035-0.025,0.069-0.05,0.105-0.076c0.024-0.017,0.049-0.034,0.073-0.052c0.02-0.014,0.042-0.03,0.063-0.045
		c0.039-0.028,0.076-0.054,0.117-0.083c0.057-0.04,0.106-0.076,0.166-0.118l0.004,0c0.024-0.017,0.048-0.033,0.073-0.05
		c0.037-0.026,0.067-0.048,0.105-0.074c0,0,0,0,0,0c0.729-0.497,1.617-1.064,2.373-1.445c-0.482,1.525-0.482,3.317-0.352,4.788
		l0.112,1.276l0.998,0.801l0.133,0.109c0.002,0.004,0.003,0.007,0.005,0.011c0.519,0.423,1.025,0.863,1.519,1.313l1.297,1.182
		l1.664-0.552c0.803-0.265,2.616-0.789,3.959-0.979c-0.948,1.289-1.528,2.99-1.88,4.423l-0.305,1.237l0.678,1.077
		c0.392,0.62,0.758,1.257,1.105,1.902l0.829,1.543l1.75,0.037c0.839,0.018,2.717,0.127,4.044,0.391
		c-1.308,0.899-2.401,2.297-3.201,3.524l-0.715,1.098l0.319,1.27c0.183,0.726,0.346,1.459,0.477,2.195l0.3,1.68l1.596,0.599
		c0.776,0.293,2.497,1.004,3.653,1.681c-1.499,0.412-2.956,1.344-4.101,2.223l-1.032,0.792l-0.126,1.295
		c-0.076,0.77-0.169,1.539-0.297,2.303l-0.286,1.718L579.872,59.045z"/>
	<path fill="#4D4D4D" d="M527.28,79.173c-0.159,0.068-0.325,0.138-0.496,0.208C526.956,79.311,527.121,79.241,527.28,79.173z"/>
	<path fill="#4D4D4D" d="M526.604,79.453c-0.123,0.049-0.248,0.098-0.373,0.146C526.357,79.551,526.48,79.502,526.604,79.453z"/>
	<path fill="#4D4D4D" d="M527.767,78.96c-0.097,0.043-0.202,0.089-0.309,0.136C527.566,79.049,527.669,79.004,527.767,78.96z"/>
	<path fill="#4D4D4D" d="M579.103,53.924l0.126-1.295l1.032-0.792c1.145-0.879,2.602-1.811,4.101-2.223
		c-1.156-0.677-2.877-1.388-3.653-1.681l-1.596-0.599l-0.3-1.68c-0.131-0.736-0.294-1.469-0.477-2.195l-0.319-1.27l0.715-1.098
		c0.8-1.227,1.893-2.625,3.201-3.524c-1.328-0.265-3.206-0.373-4.044-0.391l-1.75-0.037l-0.829-1.543
		c-0.346-0.646-0.712-1.282-1.105-1.902l-0.678-1.077l0.305-1.237c0.352-1.433,0.932-3.135,1.88-4.423
		c-1.343,0.19-3.156,0.714-3.959,0.979l-1.664,0.552l-1.297-1.182c-0.494-0.45-1-0.89-1.519-1.313
		c5.242,10.898,5.184,24.113-1.319,35.377c-7.08,12.265-19.983,19.069-33.2,18.938l0.148,0.804c0.223,1.211,0.37,2.596,0.164,3.877
		c0.973-0.695,2.134-1.77,2.662-2.282l1.232-1.2l1.658,0.46c0.939,0.259,1.892,0.473,2.851,0.646l1.381,0.248l0.693,1.217
		c0.622,1.09,1.23,2.383,1.456,3.688c0.711-0.984,1.482-2.405,1.82-3.068l0.774-1.514l1.696-0.115c0.951-0.065,1.9-0.18,2.842-0.335
		l1.388-0.228l1.061,0.921c0.964,0.836,1.991,1.875,2.648,3.053c0.354-1.188,0.619-2.828,0.72-3.584l0.227-1.702l1.582-0.666
		c0.843-0.354,1.674-0.745,2.482-1.172l1.212-0.64l1.277,0.498c1.23,0.481,2.602,1.145,3.647,2.079
		c-0.057-1.271-0.364-2.963-0.527-3.733l-0.351-1.669l1.255-1.155c0.632-0.583,1.248-1.186,1.834-1.815l0.934-1l1.367,0.048
		c1.363,0.05,2.947,0.236,4.284,0.808c-0.471-1.217-1.347-2.792-1.76-3.487l-0.887-1.487l0.843-1.51
		c0.404-0.722,0.776-1.462,1.122-2.211l0.561-1.214l1.278-0.393c1.355-0.418,2.988-0.776,4.494-0.64
		c-0.863-1.011-2.294-2.255-2.952-2.79l-1.351-1.099l0.286-1.718C578.934,55.464,579.027,54.695,579.103,53.924z"/>
	<path fill="#4D4D4D" d="M563.54,20.777c0.039-0.027,0.077-0.055,0.117-0.083C563.616,20.722,563.579,20.749,563.54,20.777z"/>
	<path fill="#4D4D4D" d="M564.103,20.589c0.239,0.339,0.465,0.687,0.692,1.034c0.09,0.136,0.185,0.269,0.272,0.407
		c0.326,0.511,0.64,1.029,0.941,1.553l0.018,0.212c-0.13-1.47-0.13-3.263,0.352-4.788c-0.755,0.381-1.644,0.948-2.373,1.445
		c0.032,0.045,0.06,0.091,0.092,0.136L564.103,20.589z"/>
	<path fill="#4D4D4D" d="M563.899,20.526c-0.025,0.017-0.048,0.034-0.073,0.05h0.001C563.852,20.559,563.874,20.543,563.899,20.526z
		"/>
	<path fill="#4D4D4D" d="M527.918,78.892c0.036-0.016,0.07-0.032,0.104-0.047c0,0,0,0,0,0
		C527.986,78.861,527.956,78.875,527.918,78.892z"/>
	<path fill="#4D4D4D" d="M525.484,78.936c0.071-0.187,0.137-0.374,0.198-0.565C525.622,78.561,525.556,78.75,525.484,78.936z"/>
	<path fill="#4D4D4D" d="M525.352,79.263c-0.112,0.261-0.229,0.518-0.367,0.762c0.351-0.101,0.732-0.233,1.113-0.376
		c-0.279-0.053-0.556-0.108-0.834-0.168C525.297,79.41,525.322,79.335,525.352,79.263z"/>
	<path fill="#4D4D4D" d="M526.011,77.138c0.063-0.294,0.119-0.586,0.165-0.869C526.13,76.552,526.074,76.844,526.011,77.138z"/>
	<path fill="#4D4D4D" d="M525.786,78.036c0.058-0.202,0.108-0.404,0.156-0.606C525.894,77.632,525.843,77.834,525.786,78.036z"/>
	<path fill="#4D4D4D" d="M562.965,21.193c0.094-0.071,0.21-0.156,0.333-0.244C563.175,21.038,563.061,21.121,562.965,21.193z"/>
	<path fill="#6E6E6E" d="M563.403,20.873c0.023-0.016,0.05-0.035,0.073-0.052C563.452,20.839,563.427,20.856,563.403,20.873z"/>
	<path fill="#6E6E6E" d="M526.313,75.437l0.092-0.572l-0.229,1.403c-0.047,0.284-0.102,0.575-0.165,0.869
		c-0.021,0.097-0.047,0.195-0.07,0.292c-0.048,0.202-0.098,0.404-0.156,0.606c-0.032,0.112-0.068,0.223-0.104,0.335
		c-0.061,0.191-0.126,0.378-0.198,0.565c-0.042,0.11-0.086,0.219-0.132,0.327c-0.031,0.072-0.055,0.147-0.088,0.217
		c0.278,0.06,0.555,0.115,0.834,0.168c0.001,0,0.002,0,0.004,0.001c0.043-0.016,0.085-0.034,0.128-0.05
		c0.126-0.048,0.25-0.097,0.373-0.146c0.061-0.024,0.121-0.048,0.18-0.072c0.171-0.07,0.337-0.14,0.496-0.208
		c0.062-0.027,0.117-0.051,0.177-0.077c0.108-0.047,0.212-0.093,0.309-0.136c0.053-0.024,0.103-0.046,0.152-0.068
		c0.038-0.017,0.068-0.031,0.104-0.048C527.397,77.735,526.826,76.598,526.313,75.437z"/>
	<path fill="#6E6E6E" d="M565.067,22.03c-0.088-0.138-0.183-0.27-0.272-0.407C564.884,21.76,564.979,21.893,565.067,22.03z"/>
	<path fill="#6E6E6E" d="M528.193,40.072c6.497-11.253,17.746-18.049,29.749-19.318c-0.025-0.009-0.049-0.02-0.074-0.029
		l-1.221-0.437l-0.518-1.19c-0.592-1.357-1.155-3.049-1.167-4.643c-0.932,0.96-2.044,2.511-2.515,3.217l-0.992,1.482l-1.775-0.162
		c-0.767-0.07-1.538-0.11-2.308-0.124l-1.286-0.02l-0.872-0.947c-0.968-1.052-2.012-2.403-2.554-3.843
		c-0.558,1.191-1.095,2.923-1.31,3.704l-0.458,1.665l-1.67,0.439c-0.784,0.206-1.563,0.435-2.33,0.698l-1.239,0.426l-1.154-0.62
		c-1.246-0.67-2.656-1.583-3.633-2.744c-0.12,1.264-0.053,2.978,0,3.766l0.116,1.728l-1.439,0.964
		c-0.72,0.483-1.429,0.986-2.108,1.523l-1.065,0.841l-1.334-0.245c-1.326-0.242-2.844-0.65-4.073-1.395
		c0.284,1.231,0.887,2.836,1.18,3.554l0.644,1.58l-1.029,1.361c-0.213,0.282-0.431,0.561-0.638,0.848l-0.7,0.97l-1.176,0.221
		c-1.356,0.257-2.962,0.42-4.414,0.148c0.921,1.209,3.495,3.286,4.354,4.354l1.093,1.357l-0.638,1.62
		c-0.344,0.87-0.645,1.759-0.914,2.655l-0.391,1.307l-1.242,0.564c-1.171,0.533-2.555,1.033-3.912,1.135
		c0.908,0.801,2.249,1.707,2.871,2.106l1.447,0.925l-0.068,1.716c-0.038,0.979-0.03,1.962,0.023,2.94l0.072,1.383l-1.005,0.951
		c-0.91,0.86-2.015,1.753-3.222,2.284c1.1,0.445,2.609,0.848,3.312,1.017l1.669,0.399l0.501,1.642
		c0.295,0.967,0.628,1.925,1.01,2.863l0.527,1.295l-0.652,1.237c-0.572,1.083-1.31,2.252-2.257,3.129
		c1.184,0.059,2.738-0.057,3.458-0.128l1.7-0.17l1.013,1.376c0.594,0.81,1.224,1.594,1.89,2.349l0.94,1.065l-0.644-0.73
		C521.466,63.398,521.961,50.867,528.193,40.072z"/>
	<path fill="#6E6E6E" d="M564.097,20.589c-0.031-0.045-0.06-0.091-0.092-0.136c0,0,0,0,0,0c-0.038,0.026-0.068,0.048-0.105,0.074
		c-0.025,0.017-0.047,0.033-0.072,0.05L564.097,20.589z"/>
	<path fill="#5E5E5E" d="M565.955,61.369c6.504-11.264,6.561-24.479,1.319-35.377c-0.002-0.004-0.003-0.007-0.005-0.011
		l-0.133-0.109l-0.998-0.801l-0.112-1.276l-0.018-0.212c-0.301-0.524-0.615-1.042-0.941-1.553c-0.088-0.138-0.183-0.27-0.272-0.407
		c-0.227-0.347-0.453-0.695-0.692-1.034l-0.006,0l-0.27-0.013h-0.001l-0.004,0c-0.06,0.042-0.109,0.078-0.166,0.118
		c-0.04,0.028-0.079,0.055-0.117,0.083c-0.021,0.015-0.043,0.03-0.063,0.045c-0.024,0.017-0.05,0.035-0.073,0.052
		c-0.037,0.026-0.071,0.051-0.105,0.076c-0.122,0.088-0.238,0.173-0.333,0.244l-1.398,1.05l-1.602-0.699
		c-0.662-0.289-1.338-0.546-2.019-0.79c-0.002,0-0.004,0.001-0.006,0.001c-12.003,1.269-23.251,8.065-29.749,19.318
		c-6.232,10.795-6.726,23.327-2.431,34.064l0.644,0.73l-0.092,0.572c0.512,1.161,1.084,2.298,1.709,3.407c0,0,0,0,0,0l0,0
		l0.248-0.115l1.375-0.649l1.337,0.728c0.127,0.07,0.259,0.131,0.386,0.2l1.273,0.681l0.113,0.617h0
		C545.972,80.438,558.874,73.634,565.955,61.369z M538.44,66.072c-8.321-4.804-11.171-15.441-6.367-23.76
		c4.803-8.32,15.44-11.171,23.761-6.366c8.32,4.804,11.17,15.441,6.366,23.76C557.396,68.026,546.76,70.876,538.44,66.072z"/>
	<path fill="#1A1A1A" d="M555.834,35.946c-8.321-4.805-18.958-1.953-23.761,6.366c-4.804,8.32-1.954,18.957,6.367,23.76
		c8.32,4.803,18.957,1.953,23.76-6.366C567.004,51.387,564.154,40.75,555.834,35.946z M556.2,56.242
		c-2.89,5.005-9.29,6.72-14.296,3.83c-5.007-2.89-6.722-9.291-3.831-14.296c2.89-5.005,9.29-6.72,14.297-3.83
		C557.375,44.836,559.09,51.237,556.2,56.242z"/>
</g>
</svg>
