<?xml version="1.0" encoding="utf-8"?>
<!-- Generator: Adobe Illustrator 17.0.0, SVG Export Plug-In . SVG Version: 6.00 Build 0)  -->
<!DOCTYPE svg PUBLIC "-//W3C//DTD SVG 1.1//EN" "http://www.w3.org/Graphics/SVG/1.1/DTD/svg11.dtd">
<svg version="1.1" id="Capa_1" xmlns="http://www.w3.org/2000/svg" xmlns:xlink="http://www.w3.org/1999/xlink" x="0px" y="0px"
	 width="80px" height="169.5px" viewBox="0 0 80 169.5" enable-background="new 0 0 80 169.5" xml:space="preserve">
<g>
	<polygon fill-rule="evenodd" clip-rule="evenodd" fill="#0B1712" points="42.838,-0.001 48.408,23.364 42.411,22.64 49.432,27.655 
		52.917,42.272 46.418,43.596 53.862,46.237 57.966,63.451 47.035,62.085 45.493,65.475 60.521,74.164 67.817,104.774 
		41.486,101.221 43.026,106.769 70.271,115.061 76.307,140.382 48.881,135.428 77.801,146.639 80,155.867 40.775,152.771 0,162.06 
		3.916,147.244 38.712,144.364 39.329,130.805 6.254,138.403 18.662,91.464 36.188,85.875 35.973,81.576 20.974,82.714 
		26.104,63.305 40.914,55.79 40.054,49.774 28.387,54.67 31.1,44.406 40.699,39.246 40.484,33.014 33.56,35.101 37.897,18.689 
		42.222,16.071 41.175,12.409 39.414,12.953 	"/>
	<path fill-rule="evenodd" clip-rule="evenodd" fill="#0F2117" d="M49.331,27.584l0.101,0.071l0.504,2.116l-9.333,6.756l-0.12-3.512
		l-6.924,2.086l1.052-3.985L49.331,27.584L49.331,27.584z M46.701,43.696l7.161,2.541l0.373,1.56l-13.477,6.91l-0.705-4.933
		L28.387,54.67l0.778-2.94l9.83-1.532l-9.406-0.073l1.026-3.884L46.701,43.696L46.701,43.696z M56.321,56.55l1.644,6.902
		l-10.931-1.366l-1.542,3.39l1.843,1.065l-17.58,4.313l32.017,8.559l1.749,7.341l-16.372,0.948l18.633,8.529l1.616,6.781
		l-30.306-3.895l4.567,2.723l1.368,4.929l14.077,4.284l14.237,8.492l1.452,6.089l-30.535-3.416l33.187,14.536l0.864,3.628
		l-27.426-4.953l27.5,10.661l-26.515-2.945l-11.154,1.217l0.567-12.467l1.89-0.709l-29.155-14.576l1.414-5.348l26.654-0.185
		l-23.056-13.42l1.636-6.192l0.34-0.109l18.905-0.663l-5.615-3.574l3.896-1.243l-0.215-4.299l-11.067,0.84l-3.298-2.099l0.971-3.667
		l25.114,3.443l-23.535-9.414l1.779-6.737l9.799-2.057l-4.777-1.042l8.638-4.383L56.321,56.55L56.321,56.55z M3.668,148.179
		l34.861-3.801l-34.613,2.866L3.668,148.179z"/>
	<polygon fill-rule="evenodd" clip-rule="evenodd" fill="#1B130D" points="39.582,99.807 42.742,99.807 42.742,166.633 
		36.711,169.501 	"/>
</g>
</svg>
