<?xml version="1.0" encoding="utf-8"?>
<!-- Generator: Adobe Illustrator 17.0.0, SVG Export Plug-In . SVG Version: 6.00 Build 0)  -->
<!DOCTYPE svg PUBLIC "-//W3C//DTD SVG 1.1//EN" "http://www.w3.org/Graphics/SVG/1.1/DTD/svg11.dtd">
<svg version="1.1" id="Capa_1" xmlns="http://www.w3.org/2000/svg" xmlns:xlink="http://www.w3.org/1999/xlink" x="0px" y="0px"
	 width="1000px" height="500px" viewBox="0 0 1000 500" enable-background="new 0 0 1000 500" xml:space="preserve">
<g id="Capa_x0020_1_10_">
	<rect x="1" y="2" fill="none" width="1000" height="500"/>
	<g>
		<path fill="#0C0B0C" d="M49.871-0.512c2,54.271,5,150.753,3,160.804c-1,14.07,0,52.261,1,82.412s7,170.854,8,209.045
			c0,17.085,1,35.176,2,50.251h-30c-1-55.276-3-165.829-4-182.914c-1-23.116-2-174.874-3-204.02c0-13.065-1-64.321-2-114.573h24
			L49.871-0.512z"/>
		<path fill="#131C16" d="M58.871,502c0-27.136-2-132.663-2-151.759c0-22.111-1-44.221-3-70.352c-1-26.131-2-147.738-3-172.864
			c-1-12.06-2-61.306-3-108.543h-6c1,26.131,2,51.256,2,68.342c1,45.226,1,162.814,4,228.14c3,66.332,5,140.703,5,204.02v2.01h5
			L58.871,502z"/>
		<path fill="#131C16" d="M32.871-0.512c3,69.347,7,180.904,7,183.919c0,5.025-2,84.422-3,111.558c-2,27.136,2,95.477,3,118.593
			c1,15.075,2,53.266,2,88.442h8c-1-50.251-2-102.512-2-124.623c1-50.251-4-84.422-4-100.502c0-16.08-2-143.718-2-154.774
			c0-6.03-1-64.321-3-122.613h-7H32.871z"/>
		<path fill="#131C16" d="M30.871-0.512c2,83.417,4,179.899,3,204.02c-1,44.221-1,161.809-1,169.849c0,5.025,3,79.397,4,128.643h-2
			c-1-55.276-3-165.829-4-182.914c-1-23.116-2-174.874-3-204.02c0-13.065-1-64.321-2-114.573h4L30.871-0.512z"/>
	</g>
	<g>
		<path fill="#0C0B0C" d="M435.275-0.83c-0.66,54.198-1.649,150.549-0.66,160.586c1.649,14.051,0.66,52.19,0,82.3
			c-0.99,30.11-3.959,170.622-3.629,208.761c0,17.062-0.66,35.128-1.32,50.183h27.38c0-55.201,0.33-165.604,0.99-182.666
			c0.66-23.084-0.66-174.637-0.99-203.743c0-13.048,0-64.234,0-114.417h-21.772V-0.83z"/>
		<path fill="#131C16" d="M434.615,501c0-27.099-0.66-132.483-0.66-151.553c0-22.081,0.66-44.161,1.32-70.256
			c0.99-26.095-0.33-147.538,0.33-172.63c0.33-12.044,0.66-61.223,0.99-108.395h5.278c-0.66,26.095-1.32,51.187-0.99,68.249
			c0.33,45.165,1.649,162.593-0.33,227.831c-1.979,66.242-2.309,140.513-1.32,203.743v2.007h-4.618V501z"/>
		<path fill="#131C16" d="M451.439-0.83c-1.32,69.253-3.959,180.659-3.959,183.67c0,5.018,2.639,84.308,4.618,111.406
			c1.979,27.099,0,95.348-0.66,118.432c-0.33,15.055-0.66,53.194-0.66,88.322h-7.587c0-50.183,0-102.373-0.33-124.454
			c-1.32-50.183,2.639-84.308,2.309-100.366c-0.33-16.059-0.66-143.524-0.99-154.564c0-6.022,0.33-64.234,0.66-122.447h5.938
			H451.439z"/>
		<path fill="#131C16" d="M453.089-0.83c-0.33,83.304-0.66,179.655,0.33,203.743c1.32,44.161,3.959,161.589,3.959,169.619
			c0,5.018-0.99,79.289-1.979,128.469h1.649c0-55.201,0.33-165.604,0.99-182.666c0.66-23.084-0.66-174.637-0.99-203.743
			c0-13.048,0-64.234,0-114.417h-3.959V-0.83z"/>
	</g>
	<path fill="#0C0B0C" d="M643-1.517c-2,54.38-5,151.055-3,161.126c1,14.098,0,52.366-1,82.577s-7,171.196-8,209.463
		c0,17.12-1,35.246-2,50.352h30c1-55.387,3-166.161,4-183.28c1-23.162,2-175.224,3-204.428c0-13.091,1-64.45,2-114.802h-24
		L643-1.517z"/>
	<path fill="#131C16" d="M634,502c0-27,2-132,2-151c0-22,1-44,3-70c1-26,2-147,3-172c1-12,2-61,3-108h6c-1,26-2,51-2,68
		c-1,45-1,162-4,227c-3,66-5,140-5,203v2h-5L634,502z"/>
	<path fill="#131C16" d="M661,2c-3,69-7,180-7,183c0,5,2,84,3,111c2,27-2,95-3,118c-1,15-2,53-2,88h-8c1-50,2-102,2-124
		c-1-50,4-84,4-100s2-143,2-154c0-6,1-64,3-122h7H661z"/>
	<path fill="#131C16" d="M661,2c-3,69-7,180-7,183c0,5,2,84,3,111c2,27-2,95-3,118c-1,15-2,53-2,88h-8c1-50,2-102,2-124
		c-1-50,4-84,4-100s2-143,2-154c0-6,1-64,3-122h7H661z"/>
	<path fill="#131C16" d="M663,2c-2,83-4,179-3,203c1,44,1,161,1,169c0,5-3,79-4,128h2c1-55,3-165,4-182c1-23,2-174,3-203
		c0-13,1-64,2-114h-4L663,2z"/>
	<rect x="1" y="2" fill="none" width="1000" height="500"/>
	<g>
		<path fill="#0C0B0C" d="M238.441-1.512c2,54.271,5,150.753,3,160.804c-1,14.07,0,52.261,1,82.412s7,170.854,8,209.045
			c0,17.085,1,35.176,2,50.251h-30c-1-55.276-3-165.829-4-182.914c-1-23.116-2-174.874-3-204.02c0-13.065-1-64.321-2-114.573h24
			L238.441-1.512z"/>
		<path fill="#131C16" d="M247.441,501c0-27.136-2-132.663-2-151.759c0-22.111-1-44.221-3-70.352c-1-26.131-2-147.738-3-172.864
			c-1-12.06-2-61.306-3-108.543h-6c1,26.131,2,51.256,2,68.342c1,45.226,1,162.814,4,228.14c3,66.332,5,140.703,5,204.02v2.01h5
			L247.441,501z"/>
		<path fill="#131C16" d="M221.441-1.512c3,69.347,7,180.904,7,183.919c0,5.025-2,84.422-3,111.558c-2,27.136,2,95.477,3,118.593
			c1,15.075,2,53.266,2,88.442h8c-1-50.251-2-102.512-2-124.623c1-50.251-4-84.422-4-100.502c0-16.08-2-143.718-2-154.774
			c0-6.03-1-64.321-3-122.613h-7H221.441z"/>
		<path fill="#131C16" d="M219.441-1.512c2,83.417,4,179.899,3,204.02c-1,44.221-1,161.809-1,169.849c0,5.025,3,79.397,4,128.643h-2
			c-1-55.276-3-165.829-4-182.914c-1-23.116-2-174.874-3-204.02c0-13.065-1-64.321-2-114.573h4L219.441-1.512z"/>
	</g>
</g>
</svg>
