<?xml version="1.0" encoding="utf-8"?>
<!-- Generator: Adobe Illustrator 17.0.0, SVG Export Plug-In . SVG Version: 6.00 Build 0)  -->
<!DOCTYPE svg PUBLIC "-//W3C//DTD SVG 1.1//EN" "http://www.w3.org/Graphics/SVG/1.1/DTD/svg11.dtd">
<svg version="1.1" id="Capa_1" xmlns="http://www.w3.org/2000/svg" xmlns:xlink="http://www.w3.org/1999/xlink" x="0px" y="0px"
	 width="1000px" height="500px" viewBox="0 0 1000 500" enable-background="new 0 0 1000 500" xml:space="preserve">
<g id="Capa_x0020_1">
	<rect y="0" fill="none" width="1000" height="499.919"/>
	<g id="_502454632">
		<polygon fill="#CECE92" points="320,324.707 336,330.72 348,323.705 355,310.677 360,283.618 366,256.559 390,251.548 
			397,270.589 405,389.849 321,389.849 298,389.849 304,360.786 		"/>
		<path fill="#C2C073" d="M389,240.524c0,0,10-1.002,10,5.011c0,5.011,6,46.1,6,55.12c0,8.017,3,49.107,4,56.122
			c1,5.011,4,22.048,6,33.072h-34c3-14.031,8-40.087,7-47.103c-1-11.024,0-59.129,0-59.129l1-31.068v-11.024V240.524z"/>
		<path fill="#A4A264" d="M405,389.849h-25c3-14.031,8-40.087,7-47.103c-1-11.024,0-59.129,0-59.129l1-31.068l0,0h1l7,19.041
			l8,119.26L405,389.849z"/>
		<path fill="#C2C073" d="M374,239.522c0,0-7,16.035-8,23.05c-1,7.015,1,20.044-3,36.079c-5,15.033-10,52.113-10,52.113l-5,30.065
			l-1,9.02h26l5-33.072c0,0,8-42.092,5-70.153c-2-28.061-7-48.105-7-48.105L374,239.522z"/>
		<path fill="#A4A264" d="M367,255.557c-1,2.004-1,5.011-2,6.013c-1,7.015,1,20.044-3,36.079c-5,15.033-10,52.113-10,52.113
			l-5,30.065l-1,9.02h26l5-33.072c0,0,8-42.092,5-70.153c-1-13.028-3-25.055-4-33.072l-9,2.004L367,255.557z"/>
		<polygon fill="#C2C073" points="381,240.524 386,244.533 384,277.605 378,242.528 		"/>
		<path fill="#C2C073" d="M345,324.707l-17,5.011c0,0-12,16.035-14,29.063c-1,7.015-4,19.041-7,30.065h12h16
			c2-17.037,9-64.14,9-64.14H345z"/>
		<polygon fill="#C0BE6B" points="178,320.698 188,314.685 224,336.733 237,339.74 276,359.784 276,359.784 299,378.825 
			303,389.849 228,389.849 223,383.836 202,358.781 181,348.76 		"/>
		<polygon fill="#FEFCD6" points="216,321.701 243,328.716 263,320.698 269,304.664 276,272.594 293,249.543 333,244.533 
			344,264.576 358,389.849 219,389.849 179,389.849 190,359.784 		"/>
		<polygon fill="#CECE92" points="218,330.72 242,336.733 259,329.718 269,318.694 276,293.64 285,268.585 319,263.574 329,281.613 
			341,389.849 220,389.849 186,389.849 195,363.792 		"/>
		<path fill="#C2C073" d="M317,254.554c0,0,14-1.002,15,4.009c1,5.011,8,42.092,8,50.109c0,8.017,4,45.098,6,51.111
			c1,4.009,5,20.044,8,30.065h-49c4-13.028,11-36.079,10-43.094c-1-10.022,1-54.118,1-54.118l2-28.061L317,254.554z"/>
		<path fill="#A4A264" d="M341,389.849h-36c4-13.028,11-36.079,10-43.094c-1-10.022,1-54.118,1-54.118l2-28.061l0,0h1l10,17.037
			L341,389.849z"/>
		<path fill="#C2C073" d="M295,252.55c0,0-10,15.033-12,21.046s2,18.039-5,32.07s-15,47.103-15,47.103l-8,27.059l-2,9.02h37
			l7-30.065c0,0,11-38.083,8-63.138C301,270.589,295,252.55,295,252.55z"/>
		<path fill="#A4A264" d="M286,268.585c-1,2.004-2,4.009-3,6.013c-2,6.013,2,18.039-5,32.07c-7,14.031-15,47.103-15,47.103
			l-8,27.059l-2,9.02h37l7-30.065c0,0,11-38.083,8-63.138c-2-12.026-4-22.048-6-30.065L286,268.585z"/>
		<polygon fill="#C2C073" points="307,254.554 313,257.561 310,288.629 301,256.559 		"/>
		<path fill="#C2C073" d="M255,330.72l-24,4.009c0,0-17,15.033-20,27.059c-1,6.013-6,17.037-9,28.061h17h23
			c3-15.033,12-58.127,13-58.127V330.72z"/>
		<polygon fill="#C0BE6B" points="67,330.72 100,296.646 103,299.653 111,296.646 113,297.648 131,283.618 140,269.587 168,286.624 
			186,303.661 194,302.659 208,307.67 225,324.707 257,343.749 299,378.825 303,389.849 0,389.849 22,357.779 		"/>
		<polygon fill="#EBEB7D" points="140,269.587 139,279.609 178,320.698 181,348.76 202,358.781 223,383.836 228,389.849 
			303,389.849 299,378.825 257,343.749 225,324.707 208,307.67 194,302.659 186,303.661 168,286.624 		"/>
		<polygon fill="#9BA042" points="21,357.779 41,358.781 87,337.736 99,328.716 92,355.775 86,376.821 66,386.842 110,385.84 
			111,356.777 108,330.72 107,322.703 110,320.698 113,319.696 113,330.72 116,317.692 119,315.688 140,318.694 151,334.729 
			144,318.694 165,326.712 188,314.685 224,336.733 237,339.74 276,359.784 299,378.825 335,500.089 0,500.089 		"/>
		<polygon fill="#84873C" points="178,320.698 188,314.685 224,336.733 237,339.74 276,359.784 276,359.784 308,384.838 
			339,484.054 348,500.089 267,500.089 262,488.063 202,358.781 181,348.76 		"/>
		<polygon fill="#EBEB7D" points="134,286.624 142,287.626 149,299.653 143,308.672 		"/>
		<polygon fill="#EBEB7D" points="131,288.629 151,334.729 130,301.657 		"/>
		<polygon fill="#EBEB7D" points="119,292.637 120,302.659 113,330.72 112,296.646 113,297.648 		"/>
		<polygon fill="#EBEB7D" points="105,307.67 92,355.775 86,376.821 66,386.842 110,385.84 111,356.777 108,330.72 		"/>
		<polygon fill="#EBEB7D" points="160,310.677 166,358.781 169,380.829 178,389.849 158,388.847 157,359.784 158,333.727 		"/>
		<polygon fill="#C0BE6B" points="382,320.698 376,314.685 353,336.733 345,339.74 320,359.784 320,359.784 305,378.825 
			303,389.849 351,389.849 354,383.836 367,358.781 380,348.76 		"/>
		<polygon fill="#C0BE6B" points="452,330.72 431,296.646 429,299.653 425,296.646 423,297.648 412,283.618 406,269.587 
			389,286.624 377,303.661 372,302.659 363,307.67 353,324.707 332,343.749 305,378.825 303,389.849 495,389.849 481,357.779 		"/>
		<polygon fill="#EBEB7D" points="406,269.587 407,279.609 382,320.698 380,348.76 367,358.781 354,383.836 351,389.849 
			303,389.849 305,378.825 332,343.749 353,324.707 363,307.67 372,302.659 377,303.661 389,286.624 		"/>
		<polygon fill="#9BA042" points="481,357.779 468,358.781 440,337.736 432,328.716 436,355.775 440,376.821 453,386.842 
			425,385.84 425,356.777 426,330.72 427,322.703 425,320.698 423,319.696 423,330.72 421,317.692 419,315.688 406,318.694 
			399,334.729 404,318.694 390,326.712 376,314.685 353,336.733 345,339.74 320,359.784 305,378.825 303,389.849 495,389.849 		"/>
		<polygon fill="#84873C" points="382,320.698 376,314.685 353,336.733 345,339.74 320,359.784 320,359.784 295,386.842 
			282,489.065 279,500.089 327,500.089 330,494.076 367,358.781 380,348.76 		"/>
		<polygon fill="#EBEB7D" points="410,286.624 405,287.626 401,299.653 404,308.672 		"/>
		<polygon fill="#EBEB7D" points="412,288.629 399,334.729 412,301.657 		"/>
		<polygon fill="#EBEB7D" points="419,292.637 419,302.659 423,330.72 424,296.646 423,297.648 		"/>
		<polygon fill="#EBEB7D" points="428,307.67 436,355.775 440,376.821 453,386.842 425,385.84 425,356.777 426,330.72 		"/>
		<polygon fill="#EBEB7D" points="394,310.677 390,358.781 388,380.829 382,389.849 395,388.847 395,359.784 395,333.727 		"/>
		<polygon fill="#CECE92" points="150,330.72 127,336.733 110,329.718 100,318.694 93,293.64 84,268.585 50,263.574 39,281.613 
			27,389.849 160,500.089 277,500.089 173,363.792 		"/>
		<path fill="#C2C073" d="M51,254.554c0,0-14-1.002-15,4.009c-1,5.011-8,42.092-8,50.109c0,8.017-4,45.098-6,51.111
			c-1,4.009-5,20.044-8,30.065h49c-4-13.028-11-36.079-10-43.094c1-10.022-1-54.118-1-54.118l-2-28.061L51,254.554z"/>
		<path fill="#A4A264" d="M27,389.849h36c-4-13.028-11-36.079-10-43.094c1-10.022-1-54.118-1-54.118l-2-28.061l0,0h-1l-10,17.037
			L27,389.849z"/>
		<path fill="#C2C073" d="M73,252.55c0,0,10,15.033,12,21.046s-2,18.039,5,32.07s15,47.103,15,47.103l8,27.059l2,9.02H78l-7-30.065
			c0,0-11-38.083-8-63.138C67,270.589,73,252.55,73,252.55z"/>
		<path fill="#A4A264" d="M82,268.585c1,2.004,2,4.009,3,6.013c2,6.013-2,18.039,5,32.07c7,14.031,15,47.103,15,47.103l8,27.059
			l2,9.02H78l-7-30.065c0,0-11-38.083-8-63.138c2-12.026,4-22.048,6-30.065L82,268.585z"/>
		<polygon fill="#C2C073" points="62,254.554 55,257.561 58,288.629 67,256.559 		"/>
		<path fill="#C2C073" d="M114,330.72l24,4.009c0,0,18,18.039,20,27.059c2,9.02,57,127.277,60,138.301l-84-20.044l-7-90.196
			c-3-15.033-12-58.127-13-58.127V330.72z"/>
		<polygon fill="#C0BE6B" points="61,310.677 33,265.578 31,269.587 24,264.576 22,266.581 7,247.539 0,230.502 0,389.849 
			127,500.089 257,500.089 		"/>
		<polygon fill="#EBEB7D" points="0,240.524 0,242.528 0,242.528 		"/>
		<polygon fill="#9BA042" points="153,420.917 83,347.757 44,319.696 34,307.67 26,310.677 27,300.655 25,297.648 22,295.644 
			22,311.679 20,293.64 17,290.633 0,293.64 0,500.089 228,500.089 		"/>
		<polygon fill="#EBEB7D" points="4,252.55 0,252.55 0,268.585 		"/>
		<polygon fill="#EBEB7D" points="7,254.554 0,280.611 0,291.635 8,271.591 		"/>
		<polygon fill="#EBEB7D" points="17,259.565 17,272.594 22,311.679 23,265.578 22,266.581 		"/>
		<polygon fill="#EBEB7D" points="29,279.609 40,343.749 97,423.923 163,500.089 108,500.089 24,345.753 26,310.677 		"/>
		<polygon fill="#C0BE6B" points="467,296.646 459,289.631 429,318.694 417,323.705 384,349.762 384,349.762 365,375.819 
			362,389.849 426,389.849 430,380.829 447,347.757 465,334.729 		"/>
		<polygon fill="#C0BE6B" points="500,230.502 500,229.5 476,252.55 461,274.598 454,272.594 442,279.609 428,303.661 401,328.716 
			365,375.819 362,500.089 500,500.089 		"/>
		<polygon fill="#EBEB7D" points="500,229.5 500,240.524 500,242.528 467,296.646 465,334.729 447,347.757 430,380.829 426,389.849 
			362,389.849 365,375.819 401,328.716 428,303.661 442,279.609 454,272.594 461,274.598 476,252.55 		"/>
		<polygon fill="#9BA042" points="500,293.64 499,293.64 490,316.69 496,295.644 478,305.666 459,289.631 429,318.694 417,323.705 
			384,349.762 357,375.819 315,500.089 453,500.089 		"/>
		<polygon fill="#84873C" points="467,296.646 459,289.631 429,318.694 417,323.705 384,349.762 384,349.762 348,486.059 
			345,500.089 408,500.089 413,491.069 447,347.757 465,334.729 		"/>
		<polygon fill="#EBEB7D" points="500,252.55 498,252.55 492,269.587 497,280.611 500,268.585 		"/>
		<polygon fill="#EBEB7D" points="500,280.611 490,316.69 500,291.635 		"/>
		<polygon fill="#EBEB7D" points="483,283.618 478,347.757 475,377.823 449,500.089 466,498.085 485,349.762 484,315.688 		"/>
		<polygon fill="#CECE92" points="820,324.707 836,330.72 848,323.705 855,310.677 860,283.618 866,256.559 890,251.548 
			897,270.589 905,389.849 821,389.849 798,389.849 804,360.786 		"/>
		<path fill="#C2C073" d="M889,240.524c0,0,10-1.002,10,5.011c0,5.011,6,46.1,6,55.12c0,8.017,3,49.107,4,56.122
			c1,5.011,4,22.048,6,33.072h-34c3-14.031,8-40.087,7-47.103c-1-11.024,0-59.129,0-59.129l1-31.068v-11.024V240.524z"/>
		<path fill="#A4A264" d="M905,389.849h-25c3-14.031,8-40.087,7-47.103c-1-11.024,0-59.129,0-59.129l1-31.068l0,0h1l7,19.041
			l8,119.26L905,389.849z"/>
		<path fill="#C2C073" d="M874,239.522c0,0-7,16.035-8,23.05c-1,7.015,1,20.044-3,36.079c-5,15.033-10,52.113-10,52.113l-5,30.065
			l-1,9.02h26l5-33.072c0,0,8-42.092,5-70.153c-2-28.061-7-48.105-7-48.105L874,239.522z"/>
		<path fill="#A4A264" d="M867,255.557c-1,2.004-1,5.011-2,6.013c-1,7.015,1,20.044-3,36.079c-5,15.033-10,52.113-10,52.113
			l-5,30.065l-1,9.02h26l5-33.072c0,0,8-42.092,5-70.153c-1-13.028-3-25.055-4-33.072l-9,2.004L867,255.557z"/>
		<polygon fill="#C2C073" points="881,240.524 886,244.533 884,277.605 878,242.528 		"/>
		<path fill="#C2C073" d="M845,324.707l-17,5.011c0,0-12,16.035-14,29.063c-1,7.015-4,19.041-7,30.065h12h16
			c2-17.037,9-64.14,9-64.14H845z"/>
		<polygon fill="#C0BE6B" points="678,320.698 688,314.685 724,336.733 737,339.74 776,359.784 776,359.784 799,378.825 
			803,389.849 728,389.849 723,383.836 702,358.781 681,348.76 		"/>
		<polygon fill="#FEFCD6" points="716,321.701 743,328.716 763,320.698 769,304.664 776,272.594 793,249.543 833,244.533 
			844,264.576 858,389.849 719,389.849 679,389.849 690,359.784 		"/>
		<polygon fill="#CECE92" points="718,330.72 742,336.733 759,329.718 769,318.694 776,293.64 785,268.585 819,263.574 829,281.613 
			841,389.849 720,389.849 686,389.849 695,363.792 		"/>
		<path fill="#C2C073" d="M817,254.554c0,0,14-1.002,15,4.009c1,5.011,8,42.092,8,50.109c0,8.017,4,45.098,6,51.111
			c1,4.009,5,20.044,8,30.065h-49c4-13.028,11-36.079,10-43.094c-1-10.022,1-54.118,1-54.118l2-28.061L817,254.554z"/>
		<path fill="#A4A264" d="M841,389.849h-36c4-13.028,11-36.079,10-43.094c-1-10.022,1-54.118,1-54.118l2-28.061l0,0h1l10,17.037
			L841,389.849z"/>
		<path fill="#C2C073" d="M795,252.55c0,0-10,15.033-12,21.046s2,18.039-5,32.07s-15,47.103-15,47.103l-8,27.059l-2,9.02h37
			l7-30.065c0,0,11-38.083,8-63.138C801,270.589,795,252.55,795,252.55z"/>
		<path fill="#A4A264" d="M786,268.585c-1,2.004-2,4.009-3,6.013c-2,6.013,2,18.039-5,32.07c-7,14.031-15,47.103-15,47.103
			l-8,27.059l-2,9.02h37l7-30.065c0,0,11-38.083,8-63.138c-2-12.026-4-22.048-6-30.065L786,268.585z"/>
		<polygon fill="#C2C073" points="807,254.554 813,257.561 810,288.629 801,256.559 		"/>
		<path fill="#C2C073" d="M755,330.72l-24,4.009c0,0-17,15.033-20,27.059c-1,6.013-6,17.037-9,28.061h17h23
			c3-15.033,12-58.127,13-58.127V330.72z"/>
		<polygon fill="#C0BE6B" points="567,330.72 600,296.646 603,299.653 611,296.646 613,297.648 631,283.618 640,269.587 
			668,286.624 686,303.661 694,302.659 708,307.67 725,324.707 757,343.749 799,378.825 803,389.849 500,389.849 522,357.779 		"/>
		<polygon fill="#EBEB7D" points="640,269.587 639,279.609 678,320.698 681,348.76 702,358.781 723,383.836 728,389.849 
			803,389.849 799,378.825 757,343.749 725,324.707 708,307.67 694,302.659 686,303.661 668,286.624 		"/>
		<polygon fill="#9BA042" points="521,357.779 541,358.781 587,337.736 599,328.716 592,355.775 586,376.821 572,497.083 
			615,496.08 611,356.777 608,330.72 607,322.703 610,320.698 613,319.696 613,330.72 616,317.692 619,315.688 640,318.694 
			651,334.729 644,318.694 665,326.712 688,314.685 724,336.733 737,339.74 776,359.784 799,378.825 808,500.089 505,500.089 		"/>
		<polygon fill="#84873C" points="678,320.698 688,314.685 724,336.733 737,339.74 776,359.784 776,359.784 799,378.825 
			829,500.089 753,500.089 723,383.836 702,358.781 681,348.76 		"/>
		<polygon fill="#EBEB7D" points="634,286.624 642,287.626 649,299.653 643,308.672 		"/>
		<polygon fill="#EBEB7D" points="631,288.629 651,334.729 630,301.657 		"/>
		<polygon fill="#EBEB7D" points="619,292.637 620,302.659 613,330.72 612,296.646 613,297.648 		"/>
		<polygon fill="#EBEB7D" points="605,307.67 592,355.775 586,376.821 566,386.842 610,385.84 611,356.777 608,330.72 		"/>
		<polygon fill="#EBEB7D" points="660,310.677 666,358.781 669,380.829 678,389.849 658,388.847 657,359.784 658,333.727 		"/>
		<polygon fill="#C0BE6B" points="882,320.698 876,314.685 853,336.733 845,339.74 820,359.784 820,359.784 805,378.825 
			803,389.849 851,389.849 854,383.836 867,358.781 880,348.76 		"/>
		<polygon fill="#C0BE6B" points="952,330.72 931,296.646 929,299.653 925,296.646 923,297.648 912,283.618 906,269.587 
			889,286.624 877,303.661 872,302.659 863,307.67 853,324.707 832,343.749 805,378.825 803,389.849 995,389.849 981,357.779 		"/>
		<polygon fill="#EBEB7D" points="906,269.587 907,279.609 882,320.698 880,348.76 867,358.781 854,383.836 851,389.849 
			803,389.849 805,378.825 832,343.749 853,324.707 863,307.67 872,302.659 877,303.661 889,286.624 		"/>
		<polygon fill="#9BA042" points="981,357.779 968,358.781 940,337.736 932,328.716 936,355.775 940,376.821 953,386.842 
			925,385.84 925,356.777 926,330.72 927,322.703 925,320.698 923,319.696 923,330.72 921,317.692 919,315.688 906,318.694 
			899,334.729 904,318.694 890,326.712 876,314.685 853,336.733 845,339.74 820,359.784 805,378.825 803,389.849 995,389.849 		"/>
		<polygon fill="#84873C" points="882,320.698 876,314.685 853,336.733 845,339.74 820,359.784 820,359.784 805,378.825 
			795,500.089 843,500.089 854,383.836 867,358.781 880,348.76 		"/>
		<polygon fill="#EBEB7D" points="910,286.624 905,287.626 901,299.653 904,308.672 		"/>
		<polygon fill="#EBEB7D" points="912,288.629 899,334.729 912,301.657 		"/>
		<polygon fill="#EBEB7D" points="919,292.637 919,302.659 923,330.72 924,296.646 923,297.648 		"/>
		<polygon fill="#EBEB7D" points="928,307.67 936,355.775 940,376.821 953,386.842 925,385.84 925,356.777 926,330.72 		"/>
		<polygon fill="#EBEB7D" points="894,310.677 890,358.781 888,380.829 882,389.849 895,388.847 895,359.784 895,333.727 		"/>
		<polygon fill="#CECE92" points="650,330.72 627,336.733 610,329.718 600,318.694 593,293.64 584,268.585 550,263.574 539,281.613 
			556,498.085 673,500.089 714,500.089 673,363.792 		"/>
		<path fill="#C2C073" d="M551,254.554c0,0-14-1.002-15,4.009c-1,5.011-8,42.092-8,50.109c0,8.017-4,45.098-6,51.111
			c-1,4.009-5,20.044-8,30.065h49c-4-13.028-11-36.079-10-43.094c1-10.022-1-54.118-1-54.118l-2-28.061L551,254.554z"/>
		<path fill="#A4A264" d="M527,389.849h36c-4-13.028-11-36.079-10-43.094c1-10.022-1-54.118-1-54.118l-2-28.061l0,0h-1l-10,17.037
			L527,389.849z"/>
		<path fill="#C2C073" d="M573,252.55c0,0,10,15.033,12,21.046s-2,18.039,5,32.07s15,47.103,15,47.103l8,27.059l2,9.02h-37
			l-7-30.065c0,0-11-38.083-8-63.138C567,270.589,573,252.55,573,252.55z"/>
		<path fill="#A4A264" d="M582,268.585c1,2.004,2,4.009,3,6.013c2,6.013-2,18.039,5,32.07c7,14.031,15,47.103,15,47.103l52,137.299
			l2,9.02h-37l-51-140.306c0,0-10-44.096-8-63.138c3-19.041,4-22.048,6-30.065L582,268.585z"/>
		<polygon fill="#C2C073" points="562,254.554 555,257.561 558,288.629 567,256.559 		"/>
		<path fill="#C2C073" d="M614,330.72l24,4.009c0,0,18,18.039,20,27.059c2,9.02,36,127.277,40,138.301h-17h-23
			c-3-15.033-43-168.367-43-168.367L614,330.72z"/>
		<polygon fill="#C0BE6B" points="561,310.677 533,265.578 531,269.587 524,264.576 522,266.581 507,247.539 500,230.502 
			494,296.646 529,499.087 647,499.087 599,346.755 		"/>
		<polygon fill="#EBEB7D" points="500,240.524 500,242.528 500,242.528 		"/>
		<polygon fill="#9BA042" points="600,347.757 583,347.757 544,319.696 534,307.67 540,343.749 545,372.812 562,495.078 
			525,494.076 524,345.753 526,310.677 527,300.655 525,297.648 522,295.644 522,311.679 520,293.64 517,290.633 500,293.64 
			500,500.089 618,500.089 		"/>
		<polygon fill="#EBEB7D" points="504,252.55 500,252.55 500,268.585 		"/>
		<polygon fill="#EBEB7D" points="507,254.554 500,280.611 500,291.635 508,271.591 		"/>
		<polygon fill="#EBEB7D" points="517,259.565 517,272.594 522,311.679 523,265.578 522,266.581 		"/>
		<polygon fill="#EBEB7D" points="529,279.609 540,343.749 545,372.812 562,497.083 525,496.08 524,345.753 526,310.677 		"/>
		<polygon fill="#C0BE6B" points="967,296.646 959,289.631 929,318.694 917,323.705 884,349.762 884,349.762 865,375.819 
			862,389.849 926,389.849 930,380.829 947,347.757 965,334.729 		"/>
		<polygon fill="#C0BE6B" points="1000,230.502 1000,229.5 976,252.55 961,274.598 954,272.594 942,279.609 928,303.661 
			901,328.716 841,384.838 828,500.089 1000,500.089 		"/>
		<polygon fill="#EBEB7D" points="1000,229.5 1000,240.524 1000,242.528 967,296.646 965,334.729 947,347.757 930,380.829 
			926,389.849 862,389.849 865,375.819 901,328.716 928,303.661 942,279.609 954,272.594 961,274.598 976,252.55 		"/>
		<polygon fill="#9BA042" points="1000,293.64 999,293.64 990,316.69 996,295.644 978,305.666 959,289.631 929,318.694 917,323.705 
			884,349.762 865,375.819 840,500.089 979,500.089 		"/>
		<polygon fill="#84873C" points="967,296.646 959,289.631 929,318.694 917,323.705 884,349.762 884,349.762 865,375.819 
			862,389.849 926,389.849 930,380.829 947,347.757 965,334.729 		"/>
		<polygon fill="#EBEB7D" points="1000,252.55 998,252.55 992,269.587 997,280.611 1000,268.585 		"/>
		<polygon fill="#EBEB7D" points="1000,280.611 990,316.69 1000,291.635 		"/>
		<polygon fill="#EBEB7D" points="983,283.618 978,347.757 955,489.065 947,501.091 964,500.089 985,349.762 984,315.688 		"/>
	</g>
</g>
</svg>
