<?xml version="1.0" encoding="utf-8"?>
<!-- Generator: Adobe Illustrator 17.0.0, SVG Export Plug-In . SVG Version: 6.00 Build 0)  -->
<!DOCTYPE svg PUBLIC "-//W3C//DTD SVG 1.1//EN" "http://www.w3.org/Graphics/SVG/1.1/DTD/svg11.dtd">
<svg version="1.1" id="Capa_1" xmlns="http://www.w3.org/2000/svg" xmlns:xlink="http://www.w3.org/1999/xlink" x="0px" y="0px"
	 width="1000px" height="500px" viewBox="0 0 1000 500" enable-background="new 0 0 1000 500" xml:space="preserve">
<g id="Capa_x0020_1">
	<rect fill="none" width="1000" height="500"/>
	<path fill="#A2DAA9" d="M997.341,148c0,0-27.925,11.888-37.899,37.644s-28.923,8.916-47.872,16.841
		c-18.949,8.916-12.965-4.953-32.912,22.785s-41.888,44.579-50.864,30.71c-9.973-13.869-42.886-41.607-61.835-32.691
		c-17.952,8.916-74.8,23.775-71.808,25.757c2.992,1.981-28.923,25.757-42.886,22.785c-13.963-2.972-66.822-18.822-70.811-19.813
		c-8.976-1.981-17.952-2.972-25.931-4.953l0.997-11.888l20.944,1.981l-17.952-14.86c0,0,14.96,0,13.963,0
		c-1.995,0-17.952-9.906-17.952-9.906h4.987l-8.976-15.85l-5.984,14.86l4.987,0.991l-13.963,6.934c0,0,10.971,1.981,8.976,1.981
		c-0.997,0-4.987,1.981-8.976,4.953l-3.989-10.897l5.984,0.991v-14.86l-11.968,6.934l1.995,4.953l-10.971-1.981l0.997,5.944
		l-9.973-0.991h6.981l-13.963-10.897l8.976,0.991l-13.963-21.794l-10.971,20.803l6.981,2.972l-9.973,4.953l-9.973-14.86
		l-11.968,14.86c0,0,10.971,0,8.976,0.991c-1.995,0.991-12.965,6.934-12.965,6.934s12.965,0,9.973,0.991
		c-2.992,0.991-17.952,10.897-17.952,10.897l0.997,0.991c-50.864-1.981-18.949,21.794-95.745,41.607
		c-13.963,2.972-45.878-20.803-42.886-22.785s-54.854-16.841-72.806-25.757c-17.952-8.916-52.859,18.822-62.832,32.691
		c-9.973,13.869-10.971-4.953-30.918-32.691c-1.995-2.972-3.989-4.953-5.984-6.934l3.989-4.953l14.96,8.916l-6.981-18.822
		l7.979,3.963l-4.987-9.906l5.984,1.981l1.995-17.831l-14.96,5.944l2.992,6.934l-13.963-2.972l5.984,7.925
		c0,0-7.979-1.981-15.957-2.972l-0.997-2.972l5.984,1.981l1.995-17.831l-14.96,5.944l2.992,6.934l-13.963-2.972l5.984,7.925
		c0,0-26.928-5.944-25.931-4.953c0.997,0.991,21.941,14.86,21.941,14.86l-1.995,2.972c-4.987,0-10.971,0-16.955-2.972
		c-3.989-1.981-7.979-1.981-10.971-2.972v-1.981l17.952,1.981l-13.963-13.869h8.976l-8.976-7.925l5.984-0.991l-5.984-16.841
		l-10.971,11.888l5.984,4.953l-13.963,2.972l8.976,4.953c0,0-26.928,5.944-24.933,6.934c1.995,0.991,26.928,3.963,26.928,3.963
		l-0.997,3.963c-12.965,0-23.936,3.963-31.915-14.86C29.923,163.85,0,147.602,0,147.602L0,500l500.667,0.667h5.984L1000,500V148.479
		L997.341,148z M122.675,200.504c5.984,3.963,11.968,7.925,11.968,7.925l-3.989,5.944c-2.992-2.972-6.981-4.953-9.973-5.944
		l-3.989-10.897l4.987,2.972H122.675z M547.542,247.064c-11.968-1.981-22.939-3.963-32.912-5.944l1.995-5.944l0,0l13.963,4.953
		l-2.992-4.953h9.973h0.997l0,0h9.973l-0.997,12.878V247.064z M526.598,232.204l-0.997-1.981l2.992,0.991L526.598,232.204z
		 M508.645,240.129c-2.992-0.991-5.984-0.991-8.976-1.981v-2.972h11.968L508.645,240.129z M475.733,215.363l-1.995,0.991
		l12.965,2.972l-6.981,2.972l-8.976-5.944L475.733,215.363z M480.72,230.223l5.984,1.981l-1.995,4.953
		c-1.995,0-3.989-0.991-5.984-0.991l-3.989-4.953l4.987-0.991H480.72z"/>
</g>
</svg>
