<?xml version="1.0" encoding="utf-8"?>
<!-- Generator: Adobe Illustrator 17.0.0, SVG Export Plug-In . SVG Version: 6.00 Build 0)  -->
<!DOCTYPE svg PUBLIC "-//W3C//DTD SVG 1.1//EN" "http://www.w3.org/Graphics/SVG/1.1/DTD/svg11.dtd">
<svg version="1.1" id="PLATAFORMA" xmlns="http://www.w3.org/2000/svg" xmlns:xlink="http://www.w3.org/1999/xlink" x="0px" y="0px"
	 width="3000px" height="500px" viewBox="0 0 3000 500" enable-background="new 0 0 3000 500" xml:space="preserve">
<g id="PLATAFORMAS">
	<rect x="0" y="338.496" width="66" height="10"/>
	<rect x="160" y="277.5" width="66" height="10"/>
	<rect x="227" y="292.5" width="66" height="10"/>
	<rect x="0" y="388.575" width="223" height="10"/>
	<rect x="160" y="354.5" width="223" height="10"/>
	<rect x="435" y="245.492" width="66" height="10"/>
	<rect x="522" y="348.5" width="66" height="10"/>
	<rect x="401" y="390.5" width="66" height="10"/>
	<rect x="589" y="261" width="200" height="240.455"/>
	<rect x="864" y="413.5" width="66" height="10"/>
	<rect x="921" y="386.5" width="66" height="10"/>
	<rect x="1078" y="386.5" width="173" height="10"/>
	<rect x="1251" y="356.5" width="173" height="10"/>
	<rect x="1518" y="356.5" width="79" height="10"/>
	<rect x="1690" y="356.5" width="117" height="10"/>
	<rect x="1807" y="278" width="69" height="221.59"/>
	<rect x="1921" y="367.5" width="155" height="10"/>
	<rect x="2145" y="306.5" width="69" height="10"/>
	<rect x="2320" y="204.5" width="117" height="10"/>
	<rect x="2437.333" y="125.667" width="155" height="374.73"/>
	<rect x="2279.36" y="363.833" width="157.67" height="10"/>
	<rect x="2690" y="0" width="310" height="155.48"/>
	<rect x="2690" y="286.56" width="310" height="10"/>
</g>
</svg>
