<?xml version="1.0" encoding="utf-8"?>
<!-- Generator: Adobe Illustrator 17.0.0, SVG Export Plug-In . SVG Version: 6.00 Build 0)  -->
<!DOCTYPE svg PUBLIC "-//W3C//DTD SVG 1.1//EN" "http://www.w3.org/Graphics/SVG/1.1/DTD/svg11.dtd">
<svg version="1.1" id="UBICACIÓN_MONEDAS" xmlns="http://www.w3.org/2000/svg" xmlns:xlink="http://www.w3.org/1999/xlink" x="0px"
	 y="0px" width="3000px" height="500px" viewBox="0 0 3000 500" enable-background="new 0 0 3000 500" xml:space="preserve">
<rect x="172.446" y="237.976" width="25" height="25"/>
<rect x="334.196" y="318.975" width="25" height="25"/>
<rect x="479.696" y="205.976" width="25" height="25"/>
<rect x="684.45" y="214.901" width="25" height="25"/>
<rect x="885.309" y="379.839" width="25" height="25"/>
<rect x="942.58" y="346.456" width="25" height="25"/>
<rect x="1107.409" y="349.695" width="25" height="25"/>
<rect x="1130.575" y="349.826" width="25" height="25"/>
<rect x="1153.292" y="349.786" width="25" height="25"/>
<rect x="1177.496" y="350.174" width="25" height="25"/>
<rect x="1293.089" y="313.712" width="25" height="25"/>
<rect x="1315.946" y="313.501" width="25" height="25"/>
<rect x="1339.168" y="313.426" width="25" height="25"/>
<rect x="1363.021" y="313.89" width="25" height="25"/>
<rect x="1970.299" y="323.328" width="25" height="25"/>
<rect x="1851.689" y="235.431" width="25" height="25"/>
<rect x="1730.439" y="310.181" width="25" height="25"/>
<rect x="2061.081" y="267.23" width="25" height="25"/>
<rect x="2327.829" y="333.204" width="25" height="25"/>
<rect x="2408.653" y="167.256" width="25" height="25"/>
<rect x="2682.653" y="183.756" width="25" height="25"/>
<rect x="2870.269" y="237.915" width="25" height="25"/>
<rect x="2896.79" y="221.734" width="25" height="25"/>
<rect x="2923.412" y="238.495" width="25" height="25"/>
<rect x="2965.483" y="250.61" width="25" height="25"/>
<rect fill="none" stroke="#000000" stroke-miterlimit="10" width="3000" height="500"/>
</svg>
