<?xml version="1.0" encoding="UTF-8"?>
<!DOCTYPE svg PUBLIC "-//W3C//DTD SVG 1.1//EN" "http://www.w3.org/Graphics/SVG/1.1/DTD/svg11.dtd">
<!-- Creator: CorelDRAW X6 -->
<svg xmlns="http://www.w3.org/2000/svg" xml:space="preserve" width="3000px" height="500px" version="1.1" style="shape-rendering:geometricPrecision; text-rendering:geometricPrecision; image-rendering:optimizeQuality; fill-rule:evenodd; clip-rule:evenodd"
viewBox="0 0 3000 500"
 xmlns:xlink="http://www.w3.org/1999/xlink">
 <defs>
  <style type="text/css">
   <![CDATA[
    .fil0 {fill:none}
    .fil1 {fill:#373435}
   ]]>
  </style>
 </defs>
 <g id="DETALLES">
  <metadata id="CorelCorpID_0Corel-Layer"/>
  <rect class="fil0" width="3000" height="500"/>
  <rect class="fil1" y="260" width="37" height="78"/>
  <rect class="fil1" x="182" y="214" width="31" height="65"/>
  <rect class="fil1" x="247" y="201" width="46" height="93"/>
  <rect class="fil1" x="341" y="279" width="36" height="77"/>
  <rect class="fil1" x="535" y="273" width="36" height="77"/>
  <rect class="fil1" x="599" y="203" width="36" height="61"/>
  <rect class="fil1" x="713" y="189" width="37" height="75"/>
  <rect class="fil1" x="749" y="189" width="37" height="75"/>
  <rect class="fil1" x="952" y="315" width="37" height="72"/>
  <rect class="fil1" x="1280" y="262" width="47" height="96"/>
  <rect class="fil1" x="1342" y="279" width="37" height="78"/>
  <rect class="fil1" x="1556" y="269" width="42" height="89"/>
  <rect class="fil1" x="1719" y="269" width="42" height="89"/>
  <rect class="fil1" x="1761" y="269" width="42" height="89"/>
  <rect class="fil1" x="1924" y="280" width="42" height="89"/>
  <rect class="fil1" x="2014" y="281" width="42" height="89"/>
  <rect class="fil1" x="2325" y="118" width="42" height="89"/>
 </g>
</svg>
