<?xml version="1.0" encoding="utf-8"?>
<!-- Generator: Adobe Illustrator 17.0.0, SVG Export Plug-In . SVG Version: 6.00 Build 0)  -->
<!DOCTYPE svg PUBLIC "-//W3C//DTD SVG 1.1//EN" "http://www.w3.org/Graphics/SVG/1.1/DTD/svg11.dtd">
<svg version="1.1" id="Capa_1" xmlns="http://www.w3.org/2000/svg" xmlns:xlink="http://www.w3.org/1999/xlink" x="0px" y="0px"
	 width="70px" height="427px" viewBox="0 0 70 427" enable-background="new 0 0 70 427" xml:space="preserve">
<g>
	<path fill-rule="evenodd" clip-rule="evenodd" fill="#081311" d="M69.59,427.126h-70c0-132.945,0-265.891,0-398.836h70
		C69.59,161.235,69.59,294.181,69.59,427.126z"/>
	<path fill-rule="evenodd" clip-rule="evenodd" fill="#192427" d="M30.813,142.516L10.399,28.29H58.78L46.773,55.339
		c13.337,191.462,13.083,150.483,0,343.929l12.007,27.858H10.399l20.414-117.643C5.215,199.464,4.818,250.999,30.813,142.516z"/>
	<path fill-rule="evenodd" clip-rule="evenodd" fill="#263F51" d="M29.856,142.516L18.563,28.29h26.764l-6.643,27.049
		c5.793,150.318,5.659,192.711,0,343.929l6.643,27.858H18.563l11.293-117.644C40.568,202.311,40.767,248.503,29.856,142.516z"/>
	<path fill-rule="evenodd" clip-rule="evenodd" fill="#263F51" d="M12.908,142.516L18.563,28.29H5.162l3.326,27.049
		c-2.415,125.156-2.349,218.513,0,343.929l-3.326,27.858h13.401l-5.654-117.644C18.817,217.792,18.934,233.291,12.908,142.516z"/>
	<path fill-rule="evenodd" clip-rule="evenodd" fill="#192427" d="M61.13,142.516L68.806,28.29h-18.19l4.515,27.049
		c-3.485,133.044-3.396,210.429-0.001,343.929l-4.514,27.858h18.19L61.13,309.482C70.088,207.086,70.248,243.694,61.13,142.516z"/>
	<path fill-rule="evenodd" clip-rule="evenodd" fill="#263F51" d="M57.77,142.516L62.993,28.29H50.616l3.072,27.049
		c-2.134,119.781-2.148,223.933,0,343.929l-3.072,27.858h12.377L57.77,309.482C62.417,231.41,62.49,219.508,57.77,142.516z"/>
	<polygon fill-rule="evenodd" clip-rule="evenodd" fill="#081311" points="33.654,258.514 37.086,427.126 26.804,427.126 	"/>
	<rect x="-0.41" y="0.48" fill-rule="evenodd" clip-rule="evenodd" fill="#80A878" width="70" height="28.67"/>
	<polygon fill-rule="evenodd" clip-rule="evenodd" fill="#415940" points="34.574,29.15 23.327,29.15 -0.41,29.15 -0.41,17.556 
		6.754,20.201 17.115,17.911 28.031,11.1 31.972,11.1 46.397,17.911 60.09,20.201 69.558,17.556 69.558,29.15 	"/>
	<polygon fill-rule="evenodd" clip-rule="evenodd" fill="#081311" points="33.654,192.002 37.086,28.29 26.804,28.29 	"/>
</g>
</svg>
