<?xml version="1.0" encoding="utf-8"?>
<!-- Generator: Adobe Illustrator 17.0.0, SVG Export Plug-In . SVG Version: 6.00 Build 0)  -->
<!DOCTYPE svg PUBLIC "-//W3C//DTD SVG 1.1//EN" "http://www.w3.org/Graphics/SVG/1.1/DTD/svg11.dtd">
<svg version="1.1" id="Capa_1" xmlns="http://www.w3.org/2000/svg" xmlns:xlink="http://www.w3.org/1999/xlink" x="0px" y="0px"
	 width="80px" height="80px" viewBox="0 0 80 80" enable-background="new 0 0 80 80" xml:space="preserve">
<path fill-rule="evenodd" clip-rule="evenodd" fill="#CAD843" d="M40,80c22.031,0,40-17.968,40-39.999c0-22.031-17.969-40-40-40
	c-22.031,0-40,17.969-40,40C0,62.032,17.969,80,40,80z"/>
<path fill-rule="evenodd" clip-rule="evenodd" fill="#88288B" d="M40,70.824c16.977,0,30.824-13.846,30.824-30.823
	S56.977,9.177,40,9.177c-16.977,0-30.824,13.847-30.824,30.824S23.023,70.824,40,70.824z"/>
<g>
	<polygon fill-rule="evenodd" clip-rule="evenodd" fill="#6D6E70" points="39.999,15.8 44.692,25.556 54.224,20.422 52.289,31.073 
		63.015,32.523 55.19,40.001 63.015,47.48 52.289,48.929 54.224,59.58 44.692,54.447 39.999,64.203 35.305,54.447 25.773,59.58 
		27.708,48.929 16.983,47.48 24.808,40.001 16.983,32.523 27.708,31.073 25.773,20.422 35.305,25.556 	"/>
	<polygon fill-rule="evenodd" clip-rule="evenodd" fill="#BBBCBE" points="39.999,22.096 36.526,29.311 29.472,25.515 
		30.904,33.394 22.969,34.467 28.759,40.001 22.969,45.536 30.904,46.608 29.472,54.487 36.526,50.692 39.999,57.907 43.471,50.692 
		50.526,54.487 49.093,46.608 57.029,45.536 51.238,40.001 57.029,34.467 49.093,33.394 50.526,25.515 43.471,29.311 	"/>
	<path fill-rule="evenodd" clip-rule="evenodd" fill="#E6E6E7" d="M33.72,52.201l2.806-1.509l3.472,7.215l3.472-7.215l7.055,3.796
		l-1.432-7.879l7.936-1.072l-5.791-5.535l5.791-5.535l-7.936-1.072l0.757-4.163c-0.565-0.06-1.137-0.092-1.717-0.092
		c-8.854,0-16.032,7.179-16.032,16.032C32.1,47.692,32.683,50.078,33.72,52.201z"/>
	<path fill-rule="evenodd" clip-rule="evenodd" fill="#58595B" d="M40,47.9c4.35,0,7.898-3.548,7.898-7.898S44.35,32.103,40,32.103
		s-7.898,3.548-7.898,7.898S35.65,47.9,40,47.9z"/>
	<path fill-rule="evenodd" clip-rule="evenodd" fill="#E6E6E7" d="M42.511,45.995c1.918,0,3.483-1.565,3.483-3.483
		c0-1.918-1.565-3.483-3.483-3.483c-1.918,0-3.483,1.565-3.483,3.483C39.028,44.43,40.593,45.995,42.511,45.995z"/>
</g>
</svg>
