<?xml version="1.0" encoding="utf-8"?>
<!-- Generator: Adobe Illustrator 17.0.0, SVG Export Plug-In . SVG Version: 6.00 Build 0)  -->
<!DOCTYPE svg PUBLIC "-//W3C//DTD SVG 1.1//EN" "http://www.w3.org/Graphics/SVG/1.1/DTD/svg11.dtd">
<svg version="1.1" id="Capa_1" xmlns="http://www.w3.org/2000/svg" xmlns:xlink="http://www.w3.org/1999/xlink" x="0px" y="0px"
	 width="80px" height="80px" viewBox="0 0 80 80" enable-background="new 0 0 80 80" xml:space="preserve">
<g>
	<path fill-rule="evenodd" clip-rule="evenodd" fill="#CAD843" d="M40,79.999c22.031,0,40-17.968,40-39.999C80,17.969,62.031,0,40,0
		C17.969,0,0,17.969,0,40C0,62.031,17.969,79.999,40,79.999z"/>
	<path fill-rule="evenodd" clip-rule="evenodd" fill="#88288B" d="M40,70.823c16.977,0,30.824-13.846,30.824-30.823
		S56.977,9.176,40,9.176S9.176,23.023,9.176,40S23.023,70.823,40,70.823z"/>
	<path fill-rule="evenodd" clip-rule="evenodd" fill="#CAD843" d="M44.477,58.831L23.727,42.397c-1.665-1.318-1.665-3.475,0-4.793
		l20.749-16.435c1.288-1.02,3.211-1.251,4.786-0.692l0.117,39.003C47.784,60.094,45.798,59.877,44.477,58.831z"/>
</g>
</svg>
