<?xml version="1.0" encoding="utf-8"?>
<!-- Generator: Adobe Illustrator 17.0.0, SVG Export Plug-In . SVG Version: 6.00 Build 0)  -->
<!DOCTYPE svg PUBLIC "-//W3C//DTD SVG 1.1//EN" "http://www.w3.org/Graphics/SVG/1.1/DTD/svg11.dtd">
<svg version="1.1" id="Capa_3" xmlns="http://www.w3.org/2000/svg" xmlns:xlink="http://www.w3.org/1999/xlink" x="0px" y="0px"
	 width="600px" height="100px" viewBox="0 0 600 100" enable-background="new 0 0 600 100" xml:space="preserve">
<g>
	<g id="Capa_x0020_1_3_">
		<polygon fill="#201E1E" points="59.795,90.248 60.431,91.998 71.696,87.91 71.06,86.159 63.725,84.862 59.71,87.309 		"/>
		<polygon fill="#373535" points="43.313,62.153 55.181,55.057 64.256,70.235 65.403,84.73 59.073,88.515 54.447,77.183 		"/>
		<polygon fill="#201E1E" points="63.029,86.15 59.073,88.515 54.447,77.183 43.313,62.153 52.808,56.476 61.882,71.655 		"/>
		<polygon fill="#201E1E" points="26.364,86.824 25.675,88.701 37.285,91.895 38.912,90.362 33.718,84.196 28.679,83.413 		"/>
		<polygon fill="#201E1E" points="37.196,54.056 50.75,57.561 45.992,75.956 36.928,87.039 28.215,84.786 34.124,73.919 		"/>
		<polygon fill="#373535" points="34.024,86.288 28.215,84.786 34.124,73.919 37.196,54.056 47.846,56.81 43.088,75.205 		"/>
		<path fill="#ED3237" d="M39.794,12.791c-3.053-0.826-11.939-5.521-13.332-8.846l-1.106,1.667
			c1.394,3.325,10.552,5.801,13.052,7.459L39.794,12.791z"/>
		<path fill="#373535" d="M45.296,32.125c5.052-3.237,13.103-3.647,14.918-11.936l5.829-0.172
			C55.008,47.279,35.495,37.218,45.296,32.125z"/>
		<path fill="#201E1E" d="M65.74,21.399C58.809,36.53,49.613,38.86,44.929,37.112c-1.921-1.144-0.777-3.066,1.749-4.684
			c5.052-3.237,13.406-5.029,15.22-13.318L65.74,21.399z"/>
		<polygon fill="#F2BBA1" points="60.214,20.189 59.437,17.124 62.265,14.123 66.949,15.873 68.029,17.556 65.74,21.399 		"/>
		<polygon fill="#EEAC95" points="66.884,19.477 65.74,21.399 61.595,20.492 60.818,17.426 62.503,16.347 62.739,18.571 
			64.661,19.715 		"/>
		<path fill="#201E1E" d="M38.393,32.496l-1.997,32.629l19.892-7.996c0,0-11.956-21.788-11.008-23.768
			c0.173-1.377-0.084-4.907-0.084-4.907l-4.734-1.294L38.393,32.496z"/>
		<path fill="#373535" d="M37.272,35.853l-1.05,30.649l17.74-7.567c-0.603-0.775-7.233,1.89-10.071-3.363
			c-1.205-1.55,3.017-7.316,2.588-9.47c-0.685-5.683-3.697-9.559-4.3-10.333c0.173-1.377-0.084-4.907-0.084-4.907l-3.357-1.121
			l-2.242,6.714L37.272,35.853z"/>
		<polygon fill="#AB3235" points="38.22,33.874 52.848,51.1 51.297,52.305 35.894,35.68 		"/>
		<path fill="#ED3237" d="M40.396,12.656C39.842,9.093,29.374,3.143,29.728,0l-1.327,0.487c-1.681,3.63,10.115,9.094,11.088,11.749
			L40.396,12.656z"/>
		<path fill="#373535" d="M57.194,11.87c7.406,3.626,2.033,9.637,0.154,18.438c-1.879,8.801-2.087,9.779-9.912,8.109
			S33.459,27.254,35.129,19.43c1.253-5.868,7.395-10.691,13.68-11.395C51.953,7.684,54.47,10.266,57.194,11.87z"/>
		<path fill="#201E1E" d="M57.194,11.87c7.406,3.626,2.033,9.637,0.154,18.438c-0.836,3.912-1.461,6.846-2.648,7.615l-0.978-0.209
			c-6.846-1.461-12.23-9.768-10.769-16.614c1.044-4.89,6-8.945,12.285-9.648C56.216,11.661,56.216,11.661,57.194,11.87l0.978,0.209
			L57.194,11.87z"/>
		<path fill="#EEAC95" d="M58.151,27.152c-0.209,0.978-0.494,2.006-0.703,2.984c-0.209,0.978-0.737,2.941-0.946,3.918
			c-2.725-1.604-4.89-1.044-7.197-4.604c-0.56-2.165,0.483-7.055,2.648-7.615c3.912,0.836,3.286,3.769,5.033,5.164l0,0
			L58.151,27.152z"/>
		<path fill="#ED3237" d="M41.129,10.486l20.12,6.341c-0.209,0.978-0.626,2.933-1.044,4.89l-21.45-9.693
			C39.942,11.255,40.152,10.277,41.129,10.486z"/>
		<path fill="#F2BBA1" d="M55.743,33.034c-0.978-0.209-1.956-0.417-2.933-0.626c-0.978-0.209-1.748-1.395-2.516-2.582
			c-0.77-1.187,0.275-6.076,2.44-6.636c2.933,0.626,3.494,2.791,4.054,4.956l0,0C56.579,29.122,55.953,32.056,55.743,33.034"/>
		<ellipse transform="matrix(0.978 0.2087 -0.2087 0.978 7.1945 -10.769)" fill="#201E1E" cx="54.622" cy="28.704" rx="1" ry="2"/>
		<ellipse fill="#FEFEFE" cx="52.479" cy="15.24" rx="0" ry="0"/>
		<polygon fill="#201E1E" points="53.502,24.375 57.974,27.375 57.766,28.353 53.085,26.331 		"/>
		<path fill="#373535" d="M43.39,29.808c8.839,1.693,13.332-0.501,20.73-7.229l3.552,2.717c-2.528,2.57-5.245,6.122-8.756,8.505
			c-9.55,7.334-16.425,6.018-19.184,4.471c-4.534-2.904-0.083-10.198,3.846-9.445L43.39,29.808z"/>
		<polygon fill="#F2BBA1" points="70.807,24.878 67.673,25.295 64.12,22.578 64.12,22.578 63.326,21.408 63.89,18.462 
			66.043,17.856 70.766,19.778 		"/>
		<path fill="#201E1E" d="M65.896,23.936c-3.323,1.4-6.04,4.952-9.362,6.352L53.4,30.707c-1.171,0.794-6.08-0.147-9.404,1.254
			c-3.134,0.418-3.887,4.346-5.852,3.971c-1.4-3.323,2.487-7.669,5.434-7.105c8.839,1.693,13.332-0.501,20.73-7.229l1.777,1.358
			L65.896,23.936z"/>
		<polygon fill="#EEAC95" points="64.12,22.578 64.684,19.632 66.836,19.026 70.577,20.76 70.807,24.878 67.673,25.295 		"/>
		<polygon fill="#ED3237" points="36.659,57.463 52.419,48.948 54.654,53.426 36.914,60.993 		"/>
		<polygon fill="#AB3235" points="53.622,50.498 54.654,53.426 36.914,60.993 37.088,59.616 		"/>
		<path fill="#AB3235" d="M39.734,12.234l21.098,6.549c-0.209,0.978-0.417,1.956-0.626,2.933l-21.45-9.692
			c0,0,0.209-0.978,1.187-0.77L39.734,12.234z"/>
		
			<ellipse transform="matrix(-0.1251 0.9921 -0.9921 -0.1251 89.9929 -22.728)" fill="#FEFEFE" cx="55.018" cy="28.316" rx="0.741" ry="0.445"/>
	</g>
</g>
<g id="Capa_2" display="none">
	<rect display="inline" fill="none" width="600" height="100"/>
</g>
<g>
	<g id="Capa_x0020_1_7_">
		<polygon fill="#201E1E" points="156.128,90.248 156.764,91.998 168.029,87.91 167.394,86.159 160.059,84.862 156.043,87.309 		"/>
		<polygon fill="#373535" points="139.646,62.153 151.515,55.057 160.589,70.235 161.736,84.73 155.406,88.515 150.78,77.183 		"/>
		<polygon fill="#201E1E" points="159.362,86.15 155.406,88.515 150.78,77.183 139.646,62.153 149.141,56.476 158.216,71.655 		"/>
		<polygon fill="#201E1E" points="122.697,86.824 122.008,88.701 133.618,91.895 135.246,90.362 130.051,84.196 125.013,83.413 		
			"/>
		<polygon fill="#201E1E" points="133.53,54.056 147.084,57.561 142.326,75.956 133.262,87.039 124.548,84.786 130.458,73.919 		"/>
		<polygon fill="#373535" points="130.357,86.288 124.548,84.786 130.458,73.919 133.53,54.056 144.179,56.81 139.421,75.205 		"/>
		<path fill="#ED3237" d="M136.176,12.747c-3.147-0.317-12.679-3.499-14.597-6.552L120.76,8.02
			c1.918,3.053,11.357,4.002,14.094,5.23L136.176,12.747z"/>
		<path fill="#373535" d="M141.63,32.125c5.052-3.237,13.103-3.647,14.918-11.936l5.829-0.172
			C151.341,47.279,131.829,37.218,141.63,32.125z"/>
		<path fill="#201E1E" d="M162.073,21.399c-6.931,15.131-16.127,17.462-20.811,15.713c-1.921-1.144-0.777-3.066,1.749-4.684
			c5.052-3.237,13.406-5.029,15.22-13.318L162.073,21.399z"/>
		<polygon fill="#F2BBA1" points="156.547,20.189 155.77,17.124 158.598,14.123 163.283,15.873 164.362,17.556 162.073,21.399 		"/>
		<polygon fill="#EEAC95" points="163.218,19.477 162.073,21.399 157.928,20.492 157.152,17.426 158.836,16.347 159.073,18.571 
			160.994,19.715 		"/>
		<path fill="#201E1E" d="M134.727,32.496l-1.997,32.629l19.892-7.996c0,0-11.956-21.788-11.008-23.768
			c0.173-1.377-0.084-4.907-0.084-4.907l-4.734-1.294L134.727,32.496z"/>
		<path fill="#373535" d="M133.606,35.853l-1.05,30.649l17.74-7.567c-0.603-0.775-7.233,1.89-10.071-3.363
			c-1.205-1.55,3.017-7.316,2.588-9.47c-0.685-5.683-3.697-9.559-4.3-10.333c0.173-1.377-0.084-4.907-0.084-4.907l-3.357-1.121
			l-2.242,6.714L133.606,35.853z"/>
		<polygon fill="#AB3235" points="134.554,33.874 149.181,51.1 147.63,52.305 132.228,35.68 		"/>
		<path fill="#ED3237" d="M136.748,12.515c-1.128-3.424-12.426-7.588-12.59-10.746l-1.23,0.697
			c-1.066,3.855,11.463,7.322,12.857,9.783L136.748,12.515z"/>
		<path fill="#373535" d="M153.527,11.87c7.406,3.626,2.033,9.637,0.154,18.438s-2.087,9.779-9.912,8.109
			c-7.825-1.671-13.977-11.164-12.307-18.987c1.253-5.868,7.395-10.691,13.68-11.395C148.287,7.684,150.803,10.266,153.527,11.87z"
			/>
		<path fill="#201E1E" d="M153.527,11.87c7.406,3.626,2.033,9.637,0.154,18.438c-0.836,3.912-1.461,6.846-2.648,7.615l-0.978-0.209
			c-6.846-1.461-12.23-9.768-10.769-16.614c1.044-4.89,6-8.945,12.285-9.648C152.55,11.661,152.55,11.661,153.527,11.87l0.978,0.209
			L153.527,11.87z"/>
		<path fill="#EEAC95" d="M154.484,27.152c-0.209,0.978-0.494,2.006-0.703,2.984c-0.209,0.978-0.737,2.941-0.946,3.918
			c-2.725-1.604-4.89-1.044-7.197-4.604c-0.561-2.165,0.483-7.055,2.648-7.615c3.912,0.836,3.286,3.769,5.033,5.164l0,0
			L154.484,27.152z"/>
		<path fill="#ED3237" d="M137.463,10.486l20.12,6.341c-0.209,0.978-0.626,2.933-1.044,4.89l-21.45-9.693
			C136.276,11.255,136.485,10.277,137.463,10.486z"/>
		<path fill="#F2BBA1" d="M152.077,33.034c-0.978-0.209-1.956-0.417-2.933-0.626s-1.748-1.395-2.516-2.582
			c-0.77-1.187,0.275-6.076,2.44-6.636c2.933,0.626,3.494,2.791,4.054,4.956l0,0C152.913,29.122,152.286,32.056,152.077,33.034"/>
		
			<ellipse transform="matrix(0.978 0.2087 -0.2087 0.978 9.3164 -30.8766)" fill="#201E1E" cx="150.956" cy="28.704" rx="1" ry="2"/>
		<ellipse fill="#FEFEFE" cx="148.812" cy="15.24" rx="0" ry="0"/>
		<polygon fill="#201E1E" points="149.836,24.375 154.307,27.375 154.099,28.353 149.419,26.331 		"/>
		<path fill="#373535" d="M139.724,29.808c8.839,1.693,13.332-0.501,20.73-7.229l3.552,2.717c-2.528,2.57-5.245,6.122-8.756,8.505
			c-9.55,7.334-16.425,6.018-19.184,4.471c-4.534-2.904-0.083-10.198,3.846-9.445L139.724,29.808z"/>
		<polygon fill="#F2BBA1" points="167.14,24.878 164.006,25.295 160.453,22.578 160.453,22.578 159.66,21.408 160.224,18.462 
			162.376,17.856 167.099,19.778 		"/>
		<path fill="#201E1E" d="M162.23,23.936c-3.323,1.4-6.04,4.952-9.362,6.352l-3.135,0.419c-1.171,0.794-6.08-0.147-9.404,1.254
			c-3.134,0.418-3.887,4.346-5.852,3.971c-1.4-3.323,2.487-7.669,5.434-7.105c8.839,1.693,13.332-0.501,20.73-7.229l1.777,1.358
			L162.23,23.936z"/>
		<polygon fill="#EEAC95" points="160.453,22.578 161.017,19.632 163.17,19.026 166.911,20.76 167.14,24.878 164.006,25.295 		"/>
		<polygon fill="#ED3237" points="132.992,57.463 148.752,48.948 150.987,53.426 133.248,60.993 		"/>
		<polygon fill="#AB3235" points="149.956,50.498 150.987,53.426 133.248,60.993 133.421,59.616 		"/>
		<path fill="#AB3235" d="M136.067,12.234l21.098,6.549c-0.209,0.978-0.417,1.956-0.626,2.933l-21.45-9.692
			c0,0,0.209-0.978,1.187-0.77L136.067,12.234z"/>
		
			<ellipse transform="matrix(-0.1251 0.9921 -0.9921 -0.1251 198.3757 -118.3048)" fill="#FEFEFE" cx="151.351" cy="28.316" rx="0.741" ry="0.445"/>
	</g>
</g>
<g>
	<g id="Capa_x0020_1_1_">
		<polygon fill="#201E1E" points="257.462,90.248 258.097,91.998 269.363,87.91 268.727,86.159 261.392,84.862 257.377,87.309 		"/>
		<polygon fill="#373535" points="240.979,62.153 252.848,55.057 261.923,70.235 263.069,84.73 256.739,88.515 252.114,77.183 		"/>
		<polygon fill="#201E1E" points="260.696,86.15 256.739,88.515 252.114,77.183 240.979,62.153 250.474,56.476 259.549,71.655 		"/>
		<polygon fill="#201E1E" points="224.03,86.824 223.341,88.701 234.951,91.895 236.579,90.362 231.385,84.196 226.346,83.413 		"/>
		<polygon fill="#201E1E" points="234.863,54.056 248.417,57.561 243.659,75.956 234.595,87.039 225.882,84.786 231.791,73.919 		
			"/>
		<polygon fill="#373535" points="231.69,86.288 225.882,84.786 231.791,73.919 234.863,54.056 245.513,56.81 240.755,75.205 		"/>
		<path fill="#ED3237" d="M237.584,12.64c-3.158,0.158-13.061-1.56-15.414-4.291l-0.537,1.927c2.354,2.731,11.829,2.255,14.719,3.06
			L237.584,12.64z"/>
		<path fill="#373535" d="M242.963,32.125c5.052-3.237,13.103-3.647,14.918-11.936l5.829-0.172
			C252.675,47.279,233.162,37.218,242.963,32.125z"/>
		<path fill="#201E1E" d="M263.407,21.399c-6.931,15.131-16.127,17.462-20.811,15.713c-1.921-1.144-0.777-3.066,1.749-4.684
			c5.052-3.237,13.406-5.029,15.22-13.318L263.407,21.399z"/>
		<polygon fill="#F2BBA1" points="257.881,20.189 257.104,17.124 259.932,14.123 264.616,15.873 265.695,17.556 263.407,21.399 		
			"/>
		<polygon fill="#EEAC95" points="264.551,19.477 263.407,21.399 259.262,20.492 258.485,17.426 260.169,16.347 260.406,18.571 
			262.327,19.715 		"/>
		<path fill="#201E1E" d="M236.06,32.496l-1.997,32.629l19.892-7.996c0,0-11.956-21.788-11.008-23.768
			c0.173-1.377-0.084-4.907-0.084-4.907l-4.734-1.294L236.06,32.496z"/>
		<path fill="#373535" d="M234.939,35.853l-1.05,30.649l17.74-7.567c-0.603-0.775-7.233,1.89-10.071-3.363
			c-1.205-1.55,3.017-7.316,2.588-9.47c-0.685-5.683-3.697-9.559-4.3-10.333c0.173-1.377-0.084-4.907-0.084-4.907l-3.357-1.121
			l-2.242,6.714L234.939,35.853z"/>
		<polygon fill="#AB3235" points="235.887,33.874 250.515,51.1 248.964,52.305 233.561,35.68 		"/>
		<path fill="#ED3237" d="M238.116,12.325c-1.628-3.217-13.423-5.641-14.058-8.739l-1.112,0.873
			c-0.477,3.971,12.43,5.522,14.177,7.747L238.116,12.325z"/>
		<path fill="#373535" d="M254.861,11.87c7.406,3.626,2.033,9.637,0.154,18.438s-2.087,9.779-9.912,8.109
			c-7.825-1.671-13.977-11.164-12.307-18.987c1.253-5.868,7.395-10.691,13.68-11.395C249.62,7.684,252.136,10.266,254.861,11.87z"/>
		<path fill="#201E1E" d="M254.861,11.87c7.406,3.626,2.033,9.637,0.154,18.438c-0.836,3.912-1.461,6.846-2.648,7.615l-0.978-0.209
			c-6.846-1.461-12.23-9.768-10.769-16.614c1.044-4.89,6-8.945,12.285-9.648C253.883,11.661,253.883,11.661,254.861,11.87
			l0.978,0.209L254.861,11.87z"/>
		<path fill="#EEAC95" d="M255.817,27.152c-0.209,0.978-0.494,2.006-0.703,2.984c-0.209,0.978-0.737,2.941-0.946,3.918
			c-2.725-1.604-4.89-1.044-7.197-4.604c-0.56-2.165,0.483-7.055,2.648-7.615c3.912,0.836,3.286,3.769,5.033,5.164l0,0
			L255.817,27.152z"/>
		<path fill="#ED3237" d="M238.796,10.486l20.12,6.341c-0.209,0.978-0.626,2.933-1.044,4.89l-21.45-9.693
			C237.609,11.255,237.818,10.277,238.796,10.486z"/>
		<path fill="#F2BBA1" d="M253.41,33.034c-0.978-0.209-1.956-0.417-2.933-0.626c-0.978-0.209-1.748-1.395-2.516-2.582
			c-0.77-1.187,0.275-6.076,2.44-6.636c2.933,0.626,3.494,2.791,4.054,4.956l0,0C254.246,29.122,253.619,32.056,253.41,33.034"/>
		
			<ellipse transform="matrix(0.978 0.2087 -0.2087 0.978 11.5484 -52.0279)" fill="#201E1E" cx="252.289" cy="28.704" rx="1" ry="2"/>
		<ellipse fill="#FEFEFE" cx="250.145" cy="15.24" rx="0" ry="0"/>
		<polygon fill="#201E1E" points="251.169,24.375 255.641,27.375 255.433,28.353 250.752,26.331 		"/>
		<path fill="#373535" d="M241.057,29.808c8.839,1.693,13.332-0.501,20.73-7.229l3.552,2.717c-2.528,2.57-5.245,6.122-8.756,8.505
			c-9.55,7.334-16.425,6.018-19.184,4.471c-4.534-2.904-0.083-10.198,3.846-9.445L241.057,29.808z"/>
		<polygon fill="#F2BBA1" points="268.474,24.878 265.339,25.295 261.786,22.578 261.786,22.578 260.993,21.408 261.557,18.462 
			263.71,17.856 268.432,19.778 		"/>
		<path fill="#201E1E" d="M263.563,23.936c-3.323,1.4-6.04,4.952-9.362,6.352l-3.135,0.419c-1.171,0.794-6.08-0.147-9.404,1.254
			c-3.134,0.418-3.887,4.346-5.852,3.971c-1.4-3.323,2.487-7.669,5.434-7.105c8.839,1.693,13.332-0.501,20.73-7.229l1.777,1.358
			L263.563,23.936z"/>
		<polygon fill="#EEAC95" points="261.786,22.578 262.351,19.632 264.503,19.026 268.244,20.76 268.474,24.878 265.339,25.295 		"/>
		<polygon fill="#ED3237" points="234.325,57.463 250.085,48.948 252.321,53.426 234.581,60.993 		"/>
		<polygon fill="#AB3235" points="251.289,50.498 252.321,53.426 234.581,60.993 234.754,59.616 		"/>
		<path fill="#AB3235" d="M237.401,12.234l21.098,6.549c-0.209,0.978-0.417,1.956-0.626,2.933l-21.45-9.692
			c0,0,0.209-0.978,1.187-0.77L237.401,12.234z"/>
		
			<ellipse transform="matrix(-0.1251 0.9921 -0.9921 -0.1251 312.384 -218.8423)" fill="#FEFEFE" cx="252.684" cy="28.316" rx="0.741" ry="0.445"/>
	</g>
</g>
<g id="Capa_x0020_1_2_">
	<polygon fill="#201E1E" points="362.462,90.248 363.097,91.998 374.363,87.91 373.727,86.159 366.392,84.862 362.377,87.309 	"/>
	<polygon fill="#373535" points="345.979,62.153 357.848,55.057 366.923,70.235 368.069,84.73 361.739,88.515 357.114,77.183 	"/>
	<polygon fill="#201E1E" points="365.696,86.15 361.739,88.515 357.114,77.183 345.979,62.153 355.474,56.476 364.549,71.655 	"/>
	<polygon fill="#201E1E" points="329.03,86.824 328.341,88.701 339.951,91.895 341.579,90.362 336.385,84.196 331.346,83.413 	"/>
	<polygon fill="#201E1E" points="339.863,54.056 353.417,57.561 348.659,75.956 339.595,87.039 330.882,84.786 336.791,73.919 	"/>
	<polygon fill="#373535" points="336.69,86.288 330.882,84.786 336.791,73.919 339.863,54.056 350.513,56.81 345.755,75.205 	"/>
	<path fill="#ED3237" d="M342.46,12.791c-3.117,0.537-13.153,0.02-15.817-2.409l-0.301,1.977c2.665,2.429,12.014,0.818,14.979,1.269
		L342.46,12.791z"/>
	<path fill="#373535" d="M347.963,32.125c5.052-3.237,13.103-3.647,14.918-11.936l5.829-0.172
		C357.675,47.279,338.162,37.218,347.963,32.125z"/>
	<path fill="#201E1E" d="M368.407,21.399c-6.931,15.131-16.127,17.462-20.811,15.713c-1.921-1.144-0.777-3.066,1.749-4.684
		c5.052-3.237,13.406-5.029,15.22-13.318L368.407,21.399z"/>
	<polygon fill="#F2BBA1" points="362.881,20.189 362.104,17.124 364.932,14.123 369.616,15.873 370.695,17.556 368.407,21.399 	"/>
	<polygon fill="#EEAC95" points="369.551,19.477 368.407,21.399 364.262,20.492 363.485,17.426 365.169,16.347 365.406,18.571 
		367.327,19.715 	"/>
	<path fill="#201E1E" d="M341.06,32.496l-1.997,32.629l19.892-7.996c0,0-11.956-21.788-11.008-23.768
		c0.173-1.377-0.084-4.907-0.084-4.907l-4.734-1.294L341.06,32.496z"/>
	<path fill="#373535" d="M339.939,35.853l-1.05,30.649l17.74-7.567c-0.603-0.775-7.233,1.89-10.071-3.363
		c-1.205-1.55,3.017-7.316,2.588-9.47c-0.685-5.683-3.697-9.559-4.3-10.333c0.173-1.377-0.084-4.907-0.084-4.907l-3.357-1.121
		l-2.242,6.714L339.939,35.853z"/>
	<polygon fill="#AB3235" points="340.887,33.874 355.514,51.1 353.964,52.305 338.561,35.68 	"/>
	<path fill="#ED3237" d="M342.95,12.415c-2.003-2.998-14.003-3.987-15.005-6.987l-0.999,1.001c0.004,4,13.004,3.989,15.005,5.987
		L342.95,12.415z"/>
	<path fill="#373535" d="M359.861,11.87c7.406,3.626,2.033,9.637,0.154,18.438s-2.087,9.779-9.912,8.109
		s-13.977-11.164-12.307-18.987c1.253-5.868,7.395-10.691,13.68-11.395C354.62,7.684,357.136,10.266,359.861,11.87z"/>
	<path fill="#201E1E" d="M359.861,11.87c7.406,3.626,2.033,9.637,0.154,18.438c-0.836,3.912-1.461,6.846-2.648,7.615l-0.978-0.209
		c-6.846-1.461-12.23-9.768-10.769-16.614c1.044-4.89,6-8.945,12.285-9.648C358.883,11.661,358.883,11.661,359.861,11.87
		l0.978,0.209L359.861,11.87z"/>
	<path fill="#EEAC95" d="M360.817,27.152c-0.209,0.978-0.494,2.006-0.703,2.984c-0.209,0.978-0.737,2.941-0.946,3.918
		c-2.725-1.604-4.89-1.044-7.197-4.604c-0.56-2.165,0.483-7.055,2.648-7.615c3.912,0.836,3.286,3.769,5.033,5.164l0,0
		L360.817,27.152z"/>
	<path fill="#ED3237" d="M343.796,10.486l20.12,6.341c-0.209,0.978-0.626,2.933-1.044,4.89l-21.45-9.693
		C342.609,11.255,342.819,10.277,343.796,10.486z"/>
	<path fill="#F2BBA1" d="M358.41,33.034c-0.978-0.209-1.956-0.417-2.934-0.626s-1.748-1.395-2.516-2.582
		c-0.77-1.187,0.275-6.076,2.44-6.636c2.933,0.626,3.494,2.791,4.054,4.956l0,0C359.246,29.122,358.619,32.056,358.41,33.034"/>
	
		<ellipse transform="matrix(0.978 0.2087 -0.2087 0.978 13.8612 -73.9444)" fill="#201E1E" cx="357.289" cy="28.704" rx="1" ry="2"/>
	<ellipse fill="#FEFEFE" cx="355.145" cy="15.24" rx="0" ry="0"/>
	<polygon fill="#201E1E" points="356.169,24.375 360.641,27.375 360.433,28.353 355.752,26.331 	"/>
	<path fill="#373535" d="M346.057,29.808c8.839,1.693,13.332-0.501,20.73-7.229l3.552,2.717c-2.528,2.57-5.245,6.122-8.756,8.505
		c-9.55,7.334-16.425,6.018-19.184,4.471c-4.534-2.904-0.083-10.198,3.846-9.445L346.057,29.808z"/>
	<polygon fill="#F2BBA1" points="373.474,24.878 370.339,25.295 366.786,22.578 366.786,22.578 365.993,21.408 366.557,18.462 
		368.71,17.856 373.432,19.778 	"/>
	<path fill="#201E1E" d="M368.563,23.936c-3.323,1.4-6.04,4.952-9.362,6.352l-3.135,0.419c-1.171,0.794-6.08-0.147-9.404,1.254
		c-3.134,0.418-3.887,4.346-5.852,3.971c-1.4-3.323,2.487-7.669,5.434-7.105c8.839,1.693,13.332-0.501,20.73-7.229l1.777,1.358
		L368.563,23.936z"/>
	<polygon fill="#EEAC95" points="366.786,22.578 367.351,19.632 369.503,19.026 373.244,20.76 373.474,24.878 370.339,25.295 	"/>
	<polygon fill="#ED3237" points="339.325,57.463 355.085,48.948 357.321,53.426 339.581,60.993 	"/>
	<polygon fill="#AB3235" points="356.289,50.498 357.321,53.426 339.581,60.993 339.754,59.616 	"/>
	<path fill="#AB3235" d="M342.401,12.234l21.098,6.549c-0.209,0.978-0.417,1.956-0.626,2.933l-21.45-9.692
		c0,0,0.209-0.978,1.187-0.77L342.401,12.234z"/>
	
		<ellipse transform="matrix(-0.1251 0.9921 -0.9921 -0.1251 430.5176 -323.0176)" fill="#FEFEFE" cx="357.684" cy="28.316" rx="0.741" ry="0.445"/>
</g>
<g>
	<g id="Capa_x0020_1_4_">
		<polygon fill="#201E1E" points="458.795,90.248 459.431,91.998 470.696,87.91 470.06,86.159 462.725,84.862 458.71,87.309 		"/>
		<polygon fill="#373535" points="442.313,62.153 454.181,55.057 463.256,70.235 464.403,84.73 458.073,88.515 453.447,77.183 		"/>
		<polygon fill="#201E1E" points="462.029,86.15 458.073,88.515 453.447,77.183 442.313,62.153 451.808,56.476 460.882,71.655 		"/>
		<polygon fill="#201E1E" points="425.364,86.824 424.674,88.701 436.285,91.895 437.912,90.362 432.718,84.196 427.679,83.413 		
			"/>
		<polygon fill="#201E1E" points="436.196,54.056 449.75,57.561 444.992,75.956 435.928,87.039 427.215,84.786 433.124,73.919 		"/>
		<polygon fill="#373535" points="433.024,86.288 427.215,84.786 433.124,73.919 436.196,54.056 446.846,56.81 442.088,75.205 		"/>
		<path fill="#ED3237" d="M438.938,12.682c-3.162,0.069-13.011-1.927-15.287-4.723L423.06,9.87
			c2.276,2.797,11.761,2.587,14.627,3.473L438.938,12.682z"/>
		<path fill="#373535" d="M444.296,32.125c5.052-3.237,13.103-3.647,14.918-11.936l5.829-0.172
			C454.008,47.279,434.495,37.218,444.296,32.125z"/>
		<path fill="#201E1E" d="M464.74,21.399c-6.931,15.131-16.127,17.462-20.811,15.713c-1.921-1.144-0.777-3.066,1.749-4.684
			c5.052-3.237,13.406-5.029,15.22-13.318L464.74,21.399z"/>
		<polygon fill="#F2BBA1" points="459.214,20.189 458.437,17.124 461.265,14.123 465.949,15.873 467.029,17.556 464.74,21.399 		"/>
		<polygon fill="#EEAC95" points="465.884,19.477 464.74,21.399 460.595,20.492 459.818,17.426 461.503,16.347 461.739,18.571 
			463.661,19.715 		"/>
		<path fill="#201E1E" d="M437.393,32.496l-1.997,32.629l19.892-7.996c0,0-11.956-21.788-11.008-23.768
			c0.173-1.377-0.084-4.907-0.084-4.907l-4.734-1.294L437.393,32.496z"/>
		<path fill="#373535" d="M436.272,35.853l-1.05,30.649l17.74-7.567c-0.603-0.775-7.233,1.89-10.071-3.363
			c-1.205-1.55,3.017-7.316,2.588-9.47c-0.685-5.683-3.697-9.559-4.3-10.333c0.173-1.377-0.084-4.907-0.084-4.907l-3.357-1.121
			l-2.242,6.714L436.272,35.853z"/>
		<polygon fill="#AB3235" points="437.22,33.874 451.848,51.1 450.297,52.305 434.894,35.68 		"/>
		<path fill="#ED3237" d="M439.478,12.383c-1.537-3.261-13.259-6.016-13.806-9.131l-1.136,0.842
			c-0.589,3.956,12.27,5.87,13.953,8.142L439.478,12.383z"/>
		<path fill="#373535" d="M456.194,11.87c7.406,3.626,2.033,9.637,0.154,18.438s-2.087,9.779-9.912,8.109
			s-13.977-11.164-12.307-18.987c1.253-5.868,7.395-10.691,13.68-11.395C450.953,7.684,453.47,10.266,456.194,11.87z"/>
		<path fill="#201E1E" d="M456.194,11.87c7.406,3.626,2.033,9.637,0.154,18.438c-0.836,3.912-1.461,6.846-2.648,7.615l-0.978-0.209
			c-6.846-1.461-12.23-9.768-10.769-16.614c1.044-4.89,6-8.945,12.285-9.648C455.216,11.661,455.216,11.661,456.194,11.87
			l0.978,0.209L456.194,11.87z"/>
		<path fill="#EEAC95" d="M457.151,27.152c-0.209,0.978-0.494,2.006-0.703,2.984c-0.209,0.978-0.737,2.941-0.946,3.918
			c-2.725-1.604-4.89-1.044-7.197-4.604c-0.561-2.165,0.483-7.055,2.648-7.615c3.912,0.836,3.286,3.769,5.033,5.164l0,0
			L457.151,27.152z"/>
		<path fill="#ED3237" d="M440.129,10.486l20.12,6.341c-0.209,0.978-0.626,2.933-1.044,4.89l-21.45-9.693
			C438.942,11.255,439.152,10.277,440.129,10.486z"/>
		<path fill="#F2BBA1" d="M454.743,33.034c-0.978-0.209-1.956-0.417-2.933-0.626s-1.748-1.395-2.516-2.582
			c-0.77-1.187,0.275-6.076,2.44-6.636c2.934,0.626,3.494,2.791,4.054,4.956l0,0C455.579,29.122,454.953,32.056,454.743,33.034"/>
		
			<ellipse transform="matrix(0.978 0.2087 -0.2087 0.978 15.9831 -94.052)" fill="#201E1E" cx="453.622" cy="28.704" rx="1" ry="2"/>
		<ellipse fill="#FEFEFE" cx="451.479" cy="15.24" rx="0" ry="0"/>
		<polygon fill="#201E1E" points="452.502,24.375 456.974,27.375 456.766,28.353 452.085,26.331 		"/>
		<path fill="#373535" d="M442.39,29.808c8.839,1.693,13.332-0.501,20.73-7.229l3.552,2.717c-2.528,2.57-5.245,6.122-8.756,8.505
			c-9.55,7.334-16.425,6.018-19.184,4.471c-4.534-2.904-0.083-10.198,3.846-9.445L442.39,29.808z"/>
		<polygon fill="#F2BBA1" points="469.807,24.878 466.673,25.295 463.12,22.578 463.12,22.578 462.326,21.408 462.89,18.462 
			465.043,17.856 469.766,19.778 		"/>
		<path fill="#201E1E" d="M464.896,23.936c-3.323,1.4-6.04,4.952-9.362,6.352l-3.135,0.419c-1.171,0.794-6.08-0.147-9.404,1.254
			c-3.134,0.418-3.887,4.346-5.852,3.971c-1.4-3.323,2.487-7.669,5.434-7.105c8.839,1.693,13.332-0.501,20.73-7.229l1.777,1.358
			L464.896,23.936z"/>
		<polygon fill="#EEAC95" points="463.12,22.578 463.684,19.632 465.836,19.026 469.577,20.76 469.807,24.878 466.673,25.295 		"/>
		<polygon fill="#ED3237" points="435.659,57.463 451.419,48.948 453.654,53.426 435.914,60.993 		"/>
		<polygon fill="#AB3235" points="452.622,50.498 453.654,53.426 435.914,60.993 436.088,59.616 		"/>
		<path fill="#AB3235" d="M438.734,12.234l21.098,6.549c-0.209,0.978-0.417,1.956-0.626,2.933l-21.45-9.692
			c0,0,0.209-0.978,1.187-0.77L438.734,12.234z"/>
		
			<ellipse transform="matrix(-0.1251 0.9921 -0.9921 -0.1251 538.9005 -418.5944)" fill="#FEFEFE" cx="454.018" cy="28.316" rx="0.741" ry="0.445"/>
	</g>
</g>
<g>
	<g id="Capa_x0020_1_5_">
		<polygon fill="#201E1E" points="560.462,90.248 561.097,91.998 572.363,87.91 571.727,86.159 564.392,84.862 560.377,87.309 		"/>
		<polygon fill="#373535" points="543.979,62.153 555.848,55.057 564.923,70.235 566.069,84.73 559.739,88.515 555.114,77.183 		"/>
		<polygon fill="#201E1E" points="563.696,86.15 559.739,88.515 555.114,77.183 543.979,62.153 553.474,56.476 562.549,71.655 		"/>
		<polygon fill="#201E1E" points="527.03,86.824 526.341,88.701 537.951,91.895 539.579,90.362 534.385,84.196 529.346,83.413 		"/>
		<polygon fill="#201E1E" points="537.863,54.056 551.417,57.561 546.659,75.956 537.595,87.039 528.882,84.786 534.791,73.919 		
			"/>
		<polygon fill="#373535" points="534.69,86.288 528.882,84.786 534.791,73.919 537.863,54.056 548.513,56.81 543.755,75.205 		"/>
		<path fill="#ED3237" d="M540.476,12.648c-3.148-0.301-12.697-3.436-14.629-6.48l-0.81,1.829c1.933,3.044,11.377,3.945,14.12,5.16
			L540.476,12.648z"/>
		<path fill="#373535" d="M545.963,32.125c5.052-3.237,13.103-3.647,14.918-11.936l5.829-0.172
			C555.675,47.279,536.162,37.218,545.963,32.125z"/>
		<path fill="#201E1E" d="M566.407,21.399c-6.931,15.131-16.127,17.462-20.811,15.713c-1.921-1.144-0.777-3.066,1.749-4.684
			c5.052-3.237,13.406-5.029,15.22-13.318L566.407,21.399z"/>
		<polygon fill="#F2BBA1" points="560.881,20.189 560.104,17.124 562.932,14.123 567.616,15.873 568.695,17.556 566.407,21.399 		
			"/>
		<polygon fill="#EEAC95" points="567.551,19.477 566.407,21.399 562.262,20.492 561.485,17.426 563.169,16.347 563.406,18.571 
			565.327,19.715 		"/>
		<path fill="#201E1E" d="M539.06,32.496l-1.997,32.629l19.892-7.996c0,0-11.956-21.788-11.008-23.768
			c0.173-1.377-0.084-4.907-0.084-4.907l-4.734-1.294L539.06,32.496z"/>
		<path fill="#373535" d="M537.939,35.853l-1.05,30.649l17.74-7.567c-0.602-0.775-7.233,1.89-10.071-3.363
			c-1.205-1.55,3.017-7.316,2.588-9.47c-0.685-5.683-3.697-9.559-4.3-10.333c0.173-1.377-0.084-4.907-0.084-4.907l-3.357-1.121
			l-2.242,6.714L537.939,35.853z"/>
		<polygon fill="#AB3235" points="538.887,33.874 553.515,51.1 551.964,52.305 536.561,35.68 		"/>
		<path fill="#ED3237" d="M541.047,12.414c-1.145-3.419-12.464-7.526-12.643-10.683l-1.227,0.703
			c-1.047,3.86,11.499,7.265,12.905,9.719L541.047,12.414z"/>
		<path fill="#373535" d="M557.861,11.87c7.406,3.626,2.033,9.637,0.154,18.438c-1.879,8.801-2.087,9.779-9.912,8.109
			s-13.977-11.164-12.307-18.987c1.253-5.868,7.395-10.691,13.68-11.395C552.62,7.684,555.136,10.266,557.861,11.87z"/>
		<path fill="#201E1E" d="M557.861,11.87c7.406,3.626,2.033,9.637,0.154,18.438c-0.836,3.912-1.461,6.846-2.648,7.615l-0.978-0.209
			c-6.846-1.461-12.23-9.768-10.769-16.614c1.044-4.89,6-8.945,12.285-9.648C556.883,11.661,556.883,11.661,557.861,11.87
			l0.978,0.209L557.861,11.87z"/>
		<path fill="#EEAC95" d="M558.817,27.152c-0.209,0.978-0.494,2.006-0.703,2.984c-0.209,0.978-0.737,2.941-0.946,3.918
			c-2.725-1.604-4.89-1.044-7.197-4.604c-0.561-2.165,0.483-7.055,2.648-7.615c3.912,0.836,3.286,3.769,5.033,5.164l0,0
			L558.817,27.152z"/>
		<path fill="#ED3237" d="M541.796,10.486l20.12,6.341c-0.209,0.978-0.626,2.933-1.044,4.89l-21.45-9.693
			C540.609,11.255,540.818,10.277,541.796,10.486z"/>
		<path fill="#F2BBA1" d="M556.41,33.034c-0.978-0.209-1.956-0.417-2.933-0.626s-1.748-1.395-2.516-2.582
			c-0.769-1.187,0.275-6.076,2.44-6.636c2.934,0.626,3.494,2.791,4.055,4.956l0,0C557.246,29.122,556.619,32.056,556.41,33.034"/>
		
			<ellipse transform="matrix(0.978 0.2087 -0.2087 0.978 18.2224 -115.2728)" fill="#201E1E" cx="555.289" cy="28.704" rx="1" ry="2"/>
		<ellipse fill="#FEFEFE" cx="553.145" cy="15.24" rx="0" ry="0"/>
		<polygon fill="#201E1E" points="554.169,24.375 558.641,27.375 558.433,28.353 553.752,26.331 		"/>
		<path fill="#373535" d="M544.057,29.808c8.839,1.693,13.332-0.501,20.73-7.229l3.552,2.717c-2.528,2.57-5.245,6.122-8.756,8.505
			c-9.55,7.334-16.425,6.018-19.184,4.471c-4.534-2.904-0.083-10.198,3.846-9.445L544.057,29.808z"/>
		<polygon fill="#F2BBA1" points="571.474,24.878 568.339,25.295 564.786,22.578 564.786,22.578 563.993,21.408 564.557,18.462 
			566.71,17.856 571.432,19.778 		"/>
		<path fill="#201E1E" d="M566.563,23.936c-3.323,1.4-6.04,4.952-9.362,6.352l-3.135,0.419c-1.171,0.794-6.08-0.147-9.404,1.254
			c-3.134,0.418-3.887,4.346-5.852,3.971c-1.399-3.323,2.487-7.669,5.434-7.105c8.839,1.693,13.332-0.501,20.73-7.229l1.777,1.358
			L566.563,23.936z"/>
		<polygon fill="#EEAC95" points="564.786,22.578 565.351,19.632 567.503,19.026 571.244,20.76 571.474,24.878 568.339,25.295 		"/>
		<polygon fill="#ED3237" points="537.325,57.463 553.085,48.948 555.321,53.426 537.581,60.993 		"/>
		<polygon fill="#AB3235" points="554.289,50.498 555.321,53.426 537.581,60.993 537.754,59.616 		"/>
		<path fill="#AB3235" d="M540.401,12.234l21.098,6.549c-0.209,0.978-0.417,1.956-0.626,2.933l-21.45-9.692
			c0,0,0.209-0.978,1.187-0.77L540.401,12.234z"/>
		
			<ellipse transform="matrix(-0.1251 0.9921 -0.9921 -0.1251 653.2839 -519.4626)" fill="#FEFEFE" cx="555.684" cy="28.316" rx="0.741" ry="0.445"/>
	</g>
</g>
</svg>
