<?xml version="1.0" encoding="utf-8"?>
<!-- Generator: Adobe Illustrator 17.0.0, SVG Export Plug-In . SVG Version: 6.00 Build 0)  -->
<!DOCTYPE svg PUBLIC "-//W3C//DTD SVG 1.1//EN" "http://www.w3.org/Graphics/SVG/1.1/DTD/svg11.dtd">
<svg version="1.1" id="Capa_1" xmlns="http://www.w3.org/2000/svg" xmlns:xlink="http://www.w3.org/1999/xlink" x="0px" y="0px"
	 width="600px" height="100px" viewBox="0 0 600 100" enable-background="new 0 0 600 100" xml:space="preserve">
<g>
	<g>
		<polygon fill="#201E1E" points="23.593,63.484 22.411,62.706 12.271,72.961 14.633,74.517 24.226,71.522 		"/>
		<polygon fill="#373535" points="41.144,53.492 53.789,58.5 33.744,73.572 24.084,71.408 22.027,64.425 32.305,63.829 		"/>
		<polygon fill="#201E1E" points="23.549,70.563 21.491,63.579 30.925,63.52 41.144,53.492 52.493,54.586 32.983,70.504 		"/>
		<g id="_237398872_1_">
			<path fill="#373535" d="M61.577,34.964c6.436,1.89,11.436,7.086,19.762,2.539l3.838,4.389
				C58.683,52.758,52.01,32.621,61.577,34.964z"/>
			<path fill="#201E1E" d="M83.209,42.246c-15.215,5.787-26.75,3.8-26.022-3.444c-0.354-1.968,1.437-3.307,3.76-1.693
				c5.452,2.067,13.227,5.748,19.762,2.539L83.209,42.246z"/>
			<polygon fill="#F2BBA1" points="80.178,36.695 81.792,34.373 85.906,34.648 87.598,38.408 86.969,40.553 83.209,42.246 			"/>
			<polygon fill="#EEAC95" points="85,40.907 83.209,42.246 80.532,38.664 82.146,36.341 84.114,35.987 82.5,38.309 83.839,40.1 			
				"/>
		</g>
		<path fill="#201E1E" d="M53.172,33.428L38.369,58.446l19.94,3.523c0,0-0.138-23.345,0.669-24.506
			c0.807-1.161,2.244-4.468,2.244-4.468l-3.661-3.405L53.172,33.428z"/>
		<path fill="#373535" d="M51.381,34.766l-10.412,21.18l15.55,7.361c-0.178-0.985-7.421-1.713-7.5-7.795
			c-0.355-1.968,6.18-5.176,6.81-7.322c2.067-5.452,1.181-10.373,1.004-11.357c0.807-1.161,2.244-4.468,2.244-4.468l-2.5-2.598
			l-4.212,4.823L51.381,34.766z"/>
		<polygon fill="#AB3235" points="52.187,33.605 53.871,55.656 51.681,54.78 50.219,33.96 		"/>
		<path fill="#ED3237" d="M53.112,16.167c-3.937,0.708-9.035,0.61-11.633,3.11l-3.13-0.453c2.599-2.5,11.633-3.11,14.586-3.642
			l1.161,0.807L53.112,16.167z"/>
		<path fill="#ED3237" d="M53.112,16.166C50.258,11.6,47.581,8.017,42.66,8.903l0.63-2.146c5.098,0.098,8.129,5.649,10.629,8.247
			L53.112,16.166z"/>
		<path fill="#373535" d="M67.796,7.426c8.051-0.433,6.515,7.972,8.917,15.668c2.579,8.68,2.756,9.664-4.94,12.066
			c-7.696,2.401-17.794-2.894-20.373-11.574c-1.063-5.905,1.81-12.519,7.361-15.55C61.537,6.521,64.844,7.957,67.796,7.426z"/>
		<path fill="#201E1E" d="M67.796,7.427c8.051-0.433,6.515,7.972,8.917,15.668c0.708,3.936,1.24,6.889,1.417,7.873l-0.984,0.177
			c-6.712,2.224-15.826-3.248-17.066-10.137C59.194,16.087,67.796,7.426,67.796,7.427z"/>
		<path fill="#EEAC95" d="M76.175,21.253c0.328,0.941,0.502,1.877,0.841,2.818c0.349,0.969,0.831,2.851,1.008,3.835
			c-3.129-0.453-5.346,0.994-8.653-0.443c-1.161-0.807-3.208-6.534-1.417-7.873c3.76-1.692,4.468,2.244,7.598,2.697l0,0
			L76.175,21.253z"/>
		<path fill="#ED3237" d="M51.846,13.832l21.758-3.663c0.571,0.935,1.128,2.973,1.482,4.941l-24.349,1.378
			C50.559,15.504,51.846,13.832,51.846,13.832z"/>
		<path fill="#AB3235" d="M52.255,16.108l22.598-2.755c0.178,0.985,0.355,1.969,0.532,2.953l-23.941,1.176
			C51.444,17.482,51.271,16.286,52.255,16.108z"/>
		<path fill="#F2BBA1" d="M76.438,27.207c-0.985,0.178-1.969,0.355-2.953,0.532s-1.969,0.354-3.13-0.453s-3.031-5.55-1.24-6.889
			c2.776-1.515,4.291,1.26,6.437,1.89l0,0c0.177,0.984,0.177,0.984,0.354,1.968C76.083,25.239,77.423,27.029,76.438,27.207z"/>
		
			<ellipse transform="matrix(0.9656 -0.26 0.26 0.9656 -3.7211 19.9832)" fill="#201E1E" cx="73.676" cy="24.057" rx="1.193" ry="1.988"/>
		
			<ellipse transform="matrix(0.9656 -0.26 0.26 0.9656 -3.501 19.9984)" fill="#FEFEFE" cx="73.843" cy="23.233" rx="0.445" ry="0.741"/>
		<polygon fill="#201E1E" points="71.261,21.027 75.375,21.303 75.552,22.287 71.438,22.011 		"/>
		<g id="_237349376_1_">
			<path fill="#373535" d="M47.975,38.429c-7.145-5.827-12.243-5.925-21.908-3.169l-1.87-4.744c3.76-1.692,7.519-3.385,11.456-4.094
				c11.811-2.126,16.633,2.086,19.133,4.684c2.854,4.566-4.488,8.936-6.988,6.338L47.975,38.429z"/>
			<polygon fill="#F2BBA1" points="21.262,29.731 24.391,30.184 26.262,34.928 27.246,34.751 26.439,35.912 24.825,38.235 
				21.872,38.766 19.018,34.2 			"/>
			<path fill="#201E1E" d="M25.714,33.29c3.937-0.709,7.696-2.402,11.003-0.965l3.13,0.453c0.984-0.177,5.629,3.051,8.759,3.504
				c3.129,0.453,5.728-2.047,6.889-1.24c-0.453,3.13-5.196,5-7.519,3.386c-7.145-5.827-12.243-5.925-21.908-3.169l-1.339-1.791
				L25.714,33.29z"/>
			<polygon fill="#EEAC95" points="26.5,35.309 24.886,37.631 22.74,37.001 20.063,33.419 21.5,30.112 24.63,30.565 26.5,35.309 
				27.484,35.131 			"/>
		</g>
		<polygon fill="#ED3237" points="41.561,54.062 58.192,53.317 58.27,58.928 40.148,56.566 		"/>
		<polygon fill="#AB3235" points="58.201,55.723 57.873,59 40.03,56.849 40.733,55.651 		"/>
		<polygon fill="#201E1E" points="75.249,79.57 77.477,79.383 85.979,68.35 84.084,67.162 75.023,71.51 72.835,77.528 		"/>
		<polygon fill="#201E1E" points="40.161,57.108 42.228,51.656 65.474,56.615 78.958,69.429 73.309,77.559 63.841,70.118 		"/>
		<polygon fill="#373535" points="78.328,71.575 73.309,77.559 63.841,70.118 39.177,57.285 41.598,53.801 64.845,58.761 		"/>
	</g>
</g>
<g>
	<g>
		<polygon fill="#201E1E" points="123.593,63.484 122.411,62.706 112.271,72.961 114.633,74.517 124.226,71.522 		"/>
		<polygon fill="#373535" points="141.144,53.492 153.789,58.5 133.744,73.572 124.084,71.408 122.027,64.425 132.305,63.829 		"/>
		<polygon fill="#201E1E" points="123.549,70.563 121.491,63.579 130.925,63.52 141.144,53.492 152.493,54.586 132.983,70.504 		"/>
		<g id="_237398872_2_">
			<path fill="#373535" d="M161.577,34.964c6.436,1.89,11.436,7.086,19.762,2.539l3.838,4.389
				C158.683,52.758,152.01,32.621,161.577,34.964z"/>
			<path fill="#201E1E" d="M183.209,42.246c-15.215,5.787-26.75,3.8-26.022-3.444c-0.354-1.968,1.437-3.307,3.76-1.693
				c5.452,2.067,13.227,5.748,19.762,2.539L183.209,42.246z"/>
			<polygon fill="#F2BBA1" points="180.178,36.695 181.792,34.373 185.906,34.648 187.598,38.408 186.969,40.553 183.209,42.246 			
				"/>
			<polygon fill="#EEAC95" points="185,40.907 183.209,42.246 180.532,38.664 182.146,36.341 184.114,35.987 182.5,38.309 
				183.839,40.1 			"/>
		</g>
		<path fill="#201E1E" d="M153.172,33.428l-14.803,25.018l19.94,3.523c0,0-0.138-23.345,0.669-24.506s2.244-4.468,2.244-4.468
			l-3.661-3.405L153.172,33.428z"/>
		<path fill="#373535" d="M151.381,34.766l-10.412,21.18l15.55,7.361c-0.178-0.985-7.421-1.713-7.5-7.795
			c-0.355-1.968,6.18-5.176,6.81-7.322c2.067-5.452,1.181-10.373,1.004-11.357c0.807-1.161,2.244-4.468,2.244-4.468l-2.5-2.598
			l-4.212,4.823L151.381,34.766z"/>
		<polygon fill="#AB3235" points="152.187,33.605 153.871,55.656 151.681,54.78 150.219,33.96 		"/>
		<path fill="#ED3237" d="M153.112,16.167c-3.937,0.708-9.035,0.61-11.633,3.11l-3.13-0.453c2.599-2.5,11.633-3.11,14.586-3.642
			l1.161,0.807L153.112,16.167z"/>
		<path fill="#ED3237" d="M153.112,16.166c-2.854-4.566-5.531-8.149-10.452-7.263l0.63-2.146c5.098,0.098,8.129,5.649,10.629,8.247
			L153.112,16.166z"/>
		<path fill="#373535" d="M167.796,7.426c8.051-0.433,6.515,7.972,8.917,15.668c2.579,8.68,2.756,9.664-4.94,12.066
			c-7.696,2.401-17.794-2.894-20.373-11.574c-1.063-5.905,1.81-12.519,7.361-15.55C161.537,6.521,164.844,7.957,167.796,7.426z"/>
		<path fill="#201E1E" d="M167.796,7.427c8.051-0.433,6.515,7.972,8.917,15.668c0.708,3.936,1.24,6.889,1.417,7.873l-0.984,0.177
			c-6.712,2.224-15.826-3.248-17.066-10.137C159.194,16.087,167.796,7.426,167.796,7.427z"/>
		<path fill="#EEAC95" d="M176.175,21.253c0.328,0.941,0.502,1.877,0.841,2.818c0.349,0.969,0.831,2.851,1.008,3.835
			c-3.129-0.453-5.346,0.994-8.653-0.443c-1.161-0.807-3.208-6.534-1.417-7.873c3.76-1.692,4.468,2.244,7.598,2.697l0,0
			L176.175,21.253z"/>
		<path fill="#ED3237" d="M151.846,13.832l21.758-3.663c0.571,0.935,1.128,2.973,1.482,4.941l-24.349,1.378
			C150.559,15.504,151.846,13.832,151.846,13.832z"/>
		<path fill="#AB3235" d="M152.255,16.108l22.598-2.755c0.178,0.985,0.355,1.969,0.532,2.953l-23.941,1.176
			C151.444,17.482,151.271,16.286,152.255,16.108z"/>
		<path fill="#F2BBA1" d="M176.438,27.207c-0.985,0.178-1.969,0.355-2.953,0.532s-1.969,0.354-3.13-0.453s-3.031-5.55-1.24-6.889
			c2.776-1.515,4.291,1.26,6.437,1.89l0,0c0.177,0.984,0.177,0.984,0.354,1.968C176.083,25.239,177.423,27.029,176.438,27.207z"/>
		
			<ellipse transform="matrix(0.9656 -0.26 0.26 0.9656 -0.2819 45.9835)" fill="#201E1E" cx="173.676" cy="24.057" rx="1.193" ry="1.988"/>
		
			<ellipse transform="matrix(0.9656 -0.26 0.26 0.9656 -0.0618 45.9986)" fill="#FEFEFE" cx="173.843" cy="23.233" rx="0.445" ry="0.741"/>
		<polygon fill="#201E1E" points="171.261,21.027 175.375,21.303 175.552,22.287 171.438,22.011 		"/>
		<g id="_237349376_2_">
			<path fill="#373535" d="M147.975,38.429c-7.145-5.827-12.243-5.925-21.908-3.169l-1.87-4.744
				c3.76-1.692,7.519-3.385,11.456-4.094c11.811-2.126,16.633,2.086,19.133,4.684c2.854,4.566-4.488,8.936-6.988,6.338
				L147.975,38.429z"/>
			<polygon fill="#F2BBA1" points="121.262,29.731 124.391,30.184 126.262,34.928 127.246,34.751 126.439,35.912 124.825,38.235 
				121.872,38.766 119.018,34.2 			"/>
			<path fill="#201E1E" d="M125.714,33.29c3.937-0.709,7.696-2.402,11.003-0.965l3.13,0.453c0.984-0.177,5.629,3.051,8.759,3.504
				c3.129,0.453,5.728-2.047,6.889-1.24c-0.453,3.13-5.196,5-7.519,3.386c-7.145-5.827-12.243-5.925-21.908-3.169l-1.339-1.791
				L125.714,33.29z"/>
			<polygon fill="#EEAC95" points="126.5,35.309 124.886,37.631 122.74,37.001 120.063,33.419 121.5,30.112 124.63,30.565 
				126.5,35.309 127.484,35.131 			"/>
		</g>
		<polygon fill="#ED3237" points="141.561,54.062 158.192,53.317 158.27,58.928 140.148,56.566 		"/>
		<polygon fill="#AB3235" points="158.201,55.723 157.873,59 140.03,56.849 140.733,55.651 		"/>
		<polygon fill="#201E1E" points="175.249,79.57 177.477,79.383 185.979,68.35 184.084,67.162 175.023,71.51 172.835,77.528 		"/>
		<polygon fill="#201E1E" points="140.161,57.108 142.228,51.656 165.474,56.615 178.958,69.429 173.309,77.559 163.841,70.118 		
			"/>
		<polygon fill="#373535" points="178.328,71.575 173.309,77.559 163.841,70.118 139.177,57.285 141.598,53.801 164.845,58.761 		
			"/>
	</g>
</g>
<g>
	<g>
		<polygon fill="#201E1E" points="223.593,63.484 222.411,62.706 212.271,72.961 214.633,74.517 224.226,71.522 		"/>
		<polygon fill="#373535" points="241.144,53.492 253.789,58.5 233.744,73.572 224.084,71.408 222.027,64.425 232.305,63.829 		"/>
		<polygon fill="#201E1E" points="223.549,70.563 221.491,63.579 230.925,63.52 241.144,53.492 252.493,54.586 232.983,70.504 		"/>
		<g id="_237398872_3_">
			<path fill="#373535" d="M261.577,34.964c6.436,1.89,11.436,7.086,19.762,2.539l3.838,4.389
				C258.683,52.758,252.01,32.621,261.577,34.964z"/>
			<path fill="#201E1E" d="M283.209,42.246c-15.215,5.787-26.75,3.8-26.022-3.444c-0.354-1.968,1.437-3.307,3.76-1.693
				c5.452,2.067,13.227,5.748,19.762,2.539L283.209,42.246z"/>
			<polygon fill="#F2BBA1" points="280.178,36.695 281.792,34.373 285.906,34.648 287.598,38.408 286.969,40.553 283.209,42.246 			
				"/>
			<polygon fill="#EEAC95" points="285,40.907 283.209,42.246 280.532,38.664 282.146,36.341 284.114,35.987 282.5,38.309 
				283.839,40.1 			"/>
		</g>
		<path fill="#201E1E" d="M253.172,33.428l-14.803,25.018l19.94,3.523c0,0-0.138-23.345,0.669-24.506s2.244-4.468,2.244-4.468
			l-3.661-3.405L253.172,33.428z"/>
		<path fill="#373535" d="M251.381,34.766l-10.412,21.18l15.55,7.361c-0.178-0.985-7.421-1.713-7.5-7.795
			c-0.355-1.968,6.18-5.176,6.81-7.322c2.067-5.452,1.181-10.373,1.004-11.357c0.807-1.161,2.244-4.468,2.244-4.468l-2.5-2.598
			l-4.212,4.823L251.381,34.766z"/>
		<polygon fill="#AB3235" points="252.187,33.605 253.871,55.656 251.681,54.78 250.219,33.96 		"/>
		<path fill="#ED3237" d="M253.112,16.167c-3.937,0.708-9.035,0.61-11.633,3.11l-3.13-0.453c2.599-2.5,11.633-3.11,14.586-3.642
			l1.161,0.807L253.112,16.167z"/>
		<path fill="#ED3237" d="M253.112,16.166c-2.854-4.566-5.531-8.149-10.452-7.263l0.63-2.146c5.098,0.098,8.129,5.649,10.629,8.247
			L253.112,16.166z"/>
		<path fill="#373535" d="M267.796,7.426c8.051-0.433,6.515,7.972,8.917,15.668c2.579,8.68,2.756,9.664-4.94,12.066
			c-7.696,2.401-17.794-2.894-20.373-11.574c-1.063-5.905,1.81-12.519,7.361-15.55C261.537,6.521,264.844,7.957,267.796,7.426z"/>
		<path fill="#201E1E" d="M267.796,7.427c8.051-0.433,6.515,7.972,8.917,15.668c0.708,3.936,1.24,6.889,1.417,7.873l-0.984,0.177
			c-6.712,2.224-15.826-3.248-17.066-10.137C259.194,16.087,267.796,7.426,267.796,7.427z"/>
		<path fill="#EEAC95" d="M276.175,21.253c0.328,0.941,0.502,1.877,0.841,2.818c0.349,0.969,0.831,2.851,1.008,3.835
			c-3.129-0.453-5.346,0.994-8.653-0.443c-1.161-0.807-3.208-6.534-1.417-7.873c3.76-1.692,4.468,2.244,7.598,2.697l0,0
			L276.175,21.253z"/>
		<path fill="#ED3237" d="M251.846,13.832l21.758-3.663c0.571,0.935,1.128,2.973,1.482,4.941l-24.349,1.378
			C250.559,15.504,251.846,13.832,251.846,13.832z"/>
		<path fill="#AB3235" d="M252.255,16.108l22.598-2.755c0.178,0.985,0.355,1.969,0.532,2.953l-23.941,1.176
			C251.444,17.482,251.271,16.286,252.255,16.108z"/>
		<path fill="#F2BBA1" d="M276.438,27.207c-0.985,0.178-1.969,0.355-2.953,0.532s-1.969,0.354-3.13-0.453s-3.031-5.55-1.24-6.889
			c2.776-1.515,4.291,1.26,6.437,1.89l0,0c0.177,0.984,0.177,0.984,0.354,1.968C276.083,25.239,277.423,27.029,276.438,27.207z"/>
		
			<ellipse transform="matrix(0.9656 -0.26 0.26 0.9656 3.1573 71.9837)" fill="#201E1E" cx="273.676" cy="24.057" rx="1.193" ry="1.988"/>
		
			<ellipse transform="matrix(0.9656 -0.26 0.26 0.9656 3.3774 71.9988)" fill="#FEFEFE" cx="273.843" cy="23.233" rx="0.445" ry="0.741"/>
		<polygon fill="#201E1E" points="271.261,21.027 275.375,21.303 275.552,22.287 271.438,22.011 		"/>
		<g id="_237349376_3_">
			<path fill="#373535" d="M247.975,38.429c-7.145-5.827-12.243-5.925-21.908-3.169l-1.87-4.744
				c3.76-1.692,7.519-3.385,11.456-4.094c11.811-2.126,16.633,2.086,19.133,4.684c2.854,4.566-4.488,8.936-6.988,6.338
				L247.975,38.429z"/>
			<polygon fill="#F2BBA1" points="221.262,29.731 224.391,30.184 226.262,34.928 227.246,34.751 226.439,35.912 224.825,38.235 
				221.872,38.766 219.018,34.2 			"/>
			<path fill="#201E1E" d="M225.714,33.29c3.937-0.709,7.696-2.402,11.003-0.965l3.13,0.453c0.984-0.177,5.629,3.051,8.759,3.504
				c3.129,0.453,5.728-2.047,6.889-1.24c-0.453,3.13-5.196,5-7.519,3.386c-7.145-5.827-12.243-5.925-21.908-3.169l-1.339-1.791
				L225.714,33.29z"/>
			<polygon fill="#EEAC95" points="226.5,35.309 224.886,37.631 222.74,37.001 220.063,33.419 221.5,30.112 224.63,30.565 
				226.5,35.309 227.484,35.131 			"/>
		</g>
		<polygon fill="#ED3237" points="241.561,54.062 258.192,53.317 258.27,58.928 240.148,56.566 		"/>
		<polygon fill="#AB3235" points="258.201,55.723 257.873,59 240.03,56.849 240.733,55.651 		"/>
		<polygon fill="#201E1E" points="275.249,79.57 277.477,79.383 285.979,68.35 284.084,67.162 275.023,71.51 272.835,77.528 		"/>
		<polygon fill="#201E1E" points="240.161,57.108 242.228,51.656 265.474,56.615 278.958,69.429 273.309,77.559 263.841,70.118 		
			"/>
		<polygon fill="#373535" points="278.328,71.575 273.309,77.559 263.841,70.118 239.177,57.285 241.598,53.801 264.845,58.761 		
			"/>
	</g>
</g>
<g>
	<g>
		<polygon fill="#201E1E" points="323.593,63.484 322.411,62.706 312.271,72.961 314.633,74.517 324.226,71.522 		"/>
		<polygon fill="#373535" points="341.144,53.492 353.789,58.5 333.744,73.572 324.084,71.408 322.027,64.425 332.305,63.829 		"/>
		<polygon fill="#201E1E" points="323.549,70.563 321.491,63.579 330.925,63.52 341.144,53.492 352.493,54.586 332.983,70.504 		"/>
		<g id="_237398872_4_">
			<path fill="#373535" d="M361.577,34.964c6.436,1.89,11.436,7.086,19.762,2.539l3.838,4.389
				C358.683,52.758,352.01,32.621,361.577,34.964z"/>
			<path fill="#201E1E" d="M383.209,42.246c-15.215,5.787-26.75,3.8-26.022-3.444c-0.354-1.968,1.437-3.307,3.76-1.693
				c5.452,2.067,13.227,5.748,19.762,2.539L383.209,42.246z"/>
			<polygon fill="#F2BBA1" points="380.178,36.695 381.792,34.373 385.906,34.648 387.598,38.408 386.969,40.553 383.209,42.246 			
				"/>
			<polygon fill="#EEAC95" points="385,40.907 383.209,42.246 380.532,38.664 382.146,36.341 384.114,35.987 382.5,38.309 
				383.839,40.1 			"/>
		</g>
		<path fill="#201E1E" d="M353.172,33.428l-14.803,25.018l19.94,3.523c0,0-0.138-23.345,0.669-24.506s2.244-4.468,2.244-4.468
			l-3.661-3.405L353.172,33.428z"/>
		<path fill="#373535" d="M351.381,34.766l-10.412,21.18l15.55,7.361c-0.178-0.985-7.421-1.713-7.5-7.795
			c-0.355-1.968,6.18-5.176,6.81-7.322c2.067-5.452,1.181-10.373,1.004-11.357c0.807-1.161,2.244-4.468,2.244-4.468l-2.5-2.598
			l-4.212,4.823L351.381,34.766z"/>
		<polygon fill="#AB3235" points="352.187,33.605 353.871,55.656 351.681,54.78 350.219,33.96 		"/>
		<path fill="#ED3237" d="M353.112,16.167c-3.937,0.708-9.035,0.61-11.633,3.11l-3.13-0.453c2.599-2.5,11.633-3.11,14.586-3.642
			l1.161,0.807L353.112,16.167z"/>
		<path fill="#ED3237" d="M353.112,16.166c-2.854-4.566-5.531-8.149-10.452-7.263l0.63-2.146c5.098,0.098,8.129,5.649,10.629,8.247
			L353.112,16.166z"/>
		<path fill="#373535" d="M367.796,7.426c8.051-0.433,6.515,7.972,8.917,15.668c2.579,8.68,2.756,9.664-4.94,12.066
			c-7.696,2.401-17.794-2.894-20.373-11.574c-1.063-5.905,1.81-12.519,7.361-15.55C361.537,6.521,364.844,7.957,367.796,7.426z"/>
		<path fill="#201E1E" d="M367.796,7.427c8.051-0.433,6.515,7.972,8.917,15.668c0.708,3.936,1.24,6.889,1.417,7.873l-0.984,0.177
			c-6.712,2.224-15.826-3.248-17.066-10.137C359.194,16.087,367.796,7.426,367.796,7.427z"/>
		<path fill="#EEAC95" d="M376.175,21.253c0.328,0.941,0.502,1.877,0.841,2.818c0.349,0.969,0.831,2.851,1.008,3.835
			c-3.129-0.453-5.346,0.994-8.653-0.443c-1.161-0.807-3.208-6.534-1.417-7.873c3.76-1.692,4.468,2.244,7.598,2.697l0,0
			L376.175,21.253z"/>
		<path fill="#ED3237" d="M351.846,13.832l21.758-3.663c0.571,0.935,1.128,2.973,1.482,4.941l-24.349,1.378
			C350.559,15.504,351.846,13.832,351.846,13.832z"/>
		<path fill="#AB3235" d="M352.255,16.108l22.598-2.755c0.178,0.985,0.355,1.969,0.532,2.953l-23.941,1.176
			C351.444,17.482,351.271,16.286,352.255,16.108z"/>
		<path fill="#F2BBA1" d="M376.438,27.207c-0.985,0.178-1.969,0.355-2.953,0.532s-1.969,0.354-3.13-0.453s-3.031-5.55-1.24-6.889
			c2.776-1.515,4.291,1.26,6.437,1.89l0,0c0.177,0.984,0.177,0.984,0.354,1.968C376.083,25.239,377.423,27.029,376.438,27.207z"/>
		
			<ellipse transform="matrix(0.9656 -0.26 0.26 0.9656 6.5965 97.9839)" fill="#201E1E" cx="373.676" cy="24.057" rx="1.193" ry="1.988"/>
		
			<ellipse transform="matrix(0.9656 -0.26 0.26 0.9656 6.8166 97.999)" fill="#FEFEFE" cx="373.843" cy="23.233" rx="0.445" ry="0.741"/>
		<polygon fill="#201E1E" points="371.261,21.027 375.375,21.303 375.552,22.287 371.438,22.011 		"/>
		<g id="_237349376_4_">
			<path fill="#373535" d="M347.975,38.429c-7.145-5.827-12.243-5.925-21.908-3.169l-1.87-4.744
				c3.76-1.692,7.519-3.385,11.456-4.094c11.811-2.126,16.633,2.086,19.133,4.684c2.854,4.566-4.488,8.936-6.988,6.338
				L347.975,38.429z"/>
			<polygon fill="#F2BBA1" points="321.262,29.731 324.391,30.184 326.262,34.928 327.246,34.751 326.439,35.912 324.825,38.235 
				321.872,38.766 319.018,34.2 			"/>
			<path fill="#201E1E" d="M325.714,33.29c3.937-0.709,7.696-2.402,11.003-0.965l3.13,0.453c0.984-0.177,5.629,3.051,8.759,3.504
				c3.129,0.453,5.728-2.047,6.889-1.24c-0.453,3.13-5.196,5-7.519,3.386c-7.145-5.827-12.243-5.925-21.908-3.169l-1.339-1.791
				L325.714,33.29z"/>
			<polygon fill="#EEAC95" points="326.5,35.309 324.886,37.631 322.74,37.001 320.063,33.419 321.5,30.112 324.63,30.565 
				326.5,35.309 327.484,35.131 			"/>
		</g>
		<polygon fill="#ED3237" points="341.561,54.062 358.192,53.317 358.27,58.928 340.148,56.566 		"/>
		<polygon fill="#AB3235" points="358.201,55.723 357.873,59 340.03,56.849 340.733,55.651 		"/>
		<polygon fill="#201E1E" points="375.249,79.57 377.477,79.383 385.979,68.35 384.084,67.162 375.023,71.51 372.835,77.528 		"/>
		<polygon fill="#201E1E" points="340.161,57.108 342.228,51.656 365.474,56.615 378.958,69.429 373.309,77.559 363.841,70.118 		
			"/>
		<polygon fill="#373535" points="378.328,71.575 373.309,77.559 363.841,70.118 339.177,57.285 341.598,53.801 364.845,58.761 		
			"/>
	</g>
</g>
<g>
	<g>
		<polygon fill="#201E1E" points="423.593,63.484 422.411,62.706 412.271,72.961 414.633,74.517 424.226,71.522 		"/>
		<polygon fill="#373535" points="441.144,53.492 453.789,58.5 433.744,73.572 424.084,71.408 422.027,64.425 432.305,63.829 		"/>
		<polygon fill="#201E1E" points="423.549,70.563 421.491,63.579 430.925,63.52 441.144,53.492 452.493,54.586 432.983,70.504 		"/>
		<g id="_237398872_5_">
			<path fill="#373535" d="M461.577,34.964c6.436,1.89,11.436,7.086,19.762,2.539l3.838,4.389
				C458.683,52.758,452.01,32.621,461.577,34.964z"/>
			<path fill="#201E1E" d="M483.209,42.246c-15.215,5.787-26.75,3.8-26.022-3.444c-0.354-1.968,1.437-3.307,3.76-1.693
				c5.452,2.067,13.227,5.748,19.762,2.539L483.209,42.246z"/>
			<polygon fill="#F2BBA1" points="480.178,36.695 481.792,34.373 485.906,34.648 487.598,38.408 486.969,40.553 483.209,42.246 			
				"/>
			<polygon fill="#EEAC95" points="485,40.907 483.209,42.246 480.532,38.664 482.146,36.341 484.114,35.987 482.5,38.309 
				483.839,40.1 			"/>
		</g>
		<path fill="#201E1E" d="M453.172,33.428l-14.803,25.018l19.94,3.523c0,0-0.138-23.345,0.669-24.506s2.244-4.468,2.244-4.468
			l-3.661-3.405L453.172,33.428z"/>
		<path fill="#373535" d="M451.381,34.766l-10.412,21.18l15.55,7.361c-0.178-0.985-7.421-1.713-7.5-7.795
			c-0.355-1.968,6.18-5.176,6.81-7.322c2.067-5.452,1.181-10.373,1.004-11.357c0.807-1.161,2.244-4.468,2.244-4.468l-2.5-2.598
			l-4.212,4.823L451.381,34.766z"/>
		<polygon fill="#AB3235" points="452.187,33.605 453.871,55.656 451.681,54.78 450.219,33.96 		"/>
		<path fill="#ED3237" d="M453.112,16.167c-3.937,0.708-9.035,0.61-11.633,3.11l-3.13-0.453c2.599-2.5,11.633-3.11,14.586-3.642
			l1.161,0.807L453.112,16.167z"/>
		<path fill="#ED3237" d="M453.112,16.166c-2.854-4.566-5.531-8.149-10.452-7.263l0.63-2.146c5.098,0.098,8.129,5.649,10.629,8.247
			L453.112,16.166z"/>
		<path fill="#373535" d="M467.796,7.426c8.051-0.433,6.515,7.972,8.917,15.668c2.579,8.68,2.756,9.664-4.94,12.066
			c-7.696,2.401-17.794-2.894-20.373-11.574c-1.063-5.905,1.81-12.519,7.361-15.55C461.537,6.521,464.844,7.957,467.796,7.426z"/>
		<path fill="#201E1E" d="M467.796,7.427c8.051-0.433,6.515,7.972,8.917,15.668c0.708,3.936,1.24,6.889,1.417,7.873l-0.984,0.177
			c-6.712,2.224-15.826-3.248-17.066-10.137C459.194,16.087,467.796,7.426,467.796,7.427z"/>
		<path fill="#EEAC95" d="M476.175,21.253c0.328,0.941,0.502,1.877,0.841,2.818c0.349,0.969,0.831,2.851,1.008,3.835
			c-3.129-0.453-5.346,0.994-8.653-0.443c-1.161-0.807-3.208-6.534-1.417-7.873c3.76-1.692,4.468,2.244,7.598,2.697l0,0
			L476.175,21.253z"/>
		<path fill="#ED3237" d="M451.846,13.832l21.758-3.663c0.571,0.935,1.128,2.973,1.482,4.941l-24.349,1.378
			C450.559,15.504,451.846,13.832,451.846,13.832z"/>
		<path fill="#AB3235" d="M452.255,16.108l22.598-2.755c0.178,0.985,0.355,1.969,0.532,2.953l-23.941,1.176
			C451.444,17.482,451.271,16.286,452.255,16.108z"/>
		<path fill="#F2BBA1" d="M476.438,27.207c-0.985,0.178-1.969,0.355-2.953,0.532s-1.969,0.354-3.13-0.453s-3.031-5.55-1.24-6.889
			c2.776-1.515,4.291,1.26,6.437,1.89l0,0c0.177,0.984,0.177,0.984,0.354,1.968C476.083,25.239,477.423,27.029,476.438,27.207z"/>
		
			<ellipse transform="matrix(0.9656 -0.26 0.26 0.9656 10.0357 123.9841)" fill="#201E1E" cx="473.676" cy="24.057" rx="1.193" ry="1.988"/>
		
			<ellipse transform="matrix(0.9656 -0.26 0.26 0.9656 10.2558 123.9992)" fill="#FEFEFE" cx="473.843" cy="23.233" rx="0.445" ry="0.741"/>
		<polygon fill="#201E1E" points="471.261,21.027 475.375,21.303 475.552,22.287 471.438,22.011 		"/>
		<g id="_237349376_5_">
			<path fill="#373535" d="M447.975,38.429c-7.145-5.827-12.243-5.925-21.908-3.169l-1.87-4.744
				c3.76-1.692,7.519-3.385,11.456-4.094c11.811-2.126,16.633,2.086,19.133,4.684c2.854,4.566-4.488,8.936-6.988,6.338
				L447.975,38.429z"/>
			<polygon fill="#F2BBA1" points="421.262,29.731 424.391,30.184 426.262,34.928 427.246,34.751 426.439,35.912 424.825,38.235 
				421.872,38.766 419.018,34.2 			"/>
			<path fill="#201E1E" d="M425.714,33.29c3.937-0.709,7.696-2.402,11.003-0.965l3.13,0.453c0.984-0.177,5.629,3.051,8.759,3.504
				c3.129,0.453,5.728-2.047,6.889-1.24c-0.453,3.13-5.196,5-7.519,3.386c-7.145-5.827-12.243-5.925-21.908-3.169l-1.339-1.791
				L425.714,33.29z"/>
			<polygon fill="#EEAC95" points="426.5,35.309 424.886,37.631 422.74,37.001 420.063,33.419 421.5,30.112 424.63,30.565 
				426.5,35.309 427.484,35.131 			"/>
		</g>
		<polygon fill="#ED3237" points="441.561,54.062 458.192,53.317 458.27,58.928 440.148,56.566 		"/>
		<polygon fill="#AB3235" points="458.201,55.723 457.873,59 440.03,56.849 440.733,55.651 		"/>
		<polygon fill="#201E1E" points="475.249,79.57 477.477,79.383 485.979,68.35 484.084,67.162 475.023,71.51 472.835,77.528 		"/>
		<polygon fill="#201E1E" points="440.161,57.108 442.228,51.656 465.474,56.615 478.958,69.429 473.309,77.559 463.841,70.118 		
			"/>
		<polygon fill="#373535" points="478.328,71.575 473.309,77.559 463.841,70.118 439.177,57.285 441.598,53.801 464.845,58.761 		
			"/>
	</g>
</g>
<g>
	<g>
		<polygon fill="#201E1E" points="523.593,63.484 522.411,62.706 512.271,72.961 514.633,74.517 524.226,71.522 		"/>
		<polygon fill="#373535" points="541.144,53.492 553.789,58.5 533.744,73.572 524.084,71.408 522.027,64.425 532.305,63.829 		"/>
		<polygon fill="#201E1E" points="523.549,70.563 521.491,63.579 530.925,63.52 541.144,53.492 552.493,54.586 532.983,70.504 		"/>
		<g id="_237398872_6_">
			<path fill="#373535" d="M561.577,34.964c6.436,1.89,11.436,7.086,19.762,2.539l3.838,4.389
				C558.683,52.758,552.01,32.621,561.577,34.964z"/>
			<path fill="#201E1E" d="M583.209,42.246c-15.215,5.787-26.75,3.8-26.022-3.444c-0.354-1.968,1.437-3.307,3.76-1.693
				c5.452,2.067,13.227,5.748,19.762,2.539L583.209,42.246z"/>
			<polygon fill="#F2BBA1" points="580.178,36.695 581.792,34.373 585.906,34.648 587.598,38.408 586.969,40.553 583.209,42.246 			
				"/>
			<polygon fill="#EEAC95" points="585,40.907 583.209,42.246 580.532,38.664 582.146,36.341 584.114,35.987 582.5,38.309 
				583.839,40.1 			"/>
		</g>
		<path fill="#201E1E" d="M553.172,33.428l-14.803,25.018l19.94,3.523c0,0-0.138-23.345,0.669-24.506s2.244-4.468,2.244-4.468
			l-3.661-3.405L553.172,33.428z"/>
		<path fill="#373535" d="M551.381,34.766l-10.412,21.18l15.55,7.361c-0.178-0.985-7.421-1.713-7.5-7.795
			c-0.355-1.968,6.18-5.176,6.81-7.322c2.067-5.452,1.181-10.373,1.004-11.357c0.807-1.161,2.244-4.468,2.244-4.468l-2.5-2.598
			l-4.212,4.823L551.381,34.766z"/>
		<polygon fill="#AB3235" points="552.187,33.605 553.871,55.656 551.681,54.78 550.219,33.96 		"/>
		<path fill="#ED3237" d="M553.112,16.167c-3.937,0.708-9.035,0.61-11.633,3.11l-3.13-0.453c2.599-2.5,11.633-3.11,14.586-3.642
			l1.161,0.807L553.112,16.167z"/>
		<path fill="#ED3237" d="M553.112,16.166c-2.854-4.566-5.531-8.149-10.452-7.263l0.63-2.146c5.098,0.098,8.129,5.649,10.629,8.247
			L553.112,16.166z"/>
		<path fill="#373535" d="M567.796,7.426c8.051-0.433,6.515,7.972,8.917,15.668c2.579,8.68,2.756,9.664-4.94,12.066
			c-7.696,2.401-17.794-2.894-20.373-11.574c-1.063-5.905,1.81-12.519,7.361-15.55C561.537,6.521,564.844,7.957,567.796,7.426z"/>
		<path fill="#201E1E" d="M567.796,7.427c8.051-0.433,6.515,7.972,8.917,15.668c0.708,3.936,1.24,6.889,1.417,7.873l-0.984,0.177
			c-6.712,2.224-15.826-3.248-17.066-10.137C559.194,16.087,567.796,7.426,567.796,7.427z"/>
		<path fill="#EEAC95" d="M576.175,21.253c0.328,0.941,0.502,1.877,0.841,2.818c0.349,0.969,0.831,2.851,1.008,3.835
			c-3.129-0.453-5.346,0.994-8.653-0.443c-1.161-0.807-3.208-6.534-1.417-7.873c3.76-1.692,4.468,2.244,7.598,2.697l0,0
			L576.175,21.253z"/>
		<path fill="#ED3237" d="M551.846,13.832l21.758-3.663c0.571,0.935,1.128,2.973,1.482,4.941l-24.349,1.378
			C550.559,15.504,551.846,13.832,551.846,13.832z"/>
		<path fill="#AB3235" d="M552.255,16.108l22.598-2.755c0.178,0.985,0.355,1.969,0.532,2.953l-23.941,1.176
			C551.444,17.482,551.271,16.286,552.255,16.108z"/>
		<path fill="#F2BBA1" d="M576.438,27.207c-0.985,0.178-1.969,0.355-2.953,0.532s-1.969,0.354-3.13-0.453s-3.031-5.55-1.24-6.889
			c2.776-1.515,4.291,1.26,6.437,1.89l0,0c0.177,0.984,0.177,0.984,0.354,1.968C576.083,25.239,577.423,27.029,576.438,27.207z"/>
		
			<ellipse transform="matrix(0.9656 -0.26 0.26 0.9656 13.4749 149.9843)" fill="#201E1E" cx="573.676" cy="24.057" rx="1.193" ry="1.988"/>
		
			<ellipse transform="matrix(0.9656 -0.26 0.26 0.9656 13.695 149.9995)" fill="#FEFEFE" cx="573.843" cy="23.233" rx="0.445" ry="0.741"/>
		<polygon fill="#201E1E" points="571.261,21.027 575.375,21.303 575.552,22.287 571.438,22.011 		"/>
		<g id="_237349376_6_">
			<path fill="#373535" d="M547.975,38.429c-7.145-5.827-12.243-5.925-21.908-3.169l-1.87-4.744
				c3.76-1.692,7.519-3.385,11.456-4.094c11.811-2.126,16.633,2.086,19.133,4.684c2.854,4.566-4.488,8.936-6.988,6.338
				L547.975,38.429z"/>
			<polygon fill="#F2BBA1" points="521.262,29.731 524.391,30.184 526.262,34.928 527.246,34.751 526.439,35.912 524.825,38.235 
				521.872,38.766 519.018,34.2 			"/>
			<path fill="#201E1E" d="M525.714,33.29c3.937-0.709,7.696-2.402,11.003-0.965l3.13,0.453c0.984-0.177,5.629,3.051,8.759,3.504
				c3.129,0.453,5.728-2.047,6.889-1.24c-0.453,3.13-5.196,5-7.519,3.386c-7.145-5.827-12.243-5.925-21.908-3.169l-1.339-1.791
				L525.714,33.29z"/>
			<polygon fill="#EEAC95" points="526.5,35.309 524.886,37.631 522.74,37.001 520.063,33.419 521.5,30.112 524.63,30.565 
				526.5,35.309 527.484,35.131 			"/>
		</g>
		<polygon fill="#ED3237" points="541.561,54.062 558.192,53.317 558.27,58.928 540.148,56.566 		"/>
		<polygon fill="#AB3235" points="558.201,55.723 557.873,59 540.03,56.849 540.733,55.651 		"/>
		<polygon fill="#201E1E" points="575.249,79.57 577.477,79.383 585.979,68.35 584.084,67.162 575.023,71.51 572.835,77.528 		"/>
		<polygon fill="#201E1E" points="540.161,57.108 542.228,51.656 565.474,56.615 578.958,69.429 573.309,77.559 563.841,70.118 		
			"/>
		<polygon fill="#373535" points="578.328,71.575 573.309,77.559 563.841,70.118 539.177,57.285 541.598,53.801 564.845,58.761 		
			"/>
	</g>
</g>
<g id="Capa_2">
	<rect fill="none" width="600" height="100"/>
</g>
</svg>
