<?xml version="1.0" encoding="utf-8"?>
<!-- Generator: Adobe Illustrator 17.0.0, SVG Export Plug-In . SVG Version: 6.00 Build 0)  -->
<!DOCTYPE svg PUBLIC "-//W3C//DTD SVG 1.1//EN" "http://www.w3.org/Graphics/SVG/1.1/DTD/svg11.dtd">
<svg version="1.1" id="Capa_1" xmlns="http://www.w3.org/2000/svg" xmlns:xlink="http://www.w3.org/1999/xlink" x="0px" y="0px"
	 width="600px" height="100px" viewBox="0 0 600 100" enable-background="new 0 0 600 100" xml:space="preserve">
<g>
	<g>
		<polygon fill="#201E1E" points="575.774,71.522 585.367,74.517 587.729,72.961 577.589,62.706 576.407,63.484 		"/>
		<polygon fill="#373535" points="567.695,63.829 577.973,64.425 575.916,71.408 566.256,73.572 546.211,58.5 558.856,53.492 		"/>
		<polygon fill="#201E1E" points="567.017,70.504 547.507,54.586 558.856,53.492 569.075,63.52 578.509,63.579 576.451,70.563 		"/>
		<g id="_237398872_12_">
			<path fill="#373535" d="M514.823,41.892l3.838-4.389c8.326,4.547,13.326-0.649,19.762-2.539
				C547.99,32.621,541.317,52.758,514.823,41.892z"/>
			<path fill="#201E1E" d="M519.291,39.648c6.535,3.209,14.31-0.472,19.762-2.539c2.323-1.614,4.114-0.275,3.76,1.693
				c0.728,7.244-10.807,9.231-26.022,3.444L519.291,39.648z"/>
			<polygon fill="#F2BBA1" points="516.791,42.246 513.031,40.553 512.402,38.408 514.094,34.648 518.208,34.373 519.822,36.695 			
				"/>
			<polygon fill="#EEAC95" points="516.161,40.1 517.5,38.309 515.886,35.987 517.854,36.341 519.468,38.664 516.791,42.246 
				515,40.907 			"/>
		</g>
		<path fill="#201E1E" d="M542.439,29.59l-3.661,3.405c0,0,1.437,3.307,2.244,4.468s0.669,24.506,0.669,24.506l19.94-3.523
			l-14.803-25.018L542.439,29.59z"/>
		<path fill="#373535" d="M547.635,34.59l-4.212-4.823l-2.5,2.598c0,0,1.437,3.307,2.244,4.468
			c-0.177,0.984-1.063,5.905,1.004,11.357c0.63,2.146,7.165,5.354,6.81,7.322c-0.079,6.082-7.322,6.81-7.5,7.795l15.55-7.361
			l-10.412-21.18L547.635,34.59z"/>
		<polygon fill="#AB3235" points="549.781,33.96 548.319,54.78 546.129,55.656 547.813,33.605 		"/>
		<path fill="#ED3237" d="M545.904,15.989l1.161-0.807c2.953,0.532,11.987,1.142,14.586,3.642l-3.13,0.453
			c-2.598-2.5-7.696-2.402-11.633-3.11L545.904,15.989z"/>
		<path fill="#ED3237" d="M546.081,15.004c2.5-2.598,5.531-8.149,10.629-8.247l0.63,2.146c-4.921-0.886-7.598,2.697-10.452,7.263
			L546.081,15.004z"/>
		<path fill="#373535" d="M541.239,8.036c5.551,3.031,8.424,9.645,7.361,15.55c-2.579,8.68-12.677,13.975-20.373,11.574
			c-7.696-2.402-7.519-3.386-4.94-12.066c2.402-7.696,0.866-16.101,8.917-15.668C535.156,7.957,538.463,6.521,541.239,8.036z"/>
		<path fill="#201E1E" d="M539.92,21.008c-1.24,6.889-10.354,12.361-17.066,10.137l-0.984-0.177
			c0.177-0.984,0.709-3.937,1.417-7.873c2.402-7.696,0.866-16.101,8.917-15.668C532.204,7.426,540.806,16.087,539.92,21.008z"/>
		<path fill="#EEAC95" d="M524.448,22.287L524.448,22.287c3.13-0.453,3.838-4.389,7.598-2.697c1.791,1.339-0.256,7.066-1.417,7.873
			c-3.307,1.437-5.524-0.01-8.653,0.443c0.177-0.984,0.659-2.866,1.008-3.835c0.339-0.941,0.513-1.877,0.841-2.818L524.448,22.287z"
			/>
		<path fill="#ED3237" d="M549.263,16.488l-24.349-1.378c0.354-1.968,0.911-4.006,1.482-4.941l21.758,3.663
			C548.154,13.832,549.441,15.504,549.263,16.488z"/>
		<path fill="#AB3235" d="M548.556,17.482l-23.941-1.176c0.177-0.984,0.354-1.968,0.532-2.953l22.598,2.755
			C548.729,16.286,548.556,17.482,548.556,17.482z"/>
		<path fill="#F2BBA1" d="M524.094,24.255c0.177-0.984,0.177-0.984,0.354-1.968l0,0c2.146-0.63,3.661-3.405,6.437-1.89
			c1.791,1.339-0.079,6.082-1.24,6.889s-2.146,0.63-3.13,0.453s-1.968-0.354-2.953-0.532
			C522.577,27.029,523.917,25.239,524.094,24.255z"/>
		
			<ellipse transform="matrix(0.26 -0.9656 0.9656 0.26 366.2489 526.0251)" fill="#201E1E" cx="526.324" cy="24.057" rx="1.988" ry="1.193"/>
		
			<ellipse transform="matrix(0.26 -0.9656 0.9656 0.26 366.9212 525.2536)" fill="#FEFEFE" cx="526.157" cy="23.233" rx="0.741" ry="0.445"/>
		<polygon fill="#201E1E" points="528.562,22.011 524.448,22.287 524.625,21.303 528.739,21.027 		"/>
		<g id="_237349376_12_">
			<path fill="#373535" d="M552.202,37.444c-2.5,2.598-9.842-1.772-6.988-6.338c2.5-2.598,7.322-6.81,19.133-4.684
				c3.937,0.709,7.696,2.402,11.456,4.094l-1.87,4.744c-9.665-2.756-14.763-2.658-21.908,3.169L552.202,37.444z"/>
			<polygon fill="#F2BBA1" points="580.982,34.2 578.128,38.766 575.175,38.235 573.561,35.912 572.754,34.751 573.738,34.928 
				575.609,30.184 578.738,29.731 			"/>
			<path fill="#201E1E" d="M575.271,33.468l-1.339,1.791c-9.665-2.756-14.763-2.658-21.908,3.169
				c-2.323,1.614-7.066-0.256-7.519-3.386c1.161-0.807,3.76,1.693,6.889,1.24c3.13-0.453,7.775-3.681,8.759-3.504l3.13-0.453
				c3.307-1.437,7.066,0.256,11.003,0.965L575.271,33.468z"/>
			<polygon fill="#EEAC95" points="572.516,35.131 573.5,35.309 575.37,30.565 578.5,30.112 579.937,33.419 577.26,37.001 
				575.114,37.631 573.5,35.309 			"/>
		</g>
		<polygon fill="#ED3237" points="559.852,56.566 541.73,58.928 541.808,53.317 558.439,54.062 		"/>
		<polygon fill="#AB3235" points="559.267,55.651 559.97,56.849 542.127,59 541.799,55.723 		"/>
		<polygon fill="#201E1E" points="527.165,77.528 524.977,71.51 515.916,67.162 514.021,68.35 522.523,79.383 524.751,79.57 		"/>
		<polygon fill="#201E1E" points="536.159,70.118 526.691,77.559 521.042,69.429 534.526,56.615 557.772,51.656 559.839,57.108 		
			"/>
		<polygon fill="#373535" points="535.155,58.761 558.402,53.801 560.823,57.285 536.159,70.118 526.691,77.559 521.672,71.575 		
			"/>
	</g>
</g>
<g>
	<g>
		<polygon fill="#201E1E" points="475.774,71.522 485.367,74.517 487.729,72.961 477.589,62.706 476.407,63.484 		"/>
		<polygon fill="#373535" points="467.695,63.829 477.973,64.425 475.916,71.408 466.256,73.572 446.211,58.5 458.856,53.492 		"/>
		<polygon fill="#201E1E" points="467.017,70.504 447.507,54.586 458.856,53.492 469.075,63.52 478.509,63.579 476.451,70.563 		"/>
		<g id="_237398872_11_">
			<path fill="#373535" d="M414.823,41.892l3.838-4.389c8.326,4.547,13.326-0.649,19.762-2.539
				C447.99,32.621,441.317,52.758,414.823,41.892z"/>
			<path fill="#201E1E" d="M419.291,39.648c6.535,3.209,14.31-0.472,19.762-2.539c2.323-1.614,4.114-0.275,3.76,1.693
				c0.728,7.244-10.807,9.231-26.022,3.444L419.291,39.648z"/>
			<polygon fill="#F2BBA1" points="416.791,42.246 413.031,40.553 412.402,38.408 414.094,34.648 418.208,34.373 419.822,36.695 			
				"/>
			<polygon fill="#EEAC95" points="416.161,40.1 417.5,38.309 415.886,35.987 417.854,36.341 419.468,38.664 416.791,42.246 
				415,40.907 			"/>
		</g>
		<path fill="#201E1E" d="M442.439,29.59l-3.661,3.405c0,0,1.437,3.307,2.244,4.468s0.669,24.506,0.669,24.506l19.94-3.523
			l-14.803-25.018L442.439,29.59z"/>
		<path fill="#373535" d="M447.635,34.59l-4.212-4.823l-2.5,2.598c0,0,1.437,3.307,2.244,4.468
			c-0.177,0.984-1.063,5.905,1.004,11.357c0.63,2.146,7.165,5.354,6.81,7.322c-0.079,6.082-7.322,6.81-7.5,7.795l15.55-7.361
			l-10.412-21.18L447.635,34.59z"/>
		<polygon fill="#AB3235" points="449.781,33.96 448.319,54.78 446.129,55.656 447.813,33.605 		"/>
		<path fill="#ED3237" d="M445.904,15.989l1.161-0.807c2.953,0.532,11.987,1.142,14.586,3.642l-3.13,0.453
			c-2.598-2.5-7.696-2.402-11.633-3.11L445.904,15.989z"/>
		<path fill="#ED3237" d="M446.081,15.004c2.5-2.598,5.531-8.149,10.629-8.247l0.63,2.146c-4.921-0.886-7.598,2.697-10.452,7.263
			L446.081,15.004z"/>
		<path fill="#373535" d="M441.239,8.036c5.551,3.031,8.424,9.645,7.361,15.55c-2.579,8.68-12.677,13.975-20.373,11.574
			c-7.696-2.402-7.519-3.386-4.94-12.066c2.402-7.696,0.866-16.101,8.917-15.668C435.156,7.957,438.463,6.521,441.239,8.036z"/>
		<path fill="#201E1E" d="M439.92,21.008c-1.24,6.889-10.354,12.361-17.066,10.137l-0.984-0.177
			c0.177-0.984,0.709-3.937,1.417-7.873c2.402-7.696,0.866-16.101,8.917-15.668C432.204,7.426,440.806,16.087,439.92,21.008z"/>
		<path fill="#EEAC95" d="M424.448,22.287L424.448,22.287c3.13-0.453,3.838-4.389,7.598-2.697c1.791,1.339-0.256,7.066-1.417,7.873
			c-3.307,1.437-5.524-0.01-8.653,0.443c0.177-0.984,0.659-2.866,1.008-3.835c0.339-0.941,0.513-1.877,0.841-2.818L424.448,22.287z"
			/>
		<path fill="#ED3237" d="M449.263,16.488l-24.349-1.378c0.354-1.968,0.911-4.006,1.482-4.941l21.758,3.663
			C448.154,13.832,449.441,15.504,449.263,16.488z"/>
		<path fill="#AB3235" d="M448.556,17.482l-23.941-1.176c0.177-0.984,0.354-1.968,0.532-2.953l22.598,2.755
			C448.729,16.286,448.556,17.482,448.556,17.482z"/>
		<path fill="#F2BBA1" d="M424.094,24.255c0.177-0.984,0.177-0.984,0.354-1.968l0,0c2.146-0.63,3.661-3.405,6.437-1.89
			c1.791,1.339-0.079,6.082-1.24,6.889s-2.146,0.63-3.13,0.453s-1.968-0.354-2.953-0.532
			C422.577,27.029,423.917,25.239,424.094,24.255z"/>
		
			<ellipse transform="matrix(0.26 -0.9656 0.9656 0.26 292.2491 429.4644)" fill="#201E1E" cx="426.324" cy="24.057" rx="1.988" ry="1.193"/>
		
			<ellipse transform="matrix(0.26 -0.9656 0.9656 0.26 292.9214 428.6928)" fill="#FEFEFE" cx="426.157" cy="23.233" rx="0.741" ry="0.445"/>
		<polygon fill="#201E1E" points="428.562,22.011 424.448,22.287 424.625,21.303 428.739,21.027 		"/>
		<g id="_237349376_11_">
			<path fill="#373535" d="M452.202,37.444c-2.5,2.598-9.842-1.772-6.988-6.338c2.5-2.598,7.322-6.81,19.133-4.684
				c3.937,0.709,7.696,2.402,11.456,4.094l-1.87,4.744c-9.665-2.756-14.763-2.658-21.908,3.169L452.202,37.444z"/>
			<polygon fill="#F2BBA1" points="480.982,34.2 478.128,38.766 475.175,38.235 473.561,35.912 472.754,34.751 473.738,34.928 
				475.609,30.184 478.738,29.731 			"/>
			<path fill="#201E1E" d="M475.271,33.468l-1.339,1.791c-9.665-2.756-14.763-2.658-21.908,3.169
				c-2.323,1.614-7.066-0.256-7.519-3.386c1.161-0.807,3.76,1.693,6.889,1.24c3.13-0.453,7.775-3.681,8.759-3.504l3.13-0.453
				c3.307-1.437,7.066,0.256,11.003,0.965L475.271,33.468z"/>
			<polygon fill="#EEAC95" points="472.516,35.131 473.5,35.309 475.37,30.565 478.5,30.112 479.937,33.419 477.26,37.001 
				475.114,37.631 473.5,35.309 			"/>
		</g>
		<polygon fill="#ED3237" points="459.852,56.566 441.73,58.928 441.808,53.317 458.439,54.062 		"/>
		<polygon fill="#AB3235" points="459.267,55.651 459.97,56.849 442.127,59 441.799,55.723 		"/>
		<polygon fill="#201E1E" points="427.165,77.528 424.977,71.51 415.916,67.162 414.021,68.35 422.523,79.383 424.751,79.57 		"/>
		<polygon fill="#201E1E" points="436.159,70.118 426.691,77.559 421.042,69.429 434.526,56.615 457.772,51.656 459.839,57.108 		
			"/>
		<polygon fill="#373535" points="435.155,58.761 458.402,53.801 460.823,57.285 436.159,70.118 426.691,77.559 421.672,71.575 		
			"/>
	</g>
</g>
<g>
	<g>
		<polygon fill="#201E1E" points="375.774,71.522 385.367,74.517 387.729,72.961 377.589,62.706 376.407,63.484 		"/>
		<polygon fill="#373535" points="367.695,63.829 377.973,64.425 375.916,71.408 366.256,73.572 346.211,58.5 358.856,53.492 		"/>
		<polygon fill="#201E1E" points="367.017,70.504 347.507,54.586 358.856,53.492 369.075,63.52 378.509,63.579 376.451,70.563 		"/>
		<g id="_237398872_10_">
			<path fill="#373535" d="M314.823,41.892l3.838-4.389c8.326,4.547,13.326-0.649,19.762-2.539
				C347.99,32.621,341.317,52.758,314.823,41.892z"/>
			<path fill="#201E1E" d="M319.291,39.648c6.535,3.209,14.31-0.472,19.762-2.539c2.323-1.614,4.114-0.275,3.76,1.693
				c0.728,7.244-10.807,9.231-26.022,3.444L319.291,39.648z"/>
			<polygon fill="#F2BBA1" points="316.791,42.246 313.031,40.553 312.402,38.408 314.094,34.648 318.208,34.373 319.822,36.695 			
				"/>
			<polygon fill="#EEAC95" points="316.161,40.1 317.5,38.309 315.886,35.987 317.854,36.341 319.468,38.664 316.791,42.246 
				315,40.907 			"/>
		</g>
		<path fill="#201E1E" d="M342.439,29.59l-3.661,3.405c0,0,1.437,3.307,2.244,4.468s0.669,24.506,0.669,24.506l19.94-3.523
			l-14.803-25.018L342.439,29.59z"/>
		<path fill="#373535" d="M347.635,34.59l-4.212-4.823l-2.5,2.598c0,0,1.437,3.307,2.244,4.468
			c-0.177,0.984-1.063,5.905,1.004,11.357c0.63,2.146,7.165,5.354,6.81,7.322c-0.079,6.082-7.322,6.81-7.5,7.795l15.55-7.361
			l-10.412-21.18L347.635,34.59z"/>
		<polygon fill="#AB3235" points="349.781,33.96 348.319,54.78 346.129,55.656 347.813,33.605 		"/>
		<path fill="#ED3237" d="M345.904,15.989l1.161-0.807c2.953,0.532,11.987,1.142,14.586,3.642l-3.13,0.453
			c-2.598-2.5-7.696-2.402-11.633-3.11L345.904,15.989z"/>
		<path fill="#ED3237" d="M346.081,15.004c2.5-2.598,5.531-8.149,10.629-8.247l0.63,2.146c-4.921-0.886-7.598,2.697-10.452,7.263
			L346.081,15.004z"/>
		<path fill="#373535" d="M341.239,8.036c5.551,3.031,8.424,9.645,7.361,15.55c-2.579,8.68-12.677,13.975-20.373,11.574
			c-7.696-2.402-7.519-3.386-4.94-12.066c2.402-7.696,0.866-16.101,8.917-15.668C335.156,7.957,338.463,6.521,341.239,8.036z"/>
		<path fill="#201E1E" d="M339.92,21.008c-1.24,6.889-10.354,12.361-17.066,10.137l-0.984-0.177
			c0.177-0.984,0.709-3.937,1.417-7.873c2.402-7.696,0.866-16.101,8.917-15.668C332.204,7.426,340.806,16.087,339.92,21.008z"/>
		<path fill="#EEAC95" d="M324.448,22.287L324.448,22.287c3.13-0.453,3.838-4.389,7.598-2.697c1.791,1.339-0.256,7.066-1.417,7.873
			c-3.307,1.437-5.524-0.01-8.653,0.443c0.177-0.984,0.659-2.866,1.008-3.835c0.339-0.941,0.513-1.877,0.841-2.818L324.448,22.287z"
			/>
		<path fill="#ED3237" d="M349.263,16.488l-24.349-1.378c0.354-1.968,0.911-4.006,1.482-4.941l21.758,3.663
			C348.154,13.832,349.441,15.504,349.263,16.488z"/>
		<path fill="#AB3235" d="M348.556,17.482l-23.941-1.176c0.177-0.984,0.354-1.968,0.532-2.953l22.598,2.755
			C348.729,16.286,348.556,17.482,348.556,17.482z"/>
		<path fill="#F2BBA1" d="M324.094,24.255c0.177-0.984,0.177-0.984,0.354-1.968l0,0c2.146-0.63,3.661-3.405,6.437-1.89
			c1.791,1.339-0.079,6.082-1.24,6.889s-2.146,0.63-3.13,0.453s-1.968-0.354-2.953-0.532
			C322.577,27.029,323.917,25.239,324.094,24.255z"/>
		
			<ellipse transform="matrix(0.26 -0.9656 0.9656 0.26 218.2493 332.9035)" fill="#201E1E" cx="326.324" cy="24.057" rx="1.988" ry="1.193"/>
		
			<ellipse transform="matrix(0.26 -0.9656 0.9656 0.26 218.9216 332.132)" fill="#FEFEFE" cx="326.157" cy="23.233" rx="0.741" ry="0.445"/>
		<polygon fill="#201E1E" points="328.562,22.011 324.448,22.287 324.625,21.303 328.739,21.027 		"/>
		<g id="_237349376_10_">
			<path fill="#373535" d="M352.202,37.444c-2.5,2.598-9.842-1.772-6.988-6.338c2.5-2.598,7.322-6.81,19.133-4.684
				c3.937,0.709,7.696,2.402,11.456,4.094l-1.87,4.744c-9.665-2.756-14.763-2.658-21.908,3.169L352.202,37.444z"/>
			<polygon fill="#F2BBA1" points="380.982,34.2 378.128,38.766 375.175,38.235 373.561,35.912 372.754,34.751 373.738,34.928 
				375.609,30.184 378.738,29.731 			"/>
			<path fill="#201E1E" d="M375.271,33.468l-1.339,1.791c-9.665-2.756-14.763-2.658-21.908,3.169
				c-2.323,1.614-7.066-0.256-7.519-3.386c1.161-0.807,3.76,1.693,6.889,1.24c3.13-0.453,7.775-3.681,8.759-3.504l3.13-0.453
				c3.307-1.437,7.066,0.256,11.003,0.965L375.271,33.468z"/>
			<polygon fill="#EEAC95" points="372.516,35.131 373.5,35.309 375.37,30.565 378.5,30.112 379.937,33.419 377.26,37.001 
				375.114,37.631 373.5,35.309 			"/>
		</g>
		<polygon fill="#ED3237" points="359.852,56.566 341.73,58.928 341.808,53.317 358.439,54.062 		"/>
		<polygon fill="#AB3235" points="359.267,55.651 359.97,56.849 342.127,59 341.799,55.723 		"/>
		<polygon fill="#201E1E" points="327.165,77.528 324.977,71.51 315.916,67.162 314.021,68.35 322.523,79.383 324.751,79.57 		"/>
		<polygon fill="#201E1E" points="336.159,70.118 326.691,77.559 321.042,69.429 334.526,56.615 357.772,51.656 359.839,57.108 		
			"/>
		<polygon fill="#373535" points="335.155,58.761 358.402,53.801 360.823,57.285 336.159,70.118 326.691,77.559 321.672,71.575 		
			"/>
	</g>
</g>
<g>
	<g>
		<polygon fill="#201E1E" points="275.774,71.522 285.367,74.517 287.729,72.961 277.589,62.706 276.407,63.484 		"/>
		<polygon fill="#373535" points="267.695,63.829 277.973,64.425 275.916,71.408 266.256,73.572 246.211,58.5 258.856,53.492 		"/>
		<polygon fill="#201E1E" points="267.017,70.504 247.507,54.586 258.856,53.492 269.075,63.52 278.509,63.579 276.451,70.563 		"/>
		<g id="_237398872_9_">
			<path fill="#373535" d="M214.823,41.892l3.838-4.389c8.326,4.547,13.326-0.649,19.762-2.539
				C247.99,32.621,241.317,52.758,214.823,41.892z"/>
			<path fill="#201E1E" d="M219.291,39.648c6.535,3.209,14.31-0.472,19.762-2.539c2.323-1.614,4.114-0.275,3.76,1.693
				c0.728,7.244-10.807,9.231-26.022,3.444L219.291,39.648z"/>
			<polygon fill="#F2BBA1" points="216.791,42.246 213.031,40.553 212.402,38.408 214.094,34.648 218.208,34.373 219.822,36.695 			
				"/>
			<polygon fill="#EEAC95" points="216.161,40.1 217.5,38.309 215.886,35.987 217.854,36.341 219.468,38.664 216.791,42.246 
				215,40.907 			"/>
		</g>
		<path fill="#201E1E" d="M242.439,29.59l-3.661,3.405c0,0,1.437,3.307,2.244,4.468c0.807,1.161,0.669,24.506,0.669,24.506
			l19.94-3.523l-14.803-25.018L242.439,29.59z"/>
		<path fill="#373535" d="M247.635,34.59l-4.212-4.823l-2.5,2.598c0,0,1.437,3.307,2.244,4.468
			c-0.177,0.984-1.063,5.905,1.004,11.357c0.63,2.146,7.165,5.354,6.81,7.322c-0.079,6.082-7.322,6.81-7.5,7.795l15.55-7.361
			l-10.412-21.18L247.635,34.59z"/>
		<polygon fill="#AB3235" points="249.781,33.96 248.319,54.78 246.129,55.656 247.813,33.605 		"/>
		<path fill="#ED3237" d="M245.904,15.989l1.161-0.807c2.953,0.532,11.987,1.142,14.586,3.642l-3.13,0.453
			c-2.598-2.5-7.696-2.402-11.633-3.11L245.904,15.989z"/>
		<path fill="#ED3237" d="M246.081,15.004c2.5-2.598,5.531-8.149,10.629-8.247l0.63,2.146c-4.921-0.886-7.598,2.697-10.452,7.263
			L246.081,15.004z"/>
		<path fill="#373535" d="M241.239,8.036c5.551,3.031,8.424,9.645,7.361,15.55c-2.579,8.68-12.677,13.975-20.373,11.574
			c-7.696-2.402-7.519-3.386-4.94-12.066c2.402-7.696,0.866-16.101,8.917-15.668C235.156,7.957,238.463,6.521,241.239,8.036z"/>
		<path fill="#201E1E" d="M239.92,21.008c-1.24,6.889-10.354,12.361-17.066,10.137l-0.984-0.177
			c0.177-0.984,0.709-3.937,1.417-7.873c2.402-7.696,0.866-16.101,8.917-15.668C232.204,7.426,240.806,16.087,239.92,21.008z"/>
		<path fill="#EEAC95" d="M224.448,22.287L224.448,22.287c3.13-0.453,3.838-4.389,7.598-2.697c1.791,1.339-0.256,7.066-1.417,7.873
			c-3.307,1.437-5.524-0.01-8.653,0.443c0.177-0.984,0.659-2.866,1.008-3.835c0.339-0.941,0.513-1.877,0.841-2.818L224.448,22.287z"
			/>
		<path fill="#ED3237" d="M249.263,16.488l-24.349-1.378c0.354-1.968,0.911-4.006,1.482-4.941l21.758,3.663
			C248.154,13.832,249.441,15.504,249.263,16.488z"/>
		<path fill="#AB3235" d="M248.556,17.482l-23.941-1.176c0.177-0.984,0.354-1.968,0.532-2.953l22.598,2.755
			C248.729,16.286,248.556,17.482,248.556,17.482z"/>
		<path fill="#F2BBA1" d="M224.094,24.255c0.177-0.984,0.177-0.984,0.354-1.968l0,0c2.146-0.63,3.661-3.405,6.437-1.89
			c1.791,1.339-0.079,6.082-1.24,6.889s-2.146,0.63-3.13,0.453s-1.968-0.354-2.953-0.532
			C222.577,27.029,223.917,25.239,224.094,24.255z"/>
		
			<ellipse transform="matrix(0.26 -0.9656 0.9656 0.26 144.2495 236.3428)" fill="#201E1E" cx="226.324" cy="24.057" rx="1.988" ry="1.193"/>
		
			<ellipse transform="matrix(0.26 -0.9656 0.9656 0.26 144.9218 235.5712)" fill="#FEFEFE" cx="226.157" cy="23.233" rx="0.741" ry="0.445"/>
		<polygon fill="#201E1E" points="228.562,22.011 224.448,22.287 224.625,21.303 228.739,21.027 		"/>
		<g id="_237349376_9_">
			<path fill="#373535" d="M252.202,37.444c-2.5,2.598-9.842-1.772-6.988-6.338c2.5-2.598,7.322-6.81,19.133-4.684
				c3.937,0.709,7.696,2.402,11.456,4.094l-1.87,4.744c-9.665-2.756-14.763-2.658-21.908,3.169L252.202,37.444z"/>
			<polygon fill="#F2BBA1" points="280.982,34.2 278.128,38.766 275.175,38.235 273.561,35.912 272.754,34.751 273.738,34.928 
				275.609,30.184 278.738,29.731 			"/>
			<path fill="#201E1E" d="M275.271,33.468l-1.339,1.791c-9.665-2.756-14.763-2.658-21.908,3.169
				c-2.323,1.614-7.066-0.256-7.519-3.386c1.161-0.807,3.76,1.693,6.889,1.24c3.13-0.453,7.775-3.681,8.759-3.504l3.13-0.453
				c3.307-1.437,7.066,0.256,11.003,0.965L275.271,33.468z"/>
			<polygon fill="#EEAC95" points="272.516,35.131 273.5,35.309 275.37,30.565 278.5,30.112 279.937,33.419 277.26,37.001 
				275.114,37.631 273.5,35.309 			"/>
		</g>
		<polygon fill="#ED3237" points="259.852,56.566 241.73,58.928 241.808,53.317 258.439,54.062 		"/>
		<polygon fill="#AB3235" points="259.267,55.651 259.97,56.849 242.127,59 241.799,55.723 		"/>
		<polygon fill="#201E1E" points="227.165,77.528 224.977,71.51 215.916,67.162 214.021,68.35 222.523,79.383 224.751,79.57 		"/>
		<polygon fill="#201E1E" points="236.159,70.118 226.691,77.559 221.042,69.429 234.526,56.615 257.772,51.656 259.839,57.108 		
			"/>
		<polygon fill="#373535" points="235.155,58.761 258.402,53.801 260.823,57.285 236.159,70.118 226.691,77.559 221.672,71.575 		
			"/>
	</g>
</g>
<g>
	<g>
		<polygon fill="#201E1E" points="175.774,71.522 185.367,74.517 187.729,72.961 177.589,62.706 176.407,63.484 		"/>
		<polygon fill="#373535" points="167.695,63.829 177.973,64.425 175.916,71.408 166.256,73.572 146.211,58.5 158.856,53.492 		"/>
		<polygon fill="#201E1E" points="167.017,70.504 147.507,54.586 158.856,53.492 169.075,63.52 178.509,63.579 176.451,70.563 		"/>
		<g id="_237398872_8_">
			<path fill="#373535" d="M114.823,41.892l3.838-4.389c8.326,4.547,13.326-0.649,19.762-2.539
				C147.99,32.621,141.317,52.758,114.823,41.892z"/>
			<path fill="#201E1E" d="M119.291,39.648c6.535,3.209,14.31-0.472,19.762-2.539c2.323-1.614,4.114-0.275,3.76,1.693
				c0.728,7.244-10.807,9.231-26.022,3.444L119.291,39.648z"/>
			<polygon fill="#F2BBA1" points="116.791,42.246 113.031,40.553 112.402,38.408 114.094,34.648 118.208,34.373 119.822,36.695 			
				"/>
			<polygon fill="#EEAC95" points="116.161,40.1 117.5,38.309 115.886,35.987 117.854,36.341 119.468,38.664 116.791,42.246 
				115,40.907 			"/>
		</g>
		<path fill="#201E1E" d="M142.439,29.59l-3.661,3.405c0,0,1.437,3.307,2.244,4.468c0.807,1.161,0.669,24.506,0.669,24.506
			l19.94-3.523l-14.803-25.018L142.439,29.59z"/>
		<path fill="#373535" d="M147.635,34.59l-4.212-4.823l-2.5,2.598c0,0,1.437,3.307,2.244,4.468
			c-0.177,0.984-1.063,5.905,1.004,11.357c0.63,2.146,7.165,5.354,6.81,7.322c-0.079,6.082-7.322,6.81-7.5,7.795l15.55-7.361
			l-10.412-21.18L147.635,34.59z"/>
		<polygon fill="#AB3235" points="149.781,33.96 148.319,54.78 146.129,55.656 147.813,33.605 		"/>
		<path fill="#ED3237" d="M145.904,15.989l1.161-0.807c2.953,0.532,11.987,1.142,14.586,3.642l-3.13,0.453
			c-2.598-2.5-7.696-2.402-11.633-3.11L145.904,15.989z"/>
		<path fill="#ED3237" d="M146.081,15.004c2.5-2.598,5.531-8.149,10.629-8.247l0.63,2.146c-4.921-0.886-7.598,2.697-10.452,7.263
			L146.081,15.004z"/>
		<path fill="#373535" d="M141.239,8.036c5.551,3.031,8.424,9.645,7.361,15.55c-2.579,8.68-12.677,13.975-20.373,11.574
			c-7.696-2.402-7.519-3.386-4.94-12.066c2.402-7.696,0.866-16.101,8.917-15.668C135.156,7.957,138.463,6.521,141.239,8.036z"/>
		<path fill="#201E1E" d="M139.92,21.008c-1.24,6.889-10.354,12.361-17.066,10.137l-0.984-0.177
			c0.177-0.984,0.709-3.937,1.417-7.873c2.402-7.696,0.866-16.101,8.917-15.668C132.204,7.426,140.806,16.087,139.92,21.008z"/>
		<path fill="#EEAC95" d="M124.448,22.287L124.448,22.287c3.13-0.453,3.838-4.389,7.598-2.697c1.791,1.339-0.256,7.066-1.417,7.873
			c-3.307,1.437-5.524-0.01-8.653,0.443c0.177-0.984,0.659-2.866,1.008-3.835c0.339-0.941,0.513-1.877,0.841-2.818L124.448,22.287z"
			/>
		<path fill="#ED3237" d="M149.263,16.488l-24.349-1.378c0.354-1.968,0.911-4.006,1.482-4.941l21.758,3.663
			C148.154,13.832,149.441,15.504,149.263,16.488z"/>
		<path fill="#AB3235" d="M148.556,17.482l-23.941-1.176c0.177-0.984,0.354-1.968,0.532-2.953l22.598,2.755
			C148.729,16.286,148.556,17.482,148.556,17.482z"/>
		<path fill="#F2BBA1" d="M124.094,24.255c0.177-0.984,0.177-0.984,0.354-1.968l0,0c2.146-0.63,3.661-3.405,6.437-1.89
			c1.791,1.339-0.079,6.082-1.24,6.889s-2.146,0.63-3.13,0.453s-1.968-0.354-2.953-0.532
			C122.577,27.029,123.917,25.239,124.094,24.255z"/>
		
			<ellipse transform="matrix(0.26 -0.9656 0.9656 0.26 70.2498 139.782)" fill="#201E1E" cx="126.324" cy="24.057" rx="1.988" ry="1.193"/>
		
			<ellipse transform="matrix(0.26 -0.9656 0.9656 0.26 70.9221 139.0104)" fill="#FEFEFE" cx="126.157" cy="23.233" rx="0.741" ry="0.445"/>
		<polygon fill="#201E1E" points="128.562,22.011 124.448,22.287 124.625,21.303 128.739,21.027 		"/>
		<g id="_237349376_8_">
			<path fill="#373535" d="M152.202,37.444c-2.5,2.598-9.842-1.772-6.988-6.338c2.5-2.598,7.322-6.81,19.133-4.684
				c3.937,0.709,7.696,2.402,11.456,4.094l-1.87,4.744c-9.665-2.756-14.763-2.658-21.908,3.169L152.202,37.444z"/>
			<polygon fill="#F2BBA1" points="180.982,34.2 178.128,38.766 175.175,38.235 173.561,35.912 172.754,34.751 173.738,34.928 
				175.609,30.184 178.738,29.731 			"/>
			<path fill="#201E1E" d="M175.271,33.468l-1.339,1.791c-9.665-2.756-14.763-2.658-21.908,3.169
				c-2.323,1.614-7.066-0.256-7.519-3.386c1.161-0.807,3.76,1.693,6.889,1.24c3.13-0.453,7.775-3.681,8.759-3.504l3.13-0.453
				c3.307-1.437,7.066,0.256,11.003,0.965L175.271,33.468z"/>
			<polygon fill="#EEAC95" points="172.516,35.131 173.5,35.309 175.37,30.565 178.5,30.112 179.937,33.419 177.26,37.001 
				175.114,37.631 173.5,35.309 			"/>
		</g>
		<polygon fill="#ED3237" points="159.852,56.566 141.73,58.928 141.808,53.317 158.439,54.062 		"/>
		<polygon fill="#AB3235" points="159.267,55.651 159.97,56.849 142.127,59 141.799,55.723 		"/>
		<polygon fill="#201E1E" points="127.165,77.528 124.977,71.51 115.916,67.162 114.021,68.35 122.523,79.383 124.751,79.57 		"/>
		<polygon fill="#201E1E" points="136.159,70.118 126.691,77.559 121.042,69.429 134.526,56.615 157.772,51.656 159.839,57.108 		
			"/>
		<polygon fill="#373535" points="135.155,58.761 158.402,53.801 160.823,57.285 136.159,70.118 126.691,77.559 121.672,71.575 		
			"/>
	</g>
</g>
<g>
	<g>
		<polygon fill="#201E1E" points="75.774,71.522 85.367,74.517 87.729,72.961 77.589,62.706 76.407,63.484 		"/>
		<polygon fill="#373535" points="67.695,63.829 77.973,64.425 75.916,71.408 66.256,73.572 46.211,58.5 58.856,53.492 		"/>
		<polygon fill="#201E1E" points="67.017,70.504 47.507,54.586 58.856,53.492 69.075,63.52 78.509,63.579 76.451,70.563 		"/>
		<g id="_237398872_7_">
			<path fill="#373535" d="M14.823,41.892l3.838-4.389c8.326,4.547,13.326-0.649,19.762-2.539
				C47.99,32.621,41.317,52.758,14.823,41.892z"/>
			<path fill="#201E1E" d="M19.291,39.648c6.535,3.209,14.31-0.472,19.762-2.539c2.323-1.614,4.114-0.275,3.76,1.693
				c0.728,7.244-10.807,9.231-26.022,3.444L19.291,39.648z"/>
			<polygon fill="#F2BBA1" points="16.791,42.246 13.031,40.553 12.402,38.408 14.094,34.648 18.208,34.373 19.822,36.695 			"/>
			<polygon fill="#EEAC95" points="16.161,40.1 17.5,38.309 15.886,35.987 17.854,36.341 19.468,38.664 16.791,42.246 15,40.907 			
				"/>
		</g>
		<path fill="#201E1E" d="M42.439,29.59l-3.661,3.405c0,0,1.437,3.307,2.244,4.468c0.807,1.161,0.669,24.506,0.669,24.506
			l19.94-3.523L46.828,33.428L42.439,29.59z"/>
		<path fill="#373535" d="M47.635,34.59l-4.212-4.823l-2.5,2.598c0,0,1.437,3.307,2.244,4.468
			c-0.177,0.984-1.063,5.905,1.004,11.357c0.63,2.146,7.165,5.354,6.81,7.322c-0.079,6.082-7.322,6.81-7.5,7.795l15.55-7.361
			l-10.412-21.18L47.635,34.59z"/>
		<polygon fill="#AB3235" points="49.781,33.96 48.319,54.78 46.129,55.656 47.813,33.605 		"/>
		<path fill="#ED3237" d="M45.904,15.989l1.161-0.807c2.953,0.532,11.987,1.142,14.586,3.642l-3.13,0.453
			c-2.598-2.5-7.696-2.402-11.633-3.11L45.904,15.989z"/>
		<path fill="#ED3237" d="M46.081,15.004c2.5-2.598,5.531-8.149,10.629-8.247l0.63,2.146c-4.921-0.886-7.598,2.697-10.452,7.263
			L46.081,15.004z"/>
		<path fill="#373535" d="M41.239,8.036c5.551,3.031,8.424,9.645,7.361,15.55c-2.579,8.68-12.677,13.975-20.373,11.574
			c-7.696-2.402-7.519-3.386-4.94-12.066c2.402-7.696,0.866-16.101,8.917-15.668C35.156,7.957,38.463,6.521,41.239,8.036z"/>
		<path fill="#201E1E" d="M39.92,21.008c-1.24,6.889-10.354,12.361-17.066,10.137l-0.984-0.177c0.177-0.984,0.709-3.937,1.417-7.873
			c2.402-7.696,0.866-16.101,8.917-15.668C32.204,7.426,40.806,16.087,39.92,21.008z"/>
		<path fill="#EEAC95" d="M24.448,22.287L24.448,22.287c3.13-0.453,3.838-4.389,7.598-2.697c1.791,1.339-0.256,7.066-1.417,7.873
			c-3.307,1.437-5.524-0.01-8.653,0.443c0.177-0.984,0.659-2.866,1.008-3.835c0.339-0.941,0.513-1.877,0.841-2.818L24.448,22.287z"
			/>
		<path fill="#ED3237" d="M49.263,16.488L24.914,15.11c0.354-1.968,0.911-4.006,1.482-4.941l21.758,3.663
			C48.154,13.832,49.441,15.504,49.263,16.488z"/>
		<path fill="#AB3235" d="M48.556,17.482l-23.941-1.176c0.177-0.984,0.354-1.968,0.532-2.953l22.598,2.755
			C48.729,16.286,48.556,17.482,48.556,17.482z"/>
		<path fill="#F2BBA1" d="M24.094,24.255c0.177-0.984,0.177-0.984,0.354-1.968l0,0c2.146-0.63,3.661-3.405,6.437-1.89
			c1.791,1.339-0.079,6.082-1.24,6.889s-2.146,0.63-3.13,0.453s-1.968-0.354-2.953-0.532C22.577,27.029,23.917,25.239,24.094,24.255
			z"/>
		
			<ellipse transform="matrix(0.26 -0.9656 0.9656 0.26 -3.75 43.2211)" fill="#201E1E" cx="26.324" cy="24.057" rx="1.988" ry="1.193"/>
		
			<ellipse transform="matrix(0.26 -0.9656 0.9656 0.26 -3.0777 42.4496)" fill="#FEFEFE" cx="26.157" cy="23.233" rx="0.741" ry="0.445"/>
		<polygon fill="#201E1E" points="28.562,22.011 24.448,22.287 24.625,21.303 28.739,21.027 		"/>
		<g id="_237349376_7_">
			<path fill="#373535" d="M52.202,37.444c-2.5,2.598-9.842-1.772-6.988-6.338c2.5-2.598,7.322-6.81,19.133-4.684
				c3.937,0.709,7.696,2.402,11.456,4.094l-1.87,4.744c-9.665-2.756-14.763-2.658-21.908,3.169L52.202,37.444z"/>
			<polygon fill="#F2BBA1" points="80.982,34.2 78.128,38.766 75.175,38.235 73.561,35.912 72.754,34.751 73.738,34.928 
				75.609,30.184 78.738,29.731 			"/>
			<path fill="#201E1E" d="M75.271,33.468l-1.339,1.791c-9.665-2.756-14.763-2.658-21.908,3.169
				c-2.323,1.614-7.066-0.256-7.519-3.386c1.161-0.807,3.76,1.693,6.889,1.24c3.13-0.453,7.775-3.681,8.759-3.504l3.13-0.453
				c3.307-1.437,7.066,0.256,11.003,0.965L75.271,33.468z"/>
			<polygon fill="#EEAC95" points="72.516,35.131 73.5,35.309 75.37,30.565 78.5,30.112 79.937,33.419 77.26,37.001 75.114,37.631 
				73.5,35.309 			"/>
		</g>
		<polygon fill="#ED3237" points="59.852,56.566 41.73,58.928 41.808,53.317 58.439,54.062 		"/>
		<polygon fill="#AB3235" points="59.267,55.651 59.97,56.849 42.127,59 41.799,55.723 		"/>
		<polygon fill="#201E1E" points="27.165,77.528 24.977,71.51 15.916,67.162 14.021,68.35 22.523,79.383 24.751,79.57 		"/>
		<polygon fill="#201E1E" points="36.159,70.118 26.691,77.559 21.042,69.429 34.526,56.615 57.772,51.656 59.839,57.108 		"/>
		<polygon fill="#373535" points="35.155,58.761 58.402,53.801 60.823,57.285 36.159,70.118 26.691,77.559 21.672,71.575 		"/>
	</g>
</g>
<g id="Capa_2">
	<rect fill="none" width="600" height="100"/>
</g>
</svg>
