<?xml version="1.0" encoding="utf-8"?>
<!-- Generator: Adobe Illustrator 17.0.0, SVG Export Plug-In . SVG Version: 6.00 Build 0)  -->
<!DOCTYPE svg PUBLIC "-//W3C//DTD SVG 1.1//EN" "http://www.w3.org/Graphics/SVG/1.1/DTD/svg11.dtd">
<svg version="1.1" id="Capa_1" xmlns="http://www.w3.org/2000/svg" xmlns:xlink="http://www.w3.org/1999/xlink" x="0px" y="0px"
	 width="599px" height="100px" viewBox="0 0 599 100" enable-background="new 0 0 599 100" xml:space="preserve">
<g id="Capa_x0020_1">
	<g>
		<polygon fill="#201E1E" points="331.5,90.333 331.5,92.333 344.5,92.333 344.5,90.333 337.5,86.333 332.5,87.333 		"/>
		<polygon fill="#201E1E" points="320.5,68.333 318.5,67.333 317.5,80.333 319.5,81.333 324.5,74.333 		"/>
		<polygon fill="#373535" points="332.5,55.333 347.5,55.333 347.5,74.333 340.5,88.333 332.5,88.333 334.5,75.333 		"/>
		<polygon fill="#201E1E" points="337.5,88.333 332.5,88.333 334.5,75.333 332.5,55.333 344.5,55.333 344.5,74.333 		"/>
		<polygon fill="#201E1E" points="335.5,55.333 346.5,59.333 338.5,75.333 323.5,75.333 321.5,66.333 330.5,66.333 		"/>
		<polygon fill="#373535" points="321.5,73.333 318.5,67.333 329.5,65.333 333.5,53.333 343.5,57.333 337.5,72.333 		"/>
	</g>
	<g>
		<polygon fill="#201E1E" points="31.667,90.333 31.667,92.333 43.667,91.333 44.667,89.333 37.667,85.333 32.667,86.333 		"/>
		<polygon fill="#201E1E" points="22.667,66.333 20.667,66.333 19.667,78.333 21.667,79.333 26.667,72.333 		"/>
		<polygon fill="#373535" points="35.667,55.333 47.667,59.333 34.667,74.333 25.667,73.333 21.667,66.333 30.667,65.333 		"/>
		<polygon fill="#201E1E" points="24.667,72.333 21.667,66.333 29.667,65.333 33.667,53.333 34.667,54.333 32.667,72.333 		"/>
		<polygon fill="#201E1E" points="32.667,55.333 46.667,55.333 46.667,74.333 40.667,87.333 31.667,87.333 34.667,75.333 		"/>
		<polygon fill="#373535" points="37.667,87.333 31.667,87.333 34.667,75.333 32.667,55.333 43.667,55.333 43.667,74.333 		"/>
	</g>
	<rect fill="none" width="599" height="100"/>
	<g>
		<polygon fill="#373535" points="539.41,49.501 554,52.75 569.135,65.037 566.239,70.386 553.694,78.362 547.556,74.851 
			553.873,68.364 543.001,61.167 		"/>
		<polygon fill="#201E1E" points="552.904,77.748 547.556,74.851 553.873,68.364 542.212,60.553 540.024,48.712 553.703,55.559 
			566.329,65.387 564.046,69.947 		"/>
		<polygon fill="#201E1E" points="547.556,74.851 543.87,79.586 558.778,84.854 559.217,82.662 553.519,76.959 		"/>
	</g>
	<path fill="#ED3237" d="M55,13c-3,1-13,2-16,0v2c3,2,12-1,15-1L55,13z"/>
	<path fill="#373535" d="M59,38c0,6-4,13,2,19l-3,5C41,38,60,27,59,38z"/>
	<path fill="#201E1E" d="M57,61c-9-14-6-23-2-26c2-1,3,1,3,4c0,6-3,14,3,20L57,61z"/>
	<polygon fill="#F2BBA1" points="61,57 64,58 65,62 61,65 59,65 57,61 	"/>
	<polygon fill="#EEAC95" points="58,63 57,61 60,58 63,59 63,61 61,60 59,61 	"/>
	<path fill="#201E1E" d="M52,30L30,55l21,6c0,0,4-25,6-26c1-1,3-4,3-4l-3-4L52,30z"/>
	<path fill="#373535" d="M49,32L29,56l19,5c0-1-7-3-6-9c0-2,7-4,8-6c3-5,3-10,3-11c1-1,3-4,3-4l-2-3l-6,4H49z"/>
	<polygon fill="#AB3235" points="51,31 52,54 50,54 48,31 	"/>
	<path fill="#ED3237" d="M56,13c-2-3-14-4-15-7l-1,1c0,4,13,4,15,6H56z"/>
	<path fill="#373535" d="M72,9c8,2,4,9,4,18s0,10-8,10s-16-8-16-16c0-6,5-12,11-14C66,6,69,8,72,9z"/>
	<path fill="#201E1E" d="M72,9c8,2,4,9,4,18c0,4,0,7-1,8h-1c-7,0-14-7-14-14c0-5,4-10,10-12C71,9,71,9,72,9h1H72z"/>
	<path fill="#EEAC95" d="M76.126,23.745c0,1-0.064,2.065-0.064,3.065s-0.107,3.03-0.107,4.03c-3-1-5,0-8-3c-1-2-1-7,1-8c4,0,4,3,6,4
		l0,0L76.126,23.745z"/>
	<path fill="#ED3237" d="M56,11l21,2c0,1,0,3,0,5l-23-5C55,12,55,11,56,11z"/>
	<path fill="#F2BBA1" d="M75,30c-1,0-2,0-3,0s-2-1-3-2s-1-6,1-7c3,0,4,2,5,4l0,0C75,26,75,29,75,30"/>
	<ellipse fill="#201E1E" cx="73" cy="26" rx="1" ry="2"/>
	<ellipse fill="#FEFEFE" cx="74" cy="25" rx="0" ry="0"/>
	<polygon fill="#201E1E" points="71,22 76,24 76,25 71,24 	"/>
	<path fill="#373535" d="M49,40c-9,0-13,3-19,11l-4-2c2-3,4-7,7-10c8-9,15-9,18-8c5,2,2,10-2,10V40z"/>
	<polygon fill="#F2BBA1" points="23,50 26,49 30,51 30,51 31,52 31,55 29,56 24,55 	"/>
	<path fill="#201E1E" d="M28,50c3-2,5-6,8-8l3-1c1-1,6-1,9-3c3-1,3-5,5-5c2,3-1,8-4,8c-9,0-13,3-19,11l-2-1V50z"/>
	<polygon fill="#EEAC95" points="30,51 30,54 28,55 24,54 23,50 26,49 	"/>
	<polygon fill="#ED3237" points="35,49 53,52 52,57 33,52 	"/>
	<polygon fill="#AB3235" points="53,54 52,57 33,52 34,51 	"/>
	<polygon fill="#201E1E" points="116.564,56.34 115.539,55.365 103.742,63.661 105.791,65.611 115.763,64.363 	"/>
	<polygon fill="#373535" points="135.608,49.615 147.166,56.785 124.767,68.067 115.644,64.225 114.856,56.988 125.077,58.223 	"/>
	<polygon fill="#201E1E" points="115.267,63.299 114.479,56.061 123.774,57.674 135.608,49.615 146.584,52.703 124.562,64.912 	"/>
	<g id="_237398872">
		<path fill="#373535" d="M159,35c6,3,10,9,19,6l3,5C153,52,150,31,159,35z"/>
		<path fill="#201E1E" d="M179,46c-16,3-27-1-25-8c0-2,2-3,4-1c5,3,12,8,19,6L179,46z"/>
		<polygon fill="#F2BBA1" points="177,40 179,38 183,39 184,43 183,45 179,46 		"/>
		<polygon fill="#EEAC95" points="181,45 179,46 177,42 179,40 181,40 179,42 180,44 		"/>
	</g>
	<path fill="#201E1E" d="M151,32l-19,22l19,7c0,0,4-23,5-24s3-4,3-4l-3-4L151,32z"/>
	<path fill="#373535" d="M149,33l-14,19l14,10c0-1-7-3-6-9c0-2,7-4,8-6c3-5,3-10,3-11c1-1,3-4,3-4l-2-3l-5,4H149z"/>
	<polygon fill="#AB3235" points="150,32 147.75,54 145.75,52.75 148,32 	"/>
	<path fill="#ED3237" d="M154,15c-4,0-9-1-12,1l-3-1c3-2,12-1,15-1l1,1H154z"/>
	<path fill="#ED3237" d="M154,15c-2-5-4-9-9-9l1-2c5,1,7,7,9,10L154,15z"/>
	<path fill="#373535" d="M170,9c8,1,5,9,6,17c1,9,1,10-7,11s-17-6-18-15c0-6,4-12,10-14C164,7,167,9,170,9z"/>
	<path fill="#201E1E" d="M170,9c8,1,5,9,6,17c0,4,0,7,0,8h-1c-7,1-15-6-15-13C160,16,170,9,170,9z"/>
	<path fill="#EEAC95" d="M175.797,24.094c0.156,0.984,0.161,1.936,0.328,2.922c0.172,1.016,0.313,2.953,0.313,3.953
		c-3-1-5.438,0.031-8.438-1.969c-1-1-2-7,0-8c4-1,4,3,7,4l0,0L175.797,24.094z"/>
	<path fill="#ED3237" d="M153.167,12.479l22.063,0.25c0.396,1.021,0.583,3.125,0.583,5.125l-24.208-2.958
		C151.604,13.896,153.167,12.479,153.167,12.479z"/>
	<path fill="#AB3235" d="M153.167,14.792l22.729,1.292c0,1,0,2,0,3L152.125,16C152.125,16,152.167,14.792,153.167,14.792z"/>
	<path fill="#F2BBA1" d="M175,30c-1,0-2,0-3,0s-2,0-3-1s-2-6,0-7c3-1,4,2,6,3l0,0c0,1,0,1,0,2S176,30,175,30z"/>
	
		<ellipse transform="matrix(0.0848 0.9964 -0.9964 0.0848 184.4982 -148.0491)" fill="#201E1E" cx="172.841" cy="26.409" rx="1.988" ry="1.193"/>
	
		<ellipse transform="matrix(0.0848 0.9964 -0.9964 0.0848 184.0034 -149.0744)" fill="#FEFEFE" cx="173.152" cy="25.627" rx="0.741" ry="0.445"/>
	<polygon fill="#201E1E" points="171,23 175,24 175,25 171,24 	"/>
	<g id="_237349376">
		<path fill="#373535" d="M145,36c-6-7-11-8-21-7l-1-5c4-1,8-2,12-2c12,0,16,5,18,8c2,5-6,8-8,5V36z"/>
		<polygon fill="#F2BBA1" points="120.25,22.708 123.25,23.708 124.25,28.708 125.25,28.708 124.25,29.708 122.25,31.708 
			119.25,31.708 117.25,26.708 		"/>
		<path fill="#201E1E" d="M124,27c4,0,8-1,11,1l3,1c1,0,5,4,8,5s6-1,7,0c-1,3-6,4-8,2c-6-7-11-8-21-7l-1-2H124z"/>
		<polygon fill="#EEAC95" points="124.417,29.125 122.417,31.125 120.417,30.125 118.417,26.125 120.417,23.125 123.417,24.125 
			124.417,29.125 125.417,29.125 		"/>
	</g>
	<polygon fill="#ED3237" points="135.917,50.25 152.417,52.464 151.5,58 134.083,52.464 	"/>
	<polygon fill="#AB3235" points="152,54.833 151.096,58 133.917,52.722 134.821,51.667 	"/>
	<g>
		<polygon fill="#201E1E" points="208.991,76.676 208.305,78.804 215.597,86.793 217.423,85.502 215.225,77.745 211.654,74.245 		
			"/>
		<polygon fill="#373535" points="231.366,50.998 243.449,57.242 229.064,75.629 216.818,81.548 210.817,75.385 220.783,67.791 		
			"/>
		<polygon fill="#201E1E" points="214.387,78.885 210.817,75.385 220.783,67.791 231.517,51.986 239.495,57.847 226.784,73.954 		
			"/>
	</g>
	<path fill="#373535" d="M256,34c3,1,6,6,9,6c3,1,6-3,9-5l4,4c-4,4-8,9-12,9c-13,0-17-15-10-13V34z"/>
	<path fill="#201E1E" d="M277,40c-2,3-6,7-9,8c-9,2-16-5-15-10c0-2,1-3,4-2s6,6,9,6c3,1,7-3,10-6L277,40z"/>
	<polygon fill="#F2BBA1" points="273,35 274,33 277,31 280,34 281,36 278,39 	"/>
	<polygon fill="#EEAC95" points="279,37 278,39 274,36 275,34 276,33 276,35 278,37 	"/>
	<path fill="#201E1E" d="M249,32l-20,24l20,4c0,0,4-22,5-23s3-4,3-4l-3-4L249,32z"/>
	<path fill="#373535" d="M247,33l-18,22l18,5c0-1-7-3-5-8c0-2,6-4,8-6c3-4,3-10,3-10c1-1,3-4,3-4l-2-3l-5,4H247z"/>
	<polygon fill="#AB3235" points="249,32 247.25,54 245.5,53.75 246,32 	"/>
	<g id="_238417160">
		<path fill="#ED3237" d="M254,14c-1-4-4-7-3-11l-3,2c-2,4,3,6,5,9h2H254z"/>
		<path fill="#ED3237" d="M254,14c-4-2-10-3-13-6v3c3,4,8,2,12,3l1-1V14z"/>
	</g>
	<path fill="#373535" d="M269,11c7,2,4,9,4,18s-1,10-8,10c-8,0-16-8-16-17c0-6,5-12,11-13C263,8,266,10,269,11z"/>
	<path fill="#201E1E" d="M269,11c7,2,4,9,4,18c0,4,0,7-1,8h-1c-7,0-14-7-14-15C257,17,269,11,269,11z"/>
	<path fill="#EEAC95" d="M272.875,25.958C273,27,273,27.938,273,28.938s-0.021,3-0.021,4c-2.625,0.229-5.104,0.021-7.104-2.979
		c-1-2-1-7,1-8c4,0,4,3,6,5l0,0V25.958z"/>
	<path fill="#ED3237" d="M253.641,12.063l19.938,3.844c0,1,0.422,1.203,0,5l-22.766-5.297
		C251.5,14.172,253.641,12.063,253.641,12.063z"/>
	<path fill="#AB3235" d="M251.406,14.578l22.313,3.141c0,1-0.172,2.172-0.172,3.172l-22.734-5.281L251.406,14.578z"/>
	<path fill="#F2BBA1" d="M272,33c-1,0-2,0-3,0s-2-1-3-2s-1-6,1-7c3,0,4.958,0.292,5,4l0,0c0,1,0,1,0,2S273,33,272,33z"/>
	
		<ellipse transform="matrix(-0.0252 0.9997 -0.9997 -0.0252 305.5953 -241.2645)" fill="#201E1E" cx="270.427" cy="28.362" rx="1.982" ry="1.189"/>
	
		<ellipse transform="matrix(-0.0252 0.9997 -0.9997 -0.0252 305.2597 -242.4183)" fill="#FEFEFE" cx="270.822" cy="27.622" rx="0.739" ry="0.443"/>
	<polygon fill="#201E1E" points="269,24 273,26 273,27 269,26 	"/>
	<g id="_238412816">
		<path fill="#373535" d="M244,37c-7-5-12-5-20-3l-2-4c4-1,7-3,11-4c11-2,16,1,18,4C254,34,247,38,244,37z"/>
		<polygon fill="#F2BBA1" points="218.958,28.75 222.958,29.75 224.958,33.75 224.958,33.75 224.958,34.75 222.958,36.75 
			220.958,37.75 217.958,33.75 		"/>
		<path fill="#201E1E" d="M223,33c3,0,7-2,11-2h3c1,0,5,2,9,3c3,1,5-2,6-1c0,3-5,5-7,4c-7-5-12-5-20-3l-1-2L223,33z"/>
		<polygon fill="#EEAC95" points="224.958,33.875 222.958,35.875 220.958,35.875 217.958,32.875 218.958,28.875 222.958,29.875 		
			"/>
	</g>
	<polygon fill="#ED3237" points="234,49 251,50 250,56 232,52 	"/>
	<polygon fill="#AB3235" points="251,51 250,55 232,52 233,51 	"/>
	<g>
		<polygon fill="#201E1E" points="233.423,50.206 250.318,57.103 261.056,62.552 260.658,67.006 248.527,77.148 242.045,74.324 
			247.947,68.565 236.883,61.74 		"/>
		<polygon fill="#373535" points="247.676,76.623 242.045,74.324 248.472,67.714 230.925,58.064 229.096,53.411 233.423,50.206 
			246.914,55.003 260.205,62.027 258.431,66.808 		"/>
		<polygon fill="#201E1E" points="242.154,73.4 240.866,79.26 255.398,78.358 256.042,75.428 248.443,72.734 		"/>
	</g>
	<g id="_238418216">
		<path fill="#373535" d="M351,38c-6,1-14-1-18,7l-6-2C346,21,362,36,351,38z"/>
		<path fill="#201E1E" d="M329,42c11-12,23-16,25-9c1,2,0,3-3,4c-6,1-15,1-19,8L329,42z"/>
		<polygon fill="#F2BBA1" points="332.688,44.875 331.688,47.875 328.688,49.875 324.688,47.875 324.688,45.875 327.688,41.875 		
			"/>
		<polygon fill="#EEAC95" points="327,44 327.688,41.875 330.688,44.875 332,47 331,48 331,46 329,44 		"/>
	</g>
	<path fill="#201E1E" d="M351,30l-22,25l21,6c0,0,4-25,6-26c1-1,3-4,3-4l-3-4L351,30z"/>
	<path fill="#373535" d="M349,31l-20,24l19,5c-2-1-7-4-5-8c1-2,6-5,7-8c3-5,3-10,3-11c1-1,3-4,3-4l-2-3l-6,4L349,31z"/>
	<polygon fill="#AB3235" points="350,31 352,54 350,54 348,30 	"/>
	<path fill="#ED3237" d="M355,13c-2-3-10-4-11-8h-3c0,4,11,5,13,8H355z"/>
	<path fill="#ED3237" d="M355,13c-3,0-13,7-16,5l-2,2c3,2,15-5,17-6v-1H355z"/>
	<path fill="#373535" d="M371,8c8,2,4,9,4,18s0,11-8,11s-17-8-17-17c0-6,5-12,11-14c3-1,6,1,9,2H371z"/>
	<path fill="#201E1E" d="M371,8c8,2,4,9,4,18c0,4,0,7-1,8h-1c-7,0-15-7-15-15C358,7.529,369.188,8.063,371,8z"/>
	<path fill="#EEAC95" d="M374.906,29.906c-3-1-3.906,0.094-6.906-2.906c-1-2-1-7,1-8c4,0,4.125,3.021,6.125,4.021l0,0
		C375.125,23.021,374.906,28.906,374.906,29.906z"/>
	<path fill="#ED3237" d="M353.813,10.781L376,13c0,1,0,3,0,5l-23.938-5.031C353.063,11.969,352.813,10.781,353.813,10.781z"/>
	<path fill="#AB3235" d="M376,14c0,1,0,2,0,3l-23.531-4.531c0,0-0.344-1.094,0.656-1.094L376,14z"/>
	<path fill="#F2BBA1" d="M375,30c-0.147,0.989-5-1-6-2s-1-6,1-7c3,0,4,2,5,4l0,0c0,1,0,1,0,2S375.125,29.156,375,30z"/>
	<ellipse fill="#201E1E" cx="373" cy="26" rx="1" ry="2"/>
	<ellipse fill="#FEFEFE" cx="373" cy="25" rx="0" ry="0"/>
	<polygon fill="#201E1E" points="371,22 375,23 375,24 371,23 	"/>
	<polygon fill="#ED3237" points="334,49 353,52 351,57 332,52 	"/>
	<polygon fill="#AB3235" points="352,54 351,57 332,52 333,51 	"/>
	<g id="_237281256">
		<path fill="#373535" d="M354,37c-4,8-4,13,0,22l-4,3c-2-4-4-7-6-11c-4-12-1-17,2-20C350,27,356,34,354,37z"/>
		<polygon fill="#F2BBA1" points="349.875,64.438 349.875,61.438 353.875,58.438 353.875,58.438 354.875,57.438 357.875,59.438 
			357.875,62.438 354.875,65.438 		"/>
		<path fill="#201E1E" d="M353,60c-1-4-3-7-3-11v-3c0-1,2-6,2-10s-3-5-2-7c3,0,6,4,5,7c-4,8-4,13,0,22l-2,1V60z"/>
		<polygon fill="#EEAC95" points="353.875,58.438 355.875,60.438 356.875,62.438 352.875,65.438 349.875,64.438 349.875,61.438 		
			"/>
	</g>
	<polygon fill="#201E1E" points="462.655,82.773 464.465,84.086 473.729,75.889 472.806,74.115 464.324,75.143 461.271,80.111 	"/>
	<polygon fill="#373535" points="437,59 447,48 461,61 467,75 461,81 454,71 	"/>
	<polygon fill="#201E1E" points="465,77 461,81 454,71 434,56 445,50 459,63 	"/>
	<path fill="#373535" d="M453,34c-6-3-11-9-19-5l-4-5C459,17,463,39,453,34z"/>
	<path fill="#201E1E" d="M433,23c17-4,28,0,26,8c0,2-2,3-5,2c-6-3-12-8-20-5l-1-4V23z"/>
	<polygon fill="#F2BBA1" points="434,29 433,31 429,30 427,26 428,24 432,23 	"/>
	<polygon fill="#EEAC95" points="430,24 432,23 434,28 432,30 430,29 432,28 431,25 	"/>
	<path fill="#201E1E" d="M455,29l-22,26l23,3c0,0,4-22,5-24c1-1,3-4,3-4l-4-4L455,29z"/>
	<path fill="#373535" d="M453,31l-20,25c15,1,10,0,17-11c3-5,8-10,9-10c1-1,3-4,3-4l-3-3l-6,4V31z"/>
	<polygon fill="#AB3235" points="454,30 453,54 451,54 452,29 	"/>
	<g id="_236709904">
		<path fill="#ED3237" d="M458,13c-4,0-14-1-18,1l-4-2c4-2,18.375-0.75,21.375-0.75L457,12L458,13z"/>
		<path fill="#ED3237" d="M458,13c-2-3-12-8-21-8l6-1C447,6,457,10,458,13l-1,1L458,13z"/>
		<path fill="#373535" d="M474,9c8,2,4,10,4,18c0,9,0,11-8,11s-17-8-17-17c0-6,5-12,11-14c3-1,6,1,9,2H474z"/>
		<path fill="#201E1E" d="M474,9c8,2,4,10,4,18c0,4,0,7-1,8h-1c-7,0-15-7-15-15c0-5,5-11,10-12C472,8,474,9,474,9z"/>
		<path fill="#EEAC95" d="M478.313,23.375c-0.188,1-0.188,1.938-0.188,2.938S478,29.781,478,30.781
			c-3.813,0.406-3.844,0.25-6.844-2.75c-1-2-1-7,1-9C476.156,19.031,478.313,23.375,478.313,23.375z"/>
		<path fill="#ED3237" d="M457.375,10.875L479,13c0,1,0,3,0,5l-23-5C456.458,11.958,457.375,10.875,457.375,10.875z"/>
		<path fill="#AB3235" d="M456,12.75l23.031,3.094c0,1,0.094,2.063-0.25,3.094l-23.615-5.188L456,12.75z"/>
		<path fill="#F2BBA1" d="M477.156,29.938C476.914,30.908,476,31,475,31s-2-1-3-2s-1-6,1-7c3,0,2.688,1.563,4.688,2.563
			l-0.188,1.094C477.5,26.656,477.375,29.063,477.156,29.938z"/>
		
			<ellipse transform="matrix(-0.0045 1 -1 -0.0045 504.6564 -449.0811)" fill="#201E1E" cx="475.861" cy="26.655" rx="2.061" ry="1.237"/>
		<ellipse fill="#FEFEFE" cx="476.279" cy="25.882" rx="0.461" ry="0.768"/>
		<polygon fill="#201E1E" points="472.75,22.625 476.875,23.625 477.625,24.969 472.625,23.969 		"/>
	</g>
	<path fill="#373535" d="M459,29c7,7,12,8,21,7l1,5c-4,1-8,2-13,2c-13,0-17-5-18-8c-2-5,6-8,9-5V29z"/>
	<path fill="#201E1E" d="M481,39c-4,0-8,0-12-1l-3-1c-1,0-5-4-9-6c-3-2-6,1-7,0c1-3,7-5,9-2c7,7,12,8,21,7l1,2V39z"/>
	<g id="_236712376">
		<polygon fill="#F2BBA1" points="485,42 481,41 480,36 480,36 480,35 483,33 485,33 487,38 		"/>
		<polygon fill="#EEAC95" points="480,36 482,34 484,35 487,39 485,42 481,41 		"/>
	</g>
	<g>
		<polygon fill="#201E1E" points="413.373,55.102 411.243,53.241 402.138,66.883 404.268,68.744 413.046,65.147 		"/>
		<polygon fill="#201E1E" points="439.209,48.023 453.192,51.104 422.758,71.074 413.446,65.947 412.071,54.988 422.146,58.924 		
			"/>
		<polygon fill="#373535" points="413.995,63.779 411.857,54.011 421.932,57.947 439.209,48.023 447.452,48.266 422.117,68.144 		
			"/>
	</g>
	<polygon fill="#ED3237" points="440,46 457.25,51.167 456.417,56.833 438,47 	"/>
	<polygon fill="#AB3235" points="456.75,53.167 456.5,57 438,47 439,47 	"/>
	<path fill="#201E1E" d="M552,38c-8-4-13-3-22,0l-3-4c4-2,7-4,11-6c11-4,17-1,19,1c4,4-2,9-6,8L552,38z"/>
	<path fill="#373535" d="M530,37c4-1,7-3,11-3h3c1,0,6,2,9,2s5-3,7-2c0,3-4,6-7,5c-8-4-13-3-22,0L530,37z"/>
	<path fill="#201E1E" d="M554,31l-21,25l22-3c0,0,3-16,4-17s3-4,3-4l-3-4L554,31z"/>
	<path fill="#373535" d="M552,32l-19,24c16,0,9-1,16-12c3-5,7-8,8-9s-3-3-3-3H552z"/>
	<polygon fill="#AB3235" points="554,31 553.188,49.313 551.25,49.75 551,31 	"/>
	<g id="_236736424">
		<path fill="#ED3237" d="M555,14c-1-4-3-7-3-11l-2,2c-1,4,3,6,4,8h1V14z"/>
		<path fill="#ED3237" d="M555,14c-3-1-8-2-10-4v3c2,3,6,1,9,2L555,14z"/>
	</g>
	<path fill="#373535" d="M570,9c8,1,5,9,6,17c1,9,1,10-7,11s-17-6-18-15c0-6,4-12,10-14C564,7,567,9,570,9z"/>
	<path fill="#201E1E" d="M570,9c8,1,5,9,6,17c0,4,0.917,5.229,0,8h-1c-7,1-15-6-15-13C560,7.584,568.688,9.042,570,9z"/>
	<path fill="#EEAC95" d="M575.833,23.792c0,1,0.019,1.219,0.167,2.208c0.146,0.979,0.333,2.979,0.333,3.979
		C574.541,29.833,569.52,30.958,568,28c-1-1-2-7,1-8C572.563,20.563,575.833,23.792,575.833,23.792z"/>
	<path fill="#ED3237" d="M554.292,12.521l20.979,0.396c0.792,0.979,0.521,2.875,0.521,4.875l-22.896-3.104
		C552.896,13.688,554.292,12.521,554.292,12.521z"/>
	<path fill="#AB3235" d="M553,14l22.896,1.083c0,1-0.083,2.104-0.083,3.104l-23.354-2.729C552.458,15.458,552.604,13.896,553,14z"/>
	<path fill="#F2BBA1" d="M575,30c-1,0-2,0-3,0s-2,0-3-1s-1-6,0-7c3-1,4,2,6,3l0,0c0,1,0,1,0,2S576,30,575,30z"/>
	
		<ellipse transform="matrix(0.0827 0.9966 -0.9966 0.0827 551.7646 -546.9138)" fill="#201E1E" cx="572.971" cy="26.267" rx="1.997" ry="1.198"/>
	
		<ellipse transform="matrix(0.0827 0.9966 -0.9966 0.0827 551.2719 -547.947)" fill="#FEFEFE" cx="573.286" cy="25.483" rx="0.744" ry="0.447"/>
	<polygon fill="#201E1E" points="571,22 575,24 575,25 571,24 	"/>
	<polygon fill="#F2BBA1" points="531,39 530,41 526,41 524,37 525,35 529,34 	"/>
	<polygon fill="#EEAC95" points="527,35 529,34 531,38 529,40 527,40 529,38 528,36 	"/>
	<g id="_237470536">
		<path fill="#201E1E" d="M555,31c3,2,4,8,6,10c3,2,7-1,11-2l2,5c-6,3-11,5-15,4C546,43,548,27,555,31z"/>
		<path fill="#373535" d="M573,45c-4,2-9,5-12,4c-9-2-14-11-11-16c0-2,2-2,5-1c2,2,3,8,6,10s8-1,12-1V45z"/>
		<g>
			<polygon fill="#F2BBA1" points="576.021,45.76 573.021,44.76 573.021,39.76 572.021,39.76 573.021,37.76 575.021,36.76 
				578.021,36.76 579.417,42.833 			"/>
			<polygon fill="#EEAC95" points="572,39 575,38 577,39 579,43 576,46 573,45 572,40 			"/>
		</g>
	</g>
	<g>
		<polygon fill="#201E1E" points="512.859,79.28 511.13,81.519 518.966,87.569 520.822,86.322 519.801,78.387 515.579,76.913 		"/>
		<polygon fill="#201E1E" points="538.433,50.785 553.438,49.864 533.432,74.618 520.312,82.354 514.715,78.033 525.596,68.568 		
			"/>
		<polygon fill="#373535" points="518.073,80.626 514.715,78.033 525.596,68.568 537.441,50.913 546.368,49.765 530.201,73.017 		
			"/>
	</g>
	<polygon fill="#ED3237" points="538,49 556.25,47.375 555.563,50 536,52 	"/>
	<polygon fill="#AB3235" points="555.75,48.625 555.563,50 536,52 537,50 	"/>
	<polygon fill="#201E1E" points="164.553,81.323 166.779,81.534 177.101,72.182 175.447,70.677 165.759,73.351 162.539,78.886 	"/>
	<polygon fill="#201E1E" points="134,53 137,48 159,57 170,72 163,79 155,70 	"/>
	<polygon fill="#373535" points="169,74 163,79 155,70 133,53 136,50 158,59 	"/>
	<path fill="#AB3235" d="M55,13l22,2c0,1,0,2,0,3l-23-5c0,0,0-1,1-1V13z"/>
	
		<ellipse transform="matrix(-0.0252 0.9997 -0.9997 -0.0252 408.275 -346.9146)" fill="#FEFEFE" cx="373.277" cy="25.599" rx="0.739" ry="0.443"/>
	
		<ellipse transform="matrix(0.0848 0.9964 -0.9964 0.0848 92.5344 -49.6699)" fill="#FEFEFE" cx="73.306" cy="25.537" rx="0.741" ry="0.445"/>
</g>
</svg>
