<?xml version="1.0" encoding="utf-8"?>
<!-- Generator: Adobe Illustrator 17.0.0, SVG Export Plug-In . SVG Version: 6.00 Build 0)  -->
<!DOCTYPE svg PUBLIC "-//W3C//DTD SVG 1.1//EN" "http://www.w3.org/Graphics/SVG/1.1/DTD/svg11.dtd">
<svg version="1.1" id="Capa_1" xmlns="http://www.w3.org/2000/svg" xmlns:xlink="http://www.w3.org/1999/xlink" x="0px" y="0px"
	 width="599px" height="100px" viewBox="0 0 599 100" enable-background="new 0 0 599 100" xml:space="preserve">
<g id="Capa_x0020_1">
	<g>
		<polygon fill="#201E1E" points="266.5,87.333 261.5,86.333 254.5,90.333 254.5,92.333 267.5,92.333 267.5,90.333 		"/>
		<polygon fill="#201E1E" points="274.5,74.333 279.5,81.333 281.5,80.333 280.5,67.333 278.5,68.333 		"/>
		<polygon fill="#373535" points="264.5,75.333 266.5,88.333 258.5,88.333 251.5,74.333 251.5,55.333 266.5,55.333 		"/>
		<polygon fill="#201E1E" points="254.5,74.333 254.5,55.333 266.5,55.333 264.5,75.333 266.5,88.333 261.5,88.333 		"/>
		<polygon fill="#201E1E" points="268.5,66.333 277.5,66.333 275.5,75.333 260.5,75.333 252.5,59.333 263.5,55.333 		"/>
		<polygon fill="#373535" points="261.5,72.333 255.5,57.333 265.5,53.333 269.5,65.333 280.5,67.333 277.5,73.333 		"/>
	</g>
	<g>
		<polygon fill="#201E1E" points="566.333,86.333 561.333,85.333 554.333,89.333 555.333,91.333 567.333,92.333 567.333,90.333 		
			"/>
		<polygon fill="#201E1E" points="572.333,72.333 577.333,79.333 579.333,78.333 578.333,66.333 576.333,66.333 		"/>
		<polygon fill="#373535" points="568.333,65.333 577.333,66.333 573.333,73.333 564.333,74.333 551.333,59.333 563.333,55.333 		
			"/>
		<polygon fill="#201E1E" points="566.333,72.333 564.333,54.333 565.333,53.333 569.333,65.333 577.333,66.333 574.333,72.333 		
			"/>
		<polygon fill="#201E1E" points="564.333,75.333 567.333,87.333 558.333,87.333 552.333,74.333 552.333,55.333 566.333,55.333 		
			"/>
		<polygon fill="#373535" points="555.333,74.333 555.333,55.333 566.333,55.333 564.333,75.333 567.333,87.333 561.333,87.333 		
			"/>
	</g>
	<rect fill="none" width="599" height="100"/>
	<g>
		<polygon fill="#373535" points="55.999,61.167 45.127,68.364 51.444,74.851 45.306,78.362 32.761,70.386 29.865,65.037 45,52.75 
			59.59,49.501 		"/>
		<polygon fill="#201E1E" points="34.954,69.947 32.671,65.387 45.297,55.559 58.976,48.712 56.788,60.553 45.127,68.364 
			51.444,74.851 46.096,77.748 		"/>
		<polygon fill="#201E1E" points="45.481,76.959 39.783,82.662 40.222,84.854 55.13,79.586 51.444,74.851 		"/>
	</g>
	<path fill="#ED3237" d="M545,14c3,0,12,3,15,1v-2c-3,2-13,1-16,0L545,14z"/>
	<path fill="#373535" d="M541,62l-3-5c6-6,2-13,2-19C539,27,558,38,541,62z"/>
	<path fill="#201E1E" d="M538,59c6-6,3-14,3-20c0-3,1-5,3-4c4,3,7,12-2,26L538,59z"/>
	<polygon fill="#F2BBA1" points="542,61 540,65 538,65 534,62 535,58 538,57 	"/>
	<polygon fill="#EEAC95" points="540,61 538,60 536,61 536,59 539,58 542,61 541,63 	"/>
	<path fill="#201E1E" d="M542,27l-3,4c0,0,2,3,3,4c2,1,6,26,6,26l21-6l-22-25L542,27z"/>
	<path fill="#373535" d="M551,32l-6-4l-2,3c0,0,2,3,3,4c0,1,0,6,3,11c1,2,8,4,8,6c1,6-6,8-6,9l19-5l-20-24H551z"/>
	<polygon fill="#AB3235" points="551,31 549,54 547,54 548,31 	"/>
	<path fill="#ED3237" d="M544,13c2-2,15-2,15-6l-1-1c-1,3-13,4-15,7H544z"/>
	<path fill="#373535" d="M536,7c6,2,11,8,11,14c0,8-8,16-16,16s-8-1-8-10s-4-16,4-18C530,8,533,6,536,7z"/>
	<path fill="#201E1E" d="M526,9h1c1,0,1,0,2,0c6,2,10,7,10,12c0,7-7,14-14,14h-1c-1-1-1-4-1-8c0-9-4-16,4-18H526z"/>
	<path fill="#EEAC95" d="M524.045,23.84L524.045,23.84c2-1,2-4,6-4c2,1,2,6,1,8c-3,3-5,2-8,3c0-1-0.107-3.03-0.107-4.03
		s-0.064-2.065-0.064-3.065L524.045,23.84z"/>
	<path fill="#ED3237" d="M545,13l-23,5c0-2,0-4,0-5l21-2C544,11,544,12,545,13z"/>
	<path fill="#F2BBA1" d="M524,30c0-1,0-4,0-5l0,0c1-2,2-4,5-4c2,1,2,6,1,7s-2,2-3,2S525,30,524,30"/>
	<ellipse fill="#201E1E" cx="526" cy="26" rx="1" ry="2"/>
	<ellipse fill="#FEFEFE" cx="525" cy="25" rx="0" ry="0"/>
	<polygon fill="#201E1E" points="528,24 523,25 523,24 528,22 	"/>
	<path fill="#373535" d="M550,41c-4,0-7-8-2-10c3-1,10-1,18,8c3,3,5,7,7,10l-4,2c-6-8-10-11-19-11V41z"/>
	<polygon fill="#F2BBA1" points="575,55 570,56 568,55 568,52 569,51 569,51 573,49 576,50 	"/>
	<path fill="#201E1E" d="M571,51l-2,1c-6-8-10-11-19-11c-3,0-6-5-4-8c2,0,2,4,5,5c3,2,8,2,9,3l3,1c3,2,5,6,8,8V51z"/>
	<polygon fill="#EEAC95" points="573,49 576,50 575,54 571,55 569,54 569,51 	"/>
	<polygon fill="#ED3237" points="566,52 547,57 546,52 564,49 	"/>
	<polygon fill="#AB3235" points="565,51 566,52 547,57 546,54 	"/>
	<polygon fill="#201E1E" points="483.237,64.363 493.209,65.611 495.258,63.661 483.461,55.365 482.436,56.34 	"/>
	<polygon fill="#373535" points="473.923,58.223 484.144,56.988 483.356,64.225 474.233,68.067 451.834,56.785 463.392,49.615 	"/>
	<polygon fill="#201E1E" points="474.438,64.912 452.416,52.703 463.392,49.615 475.226,57.674 484.521,56.061 483.733,63.299 	"/>
	<g id="_237398872">
		<path fill="#373535" d="M418,46l3-5c9,3,13-3,19-6C449,31,446,52,418,46z"/>
		<path fill="#201E1E" d="M422,43c7,2,14-3,19-6c2-2,4-1,4,1c2,7-9,11-25,8L422,43z"/>
		<polygon fill="#F2BBA1" points="420,46 416,45 415,43 416,39 420,38 422,40 		"/>
		<polygon fill="#EEAC95" points="419,44 420,42 418,40 420,40 422,42 420,46 418,45 		"/>
	</g>
	<path fill="#201E1E" d="M443,29l-3,4c0,0,2,3,3,4s5,24,5,24l19-7l-19-22L443,29z"/>
	<path fill="#373535" d="M449,33l-5-4l-2,3c0,0,2,3,3,4c0,1,0,6,3,11c1,2,8,4,8,6c1,6-6,8-6,9l14-10l-14-19H449z"/>
	<polygon fill="#AB3235" points="451,32 453.25,52.75 451.25,54 449,32 	"/>
	<path fill="#ED3237" d="M444,15l1-1c3,0,12-1,15,1l-3,1c-3-2-8-1-12-1H444z"/>
	<path fill="#ED3237" d="M444,14c2-3,4-9,9-10l1,2c-5,0-7,4-9,9L444,14z"/>
	<path fill="#373535" d="M438,8c6,2,10,8,10,14c-1,9-10,16-18,15s-8-2-7-11c1-8-2-16,6-17C432,9,435,7,438,8z"/>
	<path fill="#201E1E" d="M439,21c0,7-8,14-15,13h-1c0-1,0-4,0-8c1-8-2-16,6-17C429,9,439,16,439,21z"/>
	<path fill="#EEAC95" d="M424,25L424,25c3-1,3-5,7-4c2,1,1,7,0,8c-3,2-5.438,0.969-8.438,1.969c0-1,0.141-2.937,0.313-3.953
		c0.167-0.986,0.172-1.938,0.328-2.922L424,25z"/>
	<path fill="#ED3237" d="M447.395,14.896l-24.208,2.958c0-2,0.187-4.104,0.583-5.125l22.063-0.25
		C445.833,12.479,447.396,13.896,447.395,14.896z"/>
	<path fill="#AB3235" d="M446.875,16l-23.771,3.084c0-1,0-2,0-3l22.729-1.292C446.833,14.792,446.875,16,446.875,16z"/>
	<path fill="#F2BBA1" d="M424,27c0-1,0-1,0-2l0,0c2-1,3-4,6-3c2,1,1,6,0,7s-2,1-3,1s-2,0-3,0S424,28,424,27z"/>
	
		<ellipse transform="matrix(0.0848 -0.9964 0.9964 0.0848 363.7066 448.7935)" fill="#201E1E" cx="426.159" cy="26.409" rx="1.988" ry="1.193"/>
	
		<ellipse transform="matrix(0.0848 -0.9964 0.9964 0.0848 364.201 447.7684)" fill="#FEFEFE" cx="425.848" cy="25.627" rx="0.741" ry="0.445"/>
	<polygon fill="#201E1E" points="428,24 424,25 424,24 428,23 	"/>
	<g id="_237349376">
		<path fill="#373535" d="M454,35c-2,3-10,0-8-5c2-3,6-8,18-8c4,0,8,1,12,2l-1,5c-10-1-15,0-21,7V35z"/>
		<polygon fill="#F2BBA1" points="481.75,26.708 479.75,31.708 476.75,31.708 474.75,29.708 473.75,28.708 474.75,28.708 
			475.75,23.708 478.75,22.708 		"/>
		<path fill="#201E1E" d="M476,27l-1,2c-10-1-15,0-21,7c-2,2-7,1-8-2c1-1,4,1,7,0s7-5,8-5l3-1c3-2,7-1,11-1H476z"/>
		<polygon fill="#EEAC95" points="473.583,29.125 474.583,29.125 475.583,24.125 478.583,23.125 480.583,26.125 478.583,30.125 
			476.583,31.125 474.583,29.125 		"/>
	</g>
	<polygon fill="#ED3237" points="464.917,52.464 447.5,58 446.583,52.464 463.083,50.25 	"/>
	<polygon fill="#AB3235" points="464.179,51.667 465.083,52.722 447.904,58 447,54.833 	"/>
	<g>
		<polygon fill="#201E1E" points="387.346,74.245 383.775,77.745 381.577,85.502 383.403,86.793 390.695,78.804 390.009,76.676 		
			"/>
		<polygon fill="#373535" points="378.217,67.791 388.183,75.385 382.182,81.548 369.936,75.629 355.551,57.242 367.634,50.998 		
			"/>
		<polygon fill="#201E1E" points="372.216,73.954 359.505,57.847 367.483,51.986 378.217,67.791 388.183,75.385 384.613,78.885 		
			"/>
	</g>
	<path fill="#373535" d="M343,35c7-2,3,13-10,13c-4,0-8-5-12-9l4-4c3,2,6,6,9,5c3,0,6-5,9-6V35z"/>
	<path fill="#201E1E" d="M323,36c3,3,7,7,10,6c3,0,6-5,9-6s4,0,4,2c1,5-6,12-15,10c-3-1-7-5-9-8L323,36z"/>
	<polygon fill="#F2BBA1" points="321,39 318,36 319,34 322,31 325,33 326,35 	"/>
	<polygon fill="#EEAC95" points="321,37 323,35 323,33 324,34 325,36 321,39 320,37 	"/>
	<path fill="#201E1E" d="M345,29l-3,4c0,0,2,3,3,4s5,23,5,23l20-4l-20-24L345,29z"/>
	<path fill="#373535" d="M350,33l-5-4l-2,3c0,0,2,3,3,4c0,0,0,6,3,10c2,2,8,4,8,6c2,5-5,7-5,8l18-5l-18-22H350z"/>
	<polygon fill="#AB3235" points="353,32 353.5,53.75 351.75,54 350,32 	"/>
	<g id="_238417160">
		<path fill="#ED3237" d="M344,14h2c2-3,7-5,5-9l-3-2c1,4-2,7-3,11H344z"/>
		<path fill="#ED3237" d="M345,13l1,1c4-1,9,1,12-3V8c-3,3-9,4-13,6V13z"/>
	</g>
	<path fill="#373535" d="M339,9c6,1,11,7,11,13c0,9-8,17-16,17c-7,0-8-1-8-10s-3-16,4-18C333,10,336,8,339,9z"/>
	<path fill="#201E1E" d="M342,22c0,8-7,15-14,15h-1c-1-1-1-4-1-8c0-9-3-16,4-18C330,11,342,17,342,22z"/>
	<path fill="#EEAC95" d="M326.125,26.959L326.125,26.959c2-2,2-5,6-5c2,1,2,6,1,8c-2,3-4.479,3.208-7.104,2.979c0-1-0.021-3-0.021-4
		s0-1.938,0.125-2.98V26.959z"/>
	<path fill="#ED3237" d="M348.187,15.61l-22.766,5.297c-0.422-3.797,0-4,0-5l19.938-3.844
		C345.359,12.063,347.5,14.172,348.187,15.61z"/>
	<path fill="#AB3235" d="M348.187,15.61l-22.734,5.281c0-1-0.172-2.172-0.172-3.172l22.313-3.141L348.187,15.61z"/>
	<path fill="#F2BBA1" d="M327,30c0-1,0-1,0-2l0,0c0.042-3.708,2-4,5-4c2,1,2,6,1,7s-2,2-3,2s-2,0-3,0S327,31,327,30z"/>
	
		<ellipse transform="matrix(-0.0252 -0.9997 0.9997 -0.0252 308.4952 357.55)" fill="#201E1E" cx="328.573" cy="28.367" rx="1.982" ry="1.189"/>
	
		<ellipse transform="matrix(-0.0252 -0.9997 0.9997 -0.0252 308.8311 356.397)" fill="#FEFEFE" cx="328.179" cy="27.626" rx="0.739" ry="0.443"/>
	<polygon fill="#201E1E" points="330,26 326,27 326,26 330,24 	"/>
	<g id="_238412816">
		<path fill="#373535" d="M348,30c2-3,7-6,18-4c4,1,7,3,11,4l-2,4c-8-2-13-2-20,3C352,38,345,34,348,30z"/>
		<polygon fill="#F2BBA1" points="381.042,33.75 378.042,37.75 376.042,36.75 374.042,34.75 374.042,33.75 374.042,33.75 
			376.042,29.75 380.042,28.75 		"/>
		<path fill="#201E1E" d="M375,32l-1,2c-8-2-13-2-20,3c-2,1-7-1-7-4c1-1,3,2,6,1c4-1,8-3,9-3h3c4,0,8,2,11,2L375,32z"/>
		<polygon fill="#EEAC95" points="376.042,29.875 380.042,28.875 381.042,32.875 378.042,35.875 376.042,35.875 374.042,33.875 		
			"/>
	</g>
	<polygon fill="#ED3237" points="367,52 349,56 348,50 365,49 	"/>
	<polygon fill="#AB3235" points="366,51 367,52 349,55 348,51 	"/>
	<g>
		<polygon fill="#201E1E" points="362.117,61.74 351.053,68.565 356.955,74.324 350.473,77.148 338.342,67.006 337.944,62.552 
			348.682,57.103 365.577,50.206 		"/>
		<polygon fill="#373535" points="340.569,66.808 338.795,62.027 352.086,55.003 365.577,50.206 369.904,53.411 368.075,58.064 
			350.528,67.714 356.955,74.324 351.324,76.623 		"/>
		<polygon fill="#201E1E" points="350.557,72.734 342.958,75.428 343.602,78.358 358.134,79.26 356.846,73.4 		"/>
	</g>
	<g id="_238418216">
		<path fill="#373535" d="M272,43l-6,2c-4-8-12-6-18-7C237,36,253,21,272,43z"/>
		<path fill="#201E1E" d="M267,45c-4-7-13-7-19-8c-3-1-4-2-3-4c2-7,14-3,25,9L267,45z"/>
		<polygon fill="#F2BBA1" points="271.312,41.875 274.312,45.875 274.312,47.875 270.312,49.875 267.312,47.875 266.312,44.875 		
			"/>
		<polygon fill="#EEAC95" points="270,44 268,46 268,48 267,47 268.312,44.875 271.312,41.875 272,44 		"/>
	</g>
	<path fill="#201E1E" d="M243,27l-3,4c0,0,2,3,3,4c2,1,6,26,6,26l21-6l-22-25L243,27z"/>
	<path fill="#373535" d="M251,30l-6-4l-2,3c0,0,2,3,3,4c0,1,0,6,3,11c1,3,6,6,7,8c2,4-3,7-5,8l19-5l-20-24L251,30z"/>
	<polygon fill="#AB3235" points="251,30 249,54 247,54 249,31 	"/>
	<path fill="#ED3237" d="M245,13c2-3,13-4,13-8h-3c-1,4-9,5-11,8H245z"/>
	<path fill="#ED3237" d="M245,13v1c2,1,14,8,17,6l-2-2c-3,2-13-5-16-5H245z"/>
	<path fill="#373535" d="M229,8c3-1,6-3,9-2c6,2,11,8,11,14c0,9-9,17-17,17s-8-2-8-11s-4-16,4-18H229z"/>
	<path fill="#201E1E" d="M241,19c0,8-8,15-15,15h-1c-1-1-1-4-1-8c0-9-4-16,4-18C229.812,8.063,241,7.529,241,19z"/>
	<path fill="#EEAC95" d="M223.875,23.021L223.875,23.021c2-1,2.125-4.021,6.125-4.021c2,1,2,6,1,8c-3,3-3.906,1.906-6.906,2.906
		C224.094,28.906,223.875,23.021,223.875,23.021z"/>
	<path fill="#ED3237" d="M246.938,12.969L223,18c0-2,0-4,0-5l22.187-2.219C246.187,10.781,245.937,11.969,246.938,12.969z"/>
	<path fill="#AB3235" d="M245.875,11.375c1,0,0.656,1.094,0.656,1.094L223,17c0-1,0-2,0-3L245.875,11.375z"/>
	<path fill="#F2BBA1" d="M224,27c0-1,0-1,0-2l0,0c1-2,2-4,5-4c2,1,2,6,1,7s-5.853,2.989-6,2C223.875,29.156,224,28,224,27z"/>
	<ellipse fill="#201E1E" cx="226" cy="26" rx="1" ry="2"/>
	<ellipse fill="#FEFEFE" cx="226" cy="25" rx="0" ry="0"/>
	<polygon fill="#201E1E" points="228,23 224,24 224,23 228,22 	"/>
	<polygon fill="#ED3237" points="267,52 248,57 246,52 265,49 	"/>
	<polygon fill="#AB3235" points="266,51 267,52 248,57 247,54 	"/>
	<g id="_237281256">
		<path fill="#373535" d="M253,31c3,3,6,8,2,20c-2,4-4,7-6,11l-4-3c4-9,4-14,0-22C243,34,249,27,253,31z"/>
		<polygon fill="#F2BBA1" points="244.125,65.438 241.125,62.438 241.125,59.438 244.125,57.438 245.125,58.438 245.125,58.438 
			249.125,61.438 249.125,64.438 		"/>
		<path fill="#201E1E" d="M246,59l-2-1c4-9,4-14,0-22c-1-3,2-7,5-7c1,2-2,3-2,7s2,9,2,10v3c0,4-2,7-3,11V59z"/>
		<polygon fill="#EEAC95" points="249.125,61.438 249.125,64.438 246.125,65.438 242.125,62.438 243.125,60.438 245.125,58.438 		
			"/>
	</g>
	<polygon fill="#201E1E" points="137.729,80.111 134.676,75.143 126.194,74.115 125.271,75.889 134.535,84.086 136.345,82.773 	"/>
	<polygon fill="#373535" points="145,71 138,81 132,75 138,61 152,48 162,59 	"/>
	<polygon fill="#201E1E" points="140,63 154,50 165,56 145,71 138,81 134,77 	"/>
	<path fill="#373535" d="M169,24l-4,5c-8-4-13,2-19,5C136,39,140,17,169,24z"/>
	<path fill="#201E1E" d="M166,24l-1,4c-8-3-14,2-20,5c-3,1-5,0-5-2c-2-8,9-12,26-8V24z"/>
	<polygon fill="#F2BBA1" points="167,23 171,24 172,26 170,30 166,31 165,29 	"/>
	<polygon fill="#EEAC95" points="168,25 167,28 169,29 167,30 165,28 167,23 169,24 	"/>
	<path fill="#201E1E" d="M139,26l-4,4c0,0,2,3,3,4c1,2,5,24,5,24l23-3l-22-26L139,26z"/>
	<path fill="#373535" d="M146,32l-6-4l-3,3c0,0,2,3,3,4c1,0,6,5,9,10c7,11,2,12,17,11l-20-25V32z"/>
	<polygon fill="#AB3235" points="147,29 148,54 146,54 145,30 	"/>
	<g id="_236709904">
		<path fill="#ED3237" d="M142,12l-0.375-0.75c3,0,17.375-1.25,21.375,0.75l-4,2c-4-2-14-1-18-1L142,12z"/>
		<path fill="#ED3237" d="M142,14l-1-1c1-3,11-7,15-9l6,1c-9,0-19,5-21,8L142,14z"/>
		<path fill="#373535" d="M126,9c3-1,6-3,9-2c6,2,11,8,11,14c0,9-9,17-17,17s-8-2-8-11c0-8-4-16,4-18H126z"/>
		<path fill="#201E1E" d="M128,8c5,1,10,7,10,12c0,8-8,15-15,15h-1c-1-1-1-4-1-8c0-8-4-16,4-18C125,9,127,8,128,8z"/>
		<path fill="#EEAC95" d="M126.844,19.031c2,2,2,7,1,9c-3,3-3.031,3.156-6.844,2.75c0-1-0.125-3.468-0.125-4.468
			s0-1.938-0.188-2.938C120.687,23.375,122.844,19.031,126.844,19.031z"/>
		<path fill="#ED3237" d="M143,13l-23,5c0-2,0-4,0-5l21.625-2.125C141.625,10.875,142.542,11.958,143,13z"/>
		<path fill="#AB3235" d="M143.834,13.75l-23.615,5.188c-0.344-1.031-0.25-2.094-0.25-3.094L143,12.75L143.834,13.75z"/>
		<path fill="#F2BBA1" d="M121.5,25.657l-0.188-1.094c2-1,1.688-2.563,4.688-2.563c2,1,2,6,1,7s-2,2-3,2s-1.914-0.092-2.156-1.062
			C121.625,29.063,121.5,26.656,121.5,25.657z"/>
		
			<ellipse transform="matrix(-0.0045 -1 1 -0.0045 97.0344 149.9187)" fill="#201E1E" cx="123.14" cy="26.66" rx="2.061" ry="1.237"/>
		<ellipse fill="#FEFEFE" cx="122.721" cy="25.882" rx="0.461" ry="0.768"/>
		<polygon fill="#201E1E" points="126.375,23.969 121.375,24.969 122.125,23.625 126.25,22.625 		"/>
	</g>
	<path fill="#373535" d="M140,30c3-3,11,0,9,5c-1,3-5,8-18,8c-5,0-9-1-13-2l1-5c9,1,14,0,21-7V30z"/>
	<path fill="#201E1E" d="M118,38l1-2c9,1,14,0,21-7c2-3,8-1,9,2c-1,1-4-2-7,0c-4,2-8,6-9,6l-3,1c-4,1-8,1-12,1V38z"/>
	<g id="_236712376">
		<polygon fill="#F2BBA1" points="112,38 114,33 116,33 119,35 119,36 119,36 118,41 114,42 		"/>
		<polygon fill="#EEAC95" points="118,41 114,42 112,39 115,35 117,34 119,36 		"/>
	</g>
	<g>
		<polygon fill="#201E1E" points="185.954,65.147 194.732,68.744 196.862,66.883 187.757,53.241 185.627,55.102 		"/>
		<polygon fill="#201E1E" points="176.854,58.924 186.929,54.988 185.554,65.947 176.242,71.074 145.808,51.104 159.791,48.023 		
			"/>
		<polygon fill="#373535" points="176.883,68.144 151.548,48.266 159.791,48.023 177.068,57.947 187.143,54.011 185.005,63.779 		
			"/>
	</g>
	<polygon fill="#ED3237" points="161,47 142.583,56.833 141.75,51.167 159,46 	"/>
	<polygon fill="#AB3235" points="160,47 161,47 142.5,57 142.25,53.167 	"/>
	<path fill="#201E1E" d="M48,37c-4,1-10-4-6-8c2-2,8-5,19-1c4,2,7,4,11,6l-3,4c-9-3-14-4-22,0L48,37z"/>
	<path fill="#373535" d="M68,39c-9-3-14-4-22,0c-3,1-7-2-7-5c2-1,4,2,7,2s8-2,9-2h3c4,0,7,2,11,3L68,39z"/>
	<path fill="#201E1E" d="M40,28l-3,4c0,0,2,3,3,4s4,17,4,17l22,3L45,31L40,28z"/>
	<path fill="#373535" d="M45,32c0,0-4,2-3,3s5,4,8,9c7,11,0,12,16,12L47,32H45z"/>
	<polygon fill="#AB3235" points="48,31 47.75,49.75 45.812,49.313 45,31 	"/>
	<g id="_236736424">
		<path fill="#ED3237" d="M44,13h1c1-2,5-4,4-8l-2-2c0,4-2,7-3,11V13z"/>
		<path fill="#ED3237" d="M45,15c3-1,7,1,9-2v-3c-2,2-7,3-10,4L45,15z"/>
	</g>
	<path fill="#373535" d="M38,8c6,2,10,8,10,14c-1,9-10,16-18,15s-8-2-7-11c1-8-2-16,6-17C32,9,35,7,38,8z"/>
	<path fill="#201E1E" d="M39,21c0,7-8,14-15,13h-1c-0.917-2.771,0-4,0-8c1-8-2-16,6-17C30.312,9.042,39,7.584,39,21z"/>
	<path fill="#EEAC95" d="M30,20c3,1,2,7,1,8c-1.52,2.958-6.541,1.833-8.333,1.979c0-1,0.187-3,0.333-3.979
		c0.148-0.989,0.167-1.208,0.167-2.208C23.167,23.792,26.437,20.563,30,20z"/>
	<path fill="#ED3237" d="M46.104,14.688l-22.896,3.104c0-2-0.271-3.896,0.521-4.875l20.979-0.396
		C44.708,12.521,46.104,13.688,46.104,14.688z"/>
	<path fill="#AB3235" d="M46.541,15.458l-23.354,2.729c0-1-0.083-2.104-0.083-3.104L46,14
		C46.396,13.896,46.542,15.458,46.541,15.458z"/>
	<path fill="#F2BBA1" d="M24,27c0-1,0-1,0-2l0,0c2-1,3-4,6-3c1,1,1,6,0,7s-2,1-3,1s-2,0-3,0S24,28,24,27z"/>
	
		<ellipse transform="matrix(0.0827 -0.9966 0.9966 0.0827 -2.3155 50.0472)" fill="#201E1E" cx="26.028" cy="26.281" rx="1.997" ry="1.198"/>
	
		<ellipse transform="matrix(0.0827 -0.9966 0.9966 0.0827 -1.8227 49.0143)" fill="#FEFEFE" cx="25.714" cy="25.497" rx="0.744" ry="0.447"/>
	<polygon fill="#201E1E" points="28,24 24,25 24,24 28,22 	"/>
	<polygon fill="#F2BBA1" points="70,34 74,35 75,37 73,41 69,41 68,39 	"/>
	<polygon fill="#EEAC95" points="71,36 70,38 72,40 70,40 68,38 70,34 72,35 	"/>
	<g id="_237470536">
		<path fill="#201E1E" d="M40,48c-4,1-9-1-15-4l2-5c4,1,8,4,11,2c2-2,3-8,6-10C51,27,53,43,40,48z"/>
		<path fill="#373535" d="M26,41c4,0,9,3,12,1s4-8,6-10c3-1,5-1,5,1c3,5-2,14-11,16c-3,1-8-2-12-4V41z"/>
		<g>
			<polygon fill="#F2BBA1" points="19.583,42.833 20.979,36.76 23.979,36.76 25.979,37.76 26.979,39.76 25.979,39.76 25.979,44.76 
				22.979,45.76 			"/>
			<polygon fill="#EEAC95" points="27,40 26,45 23,46 20,43 22,39 24,38 27,39 			"/>
		</g>
	</g>
	<g>
		<polygon fill="#201E1E" points="83.421,76.913 79.199,78.387 78.178,86.322 80.034,87.569 87.87,81.519 86.141,79.28 		"/>
		<polygon fill="#201E1E" points="73.404,68.568 84.285,78.033 78.688,82.354 65.568,74.618 45.562,49.864 60.567,50.785 		"/>
		<polygon fill="#373535" points="68.799,73.017 52.632,49.765 61.559,50.913 73.404,68.568 84.285,78.033 80.927,80.626 		"/>
	</g>
	<polygon fill="#ED3237" points="63,52 43.437,50 42.75,47.375 61,49 	"/>
	<polygon fill="#AB3235" points="62,50 63,52 43.437,50 43.25,48.625 	"/>
	<polygon fill="#201E1E" points="436.461,78.886 433.241,73.351 423.553,70.677 421.899,72.182 432.221,81.534 434.447,81.323 	"/>
	<polygon fill="#201E1E" points="444,70 436,79 429,72 440,57 462,48 465,53 	"/>
	<polygon fill="#373535" points="441,59 463,50 466,53 444,70 436,79 430,74 	"/>
	<path fill="#AB3235" d="M544,12c1,0,1,1,1,1l-23,5c0-1,0-2,0-3l22-2V12z"/>
	
		<ellipse transform="matrix(-0.0252 -0.9997 0.9997 -0.0252 205.8138 251.9018)" fill="#FEFEFE" cx="225.723" cy="25.605" rx="0.739" ry="0.443"/>
	
		<ellipse transform="matrix(0.0848 -0.9964 0.9964 0.0848 455.6698 547.1729)" fill="#FEFEFE" cx="525.694" cy="25.538" rx="0.741" ry="0.445"/>
</g>
</svg>
