<?xml version="1.0" encoding="utf-8"?>
<!-- Generator: Adobe Illustrator 17.0.0, SVG Export Plug-In . SVG Version: 6.00 Build 0)  -->
<!DOCTYPE svg PUBLIC "-//W3C//DTD SVG 1.1//EN" "http://www.w3.org/Graphics/SVG/1.1/DTD/svg11.dtd">
<svg version="1.1" id="Capa_3" xmlns="http://www.w3.org/2000/svg" xmlns:xlink="http://www.w3.org/1999/xlink" x="0px" y="0px"
	 width="600px" height="100px" viewBox="0 0 600 100" enable-background="new 0 0 600 100" xml:space="preserve">
<g>
	<g id="Capa_x0020_1_3_">
		<polygon fill="#201E1E" points="44.285,90.034 44.27,91.896 56.254,91.996 56.269,90.134 49.848,86.358 45.231,87.25 		"/>
		<polygon fill="#373535" points="38.644,57.953 52.243,55.445 55.45,72.836 51.466,86.82 44.213,88.158 43.833,75.924 		"/>
		<polygon fill="#201E1E" points="48.746,87.322 44.213,88.158 43.833,75.924 38.644,57.953 49.523,55.947 52.73,73.338 		"/>
		<polygon fill="#201E1E" points="30.718,89.77 30.521,91.76 42.561,91.945 43.753,90.053 37.18,85.384 32.106,85.888 		"/>
		<polygon fill="#201E1E" points="33,55.333 47,55.333 47,74.333 41,87.333 32,87.333 35,75.333 		"/>
		<polygon fill="#373535" points="38,87.333 32,87.333 35,75.333 33,55.333 44,55.333 44,74.333 		"/>
		<path fill="#ED3237" d="M42.211,11.883c-3.064,0.783-13.11,1.067-15.959-1.142l-0.143,1.995c2.85,2.209,12.041-0.141,15.033,0.073
			L42.211,11.883z"/>
		<path fill="#373535" d="M53.185,34.083c1.796,5.725,0.075,13.601,7.596,17.53l-1.366,5.669
			C36.011,39.471,50.846,23.288,53.185,34.083z"/>
		<path fill="#201E1E" d="M58.162,56.627c-12.778-10.664-12.61-20.149-9.692-24.209c1.609-1.553,3.162,0.056,4.06,2.918
			c1.796,5.725,1.329,14.256,8.85,18.185L58.162,56.627z"/>
		<polygon fill="#F2BBA1" points="60.781,51.613 63.943,51.669 66.095,55.186 63.176,59.246 61.268,59.845 58.162,56.627 		"/>
		<polygon fill="#EEAC95" points="59.715,58.236 58.162,56.627 60.126,52.866 63.288,52.922 63.887,54.831 61.679,54.475 
			60.07,56.028 		"/>
		<path fill="#201E1E" d="M44.384,28.444l-13.259,29.88l21.432-0.551c0,0-3.6-24.591-2.021-26.115
			c0.643-1.23,1.634-4.628,1.634-4.628l-3.985-2.865L44.384,28.444z"/>
		<path fill="#373535" d="M42.162,31.199l-11.68,28.356l19.265-0.9c-0.294-0.937-7.438-0.753-8.264-6.666
			c-0.588-1.873,5.381-5.803,5.73-7.971c1.341-5.565-0.129-10.248-0.423-11.184c0.643-1.23,1.634-4.628,1.634-4.628l-2.755-2.222
			l-4.444,5.51L42.162,31.199z"/>
		<polygon fill="#AB3235" points="43.741,29.675 51.437,50.923 49.563,51.511 40.931,30.556 		"/>
		<path fill="#ED3237" d="M42.669,11.469c-2.235-2.829-14.276-2.86-15.514-5.77l-0.916,1.077c0.322,3.987,13.28,2.941,15.434,4.774
			L42.669,11.469z"/>
		<path fill="#373535" d="M56.907,2.521c8.232-0.487,6.511,7.39,9.205,15.977c2.694,8.587,2.994,9.541-4.64,11.936
			s-17.661-2.843-20.056-10.476C39.62,14.233,42.594,7.012,47.72,3.307C50.285,1.455,53.746,2.465,56.907,2.521z"/>
		<path fill="#201E1E" d="M56.907,2.521c8.232-0.487,6.511,7.39,9.205,15.977c1.197,3.817,2.096,6.679,1.441,7.932l-0.954,0.299
			c-6.679,2.096-15.453-2.488-17.549-9.167c-1.497-4.771,0.823-10.739,5.949-14.443C55.953,2.82,55.953,2.82,56.907,2.521
			l0.954-0.299L56.907,2.521z"/>
		<path fill="#EEAC95" d="M65.258,15.355c0.299,0.954,0.557,1.989,0.856,2.944c0.299,0.954,0.805,2.923,1.104,3.877
			c-3.162-0.056-4.771,1.497-8.531-0.468c-1.553-1.609-3.05-6.38-1.441-7.932c3.817-1.197,4.715,1.665,6.922,2.02l0,0L65.258,15.355
			z"/>
		<path fill="#ED3237" d="M42.24,9.219l20.636-4.378c0.299,0.954,0.898,2.862,1.497,4.771L40.93,11.726
			C41.585,10.473,41.286,9.518,42.24,9.219z"/>
		<path fill="#F2BBA1" d="M66.056,21.66c-0.954,0.299-1.908,0.599-2.862,0.898c-0.954,0.299-2.208-0.355-3.461-1.01
			c-1.254-0.655-2.75-5.425-1.141-6.978c2.862-0.898,4.415,0.711,5.968,2.32l0,0C64.859,17.843,65.757,20.706,66.056,21.66"/>
		
			<ellipse transform="matrix(0.2994 0.9541 -0.9541 0.2994 61.6989 -47.1407)" fill="#201E1E" cx="62.95" cy="18.443" rx="2" ry="1"/>
		<ellipse fill="#FEFEFE" cx="63.606" cy="17.189" rx="0" ry="0"/>
		<polygon fill="#201E1E" points="59.845,15.224 65.214,15.636 65.514,16.59 60.444,17.132 		"/>
		<path fill="#373535" d="M44.242,38.985c-8.587,2.694-11.506,6.754-14.836,16.183l-4.415-0.711
			c1.01-3.461,1.721-7.876,3.685-11.637c4.939-10.982,11.618-13.078,14.78-13.022c5.369,0.411,4.902,8.943,1.085,10.14
			L44.242,38.985z"/>
		<polygon fill="#F2BBA1" points="22.428,56.309 24.991,54.457 29.407,55.168 29.407,55.168 30.66,55.823 31.558,58.685 
			29.949,60.238 24.879,60.781 		"/>
		<path fill="#201E1E" d="M27.199,54.813c2.264-2.806,2.975-7.222,5.238-10.028L35,42.932c0.655-1.254,5.425-2.75,7.689-5.557
			c2.563-1.852,1.366-5.669,3.274-6.268c2.806,2.264,1.441,7.932-1.422,8.831c-8.587,2.694-11.506,6.754-14.836,16.183l-2.208-0.355
			L27.199,54.813z"/>
		<polygon fill="#EEAC95" points="29.407,55.168 30.305,58.03 28.696,59.583 24.58,59.827 22.428,56.309 24.991,54.457 		"/>
		<polygon fill="#ED3237" points="34.045,51.236 51.786,48.756 52.318,53.733 33.053,54.633 		"/>
		<polygon fill="#AB3235" points="52.373,50.629 52.318,53.733 33.053,54.633 33.696,53.403 		"/>
		<path fill="#AB3235" d="M41.885,11.427l21.59-4.678c0.299,0.954,0.599,1.908,0.898,2.862L40.93,11.726
			c0,0-0.299-0.954,0.655-1.254L41.885,11.427z"/>
		
			<ellipse transform="matrix(-0.9253 0.3792 -0.3792 -0.9253 128.2833 10.552)" fill="#FEFEFE" cx="63.103" cy="17.909" rx="0.445" ry="0.741"/>
	</g>
</g>
<g>
	<g id="Capa_x0020_1_1_">
		<polygon fill="#201E1E" points="144.285,90.034 144.27,91.896 156.254,91.996 156.269,90.134 149.848,86.358 145.231,87.25 		"/>
		<polygon fill="#373535" points="138.644,57.953 152.243,55.445 155.45,72.836 151.466,86.82 144.213,88.158 143.833,75.924 		"/>
		<polygon fill="#201E1E" points="148.746,87.322 144.213,88.158 143.833,75.924 138.644,57.953 149.523,55.947 152.73,73.338 		"/>
		<polygon fill="#201E1E" points="130.718,89.77 130.521,91.76 142.561,91.945 143.753,90.053 137.18,85.384 132.106,85.888 		"/>
		<polygon fill="#201E1E" points="133,55.333 147,55.333 147,74.333 141,87.333 132,87.333 135,75.333 		"/>
		<polygon fill="#373535" points="138,87.333 132,87.333 135,75.333 133,55.333 144,55.333 144,74.333 		"/>
		<path fill="#ED3237" d="M142.25,11.809c-2.934,1.18-12.855,2.784-15.97,0.97l0.121,1.996c3.116,1.814,11.918-1.726,14.912-1.908
			L142.25,11.809z"/>
		<path fill="#373535" d="M153.185,34.083c1.796,5.725,0.075,13.601,7.596,17.53l-1.366,5.669
			C136.011,39.471,150.846,23.288,153.185,34.083z"/>
		<path fill="#201E1E" d="M158.162,56.627c-12.778-10.664-12.61-20.149-9.692-24.209c1.609-1.553,3.162,0.056,4.06,2.918
			c1.796,5.725,1.329,14.256,8.85,18.185L158.162,56.627z"/>
		<polygon fill="#F2BBA1" points="160.781,51.613 163.943,51.669 166.095,55.186 163.176,59.246 161.268,59.845 158.162,56.627 		
			"/>
		<polygon fill="#EEAC95" points="159.715,58.236 158.162,56.627 160.126,52.866 163.288,52.922 163.887,54.831 161.679,54.475 
			160.07,56.028 		"/>
		<path fill="#201E1E" d="M144.384,28.444l-13.259,29.88l21.432-0.551c0,0-3.6-24.591-2.021-26.115
			c0.643-1.23,1.634-4.628,1.634-4.628l-3.985-2.865L144.384,28.444z"/>
		<path fill="#373535" d="M142.162,31.199l-11.68,28.356l19.265-0.9c-0.294-0.937-7.438-0.753-8.264-6.666
			c-0.588-1.873,5.381-5.803,5.73-7.971c1.341-5.565-0.129-10.248-0.423-11.184c0.643-1.23,1.634-4.628,1.634-4.628l-2.755-2.222
			l-4.444,5.51L142.162,31.199z"/>
		<polygon fill="#AB3235" points="143.741,29.675 151.437,50.923 149.563,51.511 140.931,30.556 		"/>
		<path fill="#ED3237" d="M142.65,11.339c-2.588-2.51-14.528-0.955-16.139-3.676l-0.766,1.188c0.844,3.91,13.552,1.166,15.928,2.7
			L142.65,11.339z"/>
		<path fill="#373535" d="M156.907,2.521c8.232-0.487,6.511,7.39,9.205,15.977s2.994,9.541-4.64,11.936s-17.661-2.843-20.056-10.476
			c-1.796-5.725,1.178-12.946,6.304-16.651C150.285,1.455,153.746,2.465,156.907,2.521z"/>
		<path fill="#201E1E" d="M156.907,2.521c8.232-0.487,6.511,7.39,9.205,15.977c1.197,3.817,2.096,6.679,1.441,7.932l-0.954,0.299
			c-6.679,2.096-15.453-2.488-17.549-9.167c-1.497-4.771,0.823-10.739,5.949-14.443C155.953,2.82,155.953,2.82,156.907,2.521
			l0.954-0.299L156.907,2.521z"/>
		<path fill="#EEAC95" d="M165.258,15.355c0.299,0.954,0.557,1.989,0.856,2.944c0.299,0.954,0.805,2.923,1.104,3.877
			c-3.162-0.056-4.771,1.497-8.531-0.468c-1.553-1.609-3.05-6.38-1.441-7.932c3.817-1.197,4.715,1.665,6.922,2.02l0,0
			L165.258,15.355z"/>
		<path fill="#ED3237" d="M142.24,9.219l20.636-4.378c0.299,0.954,0.898,2.862,1.497,4.771l-23.443,2.114
			C141.585,10.473,141.286,9.518,142.24,9.219z"/>
		<path fill="#F2BBA1" d="M166.056,21.66c-0.954,0.299-1.908,0.599-2.862,0.898c-0.954,0.299-2.208-0.355-3.461-1.01
			c-1.254-0.655-2.75-5.425-1.141-6.978c2.862-0.898,4.415,0.711,5.968,2.32l0,0C164.859,17.843,165.757,20.706,166.056,21.66"/>
		
			<ellipse transform="matrix(0.2994 0.9541 -0.9541 0.2994 131.7581 -142.5532)" fill="#201E1E" cx="162.95" cy="18.443" rx="2" ry="1"/>
		<ellipse fill="#FEFEFE" cx="163.606" cy="17.189" rx="0" ry="0"/>
		<polygon fill="#201E1E" points="159.845,15.224 165.214,15.636 165.514,16.59 160.444,17.132 		"/>
		<path fill="#373535" d="M144.242,38.985c-8.587,2.694-11.506,6.754-14.836,16.183l-4.415-0.711
			c1.01-3.461,1.721-7.876,3.685-11.637c4.939-10.982,11.618-13.078,14.78-13.022c5.369,0.411,4.902,8.943,1.085,10.14
			L144.242,38.985z"/>
		<polygon fill="#F2BBA1" points="122.428,56.309 124.991,54.457 129.407,55.168 129.407,55.168 130.66,55.823 131.558,58.685 
			129.949,60.238 124.879,60.781 		"/>
		<path fill="#201E1E" d="M127.199,54.813c2.264-2.806,2.975-7.222,5.238-10.028L135,42.932c0.655-1.254,5.425-2.75,7.689-5.557
			c2.563-1.852,1.366-5.669,3.274-6.268c2.806,2.264,1.441,7.932-1.422,8.831c-8.587,2.694-11.506,6.754-14.836,16.183l-2.208-0.355
			L127.199,54.813z"/>
		<polygon fill="#EEAC95" points="129.407,55.168 130.305,58.03 128.696,59.583 124.58,59.827 122.428,56.309 124.991,54.457 		"/>
		<polygon fill="#ED3237" points="134.045,51.236 151.786,48.756 152.318,53.733 133.053,54.633 		"/>
		<polygon fill="#AB3235" points="152.373,50.629 152.318,53.733 133.053,54.633 133.696,53.403 		"/>
		<path fill="#AB3235" d="M141.885,11.427l21.59-4.678c0.299,0.954,0.599,1.908,0.898,2.862l-23.443,2.115
			c0,0-0.299-0.954,0.655-1.254L141.885,11.427z"/>
		
			<ellipse transform="matrix(-0.9253 0.3792 -0.3792 -0.9253 320.8146 -27.3685)" fill="#FEFEFE" cx="163.103" cy="17.909" rx="0.445" ry="0.741"/>
	</g>
</g>
<g>
	<g id="Capa_x0020_1_2_">
		<polygon fill="#201E1E" points="244.285,90.034 244.27,91.896 256.254,91.996 256.269,90.134 249.848,86.358 245.231,87.25 		"/>
		<polygon fill="#373535" points="238.644,57.953 252.243,55.445 255.45,72.836 251.466,86.82 244.213,88.158 243.833,75.924 		"/>
		<polygon fill="#201E1E" points="248.746,87.322 244.213,88.158 243.833,75.924 238.644,57.953 249.523,55.947 252.73,73.338 		"/>
		<polygon fill="#201E1E" points="230.718,89.77 230.521,91.76 242.561,91.945 243.753,90.053 237.18,85.384 232.106,85.888 		"/>
		<polygon fill="#201E1E" points="233,55.333 247,55.333 247,74.333 241,87.333 232,87.333 235,75.333 		"/>
		<polygon fill="#373535" points="238,87.333 232,87.333 235,75.333 233,55.333 244,55.333 244,74.333 		"/>
		<path fill="#ED3237" d="M242.211,11.883c-2.715,1.621-12.267,4.747-15.626,3.438l0.43,1.953c3.36,1.309,11.505-3.555,14.435-4.2
			L242.211,11.883z"/>
		<path fill="#373535" d="M253.185,34.083c1.796,5.725,0.075,13.601,7.596,17.53l-1.366,5.669
			C236.011,39.471,250.846,23.288,253.185,34.083z"/>
		<path fill="#201E1E" d="M258.162,56.627c-12.778-10.664-12.61-20.149-9.692-24.209c1.609-1.553,3.162,0.056,4.06,2.918
			c1.796,5.725,1.329,14.256,8.85,18.185L258.162,56.627z"/>
		<polygon fill="#F2BBA1" points="260.781,51.613 263.943,51.669 266.095,55.186 263.176,59.246 261.268,59.845 258.162,56.627 		
			"/>
		<polygon fill="#EEAC95" points="259.715,58.236 258.162,56.627 260.126,52.866 263.288,52.922 263.887,54.831 261.679,54.475 
			260.07,56.028 		"/>
		<path fill="#201E1E" d="M244.384,28.444l-13.259,29.88l21.432-0.551c0,0-3.6-24.591-2.021-26.115
			c0.643-1.23,1.634-4.628,1.634-4.628l-3.985-2.865L244.384,28.444z"/>
		<path fill="#373535" d="M242.162,31.199l-11.68,28.356l19.265-0.9c-0.294-0.937-7.438-0.753-8.264-6.666
			c-0.588-1.873,5.381-5.803,5.73-7.971c1.341-5.565-0.129-10.248-0.423-11.184c0.643-1.23,1.634-4.628,1.634-4.628l-2.755-2.222
			l-4.444,5.51L242.162,31.199z"/>
		<polygon fill="#AB3235" points="243.741,29.675 251.437,50.923 249.563,51.511 240.931,30.556 		"/>
		<path fill="#ED3237" d="M242.533,11.356c-2.946-2.078-14.5,1.313-16.514-1.126l-0.572,1.293
			c1.441,3.731,13.568-0.952,16.154,0.194L242.533,11.356z"/>
		<path fill="#373535" d="M256.907,2.521c8.232-0.487,6.511,7.39,9.205,15.977s2.994,9.541-4.64,11.936
			c-7.634,2.395-17.661-2.843-20.056-10.476c-1.796-5.725,1.178-12.946,6.304-16.651C250.285,1.455,253.746,2.465,256.907,2.521z"/>
		<path fill="#201E1E" d="M256.907,2.521c8.232-0.487,6.511,7.39,9.205,15.977c1.197,3.817,2.096,6.679,1.441,7.932l-0.954,0.299
			c-6.679,2.096-15.453-2.488-17.549-9.167c-1.497-4.771,0.823-10.739,5.949-14.443C255.953,2.82,255.953,2.82,256.907,2.521
			l0.954-0.299L256.907,2.521z"/>
		<path fill="#EEAC95" d="M265.258,15.355c0.299,0.954,0.557,1.989,0.856,2.944c0.299,0.954,0.805,2.923,1.104,3.877
			c-3.162-0.056-4.771,1.497-8.531-0.468c-1.553-1.609-3.05-6.38-1.441-7.932c3.817-1.197,4.715,1.665,6.922,2.02l0,0
			L265.258,15.355z"/>
		<path fill="#ED3237" d="M242.24,9.219l20.636-4.378c0.299,0.954,0.898,2.862,1.497,4.771l-23.443,2.114
			C241.585,10.473,241.286,9.518,242.24,9.219z"/>
		<path fill="#F2BBA1" d="M266.056,21.66c-0.954,0.299-1.908,0.599-2.862,0.898c-0.954,0.299-2.208-0.355-3.461-1.01
			c-1.254-0.655-2.75-5.425-1.141-6.978c2.862-0.898,4.415,0.711,5.968,2.32l0,0C264.859,17.843,265.757,20.706,266.056,21.66"/>
		
			<ellipse transform="matrix(0.2994 0.9541 -0.9541 0.2994 201.8173 -237.9657)" fill="#201E1E" cx="262.95" cy="18.443" rx="2" ry="1"/>
		<ellipse fill="#FEFEFE" cx="263.606" cy="17.189" rx="0" ry="0"/>
		<polygon fill="#201E1E" points="259.845,15.224 265.214,15.636 265.514,16.59 260.444,17.132 		"/>
		<path fill="#373535" d="M244.242,38.985c-8.587,2.694-11.506,6.754-14.836,16.183l-4.415-0.711
			c1.01-3.461,1.721-7.876,3.685-11.637c4.939-10.982,11.618-13.078,14.78-13.022c5.369,0.411,4.902,8.943,1.085,10.14
			L244.242,38.985z"/>
		<polygon fill="#F2BBA1" points="222.428,56.309 224.991,54.457 229.407,55.168 229.407,55.168 230.66,55.823 231.558,58.685 
			229.949,60.238 224.879,60.781 		"/>
		<path fill="#201E1E" d="M227.199,54.813c2.264-2.806,2.975-7.222,5.238-10.028L235,42.932c0.655-1.254,5.425-2.75,7.689-5.557
			c2.563-1.852,1.366-5.669,3.274-6.268c2.806,2.264,1.441,7.932-1.422,8.831c-8.587,2.694-11.506,6.754-14.836,16.183l-2.208-0.355
			L227.199,54.813z"/>
		<polygon fill="#EEAC95" points="229.407,55.168 230.305,58.03 228.696,59.583 224.58,59.827 222.428,56.309 224.991,54.457 		"/>
		<polygon fill="#ED3237" points="234.045,51.236 251.786,48.756 252.318,53.733 233.053,54.633 		"/>
		<polygon fill="#AB3235" points="252.373,50.629 252.318,53.733 233.053,54.633 233.696,53.403 		"/>
		<path fill="#AB3235" d="M241.885,11.427l21.59-4.678c0.299,0.954,0.599,1.908,0.898,2.862l-23.443,2.115
			c0,0-0.299-0.954,0.655-1.254L241.885,11.427z"/>
		
			<ellipse transform="matrix(-0.9253 0.3792 -0.3792 -0.9253 513.3458 -65.2891)" fill="#FEFEFE" cx="263.103" cy="17.909" rx="0.445" ry="0.741"/>
	</g>
</g>
<g>
	<g id="Capa_x0020_1_4_">
		<polygon fill="#201E1E" points="344.285,90.034 344.27,91.896 356.254,91.996 356.269,90.134 349.848,86.358 345.231,87.25 		"/>
		<polygon fill="#373535" points="338.644,57.953 352.243,55.445 355.45,72.836 351.466,86.82 344.213,88.158 343.833,75.924 		"/>
		<polygon fill="#201E1E" points="348.746,87.322 344.213,88.158 343.833,75.924 338.644,57.953 349.523,55.947 352.73,73.338 		"/>
		<polygon fill="#201E1E" points="330.718,89.77 330.521,91.76 342.561,91.945 343.753,90.053 337.18,85.384 332.106,85.888 		"/>
		<polygon fill="#201E1E" points="333,55.333 347,55.333 347,74.333 341,87.333 332,87.333 335,75.333 		"/>
		<polygon fill="#373535" points="338,87.333 332,87.333 335,75.333 333,55.333 344,55.333 344,74.333 		"/>
		<path fill="#ED3237" d="M342.153,11.714c-2.479,1.963-11.539,6.314-15.04,5.457l0.682,1.88c3.503,0.857,10.94-5.033,13.759-6.056
			L342.153,11.714z"/>
		<path fill="#373535" d="M353.185,34.083c1.796,5.725,0.075,13.601,7.596,17.53l-1.366,5.669
			C336.011,39.471,350.846,23.288,353.185,34.083z"/>
		<path fill="#201E1E" d="M358.162,56.627c-12.778-10.664-12.61-20.149-9.692-24.209c1.609-1.553,3.162,0.056,4.06,2.918
			c1.796,5.725,1.329,14.256,8.85,18.185L358.162,56.627z"/>
		<polygon fill="#F2BBA1" points="360.781,51.613 363.943,51.669 366.095,55.186 363.176,59.246 361.268,59.845 358.162,56.627 		
			"/>
		<polygon fill="#EEAC95" points="359.715,58.236 358.162,56.627 360.126,52.866 363.288,52.922 363.887,54.831 361.679,54.475 
			360.07,56.028 		"/>
		<path fill="#201E1E" d="M344.384,28.444l-13.259,29.88l21.432-0.551c0,0-3.6-24.591-2.021-26.115
			c0.643-1.23,1.634-4.628,1.634-4.628l-3.985-2.865L344.384,28.444z"/>
		<path fill="#373535" d="M342.162,31.199l-11.68,28.356l19.265-0.9c-0.294-0.937-7.438-0.753-8.264-6.666
			c-0.588-1.873,5.381-5.803,5.73-7.971c1.341-5.565-0.129-10.248-0.423-11.184c0.643-1.23,1.634-4.628,1.634-4.628l-2.755-2.222
			l-4.444,5.51L342.162,31.199z"/>
		<polygon fill="#AB3235" points="343.741,29.675 351.437,50.923 349.563,51.511 340.931,30.556 		"/>
		<path fill="#ED3237" d="M342.402,11.15c-3.193-1.673-14.203,3.202-16.519,1.049l-0.398,1.357c1.918,3.51,13.326-2.723,16.04-1.926
			L342.402,11.15z"/>
		<path fill="#373535" d="M356.907,2.521c8.232-0.487,6.511,7.39,9.205,15.977s2.994,9.541-4.64,11.936
			c-7.634,2.395-17.661-2.843-20.056-10.476c-1.796-5.725,1.178-12.946,6.304-16.651C350.285,1.455,353.746,2.465,356.907,2.521z"/>
		<path fill="#201E1E" d="M356.907,2.521c8.232-0.487,6.511,7.39,9.205,15.977c1.197,3.817,2.096,6.679,1.441,7.932l-0.954,0.299
			c-6.679,2.096-15.453-2.488-17.549-9.167c-1.497-4.771,0.823-10.739,5.949-14.443C355.953,2.82,355.953,2.82,356.907,2.521
			l0.954-0.299L356.907,2.521z"/>
		<path fill="#EEAC95" d="M365.258,15.355c0.299,0.954,0.557,1.989,0.856,2.944c0.299,0.954,0.805,2.923,1.104,3.877
			c-3.162-0.056-4.771,1.497-8.531-0.468c-1.553-1.609-3.05-6.38-1.441-7.932c3.817-1.197,4.715,1.665,6.922,2.02l0,0
			L365.258,15.355z"/>
		<path fill="#ED3237" d="M342.24,9.219l20.636-4.378c0.299,0.954,0.898,2.862,1.497,4.771l-23.443,2.114
			C341.585,10.473,341.286,9.518,342.24,9.219z"/>
		<path fill="#F2BBA1" d="M366.056,21.66c-0.954,0.299-1.908,0.599-2.862,0.898c-0.954,0.299-2.208-0.355-3.461-1.01
			c-1.254-0.655-2.75-5.425-1.141-6.978c2.862-0.898,4.415,0.711,5.968,2.32l0,0C364.859,17.843,365.757,20.706,366.056,21.66"/>
		
			<ellipse transform="matrix(0.2994 0.9541 -0.9541 0.2994 271.8765 -333.3783)" fill="#201E1E" cx="362.95" cy="18.443" rx="2" ry="1"/>
		<ellipse fill="#FEFEFE" cx="363.606" cy="17.189" rx="0" ry="0"/>
		<polygon fill="#201E1E" points="359.845,15.224 365.214,15.636 365.514,16.59 360.444,17.132 		"/>
		<path fill="#373535" d="M344.242,38.985c-8.587,2.694-11.506,6.754-14.836,16.183l-4.415-0.711
			c1.01-3.461,1.721-7.876,3.685-11.637c4.939-10.982,11.618-13.078,14.78-13.022c5.369,0.411,4.902,8.943,1.085,10.14
			L344.242,38.985z"/>
		<polygon fill="#F2BBA1" points="322.428,56.309 324.991,54.457 329.407,55.168 329.407,55.168 330.66,55.823 331.558,58.685 
			329.949,60.238 324.879,60.781 		"/>
		<path fill="#201E1E" d="M327.199,54.813c2.264-2.806,2.975-7.222,5.238-10.028L335,42.932c0.655-1.254,5.425-2.75,7.689-5.557
			c2.563-1.852,1.366-5.669,3.274-6.268c2.806,2.264,1.441,7.932-1.422,8.831c-8.587,2.694-11.506,6.754-14.836,16.183l-2.208-0.355
			L327.199,54.813z"/>
		<polygon fill="#EEAC95" points="329.407,55.168 330.305,58.03 328.696,59.583 324.58,59.827 322.428,56.309 324.991,54.457 		"/>
		<polygon fill="#ED3237" points="334.045,51.236 351.786,48.756 352.318,53.733 333.053,54.633 		"/>
		<polygon fill="#AB3235" points="352.373,50.629 352.318,53.733 333.053,54.633 333.696,53.403 		"/>
		<path fill="#AB3235" d="M341.885,11.427l21.59-4.678c0.299,0.954,0.599,1.908,0.898,2.862l-23.443,2.115
			c0,0-0.299-0.954,0.655-1.254L341.885,11.427z"/>
		
			<ellipse transform="matrix(-0.9253 0.3792 -0.3792 -0.9253 705.8771 -103.2096)" fill="#FEFEFE" cx="363.103" cy="17.909" rx="0.445" ry="0.741"/>
	</g>
</g>
<g>
	<g id="Capa_x0020_1_5_">
		<polygon fill="#201E1E" points="444.285,90.034 444.27,91.896 456.254,91.996 456.269,90.134 449.848,86.358 445.231,87.25 		"/>
		<polygon fill="#373535" points="438.644,57.953 452.243,55.445 455.45,72.836 451.466,86.82 444.213,88.158 443.833,75.924 		"/>
		<polygon fill="#201E1E" points="448.746,87.322 444.213,88.158 443.833,75.924 438.644,57.953 449.523,55.947 452.73,73.338 		"/>
		<polygon fill="#201E1E" points="430.718,89.77 430.521,91.76 442.561,91.945 443.753,90.053 437.18,85.384 432.106,85.888 		"/>
		<polygon fill="#201E1E" points="433,55.333 447,55.333 447,74.333 441,87.333 432,87.333 435,75.333 		"/>
		<polygon fill="#373535" points="438,87.333 432,87.333 435,75.333 433,55.333 444,55.333 444,74.333 		"/>
		<path fill="#ED3237" d="M442.288,11.613c-2.685,1.671-12.176,4.974-15.559,3.728l0.466,1.945
			c3.384,1.246,11.437-3.769,14.354-4.468L442.288,11.613z"/>
		<path fill="#373535" d="M453.185,34.083c1.796,5.725,0.075,13.601,7.596,17.53l-1.366,5.669
			C436.011,39.471,450.846,23.288,453.185,34.083z"/>
		<path fill="#201E1E" d="M458.162,56.627c-12.778-10.664-12.61-20.149-9.692-24.209c1.609-1.553,3.162,0.056,4.06,2.918
			c1.796,5.725,1.329,14.256,8.85,18.185L458.162,56.627z"/>
		<polygon fill="#F2BBA1" points="460.781,51.613 463.943,51.669 466.095,55.186 463.176,59.246 461.268,59.845 458.162,56.627 		
			"/>
		<polygon fill="#EEAC95" points="459.715,58.236 458.162,56.627 460.126,52.866 463.288,52.922 463.887,54.831 461.679,54.475 
			460.07,56.028 		"/>
		<path fill="#201E1E" d="M444.384,28.444l-13.259,29.88l21.432-0.551c0,0-3.6-24.591-2.021-26.115
			c0.643-1.23,1.634-4.628,1.634-4.628l-3.985-2.865L444.384,28.444z"/>
		<path fill="#373535" d="M442.162,31.199l-11.68,28.356l19.265-0.9c-0.294-0.937-7.438-0.753-8.264-6.666
			c-0.588-1.873,5.381-5.803,5.73-7.971c1.341-5.565-0.129-10.248-0.423-11.184c0.643-1.23,1.634-4.628,1.634-4.628l-2.755-2.222
			l-4.444,5.51L442.162,31.199z"/>
		<polygon fill="#AB3235" points="443.741,29.675 451.437,50.923 449.563,51.511 440.931,30.556 		"/>
		<path fill="#ED3237" d="M442.599,11.08c-2.985-2.022-14.473,1.582-16.532-0.818l-0.548,1.303
			c1.51,3.704,13.548-1.205,16.155-0.107L442.599,11.08z"/>
		<path fill="#373535" d="M456.907,2.521c8.232-0.487,6.511,7.39,9.205,15.977s2.994,9.541-4.64,11.936
			c-7.634,2.395-17.661-2.843-20.056-10.476c-1.796-5.725,1.178-12.946,6.304-16.651C450.285,1.455,453.746,2.465,456.907,2.521z"/>
		<path fill="#201E1E" d="M456.907,2.521c8.232-0.487,6.511,7.39,9.205,15.977c1.197,3.817,2.096,6.679,1.441,7.932l-0.954,0.299
			c-6.679,2.096-15.453-2.488-17.549-9.167c-1.497-4.771,0.823-10.739,5.949-14.443C455.953,2.82,455.953,2.82,456.907,2.521
			l0.954-0.299L456.907,2.521z"/>
		<path fill="#EEAC95" d="M465.258,15.355c0.299,0.954,0.557,1.989,0.856,2.944c0.299,0.954,0.805,2.923,1.104,3.877
			c-3.162-0.056-4.771,1.497-8.531-0.468c-1.553-1.609-3.05-6.38-1.441-7.932c3.817-1.197,4.715,1.665,6.922,2.02l0,0
			L465.258,15.355z"/>
		<path fill="#ED3237" d="M442.24,9.219l20.636-4.378c0.299,0.954,0.898,2.862,1.497,4.771l-23.443,2.114
			C441.585,10.473,441.286,9.518,442.24,9.219z"/>
		<path fill="#F2BBA1" d="M466.056,21.66c-0.954,0.299-1.908,0.599-2.862,0.898c-0.954,0.299-2.208-0.355-3.461-1.01
			c-1.254-0.655-2.75-5.425-1.141-6.978c2.862-0.898,4.415,0.711,5.968,2.32l0,0C464.859,17.843,465.757,20.706,466.056,21.66"/>
		
			<ellipse transform="matrix(0.2994 0.9541 -0.9541 0.2994 341.9358 -428.7908)" fill="#201E1E" cx="462.95" cy="18.443" rx="2" ry="1"/>
		<ellipse fill="#FEFEFE" cx="463.606" cy="17.189" rx="0" ry="0"/>
		<polygon fill="#201E1E" points="459.845,15.224 465.214,15.636 465.514,16.59 460.444,17.132 		"/>
		<path fill="#373535" d="M444.242,38.985c-8.587,2.694-11.506,6.754-14.836,16.183l-4.415-0.711
			c1.01-3.461,1.721-7.876,3.685-11.637c4.939-10.982,11.618-13.078,14.78-13.022c5.369,0.411,4.902,8.943,1.085,10.14
			L444.242,38.985z"/>
		<polygon fill="#F2BBA1" points="422.428,56.309 424.991,54.457 429.407,55.168 429.407,55.168 430.66,55.823 431.558,58.685 
			429.949,60.238 424.879,60.781 		"/>
		<path fill="#201E1E" d="M427.199,54.813c2.264-2.806,2.975-7.222,5.238-10.028L435,42.932c0.655-1.254,5.425-2.75,7.689-5.557
			c2.563-1.852,1.366-5.669,3.274-6.268c2.806,2.264,1.441,7.932-1.422,8.831c-8.587,2.694-11.506,6.754-14.836,16.183l-2.208-0.355
			L427.199,54.813z"/>
		<polygon fill="#EEAC95" points="429.407,55.168 430.305,58.03 428.696,59.583 424.58,59.827 422.428,56.309 424.991,54.457 		"/>
		<polygon fill="#ED3237" points="434.045,51.236 451.786,48.756 452.318,53.733 433.053,54.633 		"/>
		<polygon fill="#AB3235" points="452.373,50.629 452.318,53.733 433.053,54.633 433.696,53.403 		"/>
		<path fill="#AB3235" d="M441.885,11.427l21.59-4.678c0.299,0.954,0.599,1.908,0.898,2.862l-23.443,2.115
			c0,0-0.299-0.954,0.655-1.254L441.885,11.427z"/>
		
			<ellipse transform="matrix(-0.9253 0.3792 -0.3792 -0.9253 898.4084 -141.1301)" fill="#FEFEFE" cx="463.103" cy="17.909" rx="0.445" ry="0.741"/>
	</g>
</g>
<g>
	<g id="Capa_x0020_1_6_">
		<polygon fill="#201E1E" points="544.285,90.034 544.27,91.896 556.254,91.996 556.269,90.134 549.848,86.358 545.231,87.25 		"/>
		<polygon fill="#373535" points="538.644,57.953 552.243,55.445 555.45,72.836 551.466,86.82 544.213,88.158 543.833,75.924 		"/>
		<polygon fill="#201E1E" points="548.746,87.322 544.213,88.158 543.833,75.924 538.644,57.953 549.523,55.947 552.73,73.338 		"/>
		<polygon fill="#201E1E" points="530.718,89.77 530.521,91.76 542.561,91.945 543.753,90.053 537.18,85.384 532.106,85.888 		"/>
		<polygon fill="#201E1E" points="533,55.333 547,55.333 547,74.333 541,87.333 532,87.333 535,75.333 		"/>
		<polygon fill="#373535" points="538,87.333 532,87.333 535,75.333 533,55.333 544,55.333 544,74.333 		"/>
		<path fill="#ED3237" d="M542.292,11.798c-2.929,1.192-12.844,2.837-15.966,1.035l0.129,1.996
			c3.124,1.802,11.91-1.775,14.904-1.969L542.292,11.798z"/>
		<path fill="#373535" d="M553.185,34.083c1.796,5.725,0.075,13.601,7.596,17.53l-1.366,5.669
			C536.011,39.471,550.846,23.288,553.185,34.083z"/>
		<path fill="#201E1E" d="M558.162,56.627c-12.778-10.664-12.61-20.149-9.692-24.209c1.609-1.553,3.162,0.056,4.06,2.918
			c1.796,5.725,1.329,14.256,8.85,18.185L558.162,56.627z"/>
		<polygon fill="#F2BBA1" points="560.781,51.613 563.943,51.669 566.095,55.186 563.176,59.246 561.268,59.845 558.162,56.627 		
			"/>
		<polygon fill="#EEAC95" points="559.715,58.236 558.162,56.627 560.126,52.866 563.288,52.922 563.887,54.831 561.679,54.475 
			560.07,56.028 		"/>
		<path fill="#201E1E" d="M544.384,28.444l-13.259,29.88l21.432-0.551c0,0-3.6-24.591-2.021-26.115
			c0.643-1.23,1.634-4.628,1.634-4.628l-3.985-2.865L544.384,28.444z"/>
		<path fill="#373535" d="M542.162,31.199l-11.68,28.356l19.265-0.9c-0.294-0.937-7.438-0.753-8.264-6.666
			c-0.588-1.873,5.381-5.803,5.73-7.971c1.341-5.565-0.129-10.248-0.423-11.184c0.643-1.23,1.634-4.628,1.634-4.628l-2.755-2.222
			l-4.444,5.51L542.162,31.199z"/>
		<polygon fill="#AB3235" points="543.741,29.675 551.437,50.923 549.563,51.511 540.931,30.556 		"/>
		<path fill="#ED3237" d="M542.689,11.325c-2.598-2.499-14.532-0.895-16.154-3.61l-0.761,1.191
			c0.86,3.906,13.556,1.111,15.939,2.634L542.689,11.325z"/>
		<path fill="#373535" d="M556.907,2.521c8.232-0.487,6.511,7.39,9.205,15.977c2.694,8.587,2.994,9.541-4.64,11.936
			c-7.634,2.395-17.661-2.843-20.056-10.476c-1.796-5.725,1.178-12.946,6.304-16.651C550.285,1.455,553.746,2.465,556.907,2.521z"/>
		<path fill="#201E1E" d="M556.907,2.521c8.232-0.487,6.511,7.39,9.205,15.977c1.197,3.817,2.096,6.679,1.441,7.932l-0.954,0.299
			c-6.679,2.096-15.453-2.488-17.549-9.167c-1.497-4.771,0.823-10.739,5.949-14.443C555.953,2.82,555.953,2.82,556.907,2.521
			l0.954-0.299L556.907,2.521z"/>
		<path fill="#EEAC95" d="M565.258,15.355c0.299,0.954,0.557,1.989,0.856,2.944c0.299,0.954,0.805,2.923,1.104,3.877
			c-3.162-0.056-4.771,1.497-8.531-0.468c-1.553-1.609-3.05-6.38-1.441-7.932c3.817-1.197,4.715,1.665,6.922,2.02l0,0
			L565.258,15.355z"/>
		<path fill="#ED3237" d="M542.24,9.219l20.636-4.378c0.299,0.954,0.898,2.862,1.497,4.771l-23.443,2.114
			C541.585,10.473,541.286,9.518,542.24,9.219z"/>
		<path fill="#F2BBA1" d="M566.056,21.66c-0.954,0.299-1.908,0.599-2.862,0.898c-0.954,0.299-2.208-0.355-3.461-1.01
			c-1.254-0.655-2.75-5.425-1.141-6.978c2.862-0.898,4.415,0.711,5.968,2.32l0,0C564.859,17.843,565.757,20.706,566.056,21.66"/>
		
			<ellipse transform="matrix(0.2994 0.9541 -0.9541 0.2994 411.995 -524.2033)" fill="#201E1E" cx="562.95" cy="18.443" rx="2" ry="1"/>
		<ellipse fill="#FEFEFE" cx="563.606" cy="17.189" rx="0" ry="0"/>
		<polygon fill="#201E1E" points="559.845,15.224 565.214,15.636 565.514,16.59 560.444,17.132 		"/>
		<path fill="#373535" d="M544.242,38.985c-8.587,2.694-11.506,6.754-14.836,16.183l-4.415-0.711
			c1.01-3.461,1.721-7.876,3.685-11.637c4.939-10.982,11.618-13.078,14.78-13.022c5.369,0.411,4.902,8.943,1.085,10.14
			L544.242,38.985z"/>
		<polygon fill="#F2BBA1" points="522.428,56.309 524.991,54.457 529.407,55.168 529.407,55.168 530.66,55.823 531.558,58.685 
			529.949,60.238 524.879,60.781 		"/>
		<path fill="#201E1E" d="M527.199,54.813c2.264-2.806,2.975-7.222,5.238-10.028L535,42.932c0.655-1.254,5.425-2.75,7.689-5.557
			c2.563-1.852,1.366-5.669,3.274-6.268c2.806,2.264,1.441,7.932-1.422,8.831c-8.587,2.694-11.506,6.754-14.836,16.183l-2.208-0.355
			L527.199,54.813z"/>
		<polygon fill="#EEAC95" points="529.407,55.168 530.305,58.03 528.696,59.583 524.58,59.827 522.428,56.309 524.991,54.457 		"/>
		<polygon fill="#ED3237" points="534.045,51.236 551.786,48.756 552.318,53.733 533.053,54.633 		"/>
		<polygon fill="#AB3235" points="552.373,50.629 552.318,53.733 533.053,54.633 533.696,53.403 		"/>
		<path fill="#AB3235" d="M541.885,11.427l21.59-4.678c0.299,0.954,0.599,1.908,0.898,2.862l-23.443,2.115
			c0,0-0.299-0.954,0.655-1.254L541.885,11.427z"/>
		
			<ellipse transform="matrix(-0.9253 0.3792 -0.3792 -0.9253 1090.9397 -179.0506)" fill="#FEFEFE" cx="563.103" cy="17.909" rx="0.445" ry="0.741"/>
	</g>
</g>
<g id="Capa_2">
	<rect fill="none" width="600" height="100"/>
</g>
</svg>
