<?xml version="1.0" encoding="utf-8"?>
<!-- Generator: Adobe Illustrator 17.0.0, SVG Export Plug-In . SVG Version: 6.00 Build 0)  -->
<!DOCTYPE svg PUBLIC "-//W3C//DTD SVG 1.1//EN" "http://www.w3.org/Graphics/SVG/1.1/DTD/svg11.dtd">
<svg version="1.1" id="Capa_3" xmlns="http://www.w3.org/2000/svg" xmlns:xlink="http://www.w3.org/1999/xlink" x="0px" y="0px"
	 width="600px" height="100px" viewBox="0 0 600 100" enable-background="new 0 0 600 100" xml:space="preserve">
<g>
	<g id="Capa_x0020_1_12_">
		<polygon fill="#201E1E" points="554.769,87.25 550.152,86.358 543.731,90.134 543.746,91.996 555.73,91.896 555.715,90.034 		"/>
		<polygon fill="#373535" points="556.167,75.924 555.787,88.158 548.534,86.82 544.55,72.836 547.757,55.445 561.356,57.953 		"/>
		<polygon fill="#201E1E" points="547.27,73.338 550.477,55.947 561.356,57.953 556.167,75.924 555.787,88.158 551.254,87.322 		"/>
		<polygon fill="#201E1E" points="567.894,85.888 562.82,85.384 556.247,90.053 557.439,91.945 569.479,91.76 569.282,89.77 		"/>
		<polygon fill="#201E1E" points="565,75.333 568,87.333 559,87.333 553,74.333 553,55.333 567,55.333 		"/>
		<polygon fill="#373535" points="556,74.333 556,55.333 567,55.333 565,75.333 568,87.333 562,87.333 		"/>
		<path fill="#ED3237" d="M558.858,12.809c2.992-0.214,12.183,2.136,15.033-0.073l-0.143-1.995
			c-2.849,2.209-12.895,1.925-15.959,1.142L558.858,12.809z"/>
		<path fill="#373535" d="M540.585,57.282l-1.366-5.669c7.521-3.929,5.8-11.805,7.596-17.53
			C549.154,23.288,563.989,39.471,540.585,57.282z"/>
		<path fill="#201E1E" d="M538.62,53.521c7.521-3.929,7.054-12.46,8.85-18.185c0.898-2.862,2.451-4.471,4.06-2.918
			c2.918,4.06,3.086,13.545-9.692,24.209L538.62,53.521z"/>
		<polygon fill="#F2BBA1" points="541.838,56.627 538.732,59.845 536.824,59.246 533.905,55.186 536.057,51.669 539.219,51.613 		
			"/>
		<polygon fill="#EEAC95" points="539.93,56.028 538.321,54.475 536.113,54.831 536.712,52.922 539.874,52.866 541.838,56.627 
			540.285,58.236 		"/>
		<path fill="#201E1E" d="M551.815,24.165l-3.985,2.865c0,0,0.991,3.398,1.634,4.628c1.579,1.524-2.021,26.115-2.021,26.115
			l21.432,0.551l-13.259-29.88L551.815,24.165z"/>
		<path fill="#373535" d="M558.775,31.494l-4.444-5.51l-2.755,2.222c0,0,0.991,3.398,1.634,4.628
			c-0.294,0.936-1.764,5.619-0.423,11.184c0.349,2.168,6.318,6.098,5.73,7.971c-0.826,5.913-7.97,5.729-8.264,6.666l19.265,0.9
			l-11.68-28.356L558.775,31.494z"/>
		<polygon fill="#AB3235" points="559.069,30.556 550.437,51.511 548.563,50.923 556.259,29.675 		"/>
		<path fill="#ED3237" d="M558.327,11.55c2.154-1.833,15.112-0.787,15.434-4.774l-0.916-1.077c-1.238,2.91-13.279,2.941-15.514,5.77
			L558.327,11.55z"/>
		<path fill="#373535" d="M552.28,3.307c5.126,3.705,8.1,10.926,6.304,16.651c-2.395,7.633-12.422,12.871-20.056,10.476
			c-7.634-2.395-7.334-3.349-4.64-11.936c2.694-8.587,0.973-16.464,9.205-15.977C546.254,2.465,549.715,1.455,552.28,3.307z"/>
		<path fill="#201E1E" d="M542.139,2.222l0.954,0.299c0.954,0.299,0.954,0.299,1.908,0.598c5.126,3.704,7.446,9.672,5.949,14.443
			c-2.096,6.679-10.87,11.263-17.549,9.167l-0.954-0.299c-0.655-1.253,0.244-4.115,1.441-7.932
			c2.694-8.587,0.973-16.464,9.205-15.977L542.139,2.222z"/>
		<path fill="#EEAC95" d="M535.832,15.796L535.832,15.796c2.207-0.355,3.105-3.217,6.922-2.02c1.609,1.552,0.112,6.323-1.441,7.932
			c-3.76,1.965-5.369,0.412-8.531,0.468c0.299-0.954,0.805-2.923,1.104-3.877c0.299-0.955,0.557-1.99,0.856-2.944L535.832,15.796z"
			/>
		<path fill="#ED3237" d="M559.07,11.726l-23.443-2.114c0.599-1.909,1.198-3.817,1.497-4.771l20.636,4.378
			C558.714,9.518,558.415,10.473,559.07,11.726z"/>
		<path fill="#F2BBA1" d="M533.944,21.66c0.299-0.954,1.197-3.817,1.496-4.77l0,0c1.553-1.609,3.106-3.218,5.968-2.32
			c1.609,1.553,0.113,6.323-1.141,6.978c-1.253,0.655-2.507,1.309-3.461,1.01C535.852,22.259,534.898,21.959,533.944,21.66"/>
		
			<ellipse transform="matrix(-0.9541 -0.2994 0.2994 -0.9541 1043.9419 196.8371)" fill="#201E1E" cx="537.05" cy="18.443" rx="1" ry="2"/>
		<ellipse fill="#FEFEFE" cx="536.394" cy="17.189" rx="0" ry="0"/>
		<polygon fill="#201E1E" points="539.556,17.132 534.486,16.59 534.786,15.636 540.155,15.224 		"/>
		<path fill="#373535" d="M555.459,39.938c-3.817-1.197-4.284-9.729,1.085-10.14c3.162-0.056,9.841,2.04,14.78,13.022
			c1.964,3.761,2.675,8.176,3.685,11.637l-4.415,0.711c-3.33-9.429-6.249-13.489-14.836-16.183L555.459,39.938z"/>
		<polygon fill="#F2BBA1" points="575.121,60.781 570.051,60.238 568.442,58.685 569.34,55.823 570.593,55.168 570.593,55.168 
			575.009,54.457 577.572,56.309 		"/>
		<path fill="#201E1E" d="M572.503,55.766l-2.208,0.355c-3.33-9.429-6.249-13.489-14.836-16.183
			c-2.863-0.899-4.228-6.567-1.422-8.831c1.908,0.599,0.711,4.416,3.274,6.268c2.264,2.807,7.034,4.303,7.689,5.557l2.563,1.853
			c2.263,2.806,2.974,7.222,5.238,10.028L572.503,55.766z"/>
		<polygon fill="#EEAC95" points="575.009,54.457 577.572,56.309 575.42,59.827 571.304,59.583 569.695,58.03 570.593,55.168 		"/>
		<polygon fill="#ED3237" points="566.947,54.633 547.682,53.733 548.214,48.756 565.955,51.236 		"/>
		<polygon fill="#AB3235" points="566.304,53.403 566.947,54.633 547.682,53.733 547.627,50.629 		"/>
		<path fill="#AB3235" d="M558.415,10.472c0.954,0.3,0.655,1.254,0.655,1.254l-23.443-2.115c0.299-0.954,0.599-1.908,0.898-2.862
			l21.59,4.678L558.415,10.472z"/>
		
			<ellipse transform="matrix(-0.3792 0.9253 -0.9253 -0.3792 757.0634 -472.0976)" fill="#FEFEFE" cx="536.897" cy="17.909" rx="0.741" ry="0.445"/>
	</g>
</g>
<g>
	<g id="Capa_x0020_1_11_">
		<polygon fill="#201E1E" points="454.769,87.25 450.152,86.358 443.731,90.134 443.746,91.996 455.73,91.896 455.715,90.034 		"/>
		<polygon fill="#373535" points="456.167,75.924 455.787,88.158 448.534,86.82 444.55,72.836 447.757,55.445 461.356,57.953 		"/>
		<polygon fill="#201E1E" points="447.27,73.338 450.477,55.947 461.356,57.953 456.167,75.924 455.787,88.158 451.254,87.322 		"/>
		<polygon fill="#201E1E" points="467.894,85.888 462.82,85.384 456.247,90.053 457.439,91.945 469.479,91.76 469.282,89.77 		"/>
		<polygon fill="#201E1E" points="465,75.333 468,87.333 459,87.333 453,74.333 453,55.333 467,55.333 		"/>
		<polygon fill="#373535" points="456,74.333 456,55.333 467,55.333 465,75.333 468,87.333 462,87.333 		"/>
		<path fill="#ED3237" d="M458.688,12.868c2.994,0.182,11.796,3.722,14.912,1.908l0.121-1.996c-3.115,1.815-13.036,0.21-15.97-0.97
			L458.688,12.868z"/>
		<path fill="#373535" d="M440.585,57.282l-1.366-5.669c7.521-3.929,5.8-11.805,7.596-17.53
			C449.154,23.288,463.989,39.471,440.585,57.282z"/>
		<path fill="#201E1E" d="M438.62,53.521c7.521-3.929,7.054-12.46,8.85-18.185c0.898-2.862,2.451-4.471,4.06-2.918
			c2.918,4.06,3.086,13.545-9.692,24.209L438.62,53.521z"/>
		<polygon fill="#F2BBA1" points="441.838,56.627 438.732,59.845 436.824,59.246 433.905,55.186 436.057,51.669 439.219,51.613 		
			"/>
		<polygon fill="#EEAC95" points="439.93,56.028 438.321,54.475 436.113,54.831 436.712,52.922 439.874,52.866 441.838,56.627 
			440.285,58.236 		"/>
		<path fill="#201E1E" d="M451.815,24.165l-3.985,2.865c0,0,0.991,3.398,1.634,4.628c1.579,1.524-2.021,26.115-2.021,26.115
			l21.432,0.551l-13.259-29.88L451.815,24.165z"/>
		<path fill="#373535" d="M458.775,31.494l-4.444-5.51l-2.755,2.222c0,0,0.991,3.398,1.634,4.628
			c-0.294,0.936-1.764,5.619-0.423,11.184c0.349,2.168,6.318,6.098,5.73,7.971c-0.826,5.913-7.97,5.729-8.264,6.666l19.265,0.9
			l-11.68-28.356L458.775,31.494z"/>
		<polygon fill="#AB3235" points="459.069,30.556 450.437,51.511 448.563,50.923 456.259,29.675 		"/>
		<path fill="#ED3237" d="M458.327,11.55c2.377-1.533,15.084,1.21,15.928-2.7l-0.766-1.188c-1.61,2.722-13.551,1.166-16.139,3.676
			L458.327,11.55z"/>
		<path fill="#373535" d="M452.28,3.307c5.126,3.705,8.1,10.926,6.304,16.651c-2.395,7.633-12.422,12.871-20.056,10.476
			c-7.634-2.395-7.334-3.349-4.64-11.936s0.973-16.464,9.205-15.977C446.254,2.465,449.715,1.455,452.28,3.307z"/>
		<path fill="#201E1E" d="M442.139,2.222l0.954,0.299c0.954,0.299,0.954,0.299,1.908,0.598c5.126,3.704,7.446,9.672,5.949,14.443
			c-2.096,6.679-10.87,11.263-17.549,9.167l-0.954-0.299c-0.655-1.253,0.244-4.115,1.441-7.932
			c2.694-8.587,0.973-16.464,9.205-15.977L442.139,2.222z"/>
		<path fill="#EEAC95" d="M435.832,15.796L435.832,15.796c2.207-0.355,3.105-3.217,6.922-2.02c1.609,1.552,0.112,6.323-1.441,7.932
			c-3.76,1.965-5.369,0.412-8.531,0.468c0.299-0.954,0.805-2.923,1.104-3.877c0.299-0.955,0.557-1.99,0.856-2.944L435.832,15.796z"
			/>
		<path fill="#ED3237" d="M459.07,11.726l-23.443-2.114c0.599-1.909,1.198-3.817,1.497-4.771l20.636,4.378
			C458.714,9.518,458.415,10.473,459.07,11.726z"/>
		<path fill="#F2BBA1" d="M433.944,21.66c0.299-0.954,1.197-3.817,1.496-4.77l0,0c1.553-1.609,3.106-3.218,5.968-2.32
			c1.609,1.553,0.113,6.323-1.141,6.978c-1.253,0.655-2.507,1.309-3.461,1.01C435.852,22.259,434.898,21.959,433.944,21.66"/>
		
			<ellipse transform="matrix(-0.9541 -0.2994 0.2994 -0.9541 848.5294 166.8964)" fill="#201E1E" cx="437.05" cy="18.443" rx="1" ry="2"/>
		<ellipse fill="#FEFEFE" cx="436.394" cy="17.189" rx="0" ry="0"/>
		<polygon fill="#201E1E" points="439.556,17.132 434.486,16.59 434.786,15.636 440.155,15.224 		"/>
		<path fill="#373535" d="M455.459,39.938c-3.817-1.197-4.284-9.729,1.085-10.14c3.162-0.056,9.841,2.04,14.78,13.022
			c1.964,3.761,2.675,8.176,3.685,11.637l-4.415,0.711c-3.33-9.429-6.249-13.489-14.836-16.183L455.459,39.938z"/>
		<polygon fill="#F2BBA1" points="475.121,60.781 470.051,60.238 468.442,58.685 469.34,55.823 470.593,55.168 470.593,55.168 
			475.009,54.457 477.572,56.309 		"/>
		<path fill="#201E1E" d="M472.503,55.766l-2.208,0.355c-3.33-9.429-6.249-13.489-14.836-16.183
			c-2.863-0.899-4.228-6.567-1.422-8.831c1.908,0.599,0.711,4.416,3.274,6.268c2.264,2.807,7.034,4.303,7.689,5.557l2.563,1.853
			c2.263,2.806,2.974,7.222,5.238,10.028L472.503,55.766z"/>
		<polygon fill="#EEAC95" points="475.009,54.457 477.572,56.309 475.42,59.827 471.304,59.583 469.695,58.03 470.593,55.168 		"/>
		<polygon fill="#ED3237" points="466.947,54.633 447.682,53.733 448.214,48.756 465.955,51.236 		"/>
		<polygon fill="#AB3235" points="466.304,53.403 466.947,54.633 447.682,53.733 447.627,50.629 		"/>
		<path fill="#AB3235" d="M458.415,10.472c0.954,0.3,0.655,1.254,0.655,1.254l-23.443-2.115c0.299-0.954,0.599-1.908,0.898-2.862
			l21.59,4.678L458.415,10.472z"/>
		
			<ellipse transform="matrix(-0.3792 0.9253 -0.9253 -0.3792 619.1428 -379.5663)" fill="#FEFEFE" cx="436.897" cy="17.909" rx="0.741" ry="0.445"/>
	</g>
</g>
<g>
	<g id="Capa_x0020_1_10_">
		<polygon fill="#201E1E" points="354.769,87.25 350.152,86.358 343.731,90.134 343.746,91.996 355.73,91.896 355.715,90.034 		"/>
		<polygon fill="#373535" points="356.167,75.924 355.787,88.158 348.534,86.82 344.55,72.836 347.757,55.445 361.356,57.953 		"/>
		<polygon fill="#201E1E" points="347.27,73.338 350.477,55.947 361.356,57.953 356.167,75.924 355.787,88.158 351.254,87.322 		"/>
		<polygon fill="#201E1E" points="367.894,85.888 362.82,85.384 356.247,90.053 357.439,91.945 369.479,91.76 369.282,89.77 		"/>
		<polygon fill="#201E1E" points="365,75.333 368,87.333 359,87.333 353,74.333 353,55.333 367,55.333 		"/>
		<polygon fill="#373535" points="356,74.333 356,55.333 367,55.333 365,75.333 368,87.333 362,87.333 		"/>
		<path fill="#ED3237" d="M358.551,13.074c2.93,0.645,11.075,5.508,14.435,4.2l0.43-1.953c-3.359,1.309-12.911-1.817-15.626-3.438
			L358.551,13.074z"/>
		<path fill="#373535" d="M340.585,57.282l-1.366-5.669c7.521-3.929,5.8-11.805,7.596-17.53
			C349.154,23.288,363.989,39.471,340.585,57.282z"/>
		<path fill="#201E1E" d="M338.62,53.521c7.521-3.929,7.054-12.46,8.85-18.185c0.898-2.862,2.451-4.471,4.06-2.918
			c2.918,4.06,3.086,13.545-9.692,24.209L338.62,53.521z"/>
		<polygon fill="#F2BBA1" points="341.838,56.627 338.732,59.845 336.824,59.246 333.905,55.186 336.057,51.669 339.219,51.613 		
			"/>
		<polygon fill="#EEAC95" points="339.93,56.028 338.321,54.475 336.113,54.831 336.712,52.922 339.874,52.866 341.838,56.627 
			340.285,58.236 		"/>
		<path fill="#201E1E" d="M351.815,24.165l-3.985,2.865c0,0,0.991,3.398,1.634,4.628c1.579,1.524-2.021,26.115-2.021,26.115
			l21.432,0.551l-13.259-29.88L351.815,24.165z"/>
		<path fill="#373535" d="M358.775,31.494l-4.444-5.51l-2.755,2.222c0,0,0.991,3.398,1.634,4.628
			c-0.294,0.936-1.764,5.619-0.423,11.184c0.349,2.168,6.318,6.098,5.73,7.971c-0.826,5.913-7.97,5.729-8.264,6.666l19.265,0.9
			l-11.68-28.356L358.775,31.494z"/>
		<polygon fill="#AB3235" points="359.069,30.556 350.437,51.511 348.563,50.923 356.259,29.675 		"/>
		<path fill="#ED3237" d="M358.399,11.717c2.586-1.146,14.713,3.538,16.154-0.194l-0.572-1.293
			c-2.014,2.439-13.567-0.952-16.514,1.126L358.399,11.717z"/>
		<path fill="#373535" d="M352.28,3.307c5.126,3.705,8.1,10.926,6.304,16.651c-2.395,7.633-12.422,12.871-20.056,10.476
			c-7.634-2.395-7.334-3.349-4.64-11.936s0.973-16.464,9.205-15.977C346.254,2.465,349.715,1.455,352.28,3.307z"/>
		<path fill="#201E1E" d="M342.139,2.222l0.954,0.299c0.954,0.299,0.954,0.299,1.908,0.598c5.126,3.704,7.446,9.672,5.949,14.443
			c-2.096,6.679-10.87,11.263-17.549,9.167l-0.954-0.299c-0.655-1.253,0.244-4.115,1.441-7.932
			c2.694-8.587,0.973-16.464,9.205-15.977L342.139,2.222z"/>
		<path fill="#EEAC95" d="M335.832,15.796L335.832,15.796c2.207-0.355,3.105-3.217,6.922-2.02c1.609,1.552,0.112,6.323-1.441,7.932
			c-3.76,1.965-5.369,0.412-8.531,0.468c0.299-0.954,0.805-2.923,1.104-3.877c0.299-0.955,0.557-1.99,0.856-2.944L335.832,15.796z"
			/>
		<path fill="#ED3237" d="M359.07,11.726l-23.443-2.114c0.599-1.909,1.198-3.817,1.497-4.771l20.636,4.378
			C358.714,9.518,358.415,10.473,359.07,11.726z"/>
		<path fill="#F2BBA1" d="M333.944,21.66c0.299-0.954,1.197-3.817,1.496-4.77l0,0c1.553-1.609,3.106-3.218,5.968-2.32
			c1.609,1.553,0.113,6.323-1.141,6.978c-1.253,0.655-2.507,1.309-3.461,1.01C335.852,22.259,334.898,21.959,333.944,21.66"/>
		
			<ellipse transform="matrix(-0.9541 -0.2994 0.2994 -0.9541 653.1168 136.9556)" fill="#201E1E" cx="337.05" cy="18.443" rx="1" ry="2"/>
		<ellipse fill="#FEFEFE" cx="336.394" cy="17.189" rx="0" ry="0"/>
		<polygon fill="#201E1E" points="339.556,17.132 334.486,16.59 334.786,15.636 340.155,15.224 		"/>
		<path fill="#373535" d="M355.459,39.938c-3.817-1.197-4.284-9.729,1.085-10.14c3.162-0.056,9.841,2.04,14.78,13.022
			c1.964,3.761,2.675,8.176,3.685,11.637l-4.415,0.711c-3.33-9.429-6.249-13.489-14.836-16.183L355.459,39.938z"/>
		<polygon fill="#F2BBA1" points="375.121,60.781 370.051,60.238 368.442,58.685 369.34,55.823 370.593,55.168 370.593,55.168 
			375.009,54.457 377.572,56.309 		"/>
		<path fill="#201E1E" d="M372.503,55.766l-2.208,0.355c-3.33-9.429-6.249-13.489-14.836-16.183
			c-2.863-0.899-4.228-6.567-1.422-8.831c1.908,0.599,0.711,4.416,3.274,6.268c2.264,2.807,7.034,4.303,7.689,5.557l2.563,1.853
			c2.263,2.806,2.974,7.222,5.238,10.028L372.503,55.766z"/>
		<polygon fill="#EEAC95" points="375.009,54.457 377.572,56.309 375.42,59.827 371.304,59.583 369.695,58.03 370.593,55.168 		"/>
		<polygon fill="#ED3237" points="366.947,54.633 347.682,53.733 348.214,48.756 365.955,51.236 		"/>
		<polygon fill="#AB3235" points="366.304,53.403 366.947,54.633 347.682,53.733 347.627,50.629 		"/>
		<path fill="#AB3235" d="M358.415,10.472c0.954,0.3,0.655,1.254,0.655,1.254l-23.443-2.115c0.299-0.954,0.599-1.908,0.898-2.862
			l21.59,4.678L358.415,10.472z"/>
		
			<ellipse transform="matrix(-0.3792 0.9253 -0.9253 -0.3792 481.2223 -287.035)" fill="#FEFEFE" cx="336.897" cy="17.909" rx="0.741" ry="0.445"/>
	</g>
</g>
<g>
	<g id="Capa_x0020_1_9_">
		<polygon fill="#201E1E" points="254.769,87.25 250.152,86.358 243.731,90.134 243.746,91.996 255.73,91.896 255.715,90.034 		"/>
		<polygon fill="#373535" points="256.167,75.924 255.787,88.158 248.534,86.82 244.55,72.836 247.757,55.445 261.356,57.953 		"/>
		<polygon fill="#201E1E" points="247.27,73.338 250.477,55.947 261.356,57.953 256.167,75.924 255.787,88.158 251.254,87.322 		"/>
		<polygon fill="#201E1E" points="267.894,85.888 262.82,85.384 256.247,90.053 257.439,91.945 269.479,91.76 269.282,89.77 		"/>
		<polygon fill="#201E1E" points="265,75.333 268,87.333 259,87.333 253,74.333 253,55.333 267,55.333 		"/>
		<polygon fill="#373535" points="256,74.333 256,55.333 267,55.333 265,75.333 268,87.333 262,87.333 		"/>
		<path fill="#ED3237" d="M258.447,12.995c2.82,1.023,10.257,6.913,13.759,6.056l0.682-1.88c-3.502,0.857-12.561-3.494-15.04-5.457
			L258.447,12.995z"/>
		<path fill="#373535" d="M240.585,57.282l-1.366-5.669c7.521-3.929,5.8-11.805,7.596-17.53
			C249.154,23.288,263.989,39.471,240.585,57.282z"/>
		<path fill="#201E1E" d="M238.62,53.521c7.521-3.929,7.054-12.46,8.85-18.185c0.898-2.862,2.451-4.471,4.06-2.918
			c2.918,4.06,3.086,13.545-9.692,24.209L238.62,53.521z"/>
		<polygon fill="#F2BBA1" points="241.838,56.627 238.732,59.845 236.824,59.246 233.905,55.186 236.057,51.669 239.219,51.613 		
			"/>
		<polygon fill="#EEAC95" points="239.93,56.028 238.321,54.475 236.113,54.831 236.712,52.922 239.874,52.866 241.838,56.627 
			240.285,58.236 		"/>
		<path fill="#201E1E" d="M251.815,24.165l-3.985,2.865c0,0,0.991,3.398,1.634,4.628c1.579,1.524-2.021,26.115-2.021,26.115
			l21.432,0.551l-13.259-29.88L251.815,24.165z"/>
		<path fill="#373535" d="M258.775,31.494l-4.444-5.51l-2.755,2.222c0,0,0.991,3.398,1.634,4.628
			c-0.294,0.936-1.764,5.619-0.423,11.184c0.349,2.168,6.318,6.098,5.73,7.971c-0.826,5.913-7.97,5.729-8.264,6.666l19.265,0.9
			l-11.68-28.356L258.775,31.494z"/>
		<polygon fill="#AB3235" points="259.069,30.556 250.437,51.511 248.563,50.923 256.259,29.675 		"/>
		<path fill="#ED3237" d="M258.474,11.629c2.714-0.797,14.122,5.436,16.04,1.926l-0.398-1.357
			c-2.316,2.153-13.326-2.722-16.519-1.049L258.474,11.629z"/>
		<path fill="#373535" d="M252.28,3.307c5.126,3.705,8.1,10.926,6.304,16.651c-2.395,7.633-12.422,12.871-20.056,10.476
			s-7.334-3.349-4.64-11.936s0.973-16.464,9.205-15.977C246.254,2.465,249.715,1.455,252.28,3.307z"/>
		<path fill="#201E1E" d="M242.139,2.222l0.954,0.299c0.954,0.299,0.954,0.299,1.908,0.598c5.126,3.704,7.446,9.672,5.949,14.443
			c-2.096,6.679-10.87,11.263-17.549,9.167l-0.954-0.299c-0.655-1.253,0.244-4.115,1.441-7.932
			c2.694-8.587,0.973-16.464,9.205-15.977L242.139,2.222z"/>
		<path fill="#EEAC95" d="M235.832,15.796L235.832,15.796c2.207-0.355,3.105-3.217,6.922-2.02c1.609,1.552,0.112,6.323-1.441,7.932
			c-3.76,1.965-5.369,0.412-8.531,0.468c0.299-0.954,0.805-2.923,1.104-3.877c0.299-0.955,0.557-1.99,0.856-2.944L235.832,15.796z"
			/>
		<path fill="#ED3237" d="M259.07,11.726l-23.443-2.114c0.599-1.909,1.198-3.817,1.497-4.771l20.636,4.378
			C258.714,9.518,258.415,10.473,259.07,11.726z"/>
		<path fill="#F2BBA1" d="M233.944,21.66c0.299-0.954,1.197-3.817,1.496-4.77l0,0c1.553-1.609,3.106-3.218,5.968-2.32
			c1.609,1.553,0.113,6.323-1.141,6.978c-1.253,0.655-2.507,1.309-3.461,1.01C235.852,22.259,234.898,21.959,233.944,21.66"/>
		
			<ellipse transform="matrix(-0.9541 -0.2994 0.2994 -0.9541 457.7043 107.0148)" fill="#201E1E" cx="237.05" cy="18.443" rx="1" ry="2"/>
		<ellipse fill="#FEFEFE" cx="236.394" cy="17.189" rx="0" ry="0"/>
		<polygon fill="#201E1E" points="239.556,17.132 234.486,16.59 234.786,15.636 240.155,15.224 		"/>
		<path fill="#373535" d="M255.459,39.938c-3.817-1.197-4.284-9.729,1.085-10.14c3.162-0.056,9.841,2.04,14.78,13.022
			c1.964,3.761,2.675,8.176,3.685,11.637l-4.415,0.711c-3.33-9.429-6.249-13.489-14.836-16.183L255.459,39.938z"/>
		<polygon fill="#F2BBA1" points="275.121,60.781 270.051,60.238 268.442,58.685 269.34,55.823 270.593,55.168 270.593,55.168 
			275.009,54.457 277.572,56.309 		"/>
		<path fill="#201E1E" d="M272.503,55.766l-2.208,0.355c-3.33-9.429-6.249-13.489-14.836-16.183
			c-2.863-0.899-4.228-6.567-1.422-8.831c1.908,0.599,0.711,4.416,3.274,6.268c2.264,2.807,7.034,4.303,7.689,5.557l2.563,1.853
			c2.263,2.806,2.974,7.222,5.238,10.028L272.503,55.766z"/>
		<polygon fill="#EEAC95" points="275.009,54.457 277.572,56.309 275.42,59.827 271.304,59.583 269.695,58.03 270.593,55.168 		"/>
		<polygon fill="#ED3237" points="266.947,54.633 247.682,53.733 248.214,48.756 265.955,51.236 		"/>
		<polygon fill="#AB3235" points="266.304,53.403 266.947,54.633 247.682,53.733 247.627,50.629 		"/>
		<path fill="#AB3235" d="M258.415,10.472c0.954,0.3,0.655,1.254,0.655,1.254l-23.443-2.115c0.299-0.954,0.599-1.908,0.898-2.862
			l21.59,4.678L258.415,10.472z"/>
		
			<ellipse transform="matrix(-0.3792 0.9253 -0.9253 -0.3792 343.3018 -194.5038)" fill="#FEFEFE" cx="236.897" cy="17.909" rx="0.741" ry="0.445"/>
	</g>
</g>
<g>
	<g id="Capa_x0020_1_8_">
		<polygon fill="#201E1E" points="154.769,87.25 150.152,86.358 143.731,90.134 143.746,91.996 155.73,91.896 155.715,90.034 		"/>
		<polygon fill="#373535" points="156.167,75.924 155.787,88.158 148.534,86.82 144.55,72.836 147.757,55.445 161.356,57.953 		"/>
		<polygon fill="#201E1E" points="147.27,73.338 150.477,55.947 161.356,57.953 156.167,75.924 155.787,88.158 151.254,87.322 		"/>
		<polygon fill="#201E1E" points="167.894,85.888 162.82,85.384 156.247,90.053 157.439,91.945 169.479,91.76 169.282,89.77 		"/>
		<polygon fill="#201E1E" points="165,75.333 168,87.333 159,87.333 153,74.333 153,55.333 167,55.333 		"/>
		<polygon fill="#373535" points="156,74.333 156,55.333 167,55.333 165,75.333 168,87.333 162,87.333 		"/>
		<path fill="#ED3237" d="M158.452,12.818c2.917,0.699,10.97,5.714,14.354,4.468l0.466-1.945
			c-3.383,1.246-12.875-2.057-15.559-3.728L158.452,12.818z"/>
		<path fill="#373535" d="M140.585,57.282l-1.366-5.669c7.521-3.929,5.8-11.805,7.596-17.53
			C149.154,23.288,163.989,39.471,140.585,57.282z"/>
		<path fill="#201E1E" d="M138.62,53.521c7.521-3.929,7.054-12.46,8.85-18.185c0.898-2.862,2.451-4.471,4.06-2.918
			c2.918,4.06,3.086,13.545-9.692,24.209L138.62,53.521z"/>
		<polygon fill="#F2BBA1" points="141.838,56.627 138.732,59.845 136.824,59.246 133.905,55.186 136.057,51.669 139.219,51.613 		
			"/>
		<polygon fill="#EEAC95" points="139.93,56.028 138.321,54.475 136.113,54.831 136.712,52.922 139.874,52.866 141.838,56.627 
			140.285,58.236 		"/>
		<path fill="#201E1E" d="M151.815,24.165l-3.985,2.865c0,0,0.991,3.398,1.634,4.628c1.579,1.524-2.021,26.115-2.021,26.115
			l21.432,0.551l-13.259-29.88L151.815,24.165z"/>
		<path fill="#373535" d="M158.775,31.494l-4.444-5.51l-2.755,2.222c0,0,0.991,3.398,1.634,4.628
			c-0.294,0.936-1.764,5.619-0.423,11.184c0.349,2.168,6.318,6.098,5.73,7.971c-0.826,5.913-7.97,5.729-8.264,6.666l19.265,0.9
			l-11.68-28.356L158.775,31.494z"/>
		<polygon fill="#AB3235" points="159.069,30.556 150.437,51.511 148.563,50.923 156.259,29.675 		"/>
		<path fill="#ED3237" d="M158.326,11.458c2.607-1.097,14.645,3.811,16.155,0.107l-0.548-1.303
			c-2.059,2.401-13.547-1.204-16.532,0.818L158.326,11.458z"/>
		<path fill="#373535" d="M152.28,3.307c5.126,3.705,8.1,10.926,6.304,16.651c-2.395,7.633-12.422,12.871-20.056,10.476
			s-7.334-3.349-4.64-11.936s0.973-16.464,9.205-15.977C146.254,2.465,149.715,1.455,152.28,3.307z"/>
		<path fill="#201E1E" d="M142.139,2.222l0.954,0.299c0.954,0.299,0.954,0.299,1.908,0.598c5.126,3.704,7.446,9.672,5.949,14.443
			c-2.096,6.679-10.87,11.263-17.549,9.167l-0.954-0.299c-0.655-1.253,0.244-4.115,1.441-7.932
			c2.694-8.587,0.973-16.464,9.205-15.977L142.139,2.222z"/>
		<path fill="#EEAC95" d="M135.832,15.796L135.832,15.796c2.207-0.355,3.105-3.217,6.922-2.02c1.609,1.552,0.112,6.323-1.441,7.932
			c-3.76,1.965-5.369,0.412-8.531,0.468c0.299-0.954,0.805-2.923,1.104-3.877c0.299-0.955,0.557-1.99,0.856-2.944L135.832,15.796z"
			/>
		<path fill="#ED3237" d="M159.07,11.726l-23.443-2.114c0.599-1.909,1.198-3.817,1.497-4.771l20.636,4.378
			C158.714,9.518,158.415,10.473,159.07,11.726z"/>
		<path fill="#F2BBA1" d="M133.944,21.66c0.299-0.954,1.197-3.817,1.496-4.77l0,0c1.553-1.609,3.106-3.218,5.968-2.32
			c1.609,1.553,0.113,6.323-1.141,6.978c-1.253,0.655-2.507,1.309-3.461,1.01C135.852,22.259,134.898,21.959,133.944,21.66"/>
		
			<ellipse transform="matrix(-0.9541 -0.2994 0.2994 -0.9541 262.2918 77.074)" fill="#201E1E" cx="137.05" cy="18.443" rx="1" ry="2"/>
		<ellipse fill="#FEFEFE" cx="136.394" cy="17.189" rx="0" ry="0"/>
		<polygon fill="#201E1E" points="139.556,17.132 134.486,16.59 134.786,15.636 140.155,15.224 		"/>
		<path fill="#373535" d="M155.459,39.938c-3.817-1.197-4.284-9.729,1.085-10.14c3.162-0.056,9.841,2.04,14.78,13.022
			c1.964,3.761,2.675,8.176,3.685,11.637l-4.415,0.711c-3.33-9.429-6.249-13.489-14.836-16.183L155.459,39.938z"/>
		<polygon fill="#F2BBA1" points="175.121,60.781 170.051,60.238 168.442,58.685 169.34,55.823 170.593,55.168 170.593,55.168 
			175.009,54.457 177.572,56.309 		"/>
		<path fill="#201E1E" d="M172.503,55.766l-2.208,0.355c-3.33-9.429-6.249-13.489-14.836-16.183
			c-2.863-0.899-4.228-6.567-1.422-8.831c1.908,0.599,0.711,4.416,3.274,6.268c2.264,2.807,7.034,4.303,7.689,5.557l2.563,1.853
			c2.263,2.806,2.974,7.222,5.238,10.028L172.503,55.766z"/>
		<polygon fill="#EEAC95" points="175.009,54.457 177.572,56.309 175.42,59.827 171.304,59.583 169.695,58.03 170.593,55.168 		"/>
		<polygon fill="#ED3237" points="166.947,54.633 147.682,53.733 148.214,48.756 165.955,51.236 		"/>
		<polygon fill="#AB3235" points="166.304,53.403 166.947,54.633 147.682,53.733 147.627,50.629 		"/>
		<path fill="#AB3235" d="M158.415,10.472c0.954,0.3,0.655,1.254,0.655,1.254l-23.443-2.115c0.299-0.954,0.599-1.908,0.898-2.862
			l21.59,4.678L158.415,10.472z"/>
		
			<ellipse transform="matrix(-0.3792 0.9253 -0.9253 -0.3792 205.3813 -101.9725)" fill="#FEFEFE" cx="136.897" cy="17.909" rx="0.741" ry="0.445"/>
	</g>
</g>
<g>
	<g id="Capa_x0020_1_7_">
		<polygon fill="#201E1E" points="54.769,87.25 50.152,86.358 43.731,90.134 43.746,91.996 55.73,91.896 55.715,90.034 		"/>
		<polygon fill="#373535" points="56.167,75.924 55.787,88.158 48.534,86.82 44.55,72.836 47.757,55.445 61.356,57.953 		"/>
		<polygon fill="#201E1E" points="47.27,73.338 50.477,55.947 61.356,57.953 56.167,75.924 55.787,88.158 51.254,87.322 		"/>
		<polygon fill="#201E1E" points="67.894,85.888 62.82,85.384 56.247,90.053 57.439,91.945 69.479,91.76 69.282,89.77 		"/>
		<polygon fill="#201E1E" points="65,75.333 68,87.333 59,87.333 53,74.333 53,55.333 67,55.333 		"/>
		<polygon fill="#373535" points="56,74.333 56,55.333 67,55.333 65,75.333 68,87.333 62,87.333 		"/>
		<path fill="#ED3237" d="M58.642,12.86c2.993,0.194,11.78,3.77,14.904,1.969l0.129-1.996c-3.123,1.802-13.037,0.156-15.966-1.035
			L58.642,12.86z"/>
		<path fill="#373535" d="M40.585,57.282l-1.366-5.669c7.521-3.929,5.8-11.805,7.596-17.53
			C49.154,23.288,63.989,39.471,40.585,57.282z"/>
		<path fill="#201E1E" d="M38.62,53.521c7.521-3.929,7.054-12.46,8.85-18.185c0.898-2.862,2.451-4.471,4.06-2.918
			c2.918,4.06,3.086,13.545-9.692,24.209L38.62,53.521z"/>
		<polygon fill="#F2BBA1" points="41.838,56.627 38.732,59.845 36.824,59.246 33.905,55.186 36.057,51.669 39.219,51.613 		"/>
		<polygon fill="#EEAC95" points="39.93,56.028 38.321,54.475 36.113,54.831 36.712,52.922 39.874,52.866 41.838,56.627 
			40.285,58.236 		"/>
		<path fill="#201E1E" d="M51.815,24.165L47.83,27.03c0,0,0.991,3.398,1.634,4.628c1.579,1.524-2.021,26.115-2.021,26.115
			l21.432,0.551l-13.259-29.88L51.815,24.165z"/>
		<path fill="#373535" d="M58.775,31.494l-4.444-5.51l-2.755,2.222c0,0,0.991,3.398,1.634,4.628
			c-0.294,0.936-1.764,5.619-0.423,11.184c0.349,2.168,6.318,6.098,5.73,7.971c-0.826,5.913-7.97,5.729-8.264,6.666l19.265,0.9
			l-11.68-28.356L58.775,31.494z"/>
		<polygon fill="#AB3235" points="59.069,30.556 50.437,51.511 48.563,50.923 56.259,29.675 		"/>
		<path fill="#ED3237" d="M58.287,11.541c2.383-1.524,15.079,1.272,15.939-2.634l-0.761-1.191
			c-1.622,2.715-13.555,1.111-16.154,3.61L58.287,11.541z"/>
		<path fill="#373535" d="M52.28,3.307c5.126,3.705,8.1,10.926,6.304,16.651c-2.395,7.633-12.422,12.871-20.056,10.476
			s-7.334-3.349-4.64-11.936c2.694-8.587,0.973-16.464,9.205-15.977C46.254,2.465,49.715,1.455,52.28,3.307z"/>
		<path fill="#201E1E" d="M42.139,2.222l0.954,0.299c0.954,0.299,0.954,0.299,1.908,0.598c5.126,3.704,7.446,9.672,5.949,14.443
			c-2.096,6.679-10.87,11.263-17.549,9.167l-0.954-0.299c-0.655-1.253,0.244-4.115,1.441-7.932
			c2.694-8.587,0.973-16.464,9.205-15.977L42.139,2.222z"/>
		<path fill="#EEAC95" d="M35.832,15.796L35.832,15.796c2.207-0.355,3.105-3.217,6.922-2.02c1.609,1.552,0.112,6.323-1.441,7.932
			c-3.76,1.965-5.369,0.412-8.531,0.468c0.299-0.954,0.805-2.923,1.104-3.877c0.299-0.955,0.557-1.99,0.856-2.944L35.832,15.796z"/>
		<path fill="#ED3237" d="M59.07,11.726L35.627,9.612c0.599-1.909,1.198-3.817,1.497-4.771L57.76,9.219
			C58.714,9.518,58.415,10.473,59.07,11.726z"/>
		<path fill="#F2BBA1" d="M33.944,21.66c0.299-0.954,1.197-3.817,1.496-4.77l0,0c1.553-1.609,3.106-3.218,5.968-2.32
			c1.609,1.553,0.113,6.323-1.141,6.978c-1.253,0.655-2.507,1.309-3.461,1.01C35.852,22.259,34.898,21.959,33.944,21.66"/>
		
			<ellipse transform="matrix(-0.9541 -0.2994 0.2994 -0.9541 66.8792 47.1332)" fill="#201E1E" cx="37.05" cy="18.443" rx="1" ry="2"/>
		<ellipse fill="#FEFEFE" cx="36.394" cy="17.189" rx="0" ry="0"/>
		<polygon fill="#201E1E" points="39.556,17.132 34.486,16.59 34.786,15.636 40.155,15.224 		"/>
		<path fill="#373535" d="M55.459,39.938c-3.817-1.197-4.284-9.729,1.085-10.14c3.162-0.056,9.841,2.04,14.78,13.022
			c1.964,3.761,2.675,8.176,3.685,11.637l-4.415,0.711c-3.33-9.429-6.249-13.489-14.836-16.183L55.459,39.938z"/>
		<polygon fill="#F2BBA1" points="75.121,60.781 70.051,60.238 68.442,58.685 69.34,55.823 70.593,55.168 70.593,55.168 
			75.009,54.457 77.572,56.309 		"/>
		<path fill="#201E1E" d="M72.503,55.766l-2.208,0.355c-3.33-9.429-6.249-13.489-14.836-16.183
			c-2.863-0.899-4.228-6.567-1.422-8.831c1.908,0.599,0.711,4.416,3.274,6.268c2.264,2.807,7.034,4.303,7.689,5.557l2.563,1.853
			c2.263,2.806,2.974,7.222,5.238,10.028L72.503,55.766z"/>
		<polygon fill="#EEAC95" points="75.009,54.457 77.572,56.309 75.42,59.827 71.304,59.583 69.695,58.03 70.593,55.168 		"/>
		<polygon fill="#ED3237" points="66.947,54.633 47.682,53.733 48.214,48.756 65.955,51.236 		"/>
		<polygon fill="#AB3235" points="66.304,53.403 66.947,54.633 47.682,53.733 47.627,50.629 		"/>
		<path fill="#AB3235" d="M58.415,10.472c0.954,0.3,0.655,1.254,0.655,1.254L35.627,9.611c0.299-0.954,0.599-1.908,0.898-2.862
			l21.59,4.678L58.415,10.472z"/>
		
			<ellipse transform="matrix(-0.3792 0.9253 -0.9253 -0.3792 67.4608 -9.4413)" fill="#FEFEFE" cx="36.897" cy="17.909" rx="0.741" ry="0.445"/>
	</g>
</g>
<g id="Capa_2">
	<rect fill="none" width="600" height="100"/>
</g>
</svg>
