<?xml version="1.0" encoding="utf-8"?>
<!-- Generator: Adobe Illustrator 17.0.0, SVG Export Plug-In . SVG Version: 6.00 Build 0)  -->
<!DOCTYPE svg PUBLIC "-//W3C//DTD SVG 1.1//EN" "http://www.w3.org/Graphics/SVG/1.1/DTD/svg11.dtd">
<svg version="1.1" id="Capa_1" xmlns="http://www.w3.org/2000/svg" xmlns:xlink="http://www.w3.org/1999/xlink" x="0px" y="0px"
	 width="51px" height="51px" viewBox="0 0 51 51" enable-background="new 0 0 51 51" xml:space="preserve">
<g id="Capa_x0020_2">
	<circle fill="#3E4095" cx="25.5" cy="25.5" r="25.5"/>
	<g id="_294702344">
		<path fill="#FCFCFC" d="M25.5,12.836c4.364,0,7.915,3.979,7.915,8.899c0,0.214,0,0.385,0,0.599
			c-1.027-1.198-2.268-2.139-3.722-2.781l0,0l-0.043-0.086l0,0l-0.043-0.086v-0.043l-0.043-0.043l-0.043-0.086l-0.043-0.086l0,0
			l-0.043-0.086l0,0l-0.043-0.086l-0.043-0.086l-0.043-0.043v-0.043l-0.043-0.086l0,0l-0.043-0.086l0,0l-0.043-0.086l-0.043-0.086
			l-0.043-0.043v-0.043l-0.043-0.086l0,0l-0.043-0.086l0,0l-0.043-0.086v-0.043l-0.043-0.043L28.88,17.97v-0.043l-0.043-0.086l0,0
			l0,0l-0.128-0.128l-0.043-0.043l-0.043-0.043l-0.043-0.043l0,0l-0.043-0.043l0,0l-0.043-0.086l0,0l-0.043-0.043l-0.043-0.043
			l-0.043-0.043l-0.043-0.043l0,0l-0.086-0.043L28.153,17.2l0,0l-0.043-0.043l-0.043-0.043l-0.043-0.043l-0.043-0.043l0,0
			l-0.086-0.043l0,0l-0.086-0.043l0,0L27.768,16.9l-0.043-0.043h-0.043l-0.043-0.043l0,0l-0.086-0.043l0,0l-0.086-0.043h-0.043
			l-0.043-0.043l-0.043-0.043h-0.043l-0.086-0.043l0,0l-0.086-0.043l0,0l-0.086-0.043h-0.043h-0.043h-0.043h-0.043l-0.086-0.043l0,0
			l-0.086-0.043l0,0l-0.086-0.043H26.57h-0.043h-0.043h-0.043h-0.086l0,0H26.27l0,0h-0.086h-0.043h-0.043h-0.043h-0.043h-0.086l0,0
			h-0.086l0,0h-0.086h-0.043h-0.043h-0.043h-0.043H25.5h-0.086h-0.043h-0.043h-0.043h-0.043h-0.086l0,0h-0.086l0,0h-0.086h-0.043
			h-0.043h-0.043h-0.043H24.73l0,0h-0.086l0,0h-0.086h-0.043h-0.043H24.43h-0.043l-0.086,0.043l0,0l-0.086,0.043l0,0l-0.086,0.043
			h-0.043h-0.043h-0.043H23.96l-0.086,0.043l0,0l-0.086,0.043l0,0l-0.086,0.043H23.66l-0.043,0.043l-0.043,0.043h-0.043
			l-0.086,0.043l0,0l-0.086,0.043l0,0l-0.043,0.043h-0.043L23.232,16.9l-0.043,0.043l0,0l-0.086,0.043l0,0l-0.086,0.043l0,0
			l-0.043,0.043l-0.043,0.043l-0.043,0.043L22.847,17.2l0,0l-0.086,0.043l-0.086,0.043l0,0l-0.043,0.043l-0.043,0.043l-0.043,0.043
			l-0.043,0.043l0,0l-0.043,0.086l0,0l-0.043,0.043l0,0l-0.043,0.043l-0.043,0.043l-0.043,0.043l-0.128,0.128l0,0l0,0l-0.043,0.086
			v0.043l-0.043,0.043l-0.043,0.043v0.043l-0.043,0.086l0,0l-0.043,0.086l0,0l-0.043,0.086v0.043l-0.043,0.043l-0.043,0.086
			l-0.043,0.086l0,0l-0.043,0.086l0,0l-0.043,0.086v0.043l-0.043,0.043l-0.043,0.086l-0.043,0.086l0,0l-0.043,0.086l0,0
			l-0.043,0.086l-0.043,0.086l-0.043,0.043v0.043l-0.043,0.086l0,0l-0.043,0.086l0,0c-1.455,0.642-2.695,1.583-3.722,2.781
			c0-0.214,0-0.385,0-0.599C17.585,16.815,21.136,12.836,25.5,12.836z"/>
		<path fill="#FCFCFC" d="M25.5,20.023c5.006,0,9.07,4.065,9.07,9.07s-4.065,9.07-9.07,9.07s-9.07-4.065-9.07-9.07
			S20.494,20.023,25.5,20.023z"/>
	</g>
</g>
<path fill="#3E4095" d="M26.869,29.69l0.813,3.551c0.086,0.342-1.284,0.685-1.669,0.685h-1.198c-0.385,0-1.54-0.257-1.455-0.599
	l0.642-3.68c-0.727-0.471-1.241-1.326-1.241-2.31c0-1.497,1.241-2.738,2.738-2.738c1.497,0,2.738,1.241,2.738,2.738
	c0,1.027-0.556,1.925-1.369,2.396V29.69z"/>
</svg>
