<?xml version="1.0" encoding="UTF-8"?>
<!DOCTYPE svg PUBLIC "-//W3C//DTD SVG 1.1//EN" "http://www.w3.org/Graphics/SVG/1.1/DTD/svg11.dtd">
<!-- Creator: CorelDRAW X6 -->
<svg xmlns="http://www.w3.org/2000/svg" xml:space="preserve" width="84px" height="90px" version="1.1" style="shape-rendering:geometricPrecision; text-rendering:geometricPrecision; image-rendering:optimizeQuality; fill-rule:evenodd; clip-rule:evenodd"
viewBox="0 0 74 79"
 xmlns:xlink="http://www.w3.org/1999/xlink">
 <defs>
  <style type="text/css">
   <![CDATA[
    .fil1 {fill:#201E1E}
    .fil0 {fill:#373535}
    .fil6 {fill:#AB3235}
    .fil3 {fill:#ED3237}
    .fil2 {fill:#EEAC95}
    .fil4 {fill:#F2BBA1}
    .fil5 {fill:#FEFEFE}
   ]]>
  </style>
 </defs>
 <g id="Capa_x0020_1">
  <metadata id="CorelCorpID_0Corel-Layer"/>
  <path class="fil0" d="M44 1c23,-1 18,20 25,44 7,24 8,26 -13,33 -21,7 -48,-8 -55,-29 -5,-16 3,-36 17,-46 7,-5 17,-2 25,-2z"/>
  <path class="fil1" d="M44 1c23,-1 18,20 25,44 3,10 6,18 4,22l-3 1c-18,6 -42,-7 -48,-25 -4,-13 2,-29 16,-40 3,-1 3,-1 5,-2l3 -1 -3 1z"/>
  <path class="fil2" d="M67 36c1,3 2,5 2,8 1,3 2,8 3,11 -9,0 -13,4 -23,-1 -4,-4 -8,-17 -4,-22 10,-3 13,5 19,6l0 0 3 -1z"/>
  <path class="fil3" d="M4 19l57 -12c1,3 2,8 4,13l-64 6c2,-3 1,-6 4,-7z"/>
  <path class="fil4" d="M69 53c-3,1 -5,2 -8,2 -3,1 -6,-1 -9,-3 -3,-2 -8,-15 -3,-19 8,-2 12,2 16,6l0 0c1,3 3,10 4,13z"/>
  <ellipse class="fil1" transform="matrix(-0.2994 -0.9541 0.9541 -0.2994 60.5148 44.5665)" rx="5" ry="3"/>
  <ellipse class="fil5" cx="62" cy="41"/>
  <polygon class="fil1" points="52,36 67,37 68,39 54,41 "/>
  <path class="fil6" d="M3 25l59 -13c1,3 2,5 2,8l-64 6c0,0 -1,-3 2,-3l1 3z"/>
  <ellipse class="fil5" transform="matrix(0.9253 -0.3792 0.3792 0.9253 60.9407 43.0993)" rx="1" ry="2"/>
 </g>
</svg>
