<?xml version="1.0" encoding="utf-8"?>
<!-- Generator: Adobe Illustrator 17.0.0, SVG Export Plug-In . SVG Version: 6.00 Build 0)  -->
<!DOCTYPE svg PUBLIC "-//W3C//DTD SVG 1.1//EN" "http://www.w3.org/Graphics/SVG/1.1/DTD/svg11.dtd">
<svg version="1.1" id="Capa_1" xmlns="http://www.w3.org/2000/svg" xmlns:xlink="http://www.w3.org/1999/xlink" x="0px" y="0px"
	 width="1000px" height="500px" viewBox="0 0 1000 500" enable-background="new 0 0 1000 500" xml:space="preserve">
<g id="Capa_x0020_3">
	<g id="_294156392">
		
			<linearGradient id="SVGID_1_" gradientUnits="userSpaceOnUse" x1="96" y1="235" x2="96" y2="735" gradientTransform="matrix(1 0 0 -1 404 735)">
			<stop  offset="0" style="stop-color:#FEFEFE"/>
			<stop  offset="0.6392" style="stop-color:#FDF9AF"/>
			<stop  offset="0.8118" style="stop-color:#DEE476"/>
			<stop  offset="1" style="stop-color:#6B752E"/>
		</linearGradient>
		<rect fill="url(#SVGID_1_)" width="1000" height="500"/>
		<polygon fill="#EBEC90" points="0,28 335,56 0,56 		"/>
		<polygon fill="#BCC264" points="0,98 277,137 0,137 		"/>
		<polygon fill="#BCC264" stroke="#BCC264" stroke-width="0.9" points="460,93 230,114 416,124 689,114 		"/>
		<polygon fill="#EBEC90" points="1000,25 665,56 1000,56 		"/>
		<polygon fill="#BCC264" points="1000,98 723,137 1000,137 		"/>
	</g>
</g>
<g id="Capa_x0020_4">
	<path fill="#A2DAA9" d="M998,252c0,0-28,12-38,38s-29,9-48,17c-19,9-13-5-33,23s-42,45-51,31c-10-14-43-42-62-33c-18,9-75,24-72,26
		s-29,26-43,23s-67-19-71-20c-9-2-18-3-26-5l1-12l21,2l-18-15c0,0,15,0,14,0c-2,0-18-10-18-10h5l-9-16l-6,15l5,1l-14,7c0,0,11,2,9,2
		c-1,0-5,2-9,5l-4-11l6,1v-15l-12,7l2,5l-11-2l1,6l-10-1h7l-14-11l9,1l-14-22l-11,21l7,3l-10,5l-10-15l-12,15c0,0,11,0,9,1
		s-13,7-13,7s13,0,10,1s-18,11-18,11l1,1c-51-2-19,22-96,42c-14,3-46-21-43-23s-55-17-73-26s-53,19-63,33s-11-5-31-33c-2-3-4-5-6-7
		l4-5l15,9l-7-19l8,4l-5-10l6,2l2-18l-15,6l3,7l-14-3l6,8c0,0-8-2-16-3l-1-3l6,2l2-18l-15,6l3,7l-14-3l6,8c0,0-27-6-26-5
		s22,15,22,15l-2,3c-5,0-11,0-17-3c-4-2-8-2-11-3v-2l18,2l-14-14h9l-9-8l6-1l-6-17l-11,12l6,5l-14,3l9,5c0,0-27,6-25,7s27,4,27,4
		l-1,4c-13,0-24,4-32-15c-11-26-39-38-39-38v244h500h6h494V256L998,252z M121,305c6,4,12,8,12,8l-4,6c-3-3-7-5-10-6l-4-11l5,3H121z
		 M547,352c-12-2-23-4-33-6l2-6l0,0l14,5l-3-5h10h1l0,0h10l-1,13V352z M526,337l-1-2l3,1L526,337z M508,345c-3-1-6-1-9-2v-3h12
		L508,345z M475,320l-2,1l13,3l-7,3l-9-6L475,320z M480,335l6,2l-2,5c-2,0-4-1-6-1l-4-5l5-1H480z"/>
	<g id="_294160136">
		<g>
			<polygon fill="#001C1E" points="724,371 730,395 724,394 731,399 734,414 728,415 735,417 740,435 729,433 727,437 742,445 
				749,476 723,472 725,478 752,486 755,500 691,500 700,462 718,457 718,453 703,454 708,434 723,427 722,421 710,426 713,416 
				722,411 722,404 715,406 720,390 724,387 723,384 721,384 			"/>
			<path fill="#0B3029" d="M731,399L731,399l1,2l-9,7v-3l-7,2l1-4l15-4H731z M728,415l7,3v2l-13,7l-1-5l-12,5l1-3l10-2h-9l1-4
				L728,415z M738,428l2,7l-11-1l-2,3l2,1l-17,4l32,9l2,7l-16,1l19,8l2,7l-30-4l5,3l1,5l14,4l14,8l1,6l-30-3l16,7h-21l-25-13l1-5h26
				l-23-13l2-6l0,0l19-1l-6-4l4-1v-4l-11,1l-3-2l1-4l25,3l-23-9l2-7l10-2l-5-1l9-4h17H738z"/>
			<polygon fill="#280D12" points="721,471 724,471 724,500 720,500 			"/>
		</g>
		<g>
			<polygon fill="#001C1E" points="798,371 793,395 799,394 792,399 788,414 795,415 787,417 783,435 794,433 796,437 781,445 
				774,476 800,472 798,478 771,486 768,500 832,500 822,462 805,457 805,453 820,454 815,434 800,427 801,421 813,426 810,416 
				800,411 801,404 808,406 803,390 799,387 800,384 802,384 			"/>
			<path fill="#0B3029" d="M792,399L792,399l-1,2l9,7v-3l7,2l-1-4l-15-4H792z M795,415l-7,3v2l13,7l1-5l12,5l-1-3l-10-2h9l-1-4
				L795,415z M785,428l-2,7l11-1l2,3l-2,1l17,4l-32,9l-2,7l16,1l-19,8l-2,7l30-4l-5,3l-1,5l-14,4l-14,8l-1,6l30-3l-16,7h21l25-13
				l-1-5h-26l23-13l-2-6l0,0l-19-1l6-4l-4-1v-4l11,1l3-2l-1-4l-25,3l23-9l-2-7l-10-2l5-1l-9-4h-17H785z"/>
			<polygon fill="#280D12" points="802,471 798,471 798,500 803,500 			"/>
		</g>
		<g>
			<polygon fill="#001C1E" points="884,371 889,395 883,394 890,399 894,414 887,415 894,417 899,435 888,433 886,437 901,445 
				908,476 882,472 884,478 911,486 914,500 850,500 859,462 877,457 877,453 862,454 867,434 882,427 881,421 869,426 872,416 
				881,411 881,404 874,406 879,390 883,387 882,384 880,384 			"/>
			<path fill="#0B3029" d="M890,399L890,399l1,2l-9,7v-3l-7,2l1-4l15-4H890z M887,415l7,3v2l-13,7l-1-5l-12,5l1-3l10-2h-9l1-4
				L887,415z M897,428l2,7l-11-1l-2,3l2,1l-17,4l32,9l2,7l-16,1l19,8l2,7l-30-4l5,3l1,5l14,4l14,8l1,6l-30-3l16,7h-21l-25-13l1-5h26
				l-23-13l2-6l0,0l19-1l-6-4l4-1v-4l-11,1l-3-2l1-4l25,3l-23-9l2-7l10-2l-5-1l9-4h17H897z"/>
			<polygon fill="#280D12" points="880,471 883,471 883,500 879,500 			"/>
		</g>
		<g>
			<polygon fill="#001C1E" points="957,371 952,395 958,394 951,399 947,414 954,415 946,417 942,435 953,433 955,437 940,445 
				933,476 959,472 957,478 930,486 927,500 991,500 981,462 964,457 964,453 979,454 974,434 959,427 960,421 972,426 969,416 
				960,411 960,404 967,406 962,390 958,387 959,384 961,384 			"/>
			<path fill="#0B3029" d="M951,399L951,399l-1,2l9,7v-3l7,2l-1-4l-15-4H951z M954,415l-7,3v2l13,7l1-5l12,5l-1-3l-10-2h9l-1-4
				L954,415z M944,428l-2,7l11-1l2,3l-2,1l17,4l-32,9l-2,7l16,1l-19,8l-2,7l30-4l-5,3l-1,5l-14,4l-14,8l-1,6l30-3l-16,7h21l25-13
				l-1-5h-26l23-13l-2-6l0,0l-19-1l6-4l-4-1v-4l11,1l3-2l-1-4l-25,3l23-9l-2-7l-10-2l5-1l-9-4h-17H944z"/>
			<polygon fill="#280D12" points="961,471 958,471 958,500 962,500 			"/>
		</g>
		<g>
			<polygon fill="#001C1E" points="639,371 634,395 640,394 633,399 629,414 636,415 628,417 624,435 635,433 637,437 622,445 
				614,476 641,472 639,478 612,486 609,500 673,500 663,462 646,457 646,453 661,454 656,434 641,427 642,421 654,426 651,416 
				641,411 642,404 649,406 644,390 640,387 641,384 643,384 			"/>
			<path fill="#0B3029" d="M633,399L633,399l-1,2l9,7v-3l7,2l-1-4l-15-4H633z M636,415l-7,3v2l13,7l1-5l12,5l-1-3l-10-2h9l-1-4
				L636,415z M626,428l-2,7l11-1l2,3l-2,1l17,4l-32,9l-2,7l16,1l-19,8l-2,7l30-4l-5,3l-1,5l-14,4l-14,8l-1,6l30-3l-16,7h21l25-13
				l-1-5h-26l23-13l-2-6l0,0l-19-1l6-4l-4-1v-4l11,1l3-2l-1-4l-25,3l23-9l-2-7l-10-2l5-1l-9-4h-17H626z"/>
			<polygon fill="#280D12" points="643,471 639,471 639,500 644,500 			"/>
		</g>
		<g>
			<polygon fill="#001C1E" points="565,371 571,395 565,394 572,399 575,414 569,415 576,417 580,435 570,433 568,437 583,445 
				590,476 564,472 566,478 593,486 596,500 531,500 541,462 559,457 559,453 544,454 549,434 564,427 563,421 551,426 554,416 
				563,411 563,404 556,406 561,390 565,387 564,384 562,384 			"/>
			<path fill="#0B3029" d="M572,399L572,399l1,2l-9,7v-3l-7,2l1-4l15-4H572z M569,415l7,3v2l-13,7l-1-5l-12,5l1-3l10-2h-9l1-4
				L569,415z M579,428l2,7l-11-1l-2,3l2,1l-17,4l32,9l2,7l-16,1l19,8l2,7l-30-4l5,3l1,5l14,4l14,8l1,6l-30-3l16,7h-21l-25-13l1-5h26
				l-23-13l2-6l0,0l19-1l-6-4l4-1v-4l-11,1l-3-2l1-4l25,3l-23-9l2-7l10-2l-5-1l9-4h17H579z"/>
			<polygon fill="#280D12" points="562,471 565,471 565,500 561,500 			"/>
		</g>
		<g>
			<polygon fill="#001C1E" points="480,371 475,395 481,394 474,399 470,414 477,415 469,417 465,435 476,433 478,437 463,445 
				455,476 482,472 480,478 453,486 450,500 514,500 504,462 487,457 487,453 502,454 497,434 482,427 483,421 495,426 492,416 
				482,411 483,404 489,406 485,390 481,387 482,384 484,384 			"/>
			<path fill="#0B3029" d="M474,399L474,399l-1,2l9,7v-3l7,2l-1-4l-15-4H474z M477,415l-7,3v2l13,7l1-5l12,5l-1-3l-10-2h9l-1-4
				L477,415z M467,428l-2,7l11-1l2,3l-2,1l17,4l-32,9l-2,7l16,1l-19,8l-2,7l30-4l-5,3l-1,5l-14,4l-14,8l-1,6l30-3l-16,7h21l25-13
				l-1-5h-26l23-13l-2-6l0,0l-19-1l6-4l-4-1v-4l11,1l3-2l-1-4l-25,3l23-9l-2-7l-10-2l5-1l-9-4h-17H467z"/>
			<polygon fill="#280D12" points="483,471 480,471 480,500 485,500 			"/>
		</g>
		<g>
			<polygon fill="#001C1E" points="406,371 412,395 406,394 413,399 416,414 410,415 417,417 421,435 411,433 409,437 424,445 
				431,476 405,472 407,478 434,486 437,500 372,500 382,462 400,457 400,453 385,454 390,434 404,427 404,421 392,426 395,416 
				404,411 404,404 397,406 401,390 406,387 405,384 403,384 			"/>
			<path fill="#0B3029" d="M413,399L413,399l1,2l-9,7v-3l-7,2l1-4l15-4H413z M410,415l7,3v2l-13,7l-1-5l-12,5l1-3l10-2h-9l1-4
				L410,415z M420,428l2,7l-11-1l-2,3l2,1l-17,4l32,9l2,7l-16,1l19,8l2,7l-30-4l5,3l1,5l14,4l14,8l1,6l-30-3l16,7h-21l-25-13l1-5h26
				l-23-13l2-6l0,0l19-1l-6-4l4-1v-4l-11,1l-3-2l1-4l25,3l-23-9l2-7l10-2l-5-1l9-4h17H420z"/>
			<polygon fill="#280D12" points="403,471 406,471 406,500 402,500 			"/>
		</g>
		<g>
			<polygon fill="#001C1E" points="48,371 54,395 48,394 55,399 58,414 52,415 59,417 63,435 52,433 51,437 66,445 73,476 47,472 
				48,478 76,486 79,500 14,500 24,462 42,457 41,453 27,454 32,434 46,427 45,421 34,426 37,416 46,411 46,404 39,406 43,390 
				48,387 47,384 45,384 			"/>
			<path fill="#0B3029" d="M55,399L55,399l1,2l-9,7v-3l-7,2l1-4l15-4H55z M52,415l7,3v2l-13,7l-1-5l-12,5l1-3l10-2h-9l1-4L52,415z
				 M62,428l2,7l-11-1l-2,3l2,1l-17,4l32,9l2,7l-16,1l19,8l2,7l-30-4l5,3l1,5l14,4l14,8l1,6l-30-3l16,7H45l-25-13l1-5h26l-23-13l2-6
				l0,0l19-1l-6-4l4-1v-4l-11,1l-3-2l1-4l25,3l-23-9l2-7l10-2l-5-1l9-4h17H62z"/>
			<polygon fill="#280D12" points="45,471 48,471 48,500 44,500 			"/>
		</g>
		<g>
			<polygon fill="#001C1E" points="132,371 127,395 133,394 126,399 122,414 129,415 121,417 117,435 128,433 129,437 115,445 
				107,476 133,472 132,478 105,486 101,500 166,500 156,462 139,457 139,453 154,454 149,434 134,427 135,421 146,426 144,416 
				134,411 134,404 141,406 137,390 133,387 134,384 136,384 			"/>
			<path fill="#0B3029" d="M126,399L126,399l-1,2l9,7v-3l7,2l-1-4l-15-4H126z M129,415l-7,3v2l13,7l1-5l12,5l-1-3l-10-2h9l-1-4
				L129,415z M119,428l-2,7l11-1l2,3l-2,1l17,4l-32,9l-2,7l16,1l-19,8l-2,7l30-4l-5,3l-1,5l-14,4l-14,8l-1,6l30-3l-16,7h21l25-13
				l-1-5h-26l23-13l-2-6l0,0l-19-1l6-4l-4-1v-4l11,1l3-2l-1-4l-25,3l23-9l-2-7l-10-2l5-1l-9-4h-17H119z"/>
			<polygon fill="#280D12" points="135,471 132,471 132,500 137,500 			"/>
		</g>
		<g>
			<polygon fill="#001C1E" points="237,371 243,395 237,394 244,399 247,414 241,415 248,417 252,435 241,433 240,437 255,445 
				262,476 236,472 237,478 265,486 268,500 203,500 213,462 231,457 230,453 216,454 221,434 235,427 235,421 223,426 226,416 
				235,411 235,404 228,406 232,390 237,387 236,384 234,384 			"/>
			<path fill="#0B3029" d="M244,399L244,399l1,2l-9,7v-3l-7,2l1-4l15-4H244z M241,415l7,3v2l-13,7l-1-5l-12,5l1-3l10-2h-9l1-4
				L241,415z M251,428l2,7l-11-1l-2,3l2,1l-17,4l32,9l2,7l-16,1l19,8l2,7l-30-4l5,3l1,5l14,4l14,8l1,6l-30-3l16,7h-21l-25-13l1-5h26
				l-23-13l2-6l0,0l19-1l-6-4l4-1v-4l-11,1l-3-2l1-4l25,3l-23-9l2-7l10-2l-5-1l9-4h17H251z"/>
			<polygon fill="#280D12" points="234,471 237,471 237,500 233,500 			"/>
		</g>
		<g>
			<polygon fill="#001C1E" points="321,371 316,395 322,394 315,399 311,414 318,415 310,417 306,435 317,433 319,437 304,445 
				296,476 323,472 321,478 294,486 291,500 355,500 345,462 328,457 328,453 343,454 338,434 323,427 324,421 336,426 333,416 
				323,411 324,404 330,406 326,390 322,387 323,384 325,384 			"/>
			<path fill="#0B3029" d="M315,399L315,399l-1,2l9,7v-3l7,2l-1-4l-15-4H315z M318,415l-7,3v2l13,7l1-5l12,5l-1-3l-10-2h9l-1-4
				L318,415z M308,428l-2,7l11-1l2,3l-2,1l17,4l-32,9l-2,7l16,1l-19,8l-2,7l30-4l-5,3l-1,5l-14,4l-14,8l-1,6l30-3l-16,7h21l25-13
				l-1-5h-26l23-13l-2-6l0,0l-19-1l6-4l-4-1v-4l11,1l3-2l-1-4l-25,3l23-9l-2-7l-10-2l5-1l-9-4h-17H308z"/>
			<polygon fill="#280D12" points="324,471 321,471 321,500 326,500 			"/>
		</g>
	</g>
</g>
<g id="Capa_x0020_2">
	<path fill="#0A0B06" d="M172.634,0c4,54,11.286,149,8.286,159c-3,14,0,52,3,82s17,170,18,208c0,17,3.269,36,5.269,51h-71.697
		c-3-55-7.572-166-9.572-183c-3-23-5-174-6-203c0-13-2-64-5-114h56H172.634z"/>
	<path fill="#131C17" d="M194,500c-1-27-4-132-4-151c-1-22-3-44-6-70s-5-147-8-172c-1-12-3.919-60-6.919-107h-13.998
		c3,26,4.917,50,5.917,67c1,45,3,162,10,227c8,66,11,140,11,203v2h12V500z"/>
	<path fill="#131C17" d="M131,0c6,69,17,180,17,183c0,5-4,84-8,111s4,95,6,118c2,15,4,53,5,88h19c-2-50-4-102-4-124
		c1-50-10-84-10-100s-4-143-4-154c0-6-3-64-7-122h-15H131z"/>
	<path fill="#131C17" d="M131,0c6,69,17,180,17,183c0,5-4,84-8,111s4,95,6,118c2,15,4,53,5,88h19c-2-50-4-102-4-124
		c1-50-10-84-10-100s-4-143-4-154c0-6-3-64-7-122h-15H131z"/>
	<path fill="#131C17" d="M127,0c4,83,9,179,8,203c-2,44-3,161-3,169c0,5,6,79,10,128h-5c-3-55-8-165-10-182c-3-23-5-174-6-203
		c0-13-2.004-65-5.004-115h9.152H127z"/>
	<path fill="#0A0B06" d="M61,0c2,54,5,150,3,160c-1,14,0,52,1,82s7,170,8,208c0,17,1,35,2,50H45c-1-55-3-165-4-182
		c-1-23-2-174-3-203c0-13-1.115-65-2.115-115h23.473H61z"/>
	<path fill="#131C17" d="M71,500c0-27-2-132-2-151c0-22-1-44-3-70c-1-26-2-147-3-172c-1-12-2.318-60-3.318-107h-5.707
		C54.975,26,56,50,56,67c1,45,1,162,4,227c3,66,5,140,5,203v2h5L71,500z"/>
	<path fill="#131C17" d="M44,0c3,69,7,180,7,183c0,5-2,84-3,111c-2,27,2,95,3,118c1,15,2,53,2,88h8c-1-50-2-102-2-124
		c1-50-4-84-4-100s-2-143-2-154c0-6-1-64-3-122h-7H44z"/>
	<path fill="#131C17" d="M44,0c3,69,7,180,7,183c0,5-2,84-3,111c-2,27,2,95,3,118c1,15,2,53,2,88h8c-1-50-2-102-2-124
		c1-50-4-84-4-100s-2-143-2-154c0-6-1-64-3-122h-7H44z"/>
	<path fill="#131C17" d="M42,0c2,83,4,179,3,203c-1,44-1,161-1,169c0,5,3,79,4,128h-2c-1-55-3-165-4-182c-1-23-2-174-3-203
		c0-13-1-64-2-114h4L42,0z"/>
	<path fill="#0A0B06" d="M798.879,0c-2,54-4.887,150.345-1.887,160.345c5,14,2,52,0,82c-3,30-12,170-11,208c0,17-2,35-4,50h83
		c0-55,1-165,3-182c2-23-2-174-3-203c0-13,0.108-65.345,0.108-115.345h-63.314H798.879z"/>
	<path fill="#131C17" d="M797,500c0-27-2-132-2-151c0-22,2-44,4-70c3-26-1-147,1-172c1-12,1.971-60,2.971-107h15.936
		c-2,26-3.907,50-2.907,67c1,45,5,162-1,227c-6,66-7,140-4,203v2h-14V500z"/>
	<path fill="#131C17" d="M848,0c-4,69-12,180-12,183c0,5,8,84,14,111s0,95-2,118c-1,15-2,53-2,88h-23c0-50,0-102-1-124
		c-4-50,8-84,7-100s-2-143-3-154c0-6,1-64,2-122h18H848z"/>
	<path fill="#131C17" d="M848,0c-4,69-12,180-12,183c0,5,8,84,14,111s0,95-2,118c-1,15-2,53-2,88h-23c0-50,0-102-1-124
		c-4-50,8-84,7-100s-2-143-3-154c0-6,1-64,2-122h18H848z"/>
	<path fill="#131C17" d="M853,0c-1,83-2,179,1,203c4,44,12,161,12,169c0,5-3,79-6,128h5c0-55,1-165,3-182c2-23-2-174-3-203
		c0-13,0.1-65,0.1-115h-10.014L853,0z"/>
	<path fill="#0A0B06" d="M929,0c-2,54-5,150-3,160c1,14,0,52-1,82s-7,170-8,208c0,17-1,35-2,50h30c1-55,3-165,4-182
		c1-23,2-174,3-203c0-13,0.825-65,1.825-115h-22.827L929,0z"/>
	<path fill="#131C17" d="M920,500c0-27,2-132,2-151c0-22,1-44,3-70c1-26,2-147,3-172c1-12,1.998-60,2.998-107h6.138
		c-1,26-2.135,50-2.135,67c-1,45-1,162-4,227c-3,66-5,140-5,203v2h-5L920,500z"/>
	<path fill="#131C17" d="M947,0c-3,69-7,180-7,183c0,5,2,84,3,111c2,27-2,95-3,118c-1,15-2,53-2,88h-8c1-50,2-102,2-124
		c-1-50,4-84,4-100s2-143,2-154c0-6,1-64,3-122h7H947z"/>
	<path fill="#131C17" d="M947,0c-3,69-7,180-7,183c0,5,2,84,3,111c2,27-2,95-3,118c-1,15-2,53-2,88h-8c1-50,2-102,2-124
		c-1-50,4-84,4-100s2-143,2-154c0-6,1-64,3-122h7H947z"/>
	<path fill="#131C17" d="M949,0c-2,83-4,179-3,203c1,44,1,161,1,169c0,5-3,79-4,128h2c1-55,3-165,4-182c1-23,2-174,3-203
		c0-13,1.148-65,2.148-115h-3.338L949,0z"/>
</g>
<g id="Capa_x0020_1">
	<path fill="#5C4F38" d="M595,107c3,3,5,7,8,10h23l3,13c7,32,14,63,21,95l5,21h-51v-2l-1,4l-39,1c-8,7-18,10-29,10c-8,0-15-3-21-8
		l-29,1l-4-11c0,0,0-1-1-1h-11v2l-20,1v8l-43,2l-4-11c0,0,0-1-1-1l-40,1v-18c0-19,0-39,0-58l-11-1v-16c0-26-1-52-1-78V55l15-2
		c11-1,24-1,35,4l0,0l41-4v19c0,8,0,16,0,24c2-10,3-20,5-31l2-14h46l3,13v1c6-7,14-11,24-13c5-1,9-1,14,0v-3l44,1l4-6l40,28l-12,14
		c-6,7-12,14-17,22L595,107z M533,158c-1,0-2,0-3,0s-2,0-4,0c0,11,0,22,0,32l6-1c0-11,0-21,0-32L533,158z"/>
	<path fill="#FEFEFE" d="M538,151c-2,1-5,1-8,2c-3,0-6,0-8,0c0,15,0,29,0,44l16-3c1-14,0-28,0-42V151z M541,58v-5l37,1v8l1-1l7-10
		l32,22l-8,10c-7,8-13,16-20,25c4,5,8,10,12,15h21l2,9c7,32,14,63,21,95l3,15h-41l-3-22h-3l-3,25l-36,1c-7,7-16,10-27,10
		c-8,0-14-4-19-8l-27,1l-3-8c-1-2-1-3-2-5l-19,1v2l-20,1v8l-34,2l-3-8c-1-2-1-3-2-5l-38,1v-13c0-21,0-42,0-63l-10-1v-11
		c0-26-1-52-1-79V60l11-1c11-1,22-1,32,3c1,1,2,1,4,2v-1l35-3v13c0,14,0,29,0,44h7c3-16,6-33,8-49l2-10h38l2,9c1,4,2,8,3,13
		c5-11,14-18,27-21c6-1,11-1,16,1c0,0,1,0,1,1L541,58z"/>
	<path fill="#373435" d="M368,69c11-1,20,0,26,2c7,3,10,9,10,19s-3,16-11,19c12,2,16,9,13,21c-2,7-6,12-14,14h4l22,58c0-9,0-30-1-63
		h-2c-1-28-1-51-2-68l11-1c0,27,0,45,0,56l22-1v13h-16c0,24,0,56,0,94l-14,1c-5-13-13-33-25-60c0,18,0,34,0,48h-14c0-18,0-43-1-75
		c-3,0-7,0-10,0c0-25-1-52-1-79L368,69z M453,142c-1,26-1,53,0,83h-16c1-24,1-53,0-85h14c4-21,8-45,13-73h18c4,19,9,42,15,69h13
		c0,25,0,57,0,98l-14,1c-5-13-13-33-25-60c0,18,0,34,0,48h-14c0-19,0-45-1-78l18,1l22,58c0-9,0-30-1-63h-10l-2-17l-18-1l-3,20h-10
		L453,142z M565,143c2,44,0,71-5,82c-5,12-13,17-25,16c-11-1-18-11-20-32l16-3c0,15,4,21,12,19c7-2,10-31,7-87l4-1c0-21,0-45,0-72
		h12v35c9-13,16-24,23-34l11,8c-12,15-20,26-25,32c9,12,16,21,21,27h17c6,26,13,57,21,95h-16l-3-22l-24-1l-3,26h-15
		c5-25,10-54,15-88c-9-13-17-22-22-30l-1,29V143z M592,190h22c-4-17-9-31-13-40L592,190z M380,81l1,21c10-1,15-4,15-11
		S391,81,380,81z M379,114v20c12-1,19-4,19-10S392,115,379,114z M466,110h17c-3-13-7-24-10-31l-7,30V110z M537,96c-1-13-5-18-11-15
		s-10,9-10,20c-1,11,1,18,5,23c4,4,8,6,12,5s6-7,6-18l11,1c1,3,0,9-3,17s-8,12-17,13s-16-4-20-14c-5-10-6-22-4-35s9-21,21-24
		c12-2,20,6,23,25l-12,4L537,96z"/>
	<path fill="#AB3235" d="M369,135c3-1,6-1,10-2v2c9-1,14-2,17-5c4-1,8-2,12-3c0,1,0,3-1,4c-2,7-6,12-14,14h4l1,2c-6,1-12,2-18,3v-3
		c-3,0-7,0-10,0v-13L369,135z M416,125l10-2c0,1,0,3,0,4l22-1v13h-16v2c-5,1-9,1-14,2v-4h-2c0-5,0-10,0-15V125z M456,117
		c12-2,24-5,36-7c2,8,4,17,6,26h13v3c-1-1-6-2-14-2c-3,0-7,0-11,0l-2-14l-18-1l-2,16c-4,0-8,1-12,1C453,132,455,125,456,117z
		 M504,107l11-2c0,9,1,15,5,18c4,4,8,6,12,5s6-7,6-18l11,1c1,2,0,6-1,11c-10,6-18,12-23,18c-7-1-12-5-16-14c-3-6-4-13-5-20V107z
		 M554,97l12-2v5c1-2,3-4,4-6c5-1,11-2,16-3c-5,6-9,12-12,16l2,2c-8,3-15,6-22,10C554,112,554,105,554,97z M550,155c4-1,9-3,15-4
		c1,16,1,29,0,40h-15C550,181,550,169,550,155z M587,145c8-2,17-5,26-7c4,16,7,34,12,54c-16,0-31,0-46-1C582,177,584,161,587,145z
		 M510,191c-4,0-9,0-13,0c0-10,0-25-1-44c8-2,13-5,14-6c0,14,0,31,0,51V191z M492,191c-5,0-9,0-13,0c-2-5-4-11-7-16c0,6,0,11,0,16
		c-5,0-9,0-13,0c0-10,0-22-1-35c7-2,14-3,20-5l15,39L492,191z M452,192c-5,0-10,0-14,0c0-10,0-20,0-31c5-1,10-2,15-3c0,11,0,22,0,34
		H452z M432,193c-5,0-9,0-13,1c0-7,0-16,0-28c5-1,9-2,14-3c0,9,0,19,0,30H432z M415,194c-4,0-9,1-13,1c-3-6-5-13-8-20c0,7,0,14,0,20
		c-5,0-9,1-13,2c0-7,0-15,0-24c9-2,17-3,25-5l10,26H415z M443,141c-2,0-3,0-5,1v-1H443z M592,191h22c-4-17-9-31-13-40L592,191z"/>
	<g id="_294148520">
		<polygon fill="#201E1E" points="714,230 719,233 736,208 733,204 713,211 709,225 		"/>
		<polygon fill="#373535" points="639,187 658,155 698,179 720,209 709,227 687,207 		"/>
		<polygon fill="#201E1E" points="716,215 709,227 687,207 631,181 654,161 694,185 		"/>
		<path fill="#373535" d="M665,118c-16-4-31-16-48-2l-12-10C671,74,692,125,665,118z"/>
		<path fill="#201E1E" d="M611,103c39-19,67-15,67,5c1,5-3,8-11,7c-16-4-33-13-51-1l-5-9l-1-2H611z"/>
		<polygon fill="#F2BBA1" points="616,116 615,122 605,121 598,113 599,108 608,103 		"/>
		<polygon fill="#EEAC95" points="604,106 608,103 616,114 612,120 607,118 611,115 607,108 		"/>
		<path fill="#201E1E" d="M667,105l-39,74l57-5c0,0-2-55-1-60c2-3,5-11,5-11l-12-7l-10,10V105z"/>
		<path fill="#373535" d="M663,111l-35,71c37-6,24-5,35-35c5-14,14-28,16-29c2-3,5-11,5-11l-9-6l-12,13l-1-2L663,111z"/>
		<polygon fill="#AB3235" points="665,108 675,166 670,167 660,107 		"/>
		<g id="_236709904">
			<path fill="#ED3237" d="M666,65c-10,2-34,5-43,12l-11-3c9-7,44-11,51-13l-1,2l3,2H666z"/>
			<path fill="#ED3237" d="M666,65c-6-6-33-13-55-8l14-6C636,54,662,58,666,65l-2,3L666,65z"/>
			<path fill="#373535" d="M702,47c20,1,15,22,19,41c5,22,6,26-13,31c-19,4-45-10-50-32c-3-14,6-31,19-39c7-4,15-1,23,0L702,47z"/>
			<path fill="#201E1E" d="M702,47c20,1,15,22,19,41c2,10,4,17,2,20l-2,1c-17,4-40-9-44-28c-3-12,6-29,18-34c2-1,8,1,8,1L702,47z"/>
			<path fill="#EEAC95" d="M720,79c0,2,1,5,1,7c1,2,2,8,2,11c-9,3-9,3-18-3c-3-4-6-16-2-22C713,70,720,79,720,79z"/>
			<path fill="#ED3237" d="M663,61l53-6c1,2,2,7,3,12h-58C662,64,663,61,663,61z"/>
			<path fill="#AB3235" d="M661,66l57-5c1,2,1,5,1,8h-59L661,66z"/>
			<path fill="#F2BBA1" d="M720,96c0,2-2,3-5,4c-2,1-5-1-8-3s-6-14-1-17c7-2,7,2,13,4v3c1,2,1,8,1,10V96z"/>
			
				<ellipse transform="matrix(0.9776 -0.2104 0.2104 0.9776 -2.6413 152.5149)" fill="#201E1E" cx="715.601" cy="88.673" rx="3.145" ry="4.718"/>
			
				<ellipse transform="matrix(-0.2148 -0.9767 0.9767 -0.2148 785.4361 804.6656)" fill="#FEFEFE" cx="716.196" cy="86.585" rx="1.573" ry="0.786"/>
			<polygon fill="#201E1E" points="706,81 716,81 719,84 706,84 			"/>
		</g>
		<path fill="#373535" d="M676,103c20,13,33,13,54,6l5,11c-9,5-18,9-30,12c-31,7-43-3-47-10c-7-11,10-22,19-17L676,103z"/>
		<path fill="#201E1E" d="M734,116c-10,2-19,4-29,4l-8-1c-2,1-14-7-25-10c-8-3-14,6-17,4c1-8,14-16,21-10c20,13,33,13,54,6l3,4l1,2
			V116z"/>
		<g id="_236712376">
			<polygon fill="#F2BBA1" points="746,121 736,120 730,109 730,109 730,107 736,100 741,99 748,110 			"/>
			<polygon fill="#EEAC95" points="730,109 734,103 740,104 749,112 746,121 736,120 			"/>
		</g>
		<g>
			<polygon fill="#201E1E" points="581,190 575,187 560,224 566,227 585,214 			"/>
			<polygon fill="#201E1E" points="639,159 674,159 612,223 587,216 577,190 604,194 			"/>
			<polygon fill="#373535" points="587,210 576,188 603,192 639,159 659,156 609,217 			"/>
		</g>
		<polygon fill="#ED3237" points="640,154 684,157 685,171 635,157 		"/>
		<polygon fill="#AB3235" points="684,162 685,172 635,157 638,157 		"/>
	</g>
</g>
</svg>
