<?xml version="1.0" encoding="UTF-8"?>
<!DOCTYPE svg PUBLIC "-//W3C//DTD SVG 1.1//EN" "http://www.w3.org/Graphics/SVG/1.1/DTD/svg11.dtd">
<!-- Creator: CorelDRAW X6 -->
<svg xmlns="http://www.w3.org/2000/svg" xml:space="preserve" width="1000px" height="500px" version="1.1" style="shape-rendering:geometricPrecision; text-rendering:geometricPrecision; image-rendering:optimizeQuality; fill-rule:evenodd; clip-rule:evenodd"
viewBox="0 0 1000 500"
 xmlns:xlink="http://www.w3.org/1999/xlink">
 <defs>
  <style type="text/css">
   <![CDATA[
    .str0 {stroke:#BCC264;stroke-width:0.900001}
    .fil4 {fill:#001C1E}
    .fil7 {fill:#0A0B06}
    .fil5 {fill:#0B3029}
    .fil8 {fill:#131C17}
    .fil6 {fill:#280D12}
    .fil3 {fill:#A2DAA9}
    .fil2 {fill:#BCC264}
    .fil1 {fill:#EBEC90}
    .fil12 {fill:#FEFEFE;fill-rule:nonzero}
    .fil10 {fill:#3E4095;fill-opacity:0.501961}
    .fil9 {fill:#84716B;fill-opacity:0.501961}
    .fil11 {fill:#A8518A;fill-opacity:0.501961}
    .fil0 {fill:url(#id0)}
   ]]>
  </style>
  <linearGradient id="id0" gradientUnits="userSpaceOnUse" x1="500" y1="499.999" x2="500" y2="0">
   <stop offset="0" style="stop-color:#FEFEFE"/>
   <stop offset="0.639216" style="stop-color:#FDF9AF"/>
   <stop offset="0.811765" style="stop-color:#DEE476"/>
   <stop offset="1" style="stop-color:#6B752E"/>
  </linearGradient>
 </defs>
 <g id="Capa_x0020_1">
  <metadata id="CorelCorpID_0Corel-Layer"/>
  <g id="_301819400">
   <rect class="fil0" width="1000" height="500"/>
   <polygon class="fil1" points="0,28 335,56 0,56 "/>
   <polygon class="fil2" points="0,98 277,137 0,137 "/>
   <polygon class="fil2 str0" points="460,93 230,114 416,124 689,114 "/>
   <polygon class="fil1" points="1000,25 665,56 1000,56 "/>
   <polygon class="fil2" points="1000,98 723,137 1000,137 "/>
  </g>
  <path class="fil3" d="M1000 256c0,0 -28,12 -38,38 -10,26 -29,9 -48,17 -19,9 -13,-5 -33,23 -20,28 -42,45 -51,31 -10,-14 -43,-42 -62,-33 -18,9 -75,24 -72,26 3,2 -29,26 -43,23 -14,-3 -67,-19 -71,-20 -9,-2 -18,-3 -26,-5l1 -12 21 2 -18 -15c0,0 15,0 14,0 -2,0 -18,-10 -18,-10l5 0 -9 -16 -6 15 5 1 -14 7c0,0 11,2 9,2 -1,0 -5,2 -9,5l-4 -11 6 1 0 -15 -12 7 2 5 -11 -2 1 6 -10 -1 7 0 -14 -11 9 1 -14 -22 -11 21 7 3 -10 5 -10 -15 -12 15c0,0 11,0 9,1 -2,1 -13,7 -13,7 0,0 13,0 10,1 -3,1 -18,11 -18,11l1 1c-51,-2 -19,22 -96,42 -14,3 -46,-21 -43,-23 3,-2 -55,-17 -73,-26 -18,-9 -53,19 -63,33 -10,14 -11,-5 -31,-33 -2,-3 -4,-5 -6,-7l4 -5 15 9 -7 -19 8 4 -5 -10 6 2 2 -18 -15 6 3 7 -14 -3 6 8c0,0 -8,-2 -16,-3l-1 -3 6 2 2 -18 -15 6 3 7 -14 -3 6 8c0,0 -27,-6 -26,-5 1,1 22,15 22,15l-2 3c-5,0 -11,0 -17,-3 -4,-2 -8,-2 -11,-3l0 -2 18 2 -14 -14 9 0 -9 -8 6 -1 -6 -17 -11 12 6 5 -14 3 9 5c0,0 -27,6 -25,7 2,1 27,4 27,4l-1 4c-13,0 -24,4 -32,-15 -11,-26 -39,-38 -39,-38l0 244 500 0 6 0 494 0 0 -244zm-877 53c6,4 12,8 12,8l-4 6c-3,-3 -7,-5 -10,-6l-4 -11 5 3zm426 47c-12,-2 -23,-4 -33,-6l2 -6 0 0 14 5 -3 -5 10 0 1 0 0 0 10 0 -1 13zm-21 -15l-1 -2 3 1 -2 1zm-18 8c-3,-1 -6,-1 -9,-2l0 -3 12 0 -3 5zm-33 -25l-2 1 13 3 -7 3 -9 -6 5 -1zm5 15l6 2 -2 5c-2,0 -4,-1 -6,-1l-4 -5 5 -1z"/>
  <polygon class="fil4" points="724,371 730,395 724,394 731,399 734,414 728,415 735,417 740,435 729,433 727,437 742,445 749,476 723,472 725,478 752,486 755,500 691,500 700,462 718,457 718,453 703,454 708,434 723,427 722,421 710,426 713,416 722,411 722,404 715,406 720,390 724,387 723,384 721,384 "/>
  <path class="fil5" d="M731 399l0 0 1 2 -9 7 0 -3 -7 2 1 -4 15 -4zm-3 16l7 3 0 2 -13 7 -1 -5 -12 5 1 -3 10 -2 -9 0 1 -4 16 -3zm10 13l2 7 -11 -1 -2 3 2 1 -17 4 32 9 2 7 -16 1 19 8 2 7 -30 -4 5 3 1 5 14 4 14 8 1 6 -30 -3 16 7 -21 0 -25 -13 1 -5 26 0 -23 -13 2 -6 0 0 19 -1 -6 -4 4 -1 0 -4 -11 1 -3 -2 1 -4 25 3 -23 -9 2 -7 10 -2 -5 -1 9 -4 17 0z"/>
  <polygon class="fil6" points="721,471 724,471 724,500 720,500 "/>
  <polygon class="fil4" points="798,371 793,395 799,394 792,399 788,414 795,415 787,417 783,435 794,433 796,437 781,445 774,476 800,472 798,478 771,486 768,500 832,500 822,462 805,457 805,453 820,454 815,434 800,427 801,421 813,426 810,416 800,411 801,404 808,406 803,390 799,387 800,384 802,384 "/>
  <path class="fil5" d="M792 399l0 0 -1 2 9 7 0 -3 7 2 -1 -4 -15 -4zm3 16l-7 3 0 2 13 7 1 -5 12 5 -1 -3 -10 -2 9 0 -1 -4 -16 -3zm-10 13l-2 7 11 -1 2 3 -2 1 17 4 -32 9 -2 7 16 1 -19 8 -2 7 30 -4 -5 3 -1 5 -14 4 -14 8 -1 6 30 -3 -16 7 21 0 25 -13 -1 -5 -26 0 23 -13 -2 -6 0 0 -19 -1 6 -4 -4 -1 0 -4 11 1 3 -2 -1 -4 -25 3 23 -9 -2 -7 -10 -2 5 -1 -9 -4 -17 0z"/>
  <polygon class="fil6" points="802,471 798,471 798,500 803,500 "/>
  <polygon class="fil4" points="884,371 889,395 883,394 890,399 894,414 887,415 894,417 899,435 888,433 886,437 901,445 908,476 882,472 884,478 911,486 914,500 850,500 859,462 877,457 877,453 862,454 867,434 882,427 881,421 869,426 872,416 881,411 881,404 874,406 879,390 883,387 882,384 880,384 "/>
  <path class="fil5" d="M890 399l0 0 1 2 -9 7 0 -3 -7 2 1 -4 15 -4zm-3 16l7 3 0 2 -13 7 -1 -5 -12 5 1 -3 10 -2 -9 0 1 -4 16 -3zm10 13l2 7 -11 -1 -2 3 2 1 -17 4 32 9 2 7 -16 1 19 8 2 7 -30 -4 5 3 1 5 14 4 14 8 1 6 -30 -3 16 7 -21 0 -25 -13 1 -5 26 0 -23 -13 2 -6 0 0 19 -1 -6 -4 4 -1 0 -4 -11 1 -3 -2 1 -4 25 3 -23 -9 2 -7 10 -2 -5 -1 9 -4 17 0z"/>
  <polygon class="fil6" points="880,471 883,471 883,500 879,500 "/>
  <polygon class="fil4" points="957,371 952,395 958,394 951,399 947,414 954,415 946,417 942,435 953,433 955,437 940,445 933,476 959,472 957,478 930,486 927,500 991,500 981,462 964,457 964,453 979,454 974,434 959,427 960,421 972,426 969,416 960,411 960,404 967,406 962,390 958,387 959,384 961,384 "/>
  <path class="fil5" d="M951 399l0 0 -1 2 9 7 0 -3 7 2 -1 -4 -15 -4zm3 16l-7 3 0 2 13 7 1 -5 12 5 -1 -3 -10 -2 9 0 -1 -4 -16 -3zm-10 13l-2 7 11 -1 2 3 -2 1 17 4 -32 9 -2 7 16 1 -19 8 -2 7 30 -4 -5 3 -1 5 -14 4 -14 8 -1 6 30 -3 -16 7 21 0 25 -13 -1 -5 -26 0 23 -13 -2 -6 0 0 -19 -1 6 -4 -4 -1 0 -4 11 1 3 -2 -1 -4 -25 3 23 -9 -2 -7 -10 -2 5 -1 -9 -4 -17 0z"/>
  <polygon class="fil6" points="961,471 958,471 958,500 962,500 "/>
  <polygon class="fil4" points="639,371 634,395 640,394 633,399 629,414 636,415 628,417 624,435 635,433 637,437 622,445 614,476 641,472 639,478 612,486 609,500 673,500 663,462 646,457 646,453 661,454 656,434 641,427 642,421 654,426 651,416 641,411 642,404 649,406 644,390 640,387 641,384 643,384 "/>
  <path class="fil5" d="M633 399l0 0 -1 2 9 7 0 -3 7 2 -1 -4 -15 -4zm3 16l-7 3 0 2 13 7 1 -5 12 5 -1 -3 -10 -2 9 0 -1 -4 -16 -3zm-10 13l-2 7 11 -1 2 3 -2 1 17 4 -32 9 -2 7 16 1 -19 8 -2 7 30 -4 -5 3 -1 5 -14 4 -14 8 -1 6 30 -3 -16 7 21 0 25 -13 -1 -5 -26 0 23 -13 -2 -6 0 0 -19 -1 6 -4 -4 -1 0 -4 11 1 3 -2 -1 -4 -25 3 23 -9 -2 -7 -10 -2 5 -1 -9 -4 -17 0z"/>
  <polygon class="fil6" points="643,471 639,471 639,500 644,500 "/>
  <polygon class="fil4" points="565,371 571,395 565,394 572,399 575,414 569,415 576,417 580,435 570,433 568,437 583,445 590,476 564,472 566,478 593,486 596,500 531,500 541,462 559,457 559,453 544,454 549,434 564,427 563,421 551,426 554,416 563,411 563,404 556,406 561,390 565,387 564,384 562,384 "/>
  <path class="fil5" d="M572 399l0 0 1 2 -9 7 0 -3 -7 2 1 -4 15 -4zm-3 16l7 3 0 2 -13 7 -1 -5 -12 5 1 -3 10 -2 -9 0 1 -4 16 -3zm10 13l2 7 -11 -1 -2 3 2 1 -17 4 32 9 2 7 -16 1 19 8 2 7 -30 -4 5 3 1 5 14 4 14 8 1 6 -30 -3 16 7 -21 0 -25 -13 1 -5 26 0 -23 -13 2 -6 0 0 19 -1 -6 -4 4 -1 0 -4 -11 1 -3 -2 1 -4 25 3 -23 -9 2 -7 10 -2 -5 -1 9 -4 17 0z"/>
  <polygon class="fil6" points="562,471 565,471 565,500 561,500 "/>
  <polygon class="fil4" points="480,371 475,395 481,394 474,399 470,414 477,415 469,417 465,435 476,433 478,437 463,445 455,476 482,472 480,478 453,486 450,500 514,500 504,462 487,457 487,453 502,454 497,434 482,427 483,421 495,426 492,416 482,411 483,404 489,406 485,390 481,387 482,384 484,384 "/>
  <path class="fil5" d="M474 399l0 0 -1 2 9 7 0 -3 7 2 -1 -4 -15 -4zm3 16l-7 3 0 2 13 7 1 -5 12 5 -1 -3 -10 -2 9 0 -1 -4 -16 -3zm-10 13l-2 7 11 -1 2 3 -2 1 17 4 -32 9 -2 7 16 1 -19 8 -2 7 30 -4 -5 3 -1 5 -14 4 -14 8 -1 6 30 -3 -16 7 21 0 25 -13 -1 -5 -26 0 23 -13 -2 -6 0 0 -19 -1 6 -4 -4 -1 0 -4 11 1 3 -2 -1 -4 -25 3 23 -9 -2 -7 -10 -2 5 -1 -9 -4 -17 0z"/>
  <polygon class="fil6" points="483,471 480,471 480,500 485,500 "/>
  <polygon class="fil4" points="406,371 412,395 406,394 413,399 416,414 410,415 417,417 421,435 411,433 409,437 424,445 431,476 405,472 407,478 434,486 437,500 372,500 382,462 400,457 400,453 385,454 390,434 404,427 404,421 392,426 395,416 404,411 404,404 397,406 401,390 406,387 405,384 403,384 "/>
  <path class="fil5" d="M413 399l0 0 1 2 -9 7 0 -3 -7 2 1 -4 15 -4zm-3 16l7 3 0 2 -13 7 -1 -5 -12 5 1 -3 10 -2 -9 0 1 -4 16 -3zm10 13l2 7 -11 -1 -2 3 2 1 -17 4 32 9 2 7 -16 1 19 8 2 7 -30 -4 5 3 1 5 14 4 14 8 1 6 -30 -3 16 7 -21 0 -25 -13 1 -5 26 0 -23 -13 2 -6 0 0 19 -1 -6 -4 4 -1 0 -4 -11 1 -3 -2 1 -4 25 3 -23 -9 2 -7 10 -2 -5 -1 9 -4 17 0z"/>
  <polygon class="fil6" points="403,471 406,471 406,500 402,500 "/>
  <polygon class="fil4" points="48,371 54,395 48,394 55,399 58,414 52,415 59,417 63,435 52,433 51,437 66,445 73,476 47,472 48,478 76,486 79,500 14,500 24,462 42,457 41,453 27,454 32,434 46,427 45,421 34,426 37,416 46,411 46,404 39,406 43,390 48,387 47,384 45,384 "/>
  <path class="fil5" d="M55 399l0 0 1 2 -9 7 0 -3 -7 2 1 -4 15 -4zm-3 16l7 3 0 2 -13 7 -1 -5 -12 5 1 -3 10 -2 -9 0 1 -4 16 -3zm10 13l2 7 -11 -1 -2 3 2 1 -17 4 32 9 2 7 -16 1 19 8 2 7 -30 -4 5 3 1 5 14 4 14 8 1 6 -30 -3 16 7 -21 0 -25 -13 1 -5 26 0 -23 -13 2 -6 0 0 19 -1 -6 -4 4 -1 0 -4 -11 1 -3 -2 1 -4 25 3 -23 -9 2 -7 10 -2 -5 -1 9 -4 17 0z"/>
  <polygon class="fil6" points="45,471 48,471 48,500 44,500 "/>
  <polygon class="fil4" points="132,371 127,395 133,394 126,399 122,414 129,415 121,417 117,435 128,433 129,437 115,445 107,476 133,472 132,478 105,486 101,500 166,500 156,462 139,457 139,453 154,454 149,434 134,427 135,421 146,426 144,416 134,411 134,404 141,406 137,390 133,387 134,384 136,384 "/>
  <path class="fil5" d="M126 399l0 0 -1 2 9 7 0 -3 7 2 -1 -4 -15 -4zm3 16l-7 3 0 2 13 7 1 -5 12 5 -1 -3 -10 -2 9 0 -1 -4 -16 -3zm-10 13l-2 7 11 -1 2 3 -2 1 17 4 -32 9 -2 7 16 1 -19 8 -2 7 30 -4 -5 3 -1 5 -14 4 -14 8 -1 6 30 -3 -16 7 21 0 25 -13 -1 -5 -26 0 23 -13 -2 -6 0 0 -19 -1 6 -4 -4 -1 0 -4 11 1 3 -2 -1 -4 -25 3 23 -9 -2 -7 -10 -2 5 -1 -9 -4 -17 0z"/>
  <polygon class="fil6" points="135,471 132,471 132,500 137,500 "/>
  <polygon class="fil4" points="237,371 243,395 237,394 244,399 247,414 241,415 248,417 252,435 241,433 240,437 255,445 262,476 236,472 237,478 265,486 268,500 203,500 213,462 231,457 230,453 216,454 221,434 235,427 235,421 223,426 226,416 235,411 235,404 228,406 232,390 237,387 236,384 234,384 "/>
  <path class="fil5" d="M244 399l0 0 1 2 -9 7 0 -3 -7 2 1 -4 15 -4zm-3 16l7 3 0 2 -13 7 -1 -5 -12 5 1 -3 10 -2 -9 0 1 -4 16 -3zm10 13l2 7 -11 -1 -2 3 2 1 -17 4 32 9 2 7 -16 1 19 8 2 7 -30 -4 5 3 1 5 14 4 14 8 1 6 -30 -3 16 7 -21 0 -25 -13 1 -5 26 0 -23 -13 2 -6 0 0 19 -1 -6 -4 4 -1 0 -4 -11 1 -3 -2 1 -4 25 3 -23 -9 2 -7 10 -2 -5 -1 9 -4 17 0z"/>
  <polygon class="fil6" points="234,471 237,471 237,500 233,500 "/>
  <polygon class="fil4" points="321,371 316,395 322,394 315,399 311,414 318,415 310,417 306,435 317,433 319,437 304,445 296,476 323,472 321,478 294,486 291,500 355,500 345,462 328,457 328,453 343,454 338,434 323,427 324,421 336,426 333,416 323,411 324,404 330,406 326,390 322,387 323,384 325,384 "/>
  <path class="fil5" d="M315 399l0 0 -1 2 9 7 0 -3 7 2 -1 -4 -15 -4zm3 16l-7 3 0 2 13 7 1 -5 12 5 -1 -3 -10 -2 9 0 -1 -4 -16 -3zm-10 13l-2 7 11 -1 2 3 -2 1 17 4 -32 9 -2 7 16 1 -19 8 -2 7 30 -4 -5 3 -1 5 -14 4 -14 8 -1 6 30 -3 -16 7 21 0 25 -13 -1 -5 -26 0 23 -13 -2 -6 0 0 -19 -1 6 -4 -4 -1 0 -4 11 1 3 -2 -1 -4 -25 3 23 -9 -2 -7 -10 -2 5 -1 -9 -4 -17 0z"/>
  <polygon class="fil6" points="324,471 321,471 321,500 326,500 "/>
  <g id="_298022272">
   <path class="fil7" d="M173 0c4,54 11,150 8,160 -3,14 0,52 3,82 3,30 17,170 18,208 0,17 3,35 5,50l-71 0c-3,-55 -8,-165 -10,-182 -3,-23 -5,-174 -6,-203 0,-13 -2,-64 -5,-114l56 0z"/>
   <path class="fil8" d="M194 500c-1,-27 -4,-132 -4,-151 -1,-22 -3,-44 -6,-70 -3,-26 -5,-147 -8,-172 -1,-12 -4,-61 -7,-108l-14 0c3,26 5,51 6,68 1,45 3,162 10,227 8,66 11,140 11,203l0 2 12 0z"/>
   <path class="fil8" d="M131 0c6,69 17,180 17,183 0,5 -4,84 -8,111 -4,27 4,95 6,118 2,15 4,53 5,88l19 0c-2,-50 -4,-102 -4,-124 1,-50 -10,-84 -10,-100 0,-16 -4,-143 -4,-154 0,-6 -3,-64 -7,-122l-15 0z"/>
   <path class="fil8" d="M131 0c6,69 17,180 17,183 0,5 -4,84 -8,111 -4,27 4,95 6,118 2,15 4,53 5,88l19 0c-2,-50 -4,-102 -4,-124 1,-50 -10,-84 -10,-100 0,-16 -4,-143 -4,-154 0,-6 -3,-64 -7,-122l-15 0z"/>
   <path class="fil8" d="M127 0c4,83 9,179 8,203 -2,44 -3,161 -3,169 0,5 6,79 10,128l-5 0c-3,-55 -8,-165 -10,-182 -3,-23 -5,-174 -6,-203 0,-13 -2,-64 -5,-114l10 0z"/>
   <path class="fil7" d="M61 0c2,54 5,150 3,160 -1,14 0,52 1,82 1,30 7,170 8,208 0,17 1,35 2,50l-30 0c-1,-55 -3,-165 -4,-182 -1,-23 -2,-174 -3,-203 0,-13 -1,-64 -2,-114l24 0z"/>
   <path class="fil8" d="M71 500c0,-27 -2,-132 -2,-151 0,-22 -1,-44 -3,-70 -1,-26 -2,-147 -3,-172 -1,-12 -2,-61 -3,-108l-6 0c1,26 2,51 2,68 1,45 1,162 4,227 3,66 5,140 5,203l0 2 5 0z"/>
   <path class="fil8" d="M44 0c3,69 7,180 7,183 0,5 -2,84 -3,111 -2,27 2,95 3,118 1,15 2,53 2,88l8 0c-1,-50 -2,-102 -2,-124 1,-50 -4,-84 -4,-100 0,-16 -2,-143 -2,-154 0,-6 -1,-64 -3,-122l-7 0z"/>
   <path class="fil8" d="M44 0c3,69 7,180 7,183 0,5 -2,84 -3,111 -2,27 2,95 3,118 1,15 2,53 2,88l8 0c-1,-50 -2,-102 -2,-124 1,-50 -4,-84 -4,-100 0,-16 -2,-143 -2,-154 0,-6 -1,-64 -3,-122l-7 0z"/>
   <path class="fil8" d="M42 0c2,83 4,179 3,203 -1,44 -1,161 -1,169 0,5 3,79 4,128l-2 0c-1,-55 -3,-165 -4,-182 -1,-23 -2,-174 -3,-203 0,-13 -1,-64 -2,-114l4 0z"/>
   <path class="fil7" d="M799 0c-2,54 -5,150 -2,160 5,14 2,52 0,82 -3,30 -12,170 -11,208 0,17 -2,35 -4,50l83 0c0,-55 1,-165 3,-182 2,-23 -2,-174 -3,-203 0,-13 0,-64 0,-114l-66 0z"/>
   <path class="fil8" d="M797 500c0,-27 -2,-132 -2,-151 0,-22 2,-44 4,-70 3,-26 -1,-147 1,-172 1,-12 2,-61 3,-108l16 0c-2,26 -4,51 -3,68 1,45 5,162 -1,227 -6,66 -7,140 -4,203l0 2 -14 0z"/>
   <path class="fil8" d="M848 0c-4,69 -12,180 -12,183 0,5 8,84 14,111 6,27 0,95 -2,118 -1,15 -2,53 -2,88l-23 0c0,-50 0,-102 -1,-124 -4,-50 8,-84 7,-100 -1,-16 -2,-143 -3,-154 0,-6 1,-64 2,-122l18 0z"/>
   <path class="fil8" d="M848 0c-4,69 -12,180 -12,183 0,5 8,84 14,111 6,27 0,95 -2,118 -1,15 -2,53 -2,88l-23 0c0,-50 0,-102 -1,-124 -4,-50 8,-84 7,-100 -1,-16 -2,-143 -3,-154 0,-6 1,-64 2,-122l18 0z"/>
   <path class="fil8" d="M853 0c-1,83 -2,179 1,203 4,44 12,161 12,169 0,5 -3,79 -6,128l5 0c0,-55 1,-165 3,-182 2,-23 -2,-174 -3,-203 0,-13 0,-64 0,-114l-12 0z"/>
   <path class="fil7" d="M929 0c-2,54 -5,150 -3,160 1,14 0,52 -1,82 -1,30 -7,170 -8,208 0,17 -1,35 -2,50l30 0c1,-55 3,-165 4,-182 1,-23 2,-174 3,-203 0,-13 1,-64 2,-114l-24 0z"/>
   <path class="fil8" d="M920 500c0,-27 2,-132 2,-151 0,-22 1,-44 3,-70 1,-26 2,-147 3,-172 1,-12 2,-61 3,-108l6 0c-1,26 -2,51 -2,68 -1,45 -1,162 -4,227 -3,66 -5,140 -5,203l0 2 -5 0z"/>
   <path class="fil8" d="M947 0c-3,69 -7,180 -7,183 0,5 2,84 3,111 2,27 -2,95 -3,118 -1,15 -2,53 -2,88l-8 0c1,-50 2,-102 2,-124 -1,-50 4,-84 4,-100 0,-16 2,-143 2,-154 0,-6 1,-64 3,-122l7 0z"/>
   <path class="fil8" d="M947 0c-3,69 -7,180 -7,183 0,5 2,84 3,111 2,27 -2,95 -3,118 -1,15 -2,53 -2,88l-8 0c1,-50 2,-102 2,-124 -1,-50 4,-84 4,-100 0,-16 2,-143 2,-154 0,-6 1,-64 3,-122l7 0z"/>
   <path class="fil8" d="M949 0c-2,83 -4,179 -3,203 1,44 1,161 1,169 0,5 -3,79 -4,128l2 0c1,-55 3,-165 4,-182 1,-23 2,-174 3,-203 0,-13 1,-64 2,-114l-4 0z"/>
  </g>
 </g>
 <g id="Capa_x0020_2">
  <metadata id="CorelCorpID_1Corel-Layer"/>
  <polygon class="fil9" points="682,0 1000,0 1000,500 712,500 681,10 "/>
  <polygon class="fil10" points="681,0 352,0 309,500 712,500 "/>
  <polygon class="fil11" points="0,0 352,0 309,500 0,500 "/>
  <polygon class="fil11" points="38,62 318,51 299,229 55,246 "/>
  <path class="fil12" d="M100 121l15 40c0,-6 0,-22 -1,-47l10 0c0,17 0,40 0,69l-10 0c-4,-9 -9,-23 -17,-42 0,12 0,24 0,34l-10 0c0,-13 0,-31 0,-55l12 1zm39 -4c-1,19 -1,38 0,59l-11 0c1,-17 1,-37 0,-59l11 0zm17 57l-14 -56 10 -2 10 44 11 -45 12 2 -18 57 -11 0zm32 -57c10,0 20,-1 29,-1l0 14c-6,0 -13,-1 -19,-1l0 18 17 0 -1 10c-5,0 -10,0 -15,0l0 13 18 0 0 12c-9,0 -19,0 -28,0 1,-20 0,-42 0,-65zm34 63c-1,-26 -1,-46 -1,-62l10 -1c0,24 0,41 0,51l20 -1 0 12 -29 1zm46 -62c0,19 -1,38 -1,56l-9 0c0,-13 0,-29 0,-47l-5 0 0 -9 14 0z"/>
  <polygon class="fil10" points="377,62 657,51 638,229 394,246 "/>
  <path class="fil12" d="M429 122l15 40c0,-6 0,-22 -1,-47l10 0c0,17 0,40 0,69l-10 0c-4,-9 -9,-23 -17,-42 0,12 0,24 0,34l-10 0c0,-13 0,-31 0,-55l12 1zm39 -4c-1,19 -1,38 0,59l-11 0c1,-17 1,-37 0,-59l11 0zm17 57l-14 -56 10 -2 10 44 11 -45 12 2 -18 57 -11 0zm32 -57c10,0 20,-1 29,-1l0 14c-6,0 -13,-1 -19,-1l0 18 17 0 -1 10c-5,0 -10,0 -15,0l0 13 18 0 0 12c-9,0 -19,0 -28,0 1,-20 0,-42 0,-65zm34 63c-1,-26 -1,-46 -1,-62l10 -1c0,24 0,41 0,51l20 -1 0 12 -29 1zm33 -49c0,-7 2,-12 6,-16 5,-4 10,-5 16,-3 6,2 9,8 9,18 0,10 -7,21 -19,32l20 1 0 10 -30 -1 -1 -10c13,-11 20,-20 21,-28 1,-8 -1,-12 -5,-12 -4,0 -7,3 -7,11l-9 -1z"/>
  <polygon class="fil9" points="692,62 971,51 953,229 709,246 "/>
  <path class="fil12" d="M743 123l15 40c0,-6 0,-22 -1,-47l10 0c0,17 0,40 0,69l-10 0c-4,-9 -9,-23 -17,-42 0,12 0,24 0,34l-10 0c0,-13 0,-31 0,-55l12 1zm39 -4c-1,19 -1,38 0,59l-11 0c1,-17 1,-37 0,-59l11 0zm17 57l-14 -56 10 -2 10 44 11 -45 12 2 -18 57 -11 0zm32 -57c10,0 20,-1 29,-1l0 14c-6,0 -13,-1 -19,-1l0 18 17 0 -1 10c-5,0 -10,0 -15,0l0 13 18 0 0 12c-9,0 -19,0 -28,0 1,-20 0,-42 0,-65zm34 63c-1,-26 -1,-46 -1,-62l10 -1c0,24 0,41 0,51l20 -1 0 12 -29 1zm32 -21l10 -2c0,7 2,11 7,11 5,0 7,-3 8,-9 0,-6 -4,-10 -13,-11l0 -8c7,0 10,-3 11,-10 0,-6 -2,-9 -6,-10 -5,0 -7,3 -7,10l-10 -2c1,-10 5,-16 12,-18 7,-2 12,0 16,4 4,4 6,9 5,15 0,6 -3,11 -7,14 6,3 9,9 8,17 -1,8 -4,13 -11,15 -6,2 -12,1 -16,-1 -4,-3 -7,-8 -7,-16z"/>
 </g>
</svg>
