<?xml version="1.0" encoding="UTF-8"?>
<!DOCTYPE svg PUBLIC "-//W3C//DTD SVG 1.1//EN" "http://www.w3.org/Graphics/SVG/1.1/DTD/svg11.dtd">
<!-- Creator: CorelDRAW X6 -->
<svg xmlns="http://www.w3.org/2000/svg" xml:space="preserve" width="3000px" height="500px" version="1.1" style="shape-rendering:geometricPrecision; text-rendering:geometricPrecision; image-rendering:optimizeQuality; fill-rule:evenodd; clip-rule:evenodd"
viewBox="0 0 3000 500"
 xmlns:xlink="http://www.w3.org/1999/xlink">
 <defs>
  <style type="text/css">
   <![CDATA[
    .fil0 {fill:#201E1E}
   ]]>
  </style>
 </defs>
 <g id="BLOQUES">
  <metadata id="CorelCorpID_0Corel-Layer"/>
  <rect class="fil0" x="0" y="450" width="50" height="50"/>
  <rect class="fil0" x="50" y="450" width="50" height="50"/>
  <rect class="fil0" x="150" y="450" width="50" height="50"/>
  <rect class="fil0" x="100" y="450" width="50" height="50"/>
  <rect class="fil0" x="350" y="450" width="50" height="50"/>
  <rect class="fil0" x="300" y="450" width="50" height="50"/>
  <rect class="fil0" x="200" y="450" width="50" height="50"/>
  <rect class="fil0" x="250" y="450" width="50" height="50"/>
  <rect class="fil0" x="750" y="450" width="50" height="50"/>
  <rect class="fil0" x="700" y="450" width="50" height="50"/>
  <rect class="fil0" x="600" y="450" width="50" height="50"/>
  <rect class="fil0" x="650" y="450" width="50" height="50"/>
  <rect class="fil0" x="400" y="450" width="50" height="50"/>
  <rect class="fil0" x="450" y="450" width="50" height="50"/>
  <rect class="fil0" x="550" y="450" width="50" height="50"/>
  <rect class="fil0" x="500" y="450" width="50" height="50"/>
  <rect class="fil0" x="800" y="450" width="50" height="50"/>
  <rect class="fil0" x="850" y="450" width="50" height="50"/>
  <rect class="fil0" x="900" y="450" width="50" height="50"/>
  <rect class="fil0" x="950" y="450" width="50" height="50"/>
  <rect class="fil0" x="0" y="300" width="50" height="50"/>
  <rect class="fil0" x="0" y="250" width="50" height="50"/>
  <rect class="fil0" x="0" y="150" width="50" height="50"/>
  <rect class="fil0" x="0" y="200" width="50" height="50"/>
  <rect class="fil0" x="0" y="100" width="50" height="50"/>
  <rect class="fil0" x="0" y="50" width="50" height="50"/>
  <rect class="fil0" x="0" y="0" width="50" height="50"/>
  <rect class="fil0" x="50" y="0" width="50" height="50"/>
  <rect class="fil0" x="150" y="0" width="50" height="50"/>
  <rect class="fil0" x="100" y="0" width="50" height="50"/>
  <rect class="fil0" x="350" y="0" width="50" height="50"/>
  <rect class="fil0" x="300" y="0" width="50" height="50"/>
  <rect class="fil0" x="200" y="0" width="50" height="50"/>
  <rect class="fil0" x="250" y="0" width="50" height="50"/>
  <rect class="fil0" x="750" y="0" width="50" height="50"/>
  <rect class="fil0" x="700" y="0" width="50" height="50"/>
  <rect class="fil0" x="600" y="0" width="50" height="50"/>
  <rect class="fil0" x="650" y="0" width="50" height="50"/>
  <rect class="fil0" x="400" y="0" width="50" height="50"/>
  <rect class="fil0" x="450" y="0" width="50" height="50"/>
  <rect class="fil0" x="550" y="0" width="50" height="50"/>
  <rect class="fil0" x="500" y="0" width="50" height="50"/>
  <rect class="fil0" x="800" y="0" width="50" height="50"/>
  <rect class="fil0" x="850" y="0" width="50" height="50"/>
  <rect class="fil0" x="900" y="0" width="50" height="50"/>
  <rect class="fil0" x="950" y="0" width="50" height="50"/>
  <rect class="fil0" x="950" y="300" width="50" height="50"/>
  <rect class="fil0" x="950" y="250" width="50" height="50"/>
  <rect class="fil0" x="950" y="150" width="50" height="50"/>
  <rect class="fil0" x="950" y="200" width="50" height="50"/>
  <rect class="fil0" x="950" y="350" width="50" height="50"/>
  <rect class="fil0" x="950" y="400" width="50" height="50"/>
  <rect class="fil0" x="300" y="250" width="50" height="50"/>
  <rect class="fil0" x="300" y="300" width="50" height="50"/>
  <rect class="fil0" x="300" y="400" width="50" height="50"/>
  <rect class="fil0" x="300" y="350" width="50" height="50"/>
  <rect class="fil0" x="50" y="300" width="50" height="50"/>
  <rect class="fil0" x="100" y="300" width="50" height="50"/>
  <rect class="fil0" x="150" y="300" width="50" height="50"/>
  <rect class="fil0" x="300" y="200" width="50" height="50"/>
  <rect class="fil0" x="300" y="150" width="50" height="50"/>
  <rect class="fil0" x="250" y="150" width="50" height="50"/>
  <rect class="fil0" x="200" y="150" width="50" height="50"/>
  <rect class="fil0" x="150" y="150" width="50" height="50"/>
  <rect class="fil0" x="450" y="50" width="50" height="50"/>
  <rect class="fil0" x="450" y="250" width="50" height="50"/>
  <rect class="fil0" x="450" y="200" width="50" height="50"/>
  <rect class="fil0" x="450" y="100" width="50" height="50"/>
  <rect class="fil0" x="450" y="150" width="50" height="50"/>
  <rect class="fil0" x="450" y="300" width="50" height="50"/>
  <rect class="fil0" x="600" y="250" width="50" height="50"/>
  <rect class="fil0" x="600" y="300" width="50" height="50"/>
  <rect class="fil0" x="600" y="400" width="50" height="50"/>
  <rect class="fil0" x="600" y="350" width="50" height="50"/>
  <rect class="fil0" x="600" y="200" width="50" height="50"/>
  <rect class="fil0" x="600" y="150" width="50" height="50"/>
  <rect class="fil0" x="750" y="50" width="50" height="50"/>
  <rect class="fil0" x="750" y="250" width="50" height="50"/>
  <rect class="fil0" x="750" y="200" width="50" height="50"/>
  <rect class="fil0" x="750" y="100" width="50" height="50"/>
  <rect class="fil0" x="750" y="150" width="50" height="50"/>
  <rect class="fil0" x="750" y="300" width="50" height="50"/>
  <rect class="fil0" x="800" y="200" width="50" height="23"/>
  <rect class="fil0" x="900" y="150" width="50" height="22"/>
  <rect class="fil0" x="900" y="377" width="50" height="23"/>
  <rect class="fil0" x="250" y="375" width="50" height="25"/>
  <rect class="fil0" x="50" y="227" width="50" height="23"/>
  <rect class="fil0" x="400" y="200" width="50" height="24"/>
  <rect class="fil0" x="350" y="327" width="50" height="23"/>
  <rect class="fil0" x="550" y="377" width="50" height="23"/>
  <rect class="fil0" x="500" y="300" width="50" height="23"/>
  <rect class="fil0" x="550" y="200" width="50" height="23"/>
  <rect class="fil0" x="1950" y="450" width="50" height="50"/>
  <rect class="fil0" x="1900" y="450" width="50" height="50"/>
  <rect class="fil0" x="1800" y="450" width="50" height="50"/>
  <rect class="fil0" x="1850" y="450" width="50" height="50"/>
  <rect class="fil0" x="1600" y="450" width="50" height="50"/>
  <rect class="fil0" x="1650" y="450" width="50" height="50"/>
  <rect class="fil0" x="1750" y="450" width="50" height="50"/>
  <rect class="fil0" x="1700" y="450" width="50" height="50"/>
  <rect class="fil0" x="1200" y="450" width="50" height="50"/>
  <rect class="fil0" x="1250" y="450" width="50" height="50"/>
  <rect class="fil0" x="1350" y="450" width="50" height="50"/>
  <rect class="fil0" x="1300" y="450" width="50" height="50"/>
  <rect class="fil0" x="1550" y="450" width="50" height="50"/>
  <rect class="fil0" x="1500" y="450" width="50" height="50"/>
  <rect class="fil0" x="1400" y="450" width="50" height="50"/>
  <rect class="fil0" x="1450" y="450" width="50" height="50"/>
  <rect class="fil0" x="1150" y="450" width="50" height="50"/>
  <rect class="fil0" x="1100" y="450" width="50" height="50"/>
  <rect class="fil0" x="1050" y="450" width="50" height="50"/>
  <rect class="fil0" x="1000" y="450" width="50" height="50"/>
  <rect class="fil0" x="1950" y="300" width="50" height="50"/>
  <rect class="fil0" x="1950" y="250" width="50" height="50"/>
  <rect class="fil0" x="1950" y="150" width="50" height="50"/>
  <rect class="fil0" x="1950" y="200" width="50" height="50"/>
  <rect class="fil0" x="1950" y="100" width="50" height="50"/>
  <rect class="fil0" x="1950" y="50" width="50" height="50"/>
  <rect class="fil0" x="1950" y="0" width="50" height="50"/>
  <rect class="fil0" x="1900" y="0" width="50" height="50"/>
  <rect class="fil0" x="1800" y="0" width="50" height="50"/>
  <rect class="fil0" x="1850" y="0" width="50" height="50"/>
  <rect class="fil0" x="1600" y="0" width="50" height="50"/>
  <rect class="fil0" x="1650" y="0" width="50" height="50"/>
  <rect class="fil0" x="1750" y="0" width="50" height="50"/>
  <rect class="fil0" x="1700" y="0" width="50" height="50"/>
  <rect class="fil0" x="1200" y="0" width="50" height="50"/>
  <rect class="fil0" x="1250" y="0" width="50" height="50"/>
  <rect class="fil0" x="1350" y="0" width="50" height="50"/>
  <rect class="fil0" x="1300" y="0" width="50" height="50"/>
  <rect class="fil0" x="1550" y="0" width="50" height="50"/>
  <rect class="fil0" x="1500" y="0" width="50" height="50"/>
  <rect class="fil0" x="1400" y="0" width="50" height="50"/>
  <rect class="fil0" x="1450" y="0" width="50" height="50"/>
  <rect class="fil0" x="1150" y="0" width="50" height="50"/>
  <rect class="fil0" x="1100" y="0" width="50" height="50"/>
  <rect class="fil0" x="1050" y="0" width="50" height="50"/>
  <rect class="fil0" x="1000" y="0" width="50" height="50"/>
  <rect class="fil0" x="1000" y="300" width="50" height="50"/>
  <rect class="fil0" x="1000" y="250" width="50" height="50"/>
  <rect class="fil0" x="1000" y="150" width="50" height="50"/>
  <rect class="fil0" x="1000" y="200" width="50" height="50"/>
  <rect class="fil0" x="1000" y="350" width="50" height="50"/>
  <rect class="fil0" x="1000" y="400" width="50" height="50"/>
  <rect class="fil0" x="1650" y="250" width="50" height="50"/>
  <rect class="fil0" x="1650" y="300" width="50" height="50"/>
  <rect class="fil0" x="1650" y="400" width="50" height="50"/>
  <rect class="fil0" x="1650" y="350" width="50" height="50"/>
  <rect class="fil0" x="1900" y="300" width="50" height="50"/>
  <rect class="fil0" x="1850" y="300" width="50" height="50"/>
  <rect class="fil0" x="1800" y="300" width="50" height="50"/>
  <rect class="fil0" x="1650" y="200" width="50" height="50"/>
  <rect class="fil0" x="1650" y="150" width="50" height="50"/>
  <rect class="fil0" x="1700" y="150" width="50" height="50"/>
  <rect class="fil0" x="1750" y="150" width="50" height="50"/>
  <rect class="fil0" x="1800" y="150" width="50" height="50"/>
  <rect class="fil0" x="1500" y="50" width="50" height="50"/>
  <rect class="fil0" x="1500" y="250" width="50" height="50"/>
  <rect class="fil0" x="1500" y="200" width="50" height="50"/>
  <rect class="fil0" x="1500" y="100" width="50" height="50"/>
  <rect class="fil0" x="1500" y="150" width="50" height="50"/>
  <rect class="fil0" x="1500" y="300" width="50" height="50"/>
  <rect class="fil0" x="1350" y="250" width="50" height="50"/>
  <rect class="fil0" x="1350" y="300" width="50" height="50"/>
  <rect class="fil0" x="1350" y="400" width="50" height="50"/>
  <rect class="fil0" x="1350" y="350" width="50" height="50"/>
  <rect class="fil0" x="1350" y="200" width="50" height="50"/>
  <rect class="fil0" x="1350" y="150" width="50" height="50"/>
  <rect class="fil0" x="1200" y="50" width="50" height="50"/>
  <rect class="fil0" x="1200" y="250" width="50" height="50"/>
  <rect class="fil0" x="1200" y="200" width="50" height="50"/>
  <rect class="fil0" x="1200" y="100" width="50" height="50"/>
  <rect class="fil0" x="1200" y="150" width="50" height="50"/>
  <rect class="fil0" x="1200" y="300" width="50" height="50"/>
  <rect class="fil0" x="1150" y="250" width="50" height="23"/>
  <rect class="fil0" x="1050" y="150" width="50" height="22"/>
  <rect class="fil0" x="1050" y="327" width="50" height="23"/>
  <rect class="fil0" x="1700" y="375" width="50" height="25"/>
  <rect class="fil0" x="1900" y="227" width="50" height="23"/>
  <rect class="fil0" x="1550" y="200" width="50" height="24"/>
  <rect class="fil0" x="1300" y="377" width="50" height="23"/>
  <rect class="fil0" x="1450" y="300" width="50" height="23"/>
  <rect class="fil0" x="1250" y="200" width="50" height="23"/>
  <rect class="fil0" x="2000" y="450" width="50" height="50"/>
  <rect class="fil0" x="2050" y="450" width="50" height="50"/>
  <rect class="fil0" x="2150" y="450" width="50" height="50"/>
  <rect class="fil0" x="2100" y="450" width="50" height="50"/>
  <rect class="fil0" x="2350" y="450" width="50" height="50"/>
  <rect class="fil0" x="2300" y="450" width="50" height="50"/>
  <rect class="fil0" x="2200" y="450" width="50" height="50"/>
  <rect class="fil0" x="2250" y="450" width="50" height="50"/>
  <rect class="fil0" x="2750" y="450" width="50" height="50"/>
  <rect class="fil0" x="2700" y="450" width="50" height="50"/>
  <rect class="fil0" x="2600" y="450" width="50" height="50"/>
  <rect class="fil0" x="2650" y="450" width="50" height="50"/>
  <rect class="fil0" x="2400" y="450" width="50" height="50"/>
  <rect class="fil0" x="2450" y="450" width="50" height="50"/>
  <rect class="fil0" x="2550" y="450" width="50" height="50"/>
  <rect class="fil0" x="2500" y="450" width="50" height="50"/>
  <rect class="fil0" x="2800" y="450" width="50" height="50"/>
  <rect class="fil0" x="2850" y="450" width="50" height="50"/>
  <rect class="fil0" x="2900" y="450" width="50" height="50"/>
  <rect class="fil0" x="2950" y="450" width="50" height="50"/>
  <rect class="fil0" x="2000" y="300" width="50" height="50"/>
  <rect class="fil0" x="2000" y="250" width="50" height="50"/>
  <rect class="fil0" x="2000" y="150" width="50" height="50"/>
  <rect class="fil0" x="2000" y="200" width="50" height="50"/>
  <rect class="fil0" x="2000" y="100" width="50" height="50"/>
  <rect class="fil0" x="2000" y="50" width="50" height="50"/>
  <rect class="fil0" x="2000" y="0" width="50" height="50"/>
  <rect class="fil0" x="2050" y="0" width="50" height="50"/>
  <rect class="fil0" x="2150" y="0" width="50" height="50"/>
  <rect class="fil0" x="2100" y="0" width="50" height="50"/>
  <rect class="fil0" x="2350" y="0" width="50" height="50"/>
  <rect class="fil0" x="2300" y="0" width="50" height="50"/>
  <rect class="fil0" x="2200" y="0" width="50" height="50"/>
  <rect class="fil0" x="2250" y="0" width="50" height="50"/>
  <rect class="fil0" x="2750" y="0" width="50" height="50"/>
  <rect class="fil0" x="2700" y="0" width="50" height="50"/>
  <rect class="fil0" x="2600" y="0" width="50" height="50"/>
  <rect class="fil0" x="2650" y="0" width="50" height="50"/>
  <rect class="fil0" x="2400" y="0" width="50" height="50"/>
  <rect class="fil0" x="2450" y="0" width="50" height="50"/>
  <rect class="fil0" x="2550" y="0" width="50" height="50"/>
  <rect class="fil0" x="2500" y="0" width="50" height="50"/>
  <rect class="fil0" x="2800" y="0" width="50" height="50"/>
  <rect class="fil0" x="2850" y="0" width="50" height="50"/>
  <rect class="fil0" x="2900" y="0" width="50" height="50"/>
  <rect class="fil0" x="2950" y="0" width="50" height="50"/>
  <rect class="fil0" x="2950" y="300" width="50" height="50"/>
  <rect class="fil0" x="2950" y="250" width="50" height="50"/>
  <rect class="fil0" x="2950" y="150" width="50" height="50"/>
  <rect class="fil0" x="2950" y="200" width="50" height="50"/>
  <rect class="fil0" x="2950" y="350" width="50" height="50"/>
  <rect class="fil0" x="2950" y="400" width="50" height="50"/>
  <rect class="fil0" x="2300" y="250" width="50" height="50"/>
  <rect class="fil0" x="2300" y="300" width="50" height="50"/>
  <rect class="fil0" x="2300" y="400" width="50" height="50"/>
  <rect class="fil0" x="2300" y="350" width="50" height="50"/>
  <rect class="fil0" x="2050" y="300" width="50" height="50"/>
  <rect class="fil0" x="2100" y="300" width="50" height="50"/>
  <rect class="fil0" x="2150" y="300" width="50" height="50"/>
  <rect class="fil0" x="2300" y="200" width="50" height="50"/>
  <rect class="fil0" x="2300" y="150" width="50" height="50"/>
  <rect class="fil0" x="2250" y="150" width="50" height="50"/>
  <rect class="fil0" x="2200" y="150" width="50" height="50"/>
  <rect class="fil0" x="2150" y="150" width="50" height="50"/>
  <rect class="fil0" x="2450" y="50" width="50" height="50"/>
  <rect class="fil0" x="2450" y="250" width="50" height="50"/>
  <rect class="fil0" x="2450" y="200" width="50" height="50"/>
  <rect class="fil0" x="2450" y="100" width="50" height="50"/>
  <rect class="fil0" x="2450" y="150" width="50" height="50"/>
  <rect class="fil0" x="2450" y="300" width="50" height="50"/>
  <rect class="fil0" x="2600" y="250" width="50" height="50"/>
  <rect class="fil0" x="2600" y="300" width="50" height="50"/>
  <rect class="fil0" x="2600" y="400" width="50" height="50"/>
  <rect class="fil0" x="2600" y="350" width="50" height="50"/>
  <rect class="fil0" x="2600" y="200" width="50" height="50"/>
  <rect class="fil0" x="2600" y="150" width="50" height="50"/>
  <rect class="fil0" x="2750" y="50" width="50" height="50"/>
  <rect class="fil0" x="2750" y="250" width="50" height="50"/>
  <rect class="fil0" x="2750" y="200" width="50" height="50"/>
  <rect class="fil0" x="2750" y="100" width="50" height="50"/>
  <rect class="fil0" x="2750" y="150" width="50" height="50"/>
  <rect class="fil0" x="2750" y="300" width="50" height="50"/>
  <rect class="fil0" x="2900" y="240" width="50" height="23"/>
  <rect class="fil0" x="2900" y="150" width="50" height="22"/>
  <rect class="fil0" x="2900" y="377" width="50" height="23"/>
  <rect class="fil0" x="2250" y="375" width="50" height="25"/>
  <rect class="fil0" x="2050" y="227" width="50" height="23"/>
  <rect class="fil0" x="2400" y="200" width="50" height="24"/>
  <rect class="fil0" x="2350" y="327" width="50" height="23"/>
  <rect class="fil0" x="2550" y="377" width="50" height="23"/>
  <rect class="fil0" x="2500" y="300" width="50" height="23"/>
  <rect class="fil0" x="2550" y="200" width="50" height="23"/>
  <rect class="fil0" x="800" y="300" width="50" height="23"/>
  <rect class="fil0" x="1250" y="300" width="50" height="23"/>
  <rect class="fil0" x="1550" y="300" width="50" height="24"/>
  <rect class="fil0" x="1601" y="380" width="50" height="23"/>
  <rect class="fil0" x="2800" y="300" width="50" height="23"/>
 </g>
</svg>
