<?xml version="1.0" encoding="utf-8"?>
<!-- Generator: Adobe Illustrator 17.0.0, SVG Export Plug-In . SVG Version: 6.00 Build 0)  -->
<!DOCTYPE svg PUBLIC "-//W3C//DTD SVG 1.1//EN" "http://www.w3.org/Graphics/SVG/1.1/DTD/svg11.dtd">
<svg version="1.1" id="DETALLES" xmlns="http://www.w3.org/2000/svg" xmlns:xlink="http://www.w3.org/1999/xlink" x="0px" y="0px"
	 width="88px" height="90px" viewBox="0 0 88 90" enable-background="new 0 0 88 90" xml:space="preserve">
<g>
	<polygon fill-rule="evenodd" clip-rule="evenodd" fill="#121620" points="88,90 79.265,14.897 71.878,2.792 55.421,0 37.955,6.516 
		21.159,9.002 7.052,25.761 0,90 	"/>
	<polygon fill-rule="evenodd" clip-rule="evenodd" fill="#26324B" points="83.514,86.509 75.355,20.119 69.3,10.769 55.843,8.617 
		39.04,14.526 23.36,16.711 10.933,30.623 4.45,84.93 	"/>
	<polygon fill-rule="evenodd" clip-rule="evenodd" fill="#414A5F" points="72.914,82.822 68.184,14.653 66.399,13.432 
		55.421,11.965 49.849,13.603 48.365,40.8 41.985,38.111 37.955,29.071 38.187,17.027 37.955,17.096 24.408,18.675 22.91,81.988 	
		"/>
	<path fill-rule="evenodd" clip-rule="evenodd" fill="#121620" d="M33.53,7.172c5.171,10.081,9.252,21.018,6.441,26.685
		c-3.85,7.762-5.198,36.719-5.544,56.143H0l7.052-64.239l14.108-16.76L33.53,7.172z"/>
	<path fill-rule="evenodd" clip-rule="evenodd" fill="#6D7483" d="M32.056,10.678c3.838,9.023,6.447,18.164,4.218,23.179
		c-3.235,7.279-4.362,32.488-4.746,51.616L4.45,84.834l5.808-57.631l11.134-14.764L32.056,10.678z"/>
</g>
</svg>
