<?xml version="1.0" encoding="utf-8"?>
<!-- Generator: Adobe Illustrator 17.0.0, SVG Export Plug-In . SVG Version: 6.00 Build 0)  -->
<!DOCTYPE svg PUBLIC "-//W3C//DTD SVG 1.1//EN" "http://www.w3.org/Graphics/SVG/1.1/DTD/svg11.dtd">
<svg version="1.1" id="PLANO2" xmlns="http://www.w3.org/2000/svg" xmlns:xlink="http://www.w3.org/1999/xlink" x="0px" y="0px"
	 width="1000px" height="499.999px" viewBox="0 0 1000 499.999" enable-background="new 0 0 1000 499.999" xml:space="preserve">
<polygon fill-rule="evenodd" clip-rule="evenodd" fill="#69181A" points="0,0 1000,0 1000,392.255 973.418,392.255 963.954,323.303 
	883.073,324.002 840.484,248.007 832.309,196.411 836.183,156.671 820.694,135.057 813.81,165.038 799.615,162.249 782.835,192.926 
	753.581,197.805 750.57,216.632 714.002,227.088 694.214,257.767 658.936,319.818 678.035,468.385 574.924,466.164 576.773,257.767 
	535.894,227.088 460.352,216.632 454.132,197.805 393.698,192.926 359.039,162.249 329.712,165.038 315.493,135.057 
	283.496,156.671 291.496,196.411 230.008,234.981 251.897,347.483 236.562,441.729 261.703,487.74 168.771,481.974 215.596,392.182 
	186.63,324.002 19.551,323.303 0,392.255 "/>
<path fill-rule="evenodd" clip-rule="evenodd" fill="#491213" d="M20,20v283.305l179.887,0.753l28.065,66.06l3.632-22.322
	l-23.828-122.465l61.407-38.52l-7.902-39.255l62.327-42.103l18.186,38.347l24.017-2.283l36.167,32.01l67.004,5.41l6.473,19.591
	l68.327,9.457l53.1,39.852l-1.762,198.756l60.137,1.295l-16.988-132.148l38.856-68.345l24.168-37.47l31.559-9.024l3.272-20.459
	l33.852-5.646l19.142-34.997l9.556,1.877l12.471-54.31l45.693,63.762l-4.356,44.676l7.215,45.54l35.056,62.554L980,303.164V20H20
	L20,20z M218.107,430.621l-2.388,14.673l11.06,20.242l-26.038-1.616L218.107,430.621z"/>
<polygon fill-rule="evenodd" clip-rule="evenodd" fill="#2B1515" points="801.785,39.999 877.452,145.591 872.616,195.203 
	878.871,234.688 906.395,283.799 960.001,283.337 960.001,39.999 "/>
<polygon fill-rule="evenodd" clip-rule="evenodd" fill="#2B1515" points="39.999,39.999 39.999,283.389 198.808,284.054 
	185.503,215.681 246.831,177.213 239.026,138.442 331.682,75.849 353.837,122.564 372.544,120.786 410.217,154.131 483.79,160.071 
	490.516,180.426 551.626,188.886 616.949,237.909 615.272,427.024 632.437,427.394 617.56,311.665 659.993,237.026 688.542,192.766 
	715.093,185.174 718.626,163.083 757.074,156.67 778.581,117.353 783.498,118.318 801.482,39.999 "/>
<polygon fill-rule="evenodd" clip-rule="evenodd" points="853.982,87.209 896.023,145.874 892.125,185.849 896.007,210.347 
	910.657,236.489 926.74,236.349 926.74,87.209 "/>
<polygon fill-rule="evenodd" clip-rule="evenodd" points="397.424,81.05 412.366,112.552 422.576,111.581 452.442,138.014 
	513.531,142.948 518.85,159.046 559.931,164.733 619.04,209.093 618.977,216.029 623.495,208.083 648.595,169.171 665.016,164.474 
	667.907,146.392 700.719,140.92 718.913,107.656 719.125,107.698 725.245,81.05 "/>
<polygon fill-rule="evenodd" clip-rule="evenodd" points="91.943,85.113 91.943,238.476 178.261,238.838 169.767,195.181 
	215.929,166.225 210.121,137.367 287.474,85.113 "/>
</svg>
