<?xml version="1.0" encoding="utf-8"?>
<!-- Generator: Adobe Illustrator 17.0.0, SVG Export Plug-In . SVG Version: 6.00 Build 0)  -->
<!DOCTYPE svg PUBLIC "-//W3C//DTD SVG 1.1//EN" "http://www.w3.org/Graphics/SVG/1.1/DTD/svg11.dtd">
<svg version="1.1" id="PLANO1" xmlns="http://www.w3.org/2000/svg" xmlns:xlink="http://www.w3.org/1999/xlink" x="0px" y="0px"
	 width="1000px" height="499.999px" viewBox="0 0 1000 499.999" enable-background="new 0 0 1000 499.999" xml:space="preserve">
<g>
	<path fill-rule="evenodd" clip-rule="evenodd" fill="#69181A" d="M227.326,71.188l-14.588,77.584l19.449,61.857l-6.077,14.681
		c0,0-9.118-10.486-9.118,3.144c0,13.631-6.077,38.791-6.077,38.791s6.077,34.599,7.293,41.938
		c1.215,7.338-10.333,82.827-10.333,82.827L175.054,500L50.457,471.692l-9.726-321.87L58.357,34.494l13.981-14.681l150.126-3.144
		L227.326,71.188z"/>
	<path fill-rule="evenodd" clip-rule="evenodd" fill="#AF2B2A" d="M214.098,49.2l-19.796,155.563l9.898,24.663
		c0,0-3.787,19.693-7.165,28.799c-3.38,9.107-4.435,16.39-4.435,16.39l-32.304-11.257l-41.699-23.715L100.264,134.51l16.955-80.628
		l42.213-15.086L214.098,49.2z"/>
	<path fill-rule="evenodd" clip-rule="evenodd" fill="#B2422C" d="M214.098,49.2l-19.796,155.563l9.898,24.663
		c0,0-3.787,19.693-7.165,28.799c-3.38,9.107-4.435,16.39-4.435,16.39l-25.025-8.719l8.307-34.166l-3.666-44.264
		c0,0,4.583-44.266,13.746-61.657c5.365-10.181,4.131-50.148,2.191-81.546L214.098,49.2z"/>
	<path fill-rule="evenodd" clip-rule="evenodd" fill="#AF2B2A" d="M99.811,60.991l-19.248,88.533l25.663,88.531l-47.658,50.589
		c0,0-1.833-134.377-4.583-150.187c-2.75-15.81,8.249-86.953,8.249-86.953L99.811,60.991z"/>
	<path fill-rule="evenodd" clip-rule="evenodd" fill="#AF2B2A" d="M118.14,277.577l71.485,17.39c0,0,21.997,30.037,16.498,41.104
		c-5.499,11.067-24.744,69.561-26.577,85.372c-1.833,15.81-10.082,55.332-10.082,55.332l-76.069-22.134l20.163-178.646
		C113.557,275.996,119.973,275.996,118.14,277.577z"/>
	<polygon fill-rule="evenodd" clip-rule="evenodd" fill="#AF2B2A" points="99.811,283.901 62.235,315.522 61.318,454.642 
		82.396,448.321 	"/>
	<path fill-rule="evenodd" clip-rule="evenodd" fill="#B2422C" d="M153.883,291.806c0,0,30.246,23.712,21.08,47.427
		c-9.165,23.716-9.165,25.301-11.915,47.431c-1.825,14.681-9.29,57.179-14.114,84.139l20.53,5.973c0,0,8.249-39.522,10.082-55.332
		c1.833-15.81,21.078-74.304,26.577-85.372c5.499-11.067-16.498-41.104-16.498-41.104l-36.069-8.775L153.883,291.806z"/>
	<polygon fill-rule="evenodd" clip-rule="evenodd" fill="#B2422C" points="75.892,304.028 70.577,451.866 82.396,448.321 
		99.811,283.901 	"/>
	<path fill-rule="evenodd" clip-rule="evenodd" fill="#B2422C" d="M79.778,55.932c-5.902,21.12-19.515,72.656-16.626,88.85
		c3.143,17.613,10.995,101.411,13.176,125.008l29.898-31.735l-25.663-88.531L99.46,62.611l-2.525-2.348L79.778,55.932z"/>
</g>
<g>
	<path fill-rule="evenodd" clip-rule="evenodd" fill="#69181A" d="M389.902,38.011l14.588,54.095l-19.449,43.128l6.077,10.237
		c0,0,9.118-7.312,9.118,2.192c0,9.503,6.077,27.046,6.077,27.046s-6.077,24.123-7.293,29.241
		c-1.215,5.117,10.333,57.748,10.333,57.748l32.822,75.294l124.597-19.738l9.727-224.416l-17.627-80.411L544.89,2.192L394.764,0
		L389.902,38.011z"/>
	<path fill-rule="evenodd" clip-rule="evenodd" fill="#AF2B2A" d="M403.13,22.682l19.796,108.464l-9.898,17.194
		c0,0,3.787,13.73,7.166,20.08c3.38,6.348,4.435,11.428,4.435,11.428l32.304-7.85l41.699-16.534l18.33-73.302l-16.955-56.217
		l-42.213-10.518L403.13,22.682z"/>
	<path fill-rule="evenodd" clip-rule="evenodd" fill="#B2422C" d="M403.13,22.682l19.796,108.464l-9.898,17.194
		c0,0,3.787,13.73,7.166,20.08c3.38,6.348,4.435,11.428,4.435,11.428l25.026-6.079l-8.307-23.822l3.666-30.862
		c0,0-4.583-30.863-13.745-42.989c-5.365-7.1-4.132-34.965-2.191-56.857L403.13,22.682z"/>
	<path fill-rule="evenodd" clip-rule="evenodd" fill="#AF2B2A" d="M517.418,30.902l19.247,61.728l-25.663,61.726l47.658,35.273
		c0,0,1.833-93.691,4.583-104.715s-8.249-60.626-8.249-60.626L517.418,30.902z"/>
	<path fill-rule="evenodd" clip-rule="evenodd" fill="#AF2B2A" d="M499.088,181.913l-71.485,12.125c0,0-21.997,20.942-16.498,28.658
		c5.499,7.716,24.744,48.501,26.577,59.524c1.833,11.023,10.082,38.578,10.082,38.578l76.069-15.432L503.671,180.81
		C503.671,180.81,497.255,180.81,499.088,181.913z"/>
	<polygon fill-rule="evenodd" clip-rule="evenodd" fill="#AF2B2A" points="517.418,186.322 554.993,208.368 555.91,305.367 
		534.832,300.96 	"/>
	<path fill-rule="evenodd" clip-rule="evenodd" fill="#B2422C" d="M463.345,191.834c0,0-30.246,16.532-21.08,33.068
		c9.165,16.534,9.165,17.64,11.915,33.07c1.825,10.235,9.29,39.867,14.114,58.664l-20.53,4.163c0,0-8.249-27.555-10.082-38.578
		c-1.833-11.023-21.078-51.808-26.577-59.524c-5.5-7.716,16.498-28.658,16.498-28.658l36.068-6.12L463.345,191.834z"/>
	<polygon fill-rule="evenodd" clip-rule="evenodd" fill="#B2422C" points="541.336,200.354 546.651,303.432 534.832,300.96 
		517.418,186.322 	"/>
	<path fill-rule="evenodd" clip-rule="evenodd" fill="#B2422C" d="M537.45,27.375c5.902,14.725,19.516,50.658,16.627,61.948
		c-3.143,12.281-10.995,70.707-13.177,87.159l-29.898-22.127l25.663-61.726l-18.896-60.598l2.525-1.637L537.45,27.375z"/>
</g>
<g>
	<path fill-rule="evenodd" clip-rule="evenodd" fill="#69181A" d="M928.114,235.753l-16.297,47.81l21.728,38.118l-6.789,9.047
		c0,0-10.186-6.462-10.186,1.937c0,8.4-6.789,23.904-6.789,23.904s6.789,21.321,8.147,25.844
		c1.358,4.523-11.545,51.039-11.545,51.039L869.717,500l-139.199-17.444L719.651,284.21l19.691-71.068l15.62-9.047l167.718-1.937
		L928.114,235.753z"/>
	<path fill-rule="evenodd" clip-rule="evenodd" fill="#AF2B2A" d="M913.335,222.205l-22.115,95.862l11.056,15.197
		c0,0-4.231,12.136-8.005,17.747c-3.776,5.612-4.955,10.101-4.955,10.101l-36.09-6.938l-46.585-14.614l-20.479-64.786l18.941-49.686
		l47.161-9.296L913.335,222.205z"/>
	<path fill-rule="evenodd" clip-rule="evenodd" fill="#B2422C" d="M913.335,222.205l-22.115,95.862l11.056,15.197
		c0,0-4.231,12.136-8.005,17.747c-3.776,5.612-4.955,10.101-4.955,10.101l-27.958-5.373l9.28-21.054l-4.096-27.278
		c0,0,5.12-27.278,15.358-37.994c5.992-6.274,4.616-30.903,2.448-50.251L913.335,222.205z"/>
	<path fill-rule="evenodd" clip-rule="evenodd" fill="#AF2B2A" d="M785.655,229.471l-21.503,54.556l28.671,54.555l-53.243,31.174
		c0,0-2.048-82.806-5.12-92.549c-3.072-9.743,9.216-53.584,9.216-53.584L785.655,229.471z"/>
	<path fill-rule="evenodd" clip-rule="evenodd" fill="#AF2B2A" d="M806.132,362.937l79.863,10.716c0,0,24.576,18.509,18.431,25.328
		c-6.143,6.821-27.644,42.866-29.692,52.609c-2.048,9.743-11.263,34.098-11.263,34.098l-84.983-13.64l22.524-110.086
		C801.012,361.963,808.18,361.963,806.132,362.937z"/>
	<polygon fill-rule="evenodd" clip-rule="evenodd" fill="#AF2B2A" points="785.655,366.834 743.676,386.319 742.652,472.049 
		766.2,468.154 	"/>
	<path fill-rule="evenodd" clip-rule="evenodd" fill="#B2422C" d="M846.064,371.706c0,0,33.791,14.612,23.55,29.226
		c-10.239,14.614-10.239,15.59-13.311,29.229c-2.039,9.046-10.378,35.235-15.768,51.848l22.936,3.68c0,0,9.215-24.355,11.263-34.098
		c2.048-9.743,23.549-45.788,29.692-52.609c6.144-6.82-18.431-25.328-18.431-25.328l-40.296-5.408L846.064,371.706z"/>
	<polygon fill-rule="evenodd" clip-rule="evenodd" fill="#B2422C" points="758.933,379.237 752.996,470.339 766.2,468.154 
		785.655,366.834 	"/>
	<path fill-rule="evenodd" clip-rule="evenodd" fill="#B2422C" d="M763.274,226.353c-6.594,13.014-21.802,44.772-18.574,54.751
		c3.51,10.855,12.283,62.494,14.72,77.034l33.403-19.556l-28.671-54.555l21.111-53.559l-2.822-1.447L763.274,226.353z"/>
</g>
</svg>
