<?xml version="1.0" encoding="utf-8"?>
<!-- Generator: Adobe Illustrator 17.0.0, SVG Export Plug-In . SVG Version: 6.00 Build 0)  -->
<!DOCTYPE svg PUBLIC "-//W3C//DTD SVG 1.1//EN" "http://www.w3.org/Graphics/SVG/1.1/DTD/svg11.dtd">
<svg version="1.1" id="PLANO0" xmlns="http://www.w3.org/2000/svg" xmlns:xlink="http://www.w3.org/1999/xlink" x="0px" y="0px"
	 width="1000.001px" height="500px" viewBox="0 0 1000.001 500" enable-background="new 0 0 1000.001 500" xml:space="preserve">
<rect x="128.155" y="73.721" opacity="0.6" fill-rule="evenodd" clip-rule="evenodd" fill="#FFFFFF" width="6.312" height="426.279"/>
<rect x="113.909" y="95.078" opacity="0.6" fill-rule="evenodd" clip-rule="evenodd" fill="#FFFFFF" width="5.13" height="404.922"/>
<rect x="90.231" y="65.375" opacity="0.6" fill-rule="evenodd" clip-rule="evenodd" fill="#FFFFFF" width="8.754" height="434.625"/>
<rect x="118.182" y="78.242" opacity="0.3" fill-rule="evenodd" clip-rule="evenodd" fill="#FFFFFF" width="9.973" height="421.758"/>
<rect x="73.433" y="53.375" opacity="0.3" fill-rule="evenodd" clip-rule="evenodd" fill="#FFFFFF" width="16.799" height="446.625"/>
<polygon fill-rule="evenodd" clip-rule="evenodd" fill="#121D2B" points="152.111,0 143.424,81.173 136.077,94.2 119.709,97.206 
	102.34,90.193 85.636,87.519 71.605,69.481 64.364,0 "/>
<polygon fill-rule="evenodd" clip-rule="evenodd" fill="#1B3349" points="137.107,0.345 132.403,93.533 130.627,95.203 
	119.709,97.206 114.169,94.969 112.692,57.789 106.347,61.466 102.34,73.823 102.57,90.288 102.34,90.193 88.866,88.035 
	87.376,1.485 "/>
<rect x="429.173" y="73.721" opacity="0.6" fill-rule="evenodd" clip-rule="evenodd" fill="#FFFFFF" width="6.312" height="426.279"/>
<rect x="444.602" y="95.078" opacity="0.6" fill-rule="evenodd" clip-rule="evenodd" fill="#FFFFFF" width="5.13" height="404.922"/>
<rect x="464.655" y="65.375" opacity="0.6" fill-rule="evenodd" clip-rule="evenodd" fill="#FFFFFF" width="8.754" height="434.625"/>
<rect x="435.485" y="78.242" opacity="0.3" fill-rule="evenodd" clip-rule="evenodd" fill="#FFFFFF" width="9.973" height="421.758"/>
<rect x="473.409" y="53.375" opacity="0.3" fill-rule="evenodd" clip-rule="evenodd" fill="#FFFFFF" width="16.799" height="446.625"/>
<polygon fill-rule="evenodd" clip-rule="evenodd" fill="#121D2B" points="411.53,0 420.217,81.173 427.563,94.2 443.931,97.206 
	461.301,90.193 478.005,87.519 492.035,69.481 499.101,0 "/>
<polygon fill-rule="evenodd" clip-rule="evenodd" fill="#1B3349" points="426.534,0.345 431.238,93.533 433.013,95.203 
	443.931,97.206 449.472,94.969 450.948,57.789 457.293,61.466 461.301,73.823 461.07,90.288 461.301,90.193 474.775,88.035 
	476.264,1.485 "/>
<rect x="708.685" y="73.721" opacity="0.6" fill-rule="evenodd" clip-rule="evenodd" fill="#FFFFFF" width="6.312" height="426.279"/>
<rect x="694.438" y="95.078" opacity="0.6" fill-rule="evenodd" clip-rule="evenodd" fill="#FFFFFF" width="5.13" height="404.922"/>
<rect x="670.76" y="65.375" opacity="0.6" fill-rule="evenodd" clip-rule="evenodd" fill="#FFFFFF" width="8.754" height="434.625"/>
<rect x="698.711" y="78.242" opacity="0.3" fill-rule="evenodd" clip-rule="evenodd" fill="#FFFFFF" width="9.973" height="421.758"/>
<rect x="653.962" y="53.375" opacity="0.3" fill-rule="evenodd" clip-rule="evenodd" fill="#FFFFFF" width="16.799" height="446.625"/>
<polygon fill-rule="evenodd" clip-rule="evenodd" fill="#121D2B" points="732.64,0 723.953,81.173 716.606,94.2 700.238,97.206 
	682.869,90.193 666.165,87.519 652.135,69.481 644.96,0 "/>
<polygon fill-rule="evenodd" clip-rule="evenodd" fill="#1B3349" points="717.636,0.345 712.932,93.533 711.156,95.203 
	700.238,97.206 694.698,94.969 693.221,57.789 686.877,61.466 682.869,73.823 683.099,90.288 682.869,90.193 669.395,88.035 
	667.906,1.485 "/>
<rect x="866.733" y="73.721" opacity="0.6" fill-rule="evenodd" clip-rule="evenodd" fill="#FFFFFF" width="6.312" height="426.279"/>
<rect x="882.162" y="95.078" opacity="0.6" fill-rule="evenodd" clip-rule="evenodd" fill="#FFFFFF" width="5.13" height="404.922"/>
<rect x="902.215" y="65.375" opacity="0.6" fill-rule="evenodd" clip-rule="evenodd" fill="#FFFFFF" width="8.755" height="434.625"/>
<rect x="873.045" y="78.242" opacity="0.3" fill-rule="evenodd" clip-rule="evenodd" fill="#FFFFFF" width="9.973" height="421.758"/>
<rect x="910.969" y="53.375" opacity="0.3" fill-rule="evenodd" clip-rule="evenodd" fill="#FFFFFF" width="16.799" height="446.625"/>
<polygon fill-rule="evenodd" clip-rule="evenodd" fill="#121D2B" points="849.09,0 857.777,81.173 865.123,94.2 881.491,97.206 
	898.86,90.193 915.565,87.519 929.595,69.481 936.319,0 "/>
<polygon fill-rule="evenodd" clip-rule="evenodd" fill="#1B3349" points="864.093,0.345 868.798,93.533 870.573,95.203 
	881.491,97.206 887.032,94.969 888.508,57.789 894.853,61.466 898.86,73.823 898.63,90.288 898.86,90.193 912.335,88.035 
	913.824,1.485 "/>
</svg>
