<?xml version="1.0" encoding="utf-8"?>
<!-- Generator: Adobe Illustrator 17.0.0, SVG Export Plug-In . SVG Version: 6.00 Build 0)  -->
<!DOCTYPE svg PUBLIC "-//W3C//DTD SVG 1.1//EN" "http://www.w3.org/Graphics/SVG/1.1/DTD/svg11.dtd">
<svg version="1.1" id="PLANO3" xmlns="http://www.w3.org/2000/svg" xmlns:xlink="http://www.w3.org/1999/xlink" x="0px" y="0px"
	 width="1000px" height="499.999px" viewBox="0 0 1000 499.999" enable-background="new 0 0 1000 499.999" xml:space="preserve">
<rect x="0" y="0" fill-rule="evenodd" clip-rule="evenodd" fill="#DF9736" stroke="#000000" stroke-width="0.2401" stroke-miterlimit="22.9256" width="1000" height="499.999"/>
<g>
	<g>
		<polygon fill-rule="evenodd" clip-rule="evenodd" fill="#D97A2C" points="210.486,238.113 250.601,207.655 296.067,234.514 
			303.272,280.678 277.856,292.897 290.807,302.73 292.587,311.117 269.084,324.594 221.28,324.594 199.373,290.479 
			203.456,271.241 205.271,269.861 221.498,279.448 217.457,253.548 208.353,248.169 		"/>
		<polygon fill-rule="evenodd" clip-rule="evenodd" fill="#DF9736" points="53.237,269.091 93.352,238.633 138.82,265.494 
			149.507,333.973 111.835,355.572 64.031,355.572 42.124,321.457 		"/>
		<polygon fill-rule="evenodd" clip-rule="evenodd" fill="#DF9736" points="53.237,269.091 93.352,238.633 138.82,265.494 
			142.862,291.395 126.633,281.808 86.519,312.267 99.469,302.432 68.166,287.383 46.517,300.762 		"/>
		<polygon fill-rule="evenodd" clip-rule="evenodd" fill="#D97A2C" points="86.519,312.267 126.633,281.808 172.101,308.667 
			182.788,377.147 145.117,398.746 97.312,398.746 75.405,364.632 		"/>
		<polygon fill-rule="evenodd" clip-rule="evenodd" fill="#E9CB3C" points="28.051,312.173 68.166,287.383 99.469,302.432 
			86.519,312.267 75.405,364.632 86.854,382.46 86.649,382.555 38.845,382.555 16.938,354.791 		"/>
		<polygon fill-rule="evenodd" clip-rule="evenodd" fill="#E9CB3C" points="94.614,361.644 134.729,336.853 166.031,351.903 
			153.081,361.737 141.967,414.103 153.416,431.931 153.212,432.025 105.406,432.025 83.501,404.261 		"/>
		<polygon fill-rule="evenodd" clip-rule="evenodd" fill="#D97A2C" points="131.849,250.059 171.964,219.601 217.431,246.461 
			224.634,292.624 199.219,304.843 212.17,314.677 213.95,323.063 190.447,336.539 142.642,336.539 120.736,302.424 
			124.818,283.187 126.633,281.808 142.862,291.395 138.82,265.494 129.716,260.115 		"/>
		<polygon fill-rule="evenodd" clip-rule="evenodd" fill="#DF9736" points="141.493,320.465 181.608,290.006 227.075,316.866 
			237.762,385.345 200.092,406.944 152.287,406.944 130.38,372.83 134.463,353.591 136.278,352.212 152.507,361.8 148.464,335.898 
			139.36,330.52 		"/>
		<polygon fill-rule="evenodd" clip-rule="evenodd" fill="#E9CB3C" points="270.637,314.582 230.523,289.794 199.219,304.843 
			212.17,314.677 223.283,367.041 211.836,384.871 212.039,384.966 259.844,384.966 281.751,357.202 		"/>
		<polygon fill-rule="evenodd" clip-rule="evenodd" fill="#D97A2C" points="129.542,389.969 169.657,359.51 215.124,386.37 
			222.327,432.532 196.912,444.752 209.863,454.586 211.643,462.972 188.14,476.448 140.335,476.448 118.429,442.333 
			122.511,423.095 124.327,421.717 140.555,431.304 136.513,405.402 127.409,400.024 		"/>
		<polygon fill-rule="evenodd" clip-rule="evenodd" fill="#E9CB3C" points="207.045,367.941 247.16,343.151 278.463,358.201 
			265.512,368.035 254.399,420.4 265.847,438.229 265.643,438.323 217.839,438.323 195.932,410.559 		"/>
		<polygon fill-rule="evenodd" clip-rule="evenodd" fill="#D97A2C" points="311.845,350.118 337.603,365.335 348.29,433.814 
			310.62,455.414 262.815,455.414 248.44,433.028 283.742,433.028 321.414,411.43 		"/>
		<path fill-rule="evenodd" clip-rule="evenodd" fill="#D97A2C" d="M245.182,303.128l40.115-30.458l45.467,26.86l7.204,46.163
			l-24.94,11.992l-2.3-14.734l-45.468-26.86l-12.064,9.16l-1.043-6.689l-9.104-5.378L245.182,303.128L245.182,303.128z
			 M313.131,358.351l12.372,9.395l1.78,8.387l-10.443,5.988L313.131,358.351L313.131,358.351z M238.045,336.753l0.105-0.499
			l1.815-1.378l0.309,0.184L238.045,336.753z"/>
		<polygon fill-rule="evenodd" clip-rule="evenodd" fill="#DF9736" points="225.145,346.549 265.26,316.091 310.727,342.95 
			321.414,411.43 283.742,433.028 235.938,433.028 214.031,398.915 218.115,379.675 219.93,378.297 236.157,387.884 
			232.115,361.982 223.011,356.605 		"/>
		<polygon fill-rule="evenodd" clip-rule="evenodd" fill="#E9CB3C" points="363.595,303.179 323.481,278.39 292.177,293.439 
			305.128,303.272 316.24,355.638 304.793,373.467 304.996,373.562 352.802,373.562 374.709,345.798 		"/>
		<polygon fill-rule="evenodd" clip-rule="evenodd" fill="#DF9736" points="113.588,288.254 137.134,264.271 163.825,285.421 
			170.099,339.342 147.987,356.35 119.924,356.35 107.065,329.488 109.461,314.34 110.526,313.254 120.052,320.802 117.679,300.407 
			112.335,296.173 		"/>
		<polygon fill-rule="evenodd" clip-rule="evenodd" fill="#E9CB3C" points="152.474,408.117 265.193,383.327 353.151,398.377 
			316.761,408.21 285.534,460.575 317.703,478.404 317.13,478.5 182.803,478.5 121.247,450.735 		"/>
		<polygon fill-rule="evenodd" clip-rule="evenodd" fill="#E9CB3C" points="49.513,400.619 133.149,375.83 198.412,390.88 
			171.411,400.712 148.242,453.078 172.109,470.906 171.685,471.002 72.017,471.002 26.344,443.238 		"/>
		<polygon fill-rule="evenodd" clip-rule="evenodd" fill="#D97A2C" points="277.955,388.469 318.07,358.01 363.538,384.871 
			370.741,431.033 345.326,443.253 358.276,453.086 360.056,461.473 336.553,474.949 288.749,474.949 266.842,440.834 
			270.925,421.596 272.74,420.218 288.967,429.804 284.926,403.903 275.822,398.525 		"/>
		<polygon fill-rule="evenodd" clip-rule="evenodd" fill="#D97A2C" points="11.113,382.472 51.228,352.014 96.696,378.874 
			103.899,425.037 78.484,437.257 91.435,447.089 93.214,455.476 69.711,468.952 21.907,468.952 0,434.838 4.083,415.599 
			5.898,414.22 22.126,423.808 18.084,397.906 8.98,392.528 		"/>
	</g>
	<g>
		<polygon fill-rule="evenodd" clip-rule="evenodd" fill="#D97A2C" points="465.881,235.357 425.766,204.898 380.299,231.758 
			373.094,277.921 398.51,290.141 385.56,299.974 383.78,308.36 407.282,321.837 455.086,321.837 476.993,287.722 472.91,268.484 
			471.095,267.104 454.868,276.692 458.91,250.791 468.013,245.412 		"/>
		<polygon fill-rule="evenodd" clip-rule="evenodd" fill="#DF9736" points="623.129,266.334 583.014,235.876 537.546,262.737 
			526.86,331.216 564.531,352.815 612.335,352.815 634.242,318.7 		"/>
		<polygon fill-rule="evenodd" clip-rule="evenodd" fill="#DF9736" points="623.129,266.334 583.014,235.876 537.546,262.737 
			533.504,288.639 549.733,279.052 589.846,309.51 576.897,299.676 608.2,284.626 629.849,298.006 		"/>
		<polygon fill-rule="evenodd" clip-rule="evenodd" fill="#D97A2C" points="589.846,309.51 549.733,279.052 504.265,305.911 
			493.578,374.39 531.249,395.989 579.054,395.989 600.961,361.875 		"/>
		<polygon fill-rule="evenodd" clip-rule="evenodd" fill="#E9CB3C" points="648.315,309.417 608.2,284.626 576.897,299.676 
			589.846,309.51 600.961,361.875 589.512,379.704 589.717,379.798 637.521,379.798 659.428,352.034 		"/>
		<polygon fill-rule="evenodd" clip-rule="evenodd" fill="#E9CB3C" points="581.753,358.887 541.638,334.097 510.335,349.146 
			523.286,358.98 534.398,411.346 522.95,429.175 523.154,429.269 570.96,429.269 592.866,401.505 		"/>
		<polygon fill-rule="evenodd" clip-rule="evenodd" fill="#D97A2C" points="544.517,247.302 504.402,216.844 458.936,243.704 
			451.732,289.867 477.147,302.087 464.196,311.92 462.416,320.306 485.919,333.782 533.724,333.782 555.63,299.667 551.548,280.43 
			549.733,279.052 533.504,288.639 537.546,262.737 546.65,257.358 		"/>
		<polygon fill-rule="evenodd" clip-rule="evenodd" fill="#DF9736" points="534.874,317.708 494.758,287.249 449.291,314.109 
			438.604,382.588 476.274,404.187 524.079,404.187 545.986,370.073 541.903,350.834 540.088,349.456 523.86,359.043 
			527.903,333.141 537.006,327.764 		"/>
		<polygon fill-rule="evenodd" clip-rule="evenodd" fill="#E9CB3C" points="405.729,311.826 445.843,287.037 477.147,302.087 
			464.196,311.92 453.083,364.285 464.531,382.115 464.327,382.209 416.522,382.209 394.615,354.445 		"/>
		<polygon fill-rule="evenodd" clip-rule="evenodd" fill="#D97A2C" points="546.824,387.212 506.709,356.753 461.242,383.613 
			454.038,429.775 479.453,441.995 466.503,451.829 464.723,460.215 488.226,473.691 536.031,473.691 557.937,439.576 
			553.855,420.339 552.039,418.96 535.811,428.547 539.853,402.646 548.957,397.267 		"/>
		<polygon fill-rule="evenodd" clip-rule="evenodd" fill="#E9CB3C" points="469.321,365.185 429.206,340.395 397.903,355.444 
			410.854,365.278 421.967,417.643 410.518,435.472 410.723,435.567 458.527,435.567 480.434,407.802 		"/>
		<polygon fill-rule="evenodd" clip-rule="evenodd" fill="#D97A2C" points="364.52,347.362 338.763,362.578 328.076,431.057 
			365.746,452.657 413.552,452.657 427.926,430.272 392.624,430.272 354.953,408.673 		"/>
		<path fill-rule="evenodd" clip-rule="evenodd" fill="#D97A2C" d="M431.184,300.372l-40.115-30.458l-45.466,26.86l-7.204,46.163
			l24.94,11.992l2.3-14.734l45.468-26.86l12.064,9.16l1.043-6.689l9.104-5.378L431.184,300.372L431.184,300.372z M363.235,355.594
			l-12.372,9.395l-1.78,8.387l10.443,5.988L363.235,355.594L363.235,355.594z M438.321,333.996l-0.105-0.498l-1.815-1.378
			l-0.31,0.184L438.321,333.996z"/>
		<polygon fill-rule="evenodd" clip-rule="evenodd" fill="#DF9736" points="451.222,343.792 411.107,313.334 365.639,340.194 
			354.953,408.673 392.624,430.272 440.428,430.272 462.335,396.158 458.252,376.919 456.436,375.54 440.209,385.127 
			444.251,359.226 453.355,353.848 		"/>
		<polygon fill-rule="evenodd" clip-rule="evenodd" fill="#E9CB3C" points="312.772,300.422 352.885,275.633 384.189,290.683 
			371.238,300.516 360.125,352.881 371.573,370.71 371.37,370.805 323.565,370.805 301.658,343.041 		"/>
		<polygon fill-rule="evenodd" clip-rule="evenodd" fill="#DF9736" points="562.778,285.498 539.231,261.514 512.54,282.664 
			506.267,336.585 528.381,353.593 556.443,353.593 569.301,326.732 566.905,311.582 565.839,310.497 556.314,318.046 
			558.687,297.65 564.03,293.416 		"/>
		<polygon fill-rule="evenodd" clip-rule="evenodd" fill="#E9CB3C" points="523.891,405.36 411.173,380.571 323.215,395.62 
			359.605,405.453 390.832,457.818 358.663,475.647 359.236,475.743 493.563,475.743 555.119,447.979 		"/>
		<polygon fill-rule="evenodd" clip-rule="evenodd" fill="#E9CB3C" points="626.853,397.862 543.218,373.073 477.953,388.123 
			504.955,397.955 528.124,450.321 504.257,468.15 504.682,468.245 604.349,468.245 650.023,440.481 		"/>
		<polygon fill-rule="evenodd" clip-rule="evenodd" fill="#D97A2C" points="398.411,385.712 358.296,355.254 312.828,382.115 
			305.625,428.277 331.04,440.496 318.09,450.329 316.31,458.716 339.813,472.193 387.617,472.193 409.524,438.078 405.441,418.84 
			403.625,417.461 387.398,427.047 391.44,401.147 400.544,395.768 		"/>
		<polygon fill-rule="evenodd" clip-rule="evenodd" fill="#D97A2C" points="665.253,379.716 625.138,349.257 579.67,376.117 
			572.467,422.28 597.881,434.5 584.931,444.333 583.152,452.72 606.655,466.195 654.459,466.195 676.366,432.081 672.283,412.842 
			670.467,411.464 654.24,421.051 658.282,395.149 667.386,389.772 		"/>
	</g>
	<g>
		<polygon fill-rule="evenodd" clip-rule="evenodd" fill="#D97A2C" points="835.777,225.357 875.892,194.899 921.359,221.759 
			928.563,267.922 903.147,280.142 916.098,289.974 917.878,298.361 894.375,311.838 846.571,311.838 824.664,277.723 
			828.747,258.485 830.563,257.105 846.79,266.692 842.748,240.792 833.644,235.413 		"/>
		<polygon fill-rule="evenodd" clip-rule="evenodd" fill="#DF9736" points="678.529,256.335 718.644,225.877 764.111,252.738 
			774.798,321.217 737.127,342.816 689.323,342.816 667.416,308.701 		"/>
		<polygon fill-rule="evenodd" clip-rule="evenodd" fill="#DF9736" points="678.529,256.335 718.644,225.877 764.111,252.738 
			768.153,278.639 751.924,269.052 711.811,299.51 724.76,289.677 693.458,274.627 671.808,288.007 		"/>
		<polygon fill-rule="evenodd" clip-rule="evenodd" fill="#D97A2C" points="711.811,299.51 751.924,269.052 797.392,295.912 
			808.079,364.391 770.409,385.99 722.604,385.99 700.697,351.876 		"/>
		<polygon fill-rule="evenodd" clip-rule="evenodd" fill="#E9CB3C" points="653.343,299.417 693.458,274.627 724.76,289.677 
			711.811,299.51 700.697,351.876 712.145,369.705 711.941,369.799 664.137,369.799 642.23,342.035 		"/>
		<polygon fill-rule="evenodd" clip-rule="evenodd" fill="#E9CB3C" points="719.905,348.888 760.02,324.097 791.323,339.147 
			778.372,348.981 767.259,401.346 778.707,419.175 778.503,419.27 730.698,419.27 708.792,391.505 		"/>
		<polygon fill-rule="evenodd" clip-rule="evenodd" fill="#D97A2C" points="757.14,237.303 797.255,206.845 842.722,233.705 
			849.925,279.867 824.51,292.087 837.461,301.921 839.241,310.307 815.739,323.783 767.933,323.783 746.027,289.668 
			750.109,270.431 751.924,269.052 768.153,278.639 764.111,252.738 755.007,247.359 		"/>
		<polygon fill-rule="evenodd" clip-rule="evenodd" fill="#DF9736" points="766.784,307.709 806.899,277.25 852.367,304.11 
			863.053,372.589 825.383,394.188 777.578,394.188 755.671,360.074 759.754,340.835 761.57,339.457 777.798,349.044 
			773.755,323.142 764.651,317.764 		"/>
		<polygon fill-rule="evenodd" clip-rule="evenodd" fill="#E9CB3C" points="895.928,301.827 855.815,277.038 824.51,292.087 
			837.461,301.921 848.575,354.285 837.127,372.115 837.33,372.21 885.135,372.21 907.043,344.446 		"/>
		<polygon fill-rule="evenodd" clip-rule="evenodd" fill="#D97A2C" points="754.834,377.213 794.949,346.753 840.415,373.614 
			847.619,419.776 822.204,431.996 835.155,441.83 836.935,450.216 813.432,463.692 765.627,463.692 743.721,429.577 
			747.803,410.339 749.618,408.961 765.846,418.548 761.805,392.646 752.701,387.267 		"/>
		<polygon fill-rule="evenodd" clip-rule="evenodd" fill="#E9CB3C" points="832.337,355.185 872.452,330.395 903.754,345.445 
			890.803,355.279 879.69,407.644 891.139,425.473 890.935,425.568 843.131,425.568 821.224,397.803 		"/>
		<polygon fill-rule="evenodd" clip-rule="evenodd" fill="#D97A2C" points="937.137,337.362 962.895,352.579 973.581,421.058 
			935.911,442.658 888.106,442.658 873.732,420.273 909.034,420.273 946.705,398.674 		"/>
		<path fill-rule="evenodd" clip-rule="evenodd" fill="#D97A2C" d="M870.473,290.372l40.115-30.458l45.466,26.86l7.204,46.163
			l-24.94,11.992l-2.3-14.734l-45.468-26.86l-12.064,9.16l-1.043-6.689l-9.104-5.378L870.473,290.372L870.473,290.372z
			 M938.422,345.595l12.372,9.394l1.78,8.387l-10.443,5.988L938.422,345.595L938.422,345.595z M863.337,323.997l0.105-0.498
			l1.815-1.378l0.31,0.184L863.337,323.997z"/>
		<polygon fill-rule="evenodd" clip-rule="evenodd" fill="#DF9736" points="850.436,333.793 890.551,303.335 936.018,330.195 
			946.705,398.674 909.034,420.273 861.23,420.273 839.323,386.159 843.406,366.92 845.221,365.541 861.448,375.128 
			857.407,349.227 848.303,343.849 		"/>
		<polygon fill-rule="evenodd" clip-rule="evenodd" fill="#E9CB3C" points="988.886,290.423 948.772,265.634 917.468,280.684 
			930.419,290.517 941.532,342.882 930.085,360.71 930.288,360.806 978.093,360.806 1000,333.042 		"/>
		<polygon fill-rule="evenodd" clip-rule="evenodd" fill="#DF9736" points="738.88,275.499 762.427,251.515 789.117,272.665 
			795.39,326.586 773.277,343.594 745.215,343.594 732.356,316.732 734.753,301.583 735.818,300.498 745.344,308.046 
			742.971,287.651 737.627,283.417 		"/>
		<polygon fill-rule="evenodd" clip-rule="evenodd" fill="#E9CB3C" points="777.766,395.36 890.485,370.572 978.443,385.621 
			942.053,395.454 910.826,447.819 942.994,465.648 942.421,465.744 808.095,465.744 746.539,437.98 		"/>
		<polygon fill-rule="evenodd" clip-rule="evenodd" fill="#E9CB3C" points="674.804,387.863 758.44,363.074 823.704,378.124 
			796.703,387.956 773.533,440.322 797.401,458.15 796.975,458.246 697.308,458.246 651.635,430.482 		"/>
		<polygon fill-rule="evenodd" clip-rule="evenodd" fill="#D97A2C" points="903.246,375.713 943.361,345.255 988.829,372.115 
			996.033,418.277 970.618,430.497 983.568,440.33 985.347,448.717 961.845,462.193 914.041,462.193 892.133,428.078 
			896.217,408.84 898.032,407.462 914.259,417.048 910.218,391.147 901.113,385.769 		"/>
		<polygon fill-rule="evenodd" clip-rule="evenodd" fill="#D97A2C" points="636.404,369.717 676.519,339.258 721.987,366.117 
			729.191,412.281 703.776,424.501 716.727,434.333 718.505,442.72 695.003,456.196 647.199,456.196 625.292,422.082 
			629.374,402.843 631.19,401.465 647.417,411.052 643.375,385.15 634.271,379.772 		"/>
	</g>
	<g>
		<polygon fill-rule="evenodd" clip-rule="evenodd" fill="#D97A2C" points="210.486,240.387 250.601,270.845 296.067,243.986 
			303.272,197.822 277.856,185.603 290.807,175.77 292.587,167.383 269.084,153.906 221.28,153.906 199.373,188.021 
			203.456,207.259 205.271,208.639 221.498,199.052 217.457,224.952 208.353,230.331 		"/>
		<polygon fill-rule="evenodd" clip-rule="evenodd" fill="#DF9736" points="53.237,209.409 93.352,239.867 138.82,213.007 
			149.507,144.527 111.835,122.929 64.031,122.929 42.124,157.044 		"/>
		<polygon fill-rule="evenodd" clip-rule="evenodd" fill="#DF9736" points="53.237,209.409 93.352,239.867 138.82,213.007 
			142.862,187.105 126.633,196.692 86.519,166.234 99.469,176.067 68.166,191.117 46.517,177.738 		"/>
		<polygon fill-rule="evenodd" clip-rule="evenodd" fill="#D97A2C" points="86.519,166.234 126.633,196.692 172.101,169.832 
			182.788,101.353 145.117,79.754 97.312,79.754 75.405,113.868 		"/>
		<polygon fill-rule="evenodd" clip-rule="evenodd" fill="#E9CB3C" points="28.051,166.327 68.166,191.117 99.469,176.067 
			86.519,166.234 75.405,113.868 86.854,96.039 86.649,95.945 38.845,95.945 16.938,123.709 		"/>
		<polygon fill-rule="evenodd" clip-rule="evenodd" fill="#E9CB3C" points="94.614,116.856 134.729,141.646 166.031,126.597 
			153.081,116.763 141.967,64.398 153.416,46.569 153.212,46.474 105.406,46.474 83.501,74.238 		"/>
		<polygon fill-rule="evenodd" clip-rule="evenodd" fill="#D97A2C" points="131.849,228.441 171.964,258.899 217.431,232.039 
			224.634,185.876 199.219,173.657 212.17,163.823 213.95,155.437 190.447,141.961 142.642,141.961 120.736,176.076 
			124.818,195.314 126.633,196.692 142.862,187.105 138.82,213.007 129.716,218.385 		"/>
		<polygon fill-rule="evenodd" clip-rule="evenodd" fill="#DF9736" points="141.493,158.036 181.608,188.494 227.075,161.634 
			237.762,93.155 200.092,71.556 152.287,71.556 130.38,105.67 134.463,124.909 136.278,126.288 152.507,116.701 148.464,142.602 
			139.36,147.98 		"/>
		<polygon fill-rule="evenodd" clip-rule="evenodd" fill="#E9CB3C" points="270.637,163.917 230.523,188.706 199.219,173.657 
			212.17,163.823 223.283,111.459 211.836,93.629 212.039,93.534 259.844,93.534 281.751,121.299 		"/>
		<polygon fill-rule="evenodd" clip-rule="evenodd" fill="#D97A2C" points="129.542,88.531 169.657,118.991 215.124,92.13 
			222.327,45.968 196.912,33.748 209.863,23.914 211.643,15.528 188.14,2.052 140.335,2.052 118.429,36.167 122.511,55.405 
			124.327,56.783 140.555,47.196 136.513,73.098 127.409,78.476 		"/>
		<polygon fill-rule="evenodd" clip-rule="evenodd" fill="#E9CB3C" points="207.045,110.559 247.16,135.349 278.463,120.299 
			265.512,110.466 254.399,58.1 265.847,40.271 265.643,40.177 217.839,40.177 195.932,67.941 		"/>
		<polygon fill-rule="evenodd" clip-rule="evenodd" fill="#D97A2C" points="311.845,128.381 337.603,113.166 348.29,44.686 
			310.62,23.086 262.815,23.086 248.44,45.472 283.742,45.472 321.414,67.071 		"/>
		<path fill-rule="evenodd" clip-rule="evenodd" fill="#D97A2C" d="M245.182,175.372l40.115,30.458l45.467-26.86l7.204-46.163
			l-24.94-11.992l-2.3,14.734l-45.468,26.86l-12.064-9.16l-1.043,6.689l-9.104,5.378L245.182,175.372L245.182,175.372z
			 M313.131,120.149l12.372-9.395l1.78-8.387l-10.443-5.988L313.131,120.149L313.131,120.149z M238.045,141.747l0.105,0.499
			l1.815,1.378l0.309-0.185L238.045,141.747z"/>
		<polygon fill-rule="evenodd" clip-rule="evenodd" fill="#DF9736" points="225.145,131.951 265.26,162.409 310.727,135.55 
			321.414,67.071 283.742,45.472 235.938,45.472 214.031,79.586 218.115,98.824 219.93,100.203 236.157,90.616 232.115,116.517 
			223.011,121.895 		"/>
		<polygon fill-rule="evenodd" clip-rule="evenodd" fill="#E9CB3C" points="363.595,175.321 323.481,200.11 292.177,185.06 
			305.128,175.228 316.24,122.862 304.793,105.033 304.996,104.938 352.802,104.938 374.709,132.702 		"/>
		<polygon fill-rule="evenodd" clip-rule="evenodd" fill="#DF9736" points="113.588,190.246 137.136,214.229 163.826,193.079 
			170.099,139.158 147.985,122.15 119.924,122.15 107.065,149.012 109.461,164.161 110.526,165.246 120.052,157.698 
			117.679,178.093 112.336,182.327 		"/>
		<polygon fill-rule="evenodd" clip-rule="evenodd" fill="#E9CB3C" points="152.474,70.383 265.193,95.173 353.151,80.123 
			316.761,70.29 285.534,17.925 317.703,0.096 317.13,0 182.803,0 121.247,27.765 		"/>
		<polygon fill-rule="evenodd" clip-rule="evenodd" fill="#E9CB3C" points="49.513,77.881 133.148,102.67 198.412,87.621 
			171.411,77.788 148.242,25.423 172.109,7.594 171.684,7.498 72.017,7.498 26.344,35.262 		"/>
		<polygon fill-rule="evenodd" clip-rule="evenodd" fill="#D97A2C" points="277.955,90.031 318.07,120.489 363.538,93.629 
			370.741,47.467 345.326,35.247 358.276,25.414 360.056,17.027 336.553,3.551 288.749,3.551 266.842,37.666 270.925,56.903 
			272.74,58.282 288.967,48.696 284.926,74.596 275.822,79.975 		"/>
		<polygon fill-rule="evenodd" clip-rule="evenodd" fill="#D97A2C" points="11.113,96.028 51.228,126.486 96.696,99.626 
			103.899,53.463 78.484,41.243 91.435,31.411 93.214,23.024 69.711,9.548 21.907,9.548 0,43.662 4.083,62.901 5.898,64.28 
			22.126,54.693 18.084,80.594 8.98,85.972 		"/>
	</g>
	<g>
		<polygon fill-rule="evenodd" clip-rule="evenodd" fill="#D97A2C" points="465.881,243.144 425.766,273.602 380.299,246.742 
			373.094,200.579 398.51,188.359 385.56,178.526 383.78,170.139 407.282,156.663 455.086,156.663 476.993,190.778 472.91,210.016 
			471.095,211.396 454.868,201.809 458.91,227.709 468.013,233.088 		"/>
		<polygon fill-rule="evenodd" clip-rule="evenodd" fill="#DF9736" points="623.129,212.166 583.014,242.624 537.546,215.763 
			526.86,147.284 564.531,125.685 612.335,125.685 634.242,159.8 		"/>
		<polygon fill-rule="evenodd" clip-rule="evenodd" fill="#DF9736" points="623.129,212.166 583.014,242.624 537.546,215.763 
			533.504,189.861 549.733,199.449 589.846,168.99 576.897,178.824 608.2,193.874 629.849,180.494 		"/>
		<polygon fill-rule="evenodd" clip-rule="evenodd" fill="#D97A2C" points="589.846,168.99 549.733,199.449 504.265,172.589 
			493.578,104.11 531.249,82.511 579.054,82.511 600.961,116.625 		"/>
		<polygon fill-rule="evenodd" clip-rule="evenodd" fill="#E9CB3C" points="648.315,169.084 608.2,193.874 576.897,178.824 
			589.846,168.99 600.961,116.625 589.512,98.796 589.717,98.702 637.521,98.702 659.428,126.466 		"/>
		<polygon fill-rule="evenodd" clip-rule="evenodd" fill="#E9CB3C" points="581.753,119.613 541.638,144.403 510.335,129.354 
			523.286,119.52 534.398,67.154 522.95,49.326 523.154,49.231 570.96,49.231 592.866,76.996 		"/>
		<polygon fill-rule="evenodd" clip-rule="evenodd" fill="#D97A2C" points="544.517,231.198 504.402,261.656 458.936,234.796 
			451.732,188.633 477.147,176.414 464.196,166.58 462.416,158.194 485.919,144.717 533.724,144.717 555.63,178.832 551.548,198.07 
			549.733,199.449 533.504,189.861 537.546,215.763 546.65,221.142 		"/>
		<polygon fill-rule="evenodd" clip-rule="evenodd" fill="#DF9736" points="534.874,160.792 494.758,191.251 449.291,164.391 
			438.604,95.912 476.274,74.313 524.079,74.313 545.986,108.427 541.903,127.666 540.088,129.044 523.86,119.457 527.903,145.359 
			537.006,150.736 		"/>
		<polygon fill-rule="evenodd" clip-rule="evenodd" fill="#E9CB3C" points="405.729,166.674 445.843,191.463 477.147,176.414 
			464.196,166.58 453.083,114.216 464.531,96.386 464.327,96.291 416.522,96.291 394.615,124.055 		"/>
		<polygon fill-rule="evenodd" clip-rule="evenodd" fill="#D97A2C" points="546.824,91.288 506.709,121.747 461.242,94.887 
			454.038,48.724 479.453,36.505 466.503,26.671 464.723,18.285 488.226,4.809 536.031,4.809 557.937,38.924 553.855,58.161 
			552.039,59.54 535.811,49.953 539.853,75.854 548.957,81.233 		"/>
		<polygon fill-rule="evenodd" clip-rule="evenodd" fill="#E9CB3C" points="469.321,113.316 429.206,138.106 397.903,123.056 
			410.854,113.222 421.967,60.857 410.518,43.028 410.723,42.933 458.527,42.933 480.434,70.698 		"/>
		<polygon fill-rule="evenodd" clip-rule="evenodd" fill="#D97A2C" points="364.52,131.139 338.763,115.922 328.076,47.443 
			365.746,25.843 413.552,25.843 427.926,48.228 392.624,48.228 354.953,69.827 		"/>
		<path fill-rule="evenodd" clip-rule="evenodd" fill="#D97A2C" d="M431.184,178.129l-40.115,30.458l-45.466-26.86l-7.204-46.163
			l24.94-11.992l2.3,14.734l45.468,26.86l12.064-9.16l1.043,6.689l9.104,5.378L431.184,178.129L431.184,178.129z M363.235,122.906
			l-12.372-9.395l-1.78-8.387l10.443-5.988L363.235,122.906L363.235,122.906z M438.321,144.504l-0.105,0.499l-1.815,1.378
			l-0.31-0.185L438.321,144.504z"/>
		<polygon fill-rule="evenodd" clip-rule="evenodd" fill="#DF9736" points="451.222,134.708 411.107,165.166 365.639,138.306 
			354.953,69.827 392.624,48.228 440.428,48.228 462.335,82.342 458.252,101.581 456.436,102.96 440.209,93.373 444.251,119.274 
			453.355,124.652 		"/>
		<polygon fill-rule="evenodd" clip-rule="evenodd" fill="#E9CB3C" points="312.772,178.078 352.885,202.867 384.189,187.817 
			371.238,177.984 360.125,125.619 371.573,107.79 371.37,107.695 323.565,107.695 301.658,135.459 		"/>
		<polygon fill-rule="evenodd" clip-rule="evenodd" fill="#DF9736" points="562.778,193.002 539.231,216.986 512.54,195.836 
			506.267,141.915 528.381,124.907 556.443,124.907 569.301,151.769 566.905,166.917 565.839,168.003 556.314,160.454 
			558.687,180.85 564.03,185.084 		"/>
		<polygon fill-rule="evenodd" clip-rule="evenodd" fill="#E9CB3C" points="523.891,73.14 411.173,97.929 323.215,82.88 
			359.605,73.047 390.832,20.681 358.663,2.853 359.236,2.757 493.563,2.757 555.119,30.521 		"/>
		<polygon fill-rule="evenodd" clip-rule="evenodd" fill="#E9CB3C" points="626.853,80.638 543.218,105.427 477.953,90.377 
			504.955,80.545 528.124,28.179 504.257,10.35 504.682,10.255 604.349,10.255 650.023,38.019 		"/>
		<polygon fill-rule="evenodd" clip-rule="evenodd" fill="#D97A2C" points="398.411,92.788 358.296,123.246 312.828,96.386 
			305.625,50.223 331.04,38.003 318.09,28.171 316.31,19.784 339.813,6.308 387.617,6.308 409.524,40.423 405.441,59.66 
			403.625,61.038 387.398,51.453 391.44,77.353 400.544,82.732 		"/>
		<polygon fill-rule="evenodd" clip-rule="evenodd" fill="#D97A2C" points="665.253,98.784 625.138,129.243 579.67,102.383 
			572.467,56.22 597.881,44 584.931,34.167 583.152,25.781 606.655,12.305 654.459,12.305 676.366,46.419 672.283,65.658 
			670.467,67.036 654.24,57.449 658.282,83.351 667.386,88.728 		"/>
	</g>
	<g>
		<polygon fill-rule="evenodd" clip-rule="evenodd" fill="#D97A2C" points="835.777,253.143 875.892,283.601 921.359,256.742 
			928.563,210.578 903.147,198.359 916.098,188.526 917.878,180.139 894.375,166.662 846.571,166.662 824.664,200.777 
			828.747,220.015 830.563,221.395 846.79,211.808 842.748,237.708 833.644,243.087 		"/>
		<polygon fill-rule="evenodd" clip-rule="evenodd" fill="#DF9736" points="678.529,222.165 718.644,252.623 764.111,225.762 
			774.798,157.283 737.127,135.684 689.323,135.684 667.416,169.799 		"/>
		<polygon fill-rule="evenodd" clip-rule="evenodd" fill="#DF9736" points="678.529,222.165 718.644,252.623 764.111,225.762 
			768.153,199.861 751.924,209.448 711.811,178.989 724.76,188.824 693.458,203.873 671.808,190.494 		"/>
		<polygon fill-rule="evenodd" clip-rule="evenodd" fill="#D97A2C" points="711.811,178.989 751.924,209.448 797.392,182.589 
			808.079,114.109 770.409,92.51 722.604,92.51 700.697,126.624 		"/>
		<polygon fill-rule="evenodd" clip-rule="evenodd" fill="#E9CB3C" points="653.343,179.083 693.458,203.873 724.76,188.824 
			711.811,178.989 700.697,126.624 712.145,108.796 711.941,108.701 664.137,108.701 642.23,136.465 		"/>
		<polygon fill-rule="evenodd" clip-rule="evenodd" fill="#E9CB3C" points="719.905,129.612 760.02,154.403 791.323,139.353 
			778.372,129.519 767.259,77.153 778.707,59.325 778.503,59.231 730.698,59.231 708.792,86.995 		"/>
		<polygon fill-rule="evenodd" clip-rule="evenodd" fill="#D97A2C" points="757.14,241.197 797.255,271.655 842.722,244.795 
			849.925,198.632 824.51,186.413 837.461,176.579 839.241,168.193 815.739,154.717 767.933,154.717 746.027,188.831 
			750.109,208.069 751.924,209.448 768.153,199.861 764.111,225.762 755.007,231.141 		"/>
		<polygon fill-rule="evenodd" clip-rule="evenodd" fill="#DF9736" points="766.784,170.791 806.899,201.25 852.367,174.39 
			863.053,105.911 825.383,84.312 777.578,84.312 755.671,118.426 759.754,137.665 761.57,139.044 777.798,129.456 773.755,155.358 
			764.651,160.736 		"/>
		<polygon fill-rule="evenodd" clip-rule="evenodd" fill="#E9CB3C" points="895.928,176.674 855.815,201.462 824.51,186.413 
			837.461,176.579 848.575,124.215 837.127,106.385 837.33,106.29 885.135,106.29 907.043,134.054 		"/>
		<polygon fill-rule="evenodd" clip-rule="evenodd" fill="#D97A2C" points="754.834,101.287 794.949,131.746 840.415,104.886 
			847.619,58.724 822.204,46.504 835.155,36.67 836.935,28.284 813.432,14.808 765.627,14.808 743.721,48.923 747.803,68.161 
			749.618,69.539 765.846,59.952 761.805,85.853 752.701,91.232 		"/>
		<polygon fill-rule="evenodd" clip-rule="evenodd" fill="#E9CB3C" points="832.337,123.315 872.452,148.105 903.754,133.055 
			890.803,123.221 879.69,70.856 891.139,53.027 890.935,52.933 843.131,52.933 821.224,80.697 		"/>
		<polygon fill-rule="evenodd" clip-rule="evenodd" fill="#D97A2C" points="937.137,141.138 962.895,125.921 973.581,57.442 
			935.911,35.842 888.106,35.842 873.732,58.228 909.034,58.228 946.705,79.826 		"/>
		<path fill-rule="evenodd" clip-rule="evenodd" fill="#D97A2C" d="M870.473,188.128l40.115,30.458l45.466-26.86l7.204-46.163
			l-24.94-11.992l-2.3,14.734l-45.468,26.86l-12.064-9.16l-1.043,6.689l-9.104,5.378L870.473,188.128L870.473,188.128z
			 M938.422,132.905l12.372-9.395l1.78-8.387l-10.443-5.988L938.422,132.905L938.422,132.905z M863.337,154.503l0.105,0.498
			l1.815,1.378l0.31-0.184L863.337,154.503z"/>
		<polygon fill-rule="evenodd" clip-rule="evenodd" fill="#DF9736" points="850.436,144.707 890.551,175.165 936.018,148.306 
			946.705,79.826 909.034,58.228 861.23,58.228 839.323,92.341 843.406,111.581 845.221,112.959 861.448,103.372 857.407,129.274 
			848.303,134.651 		"/>
		<polygon fill-rule="evenodd" clip-rule="evenodd" fill="#E9CB3C" points="988.886,188.077 948.772,212.866 917.468,197.816 
			930.419,187.984 941.532,135.618 930.085,117.789 930.288,117.694 978.093,117.694 1000,145.458 		"/>
		<polygon fill-rule="evenodd" clip-rule="evenodd" fill="#DF9736" points="738.88,203.001 762.427,226.985 789.117,205.835 
			795.39,151.914 773.277,134.906 745.215,134.906 732.356,161.768 734.753,176.917 735.818,178.002 745.344,170.454 
			742.971,190.849 737.627,195.083 		"/>
		<polygon fill-rule="evenodd" clip-rule="evenodd" fill="#E9CB3C" points="777.766,83.139 890.485,107.928 978.443,92.879 
			942.053,83.046 910.826,30.681 942.994,12.852 942.421,12.756 808.095,12.756 746.539,40.521 		"/>
		<polygon fill-rule="evenodd" clip-rule="evenodd" fill="#E9CB3C" points="674.804,90.637 758.44,115.426 823.704,100.376 
			796.703,90.544 773.533,38.178 797.401,20.35 796.975,20.254 697.308,20.254 651.635,48.018 		"/>
		<polygon fill-rule="evenodd" clip-rule="evenodd" fill="#D97A2C" points="903.246,102.787 943.361,133.246 988.829,106.385 
			996.033,60.223 970.618,48.003 983.568,38.17 985.347,29.783 961.845,16.307 914.041,16.307 892.133,50.422 896.217,69.66 
			898.032,71.038 914.259,61.452 910.218,87.353 901.113,92.731 		"/>
		<polygon fill-rule="evenodd" clip-rule="evenodd" fill="#D97A2C" points="636.404,108.783 676.519,139.242 721.987,112.382 
			729.191,66.219 703.776,53.999 716.727,44.167 718.505,35.78 695.003,22.304 647.199,22.304 625.292,56.418 629.374,75.657 
			631.19,77.036 647.417,67.448 643.375,93.35 634.271,98.728 		"/>
	</g>
</g>
</svg>
