<?xml version="1.0" encoding="utf-8"?>
<!-- Generator: Adobe Illustrator 17.0.0, SVG Export Plug-In . SVG Version: 6.00 Build 0)  -->
<!DOCTYPE svg PUBLIC "-//W3C//DTD SVG 1.1//EN" "http://www.w3.org/Graphics/SVG/1.1/DTD/svg11.dtd">
<svg version="1.1" id="PLATAFORMA_1_" xmlns="http://www.w3.org/2000/svg" xmlns:xlink="http://www.w3.org/1999/xlink" x="0px"
	 y="0px" width="3000px" height="499.999px" viewBox="0 0 3000 499.999" enable-background="new 0 0 3000 499.999"
	 xml:space="preserve">
<g id="PLATAFORMA">
	<rect y="0" fill="#ED3237" width="3000" height="10"/>
	<rect x="800" y="230" fill="#ED3237" width="37.157" height="10"/>
	<rect x="920" y="100" fill="#ED3237" width="160" height="10"/>
	<rect x="930" y="277" fill="#ED3237" width="20" height="10"/>
	<rect x="280" y="275" fill="#ED3237" width="20" height="10"/>
	<rect x="50" y="147" fill="#ED3237" width="20" height="10"/>
	<rect x="430" y="150" fill="#ED3237" width="20" height="10"/>
	<rect x="350" y="227" fill="#ED3237" width="20" height="10"/>
	<rect x="570" y="277" fill="#ED3237" width="30" height="10"/>
	<rect x="500" y="200" fill="#ED3237" width="20" height="10"/>
	<rect x="580" y="120" fill="#ED3237" width="20" height="10"/>
	<rect x="1180" y="200" fill="#ED3237" width="20" height="10"/>
	<rect x="1050" y="257" fill="#ED3237" width="20" height="10"/>
	<rect x="1700" y="275" fill="#ED3237" width="20" height="10"/>
	<rect x="1930" y="147" fill="#ED3237" width="20" height="10"/>
	<rect x="1550" y="120" fill="#ED3237" width="20" height="10"/>
	<rect x="1630" y="277" fill="#ED3237" width="20" height="10"/>
	<rect x="1330" y="277" fill="#ED3237" width="20" height="10"/>
	<rect x="1480" y="200" fill="#ED3237" width="20" height="10"/>
	<rect x="1250" y="200" fill="#ED3237" width="20" height="10"/>
	<rect x="2800" y="200" fill="#ED3237" width="20" height="10"/>
	<rect x="2920" y="100" fill="#ED3237" width="80" height="10"/>
	<rect x="2930" y="277" fill="#ED3237" width="20" height="10"/>
	<rect x="2280" y="275" fill="#ED3237" width="20" height="10"/>
	<rect x="2050" y="147" fill="#ED3237" width="20" height="10"/>
	<rect x="2430" y="120" fill="#ED3237" width="20" height="10"/>
	<rect x="2350" y="227" fill="#ED3237" width="20" height="10"/>
	<rect x="2580" y="277" fill="#ED3237" width="20" height="10"/>
	<rect x="2500" y="200" fill="#ED3237" width="20" height="10"/>
	<rect x="2580" y="120" fill="#ED3237" width="20" height="10"/>
	<rect y="0" fill="#ED3237" width="50" height="250"/>
	<rect x="300" y="110" fill="#ED3237" width="50" height="240"/>
	<rect x="50" y="230" fill="#ED3237" width="130" height="10"/>
	<rect x="170" y="100" fill="#ED3237" width="180" height="10"/>
	<rect x="450" y="0" fill="#ED3237" width="50" height="240"/>
	<rect x="600" y="100" fill="#ED3237" width="50" height="250"/>
	<rect x="750" y="0" fill="#ED3237" width="50" height="240"/>
	<rect x="950" y="110" fill="#ED3237" width="100" height="240"/>
	<rect x="1200" y="0" fill="#ED3237" width="50" height="240"/>
	<rect x="1350" y="100" fill="#ED3237" width="50" height="250"/>
	<rect x="1500" y="0" fill="#ED3237" width="50" height="240"/>
	<rect x="1650" y="110" fill="#ED3237" width="50" height="240"/>
	<rect x="1950" y="0" fill="#ED3237" width="100" height="240"/>
	<rect x="1650" y="100" fill="#ED3237" width="170" height="10"/>
	<rect x="1830" y="230" fill="#ED3237" width="120" height="10"/>
	<rect x="2050" y="230" fill="#ED3237" width="120" height="10"/>
	<rect x="2300" y="110" fill="#ED3237" width="50" height="240"/>
	<rect x="2600" y="100" fill="#ED3237" width="50" height="250"/>
	<rect x="2450" y="0" fill="#ED3237" width="50" height="240"/>
	<rect x="2180" y="100" fill="#ED3237" width="170" height="10"/>
	<rect x="2750" y="0" fill="#ED3237" width="50" height="240"/>
	<rect x="2950" y="110" fill="#ED3237" width="50" height="240"/>
	<rect x="800" y="150" fill="#ED3237" width="11.422" height="10"/>
	<rect x="1250" y="120" fill="#ED3237" width="20" height="10"/>
	<rect x="1550" y="200" fill="#ED3237" width="20" height="10"/>
	<rect x="2930" y="170" fill="#ED3237" width="20" height="10"/>
	<rect x="460" y="240" fill="#ED3237" width="30" height="10"/>
	<rect x="760" y="240" fill="#ED3237" width="30" height="10"/>
	<rect x="1210" y="240" fill="#ED3237" width="30" height="10"/>
	<rect x="1510" y="240" fill="#ED3237" width="30" height="10"/>
	<rect x="1970" y="240" fill="#ED3237" width="59" height="10"/>
	<rect x="2460" y="240" fill="#ED3237" width="30" height="10"/>
	<rect x="2759" y="240" fill="#ED3237" width="33" height="10"/>
	<rect y="350" fill="#ED3237" width="3000" height="150"/>
</g>
</svg>
