<?xml version="1.0" encoding="UTF-8"?>
<!DOCTYPE svg PUBLIC "-//W3C//DTD SVG 1.1//EN" "http://www.w3.org/Graphics/SVG/1.1/DTD/svg11.dtd">
<!-- Creator: CorelDRAW X6 -->
<svg xmlns="http://www.w3.org/2000/svg" xml:space="preserve" width="3000px" height="500px" version="1.1" style="shape-rendering:geometricPrecision; text-rendering:geometricPrecision; image-rendering:optimizeQuality; fill-rule:evenodd; clip-rule:evenodd"
viewBox="0 0 3000 500"
 xmlns:xlink="http://www.w3.org/1999/xlink">
 <defs>
  <style type="text/css">
   <![CDATA[
    .fil0 {fill:none}
    .fil1 {fill:#373435}
   ]]>
  </style>
 </defs>
 <g id="POSICION_x0020_MONEDAS">
  <metadata id="CorelCorpID_0Corel-Layer"/>
  <rect class="fil0" width="3000" height="500"/>
  <rect class="fil1" x="265" y="220" width="25" height="25"/>
  <rect class="fil1" x="116" y="188" width="25" height="25"/>
  <rect class="fil1" x="200" y="55" width="25" height="25"/>
  <rect class="fil1" x="245" y="55" width="25" height="25"/>
  <rect class="fil1" x="292" y="56" width="25" height="25"/>
  <rect class="fil1" x="405" y="60" width="25" height="25"/>
  <rect class="fil1" x="565" y="55" width="25" height="25"/>
  <rect class="fil1" x="565" y="235" width="25" height="25"/>
  <rect class="fil1" x="375" y="295" width="25" height="25"/>
  <rect class="fil1" x="820" y="195" width="25" height="25"/>
  <rect class="fil1" x="825" y="100" width="25" height="25"/>
  <rect class="fil1" x="994" y="50" width="25" height="25"/>
  <rect class="fil1" x="1135" y="305" width="25" height="25"/>
  <rect class="fil1" x="1090" y="305" width="25" height="25"/>
  <rect class="fil1" x="1360" y="50" width="25" height="25"/>
  <rect class="fil1" x="1570" y="58" width="25" height="25"/>
  <rect class="fil1" x="1720" y="220" width="25" height="25"/>
  <rect class="fil1" x="1911" y="193" width="25" height="25"/>
  <rect class="fil1" x="2105" y="190" width="25" height="25"/>
  <rect class="fil1" x="2150" y="190" width="25" height="25"/>
  <rect class="fil1" x="2270" y="60" width="25" height="25"/>
  <rect class="fil1" x="2315" y="60" width="25" height="25"/>
  <rect class="fil1" x="2415" y="60" width="25" height="25"/>
  <rect class="fil1" x="2360" y="295" width="25" height="25"/>
  <rect class="fil1" x="2514" y="163" width="25" height="25"/>
  <rect class="fil1" x="2615" y="60" width="25" height="25"/>
  <rect class="fil1" x="2715" y="65" width="25" height="25"/>
  <rect class="fil1" x="2715" y="105" width="25" height="25"/>
  <rect class="fil1" x="2715" y="145" width="25" height="25"/>
  <rect class="fil1" x="2715" y="185" width="25" height="25"/>
  <rect class="fil1" x="2715" y="225" width="25" height="25"/>
  <rect class="fil1" x="2815" y="150" width="25" height="25"/>
  <rect class="fil1" x="2815" y="55" width="25" height="25"/>
  <rect class="fil1" x="2965" y="50" width="25" height="25"/>
 </g>
</svg>
