<?xml version="1.0" encoding="UTF-8"?>
<!DOCTYPE svg PUBLIC "-//W3C//DTD SVG 1.1//EN" "http://www.w3.org/Graphics/SVG/1.1/DTD/svg11.dtd">
<!-- Creator: CorelDRAW X6 -->
<svg xmlns="http://www.w3.org/2000/svg" xml:space="preserve" width="3000px" height="500px" version="1.1" style="shape-rendering:geometricPrecision; text-rendering:geometricPrecision; image-rendering:optimizeQuality; fill-rule:evenodd; clip-rule:evenodd"
viewBox="0 0 3000 500"
 xmlns:xlink="http://www.w3.org/1999/xlink">
 <defs>
  <style type="text/css">
   <![CDATA[
    .fil0 {fill:none}
    .fil1 {fill:#201E1E}
   ]]>
  </style>
 </defs>
 <g id="DETALLES">
  <metadata id="CorelCorpID_0Corel-Layer"/>
  <g id="_397894320">
   <rect class="fil1" x="158" y="387" width="85" height="71"/>
   <rect class="fil1" x="248" y="91" width="85" height="67"/>
   <rect class="fil1" x="451" y="381" width="86" height="77"/>
   <rect class="fil1" x="797" y="379" width="84" height="79"/>
   <rect class="fil1" x="727" y="414" width="84" height="44"/>
  </g>
  <g id="_447329736">
   <rect class="fil1" x="1757" y="387" width="85" height="71"/>
   <rect class="fil1" x="1667" y="91" width="85" height="67"/>
   <rect class="fil1" x="1463" y="381" width="86" height="77"/>
   <rect class="fil1" x="1119" y="379" width="84" height="79"/>
   <rect class="fil1" x="1189" y="414" width="84" height="44"/>
  </g>
  <g id="_447327672">
   <rect class="fil1" x="2158" y="387" width="85" height="71"/>
   <rect class="fil1" x="2248" y="91" width="85" height="67"/>
   <rect class="fil1" x="2451" y="381" width="86" height="77"/>
   <rect class="fil1" x="2797" y="379" width="84" height="79"/>
   <rect class="fil1" x="2727" y="414" width="84" height="44"/>
  </g>
 </g>
</svg>
