<?xml version="1.0" encoding="utf-8"?>
<!-- Generator: Adobe Illustrator 17.0.0, SVG Export Plug-In . SVG Version: 6.00 Build 0)  -->
<!DOCTYPE svg PUBLIC "-//W3C//DTD SVG 1.1//EN" "http://www.w3.org/Graphics/SVG/1.1/DTD/svg11.dtd">
<svg version="1.1" id="BLOQUES" xmlns="http://www.w3.org/2000/svg" xmlns:xlink="http://www.w3.org/1999/xlink" x="0px" y="0px"
	 width="3000px" height="500px" viewBox="0 0 3000 500" enable-background="new 0 0 3000 500" xml:space="preserve">
<g id="PLATAFORMA_1_">
	<polygon fill="none" points="-1.167,26.09 3000,0 3000,500 -1.167,526.09 	"/>
	<rect x="0" y="373" fill="#1F1D1D" width="333" height="127"/>
	<rect x="333" y="373" fill="#1F1D1D" width="333" height="127"/>
	<rect x="666" y="373" fill="#1F1D1D" width="333" height="127"/>
	<rect x="1665" y="373" fill="#1F1D1D" width="333" height="127"/>
	<rect x="1332" y="373" fill="#1F1D1D" width="333" height="127"/>
	<rect x="999" y="373" fill="#1F1D1D" width="333" height="127"/>
	<rect x="2664" y="373" fill="#1F1D1D" width="333" height="127"/>
	<rect x="2331" y="373" fill="#1F1D1D" width="333" height="127"/>
	<rect x="1998" y="373" fill="#1F1D1D" width="333" height="127"/>
	<rect x="504.014" y="279.368" fill="#1F1D1D" width="85" height="46"/>
	<rect x="648.133" y="234.222" fill="#1F1D1D" width="85" height="46"/>
	<rect x="1161.014" y="279.368" fill="#1F1D1D" width="85" height="46"/>
	<rect x="1319.014" y="279.368" fill="#1F1D1D" width="85" height="46"/>
	<rect x="1492.014" y="279.368" fill="#1F1D1D" width="85" height="46"/>
	<rect x="2154.014" y="279.368" fill="#1F1D1D" width="85" height="46"/>
	<rect x="2304.192" y="234.058" fill="#1F1D1D" width="85" height="46"/>
	<rect x="2628.014" y="279.368" fill="#1F1D1D" width="85" height="46"/>
</g>
</svg>
