<?xml version="1.0" encoding="utf-8"?>
<!-- Generator: Adobe Illustrator 17.0.0, SVG Export Plug-In . SVG Version: 6.00 Build 0)  -->
<!DOCTYPE svg PUBLIC "-//W3C//DTD SVG 1.1//EN" "http://www.w3.org/Graphics/SVG/1.1/DTD/svg11.dtd">
<svg version="1.1" id="DETALLES" xmlns="http://www.w3.org/2000/svg" xmlns:xlink="http://www.w3.org/1999/xlink" x="0px" y="0px"
	 width="155px" height="107.782px" viewBox="0 0 155 107.782" enable-background="new 0 0 155 107.782" xml:space="preserve">
<path fill-rule="evenodd" clip-rule="evenodd" fill="#281415" d="M36.235,88.839l6.617-28.932l-4.527-22.805L35.54,0.34L81.856,0
	l27.859,22.805l8.705,23.486l-2.786,17.7l9.056,31.996l-69.858,11.795C54.832,107.782,35.887,88.159,36.235,88.839z"/>
<polygon fill-rule="evenodd" clip-rule="evenodd" fill="#5F3C36" points="110.537,25.022 118.42,46.291 115.634,63.991 
	124.69,95.987 94.044,101.42 94.044,75.905 101.009,54.802 109.715,25.187 "/>
<polygon fill-rule="evenodd" clip-rule="evenodd" fill="#5F3C36" points="64.07,0.13 81.856,0 109.715,22.805 110.055,23.722 
	89.517,20.423 64.443,3.404 "/>
<path fill-rule="evenodd" clip-rule="evenodd" fill="#3C2526" d="M38.962,0.315l8.068,14.322l8.358,24.167l-3.482,16.338
	c0,0-6.617,13.274-4.527,17.019c1.489,2.668,0.325,19.335-0.467,28.696c-4.984-5.703-10.879-12.414-10.677-12.018l6.617-28.932
	l-4.527-22.805L35.54,0.34L38.962,0.315z"/>
<g>
	<polygon fill-rule="evenodd" clip-rule="evenodd" fill="#281415" points="11.636,93.855 40.014,79.376 57.39,89.8 66.657,99.067 
		70.491,107.782 0.008,107.782 2.369,97.33 	"/>
	<polygon fill-rule="evenodd" clip-rule="evenodd" fill="#5F3C36" points="42.064,80.606 37.555,93.04 44.706,107.782 
		70.491,107.782 66.657,99.067 57.39,89.8 	"/>
	<polygon fill-rule="evenodd" clip-rule="evenodd" fill="#3C2526" points="17.332,90.948 15.323,100.286 9.525,107.782 
		0.008,107.782 2.369,97.33 11.636,93.855 	"/>
	<polygon fill-rule="evenodd" clip-rule="evenodd" fill="#281415" points="64.521,107.729 72.38,95.94 99.045,84.713 
		119.817,86.677 140.588,81.064 153.499,104.08 155.008,107.782 64.462,107.782 	"/>
	<path fill-rule="evenodd" clip-rule="evenodd" fill="#3C2526" d="M96.766,85.672c1.476,1.298,2.56,2.434,2.56,2.971
		c0,1.684,1.122,14.034,1.122,15.999c0,0.498,0.65,1.663,1.541,3.14H64.462l0.059-0.053L72.38,95.94L96.766,85.672z"/>
	<polygon fill-rule="evenodd" clip-rule="evenodd" fill="#5F3C36" points="139.603,81.331 141.39,92.853 138.608,107.782 
		155.008,107.782 153.499,104.08 140.588,81.064 	"/>
</g>
</svg>
