<?xml version="1.0" encoding="utf-8"?>
<!-- Generator: Adobe Illustrator 17.0.0, SVG Export Plug-In . SVG Version: 6.00 Build 0)  -->
<!DOCTYPE svg PUBLIC "-//W3C//DTD SVG 1.1//EN" "http://www.w3.org/Graphics/SVG/1.1/DTD/svg11.dtd">
<svg version="1.1" id="Capa_1" xmlns="http://www.w3.org/2000/svg" xmlns:xlink="http://www.w3.org/1999/xlink" x="0px" y="0px"
	 width="1000px" height="500px" viewBox="0 0 1000 500" enable-background="new 0 0 1000 500" xml:space="preserve">
<g id="PLANO3">
	<g id="_228970888">
		<polygon fill="none" points="1.497,0 998.503,0 998.503,500 1.497,500 		"/>
		<polygon fill="#C6B472" points="0,0 1000,0 1000,500 0,500 		"/>
		<g>
			<path fill="#B08C52" d="M154.192,203.593c32.934-8.982,35.928-23.952,32.934-35.928c-8.982-35.928-86.826-62.874-122.754-5.988
				c-8.982,14.97,17.964,41.916,23.952,35.928c5.988-5.988,17.964-29.94,38.922-23.952c20.958,5.988,26.946,29.94,26.946,26.946
				V203.593z"/>
			<path fill="#B08C52" d="M94.311,191.617l14.97,8.982v-14.97l-5.988-5.988c0,0,2.994-2.994,5.988-2.994l2.994,2.994v-5.988
				c2.994,0,5.988,0,8.982,0v29.94l11.976-14.97v-11.976c2.994,0,2.994,2.994,5.988,2.994v8.982l5.988-2.994
				c2.994,2.994,2.994,2.994,5.988,5.988l-8.982,2.994v5.988l11.976-2.994c0,2.994,2.994,2.994,2.994,5.988l-11.976,2.994h-11.976
				l-5.988,8.982l5.988,44.91l5.988,5.988v41.916l2.994,2.994l2.994,83.832c0,0-41.916,2.994-41.916-2.994
				c0-5.988,2.994-74.85,2.994-74.85l5.988-23.952l-2.994-44.91l-11.976-11.976l2.994-8.982l11.976,14.97l2.994-26.946
				l-20.958-14.97l2.994-2.994l0,0L94.311,191.617z"/>
		</g>
		<g>
			<path fill="#B08C52" d="M205.09,239.521c-20.958-5.988-20.958-17.964-17.964-26.946c5.988-26.946,50.898-47.904,68.862-5.988
				c5.988,11.976-8.982,32.934-14.97,29.94c-2.994-2.994-8.982-23.952-20.958-17.964S205.09,242.515,205.09,239.521z"/>
			<path fill="#B08C52" d="M238.024,227.545l-8.982,8.982v-11.976l2.994-2.994l-2.994-2.994l-2.994,2.994v-5.988h-2.994v23.952
				l-5.988-11.976v-8.982c0,0-2.994,0-2.994,2.994v5.988l-2.994-2.994c0,0-2.994,2.994-2.994,5.988l2.994,2.994v5.988l-5.988-2.994
				v2.994h5.988h5.988l2.994,5.988l-2.994,35.928l-2.994,5.988v32.934l-2.994,2.994v65.868c0,0,23.952,0,23.952-2.994
				c0-5.988,0-59.88,0-59.88l-2.994-17.964l2.994-35.928l5.988-11.976l-2.994-8.982l-5.988,11.976v-20.958l11.976-11.976
				c0,0,0-2.994-2.994-2.994l0,0H238.024z"/>
		</g>
		<path fill="#B08C52" d="M1000,0v500H868.263c68.862-41.916,116.766-122.754,116.766-212.575
			c0-134.731-107.784-245.509-239.521-245.509S505.988,152.695,505.988,287.425c0,89.82,47.904,167.665,116.766,212.575H371.257
			c68.862-41.916,116.766-122.754,116.766-212.575c0-134.731-107.784-245.509-239.521-245.509S8.982,152.695,8.982,287.425
			c0,89.82,47.904,167.665,116.766,212.575H0V0L1000,0z"/>
		<g>
			<path fill="#B08C52" d="M336.826,197.605c-29.94-5.988-32.934-20.958-29.94-29.94c8.982-29.94,80.838-53.892,110.778-5.988
				c8.982,11.976-14.97,38.922-23.952,32.934c-5.988-5.988-14.97-26.946-35.928-20.958c-20.958,5.988-23.952,26.946-23.952,23.952
				H336.826z"/>
			<path fill="#B08C52" d="M387.725,185.629l-14.97,8.982v-11.976l5.988-5.988l-2.994-2.994l-2.994,2.994v-5.988
				c-2.994,0-2.994,0-5.988,0v23.952l-11.976-11.976v-11.976c-2.994,0-2.994,2.994-5.988,2.994v5.988l-2.994-2.994
				c-2.994,2.994-2.994,2.994-5.988,5.988l5.988,2.994v5.988l-11.976-2.994c0,2.994-2.994,2.994-2.994,2.994h11.976h8.982
				l5.988,8.982l-2.994,38.922l-5.988,5.988v35.928l-2.994,2.994l-2.994,74.85c0,0,35.928,0,35.928-2.994
				c0-5.988-2.994-65.868-2.994-65.868l-5.988-20.958l2.994-38.922l11.976-11.976l-2.994-8.982l-11.976,14.97l-2.994-23.952
				l17.964-14.97l-2.994-2.994l0,0L387.725,185.629z"/>
		</g>
		<g>
			<path fill="#B08C52" d="M396.707,257.485c-17.964-2.994-17.964-11.976-17.964-17.964c5.988-17.964,47.904-32.934,65.868-2.994
				c5.988,5.988-8.982,20.958-11.976,17.964c-2.994-2.994-8.982-14.97-20.958-11.976
				C399.701,245.509,396.707,257.485,396.707,257.485z"/>
			<path fill="#B08C52" d="M429.641,251.497l-8.982,5.988v-8.982l2.994-2.994c0,0-2.994,0-2.994-2.994l-2.994,2.994v-2.994h-2.994
				v14.97l-5.988-5.988v-5.988c0,0-2.994,0-2.994,2.994v2.994l-2.994-2.994l-2.994,2.994h2.994v2.994h-5.988v2.994h5.988h5.988
				l2.994,2.994l-2.994,23.952l-2.994,2.994v20.958l-2.994,2.994v44.91c0,0,20.958,0,20.958-2.994c0-2.994,0-38.922,0-38.922
				l-2.994-11.976l2.994-23.952l5.988-5.988l-2.994-5.988l-5.988,8.982v-14.97l11.976-8.982c0,0,0,0-2.994-2.994l0,0V251.497z"/>
		</g>
		<g>
			<path fill="#B08C52" d="M663.174,233.533c29.94-5.988,32.934-20.958,29.94-29.94c-8.982-29.94-80.838-53.892-110.778-5.988
				c-8.982,11.976,14.97,38.922,23.952,32.934c5.988-5.988,14.97-26.946,35.928-20.958c20.958,5.988,23.952,26.946,23.952,23.952
				H663.174z"/>
			<path fill="#B08C52" d="M609.281,221.557l14.97,8.982v-11.976l-5.988-5.988l2.994-2.994l2.994,2.994v-5.988
				c2.994,0,2.994,0,5.988,0v23.952l11.976-11.976v-11.976c2.994,0,2.994,2.994,5.988,2.994v5.988l2.994-2.994
				c2.994,2.994,2.994,2.994,5.988,5.988l-5.988,2.994v5.988l11.976-2.994c0,2.994,2.994,2.994,2.994,2.994h-11.976h-8.982
				l-5.988,8.982l2.994,38.922l5.988,5.988v35.928l2.994,2.994l2.994,74.85c0,0-35.928,0-35.928-2.994
				c0-5.988,2.994-65.868,2.994-65.868l5.988-20.958l-2.994-38.922l-11.976-11.976l2.994-8.982l11.976,14.97l2.994-23.952
				l-17.964-14.97l2.994-2.994l0,0L609.281,221.557z"/>
		</g>
		<g>
			<path fill="#B08C52" d="M600.299,293.413c17.964-2.994,17.964-11.976,17.964-17.964c-5.988-17.964-47.904-32.934-65.868-2.994
				c-5.988,5.988,8.982,20.958,11.976,17.964c2.994-2.994,8.982-14.97,20.958-11.976
				C597.305,281.437,600.299,293.413,600.299,293.413z"/>
			<path fill="#B08C52" d="M570.359,287.425l8.982,5.988v-8.982l-2.994-2.994c0,0,2.994,0,2.994-2.994l2.994,2.994v-2.994h2.994
				v14.97l5.988-5.988v-5.988c0,0,2.994,0,2.994,2.994v2.994l2.994-2.994l2.994,2.994h-2.994v2.994h5.988v2.994h-5.988h-5.988
				l-2.994,2.994l2.994,23.952l2.994,2.994v20.958l2.994,2.994v44.91c0,0-20.958,0-20.958-2.994s0-38.922,0-38.922l2.994-11.976
				l-2.994-23.952l-5.988-5.988l2.994-5.988l5.988,8.982v-14.97l-11.976-8.982c0,0,0,0,2.994-2.994l0,0V287.425z"/>
		</g>
		<path fill="#B08C52" d="M71.856,320.359c8.982,0,14.97,2.994,20.958,5.988c5.988-14.97,20.958-23.952,38.922-23.952
			c23.952,0,41.916,17.964,41.916,41.916l0,0l0,0c5.988,0,8.982,0,14.97,2.994h2.994v-2.994c0-14.97,11.976-26.946,26.946-26.946
			s26.946,11.976,26.946,26.946l0,0c2.994,0,2.994,0,5.988,2.994h5.988v-2.994c0-2.994-2.994-5.988-2.994-8.982
			c0-11.976,8.982-23.952,20.958-23.952c2.994,0,8.982,0,11.976,2.994c0-2.994-2.994-5.988-2.994-5.988
			c0-8.982,8.982-17.964,17.964-17.964s14.97,5.988,17.964,14.97c0,0,0,0,2.994,0c14.97,0,23.952,8.982,29.94,20.958
			c2.994,0,2.994,0,5.988,0c8.982,0,14.97,5.988,17.964,11.976c5.988-5.988,11.976-8.982,20.958-8.982s17.964,5.988,23.952,11.976
			c0-14.97,14.97-29.94,29.94-29.94c11.976,0,23.952,5.988,26.946,17.964h2.994c8.982,0,17.964,8.982,17.964,17.964c0,0,0,0,0,2.994
			h2.994h8.982h2.994c0,0,0,0,0-2.994c0-8.982,8.982-17.964,17.964-17.964h2.994c5.988-8.982,14.97-17.964,26.946-17.964
			c14.97,0,29.94,11.976,29.94,29.94c5.988-5.988,14.97-11.976,23.952-11.976s14.97,2.994,20.958,8.982
			c2.994-5.988,8.982-11.976,17.964-11.976c2.994,0,2.994,0,5.988,0c2.994-11.976,14.97-20.958,29.94-20.958c0,0,0,0,2.994,0
			c2.994-8.982,8.982-14.97,17.964-14.97c8.982,0,17.964,8.982,17.964,17.964c0,2.994,0,5.988-2.994,5.988
			c2.994-2.994,5.988-2.994,11.976-2.994c11.976,0,20.958,8.982,20.958,23.952c0,2.994,0,5.988-2.994,8.982c0,0,0,0,0,2.994h5.988
			c2.994,0,2.994,0,5.988-2.994l0,0c0-14.97,11.976-26.946,26.946-26.946c14.97,0,26.946,11.976,26.946,26.946v2.994h2.994
			c2.994-2.994,8.982-2.994,14.97-2.994l0,0l0,0c0-23.952,17.964-41.916,41.916-41.916c17.964,0,32.934,8.982,38.922,23.952
			c5.988-2.994,14.97-5.988,20.958-5.988c11.976,0,20.958,2.994,26.946,8.982c2.994-2.994,8.982-5.988,14.97-5.988
			c5.988,0,11.976,2.994,14.97,8.982V500H505.988h-8.982H0V350.299h2.994c0-2.994-2.994-5.988-2.994-8.982l0,0
			c0-8.982,8.982-17.964,17.964-17.964c5.988,0,11.976,2.994,14.97,5.988c5.988-5.988,17.964-8.982,26.946-8.982H71.856z"/>
		<g>
			<path fill="#B08C52" d="M830.838,203.593c-35.928-8.982-35.928-23.952-32.934-35.928c8.982-35.928,92.814-65.868,128.742-5.988
				c8.982,14.97-17.964,44.91-26.946,38.922c-8.982-5.988-17.964-29.94-41.916-23.952s-26.946,29.94-29.94,29.94L830.838,203.593z"
				/>
			<path fill="#B08C52" d="M890.719,191.617l-14.97,11.976v-14.97l5.988-5.988c-2.994,0-2.994-2.994-5.988-2.994l-2.994,2.994
				v-5.988c-2.994,0-5.988,0-8.982,0v29.94l-11.976-14.97v-11.976c-2.994,0-2.994,2.994-5.988,2.994v8.982l-5.988-2.994
				c-2.994,2.994-2.994,2.994-5.988,5.988l8.982,2.994v5.988l-11.976-2.994c0,2.994-2.994,2.994-2.994,5.988l11.976,2.994h11.976
				l5.988,8.982l-5.988,47.904l-5.988,5.988v44.91l-5.988,5.988l-2.994,89.82c0,0,41.916,2.994,41.916-5.988
				c0-5.988-2.994-77.844-2.994-77.844l-8.982-23.952l2.994-44.91l11.976-14.97l-2.994-11.976l-11.976,14.97l-2.994-29.94
				l20.958-17.964l-2.994-2.994l0,0L890.719,191.617z"/>
		</g>
		<g>
			<path fill="#B08C52" d="M779.94,206.587c20.958-5.988,20.958-17.964,17.964-29.94c-5.988-29.94-53.892-50.898-71.856-5.988
				c-5.988,11.976,11.976,35.928,14.97,29.94c2.994-2.994,8.982-23.952,23.952-17.964
				C776.946,188.623,779.94,206.587,779.94,206.587z"/>
			<path fill="#B08C52" d="M744.012,194.611l8.982,8.982v-11.976L750,188.623l2.994-2.994l2.994,2.994v-5.988c0,0,2.994,0,5.988,0
				v23.952l5.988-11.976v-8.982c0,0,2.994,0,2.994,2.994v5.988l2.994-2.994c0,2.994,2.994,2.994,2.994,5.988l-5.988,2.994v5.988
				l5.988-2.994c0,2.994,0,2.994,0,2.994h-8.982h-5.988l-2.994,5.988l2.994,35.928l2.994,5.988v35.928l2.994,2.994v68.862
				c0,0-23.952,0-23.952-2.994c0-5.988,0-62.874,0-62.874l2.994-20.958l-2.994-35.928l-8.982-11.976l2.994-8.982l8.982,11.976
				v-23.952l-11.976-11.976c0,0,0-2.994,2.994-2.994l0,0L744.012,194.611z"/>
		</g>
	</g>
</g>
</svg>
