<?xml version="1.0" encoding="utf-8"?>
<!-- Generator: Adobe Illustrator 17.0.0, SVG Export Plug-In . SVG Version: 6.00 Build 0)  -->
<!DOCTYPE svg PUBLIC "-//W3C//DTD SVG 1.1//EN" "http://www.w3.org/Graphics/SVG/1.1/DTD/svg11.dtd">
<svg version="1.1" id="Capa_1" xmlns="http://www.w3.org/2000/svg" xmlns:xlink="http://www.w3.org/1999/xlink" x="0px" y="0px"
	 width="1000px" height="500px" viewBox="0 0 1000 500" enable-background="new 0 0 1000 500" xml:space="preserve">
<g id="PLANO2">
	<g id="_335214728">
		<g>
			<path fill="none" d="M327.844,194.611c-41.916-8.982-41.916-26.946-38.922-41.916c11.976-41.916,104.79-74.85,146.707-8.982
				c8.982,14.97-20.958,50.898-29.94,44.91c-8.982-5.988-20.958-32.934-44.91-26.946
				C333.832,167.665,330.838,197.605,327.844,194.611z"/>
			<path fill="none" d="M396.707,179.641l-17.964,11.976v-17.964l8.982-5.988c-2.994-2.994-2.994-2.994-5.988-2.994l-5.988,5.988
				v-5.988c-2.994,0-5.988,0-8.982,0l2.994,32.934l-14.97-14.97v-14.97c-2.994,0-5.988,2.994-5.988,2.994v8.982l-5.988-5.988
				c-2.994,2.994-2.994,5.988-5.988,5.988l8.982,2.994v8.982l-14.97-2.994c0,2.994-2.994,2.994-2.994,5.988l14.97,2.994h11.976
				l5.988,8.982l-5.988,53.892l-5.988,8.982v50.898l-5.988,5.988l-2.994,101.796c0,0,47.904,2.994,47.904-5.988
				c0-5.988-2.994-86.826-2.994-86.826l-8.982-26.946l2.994-50.898l14.97-14.97l-2.994-11.976l-14.97,17.964l-2.994-32.934
				l23.952-17.964c0,0-2.994-2.994-2.994-5.988l0,0L396.707,179.641z"/>
			<path fill="#272331" d="M327.844,194.611c-41.916-8.982-41.916-26.946-38.922-41.916c11.976-41.916,104.79-74.85,146.707-8.982
				c8.982,14.97-20.958,50.898-29.94,44.91c-8.982-5.988-20.958-32.934-44.91-26.946
				C333.832,167.665,330.838,197.605,327.844,194.611z"/>
			<path fill="#514435" d="M396.707,179.641l-17.964,11.976v-17.964l8.982-5.988c-2.994-2.994-2.994-2.994-5.988-2.994l-5.988,5.988
				v-5.988c-2.994,0-5.988,0-8.982,0l2.994,32.934l-14.97-14.97v-14.97c-2.994,0-5.988,2.994-5.988,2.994v8.982l-5.988-5.988
				c-2.994,2.994-2.994,5.988-5.988,5.988l8.982,2.994v8.982l-14.97-2.994c0,2.994-2.994,2.994-2.994,5.988l14.97,2.994h11.976
				l5.988,8.982l-5.988,53.892l-5.988,8.982v50.898l-5.988,5.988l-2.994,101.796c0,0,47.904,2.994,47.904-5.988
				c0-5.988-2.994-86.826-2.994-86.826l-8.982-26.946l2.994-50.898l14.97-14.97l-2.994-11.976l-14.97,17.964l-2.994-32.934
				l23.952-17.964c0,0-2.994-2.994-2.994-5.988l0,0L396.707,179.641z"/>
			<polygon fill="#272331" points="387.725,317.365 381.737,302.395 360.778,320.359 			"/>
			<path fill="#514435" d="M345.808,347.305l-2.994,65.868c14.97-5.988,38.922-14.97,35.928-14.97
				c-5.988-2.994-29.94,5.988-26.946,2.994c2.994-2.994,35.928-23.952,38.922-29.94v-2.994c-2.994-5.988-14.97,2.994-26.946,8.982
				c-11.976,5.988-17.964-8.982-5.988-17.964c8.982-8.982,23.952-11.976,26.946-17.964c2.994-5.988-29.94,2.994-38.922,8.982
				V347.305z"/>
			<path fill="#272331" d="M345.808,347.305l-2.994,65.868c14.97-5.988,38.922-14.97,35.928-14.97
				c-5.988-2.994-29.94,5.988-26.946,2.994c2.994-2.994,35.928-23.952,38.922-29.94v-2.994c-2.994-5.988-14.97,2.994-26.946,8.982
				c-11.976,5.988-17.964-8.982-5.988-17.964c8.982-8.982,23.952-11.976,26.946-17.964c2.994-5.988-29.94,2.994-38.922,8.982
				V347.305z"/>
		</g>
		<g>
			<path fill="none" d="M184.132,242.515c35.928-8.982,38.922-23.952,32.934-38.922c-11.976-35.928-92.814-65.868-131.737-5.988
				c-8.982,14.97,17.964,44.91,26.946,38.922c8.982-5.988,17.964-29.94,41.916-23.952S181.138,242.515,184.132,242.515z"/>
			<path fill="none" d="M121.257,230.539l14.97,11.976v-14.97l-5.988-5.988c2.994,0,2.994-2.994,5.988-2.994l2.994,2.994v-5.988
				c2.994,0,5.988,0,8.982,0v29.94l11.976-14.97v-14.97c2.994,0,2.994,2.994,5.988,2.994v8.982l5.988-2.994
				c2.994,2.994,2.994,2.994,5.988,5.988l-8.982,2.994v5.988l11.976-2.994c0,2.994,2.994,2.994,2.994,5.988l-14.97,2.994h-11.976
				l-5.988,8.982l5.988,47.904l5.988,5.988v44.91l5.988,5.988l2.994,89.82c0,0-44.91,2.994-44.91-5.988
				c0-5.988,2.994-80.838,2.994-80.838l8.982-23.952l-2.994-47.904l-14.97-14.97l2.994-11.976l14.97,17.964l2.994-29.94
				l-20.958-17.964l2.994-2.994l0,0H121.257z"/>
			<path fill="#272331" d="M184.132,242.515c35.928-8.982,38.922-23.952,32.934-38.922c-11.976-35.928-92.814-65.868-131.737-5.988
				c-8.982,14.97,17.964,44.91,26.946,38.922c8.982-5.988,17.964-29.94,41.916-23.952S181.138,242.515,184.132,242.515z"/>
			<path fill="#514435" d="M121.257,230.539l14.97,11.976v-14.97l-5.988-5.988c2.994,0,2.994-2.994,5.988-2.994l2.994,2.994v-5.988
				c2.994,0,5.988,0,8.982,0v29.94l11.976-14.97v-14.97c2.994,0,2.994,2.994,5.988,2.994v8.982l5.988-2.994
				c2.994,2.994,2.994,2.994,5.988,5.988l-8.982,2.994v5.988l11.976-2.994c0,2.994,2.994,2.994,2.994,5.988l-14.97,2.994h-11.976
				l-5.988,8.982l5.988,47.904l5.988,5.988v44.91l5.988,5.988l2.994,89.82c0,0-44.91,2.994-44.91-5.988
				c0-5.988,2.994-80.838,2.994-80.838l8.982-23.952l-2.994-47.904l-14.97-14.97l2.994-11.976l14.97,17.964l2.994-29.94
				l-20.958-17.964l2.994-2.994l0,0H121.257z"/>
			<polygon fill="#272331" points="130.24,356.287 133.234,341.317 154.192,356.287 			"/>
			<path fill="#514435" d="M169.162,380.24l2.994,59.88c-14.97-5.988-35.928-11.976-32.934-14.97c5.988,0,26.946,5.988,23.952,2.994
				c-2.994-2.994-29.94-20.958-32.934-26.946v-2.994c2.994-5.988,11.976,0,23.952,8.982c11.976,5.988,14.97-8.982,5.988-17.964
				s-20.958-8.982-23.952-17.964c-2.994-5.988,26.946,2.994,32.934,5.988V380.24z"/>
			<path fill="#272331" d="M169.162,380.24l2.994,59.88c-14.97-5.988-35.928-11.976-32.934-14.97c5.988,0,26.946,5.988,23.952,2.994
				c-2.994-2.994-29.94-20.958-32.934-26.946v-2.994c2.994-5.988,11.976,0,23.952,8.982c11.976,5.988,14.97-8.982,5.988-17.964
				s-20.958-8.982-23.952-17.964c-2.994-5.988,26.946,2.994,32.934,5.988V380.24z"/>
		</g>
		<path fill="#59413D" d="M693.114,137.725c-41.916,56.886-65.868,125.748-65.868,188.623
			c14.97,116.766,20.958,122.754,53.892,173.653H546.407c35.928-47.904,53.892-56.886,53.892-173.653
			C600.299,38.922,224.551,41.582,0,47.57V0l1000,0v47.949c-143.713-11.976-247.006,29.895-309.88,89.775H693.114z"/>
		<path fill="#483532" d="M1.497,44.91c83.832,2.994,488.024-14.97,532.934,26.946c44.91,41.916,56.886,35.928,68.862,95.808
			c11.976,62.874,20.958,212.575,0,260.479s-23.952,50.898-32.934,68.862h-20.958c35.928-47.904,53.892-56.886,53.892-173.653
			c0-287.425-374.251-284.431-598.802-278.443v-2.994L1.497,44.91z"/>
		<g>
			<path fill="#896449" d="M417.665,65.868v-2.994h2.994c0,0,0,0,2.994,0V59.88c-5.988,0-8.982,2.994-14.97,5.988
				c-2.994,2.994-5.988,5.988-5.988,11.976l0,0c-5.988-2.994-8.982-2.994-14.97-2.994c0-8.982,5.988-14.97,11.976-17.964
				c5.988-5.988,14.97-8.982,23.952-8.982c5.988,0,14.97,2.994,17.964,5.988c5.988,5.988,8.982,11.976,8.982,17.964
				s-2.994,11.976-5.988,14.97c-2.994,2.994-2.994,2.994-5.988,2.994c-8.982-2.994-14.97-5.988-23.952-8.982
				c0-2.994,0-2.994,0-5.988c0-5.988,2.994-8.982,5.988-11.976L417.665,65.868z M450.599,98.802c2.994,0,2.994-2.994,5.988-2.994
				c5.988-5.988,11.976-11.976,11.976-20.958v-2.994l14.97,2.994v2.994c0,11.976-8.982,20.958-17.964,29.94
				c-5.988-2.994-8.982-5.988-14.97-5.988V98.802z"/>
			<path fill="#896449" d="M534.431,47.904L534.431,47.904h-2.994l0,0v2.994c2.994-2.994,8.982-5.988,8.982-8.982
				c2.994-2.994,2.994-8.982,0-11.976c-2.994-5.988-8.982-11.976-14.97-11.976c-5.988-2.994-14.97-2.994-20.958,0
				c-8.982,2.994-14.97,8.982-20.958,17.964c-2.994,5.988-5.988,14.97-2.994,23.952v2.994l-14.97,2.994v-2.994
				c-2.994-11.976-2.994-23.952,2.994-32.934c5.988-11.976,14.97-20.958,26.946-23.952c8.982-2.994,20.958-5.988,32.934-2.994
				c8.982,2.994,17.964,11.976,23.952,20.958c2.994,8.982,2.994,17.964,0,23.952c-2.994,8.982-11.976,14.97-20.958,17.964
				c-5.988,2.994-14.97,2.994-20.958,0c-5.988-2.994-11.976-8.982-14.97-14.97s-2.994-11.976,0-14.97
				c2.994-5.988,8.982-8.982,11.976-11.976s8.982-2.994,11.976,0s5.988,5.988,8.982,8.982c2.994,5.988,0,8.982-2.994,11.976
				L534.431,47.904z"/>
		</g>
		<g>
			<path fill="#896449" d="M845.808,17.964V14.97h2.994c0,0,0,0,2.994,0v-2.994c-5.988,0-8.982,2.994-14.97,5.988
				c-2.994,2.994-5.988,5.988-5.988,11.976s2.994,11.976,8.982,17.964c2.994,2.994,5.988,5.988,11.976,5.988
				c-5.988,2.994-14.97,2.994-20.958,5.988l0,0c-8.982-5.988-11.976-17.964-11.976-26.946s2.994-17.964,11.976-20.958
				c5.988-5.988,14.97-8.982,23.952-8.982c5.988,0,14.97,2.994,17.964,5.988c5.988,5.988,8.982,11.976,8.982,17.964
				s-2.994,11.976-5.988,14.97c-2.994,2.994-11.976,5.988-14.97,5.988c-5.988,0-8.982-2.994-11.976-5.988
				c-2.994-2.994-2.994-8.982-2.994-11.976c0-5.988,2.994-8.982,5.988-11.976H845.808z M881.737,47.904c0,0,0,0,2.994,0
				c5.988-5.988,11.976-11.976,11.976-20.958v-2.994l14.97,2.994v2.994c0,5.988-2.994,11.976-5.988,17.964
				c-8.982,0-14.97,0-20.958,2.994L881.737,47.904z"/>
			<path fill="#896449" d="M964.662,2.994L964.662,2.994h-2.994l0,0v2.994c2.994,0,2.994-2.994,5.988-2.994h17.964l0,0
				c-2.994,8.982-11.976,14.97-20.958,17.964c-5.988,2.994-14.97,2.994-20.958,0c-5.988-2.994-11.976-8.982-14.97-14.97
				c0-2.994,0-2.994,0-5.988h35.928V2.994z M913.764,2.994c0,2.994,0,8.982,0,11.976v2.994l-14.97,2.994v-2.994
				C895.8,11.976,895.8,5.988,895.8,2.994h14.97H913.764z"/>
		</g>
		<g>
			<path fill="#896449" d="M184.132,41.916v-2.994h2.994c0,0,0,0,2.994,0v-2.994c-5.988,0-8.982,2.994-14.97,5.988l-2.994,2.994
				c-5.988,0-11.976,0-14.97,0c2.994-5.988,5.988-8.982,8.982-11.976c5.988-5.988,14.97-8.982,23.952-8.982
				c5.988,0,14.97,2.994,17.964,5.988c5.988,5.988,8.982,11.976,8.982,17.964c-11.976,0-26.946-2.994-38.922-2.994
				c0-2.994,2.994-2.994,5.988-5.988V41.916z M235.03,50.898v-2.994L250,50.898v2.994c-5.988,0-8.982,0-14.97,0V50.898z"/>
			<path fill="#896449" d="M300.898,20.958L300.898,20.958h-2.994l0,0v2.994c2.994-2.994,8.982-5.988,8.982-8.982
				c2.994-2.994,2.994-8.982,0-11.976c0-2.994,0-2.994-2.994-2.994h17.964c2.994,8.982,2.994,14.97-2.994,23.952
				c-2.994,8.982-11.976,14.97-20.958,17.964c-5.988,2.994-14.97,2.994-20.958,0c-5.988-2.994-11.976-8.982-14.97-14.97
				s-2.994-11.976,0-14.97C264.97,5.988,270.958,2.994,273.952,0l0,0h11.976l0,0c2.994,2.994,5.988,5.988,8.982,8.982
				c2.994,5.988,0,8.982-2.994,11.976H300.898z M264.97,0c-2.994,2.994-5.988,5.988-8.982,11.976
				c-2.994,5.988-5.988,14.97-2.994,23.952v2.994l-14.97,2.994v-2.994c-2.994-11.976-2.994-23.952,2.994-32.934l2.994-2.994h20.958
				V0z"/>
		</g>
		<g>
			<path fill="#896449" d="M597.305,272.455c5.988,0,14.97-2.994,20.958-8.982c5.988-5.988,11.976-11.976,11.976-20.958v-2.994
				h8.982c-2.994,8.982-5.988,17.964-5.988,29.94c-2.994,2.994-2.994,2.994-5.988,5.988c-8.982,5.988-17.964,8.982-26.946,11.976
				C600.299,281.437,600.299,278.443,597.305,272.455z M579.341,218.563h2.994c5.988,0,14.97,2.994,17.964,5.988
				c5.988,5.988,8.982,11.976,8.982,17.964c0,5.988-2.994,11.976-5.988,14.97c-2.994,2.994-5.988,2.994-8.982,2.994
				c-2.994-14.97-8.982-29.94-14.97-44.91V218.563z"/>
			<path fill="#896449" d="M657.186,197.605c-2.994,2.994-5.988,5.988-8.982,8.982c-2.994,5.988-5.988,11.976-2.994,17.964
				c0,2.994-2.994,5.988-2.994,8.982l-8.982,2.994v-2.994c-2.994-11.976-2.994-23.952,2.994-32.934
				c5.988-11.976,14.97-20.958,26.946-23.952c2.994,0,2.994,0,5.988-2.994C666.168,182.635,660.18,188.623,657.186,197.605z"/>
		</g>
		<path fill="#896449" d="M35.19,5.988c0,2.994,2.994,5.988,5.988,8.982c5.988,5.988,11.976,5.988,20.958,5.988
			s17.964-2.994,26.946-8.982c2.994-2.994,5.988-5.988,5.988-8.982h14.97c-2.994,8.982-8.982,14.97-14.97,17.964
			c-8.982,8.982-23.952,11.976-35.928,11.976s-20.958-2.994-29.94-11.976C23.214,14.97,20.22,8.982,17.226,0h14.97L35.19,5.988z
			 M77.106,5.988c0,0,0,0-2.994,2.994s-11.976,5.988-14.97,5.988c-5.988,0-8.982-2.994-11.976-5.988c0,0,0,0,0-2.994H77.106z"/>
		<g>
			<path fill="#896449" d="M570.359,89.82v-2.994h2.994c0,0,0,0,2.994,0v-2.994c-5.988,0-8.982,2.994-14.97,5.988
				c-2.994,2.994-5.988,5.988-5.988,11.976s2.994,11.976,8.982,17.964c5.988,5.988,11.976,5.988,20.958,5.988
				c8.982,0,17.964-2.994,26.946-8.982c5.988-5.988,11.976-11.976,11.976-20.958v-2.994l14.97,2.994v2.994
				c-2.994,11.976-8.982,20.958-17.964,29.94c-8.982,8.982-23.952,11.976-35.928,11.976c-11.976,0-20.958-2.994-29.94-11.976
				c-8.982-5.988-11.976-17.964-11.976-26.946s2.994-17.964,11.976-20.958c5.988-5.988,14.97-8.982,23.952-8.982
				c5.988,0,14.97,2.994,17.964,5.988c5.988,5.988,8.982,11.976,8.982,17.964s-2.994,11.976-5.988,14.97
				c-2.994,2.994-11.976,5.988-14.97,5.988c-5.988,0-8.982-2.994-11.976-5.988c-2.994-2.994-2.994-8.982-2.994-11.976
				c0-5.988,2.994-8.982,5.988-11.976L570.359,89.82z"/>
			<path fill="#896449" d="M687.126,71.856L687.126,71.856h-2.994l0,0v2.994c2.994-2.994,8.982-5.988,8.982-8.982
				c2.994-2.994,2.994-8.982,0-11.976c-2.994-5.988-8.982-11.976-14.97-11.976c-5.988-2.994-14.97-2.994-20.958,0
				c-8.982,2.994-14.97,8.982-20.958,17.964c-2.994,5.988-5.988,14.97-2.994,23.952v2.994l-14.97,2.994v-2.994
				c-2.994-11.976-2.994-23.952,2.994-32.934c5.988-11.976,14.97-20.958,26.946-23.952c8.982-2.994,20.958-5.988,32.934-2.994
				c8.982,2.994,17.964,11.976,23.952,20.958c2.994,8.982,2.994,17.964,0,23.952c-2.994,8.982-11.976,14.97-20.958,17.964
				c-5.988,2.994-14.97,2.994-20.958,0s-11.976-8.982-14.97-14.97s-2.994-11.976,0-14.97c2.994-5.988,8.982-8.982,11.976-11.976
				s8.982-2.994,11.976,0c2.994,2.994,5.988,5.988,8.982,8.982c2.994,5.988,0,8.982-2.994,11.976L687.126,71.856z"/>
		</g>
		<g>
			<path fill="none" d="M836.826,152.695c53.892-11.976,53.892-35.928,47.904-53.892C869.76,44.91,750,2.994,696.108,89.82
				c-11.976,20.958,26.946,65.868,38.922,56.886c11.976-8.982,26.946-44.91,59.88-35.928S833.832,155.689,836.826,152.695z"/>
			<path fill="none" d="M747.006,131.737l23.952,14.97v-23.952l-8.982-8.982c2.994-2.994,5.988-2.994,5.988-5.988l5.988,5.988
				v-8.982c2.994,0,5.988-2.994,11.976-2.994l-2.994,44.91l17.964-20.958l-2.994-20.958c2.994,0,5.988,2.994,8.982,5.988v11.976
				l5.988-5.988c2.994,2.994,5.988,5.988,8.982,8.982l-11.976,2.994v8.982l17.964-2.994c0,2.994,2.994,5.988,2.994,5.988
				l-20.958,2.994h-17.964l-8.982,11.976l5.988,68.862l8.982,8.982v62.874l5.988,5.988l2.994,131.737c0,0-62.874,2.994-62.874-5.988
				c0-8.982,2.994-113.772,2.994-113.772l11.976-35.928l-5.988-68.862l-20.958-20.958l5.988-14.97l20.958,23.952l2.994-44.91
				l-29.94-23.952c2.994-2.994,2.994-2.994,5.988-5.988l0,0L747.006,131.737z"/>
			<path fill="#272331" d="M836.826,152.695c53.892-11.976,53.892-35.928,47.904-53.892C869.76,44.91,750,2.994,696.108,89.82
				c-11.976,20.958,26.946,65.868,38.922,56.886c11.976-8.982,26.946-44.91,59.88-35.928S833.832,155.689,836.826,152.695z"/>
			<path fill="#514435" d="M747.006,131.737l23.952,14.97v-23.952l-8.982-8.982c2.994-2.994,5.988-2.994,5.988-5.988l5.988,5.988
				v-8.982c2.994,0,5.988-2.994,11.976-2.994l-2.994,44.91l17.964-20.958l-2.994-20.958c2.994,0,5.988,2.994,8.982,5.988v11.976
				l5.988-5.988c2.994,2.994,5.988,5.988,8.982,8.982l-11.976,2.994v8.982l17.964-2.994c0,2.994,2.994,5.988,2.994,5.988
				l-20.958,2.994h-17.964l-8.982,11.976l5.988,68.862l8.982,8.982v62.874l5.988,5.988l2.994,131.737c0,0-62.874,2.994-62.874-5.988
				c0-8.982,2.994-113.772,2.994-113.772l11.976-35.928l-5.988-68.862l-20.958-20.958l5.988-14.97l20.958,23.952l2.994-44.91
				l-29.94-23.952c2.994-2.994,2.994-2.994,5.988-5.988l0,0L747.006,131.737z"/>
			<polygon fill="#272331" points="758.982,314.371 764.97,293.413 794.91,317.365 			"/>
			<path fill="#514435" d="M812.874,350.299l2.994,86.826c-20.958-5.988-53.892-17.964-47.904-20.958s38.922,8.982,35.928,5.988
				c-2.994-2.994-44.91-29.94-50.898-41.916v-2.994c5.988-8.982,17.964,2.994,32.934,11.976c14.97,8.982,20.958-11.976,8.982-23.952
				s-29.94-14.97-32.934-23.952c-2.994-8.982,35.928,5.988,47.904,8.982H812.874z"/>
			<path fill="#272331" d="M812.874,350.299l2.994,86.826c-20.958-5.988-53.892-17.964-47.904-20.958s38.922,8.982,35.928,5.988
				c-2.994-2.994-44.91-29.94-50.898-41.916v-2.994c5.988-8.982,17.964,2.994,32.934,11.976c14.97,8.982,20.958-11.976,8.982-23.952
				s-29.94-14.97-32.934-23.952c-2.994-8.982,35.928,5.988,47.904,8.982H812.874z"/>
		</g>
		<path fill="#746957" d="M128.743,380.24c0,0,14.97-11.976,17.964-8.982c2.994,5.988,2.994,20.958,2.994,20.958
			s14.97-14.97,17.964-11.976c2.994,2.994,0,5.988-2.994,8.982s-2.994,5.988,0,5.988s5.988,0,2.994,8.982
			c-2.994,8.982,2.994,8.982,5.988,5.988c2.994-5.988,8.982-23.952,14.97-20.958c5.988,2.994,0,11.976,5.988,17.964
			c5.988,2.994,8.982-14.97,11.976-11.976c2.994,2.994,5.988,20.958,8.982,17.964c2.994-2.994-5.988-38.922,2.994-32.934
			c8.982,5.988,5.988,23.952,14.97,14.97c5.988-8.982,0-20.958,8.982-11.976c8.982,11.976,0,17.964,5.988,14.97
			c5.988-2.994,2.994-14.97,5.988-14.97c2.994,0,5.988,14.97,8.982,11.976c2.994-2.994,0-14.97,5.988-11.976
			c2.994,0,8.982-8.982,11.976,2.994c2.994,11.976,14.97,0,17.964-2.994c2.994,0,17.964,0,23.952,5.988
			c5.988,5.988,8.982,11.976,8.982,5.988c0-5.988-14.97-14.97-5.988-20.958c8.982-2.994,17.964,5.988,23.952,11.976
			c5.988-8.982,14.97-14.97,23.952-11.976c11.976,5.988-5.988,14.97-5.988,20.958c0,5.988,2.994,0,8.982-5.988
			c5.988-5.988,20.958-5.988,23.952-5.988s14.97,14.97,17.964,2.994c2.994-11.976,8.982-2.994,11.976-2.994
			c2.994,0,0,8.982,5.988,11.976c2.994,2.994,5.988-11.976,11.976-11.976c2.994,0,2.994,11.976,5.988,14.97
			c5.988,2.994-2.994-5.988,5.988-14.97c8.982-11.976,2.994,2.994,8.982,11.976c5.988,8.982,5.988-8.982,14.97-14.97
			c8.982-5.988,0,29.94,2.994,32.934c2.994,2.994,5.988-14.97,8.982-17.964c2.994-2.994,5.988,14.97,11.976,11.976
			s2.994-14.97,5.988-17.964c5.988-2.994,11.976,17.964,14.97,20.958c2.994,5.988,8.982,2.994,5.988-5.988s0-8.982,2.994-8.982
			s2.994-2.994,0-5.988s-5.988-5.988-2.994-8.982s17.964,11.976,17.964,11.976s0-14.97,2.994-20.958
			c2.994-5.988,17.964,8.982,17.964,8.982s5.988,2.994,20.958-8.982c14.97-11.976,2.994,17.964,8.982,23.952
			c8.982,8.982,8.982-14.97,14.97-17.964c8.982-5.988,0,14.97,5.988,20.958c5.988,5.988,17.964-14.97,23.952-17.964
			c5.988,0,5.988,14.97,8.982,11.976c2.994,0,5.988-8.982,11.976-8.982s-2.994,14.97,2.994,17.964c5.988,0,5.988-5.988,8.982-5.988
			l2.994,2.994c0-2.994,2.994-2.994,2.994-2.994c2.994-2.994,2.994,5.988,8.982,5.988s-2.994-14.97,2.994-17.964
			c5.988,0,8.982,8.982,11.976,8.982c2.994,0,2.994-14.97,8.982-11.976c5.988,0,20.958,23.952,23.952,17.964
			c5.988-5.988-2.994-26.946,5.988-20.958s8.982,26.946,17.964,17.964c8.982-8.982-2.994-35.928,8.982-23.952
			c14.97,11.976,20.958,8.982,20.958,8.982s14.97-11.976,17.964-8.982c2.994,5.988,2.994,20.958,2.994,20.958
			s14.97-14.97,17.964-11.976s0,5.988-2.994,8.982s-2.994,5.988,0,5.988s5.988,0,2.994,8.982s2.994,8.982,5.988,5.988
			c2.994-5.988,8.982-23.952,14.97-20.958s0,11.976,5.988,17.964c5.988,2.994,8.982-14.97,11.976-11.976
			c2.994,2.994,5.988,20.958,8.982,17.964c2.994-2.994-5.988-38.922,2.994-32.934c8.982,5.988,5.988,23.952,14.97,14.97
			c5.988-8.982,0-20.958,11.976-11.976c8.982,11.976,0,17.964,5.988,14.97c5.988-2.994,2.994-14.97,5.988-14.97
			s5.988,14.97,11.976,11.976c2.994-2.994,0-14.97,5.988-11.976c2.994,0,8.982-8.982,11.976,2.994
			c2.994,11.976,14.97,0,17.964-2.994c2.994,0,17.964,0,23.952,2.994V500H862.275H685.629h-8.982H502.994H176.647H0v-50.898V410.18
			c0-8.982,5.988-14.97,5.988-17.964c2.994-2.994,2.994,5.988,8.982,5.988s-2.994-14.97,2.994-17.964
			c5.988,0,8.982,8.982,11.976,8.982s2.994-14.97,8.982-11.976c5.988,0,17.964,23.952,23.952,17.964
			c5.988-5.988-2.994-26.946,5.988-20.958c8.982,5.988,8.982,26.946,14.97,17.964s-2.994-35.928,8.982-23.952
			c14.97,11.976,20.958,8.982,20.958,8.982L128.743,380.24z"/>
		<path fill="#3D4645" d="M218.563,407.186c0,0,26.946-23.952,32.934-14.97s5.988,38.922,5.988,38.922s29.94-26.946,32.934-20.958
			c5.988,5.988,0,8.982-2.994,14.97c-2.994,5.988-5.988,11.976,0,11.976s14.97,2.994,5.988,17.964
			c-5.988,14.97,2.994,20.958,8.982,11.976c5.988-8.982,17.964-44.91,26.946-38.922c8.982,2.994,0,23.952,11.976,32.934
			s17.964-26.946,23.952-23.952c5.988,2.994,8.982,38.922,17.964,32.934c8.982-5.988-11.976-71.856,5.988-62.874
			c17.964,8.982,11.976,44.91,26.946,29.94c14.97-14.97,2.994-41.916,17.964-20.958c17.964,20.958,2.994,32.934,11.976,29.94
			c8.982-5.988,5.988-26.946,11.976-26.946c5.988,0,14.97,26.946,20.958,20.958c5.988-5.988,0-26.946,8.982-23.952
			c8.982,0,17.964-14.97,23.952,8.982c5.988,23.952,29.94,0,32.934-2.994c2.994-2.994,35.928-2.994,44.91,8.982
			c8.982,11.976,14.97,23.952,14.97,11.976s-29.94-29.94-8.982-38.922c14.97-5.988,35.928,8.982,44.91,23.952
			c8.982-14.97,29.94-29.94,44.91-23.952c20.958,8.982-11.976,26.946-8.982,38.922c0,11.976,8.982,0,17.964-11.976
			c8.982-11.976,41.916-11.976,44.91-8.982c2.994,2.994,26.946,26.946,32.934,2.994c5.988-23.952,14.97-5.988,23.952-8.982
			c8.982,0,2.994,17.964,8.982,23.952c5.988,5.988,11.976-20.958,20.958-20.958c5.988,0,2.994,20.958,11.976,26.946
			c8.982,5.988-5.988-8.982,11.976-29.94c17.964-20.958,5.988,5.988,20.958,20.958c14.97,14.97,8.982-20.958,26.946-29.94
			c17.964-8.982-2.994,53.892,5.988,62.874c8.982,5.988,11.976-26.946,17.964-32.934c5.988-2.994,11.976,29.94,23.952,23.952
			c11.976-8.982,2.994-26.946,11.976-32.934c8.982-2.994,26.946,29.94,26.946,38.922c0,17.964,11.976-74.85,14.97,32.934H0v-29.94
			c0-14.97,8.982-26.946,14.97-29.94c5.988-2.994,5.988,11.976,17.964,8.982s-2.994-29.94,8.982-32.934
			c11.976,0,14.97,14.97,23.952,17.964c8.982,0,8.982-26.946,17.964-23.952c8.982,2.994,35.928,44.91,44.91,32.934
			c8.982-8.982-5.988-47.904,8.982-41.916c14.97,8.982,17.964,50.898,29.94,35.928c14.97-14.97-8.982-71.856,17.964-47.904
			s38.922,17.964,38.922,17.964H218.563z"/>
	</g>
</g>
</svg>
