<?xml version="1.0" encoding="utf-8"?>
<!-- Generator: Adobe Illustrator 17.0.0, SVG Export Plug-In . SVG Version: 6.00 Build 0)  -->
<!DOCTYPE svg PUBLIC "-//W3C//DTD SVG 1.1//EN" "http://www.w3.org/Graphics/SVG/1.1/DTD/svg11.dtd">
<svg version="1.1" id="Capa_1" xmlns="http://www.w3.org/2000/svg" xmlns:xlink="http://www.w3.org/1999/xlink" x="0px" y="0px"
	 width="1000px" height="500px" viewBox="0 0 1000 500" enable-background="new 0 0 1000 500" xml:space="preserve">
<g id="PLANO1">
	<g id="_335228480">
		<path fill="#5C2E1F" d="M797.904,26.946l29.94,83.832l11.976,65.868l-2.994,35.928l2.994,50.898l-5.988,35.928l-26.946,80.838
			l-44.91,26.946l-32.934,35.928l8.982,41.916h170.659h59.88c2.994-14.97,17.964-32.934,8.982-41.916
			c-38.922-47.904-92.814-35.928-107.784-125.749l-8.982-47.904l8.982-23.952l-5.988-38.922l2.994-23.952l5.988-5.988l-5.988-20.958
			l8.982-32.934l-2.994-8.982l11.976-35.928l17.964-50.898L935.629,0H761.976L797.904,26.946z"/>
		<path fill="#864B29" d="M881.737,0c-8.982,29.94-26.946,89.82-20.958,116.766c5.988,35.928-2.994,53.892-2.994,62.874
			c0,8.982-2.994,56.886-2.994,62.874c0,5.988,2.994,62.874,2.994,62.874l8.982,68.862c0,0,11.976,32.934,11.976,38.922
			c0,5.988,8.982,47.904,14.97,74.85h14.97h59.88c2.994-14.97,17.964-32.934,8.982-41.916
			c-38.922-47.904-92.814-35.928-107.784-125.749l-8.982-47.904l8.982-23.952l-5.988-38.922l2.994-23.952l5.988-5.988l-5.988-20.958
			l8.982-32.934l-2.994-8.982l11.976-35.928l17.964-50.898l32.934-26.946h-56.886L881.737,0z"/>
		<g>
			<path fill="#381822" d="M809.88,56.886l14.97,38.922l32.934,8.982c0,0,11.976,0,20.958,2.994v-2.994
				C863.772,95.808,827.844,71.856,809.88,56.886z"/>
			<polygon fill="#381822" points="830.838,122.755 836.826,152.695 869.76,182.635 872.754,179.641 866.766,155.689 
				869.76,155.689 			"/>
			<path fill="#381822" d="M839.82,179.641v2.994c5.988,5.988,17.964,17.964,23.952,23.952v-11.976l-26.946-14.97H839.82z"/>
			<path fill="#381822" d="M839.82,212.575v5.988l0,0c5.988,8.982,11.976,17.964,11.976,17.964l-11.976,2.994v5.988l26.946,20.958
				l5.988-14.97l-2.994-20.958L839.82,212.575z"/>
			<polygon fill="#381822" points="842.814,272.455 839.82,278.443 869.76,320.359 869.76,314.371 863.772,284.431 			"/>
			<path fill="#381822" d="M833.832,308.383l-8.982,23.952l38.922,17.964l11.976-2.994c0-2.994,0-2.994-2.994-5.988l-41.916-32.934
				H833.832z"/>
			<path fill="#381822" d="M818.862,359.281l-8.982,26.946l74.85,8.982l17.964-2.994c-2.994-2.994-5.988-8.982-8.982-11.976
				l-65.868-17.964h-8.982V359.281z"/>
		</g>
		<polygon fill="#381822" points="800.898,29.94 893.713,62.874 905.689,26.946 914.671,17.964 914.671,14.97 797.904,23.952 
			797.904,26.946 		"/>
		<path fill="#381822" stroke="#373435" stroke-width="0.3335" d="M935.629,413.174c-47.904-2.994-122.755-11.976-149.701-14.97
			l-23.952,14.97l-8.982,8.982c8.982,2.994,17.964,5.988,29.94,8.982c50.898,17.964,86.826,32.934,86.826,38.922
			c0,5.988-104.79,8.982-134.731,8.982v5.988c2.994,2.994,5.988,2.994,8.982,5.988h161.677h17.964l-44.91-50.898l65.868-14.97
			c-5.988-2.994-8.982-5.988-14.97-8.982L935.629,413.174z"/>
	</g>
	<g id="_335225792">
		<path fill="#5C2E1F" d="M624.251,53.892l29.94,80.838l11.976,62.874l-2.994,35.928l2.994,50.898l-5.988,35.928l-26.946,74.85
			l-44.91,23.952l-32.934,35.928l8.982,38.922H735.03h59.88c2.994-11.976,17.964-29.94,8.982-38.922
			c-38.922-47.904-92.814-32.934-107.784-119.76l-8.982-44.91l8.982-20.958l-5.988-35.928l2.994-23.952l5.988-5.988l-5.988-20.958
			l8.982-32.934l-2.994-8.982l11.976-32.934l17.964-47.904l32.934-26.946l-173.87-17.402l36.145,41.354V53.892z"/>
		<path fill="#864B29" d="M705.09,26.946c-8.982,26.946-26.946,86.826-20.958,110.778c5.988,32.934-2.994,50.898-2.994,56.886
			c0,8.982-2.994,53.892-2.994,59.88c0,5.988,2.994,59.88,2.994,59.88l8.982,62.874c0,0,11.976,29.94,11.976,38.922
			c0,5.988,8.982,44.91,14.97,71.856h14.97h59.88c2.994-11.976,17.964-29.94,8.982-38.922
			c-38.922-47.904-92.814-32.934-107.784-119.76l-8.982-44.91l8.982-20.958l-5.988-35.928l2.994-23.952l5.988-5.988l-5.988-20.958
			l8.982-32.934l-2.994-8.982l11.976-32.934l17.964-47.904l32.934-26.946h-56.886H705.09z"/>
		<g>
			<path fill="#381822" d="M633.234,80.838l14.97,38.922l32.934,5.988c0,0,11.976,0,20.958,2.994v-2.994
				C687.126,116.766,651.198,92.814,633.234,80.838z"/>
			<polygon fill="#381822" points="654.192,143.713 660.18,173.653 696.108,200.599 696.108,197.605 693.114,176.647 
				693.114,173.653 			"/>
			<path fill="#381822" d="M666.168,197.605v2.994c5.988,5.988,17.964,14.97,23.952,23.952v-11.976l-26.946-14.97H666.168z"/>
			<path fill="#381822" d="M663.174,227.545v5.988l0,0c5.988,8.982,11.976,17.964,11.976,17.964l-11.976,2.994v2.994l26.946,17.964
				l5.988-11.976l-2.994-20.958L663.174,227.545z"/>
			<polygon fill="#381822" points="666.168,284.431 666.168,290.419 693.114,329.341 693.114,326.347 690.12,296.407 			"/>
			<path fill="#381822" d="M660.18,317.365l-8.982,20.958l38.922,17.964l11.976-2.994c0-2.994,0-2.994-2.994-5.988l-41.916-29.94
				H660.18z"/>
			<path fill="#381822" d="M642.216,365.269l-8.982,23.952l74.85,5.988l17.964-2.994c-2.994-2.994-5.988-5.988-8.982-11.976
				l-65.868-17.964h-8.982V365.269z"/>
		</g>
		<polygon fill="#381822" points="624.251,53.892 717.066,86.826 729.042,53.892 738.024,44.91 738.024,41.916 621.257,50.898 		"/>
		<path fill="#381822" stroke="#373435" stroke-width="0.3335" d="M758.982,416.168c-47.904-2.994-122.754-11.976-149.701-11.976
			l-23.952,11.976l-8.982,8.982c8.982,2.994,17.964,5.988,29.94,8.982c50.898,17.964,86.826,29.94,86.826,35.928
			c0,5.988-104.79,8.982-134.731,8.982v5.988c2.994,0,5.988,2.994,8.982,5.988h161.677h17.964l-44.91-47.904l65.868-14.97
			c-5.988-2.994-8.982-5.988-14.97-8.982L758.982,416.168z"/>
	</g>
	<g id="_335221880">
		<path fill="#5C2E1F" d="M555.389,53.892l-29.94,80.838l-11.976,62.874l2.994,35.928l-2.994,50.898l5.988,35.928l26.946,74.85
			l44.91,23.952l32.934,35.928l-8.982,38.922H444.611h-59.88c-2.994-11.976-17.964-29.94-8.982-38.922
			c38.922-47.904,92.814-32.934,107.784-119.76l8.982-44.91l-8.982-20.958l5.988-35.928l-2.994-23.952l-5.988-5.988l5.988-20.958
			l-8.982-32.934l2.994-8.982l-11.976-32.934L450.599,59.88l-32.934-26.946l176.157-21l-38.432,44.952V53.892z"/>
		<path fill="#864B29" d="M474.551,26.946c8.982,26.946,26.946,86.826,20.958,110.778c-5.988,32.934,2.994,50.898,2.994,56.886
			c0,8.982,2.994,53.892,2.994,59.88c0,5.988-2.994,59.88-2.994,59.88l-8.982,62.874c0,0-11.976,29.94-11.976,38.922
			c0,5.988-8.982,44.91-14.97,71.856h-14.97h-59.88c-2.994-11.976-17.964-29.94-8.982-38.922
			c38.922-47.904,92.814-32.934,107.784-119.76l8.982-44.91l-8.982-20.958l5.988-35.928l-2.994-23.952l-5.988-5.988l5.988-20.958
			l-8.982-32.934l2.994-8.982l-11.976-32.934l-17.964-47.904l-32.934-26.946h56.886H474.551z"/>
		<g>
			<path fill="#381822" d="M546.407,80.838l-14.97,38.922l-32.934,5.988c0,0-11.976,0-20.958,2.994v-2.994
				C492.515,116.766,528.443,92.814,546.407,80.838z"/>
			<polygon fill="#381822" points="525.449,143.713 519.461,173.653 483.533,200.599 483.533,197.605 486.527,176.647 
				486.527,173.653 			"/>
			<path fill="#381822" d="M513.473,197.605v2.994c-5.988,5.988-17.964,14.97-23.952,23.952v-11.976l26.946-14.97H513.473z"/>
			<path fill="#381822" d="M516.467,227.545v5.988l0,0c-5.988,8.982-11.976,17.964-11.976,17.964l11.976,2.994v2.994l-26.946,17.964
				l-5.988-11.976l2.994-20.958L516.467,227.545z"/>
			<polygon fill="#381822" points="513.473,284.431 513.473,290.419 486.527,329.341 486.527,326.347 489.521,296.407 			"/>
			<path fill="#381822" d="M519.461,317.365l8.982,20.958l-38.922,17.964l-11.976-2.994c0-2.994,0-2.994,2.994-5.988l41.916-29.94
				H519.461z"/>
			<path fill="#381822" d="M537.425,365.269l8.982,23.952l-74.85,5.988l-17.964-2.994c2.994-2.994,5.988-5.988,8.982-11.976
				l65.868-17.964h8.982V365.269z"/>
		</g>
		<polygon fill="#381822" points="555.389,53.892 462.575,86.826 450.599,53.892 441.617,44.91 438.623,41.916 558.383,50.898 		"/>
		<path fill="#381822" stroke="#373435" stroke-width="0.3335" d="M420.659,416.168c47.904-2.994,122.754-11.976,149.701-11.976
			l23.952,11.976l8.982,8.982c-8.982,2.994-17.964,5.988-29.94,8.982c-50.898,17.964-86.826,29.94-86.826,35.928
			c0,5.988,104.79,8.982,134.73,8.982v5.988c-2.994,0-5.988,2.994-8.982,5.988H450.599h-17.964l44.91-47.904l-65.868-14.97
			c5.988-2.994,8.982-5.988,14.97-8.982L420.659,416.168z"/>
	</g>
	<g id="_335115096">
		<path fill="#5C2E1F" d="M378.742,53.892l-29.94,80.838l-11.976,62.874l2.994,35.928l-2.994,50.898l5.988,35.928l26.946,74.85
			l44.91,23.952l32.934,35.928l-8.982,38.922H267.964h-59.88c-2.994-11.976-17.964-29.94-8.982-38.922
			c38.922-47.904,92.814-32.934,107.784-119.76l8.982-44.91l-8.982-20.958l5.988-35.928l-2.994-23.952l-5.988-5.988l5.988-20.958
			l-8.982-32.934l2.994-8.982l-11.976-32.934L273.952,59.88l-32.934-26.946h173.653l-35.928,23.952V53.892z"/>
		<path fill="#864B29" d="M297.904,26.946c8.982,26.946,26.946,86.826,20.958,110.778c-5.988,32.934,2.994,50.898,2.994,56.886
			c0,8.982,2.994,53.892,2.994,59.88c0,5.988-2.994,59.88-2.994,59.88l-8.982,62.874c0,0-11.976,29.94-11.976,38.922
			c0,5.988-8.982,44.91-14.97,71.856h-14.97h-59.88c-2.994-11.976-17.964-29.94-8.982-38.922
			c38.922-47.904,92.814-32.934,107.784-119.76l8.982-44.91l-8.982-20.958l5.988-35.928l-2.994-23.952l-5.988-5.988l5.988-20.958
			l-8.982-32.934l2.994-8.982l-11.976-32.934l-17.964-47.904l-32.934-26.946h56.886H297.904z"/>
		<g>
			<path fill="#381822" d="M369.76,80.838l-14.97,38.922l-32.934,5.988c0,0-11.976,0-20.958,2.994v-2.994
				C315.868,116.766,351.796,92.814,369.76,80.838z"/>
			<polygon fill="#381822" points="348.802,143.713 342.814,173.653 309.88,200.599 306.886,197.605 312.874,176.647 
				309.88,173.653 			"/>
			<path fill="#381822" d="M336.826,197.605v2.994c-5.988,5.988-17.964,14.97-23.952,23.952v-11.976l26.946-14.97H336.826z"/>
			<path fill="#381822" d="M339.82,227.545v5.988l0,0c-5.988,8.982-11.976,17.964-11.976,17.964l11.976,2.994v2.994l-26.946,17.964
				l-5.988-11.976l2.994-20.958L339.82,227.545z"/>
			<polygon fill="#381822" points="336.826,284.431 339.82,290.419 309.88,329.341 309.88,326.347 312.874,296.407 			"/>
			<path fill="#381822" d="M345.808,317.365l8.982,20.958l-38.922,17.964l-11.976-2.994c0-2.994,0-2.994,2.994-5.988l41.916-29.94
				H345.808z"/>
			<path fill="#381822" d="M360.778,365.269l8.982,23.952l-74.85,5.988l-17.964-2.994c2.994-2.994,5.988-5.988,8.982-11.976
				l65.868-17.964h8.982V365.269z"/>
		</g>
		<polygon fill="#381822" points="378.742,53.892 285.928,86.826 273.952,53.892 264.97,44.91 264.97,41.916 381.737,50.898 		"/>
		<path fill="#381822" stroke="#373435" stroke-width="0.3335" d="M244.012,416.168c47.904-2.994,122.754-11.976,149.701-11.976
			l23.952,11.976l8.982,8.982c-8.982,2.994-17.964,5.988-29.94,8.982c-50.898,17.964-86.826,29.94-86.826,35.928
			c0,5.988,104.79,8.982,134.731,8.982v5.988c-2.994,0-5.988,2.994-8.982,5.988H273.952h-17.964l44.91-47.904l-65.868-14.97
			c5.988-2.994,8.982-5.988,14.97-8.982L244.012,416.168z"/>
	</g>
	<g id="_335128200">
		<path fill="#5C2E1F" d="M184.132,53.892l-29.94,80.838l-11.976,62.874l2.994,35.928l-2.994,50.898l5.988,35.928l26.946,74.85
			l44.91,23.952l32.934,35.928l-8.982,38.922H73.353h-59.88c-2.994-11.976-17.964-29.94-8.982-38.922
			c38.922-47.904,92.814-32.934,107.784-119.76l8.982-44.91l-8.982-20.958l5.988-35.928l-2.994-23.952l-5.988-5.988l5.988-20.958
			l-8.982-32.934l2.994-8.982l-11.976-32.934L79.341,59.88L46.407,32.934H220.06l-35.928,23.952V53.892z"/>
		<path fill="#864B29" d="M100.299,26.946c8.982,26.946,26.946,86.826,20.958,110.778c-5.988,32.934,2.994,50.898,2.994,56.886
			c0,8.982,2.994,53.892,2.994,59.88c0,5.988-2.994,59.88-2.994,59.88l-8.982,62.874c0,0-11.976,29.94-11.976,38.922
			c0,5.988-8.982,44.91-14.97,71.856h-14.97h-59.88c-2.994-11.976-17.964-29.94-8.982-38.922
			c38.922-47.904,92.814-32.934,107.784-119.76l8.982-44.91l-8.982-20.958l5.988-35.928l-2.994-23.952l-5.988-5.988l5.988-20.958
			l-8.982-32.934l2.994-8.982l-11.976-32.934L79.341,53.892L46.407,26.946h56.886H100.299z"/>
		<g>
			<path fill="#381822" d="M172.156,80.838l-14.97,38.922l-32.934,5.988c0,0-11.976,0-20.958,2.994v-2.994
				C118.263,116.766,154.192,92.814,172.156,80.838z"/>
			<polygon fill="#381822" points="151.198,143.713 145.21,173.653 112.275,200.599 109.281,197.605 115.269,176.647 
				115.269,173.653 			"/>
			<path fill="#381822" d="M142.216,197.605v2.994c-5.988,5.988-17.964,14.97-23.952,23.952v-11.976l26.946-14.97H142.216z"/>
			<path fill="#381822" d="M145.21,227.545v5.988l0,0c-5.988,8.982-11.976,17.964-11.976,17.964l11.976,2.994v2.994l-26.946,17.964
				l-5.988-11.976l2.994-20.958L145.21,227.545z"/>
			<polygon fill="#381822" points="142.216,284.431 142.216,290.419 112.275,329.341 112.275,326.347 118.263,296.407 			"/>
			<path fill="#381822" d="M148.204,317.365l8.982,20.958l-38.922,17.964l-11.976-2.994c0-2.994,0-2.994,2.994-5.988l41.916-29.94
				H148.204z"/>
			<path fill="#381822" d="M166.168,365.269l8.982,23.952l-74.85,5.988l-17.964-2.994c2.994-2.994,5.988-5.988,8.982-11.976
				l65.868-17.964h8.982V365.269z"/>
		</g>
		<polygon fill="#381822" points="181.138,53.892 91.317,86.826 76.347,53.892 67.365,44.91 67.365,41.916 184.132,50.898 
			184.132,53.892 		"/>
		<path fill="#381822" stroke="#373435" stroke-width="0.3335" d="M46.407,416.168c47.904-2.994,122.754-11.976,149.701-11.976
			l23.952,11.976l8.982,8.982c-8.982,2.994-17.964,5.988-29.94,8.982c-50.898,17.964-86.826,29.94-86.826,35.928
			c0,5.988,104.79,8.982,134.731,8.982v5.988c-2.994,0-5.988,2.994-8.982,5.988H76.347H58.383l44.91-47.904l-65.868-14.97
			c5.988-2.994,8.982-5.988,14.97-8.982L46.407,416.168z"/>
	</g>
	<path fill="#AF6C37" d="M13.473,38.922l8.982,8.982c0,0,2.994,23.952,5.988,26.946s8.982-2.994,8.982-2.994l14.97-32.934h14.97
		l14.97,23.952l11.976,29.94h8.982l8.982-35.928v-8.982l14.97-2.994l8.982,32.934l5.988-5.988l8.982-32.934l53.892-2.994
		l41.916,8.982l11.976,35.928l8.982,2.994l11.976-41.916h8.982l8.982,11.976l5.988-11.976l20.958-2.994l14.97,32.934h5.988
		l8.982-35.928h29.94l20.958,5.988l20.958,59.88l8.982,2.994l5.988-65.868h5.988l5.988,26.946l5.988-2.994l2.994-26.946h11.976
		l14.97-8.982l26.946,5.988l8.982,8.982c0,0,2.994,23.952,5.988,26.946s8.982-2.994,8.982-2.994l14.97-32.934h14.97l14.97,23.952
		l11.976,29.94h8.982l8.982-35.928v-8.982l14.97-2.994l8.982,32.934l5.988-5.988l8.982-32.934l53.892-2.994L750,38.922
		l11.976,35.928l8.982,2.994l11.976-41.916h8.982l8.982,11.976l5.988-11.976l20.958-2.994l14.97,32.934h5.988l8.982-35.928h29.94
		l20.958,5.988l20.958,59.88l8.982,2.994l5.988-65.868h5.988l5.988,26.946l5.988-2.994l2.994-26.946h11.976L1000,21.882V0L501.96,0
		L0,0v25.904l4.491,4.036L13.473,38.922z"/>
	<path fill="#5C2E1F" d="M36.094,63.721l14.97-32.934h23.952L92.98,57.733l8.982,20.958l5.988-23.952v-14.97l26.946-2.994
		l5.988,20.958l5.988-23.952l59.88-2.994l47.904,11.976l8.982,29.94l8.982-35.928h17.964l5.988,5.988l2.994-5.988l29.94-5.988
		l11.976,26.946l5.988-26.946h35.928l26.946,8.982l14.97,47.904l5.988-53.892l20.958,2.994v2.994v-5.988h17.964l17.964-8.982
		l32.934,5.988L533.1,42.763v2.994c0,2.994,0,11.976,2.994,17.964l14.97-32.934h23.952l17.964,26.946l8.982,20.958l5.988-23.952
		v-14.97l26.946-2.994l5.988,20.958l5.988-23.952l59.88-2.994l47.904,11.976l8.982,29.94l8.982-35.928h17.964l5.988,5.988
		l2.994-5.988l29.94-5.988l11.976,26.946l5.988-26.946h35.928l26.946,8.982l14.97,47.904l5.988-53.892l20.958,2.994v2.994v-5.988
		h14.97L1000,28.867V9.394L0,10.241v20.108l3.16,3.432l11.976,11.976v2.994c0,2.994,0,11.976,2.994,17.964L36.094,63.721z"/>
	<path fill="#381822" d="M0,17.861c44.91,0,76.347-5.885,115.269-2.891s143.713-2.994,170.659,2.994s197.605,2.994,212.575,0
		c14.97-2.994,125.748,2.994,158.683,2.994c29.94,0,89.82-2.994,116.766-5.988s116.766-8.982,149.701-2.994
		c29.94,5.988,58.383,8.667,76.347,5.673V0L510.479,0L0,0V17.861z"/>
	<path fill="#AF6C37" d="M13.473,461.078l8.982-8.982c0,0,2.994-23.952,5.988-26.946c2.994-2.994,8.982,2.994,8.982,2.994
		l14.97,32.934h14.97l14.97-23.952l11.976-29.94h8.982l8.982,35.928v8.982l14.97,2.994l8.982-32.934l5.988,5.988l8.982,32.934
		l53.892,2.994l41.916-8.982l11.976-35.928l8.982-2.994l11.976,41.916h8.982l8.982-11.976l5.988,11.976l20.958,2.994l14.97-32.934
		h5.988l8.982,35.928h29.94l20.958-5.988l20.958-59.88l8.982-2.994l5.988,65.868h5.988l5.988-26.946l5.988,2.994l2.994,26.946
		h11.976l14.97,8.982l26.946-5.988l8.982-8.982c0,0,2.994-23.952,5.988-26.946s8.982,2.994,8.982,2.994l14.97,32.934h14.97
		l14.97-23.952l11.976-29.94h8.982l8.982,35.928v8.982l14.97,2.994l8.982-32.934l5.988,5.988l8.982,32.934l53.892,2.994L750,461.078
		l11.976-35.928l8.982-2.994l11.976,41.916h8.982l8.982-11.976l5.988,11.976l20.958,2.994l14.97-32.934h5.988l8.982,35.928h29.94
		l20.958-5.988l20.958-59.88l8.982-2.994l5.988,65.868h5.988l5.988-26.946l5.988,2.994l2.994,26.946h11.976l22.455,9.519V500
		H502.366H0v-24.718l4.491-5.222L13.473,461.078z"/>
	<path fill="#5C2E1F" d="M40.437,435.217l14.97,32.934h23.952l17.964-26.946l8.982-20.958l5.988,23.952v14.97l26.946,2.994
		l5.988-20.958l5.988,23.952l59.88,2.994L259,456.175l8.982-29.94l8.982,35.928h17.964l5.988-5.988l2.994,5.988l29.94,5.988
		l11.976-26.946l5.988,26.946h35.928l26.946-8.982l14.97-47.904l5.988,53.892l20.958-2.994v-2.994v5.988h17.964l17.964,8.982
		l32.934-5.988l11.976-11.976v-2.994c0-2.994,0-11.976,2.994-17.964l14.97,32.934h23.952l17.964-26.946l8.982-20.958l5.988,23.952
		v14.97l26.946,2.994l5.988-20.958l5.988,23.952l59.88,2.994L759,456.175l8.982-29.94l8.982,35.928h17.964l5.988-5.988l2.994,5.988
		l29.94,5.988l11.976-26.946l5.988,26.946h35.928l26.946-8.982l14.97-47.904l5.988,53.892l20.958-2.994v-2.994v5.988h14.97
		l28.425,5.428v22.667L0,489.585v-14.333l9-10.175l10.479-11.896v-2.994c0-2.994,0-11.976,2.994-17.964L40.437,435.217z"/>
	<path fill="#381822" d="M0,482.036c44.91,0,74.85,5.988,113.772,2.994s143.713,2.994,170.659-2.994
		c26.946-5.988,197.605-2.994,212.575,0c14.97,2.994,125.749-2.994,158.683-2.994c29.94,0,89.82,2.994,116.766,5.988
		s116.766,8.982,149.701,2.994c29.94-5.988,59.88-9.126,77.844-6.132V500H508.982H0V482.036z"/>
</g>
</svg>
