<?xml version="1.0" encoding="utf-8"?>
<!-- Generator: Adobe Illustrator 17.0.0, SVG Export Plug-In . SVG Version: 6.00 Build 0)  -->
<!DOCTYPE svg PUBLIC "-//W3C//DTD SVG 1.1//EN" "http://www.w3.org/Graphics/SVG/1.1/DTD/svg11.dtd">
<svg version="1.1" id="Capa_1" xmlns="http://www.w3.org/2000/svg" xmlns:xlink="http://www.w3.org/1999/xlink" x="0px" y="0px"
	 width="1000px" height="500px" viewBox="0 0 1000 500" enable-background="new 0 0 1000 500" xml:space="preserve">
<g id="PLANO0">
	<path fill="#39251F" d="M324.85,11.976l-38.922,110.778l-17.964,86.826l2.994,47.904l-5.988,68.862l8.982,47.904l38.922,104.79
		L354.5,500H152.833c29.94-17.964,61.239-38.922,73.215-104.79l11.976-59.88l-11.976-29.94l5.988-50.898l-2.994-32.934l-5.988-8.982
		l5.988-29.94l-11.976-41.916l2.994-11.976l-14.97-44.91l-26.946-65.868L162.214,0h175.533l-15.89,17.964L324.85,11.976z"/>
	<path fill="#493025" d="M220.06,0c11.976,41.916,26.946,98.802,23.952,125.748c-5.988,44.91,2.994,68.862,2.994,80.838
		s5.988,74.85,2.994,83.832c0,8.982-5.988,83.832-5.988,83.832l-11.976,86.826c0,0-8.982,20.958-14.97,38.922h-59.88
		c29.94-17.964,56.886-41.916,68.862-107.784l11.976-59.88l-11.976-29.94l5.988-50.898l-2.994-32.934l-5.988-8.982l5.988-29.94
		l-11.976-41.916l2.994-11.976l-14.97-44.91L178.144,14.97L162.476,0l54.59,2.994L220.06,0z"/>
	<g id="_340033624">
		<path fill="#231A13" d="M309.88,47.904l-17.964,50.898l-47.904,8.982c0,0-17.964,0-29.94,2.994v-2.994
			C235.03,95.808,285.928,62.874,309.88,47.904z"/>
		<polygon fill="#231A13" points="279.94,134.731 273.952,173.653 226.048,212.575 223.054,209.581 229.042,179.641 
			229.042,176.647 		"/>
		<path fill="#231A13" d="M264.97,209.581v5.988c-8.982,8.982-23.952,20.958-35.928,32.934v-14.97l35.928-20.958V209.581z"/>
		<path fill="#231A13" d="M270.958,248.503v5.988v2.994c-8.982,11.976-17.964,23.952-17.964,23.952l14.97,5.988v5.988
			l-35.928,26.946l-5.988-17.964l2.994-29.94l41.916-20.958V248.503z"/>
		<polygon fill="#231A13" points="264.97,329.341 267.964,335.329 226.048,389.222 226.048,383.234 232.036,344.311 		"/>
		<path fill="#231A13" d="M273.952,374.251l11.976,29.94l-53.892,23.952l-14.97-5.988c0-2.994,0-5.988,2.994-5.988l56.886-41.916
			H273.952z"/>
		<path fill="#231A13" d="M297.904,440.12l11.976,32.934l-101.796,8.982l-26.946-5.988c5.988-5.988,8.982-8.982,14.97-14.97
			l89.82-23.952h11.976V440.12z"/>
	</g>
	<polygon fill="#231A13" points="321.856,14.97 196.108,56.886 178.144,11.976 166.168,0 166.168,0 214.072,0 327.844,8.982 
		324.85,11.976 	"/>
	<path fill="#2B1B22" stroke="#373435" stroke-width="0.3335" d="M267.964,500c29.94-2.994,56.886-5.988,71.856-5.988L351.796,500
		H267.964z"/>
	<path fill="#39251F" d="M651.198,11.976l-38.922,110.778l-17.964,86.826l2.994,47.904l-5.988,68.862l8.982,47.904l38.922,104.79
		L684.833,500h-202c29.94-17.964,57.586-38.922,69.562-104.79l11.976-59.88l-11.976-29.94l5.988-50.898l-2.994-32.934l-5.988-8.982
		l5.988-29.94l-11.976-41.916l2.994-11.976l-14.97-44.91l-26.946-65.868L486.149,0h178.382l-16.328,17.964L651.198,11.976z"/>
	<path fill="#493025" d="M546.407,0c11.976,41.916,26.946,98.802,23.952,125.748c-5.988,44.91,2.994,68.862,2.994,80.838
		s5.988,74.85,2.994,83.832c0,8.982-5.988,83.832-5.988,83.832l-11.976,86.826c0,0-8.982,20.958-14.97,38.922h-59.88
		c29.94-17.964,56.886-41.916,68.862-107.784l11.976-59.88l-11.976-29.94l5.988-50.898l-2.994-32.934l-5.988-8.982l5.988-29.94
		l-11.976-41.916l2.994-11.976l-14.97-44.91L504.491,14.97l-14.97-11.976h53.892L546.407,0z"/>
	<g id="_340040272">
		<path fill="#231A13" d="M639.222,47.904l-17.964,50.898l-47.904,8.982c0,0-17.964,0-29.94,2.994v-2.994
			C564.371,95.808,615.269,62.874,639.222,47.904z"/>
		<polygon fill="#231A13" points="609.281,134.731 600.299,173.653 555.389,212.575 552.395,209.581 558.383,179.641 
			558.383,176.647 		"/>
		<path fill="#231A13" d="M594.311,209.581v5.988c-8.982,8.982-23.952,20.958-35.928,32.934v-14.97l35.928-20.958V209.581z"/>
		<path fill="#231A13" d="M597.305,248.503v5.988v2.994c-8.982,11.976-17.964,23.952-17.964,23.952l14.97,5.988v5.988
			l-35.928,26.946l-5.988-17.964l2.994-29.94l41.916-20.958V248.503z"/>
		<polygon fill="#231A13" points="594.311,329.341 594.311,335.329 555.389,389.222 555.389,383.234 561.377,344.311 		"/>
		<path fill="#231A13" d="M603.293,374.251l11.976,29.94l-53.892,23.952l-14.97-5.988c0-2.994,0-5.988,2.994-5.988l56.886-41.916
			H603.293z"/>
		<path fill="#231A13" d="M627.245,440.12l11.976,32.934l-101.796,8.982l-26.946-5.988c5.988-5.988,8.982-8.982,14.97-14.97
			l89.82-23.952h11.976V440.12z"/>
	</g>
	<polygon fill="#231A13" points="651.198,14.97 525.449,56.886 507.485,11.976 492.515,0 492.515,0 543.413,0 654.192,8.982 
		651.198,11.976 	"/>
	<path fill="#2B1B22" stroke="#373435" stroke-width="0.3335" d="M597.305,500c29.94-2.994,56.886-5.988,71.856-5.988L681.138,500
		H597.305z"/>
	<path fill="#39251F" d="M835.741,5.988l38.922,110.778l17.964,86.826l-2.994,47.904l5.988,68.862l-8.982,47.904l-38.922,104.79
		L802.935,500H1000c-29.94-17.964-53.48-44.91-65.456-110.778l-11.976-59.88l11.976-29.94l-5.988-50.898l2.994-32.934l5.988-8.982
		l-5.988-29.94l11.976-41.916l-2.994-11.976l14.97-44.91l26.946-65.868L997.418,0H823.765l14.97,11.976L835.741,5.988z"/>
	<path fill="#493025" d="M935.629,0c-11.976,41.916-26.946,98.802-23.952,125.748c5.988,44.91-2.994,68.862-2.994,80.838
		s-5.988,74.85-2.994,83.832c0,8.982,5.988,83.832,5.988,83.832l11.976,86.826c0,0,8.982,20.958,14.97,38.922h59.88
		c-29.94-17.964-56.886-41.916-68.862-107.784l-11.976-59.88l11.976-29.94l-5.988-50.898l2.994-32.934l5.988-8.982l-5.988-29.94
		l11.976-41.916l-2.994-11.976l14.97-44.91l26.946-65.868l14.97-11.976h-53.892L935.629,0z"/>
	<g id="_338987616">
		<path fill="#231A13" d="M850.606,48.864l17.964,50.898l47.904,8.982c0,0,17.964,0,29.94,2.994v-2.994
			C925.456,96.768,874.558,63.834,850.606,48.864z"/>
		<polygon fill="#231A13" points="879.107,136.17 885.095,175.092 932.999,214.014 935.993,211.02 930.005,181.08 930.005,178.086 
					"/>
		<path fill="#231A13" d="M892.158,210.3v5.988c8.982,8.982,23.952,20.958,35.928,32.934v-14.97l-35.928-20.958V210.3z"/>
		<path fill="#231A13" d="M890.248,244.665v5.988v2.994c8.982,11.976,17.964,23.952,17.964,23.952l-14.97,5.988v5.988l35.928,26.946
			l5.988-17.964l-2.994-29.94l-41.916-20.958V244.665z"/>
		<polygon fill="#231A13" points="894.077,332.939 891.083,338.927 932.999,392.82 932.999,386.832 927.011,347.909 		"/>
		<path fill="#231A13" d="M885.335,375.931l-11.976,29.94l53.892,23.952l14.97-5.988c0-2.994,0-5.988-2.994-5.988l-56.886-41.916
			H885.335z"/>
		<path fill="#231A13" d="M857.784,440.12l-11.976,32.934l101.796,8.982l26.946-5.988c-5.988-5.988-8.982-8.982-14.97-14.97
			l-89.82-23.952h-11.976V440.12z"/>
	</g>
	<polygon fill="#231A13" points="833.832,14.97 959.581,56.886 977.545,11.976 989.521,0 989.521,0 941.617,0 823.079,0 
		830.838,11.976 	"/>
	<path fill="#2B1B22" stroke="#373435" stroke-width="0.3335" d="M887.725,500c-29.94-2.994-56.886-5.988-71.856-5.988L803.892,500
		H887.725z"/>
	<rect x="1.497" y="0" fill="none" width="997.006" height="500"/>
</g>
</svg>
