<?xml version="1.0" encoding="UTF-8"?>
<!DOCTYPE svg PUBLIC "-//W3C//DTD SVG 1.1//EN" "http://www.w3.org/Graphics/SVG/1.1/DTD/svg11.dtd">
<!-- Creator: CorelDRAW X6 -->
<svg xmlns="http://www.w3.org/2000/svg" xml:space="preserve" width="3000px" height="500px" version="1.1" style="shape-rendering:geometricPrecision; text-rendering:geometricPrecision; image-rendering:optimizeQuality; fill-rule:evenodd; clip-rule:evenodd"
viewBox="0 0 3000 500"
 xmlns:xlink="http://www.w3.org/1999/xlink">
 <defs>
  <style type="text/css">
   <![CDATA[
    .fil0 {fill:none}
    .fil1 {fill:#373435}
   ]]>
  </style>
 </defs>
 <g id="POSICION_x0020_MONEDAS">
  <metadata id="CorelCorpID_0Corel-Layer"/>
  <rect class="fil0" width="3000" height="500"/>
  <rect class="fil1" x="281" y="295" width="25" height="25"/>
  <rect class="fil1" x="325" y="295" width="25" height="25"/>
  <rect class="fil1" x="366" y="295" width="25" height="25"/>
  <rect class="fil1" x="522" y="238" width="25" height="25"/>
  <rect class="fil1" x="702" y="186" width="25" height="25"/>
  <rect class="fil1" x="743" y="186" width="25" height="25"/>
  <rect class="fil1" x="786" y="186" width="25" height="25"/>
  <rect class="fil1" x="995" y="292" width="25" height="25"/>
  <rect class="fil1" x="1036" y="292" width="25" height="25"/>
  <rect class="fil1" x="1080" y="292" width="25" height="25"/>
  <rect class="fil1" x="1216" y="227" width="25" height="25"/>
  <rect class="fil1" x="1258" y="227" width="25" height="25"/>
  <rect class="fil1" x="1301" y="227" width="25" height="25"/>
  <rect class="fil1" x="1586" y="227" width="25" height="25"/>
  <rect class="fil1" x="1672" y="227" width="25" height="25"/>
  <rect class="fil1" x="1629" y="227" width="25" height="25"/>
  <rect class="fil1" x="2152" y="227" width="25" height="25"/>
  <rect class="fil1" x="2238" y="227" width="25" height="25"/>
  <rect class="fil1" x="2195" y="227" width="25" height="25"/>
  <rect class="fil1" x="2469" y="236" width="25" height="25"/>
  <rect class="fil1" x="2555" y="236" width="25" height="25"/>
  <rect class="fil1" x="2512" y="236" width="25" height="25"/>
  <rect class="fil1" x="2953" y="309" width="25" height="25"/>
 </g>
</svg>
