<?xml version="1.0" encoding="utf-8"?>
<!-- Generator: Adobe Illustrator 17.0.0, SVG Export Plug-In . SVG Version: 6.00 Build 0)  -->
<!DOCTYPE svg PUBLIC "-//W3C//DTD SVG 1.1//EN" "http://www.w3.org/Graphics/SVG/1.1/DTD/svg11.dtd">
<svg version="1.1" id="TEXTURA_PLATAFORMA" xmlns="http://www.w3.org/2000/svg" xmlns:xlink="http://www.w3.org/1999/xlink" x="0px"
	 y="0px" width="333px" height="127px" viewBox="0 0 333 127" enable-background="new 0 0 333 127" xml:space="preserve">
<g>
	<rect y="24.927" fill="#3B191A" width="333" height="102.073"/>
	<g>
		<path fill="#461E1F" d="M8.245,27.776c0,0,9.31,31.808,9.31,34.182c0,2.373,0.532,49.375,0.532,49.375L16.546,127H0V26.574
			L8.245,27.776z"/>
		<polygon fill="#461E1F" points="31.385,26.826 28.193,63.857 30.853,85.221 28.11,127 41.441,127 41.226,80.474 44.783,24.927 
			32.11,24.927 		"/>
		<polygon fill="#461E1F" points="53.727,27.301 50.535,81.898 51.729,127 72.31,127 75.27,67.655 72.079,28.724 71.407,24.927 
			53.917,24.927 		"/>
		<polygon fill="#461E1F" points="94.684,24.927 87.24,77.625 91.85,127 101.539,127 103.465,88.07 107.986,47.716 104.649,24.927 
					"/>
		<path fill="#461E1F" d="M128.648,24.927c-1.21,14.457-3.702,40.258-3.109,42.729c0.591,2.457,1.617,39.973,2.112,59.345h12.495
			c1.367-20.29,2.948-56.496,2.948-56.496l-4.699-45.577h-9.747V24.927z"/>
		<polygon fill="#461E1F" points="156.854,24.927 149.744,55.311 150.009,85.221 155.443,127 188.885,127 190.172,90.918 
			180.596,44.392 172.831,24.927 		"/>
		<polygon fill="#461E1F" points="199.987,24.927 204.002,58.159 200.474,127 210.76,127 209.588,80.948 211.55,24.927 		"/>
		<polygon fill="#461E1F" points="216.902,24.927 220.493,76.201 220.715,127 251.406,127 250.814,86.171 234.364,24.927 		"/>
		<polygon fill="#461E1F" points="255.848,24.927 261.719,73.828 265.224,127 272.297,127 273.422,61.958 272.243,24.927 		"/>
		<polygon fill="#461E1F" points="276.648,24.927 275.55,42.968 277.677,79.999 281.587,127 292.468,127 291.508,56.261 
			283.438,24.927 		"/>
		<path fill="#461E1F" d="M297.139,24.927l2.348,30.859L313.238,127h17.913c-0.704-20.171-1.875-51.274-1.875-51.274l-5.78-50.799
			C323.496,24.927,297.139,24.927,297.139,24.927z"/>
	</g>
	<path fill="#8F5B52" d="M0,31.172c4.109-1.003,14.783-3.412,15.426-1.498c0.798,2.374,7.714,26.587,7.714,26.587
		s-1.33-23.737,0.532-23.737c1.861,0,6.915-0.951,10.905-2.374c3.99-1.425,7.181,2.849,7.181,2.849l-0.799,46.526l5.853-46.526
		c0,0,3.191-4.749,6.648-2.375c3.458,2.375,8.778,8.072,13.299,5.697c4.522-2.375,5.851-4.273,7.447-1.425
		c1.597,2.848,6.915,40.829,6.915,40.829s2.395-42.728,5.054-42.253c2.66,0.474,8.245-0.001,10.108,0.474
		c1.862,0.475,6.648-1.423,9.043-2.373c2.394-0.95,8.777-3.798,12.501-1.9c3.724,1.9,14.097-2.375,16.756,2.374
		c2.66,4.747,8.245,41.779,8.245,41.779s1.064-30.386,1.595-35.607c0.533-5.222,9.575-5.697,9.575-5.697s6.117-4.747,8.777-4.272
		c2.66,0.473,17.82,0,21.545,2.848c3.724,2.848,11.702,15.192,11.702,15.192l7.181,32.759V55.311l-4.255-24.212
		c0,0,9.841-1.898,10.374,0.475c0.531,2.373,7.447-2.375,7.447-2.375l15.426,1.425l7.714,1.425l8.245,0.95l4.787,37.03l3.193-23.737
		l-1.064-14.717c0,0,12.235-0.475,16.225-0.475c3.988,0,9.043-4.272,9.043-4.272s11.437-1.9,11.703,1.898
		c0.266,3.799,1.063,41.779,1.063,41.779l1.863,17.567c0,0-1.331-52.699,1.595-56.022c2.926-3.324,9.308-1.425,9.308-1.425
		l13.033-1.425c0,0,6.649-0.475,8.511,1.425c1.376,1.402,4.202,2.029,5.585,2.26v-7.957H0V31.172z"/>
	<rect y="0.001" fill="#092D03" width="333" height="24.927"/>
	<path fill="#165106" d="M285.481,16.128c-7.323,2.238-16.357,2.954-23.796,2.954s-16.474-0.715-23.797-2.954
		c-7.323,2.238-16.357,2.954-23.795,2.954c-7.44,0-16.474-0.715-23.797-2.954c-7.322,2.238-16.357,2.954-23.795,2.954
		c-7.439,0-16.473-0.715-23.796-2.954c-7.323,2.238-16.357,2.954-23.797,2.954c-7.439,0-16.473-0.715-23.796-2.954
		c-7.323,2.238-16.358,2.954-23.797,2.954s-16.473-0.715-23.796-2.954c-7.323,2.238-16.358,2.954-23.797,2.954
		c-7.459,0-16.412-0.675-23.722-2.919V0h333v16.162c-7.311,2.244-16.264,2.919-23.723,2.919
		C301.839,19.081,292.803,18.366,285.481,16.128z"/>
	<path fill="#01770F" d="M333,9.713c-7.175,2.952-17.8,3.459-23.723,3.459c-5.677,0-16.527-0.518-23.797-3.487
		c-7.271,2.969-18.12,3.487-23.796,3.487c-5.677,0-16.527-0.518-23.797-3.487c-7.271,2.969-18.119,3.487-23.795,3.487
		c-5.678,0-16.526-0.518-23.797-3.487c-7.27,2.969-18.118,3.487-23.795,3.487s-16.526-0.518-23.796-3.487
		c-7.271,2.969-18.119,3.487-23.797,3.487c-5.677,0-16.525-0.518-23.796-3.487c-7.27,2.969-18.119,3.487-23.797,3.487
		c-5.677,0-16.525-0.518-23.796-3.487c-7.27,2.969-18.119,3.487-23.797,3.487C17.8,13.172,7.175,12.665,0,9.713V0h333V9.713z"/>
	<g>
		<path fill="#BFF400" d="M46.741,0H0.705C0.35,0.329,0.111,0.669,0,1.017v0.912c0.955,2.984,11.211,5.334,23.722,5.334
			c13.143,0,23.797-2.592,23.797-5.789C47.519,0.964,47.25,0.47,46.741,0z"/>
		<path fill="#BFF400" d="M94.333,0H48.298C47.79,0.47,47.52,0.964,47.52,1.473c0,3.197,10.654,5.789,23.796,5.789
			c13.143,0,23.797-2.592,23.797-5.789C95.112,0.964,94.842,0.47,94.333,0z"/>
		<path fill="#BFF400" d="M141.926,0H95.89c-0.509,0.47-0.778,0.964-0.778,1.473c0,3.197,10.654,5.789,23.796,5.789
			c13.143,0,23.797-2.592,23.797-5.789C142.704,0.964,142.435,0.47,141.926,0z"/>
		<path fill="#BFF400" d="M189.517,0h-46.035c-0.509,0.47-0.778,0.964-0.778,1.473c0,3.197,10.653,5.789,23.796,5.789
			s23.795-2.592,23.795-5.789C190.295,0.964,190.026,0.47,189.517,0z"/>
		<path fill="#BFF400" d="M237.11,0h-46.036c-0.509,0.47-0.778,0.964-0.778,1.473c0,3.197,10.654,5.789,23.797,5.789
			c13.142,0,23.795-2.592,23.795-5.789C237.888,0.964,237.619,0.47,237.11,0z"/>
		<path fill="#BFF400" d="M284.702,0h-46.036c-0.509,0.47-0.778,0.964-0.778,1.473c0,3.197,10.654,5.789,23.797,5.789
			c13.142,0,23.796-2.592,23.796-5.789C285.481,0.964,285.21,0.47,284.702,0z"/>
		<path fill="#BFF400" d="M333,1.929V1.017c-0.111-0.348-0.35-0.688-0.705-1.017h-46.036c-0.509,0.47-0.778,0.964-0.778,1.473
			c0,3.197,10.653,5.789,23.797,5.789C321.789,7.263,332.045,4.913,333,1.929z"/>
	</g>
</g>
</svg>
